<?xml version="1.0" encoding="UTF-8" standalone="no"?>
<!-- Created with Inkscape (http://www.inkscape.org/) -->

<svg
   xmlns:dc="http://purl.org/dc/elements/1.1/"
   xmlns:cc="http://creativecommons.org/ns#"
   xmlns:rdf="http://www.w3.org/1999/02/22-rdf-syntax-ns#"
   xmlns:svg="http://www.w3.org/2000/svg"
   xmlns="http://www.w3.org/2000/svg"
   xmlns:sodipodi="http://sodipodi.sourceforge.net/DTD/sodipodi-0.dtd"
   xmlns:inkscape="http://www.inkscape.org/namespaces/inkscape"
   width="62mm"
   height="88mm"
   viewBox="0 0 219.68504 311.81102"
   id="svg2"
   version="1.1"
   inkscape:version="0.91 r13725"
   sodipodi:docname="a_rats.svg">
  <defs
     id="defs4">
    <inkscape:perspective
       sodipodi:type="inkscape:persp3d"
       inkscape:vp_x="0 : 155.90551 : 1"
       inkscape:vp_y="0 : 1000 : 0"
       inkscape:vp_z="219.68504 : 155.90551 : 1"
       inkscape:persp3d-origin="109.84252 : 103.93701 : 1"
       id="perspective6315" />
    <clipPath
       clipPathUnits="userSpaceOnUse"
       id="clipPath8648">
      <path
         style="fill:#ff0000;fill-opacity:1;fill-rule:evenodd;stroke:none;stroke-width:1px;stroke-linecap:butt;stroke-linejoin:miter;stroke-opacity:1"
         d="m 48.7971,144.54832 -4.54568,-1.2627 -4.04062,0.50508 -4.79822,3.40927 -5.93465,4.29314 -2.0203,2.90419 0.12627,2.65165 2.65165,2.14658 -1.01015,1.76776 -3.283,1.26269 -3.40926,8.08123 6.31345,9.34391 10.35406,-0.75762 46.21448,3.91434 25.50635,-7.19733 9.47018,-5.05077 0.12627,-10.10152 -2.65165,-1.13642 0.88389,-15.15229 10.35406,-6.9448 3.28299,-3.91434 6.566,-7.82868 0.50507,-4.54569 -4.54568,-1.89404 -2.14658,1.01016 -4.16688,1.13642 -5.93464,-2.90419 -2.77792,-1.76777 -5.80838,2.39911 -2.90419,3.03046 -3.40926,4.9245 -7.07107,0.3788 -8.96511,5.80838 -2.90418,2.14657 -3.66181,0.12627 -5.55584,-0.3788 -17.29886,2.65165 z"
         id="path8650"
         inkscape:connector-curvature="0" />
    </clipPath>
    <mask
       maskUnits="userSpaceOnUse"
       id="mask8666">
      <rect
         rx="1.7260212"
         ry="2.8714814"
         y="98.924339"
         x="22.885082"
         height="109.83415"
         width="100.10923"
         id="rect8668"
         style="opacity:1;fill:#ffffff;fill-opacity:1;stroke:none;stroke-width:2.01114893;stroke-linecap:round;stroke-linejoin:bevel;stroke-miterlimit:4;stroke-dasharray:none;stroke-dashoffset:0;stroke-opacity:1" />
    </mask>
    <clipPath
       clipPathUnits="userSpaceOnUse"
       id="clipPath9647">
      <path
         style="fill:#ff0000;fill-opacity:1;fill-rule:evenodd;stroke:none;stroke-width:1px;stroke-linecap:butt;stroke-linejoin:miter;stroke-opacity:1"
         d="m 24.29467,289.85466 12.14286,-9.28572 41.42857,-15.71428 40,-5 20,5 2.85715,7.14285 9.28571,6.42858 10,1.42857 -3.57143,13.57143 -15.71428,10 -27.85715,5.71428 -74.28571,1.42857 z"
         id="path9649"
         inkscape:connector-curvature="0" />
    </clipPath>
    <inkscape:path-effect
       pattern-nodetypes="sssss"
       fuse_tolerance="0"
       vertical_pattern="false"
       prop_units="false"
       tang_offset="0"
       normal_offset="0"
       spacing="0"
       scale_y_rel="false"
       prop_scale="1"
       copytype="single_stretched"
       pattern="M 0,5 C 0,2.24 2.24,0 5,0 7.76,0 7,0.24 7,3 7,5.76 7.76,5.75 5,5.75 2.24,5.75 0,7.76 0,5 Z"
       is_visible="true"
       id="path-effect20326"
       effect="skeletal" />
    <clipPath
       clipPathUnits="userSpaceOnUse"
       id="clipPath7877">
      <path
         style="fill:#ff0000;fill-opacity:1;fill-rule:evenodd;stroke:none;stroke-width:1px;stroke-linecap:butt;stroke-linejoin:miter;stroke-opacity:1"
         d="m 1349.8263,623.67274 -143.5316,10.50232 -77.0169,-21.00459 -119.0262,66.51457 -91.01997,38.50849 -189.04149,-14.00311 -31.50696,-80.51768 -52.51151,-94.52074 -49.01077,-77.01694 -45.51,-31.50692 -38.50846,31.50692 -21.00461,24.50538 -87.51923,56.0123 L 264.58784,578.16276 121.05631,581.6635 110.554,564.1597 96.550923,357.61431 103.55246,4.0366248 142.06092,-23.9695 l 304.56691,3.500741 59.51307,3.50079 171.53769,-10.502321 115.52538,0 38.50845,28.00617372 38.50844,3.50074108 224.04924,-28.0061248 101.5223,35.007656 91.02,87.519261 -3.5008,140.030723 3.5008,238.0523 7.0016,45.51003 3.5007,112.02459 z"
         id="path7879"
         inkscape:connector-curvature="0" />
    </clipPath>
    <filter
       style="color-interpolation-filters:sRGB"
       id="filter8486"
       inkscape:label="filter1" />
    <clipPath
       clipPathUnits="userSpaceOnUse"
       id="clipPath8513">
      <path
         style="fill:#ff0000;fill-opacity:1;fill-rule:evenodd;stroke:none;stroke-width:1px;stroke-linecap:butt;stroke-linejoin:miter;stroke-opacity:1"
         d="m 1037.9071,144.02626 13.0113,78.06757 -32.5282,52.04505 -117.10134,39.03376 -175.65205,19.5169 -149.62954,13.0113 -71.56195,-45.53943 -65.05628,-110.59572 143.12385,-84.57325 52.04505,-39.033754 6.50568,-39.033819 39.03375,-13.01123 78.06757,-13.01129406 221.19149,-6.50561504 z"
         id="path8515"
         inkscape:connector-curvature="0" />
    </clipPath>
    <clipPath
       clipPathUnits="userSpaceOnUse"
       id="clipPath8513-1">
      <path
         style="fill:#ff0000;fill-opacity:1;fill-rule:evenodd;stroke:none;stroke-width:1px;stroke-linecap:butt;stroke-linejoin:miter;stroke-opacity:1"
         d="m 1037.9071,144.02626 13.0113,78.06757 -32.5282,52.04505 -117.10134,39.03376 -175.65205,19.5169 -149.62954,13.0113 -71.56195,-45.53943 -65.05628,-110.59572 143.12385,-84.57325 52.04505,-39.033754 6.50568,-39.033819 39.03375,-13.01123 78.06757,-13.01129406 221.19149,-6.50561504 z"
         id="path8515-4"
         inkscape:connector-curvature="0" />
    </clipPath>
    <clipPath
       clipPathUnits="userSpaceOnUse"
       id="clipPath8565">
      <path
         style="fill:#ff0000;fill-opacity:1;fill-rule:evenodd;stroke:none;stroke-width:1px;stroke-linecap:butt;stroke-linejoin:miter;stroke-opacity:1"
         d="m 1037.9071,144.02626 13.0113,78.06757 -32.5282,52.04505 -117.10134,39.03376 -175.65205,19.5169 -149.62954,13.0113 -71.56195,-45.53943 -65.05628,-110.59572 143.12385,-84.57325 52.04505,-39.033754 6.50568,-39.033819 39.03375,-13.01123 78.06757,-13.01129406 221.19149,-6.50561504 z"
         id="path8567"
         inkscape:connector-curvature="0" />
    </clipPath>
    <clipPath
       clipPathUnits="userSpaceOnUse"
       id="clipPath8637">
      <rect
         style="opacity:1;fill:#ff0000;fill-opacity:1;stroke:none;stroke-width:8.10000038;stroke-linecap:round;stroke-linejoin:bevel;stroke-miterlimit:4;stroke-dasharray:none;stroke-dashoffset:0;stroke-opacity:1"
         id="rect8639"
         width="193.57143"
         height="132.14285"
         x="-219.99998"
         y="776.64789" />
    </clipPath>
    <clipPath
       clipPathUnits="userSpaceOnUse"
       id="clipPath8741">
      <path
         style="fill:#ff0000;fill-opacity:1;fill-rule:evenodd;stroke:none;stroke-width:1px;stroke-linecap:butt;stroke-linejoin:miter;stroke-opacity:1"
         d="m -26.77703,99.03193 15.71429,-5.71429 45.71428,12.85714 57.14286,17.14286 74.28571,27.14285 25.71429,21.42857 100,30 44.28571,32.85715 60,-8.57143 28.57143,17.14286 27.14286,8.57142 48.57143,-14.28571 102.85714,7.14286 -4.28571,-187.14286 -7.14286,-12.85714 -37.14286,5.71428 -22.85714,2.85715 -51.42857,0 -67.14286,0 -22.85714,-1.42858 -14.28572,8.57143 -92.85714,0 -72.85714,-4.28571 -51.42857,5.71428 -37.14286,-2.85714 -32.85714,-2.85714 -32.85715,0 -38.57142,-4.28572 -48.57143,5.71429 z"
         id="path8743"
         inkscape:connector-curvature="0"
         sodipodi:nodetypes="cccccccccccccccccccccccccccccc" />
    </clipPath>
    <clipPath
       clipPathUnits="userSpaceOnUse"
       id="clipPath20203">
      <rect
         style="opacity:1;fill:#ff0000;fill-opacity:1;stroke:none;stroke-width:8.10000038;stroke-linecap:round;stroke-linejoin:bevel;stroke-miterlimit:4;stroke-dasharray:none;stroke-dashoffset:0;stroke-opacity:1"
         id="rect20205"
         width="17069.842"
         height="17666.689"
         x="2366.7041"
         y="-21212.371"
         transform="scale(1,-1)" />
    </clipPath>
    <clipPath
       clipPathUnits="userSpaceOnUse"
       id="clipPath16200">
      <rect
         style="opacity:1;fill:#ff0000;fill-opacity:1;stroke:none;stroke-width:8.10000038;stroke-linecap:round;stroke-linejoin:bevel;stroke-miterlimit:4;stroke-dasharray:none;stroke-dashoffset:0;stroke-opacity:1"
         id="rect16202"
         width="104.38721"
         height="73.647415"
         x="14.41088"
         y="-11.355354" />
    </clipPath>
  </defs>
  <sodipodi:namedview
     id="base"
     pagecolor="#ffffff"
     bordercolor="#666666"
     borderopacity="1.0"
     inkscape:pageopacity="0.0"
     inkscape:pageshadow="2"
     inkscape:zoom="1.4"
     inkscape:cx="105.98434"
     inkscape:cy="82.54772"
     inkscape:document-units="px"
     inkscape:current-layer="layer1"
     showgrid="false"
     inkscape:window-width="1920"
     inkscape:window-height="1026"
     inkscape:window-x="-2"
     inkscape:window-y="31"
     inkscape:window-maximized="1" />
  <metadata
     id="metadata7">
    <rdf:RDF>
      <cc:Work
         rdf:about="">
        <dc:format>image/svg+xml</dc:format>
        <dc:type
           rdf:resource="http://purl.org/dc/dcmitype/StillImage" />
        <dc:title></dc:title>
      </cc:Work>
    </rdf:RDF>
  </metadata>
  <g
     inkscape:label="Layer 1"
     inkscape:groupmode="layer"
     id="layer1"
     transform="translate(0,-740.55118)">
    <text
       xml:space="preserve"
       style="font-style:normal;font-weight:normal;font-size:22.05662727px;line-height:125%;font-family:Sans;letter-spacing:0px;word-spacing:0px;fill:#000000;fill-opacity:1;stroke:none;stroke-width:1px;stroke-linecap:butt;stroke-linejoin:miter;stroke-opacity:1"
       x="164.71159"
       y="766.04486"
       id="text6305"
       sodipodi:linespacing="125%"><tspan
         sodipodi:role="line"
         id="tspan6307"
         x="164.71159"
         y="766.04486"
         style="font-style:normal;font-variant:normal;font-weight:normal;font-stretch:normal;font-size:15px;font-family:'Ubuntu Condensed';-inkscape-font-specification:'Ubuntu Condensed, '">• A D L</tspan></text>
    <text
       xml:space="preserve"
       style="font-style:normal;font-weight:normal;font-size:19.57834816px;line-height:125%;font-family:Sans;letter-spacing:0px;word-spacing:0px;fill:#000000;fill-opacity:1;stroke:none;stroke-width:1px;stroke-linecap:butt;stroke-linejoin:miter;stroke-opacity:1"
       x="14.324148"
       y="763.8302"
       id="text6317"
       sodipodi:linespacing="125%"><tspan
         sodipodi:role="line"
         id="tspan6319"
         x="14.324148"
         y="763.8302"
         style="font-style:normal;font-variant:normal;font-weight:500;font-stretch:normal;font-family:Orbitron;-inkscape-font-specification:'Orbitron Medium'">C</tspan></text>
    <text
       xml:space="preserve"
       style="font-style:normal;font-weight:normal;font-size:40px;line-height:125%;font-family:Sans;letter-spacing:0px;word-spacing:0px;fill:#000000;fill-opacity:1;stroke:none;stroke-width:1px;stroke-linecap:butt;stroke-linejoin:miter;stroke-opacity:1"
       x="40.285713"
       y="1023.7908"
       id="text8669"
       sodipodi:linespacing="125%"><tspan
         sodipodi:role="line"
         id="tspan8671"
         x="40.285713"
         y="1023.7908"
         style="font-style:normal;font-variant:normal;font-weight:500;font-stretch:normal;font-size:17.5px;font-family:Essays1743;-inkscape-font-specification:'Essays1743 Medium'">A wretched beggar</tspan></text>
    <text
       sodipodi:linespacing="125%"
       id="text11126"
       y="763.77203"
       x="30.361305"
       style="font-style:normal;font-weight:normal;font-size:22.05662727px;line-height:125%;font-family:Sans;letter-spacing:0px;word-spacing:0px;fill:#000000;fill-opacity:1;stroke:none;stroke-width:1px;stroke-linecap:butt;stroke-linejoin:miter;stroke-opacity:1"
       xml:space="preserve"><tspan
         style="font-style:normal;font-variant:normal;font-weight:normal;font-stretch:normal;font-size:15px;font-family:'Ubuntu Condensed';-inkscape-font-specification:'Ubuntu Condensed, '"
         y="763.77203"
         x="30.361305"
         id="tspan11128"
         sodipodi:role="line">2</tspan></text>
    <g
       id="layer1-6"
       transform="matrix(0.31722048,0,0,0.31722048,30.597748,827.60676)">
      <path
         style="fill:#000000"
         id="path2539"
         d="m -49.517684,503.48938 c -10.666372,-0.375 -14.923654,-1.19959 -15.623388,-3.02614 -2.123641,-5.54338 2.952386,-20.52949 9.962609,-29.41292 3.898129,-4.93976 7.560782,-11.0951 8.139225,-13.67852 3.484711,-15.56351 5.389962,-20.35198 13.645159,-34.29443 5.027151,-8.4905 9.684864,-15.45989 10.350512,-15.48754 0.665648,-0.0277 3.448751,-0.96853 6.184674,-2.09084 2.735941,-1.12231 6.523153,-2.33609 8.4160343,-2.69729 1.8928814,-0.36121 4.9215518,-1.99832 6.7303923,-3.63803 1.83845628,-1.66657 5.7754786,-2.85939 8.9277364,-2.70489 4.456977,0.21847 4.898174,-0.0228 2.1048567,-1.15093 -3.8670825,-1.5618 -2.1110414,-2.12138 14.5689013,-4.64261 4.12539,-0.62358 7.952873,-1.86663 8.505535,-2.76234 2.071284,-3.35701 12.500041,-7.45934 19.729731,-7.76101 4.126132,-0.17219 8.955461,-1.6417 10.754441,-3.27248 1.795906,-1.62798 4.470954,-2.95996 5.944585,-2.95996 1.473631,0 4.118569,-1.593 5.877649,-3.54001 1.759081,-1.947 4.625907,-3.54001 6.370745,-3.54001 1.74482,0 3.80831,-0.99563 4.585512,-2.2125 0.777201,-1.21688 5.190161,-5.25272 9.806578,-8.96853 4.616416,-3.71581 8.393486,-7.9903 8.393486,-9.49887 0,-1.97127 1.2427,-2.5049 4.41763,-1.89695 2.42969,0.46524 4.43033,0.35897 4.44584,-0.23616 0.0155,-0.59512 2.40105,-3.77862 5.30115,-7.07442 2.90012,-3.2958 5.27293,-6.7346 5.27293,-7.6418 0,-0.90718 1.66898,-1.11882 3.70886,-0.47031 2.96802,0.94359 5.62319,-0.88872 13.29274,-9.17325 5.27115,-5.6938 10.21288,-12.74187 10.98164,-15.66238 0.76875,-2.92051 2.41932,-5.31001 3.66791,-5.31001 1.2486,0 5.31084,-4.38076 9.02719,-9.73503 9.25155,-13.32898 12.00721,-31.54791 11.68706,-77.26819 -0.13059,-18.64672 0.29488,-33.57379 0.94547,-33.1713 0.99452,0.61528 2.25108,-7.44559 4.1677,-26.73586 0.19344,-1.94701 -0.40061,-4.49743 -1.32015,-5.66758 -0.91952,-1.17017 -1.04887,-3.95792 -0.28744,-6.19501 0.76143,-2.23711 1.42351,-4.59846 1.47128,-5.24747 0.0478,-0.64899 0.68324,-1.77736 1.41215,-2.50749 0.72891,-0.73013 1.32529,-2.73087 1.32529,-4.44609 0,-1.71523 1.05864,-4.17899 2.35253,-5.47504 1.29388,-1.29606 2.92045,-4.62302 3.61457,-7.39324 0.69411,-2.77021 2.69597,-5.41237 4.44856,-5.87146 3.77552,-0.98897 13.33662,-28.324621 11.54384,-33.004337 -0.62317,-1.626634 -0.33055,-2.957501 0.65024,-2.957501 0.98078,0 2.61482,-2.389507 3.63123,-5.310014 1.49908,-4.307484 1.36491,-5.310015 -0.71067,-5.310015 -1.40726,0 -2.55865,-0.88171 -2.55865,-1.959377 0,-1.07765 1.16729,-1.5107 2.59397,-0.962299 3.82047,1.468502 5.0687,-1.879196 1.45584,-3.904436 -2.80699,-1.573499 -2.84022,-2.033257 -0.35963,-4.976299 1.50319,-1.783446 4.59345,-11.207651 6.86721,-20.942677 9.09648,-38.9461078 24.0082,-69.837713 34.93129,-72.364712 2.75905,-0.638293 7.55463,-4.469548 11.05691,-8.83352 4.58947,-5.718662 8.50613,-8.453948 15.18511,-10.604805 6.80073,-2.190078 9.7785,-4.303591 12.18409,-8.647852 1.75102,-3.162169 5.8499,-8.016968 9.10863,-10.78844 5.66132,-4.814829 6.88826,-5.074782 27.57453,-5.842258 15.15483,-0.562258 28.81893,-2.403332 45.54807,-6.137067 l 23.89852,-5.333849 11.44248,5.422195 c 6.29336,2.982209 12.60866,5.422824 14.03398,5.423593 8.14539,0.0044 29.50256,12.112289 40.70084,23.074306 1.52704,1.494819 5.56439,4.847887 8.97188,7.45126 5.12664,3.916806 6.57157,6.557351 8.37552,15.305853 2.66589,12.928502 8.50175,26.392065 16.72966,38.5959754 3.41177,5.0604366 7.63544,13.0254581 9.38596,17.7000476 1.75051,4.67459 3.82734,8.949091 4.61518,9.498894 0.78785,0.5498 5.20212,8.485266 9.80949,17.634366 7.9656,15.817668 9.80453,17.928398 22.31773,25.616113 1.58457,0.973503 3.03707,3.844521 3.22778,6.380053 0.21984,2.92249 1.34547,4.542328 3.07499,4.425012 3.64677,-0.24734 4.64812,18.217456 1.9097,35.21506 -5.74231,35.64326 -10.34766,51.17994 -25.18374,84.96024 -6.40817,14.59077 -3.74186,49.19174 6.00136,77.88018 2.97559,8.76153 7.60336,22.40228 10.28393,30.31281 2.68054,7.91052 6.95742,17.45431 9.50416,21.20844 2.54673,3.75411 4.63041,7.72437 4.63041,8.8228 0,1.09841 2.12608,5.09516 4.72462,8.88164 l 4.7246,6.88452 0.28521,76.76723 0.28522,76.76725 -10.75274,-1.08489 c -12.37631,-1.24868 -170.31157,-1.5381 -418.05771,-0.76605 -94.758048,0.29527 -178.885063,0.30493 -186.948924,0.0214 z m 11.344866,-27.02898 c 2.189039,-13.08216 4.845304,-25.77699 5.90283,-28.21075 1.683539,-3.87449 1.799917,-3.54417 0.935423,2.65501 -0.543032,3.89401 -1.730154,13.45204 -2.638028,21.24006 -0.907875,7.78802 -2.171581,17.10423 -2.808231,20.70268 l -1.157542,6.54263 35.5568415,0.10917 c 19.5562585,0.06 35.5568245,-0.21211 35.5568245,-0.60479 0,-0.39268 -2.385518,-6.3292 -5.30115,-13.19231 -5.913221,-13.9191 -6.707227,-24.64967 -3.281854,-44.35253 1.699513,-9.77563 2.263715,-10.95323 3.562673,-7.43597 0.848856,2.29851 1.83805,12.63733 2.198228,22.97513 0.366327,10.51413 2.073756,24.06031 3.87507,30.74353 3.06486,11.3712 3.479409,11.95318 8.59357,12.06444 5.472659,0.11909 22.772624,-0.0789 51.318606,-0.58718 8.747957,-0.15578 16.843537,0.29755 17.990157,1.0074 1.14664,0.70984 2.54476,0.54512 3.10697,-0.36606 0.56632,-0.91785 10.66821,-1.48588 22.65197,-1.27373 11.8964,0.21063 24.81052,-0.19445 28.69803,-0.90017 4.72692,-0.8581 8.67782,-0.4907 11.92758,1.10919 2.70783,1.33308 4.85939,1.62724 4.85939,0.66437 0,-1.03304 7.99464,-1.64989 19.87931,-1.53383 10.93362,0.10677 26.63827,0.14199 34.89923,0.0783 l 15.01992,-0.11586 -6.50848,-6.17966 c -3.57966,-3.39881 -8.1519,-6.17967 -10.16054,-6.17967 -2.00862,0 -3.65205,-0.6306 -3.65205,-1.40133 0,-0.77075 -6.11613,-5.74889 -13.5914,-11.06253 -12.31397,-8.75315 -21.37485,-16.79396 -26.16722,-23.22133 -11.12716,-14.9234 -14.96237,-25.4276 -14.11339,-38.65501 0.28117,-4.38076 0.58983,-9.40591 0.68588,-11.16699 0.096,-1.76109 0.96981,-2.7097 1.94169,-2.10804 0.97188,0.60166 1.77876,5.62681 1.7931,11.16699 0.0143,5.54019 1.00829,12.00895 2.20881,14.37502 1.20051,2.36609 11.72483,11.72878 23.38736,20.80599 25.85028,20.11985 33.71049,27.65156 38.39251,36.78792 1.98023,3.86413 5.19573,9.1871 7.14556,11.82881 l 3.54517,4.80309 40.49645,-0.0748 40.49645,-0.0749 -3.17652,-3.78894 c -7.0306,-8.38611 -20.43611,-20.60399 -22.60677,-20.60399 -1.27015,0 -2.76708,-1.19475 -3.32651,-2.65501 -0.55941,-1.46025 -2.23482,-2.65501 -3.72315,-2.65501 -1.48832,0 -2.70603,-0.84351 -2.70603,-1.87447 0,-1.03095 -0.72726,-1.42423 -1.61612,-0.87397 -0.88886,0.55028 -1.88283,0.39816 -2.20881,-0.33804 -0.32599,-0.73619 -5.95339,-4.12628 -12.50536,-7.53354 -6.55198,-3.40726 -11.91939,-6.7924 -11.92759,-7.52252 -0.008,-0.73013 -1.28371,-1.32751 -2.83447,-1.32751 -1.55076,0 -5.12904,-1.64724 -7.95173,-3.66053 -2.82268,-2.01331 -5.13216,-3.20806 -5.13216,-2.655 0,0.55303 -6.16259,-5.21918 -13.69464,-12.82716 -23.57267,-23.81028 -29.88303,-39.17268 -27.99392,-68.1503 1.3765,-21.11442 3.76603,-34.96225 8.69371,-50.38186 8.78215,-27.48093 18.47712,-79.3557 15.40588,-82.43207 -1.28675,-1.28888 -1.8568,-0.53366 -1.87563,2.48484 -0.0371,5.93679 -1.72038,7.97863 -7.92467,9.6124 -8.00504,2.10795 -21.91845,2.62608 -23.01005,0.85689 -0.53066,-0.86008 -0.19416,-2.99005 0.74778,-4.73327 5.01496,-9.28106 5.52465,-15.24861 2.50467,-29.32571 -2.38138,-11.10049 -3.30526,-13.21069 -4.43934,-10.13988 -0.78766,2.13282 -1.3892,9.57895 -1.33675,16.54696 0.0524,6.96802 -0.7207,20.63412 -1.71805,30.36914 -0.99738,9.73502 -1.83392,18.27243 -1.85899,18.97201 -0.0251,0.69956 1.14717,0.81347 2.60498,0.25313 3.60712,-1.3865 3.37533,2.31775 -0.27299,4.36286 -2.05649,1.15279 -2.49732,2.62249 -1.48635,4.95547 2.54002,5.86147 2.46226,22.51699 -0.1492,31.95694 -1.51985,5.494 -4.74274,11.37987 -8.03933,14.68198 -5.64675,5.65617 -9.61715,6.08147 -4.6322,0.49616 4.02393,-4.50852 6.01783,-18.63825 7.68209,-54.43849 0.54307,-11.68204 0.91479,-24.42606 0.82603,-28.32008 -0.0888,-3.89401 0.59783,-16.8948 1.52576,-28.89065 0.92791,-11.99585 1.06712,-23.48951 0.30932,-25.54144 -1.66937,-4.52029 -3.71485,12.29405 -3.71485,30.53705 0,19.66914 -1.95675,33.63007 -4.71354,33.63007 -1.34366,0 -2.92012,-2.38951 -3.50324,-5.31001 -1.47653,-7.39498 -4.38589,-6.67427 -3.55474,0.88057 0.76057,6.91341 -2.33749,28.09507 -6.47276,44.25454 -1.49473,5.84102 -2.92424,13.80604 -3.17668,17.70005 -0.38995,6.01543 -2.94083,12.85024 -10.23926,27.43508 -6.80771,13.60427 -18.16355,33.49755 -25.76483,45.13512 -13.55329,20.75014 -30.80837,52.44152 -30.98741,56.91273 -0.033,0.82359 -1.59633,4.68343 -3.47414,8.57745 -1.87781,3.89401 -3.44117,8.31459 -3.47414,9.82352 -0.033,1.50893 -0.72108,3.50019 -1.52912,4.42501 -0.808036,0.92483 -2.467225,5.26577 -3.68709,9.64653 -2.425435,8.71025 -10.514212,23.83343 -11.968423,22.37679 -0.500322,-0.50116 0.731824,-6.33832 2.738079,-12.9715 2.006273,-6.63316 4.185629,-14.4498 4.843024,-17.37031 0.657378,-2.92051 4.498379,-11.68203 8.53552,-19.47005 4.03715,-7.78803 8.82841,-18.14255 10.64725,-23.01007 3.10028,-8.29681 7.57664,-17.70488 25.47618,-53.54404 4.01161,-8.03218 7.29715,-15.20069 7.30123,-15.93004 0.004,-0.72937 2.09105,-5.30862 4.63774,-10.17613 10.61439,-20.2873 14.39492,-28.65365 15.59644,-34.5151 1.16046,-5.66107 1.0564,-5.8899 -1.20739,-2.655 -1.3625,1.947 -4.17036,7.72109 -6.23968,12.83131 -6.20729,15.32902 -16.92762,25.13973 -55.20372,50.51978 -16.335826,10.83191 -29.31046,17.82221 -41.504216,22.36104 -5.819461,2.16614 -11.385668,4.57142 -12.369349,5.34506 -3.116086,2.45067 -43.859184,15.64183 -52.1494218,16.88411 -4.3734483,0.65534 -11.0723872,3.31948 -14.8865462,5.92029 -10.838288,7.39044 -16.44542,19.14853 -26.634565,55.85234 -1.589956,5.72744 -5.223311,14.55335 -8.074128,19.61318 -2.850817,5.0598 -5.183305,9.68454 -5.183305,10.27719 0,1.02333 11.397595,2.70263 14.905631,2.19617 0.909023,-0.13124 3.443803,-10.94218 5.632842,-24.02432 z M 176.30634,362.10129 c 0,-1.62697 1.24372,-4.33473 2.76382,-6.01724 1.52011,-1.68249 2.91166,-5.85401 3.09234,-9.27001 0.18068,-3.416 0.59357,-5.95189 0.91752,-5.63529 1.11097,1.08567 7.36272,-6.20827 7.36272,-8.59008 0,-2.40243 5.43447,-8.23935 7.67127,-8.23935 0.66457,0 -0.7896,3.17018 -3.23149,7.04485 -4.7672,7.56436 -5.52447,10.65519 -2.61057,10.65519 1.18018,0 1.08481,1.39328 -0.26875,3.92665 -1.15388,2.15968 -2.17582,5.94306 -2.27097,8.40753 -0.0952,2.46448 -0.7694,4.28174 -1.4983,4.03837 -0.72891,-0.24338 -2.91564,1.1505 -4.85939,3.09751 -4.30784,4.31504 -7.0682,4.54229 -7.0682,0.58187 z m 19.43755,-27.08879 c 0,-0.88867 1.96423,-3.85056 4.36498,-6.58198 l 4.36499,-4.96621 -2.08399,5.70521 c -1.9439,5.32171 -6.64598,9.45566 -6.64598,5.84298 z m 278.47574,156.65896 c 0.25422,-2.38848 3.1983,-10.19496 6.54237,-17.34773 7.78762,-16.65725 11.75507,-32.65527 12.85405,-51.83159 0.73336,-12.79679 0.12195,-18.03064 -3.78108,-32.36649 -8.38131,-30.78458 -10.98318,-41.77204 -12.43777,-52.52374 l -1.43374,-10.59759 -1.25604,12.39004 c -0.69081,6.81452 -1.64438,15.97429 -2.11903,20.35505 -1.81568,16.75766 -11.85703,51.984 -18.46811,64.78843 -4.93532,9.55884 -9.22237,19.98581 -9.22237,22.43068 0,1.51587 -0.61571,3.02163 -1.36825,3.34614 -0.75255,0.3245 -5.17314,8.55502 -9.82354,18.29005 -4.6504,9.73502 -9.60089,19.81419 -11.00109,22.39815 -1.40021,2.58396 -2.54584,4.97347 -2.54584,5.31002 -2e-5,0.33654 12.05957,0.40701 26.7991,0.15659 l 26.79911,-0.45532 0.46223,-4.34269 z m 47.01483,2.24432 c -2.53105,-2.53529 -2.76183,-4.95602 -0.47249,-4.95602 0.90639,0 2.15272,1.59301 2.76965,3.54001 0.98642,3.11314 2.6736,3.54001 13.99179,3.54001 7.07857,0 15.45557,-0.90279 18.61555,-2.00621 l 5.74544,-2.00623 -1.20992,-11.71131 c -0.66547,-6.44122 -2.33708,-13.47543 -3.71471,-15.63156 -2.87598,-4.5012 -3.36321,-10.09516 -0.73773,-8.4698 1.06718,0.66066 1.76705,-1.75163 1.76705,-6.09055 0,-3.95146 -0.8421,-7.18448 -1.87134,-7.18448 -1.02923,0 -1.45509,-0.67462 -0.94634,-1.49916 0.50873,-0.82452 -1.52359,-3.81141 -4.51628,-6.63752 -2.99267,-2.82609 -6.98524,-8.69462 -8.87236,-13.04116 -2.27444,-5.23871 -9.83388,-14.18896 -22.42432,-26.55008 -12.60661,-12.377 -21.16793,-22.51591 -25.46068,-30.15229 -3.5571,-6.32777 -6.49519,-10.36253 -6.52907,-8.96614 -0.11671,4.81075 5.68888,23.05693 7.06518,22.20491 0.75838,-0.4695 0.97992,0.6746 0.49228,2.54243 -0.48763,1.86783 0.46972,8.04182 2.12746,13.71998 4.14553,14.19946 5.89832,28.40456 4.35219,35.27135 -0.71258,3.16478 -0.57942,6.47152 0.29591,7.34831 0.94399,0.94557 0.54335,6.58238 -0.98469,13.85431 -3.04823,14.50651 -4.4284,18.45513 -6.45072,18.45513 -0.82385,0 -2.05154,2.98688 -2.72818,6.63752 -0.67664,3.65063 -3.16088,9.18452 -5.52051,12.29753 l -4.29026,5.66003 10.29983,0.64282 c 24.98985,1.55962 31.39698,1.38154 29.20727,-0.81183 z m 25.56333,-46.84614 c -0.64793,-0.64899 -1.17804,-2.00304 -1.17804,-3.00901 0,-1.10908 0.82303,-1.00458 2.091,0.26551 1.15007,1.15199 1.68018,2.50604 1.17804,3.009 -0.50214,0.50299 -1.4431,0.38351 -2.091,-0.2655 z m -148.77339,-4.2773 c 2.16351,-13.20201 2.98183,-15.56226 5.11178,-14.74356 2.22968,0.85704 6.54881,-7.73853 14.75253,-29.35926 3.33988,-8.8022 4.76838,-17.2655 6.08061,-36.02535 0.94334,-13.48616 1.36917,-24.86689 0.94629,-25.29047 -0.96286,-0.96447 -5.12812,30.85581 -5.58015,42.62936 -0.18474,4.81174 -1.1536,9.02165 -2.15302,9.35535 -1.96316,0.65548 -1.94314,-24.2099 0.0245,-30.494 0.60965,-1.94701 1.48517,-8.31902 1.94563,-14.16004 2.0341,-25.80362 3.19071,-32.38863 7.15039,-40.71011 5.91035,-12.42097 6.858,-20.45361 3.67832,-31.17872 -3.04881,-10.28361 -5.82907,-14.44944 -8.52831,-12.77843 -1.06847,0.66145 -1.31122,0.28223 -0.57901,-0.90449 0.69346,-1.12391 0.36514,-2.04349 -0.72958,-2.04349 -1.18627,0 -1.53724,-1.43018 -0.86873,-3.54001 1.20449,-3.80134 -1.76223,-5.01413 -3.24735,-1.32749 -0.49019,1.21687 -0.95405,-0.37613 -1.03077,-3.54001 -0.0767,-3.16389 -0.93468,-5.75252 -1.90656,-5.75252 -0.97188,0 -1.76705,0.85339 -1.76705,1.89644 0,1.04303 -1.12404,3.02235 -2.49788,4.39849 -1.37383,1.37613 -2.27835,4.50525 -2.01004,6.95359 0.28716,2.62045 -0.41163,4.45152 -1.69886,4.45152 -1.20269,0 -2.62801,2.19038 -3.16736,4.86752 -0.53936,2.67713 -1.54593,6.33166 -2.23681,8.12115 -1.10391,2.85936 -0.16239,2.6985 7.76924,-1.3275 4.96395,-2.51962 11.23853,-4.51826 13.94351,-4.4414 2.70497,0.0769 3.92416,0.54147 2.70931,1.03249 -1.21484,0.49102 -2.20881,2.04615 -2.20881,3.45583 0,1.40969 -1.15459,3.00685 -2.56577,3.54928 -1.41117,0.54242 -3.08796,4.47428 -3.7262,8.73744 -1.55864,10.41113 -4.88686,13.10074 -8.80302,7.11393 -3.46407,-5.29569 -6.10961,-4.4599 -6.10961,1.93019 0,3.28163 0.7219,4.23244 2.65058,3.49109 1.45781,-0.56035 2.65057,-0.44174 2.65057,0.26355 0,2.80472 -11.35161,6.06448 -21.45043,6.15976 -11.64848,0.1099 -13.81711,-1.41772 -13.86351,-9.76574 -0.0301,-5.41669 -0.51087,-5.67998 -5.49386,-3.0087 -1.90709,1.02235 -2.92896,2.73152 -2.27086,3.79816 2.33219,3.77986 -8.83509,-0.51615 -11.57893,-4.45437 -5.44903,-7.82097 -11.09636,-11.94591 -13.55571,-9.90141 -2.75151,2.28736 -6.00279,0.68711 -6.00279,-2.95449 0,-3.29338 6.80982,-5.94368 12.48154,-4.85766 4.179,0.8002 4.32554,0.51341 3.70849,-7.25799 -0.40473,-5.09731 0.0772,-8.09114 1.30254,-8.09114 1.06974,0 2.01036,1.39388 2.09028,3.09751 0.59145,12.60812 3.92073,18.14255 10.91381,18.14255 2.5113,0 3.04338,-0.85861 2.19376,-3.54001 -0.64345,-2.03074 -0.31754,-3.54001 0.76445,-3.54001 1.03738,0 1.88613,1.10955 1.88613,2.46564 0,3.12303 5.34631,5.27714 7.56977,3.04996 1.05884,-1.0606 0.33055,-3.1288 -1.97443,-5.60705 -2.00866,-2.15964 -4.9218,-6.60681 -6.47367,-9.8826 -2.27063,-4.79297 -3.84793,-5.95599 -8.07772,-5.95599 -4.03834,0 -5.75076,-1.12774 -7.39107,-4.86751 -1.9996,-4.55886 -4.54911,-7.43274 -6.64945,-7.49542 -1.32004,-0.0394 -7.04328,13.67364 -7.04328,16.87588 0,1.49526 -2.77404,7.86498 -6.16451,14.1549 -5.88023,10.90882 -6.0771,11.84464 -4.26859,20.29146 1.04275,4.87036 2.62403,8.40446 3.51393,7.85355 0.88991,-0.55092 1.62292,0.83747 1.62891,3.08531 0.006,2.24783 1.23067,6.43006 2.72153,9.29382 1.49086,2.86378 3.33879,9.8075 4.1065,15.43054 1.267,9.27996 1.10153,10.1787 -1.79247,9.73631 -3.58563,-0.54812 -6.65372,-2.93862 -3.77159,-2.93862 1.13077,0 1.62503,-3.3069 1.25663,-8.40752 -0.33397,-4.62414 -0.6426,-9.0049 -0.68584,-9.73503 -0.0432,-0.73013 -1.04615,-1.12838 -2.22869,-0.885 -1.18257,0.24337 -3.56685,-2.34526 -5.29841,-5.75252 l -3.1483,-6.19501 -0.003,6.35621 c -0.002,3.49592 1.18141,10.26618 2.62872,15.04504 1.44728,4.77885 2.64004,11.70373 2.65057,15.38861 0.0173,6.05898 -0.30517,6.52596 -3.37135,4.88224 -1.86475,-0.99966 -3.92837,-4.27065 -4.58578,-7.26886 -0.65741,-2.99821 -1.61929,-5.0266 -2.13749,-4.50753 -1.96677,1.97005 3.24046,17.0377 7.46663,21.60543 3.84012,4.1505 4.41557,4.33451 4.42505,1.41495 0.0137,-4.22381 2.68803,0.70551 8.74247,16.11409 2.29508,5.84102 5.63794,12.26437 7.42854,14.27412 1.79061,2.00975 3.25565,4.94962 3.25565,6.53305 0,1.58345 0.82705,3.39098 1.83787,4.01674 1.98495,1.22881 0.79178,-5.47044 -2.37216,-13.31888 -0.98112,-2.43375 -1.86848,-5.22151 -1.97194,-6.19501 -0.10344,-0.97351 -1.96497,-5.64922 -4.13675,-10.39048 -2.17177,-4.74124 -5.08497,-12.4532 -6.47378,-17.13766 -2.40561,-8.11408 -2.36449,-8.50509 0.86852,-8.26115 2.41554,0.18226 3.72194,2.06077 4.53263,6.51764 0.62643,3.44388 5.06839,17.41262 9.871,31.04165 12.2892,34.87465 12.26676,34.81888 13.5106,33.57294 1.73042,-1.73331 1.43661,-5.09482 -0.58694,-6.71512 -1.11257,-0.89086 -0.79042,-1.16142 0.8244,-0.6924 1.76699,0.51321 2.50106,2.62327 2.20208,6.32976 -0.30468,3.77707 0.33752,5.55993 2.00272,5.55993 1.34817,0 2.99506,1.79213 3.65975,3.98251 0.75937,2.50236 1.55426,3.13968 2.13877,1.71481 0.51161,-1.24725 -1.84814,-10.80528 -5.24393,-21.24006 -3.39578,-10.43479 -6.64222,-22.55662 -7.2143,-26.93738 l -1.04014,-7.96502 3.07281,8.18652 c 1.69004,4.50257 4.00284,9.28605 5.13957,10.62992 1.13671,1.34388 2.61446,4.62934 3.28389,7.30102 0.66944,2.6717 2.0112,4.85762 2.9817,4.85762 0.9705,0 1.26892,-1.29373 0.66315,-2.87496 -0.60576,-1.58124 -2.36254,-8.55063 -3.90396,-15.48755 -1.54141,-6.93691 -5.55186,-20.93097 -8.91211,-31.09793 -3.60549,-10.90899 -5.69031,-20.15848 -5.08669,-22.56757 1.75933,-7.02139 4.48964,-4.46175 4.48964,4.209 0,4.64705 1.53851,11.47464 3.50043,15.5342 1.92522,3.98367 5.95945,16.78004 8.96494,28.43641 3.00548,11.65636 7.38939,28.64469 9.74204,37.75183 2.35264,9.10713 3.87967,17.20324 3.39339,17.99137 -0.48627,0.78811 0.0746,1.75305 1.24636,2.14429 1.32134,0.44119 0.9551,1.16312 -0.9643,1.90091 -1.70213,0.65425 -2.76653,0.60131 -2.36534,-0.11767 0.40119,-0.71897 -0.37129,-3.69674 -1.7166,-6.61725 -2.41234,-5.23691 -2.43049,-5.20036 -1.31734,2.65501 1.37014,9.66892 2.45028,11.75605 4.44894,8.59649 1.19253,-1.8852 1.52493,-1.75348 1.54617,0.61276 0.0149,1.65782 0.96762,5.08196 2.11717,7.60921 2.42915,5.34032 4.22014,3.38584 5.81492,-6.34573 z m -4.78708,1.11797 c -0.49316,-2.58419 0.16257,-5.33542 1.54577,-6.48528 1.97446,-1.6414 2.19994,-0.93414 1.26605,3.97127 -1.46009,7.66932 -1.77435,7.95028 -2.81182,2.51401 z m 1.37514,-11.46839 c -0.55917,-0.90625 -0.2085,-2.14801 0.77923,-2.75948 0.98773,-0.61146 1.79587,0.12999 1.79587,1.6477 0,3.10907 -1.06033,3.56684 -2.5751,1.11178 z m 0.81791,-9.41484 c 0.022,-4.93397 3.81301,-15.48754 5.5634,-15.48754 1.11658,0 1.33156,1.25099 0.53231,3.09751 -0.73741,1.70363 -1.55306,5.08876 -1.81255,7.52252 -0.2595,2.43376 -0.53641,5.02239 -0.61536,5.75252 -0.24631,2.2776 -3.6782,1.44952 -3.6678,-0.88501 z m -33.71511,-22.12506 c -0.0722,-2.67713 -0.46483,-6.65964 -0.87245,-8.85002 -0.4076,-2.19038 -0.0835,-3.98251 0.72034,-3.98251 0.8038,0 1.59503,0.99563 1.7583,2.21251 0.16328,1.21687 0.78038,5.19938 1.37137,8.85002 0.70066,4.32816 0.39243,6.63752 -0.88587,6.63752 -1.07822,0 -2.01947,-2.19038 -2.09169,-4.86752 z m 41.69412,-10.44635 c 0.30833,-4.71965 0.68447,-8.5812 0.83583,-8.5812 0.15139,0 0.65151,-5.17726 1.11141,-11.50503 1.96162,-26.99059 5.97559,-48.37188 8.58947,-45.75363 0.7617,0.76299 -3.03938,37.87477 -6.08726,59.43258 -1.99749,14.12846 -5.2609,18.82781 -4.44945,6.40728 z m -18.27006,-9.0237 c -1.04816,-5.59764 -2.48362,-14.95654 -3.18993,-20.79756 -1.02491,-8.47593 -1.54288,-9.72665 -2.56563,-6.19501 -0.74957,2.58829 -1.35457,3.19179 -1.45761,1.45393 -0.0969,-1.6341 -1.49785,-4.295 -3.11329,-5.91314 -2.1919,-2.19557 -2.39522,-3.27757 -0.80127,-4.26431 1.17472,-0.72725 2.55629,-6.23047 3.07014,-12.22941 l 0.93426,-10.90716 -6.02364,0 c -7.30306,0 -21.53938,-11.78363 -19.07053,-15.78499 1.66698,-2.70173 5.39065,-1.08287 5.39065,2.34359 0,1.25384 1.47679,3.98531 3.28174,6.06993 4.85771,5.61035 14.91426,5.88168 31.29515,0.84433 17.98764,-5.53146 18.78561,-5.99945 20.7755,-12.18436 2.11841,-6.58433 4.50865,-9.60857 7.59423,-9.60857 3.53811,0 2.98614,4.8519 -1.38574,12.18111 -5.38706,9.03114 -10.46872,14.36444 -13.71679,14.39606 -5.75885,0.0561 -7.26293,3.32212 -9.81584,21.31475 -1.44237,10.16579 -2.63707,19.47888 -2.65488,20.69576 -0.0178,1.21688 -0.78678,2.21251 -1.70885,2.21251 -1.85475,0 -0.91779,-15.40032 1.75523,-28.8497 2.29777,-11.56123 2.23929,-11.86376 -2.28757,-11.83625 -10.56012,0.0642 -11.93707,1.48107 -11.78808,12.1298 0.14787,10.56902 0.65432,10.52628 2.44643,-0.20643 2.08404,-12.48112 4.03469,-6.6531 3.85074,11.50503 -0.20431,20.1677 0.64591,31.61761 2.27297,30.61034 0.5908,-0.36574 0.77722,2.45402 0.41429,6.26615 -0.36294,3.81211 -0.8705,6.93113 -1.12791,6.93113 -0.25741,0 -1.32561,-4.57989 -2.37377,-10.17753 z m 5.25904,-11.06253 c 0,-2.43376 0.40109,-3.42938 0.89129,-2.2125 0.49019,1.21687 0.49019,3.20813 0,4.42501 -0.4902,1.21688 -0.89129,0.22125 -0.89129,-2.21251 z m 9.80397,-13.55425 c 0.4768,-6.66096 1.55716,-14.50032 2.40078,-17.42083 0.9878,-3.4196 1.17173,0.36124 0.51667,10.62003 -0.55947,8.76152 -1.63982,16.60089 -2.4008,17.42083 -0.76097,0.81993 -0.99346,-3.95908 -0.51665,-10.62003 z m -41.45847,2.42177 c -1.04452,-4.09891 -2.45475,-9.44382 -3.13385,-11.87758 -1.18493,-4.24651 -1.13089,-4.28221 1.33941,-0.885 3.17963,4.37269 6.766,18.3131 4.99357,19.41035 -0.715,0.44264 -2.15461,-2.54885 -3.19913,-6.64777 z m -9.85565,-13.05759 c -0.64793,-0.64899 -1.17804,-2.00304 -1.17804,-3.00901 0,-1.10908 0.82304,-1.00458 2.091,0.2655 1.15007,1.15199 1.68018,2.50605 1.17804,3.00901 -0.50214,0.50298 -1.4431,0.38351 -2.091,-0.2655 z m 2.52893,-9.70414 c -1.06696,-3.06579 -1.93992,-6.75574 -1.93992,-8.19992 0,-1.44416 -1.46552,-3.91394 -3.25671,-5.48838 -4.45394,-3.91496 -7.2237,-9.52786 -6.89017,-13.96284 0.40462,-5.38062 2.75801,-3.03191 4.09042,4.08229 0.63174,3.37311 1.83487,6.13292 2.67364,6.13292 2.26979,0 6.27737,8.81905 7.44007,16.37255 1.24703,8.10127 0.46813,8.49246 -2.11733,1.06338 z m -2.74798,-31.47366 c -0.55916,-0.90624 -0.34102,-2.06595 0.48472,-2.57714 0.82576,-0.5112 1.50138,0.23026 1.50138,1.64769 0,2.98453 -0.55722,3.24529 -1.9861,0.92945 z m 17.59503,-5.43232 c -0.60065,-0.9735 -0.25,-1.77001 0.77924,-1.77001 1.02923,0 1.87134,0.79651 1.87134,1.77001 0,0.9735 -0.35066,1.77 -0.77924,1.77 -0.42858,0 -1.27068,-0.7965 -1.87134,-1.77 z m 195.259,112.83851 0,-21.68185 -12.56602,-11.93095 c -6.9113,-6.56202 -13.27268,-11.49347 -14.1364,-10.95877 -0.86369,0.53469 -1.57037,0.20007 -1.57037,-0.74363 0,-1.63401 -16.43291,-12.51521 -27.09676,-17.94234 -2.75476,-1.40199 -7.25209,-5.10849 -9.99409,-8.23667 -2.74202,-3.1282 -5.34284,-5.32968 -5.77962,-4.89217 -1.00462,1.00632 2.62133,15.16631 4.4897,17.53302 0.76851,0.9735 3.76359,5.59495 6.65572,10.26988 3.21904,5.20337 6.04202,8.01476 7.27892,7.24904 1.15851,-0.71719 1.54016,-0.47227 0.89455,0.57406 -0.61928,1.0037 5.01657,7.69037 12.52411,14.8593 12.0692,11.52482 25.16387,26.60877 25.16387,28.98661 0,2.12944 11.08716,18.59632 12.5209,18.59632 0.88853,0 1.61549,-9.75683 1.61549,-21.68185 z m -37.10804,-42.14278 c 0,-1.03096 0.79517,-1.3822 1.76705,-0.78054 0.97188,0.60166 1.76705,1.44517 1.76705,1.87447 0,0.4293 -0.79517,0.78054 -1.76705,0.78054 -0.97188,0 -1.76705,-0.84352 -1.76705,-1.87447 z m 34.11282,-15.46376 c -2.13332,-4.18176 -6.90435,-11.35028 -10.60229,-15.93004 -11.40691,-14.12698 -13.94924,-18.45786 -20.48732,-34.90016 -13.92262,-35.01337 -20.69371,-55.57064 -20.69371,-62.82695 0,-8.13698 -0.86554,-8.96564 -7.09317,-6.79105 -3.4194,1.19399 -6.15481,1.1496 -8.5584,-0.13893 -3.04834,-1.63414 -3.93277,-1.10582 -6.45037,3.85311 -4.03607,7.94985 -4.61126,10.74106 -5.66716,27.50051 -1.08838,17.2751 3.58853,43.41062 8.68108,48.51168 1.75151,1.75445 2.43077,3.18991 1.50944,3.18991 -2.94911,0 1.43381,9.45462 7.60277,16.40031 3.22881,3.63536 6.79425,6.60975 7.92319,6.60975 1.12895,0 2.05262,0.71016 2.05262,1.57812 0,0.86797 1.82222,2.03623 4.04937,2.59615 5.02058,1.26219 39.41225,26.56567 45.42802,33.42339 l 4.41763,5.03591 0.88352,-10.25425 c 0.71108,-8.25288 0.12649,-11.73821 -2.99522,-17.85746 z m -237.13023,-28.75004 -1.73636,-4.35687 -0.0879,4.42501 c -0.0483,2.43376 0.49226,6.41627 1.20131,8.85003 l 1.28918,4.42501 0.53505,-4.49316 c 0.29426,-2.47125 -0.24631,-6.45376 -1.20131,-8.85002 z m 111.09152,-2.80682 c 0.0437,-4.17748 3.90631,-15.99502 8.29246,-25.37028 3.78444,-8.08906 6.07314,-37.15394 3.21162,-40.78495 -3.53315,-4.48324 -4.25446,-8.26002 -1.57754,-8.26002 1.36516,0 2.49409,0.0664 2.50872,0.14751 0.0146,0.0811 1.17249,3.33351 2.573,7.22751 l 2.54641,7.08002 0.0776,-12.83253 c 0.0443,-7.32322 0.83619,-12.83253 1.84461,-12.83253 0.97187,0 1.76705,1.35405 1.76705,3.00901 0,2.19514 0.52769,2.48043 1.951,1.05474 3.04957,-3.05467 0.15451,-15.42486 -5.60046,-23.92993 -2.81681,-4.16288 -5.07318,-9.16188 -5.01414,-11.10889 0.059,-1.947 0.51008,-2.53942 1.0023,-1.31648 0.49222,1.22295 1.74505,1.69726 2.7841,1.05402 1.17613,-0.72809 1.36718,-0.32353 0.5062,1.07187 -0.7606,1.23277 -0.65103,2.74972 0.2435,3.37099 0.89454,0.62129 2.96624,3.91737 4.60377,7.32463 1.63754,3.40726 2.99547,5.19939 3.01759,3.98251 0.0825,-4.53824 3.57875,-2.02016 3.68635,2.65501 0.11047,4.8011 0.13454,4.81117 1.76443,0.73788 2.2978,-5.74248 0.0735,-17.77285 -3.65569,-19.77196 -1.69073,-0.90637 -6.95191,-2.49799 -11.69147,-3.53693 -4.73958,-1.03894 -10.72437,-3.41921 -13.29952,-5.2895 -3.98641,-2.89522 -11.78759,-5.90516 -15.9252,-6.14443 -1.34678,-0.0779 -13.10358,-9.19941 -17.76783,-13.7852 -4.65823,-4.57983 -4.06241,-0.20073 1.65576,12.1698 2.64347,5.71878 5.13215,11.10602 5.53039,11.97166 0.39826,0.86562 -0.29019,0.94594 -1.5299,0.17849 -1.72603,-1.06852 -1.95446,-0.19338 -0.97518,3.73614 1.43792,5.76999 6.04169,12.20443 16.70562,23.34858 6.93212,7.24427 9.31023,12.758 5.50263,12.758 -0.97188,0 -1.76705,-0.80343 -1.76705,-1.78539 0,-0.98196 -4.37345,-6.55056 -9.71877,-12.37463 -5.34533,-5.8241 -9.71878,-11.79094 -9.71878,-13.25966 0,-1.46871 -0.6906,-2.67039 -1.53466,-2.67039 -1.5678,0 -4.1284,21.40651 -4.18155,34.95758 -0.0305,7.76605 -2.09487,10.00318 -3.91884,4.24674 -0.57088,-1.80169 -0.56607,-11.95709 0.0107,-22.56755 2.13833,-39.33936 2.13647,-39.56228 -0.34604,-41.62604 -1.3194,-1.09683 -2.39893,-3.72869 -2.39893,-5.84854 0,-2.11986 -0.70579,-4.61097 -1.56845,-5.53579 -0.86264,-0.92483 -2.09657,-3.67276 -2.74205,-6.10652 -1.15155,-4.34175 -1.11789,-4.35841 1.78926,-0.885 2.90915,3.47577 2.94332,3.45972 1.88268,-0.885 -0.59413,-2.43376 -1.0911,-5.26064 -1.10437,-6.28195 -0.0133,-1.02131 -2.78101,-2.85551 -6.15058,-4.076 -7.10837,-2.57472 -13.31108,-0.35524 -13.31108,4.763 0,4.77101 -10.53091,13.90455 -19.43755,16.85832 -4.37345,1.45039 -13.12035,3.62187 -19.43755,4.82551 -11.62505,2.21497 -17.08568,4.70886 -24.29693,11.0965 -5.72855,5.07429 -4.91405,0.37933 0.86546,-4.98868 l 4.84133,-4.49666 -6.60838,0 c -3.63461,0 -6.60838,0.83454 -6.60838,1.85453 0,1.01998 -1.98793,3.69995 -4.41762,5.95549 -2.42969,2.25553 -4.4186,4.80612 -4.41978,5.66799 -10e-4,0.86187 -1.98912,3.88131 -4.41763,6.70986 -5.18097,6.03441 -5.32885,6.93945 -1.63574,10.00959 4.71861,3.92265 10.19369,16.12478 7.87831,17.55817 -1.2266,0.75933 -1.56248,3.11207 -0.85017,5.95491 2.14034,8.54206 6.07113,4.3634 6.12163,-6.50769 0.043,-9.25969 3.6948,-13.59163 17.45881,-20.71054 7.18698,-3.71719 13.54836,-7.41651 14.13639,-8.22072 0.58804,-0.8042 3.2559,-2.59112 5.92856,-3.97095 8.20846,-4.23783 5.39885,-5.15335 -5.13368,-1.67283 -12.90551,4.26468 -15.30651,4.1711 -7.96788,-0.31053 3.24181,-1.97975 10.00078,-4.49556 15.01992,-5.59068 6.52669,-1.42406 11.15779,-3.92572 16.26079,-8.78389 7.18865,-6.84372 9.65189,-8.16123 9.65189,-5.16247 0,2.62557 -15.94231,17.8398 -18.69353,17.8398 -1.3811,0 -2.51107,0.75914 -2.51107,1.68696 0,0.92783 -2.7831,3.00984 -6.18468,4.62668 -3.40157,1.61687 -6.18467,4.09075 -6.18467,5.49753 0,1.40678 -0.6765,2.139 -1.50332,1.62713 -0.82684,-0.51187 -3.98385,0.90247 -7.01559,3.14296 -3.03175,2.24051 -8.71665,5.52102 -12.63308,7.29005 -3.91644,1.76901 -7.26666,4.48932 -7.44494,6.04508 -0.17826,1.55578 -0.48056,6.41294 -0.67179,10.7937 -0.19122,4.38076 -0.92986,11.23534 -1.64143,15.23238 -0.88788,4.98751 -0.53855,8.59677 1.11357,11.50503 1.32402,2.33072 3.32321,7.42368 4.44263,11.31769 l 2.03534,7.08002 0.18333,-8.85002 c 0.21221,-10.24341 3.14215,-22.12506 5.45591,-22.12506 0.88195,0 0.75377,2.4088 -0.28736,5.40037 -2.03027,5.83377 -0.55123,9.41876 2.1323,5.16839 1.43836,-2.27819 1.64027,-2.27178 1.61477,0.0513 -0.016,1.46026 -1.19661,4.20113 -2.6235,6.09082 -1.42692,1.88969 -2.54581,6.27046 -2.48644,9.73503 0.13504,7.87942 5.47512,25.28131 7.84378,25.56078 2.28412,0.2695 3.44878,-9.68796 1.29883,-11.10448 -2.03976,-1.34393 -0.58864,-14.66833 1.45941,-13.40044 1.55594,0.96322 6.96053,-15.14291 6.96053,-20.74297 0,-1.77032 0.71739,-3.21876 1.59418,-3.21876 0.87681,0 2.46422,-2.19037 3.52758,-4.8675 3.62411,-9.12406 11.6564,-21.68646 15.6184,-24.42702 6.09907,-4.21878 15.87306,-1.69248 20.0597,5.18483 1.84974,3.03855 3.36615,4.48946 3.36978,3.22425 0.01,-3.48817 -5.1518,-12.74462 -7.10697,-12.74462 -0.94693,0 -1.72167,-1.19476 -1.72167,-2.65501 0,-1.46025 -1.49298,-2.65501 -3.31775,-2.65501 -1.82474,0 -4.30762,1.19476 -5.5175,2.65501 -2.22603,2.68669 -7.0682,3.67426 -7.0682,1.44158 0,-0.66738 1.72895,-3.05689 3.84211,-5.31001 6.08429,-6.48725 10.92367,-5.28853 17.40383,4.31093 l 5.67554,8.40752 -0.94064,-12.39003 -0.94062,-12.39003 2.78175,10.95272 c 2.5818,10.16547 2.56045,11.53312 -0.29692,19.02753 -1.69326,4.44115 -3.60927,8.05759 -4.25779,8.03653 -0.64853,-0.0211 -2.3719,-2.60971 -3.82971,-5.75252 -2.94417,-6.34715 -12.36935,-9.44212 -12.36935,-4.06177 0,1.52491 -0.79517,2.77257 -1.76705,2.77257 -0.97188,0 -1.76705,-0.74699 -1.76705,-1.66 0,-0.913 -1.59035,-1.54001 -3.5341,-1.39334 -4.93352,0.37225 -4.46224,5.20213 1.32529,13.58257 3.09359,4.47958 6.25825,7.06089 8.70902,7.10365 4.6715,0.0815 9.24383,4.3909 11.48182,10.82152 1.15257,3.3118 3.94743,5.64801 9.12743,7.62957 4.10639,1.57088 8.09275,2.85613 8.85859,2.85613 1.77673,0 6.44114,-4.63245 6.44114,-6.39701 0,-0.73692 1.64808,-3.09708 3.66237,-5.24479 3.15523,-3.36419 4.43533,-6.33327 5.03769,-11.68432 0.0744,-0.66061 1.40065,-2.46865 2.94731,-4.0179 3.78175,-3.78807 4.26485,-8.20997 1.35826,-12.43242 -1.32184,-1.92023 -2.40333,-4.50884 -2.40333,-5.7525 0,-4.52017 3.48756,-2.08609 7.95727,5.55366 2.51469,4.29815 5.72014,8.76915 7.12323,9.93556 1.40311,1.16642 2.15469,2.76323 1.67018,3.54847 -0.48449,0.78525 1.22184,3.0845 3.79186,5.10948 2.57001,2.02495 3.72342,3.68172 2.56312,3.68172 -1.1603,0 -1.63966,0.76173 -1.06523,1.69271 0.57442,0.93099 2.10908,1.28345 3.41035,0.78328 1.3013,-0.50018 2.82568,0.29053 3.38753,1.75716 0.67879,1.77186 0.20323,2.35205 -1.41732,1.72913 -2.00915,-0.77227 -2.09673,0.17923 -0.49705,5.40016 2.25923,7.3736 4.88296,8.34513 4.88296,1.80814 0,-2.56161 0.76586,-4.05535 1.76277,-3.43819 1.94202,1.20223 1.8815,18.42214 -0.0746,21.2427 -0.67515,0.9735 -2.22689,4.95601 -3.44829,8.85002 -1.22142,3.89401 -3.36174,8.39147 -4.75628,9.99433 -2.29688,2.64002 -5.78746,20.12634 -5.77809,28.94578 0.003,3.23904 0.29755,3.16378 3.45928,-0.885 1.90053,-2.43376 3.47319,-6.117 3.4948,-8.18498 z M 381.1287,264.07294 c -3.85667,-2.38755 2.18811,-3.91122 7.33897,-1.84989 2.36625,0.94694 3.5071,1.83314 2.53522,1.96933 -0.97188,0.1362 -3.05203,0.49878 -4.62257,0.80577 -1.57053,0.30697 -3.93377,-0.10937 -5.25162,-0.92521 z m -9.3068,-9.19631 c -1.32228,-3.16388 -2.10079,-6.10334 -1.73005,-6.53216 1.11787,-1.29289 5.43039,4.04763 6.70406,8.30216 1.86438,6.22761 -2.24231,4.76624 -4.97401,-1.77 z m -68.7654,-6.76995 c 0.48928,-1.87417 1.53845,-3.40757 2.33148,-3.40757 1.3349,0 3.06476,-3.7716 3.6532,-7.96503 0.13661,-0.9735 4.39147,-5.75251 9.45524,-10.62001 5.06378,-4.86751 9.70244,-10.23046 10.30817,-11.91769 0.64515,-1.79706 2.1824,-2.65212 3.71144,-2.06439 1.52127,0.58474 3.56941,-0.5353 4.90957,-2.68485 1.2647,-2.02846 3.30092,-3.68812 4.52496,-3.68812 1.22403,0 2.22551,-0.64897 2.22551,-1.44218 0,-0.7932 2.7831,-2.77157 6.18467,-4.39638 9.69968,-4.63318 6.64294,1.07204 -3.67376,6.85691 -1.86695,1.04685 -4.54297,4.4578 -5.94675,7.57987 -1.53162,3.40645 -3.48591,5.31763 -4.88691,4.77912 -1.28403,-0.49355 -4.58536,1.46174 -7.33625,4.34511 -2.7509,2.88336 -5.45719,4.78615 -6.01397,4.22846 -0.55678,-0.55773 -1.89992,0.64716 -2.98473,2.67754 -1.08482,2.03039 -2.93837,3.6946 -4.11903,3.69824 -1.18065,0.004 -3.58999,3.5226 -5.35409,7.8199 -3.2699,7.96541 -8.7094,12.79182 -6.98875,6.20107 z m 78.22761,-4.45828 c 0,-2.8233 1.57483,-3.11815 5.00876,-0.93775 1.79292,1.13841 1.47524,1.7286 -1.32529,2.46218 -2.44379,0.64014 -3.68347,0.12709 -3.68347,-1.52443 z m 55.56176,1.46611 c -1.02706,-0.71522 -2.94716,-4.08816 -4.2669,-7.49542 -1.31972,-3.40726 -3.36725,-7.38977 -4.55004,-8.85003 -1.18281,-1.46023 -2.67353,-4.37688 -3.31271,-6.48142 -0.6392,-2.10455 -4.75269,-6.77354 -9.14111,-10.37552 -4.38841,-3.60199 -7.557,-6.97175 -7.04127,-7.48832 0.51572,-0.51658 2.1229,0.0461 3.57153,1.25033 5.39505,4.48498 6.18609,0.72055 1.10105,-5.23968 -2.90012,-3.39925 -5.30525,-7.07856 -5.34475,-8.17625 -0.0395,-1.09767 -1.26457,-2.98732 -2.72238,-4.19923 -1.45782,-1.21191 -2.65058,-2.98668 -2.65058,-3.94393 0,-0.95726 2.21541,0.63509 4.92313,3.53856 3.71722,3.98597 7.15809,5.58694 14.04749,6.53607 5.01841,0.69136 10.05517,2.38042 11.19282,3.75349 1.74865,2.11053 0.8063,2.32318 -6.09578,1.37557 -9.65378,-1.32541 -10.57035,0.79803 -3.30482,7.65633 4.33443,4.09149 4.41352,4.35369 0.73217,2.42709 -5.55622,-2.9078 -6.71837,-1.23182 -2.24966,3.24436 2.00002,2.00337 4.14043,5.654 4.75644,8.11252 0.61603,2.45852 1.63489,4.47004 2.26417,4.47004 0.62926,0 2.18999,2.58863 3.46828,5.7525 1.27828,3.16388 3.50528,7.9429 4.94889,10.62003 2.7617,5.12154 2.7145,5.63022 -0.32597,3.51291 z m 8.49869,-6.16792 c -0.96422,-1.21688 -2.64997,-5.0063 -3.74612,-8.42092 -1.09616,-3.41461 -3.98288,-8.35798 -6.41496,-10.98525 -5.28533,-5.70954 -5.62874,-8.47139 -1.0533,-8.47139 2.58602,0 3.13584,0.8918 2.36654,3.83856 -0.7929,3.03708 -0.39315,3.60447 1.91447,2.71749 2.15706,-0.82913 3.18981,0.13023 3.96572,3.68396 0.57701,2.64276 1.46312,5.99979 1.96909,7.46002 2.1672,6.25446 3.79914,12.39004 3.2955,12.39004 -0.29909,0 -1.33273,-0.99563 -2.29694,-2.21251 z m -115.92219,-2.15581 c -0.54747,-1.42909 -0.23497,-3.0691 0.69447,-3.64448 0.92943,-0.57539 1.68988,0.59386 1.68988,2.59832 0,4.2738 -0.98267,4.70495 -2.38435,1.04616 z m 33.54834,-0.0669 c -0.55727,-1.45466 -0.28994,-2.64484 0.59408,-2.64484 2.39533,0 3.88276,3.14547 2.02987,4.29254 -0.8859,0.54842 -2.06667,-0.19303 -2.62395,-1.6477 z m -31.16399,-11.49485 c 0,-0.9735 0.84211,-1.77 1.87134,-1.77 1.02924,0 1.37989,0.7965 0.77924,1.77 -0.60066,0.9735 -1.44277,1.77001 -1.87135,1.77001 -0.42858,0 -0.77923,-0.79651 -0.77923,-1.77001 z m 98.12912,-17.79382 c 0.43225,-0.70057 -0.79548,-1.688 -2.72831,-2.19429 -1.93282,-0.5063 -3.51422,-1.7916 -3.51422,-2.85624 0,-3.10017 2.61981,-2.25371 6.79151,2.19429 2.87303,3.06329 3.20086,4.13002 1.26929,4.13002 -1.43231,0 -2.25053,-0.5732 -1.81827,-1.27378 z m -69.88953,-5.23679 c -3.41549,-2.11443 -1.65853,-3.36899 2.56649,-1.83261 1.87925,0.68338 2.63645,1.72559 1.68269,2.31603 -0.95379,0.59046 -2.86589,0.37291 -4.24918,-0.48342 z m 12.68156,-5.28947 c 0,-2.43375 0.40108,-3.42938 0.89128,-2.2125 0.49019,1.21688 0.49019,3.20813 0,4.42501 -0.4902,1.21688 -0.89128,0.22125 -0.89128,-2.21251 z m -5.58015,-16.26966 c 0,-3.09605 13.93783,-15.59225 17.3769,-15.57954 1.86888,0.007 -0.55351,3.23918 -6.63255,8.85002 -10.44159,9.63739 -10.74435,9.82703 -10.74435,6.72952 z m -53.06523,141.49748 c -0.041,-8.44328 -0.484,-10.3223 -1.87099,-7.93613 -1.61547,2.77924 -0.5553,18.99866 1.24183,18.99866 0.37558,0 0.65872,-4.97814 0.62916,-11.06253 z m -74.33316,-4.86751 c 2.87985,-3.40726 7.67467,-9.08793 10.65517,-12.62371 2.9805,-3.53576 5.41908,-7.27957 5.41908,-8.31956 0,-1.04 1.12678,-2.52785 2.50396,-3.30635 1.37719,-0.7785 5.55184,-7.38922 9.27701,-14.69049 6.31182,-12.371 6.77305,-14.31939 6.77305,-28.61072 0,-8.43464 -0.59134,-15.92997 -1.31408,-16.65631 -0.72274,-0.72636 -2.71067,0.20095 -4.41763,2.06065 -6.06494,6.60768 -18.12346,0.7442 -18.12346,-8.81257 0,-4.3149 -1.62924,-2.8534 -2.63172,2.36073 -0.4146,2.15648 -1.1539,5.25114 -1.6429,6.87702 -0.48898,1.62585 -1.3382,8.92987 -1.88717,16.23114 -0.9121,12.13113 -6.83294,40.0907 -13.98046,66.01903 -3.65733,13.2673 -3.49782,15.53243 0.71062,10.09117 1.88235,-2.43376 5.77868,-7.21277 8.65853,-10.62003 z m 89.73038,-10.95191 c -0.56408,-1.41198 -0.9828,-0.99258 -1.06758,1.06939 -0.0767,1.86586 0.3409,2.91128 0.92809,2.32313 0.58717,-0.58817 0.64994,-2.11479 0.13949,-3.39252 z m 144.58279,-18.2534 c 0.005,-11.19514 -0.46039,-20.35479 -1.03318,-20.35479 -2.18561,0 -4.59682,23.97913 -3.02572,30.09008 2.04734,7.96331 2.93631,10.6201 3.55342,10.61977 0.27347,-1.6e-4 0.50094,-9.15994 0.50548,-20.35506 z m -78.79325,2.7e-4 c 0.0534,-0.9735 -0.67367,-0.57525 -1.61579,0.885 -0.94212,1.46025 -1.66922,3.84976 -1.61579,5.31002 0.10256,2.80342 3.04758,-2.84224 3.23158,-6.19502 z m -9.49485,-11.38727 c -0.64063,-1.03827 -2.90697,-1.87603 -5.03634,-1.86168 -3.71308,0.025 -3.69071,0.12157 0.54605,2.35807 4.84987,2.56016 6.27872,2.4022 4.49029,-0.49639 z M 190.19307,195.51476 c 0.0679,-11.96212 0.50794,-22.37246 0.97787,-23.13411 0.82781,-1.34166 1.29852,-3.26063 4.72901,-19.27928 3.67078,-17.14076 4.50453,-23.45256 3.09789,-23.45256 -0.81779,0 -1.4869,1.58983 -1.4869,3.53296 0,1.94313 -1.58538,8.1217 -3.52306,13.73016 -1.93769,5.60847 -4.35551,16.56354 -5.37294,24.34461 -2.46516,18.85303 -3.89336,58.96315 -2.19351,61.60336 2.02926,3.15186 3.63187,-12.71639 3.77164,-37.34514 z m 99.16033,25.4221 c -2.34196,-2.34587 -3.79871,-0.34322 -2.40214,3.30228 0.92019,2.40197 1.48112,2.55419 2.61859,0.71064 0.79616,-1.29037 0.69876,-3.09618 -0.21645,-4.01292 z m -45.89917,-8.18015 c 0,-12.15064 -0.14265,-12.55013 -5.53014,-15.48754 -3.04157,-1.65835 -8.40898,-5.60001 -11.92759,-8.75924 -3.51858,-3.15923 -6.98043,-5.74787 -7.69295,-5.75252 -1.81414,-0.0118 -10.19031,-16.94426 -10.19031,-20.59967 0,-6.11825 -2.11909,-0.63692 -2.87111,7.42655 -0.74852,8.02591 2.66901,23.45346 4.19054,18.91718 1.08503,-3.23481 4.59368,-2.70165 6.93509,1.05381 1.12005,1.79648 5.72743,4.30147 10.23862,5.56663 6.72052,1.88477 8.82345,3.52017 11.64149,9.0532 1.89162,3.71409 3.43931,9.97063 3.43931,13.90343 0,3.93279 0.39759,7.15053 0.88353,7.15053 0.48593,0 0.88352,-5.61256 0.88352,-12.47236 z m 259.49618,6.50757 c 2.20672,3.80461 2.69713,0.68319 0.92999,-5.91932 -1.27692,-4.77096 -3.95158,-2.66857 -8.4736,6.66065 l -2.96087,6.10846 4.29238,-5.07979 c 4.03633,-4.77676 4.4069,-4.88234 6.2121,-1.77 z m -248.32708,-5.40314 c 2.11795,0.64963 4.864,1.99368 6.10235,2.98676 1.23833,0.99308 2.75207,1.30421 3.36386,0.69139 1.25805,-1.26016 -11.16145,-13.55028 -13.69292,-13.55028 -0.90268,0 -1.52211,4.18164 -1.37648,9.29253 0.14984,5.25893 0.58763,7.14517 1.00856,4.34548 0.6238,-4.14894 1.36504,-4.75648 4.59463,-3.76588 z m 210.89244,-10.31463 c -0.93141,-9.45138 -0.74668,-10.61141 1.26837,-7.96502 1.2972,1.70363 2.86727,3.09751 3.48903,3.09751 1.88917,0 1.26153,-6.78997 -0.74231,-8.03048 -1.18353,-0.73269 -0.69577,-2.05327 1.32529,-3.58819 2.82163,-2.14289 2.85562,-2.43542 0.28879,-2.48509 -1.6001,-0.031 -5.29996,2.6711 -8.22191,6.00459 -3.10642,3.54392 -7.40187,6.34129 -10.34358,6.73616 l -5.03097,0.67529 5.30115,1.46659 c 7.26562,2.01007 11.48583,6.05195 11.48583,11.00049 0,2.28287 0.51087,4.15068 1.13525,4.15068 0.62439,0 0.64466,-4.97814 0.0451,-11.06253 z M 296.46572,188.80575 c 7.50122,-8.84235 9.8568,-10.121 14.27849,-7.75064 2.85177,1.52879 5.61705,1.59173 10.27349,0.23382 3.50427,-1.0219 9.94967,-2.57749 14.32312,-3.45684 6.149,-1.23637 2.67598,-1.53814 -15.31931,-1.33108 -16.26345,0.18712 -24.11207,0.96692 -26.06399,2.58957 -1.53611,1.277 -2.81993,1.62692 -2.8529,0.77758 -0.033,-0.84932 -1.42453,1.32637 -3.09234,4.83489 -1.66781,3.50851 -4.12371,7.69015 -5.45755,9.29253 -2.02355,2.43093 -2.03513,3.38418 -0.0699,5.75608 2.12908,2.56969 2.70134,2.43064 5.95927,-1.44792 1.9822,-2.35981 5.59195,-6.63391 8.02164,-9.49799 z m 215.52389,3.78243 c -0.0309,-1.03081 -1.22368,-0.32809 -2.65058,1.56161 -1.42691,1.88969 -2.56909,4.2792 -2.53819,5.31001 0.0309,1.03082 1.22368,0.32809 2.65058,-1.5616 1.42691,-1.8897 2.56909,-4.2792 2.53819,-5.31002 z m -68.85875,0.7808 c 0,-0.9735 -2.18673,-1.71401 -4.85939,-1.64559 -4.30602,0.11024 -4.45694,0.29763 -1.32529,1.64559 4.82649,2.07748 6.18468,2.07748 6.18468,0 z m 13.16452,-7.30855 c 0.97006,-0.89077 -2.75959,-1.53047 -8.83525,-1.51539 -9.85894,0.0245 -10.23873,0.1761 -6.09632,2.4338 4.43232,2.41571 11.79378,1.96292 14.93157,-0.91841 z m -32.60207,0.70839 c -1.45782,-0.55587 -3.05613,-1.62459 -3.55181,-2.37493 -0.49567,-0.75035 -3.27877,-1.86529 -6.18467,-2.47764 l -5.28344,-1.11335 6.18467,3.55383 c 3.40157,1.95462 7.37743,3.52436 8.83525,3.48832 2.35606,-0.0583 2.35606,-0.17785 0,-1.07623 z m 5.30115,-6.73715 c 0,-0.4525 -1.96298,-0.82273 -4.36218,-0.82273 -3.12753,0 -4.0778,0.74227 -3.35744,2.6226 0.76059,1.98539 1.82043,2.18528 4.36215,0.82271 1.84661,-0.98992 3.35747,-2.17008 3.35747,-2.62258 z m 37.86913,-0.65037 c -0.46487,-0.46565 -2.21784,0.58883 -3.8955,2.34331 -2.91437,3.04784 -2.87672,3.08556 0.84524,0.84665 2.14253,-1.28883 3.51514,-2.7243 3.05026,-3.18996 z m -167.99978,-9.47834 c 0.74186,-2.84162 0.4583,-2.97325 -2.09534,-0.9727 -6.08603,4.76786 -7.85255,9.94533 -2.18326,6.39888 1.88134,-1.17689 3.8067,-3.61867 4.2786,-5.42618 z m 77.98358,-20.81506 c -0.42012,-0.68088 1.94476,-1.02271 5.25529,-0.7596 4.57781,0.36383 5.78988,-0.12 5.06181,-2.02053 -1.52135,-3.97118 0.99212,-2.91458 5.63436,2.36859 3.23451,3.68106 4.29064,4.15289 4.33287,1.93571 0.0379,-1.99173 1.12508,-2.65172 3.39051,-2.0583 1.83408,0.48041 3.86894,0.008 4.52192,-1.05071 0.65298,-1.05833 2.92945,-1.9802 5.05882,-2.04863 3.71677,-0.11942 3.73027,-0.18133 0.33747,-1.5485 -1.94376,-0.78326 -4.04038,-1.13431 -4.65917,-0.7801 -0.61878,0.35422 -2.1077,-0.54195 -3.30871,-1.99148 -2.8306,-3.41639 0.55516,-7.93366 5.97542,-7.9724 5.7159,-0.0409 19.60869,-4.56086 17.68283,-5.75309 -0.93176,-0.57684 -7.2288,0.56508 -13.99341,2.53759 -6.7646,1.97251 -14.7163,3.81753 -17.67048,4.10006 -9.2804,0.88753 -28.68238,15.48428 -27.65872,20.80858 0.5287,2.74997 1.06947,2.67919 5.69362,-0.74531 2.81018,-2.08112 4.76568,-4.34098 4.34557,-5.02188 z m -7.25422,-4.95699 c 1.83093,-2.73777 5.61251,-5.99024 8.40349,-7.22772 6.18881,-2.74402 5.20753,-5.35905 -1.52975,-4.07668 -4.46892,0.8506 -4.67968,0.66397 -2.38785,-2.11425 2.06255,-2.50027 4.31314,-2.84934 12.53935,-1.94481 7.66559,0.84288 12.5723,0.24304 20.84395,-2.54815 6.23337,-2.10337 15.38457,-3.65051 21.59253,-3.65051 10.86778,0 17.61007,-2.1104 17.61007,-5.51213 0,-3.8592 -34.43148,0.28817 -43.71678,5.26581 -1.96197,1.05177 -8.23539,1.99897 -13.94093,2.10489 -5.70554,0.10592 -12.36164,0.8481 -14.79133,1.64929 -2.4297,0.8012 -11.37539,2.41344 -19.87931,3.58278 -8.50393,1.16931 -15.46169,2.84004 -15.46169,3.71272 0,0.87267 5.16862,1.58667 11.48582,1.58667 6.31721,0 11.48583,0.71129 11.48583,1.58063 0,2.08783 -4.46111,3.71974 -10.30507,3.76969 -4.50004,0.0385 -4.43308,0.16666 1.46982,2.81383 3.40157,1.52544 7.37743,3.45172 8.83525,4.28061 3.91631,2.22679 4.12876,2.13703 7.7466,-3.27267 z m 73.38977,-5.85052 c 5.58416,-0.98778 10.00051,-1.03511 10.6023,-0.11361 0.56991,0.87264 4.98055,0.24337 9.85692,-1.40631 l 8.82546,-2.98568 -13.24309,-1.11639 c -11.0741,-0.93357 -14.41978,-0.5467 -20.42743,2.362 -3.95139,1.91314 -8.07913,3.47843 -9.17274,3.47843 -1.0936,0 -2.55723,0.92198 -3.2525,2.04882 -0.89799,1.4554 -0.0325,1.66895 2.98805,0.73727 2.33869,-0.72134 8.55906,-2.0734 13.82303,-3.00453 z m -222.444,-17.13442 c 3.74248,-4.02382 4.6285,-6.57853 1.63987,-4.72836 -1.1955,0.74009 -1.45435,-0.61538 -0.7406,-3.87804 0.84003,-3.83992 0.65585,-4.39338 -0.78564,-2.36082 -1.03561,1.46026 -1.97658,1.85851 -2.09105,0.88501 -0.11447,-0.97351 -1.21121,2.61075 -2.43719,7.96502 -4.40735,19.24844 -4.59159,20.60434 -1.78064,13.1057 1.49463,-3.98713 4.28249,-8.93198 6.19525,-10.98851 z m 204.74793,15.37821 c 8.47198,-2.95828 5.64237,-3.55359 -3.43106,-0.72185 -4.3347,1.35284 -6.60838,2.51297 -5.05262,2.57809 1.55575,0.0651 5.37341,-0.77019 8.48368,-1.85624 z m 24.91219,-10.60042 c 2.12023,-1.18173 1.94343,-1.47555 -0.88353,-1.46843 -1.94375,0.005 -5.52203,1.1819 -7.95172,2.61559 l -4.41763,2.60667 5.30115,-1.13826 c 2.91563,-0.62603 6.49391,-1.80303 7.95173,-2.61557 z m -249.71398,-1.91684 c -0.56408,-1.41199 -0.9828,-0.99259 -1.06758,1.06938 -0.0767,1.86587 0.34089,2.91129 0.92809,2.32313 0.58717,-0.58817 0.64993,-2.11478 0.13949,-3.39251 z m 12.99566,-11.46783 c 0.73067,-3.2452 0.70558,-5.90035 -0.0558,-5.90035 -0.76137,0 -1.917,2.84433 -2.56809,6.32071 -0.65108,3.47639 -1.59479,7.65803 -2.09713,9.29252 -0.67586,2.19915 -0.35357,2.08985 1.23957,-0.42036 1.1841,-1.8657 2.75075,-6.04734 3.48144,-9.29252 z m 261.30977,8.9179 c 1.54977,-1.38547 -11.51297,-0.32989 -14.87268,1.20184 -2.37901,1.08462 -0.64639,1.25907 5.30115,0.53379 4.85939,-0.59258 9.16657,-1.37361 9.57153,-1.73563 z m -12.36935,-5.26819 c 0.40493,-0.38501 -1.78179,-0.70003 -4.85939,-0.70003 -3.28406,0 -5.60685,-0.914 -5.62272,-2.21251 -0.0275,-2.24548 -3.42394,1.88346 -3.47999,4.23047 -0.0276,1.15343 12.61829,-0.0403 13.9621,-1.31793 z M 233.12369,102.66294 c -1.36526,-1.36754 -2.42844,-0.53815 -3.74019,2.9178 -2.64805,6.97653 -2.2957,7.53332 1.90747,3.01419 2.67701,-2.87825 3.19797,-4.56445 1.83272,-5.93199 z M 222.7968,84.071182 c 2.55178,-6.571143 7.91327,-22.700312 11.91444,-35.842597 7.96817,-26.172365 20.19243,-57.5197749 24.3307,-62.392669 3.40631,-4.011011 6.15411,-4.011011 3.92679,0 -3.29192,5.9281922 -8.91257,19.7334844 -8.96839,22.0279505 -0.0309,1.2702881 -1.22368,3.8557285 -2.65058,5.7454245 -3.98885,5.282539 -3.27644,5.845216 6.24087,4.929195 8.20452,-0.789668 8.83525,-0.569802 8.83525,3.079854 0,3.511996 -0.70514,3.840202 -6.62644,3.084228 -3.64454,-0.465301 -7.94248,-1.392257 -9.55099,-2.059907 -2.26693,-0.940947 -3.21398,0.106089 -4.21173,4.656396 -0.70795,3.228666 -2.31635,8.262998 -3.57425,11.187409 -1.25787,2.924409 -4.38265,12.485626 -6.94392,21.24715 -2.56128,8.761524 -6.08521,17.936697 -7.83093,20.389287 -1.74573,2.452589 -3.75706,6.4351 -4.46962,8.850024 l -1.29557,4.39078 2.99752,-4.101402 c 1.64864,-2.255783 4.10149,-3.677079 5.45081,-3.158432 1.52159,0.58488 3.55206,-1.218542 5.34646,-4.748604 1.59123,-3.130378 5.44751,-9.27587 8.56952,-13.656631 3.12202,-4.380762 6.19476,-9.159775 6.82832,-10.620029 1.51855,-3.500025 5.08794,-9.03103 7.63887,-11.836957 8.68039,-9.548085 38.85188,-67.813259 35.11577,-67.813259 -0.36882,0 0.85956,-4.360863 2.72977,-9.690806 1.87019,-5.329945 3.42453,-11.104585 3.45409,-12.832535 0.0506,-2.957366 0.1637,-2.95232 1.92759,0.08597 1.28157,2.207478 1.31145,4.725092 0.0945,7.965022 -0.97862,2.605526 -3.52081,11.476952 -5.64927,19.714274 -5.42553,20.9971263 -15.9193,43.255949 -30.24734,64.15909 -1.80801,2.637714 -3.27512,5.425477 -3.26024,6.195022 0.0149,0.769545 0.73082,0.285838 1.59096,-1.074889 1.12668,-1.782388 4.93076,-2.381295 13.60668,-2.142214 11.06341,0.304877 13.58757,1.302423 15.25671,6.029446 0.27444,0.777244 5.0886,-0.61998 10.69814,-3.104925 8.44137,-3.739422 13.6116,-4.640935 29.99926,-5.230851 16.95146,-0.610214 21.70854,-0.127139 33.06507,3.357708 7.29572,2.238755 15.93313,4.550983 19.19426,5.138271 5.14015,0.925695 5.76691,0.656477 4.70906,-2.022779 -2.69431,-6.823928 -3.17961,-14.966545 -0.97341,-16.332327 4.19303,-2.595775 30.28075,-2.087658 34.485,0.671673 5.01817,3.293538 10.10982,13.983344 8.57217,17.997095 -1.07066,2.794767 -0.25707,2.979839 8.38709,1.907747 5.26501,-0.65299 12.35587,-1.729844 15.75744,-2.393029 3.40157,-0.663168 16.72037,-1.249853 29.59732,-1.303768 22.80459,-0.09544 23.41267,-0.197585 23.41341,-3.932998 4.2e-4,-2.109255 0.89609,-4.133949 1.99037,-4.499321 1.21879,-0.406943 -0.32153,-4.626312 -3.97586,-10.890949 -8.18294,-14.028051 -11.13019,-19.754829 -16.52257,-32.1048582 -2.55037,-5.8410158 -6.70175,-13.6182578 -9.22531,-17.2827588 -4.40778,-6.400599 -4.68434,-6.525381 -7.02946,-3.171647 -2.51013,3.58971 -6.06,3.330852 -11.1797,-0.815236 -1.45782,-1.180579 -5.77621,-2.625802 -9.59641,-3.211602 -7.78348,-1.193545 -11.32273,-3.95358 -12.42559,-9.689966 -0.93537,-4.86506 3.11986,-5.532557 19.06282,-3.137765 l 8.52248,1.280161 -4.99046,-8.752727 c -2.74476,-4.814001 -7.03295,-11.044557 -9.52931,-13.84568 -4.73704,-5.315346 -17.4542,-13.057973 -21.44752,-13.057973 -1.27302,0 -5.8865,-1.881315 -10.25223,-4.180698 -16.92535,-8.914438 -25.22707,-10.508128 -49.27282,-9.458947 -22.63999,0.987845 -57.13347,7.008178 -58.21231,10.160109 -0.32598,0.952374 -1.29012,1.299823 -2.14256,0.772112 -1.84526,-1.142347 -18.55364,7.060135 -20.36653,9.998339 -0.93674,1.518238 1.65995,1.715894 10.03549,0.763888 12.07018,-1.371959 22.4979,-1.361475 24.73732,0.02487 0.75484,0.467308 8.37733,1.25832 16.93883,1.757803 8.56151,0.499483 17.55431,1.598672 19.98401,2.442644 2.42969,0.843971 11.57417,2.512897 20.32107,3.708721 8.7469,1.195824 16.446,3.025448 17.10912,4.06583 0.66312,1.040382 6.1821,2.908399 12.26439,4.15115 10.54006,2.15358 14.93834,1.820497 11.21746,-0.849498 -0.94373,-0.677195 -2.80721,-2.625142 -4.14105,-4.328772 -2.0579,-2.628409 -2.05446,-3.097508 0.0228,-3.097508 1.34635,0 3.23285,1.499005 4.19222,3.331122 0.95936,1.832116 5.09633,8.219049 9.19325,14.193186 4.09692,5.974134 8.42224,14.116066 9.61181,18.09318 1.1896,3.977114 3.20041,7.6299186 4.4685,8.1173443 1.26809,0.487424 1.86583,1.5990082 1.32831,2.4701833 -1.58087,2.5621952 9.99449,22.6996694 16.5296,28.7562714 7.03479,6.519682 18.3989,20.851432 17.35941,21.892658 -1.33122,1.333456 -26.68803,-25.107695 -30.83816,-32.156914 -2.2628,-3.8434894 -5.93614,-11.83672479 -8.16296,-17.7627451 -4.83235,-12.8598569 -12.94726,-29.2342379 -14.48808,-29.2342379 -0.60539,0 -2.06375,1.319223 -3.24078,2.931607 -1.82634,2.501833 -3.27967,2.651425 -9.91358,1.020408 -4.27543,-1.05116 -12.44748,-2.47489 -18.16011,-3.163844 -8.04372,-0.970089 -10.5821,-2.001513 -11.25333,-4.572562 -0.58048,-2.223505 -2.40245,-3.286683 -5.51685,-3.219285 -8.19422,0.177327 -22.24211,-2.246668 -24.78449,-4.276618 -1.53574,-1.226206 -9.03584,-1.781665 -19.91027,-1.474564 -14.79303,0.417763 -17.6146,0.05366 -18.55232,-2.394068 -0.96023,-2.506509 -3.19522,-2.721126 -16.96721,-1.629289 -11.69798,0.927409 -16.20993,0.692452 -17.18948,-0.895131 -0.99071,-1.605713 -2.33517,-1.320439 -5.29181,1.122852 -8.66793,7.162941 -23.74707,24.5806 -30.94918,35.748847 -0.97187,1.507083 -3.95377,5.8885159 -6.62643,9.7365169 -2.67266,3.8479993 -4.85939,8.0711953 -4.85939,9.3848787 0,1.3136817 -1.95683,6.1723147 -4.34853,10.7969604 -3.97733,7.690679 -8.69533,20.788295 -10.67996,29.648504 -1.65965,7.409435 -10.02363,33.880423 -12.46261,39.442663 -3.38387,7.717097 -3.21966,9.076797 0.96389,7.980951 2.22798,-0.583606 3.91274,0.124325 4.60668,1.935713 0.60171,1.570702 1.28093,2.855814 1.50934,2.855814 0.22843,0 2.50313,-5.376389 5.05491,-11.947532 z M 486.97578,47.01947 c 1.2756,-0.511303 2.79968,-0.44842 3.38685,0.139737 0.58718,0.588158 -0.4565,1.006497 -2.31925,0.929641 -2.05853,-0.08493 -2.47723,-0.504347 -1.0676,-1.069378 z m 3.42366,-5.32101 c -3.8038,-0.995698 -4.13855,-7.629913 -0.38501,-7.629913 4.8551,0 15.24616,5.189388 14.10253,7.042927 -1.11778,1.811644 -7.92609,2.102979 -13.71752,0.586986 z m -31.1786,-2.469629 c -2.3271,-0.932442 -8.68848,-2.121517 -14.1364,-2.642391 -21.59607,-2.06479 -37.41642,-4.058325 -46.41326,-5.848573 -9.48242,-1.886864 -68.56599,-4.343045 -97.2833,-4.04419 -15.3076,0.1593 -18.20196,-0.675634 -15.80563,-4.55945 3.13061,-5.07392 87.27346,-1.730216 125.74171,4.996779 5.34533,0.934743 18.06809,2.179741 28.2728,2.766662 18.27196,1.050907 36.45768,6.239073 34.27416,9.778004 -1.19511,1.93694 -9.31928,1.689144 -14.65008,-0.446841 z M 249.74168,81.587104 c 2.2796,-0.43974 3.72216,-2.659202 4.43762,-6.82751 0.58304,-3.396763 2.76828,-9.162837 4.85609,-12.813472 2.0878,-3.650635 3.16171,-6.637518 2.38643,-6.637518 -0.77527,0 -2.759,2.834486 -4.40829,6.298863 -1.6493,3.464395 -6.17001,10.598895 -10.04605,15.854464 -7.02818,9.529599 -9.76961,15.766583 -3.76657,8.569248 1.73976,-2.08588 4.6831,-4.08572 6.54077,-4.444075 z m 28.02191,-13.724529 c 1.84054,-2.037169 2.77333,-3.703947 2.07287,-3.703947 -2.86168,0 -8.14949,3.847725 -9.96975,7.254559 -1.71877,3.216949 -1.56924,3.433969 1.30456,1.893392 1.78524,-0.957024 4.75178,-3.406817 6.59232,-5.444004 z m 130.9098,-10.783966 c -5.02185,-2.161565 -15.4701,-2.161565 -14.1364,0 0.60065,0.973503 4.82224,1.714019 9.3813,1.645591 6.25652,-0.0939 7.42256,-0.497424 4.7551,-1.645591 z M 223.5305,24.776022 c 1.10762,-4.137387 2.51202,-9.115525 3.12086,-11.06253 0.60885,-1.947006 -0.41821,-0.752252 -2.28238,2.655007 -3.99979,7.310704 -6.31913,15.930043 -4.28656,15.930043 0.78883,0 2.34046,-3.385134 3.44808,-7.52252 z m 24.6009,-46.687401 c 4.23069,-5.96464 7.69218,-11.401611 7.69218,-12.082155 0,-2.617871 -10.41199,7.149892 -10.50453,9.854572 -0.0538,1.571711 -2.47058,5.554222 -5.3707,8.850024 -2.90749,3.30419 -5.25384,7.9774277 -5.2304,10.4173793 0.0419,4.36278565 0.0824,4.35034074 2.88189,-0.8850024 1.56164,-2.9205079 6.30085,-10.1901759 10.53156,-16.1548179 z"
         inkscape:connector-curvature="0" />
    </g>
  </g>
</svg>
