<?xml version="1.0" encoding="UTF-8" standalone="no"?>
<!-- Created with Inkscape (http://www.inkscape.org/) -->

<svg
   xmlns:dc="http://purl.org/dc/elements/1.1/"
   xmlns:cc="http://creativecommons.org/ns#"
   xmlns:rdf="http://www.w3.org/1999/02/22-rdf-syntax-ns#"
   xmlns:svg="http://www.w3.org/2000/svg"
   xmlns="http://www.w3.org/2000/svg"
   xmlns:sodipodi="http://sodipodi.sourceforge.net/DTD/sodipodi-0.dtd"
   xmlns:inkscape="http://www.inkscape.org/namespaces/inkscape"
   width="62mm"
   height="88mm"
   viewBox="0 0 219.68504 311.81102"
   id="svg2"
   version="1.1"
   inkscape:version="0.91 r13725"
   sodipodi:docname="a_rats.svg">
  <defs
     id="defs4">
    <inkscape:perspective
       sodipodi:type="inkscape:persp3d"
       inkscape:vp_x="0 : 155.90551 : 1"
       inkscape:vp_y="0 : 1000 : 0"
       inkscape:vp_z="219.68504 : 155.90551 : 1"
       inkscape:persp3d-origin="109.84252 : 103.93701 : 1"
       id="perspective6315" />
    <clipPath
       clipPathUnits="userSpaceOnUse"
       id="clipPath8648">
      <path
         style="fill:#ff0000;fill-opacity:1;fill-rule:evenodd;stroke:none;stroke-width:1px;stroke-linecap:butt;stroke-linejoin:miter;stroke-opacity:1"
         d="m 48.7971,144.54832 -4.54568,-1.2627 -4.04062,0.50508 -4.79822,3.40927 -5.93465,4.29314 -2.0203,2.90419 0.12627,2.65165 2.65165,2.14658 -1.01015,1.76776 -3.283,1.26269 -3.40926,8.08123 6.31345,9.34391 10.35406,-0.75762 46.21448,3.91434 25.50635,-7.19733 9.47018,-5.05077 0.12627,-10.10152 -2.65165,-1.13642 0.88389,-15.15229 10.35406,-6.9448 3.28299,-3.91434 6.566,-7.82868 0.50507,-4.54569 -4.54568,-1.89404 -2.14658,1.01016 -4.16688,1.13642 -5.93464,-2.90419 -2.77792,-1.76777 -5.80838,2.39911 -2.90419,3.03046 -3.40926,4.9245 -7.07107,0.3788 -8.96511,5.80838 -2.90418,2.14657 -3.66181,0.12627 -5.55584,-0.3788 -17.29886,2.65165 z"
         id="path8650"
         inkscape:connector-curvature="0" />
    </clipPath>
    <mask
       maskUnits="userSpaceOnUse"
       id="mask8666">
      <rect
         rx="1.7260212"
         ry="2.8714814"
         y="98.924339"
         x="22.885082"
         height="109.83415"
         width="100.10923"
         id="rect8668"
         style="opacity:1;fill:#ffffff;fill-opacity:1;stroke:none;stroke-width:2.01114893;stroke-linecap:round;stroke-linejoin:bevel;stroke-miterlimit:4;stroke-dasharray:none;stroke-dashoffset:0;stroke-opacity:1" />
    </mask>
    <clipPath
       clipPathUnits="userSpaceOnUse"
       id="clipPath9647">
      <path
         style="fill:#ff0000;fill-opacity:1;fill-rule:evenodd;stroke:none;stroke-width:1px;stroke-linecap:butt;stroke-linejoin:miter;stroke-opacity:1"
         d="m 24.29467,289.85466 12.14286,-9.28572 41.42857,-15.71428 40,-5 20,5 2.85715,7.14285 9.28571,6.42858 10,1.42857 -3.57143,13.57143 -15.71428,10 -27.85715,5.71428 -74.28571,1.42857 z"
         id="path9649"
         inkscape:connector-curvature="0" />
    </clipPath>
    <inkscape:path-effect
       pattern-nodetypes="sssss"
       fuse_tolerance="0"
       vertical_pattern="false"
       prop_units="false"
       tang_offset="0"
       normal_offset="0"
       spacing="0"
       scale_y_rel="false"
       prop_scale="1"
       copytype="single_stretched"
       pattern="M 0,5 C 0,2.24 2.24,0 5,0 7.76,0 7,0.24 7,3 7,5.76 7.76,5.75 5,5.75 2.24,5.75 0,7.76 0,5 Z"
       is_visible="true"
       id="path-effect20326"
       effect="skeletal" />
    <clipPath
       clipPathUnits="userSpaceOnUse"
       id="clipPath7877">
      <path
         style="fill:#ff0000;fill-opacity:1;fill-rule:evenodd;stroke:none;stroke-width:1px;stroke-linecap:butt;stroke-linejoin:miter;stroke-opacity:1"
         d="m 1349.8263,623.67274 -143.5316,10.50232 -77.0169,-21.00459 -119.0262,66.51457 -91.01997,38.50849 -189.04149,-14.00311 -31.50696,-80.51768 -52.51151,-94.52074 -49.01077,-77.01694 -45.51,-31.50692 -38.50846,31.50692 -21.00461,24.50538 -87.51923,56.0123 L 264.58784,578.16276 121.05631,581.6635 110.554,564.1597 96.550923,357.61431 103.55246,4.0366248 142.06092,-23.9695 l 304.56691,3.500741 59.51307,3.50079 171.53769,-10.502321 115.52538,0 38.50845,28.00617372 38.50844,3.50074108 224.04924,-28.0061248 101.5223,35.007656 91.02,87.519261 -3.5008,140.030723 3.5008,238.0523 7.0016,45.51003 3.5007,112.02459 z"
         id="path7879"
         inkscape:connector-curvature="0" />
    </clipPath>
    <filter
       style="color-interpolation-filters:sRGB"
       id="filter8486"
       inkscape:label="filter1" />
    <clipPath
       clipPathUnits="userSpaceOnUse"
       id="clipPath8513">
      <path
         style="fill:#ff0000;fill-opacity:1;fill-rule:evenodd;stroke:none;stroke-width:1px;stroke-linecap:butt;stroke-linejoin:miter;stroke-opacity:1"
         d="m 1037.9071,144.02626 13.0113,78.06757 -32.5282,52.04505 -117.10134,39.03376 -175.65205,19.5169 -149.62954,13.0113 -71.56195,-45.53943 -65.05628,-110.59572 143.12385,-84.57325 52.04505,-39.033754 6.50568,-39.033819 39.03375,-13.01123 78.06757,-13.01129406 221.19149,-6.50561504 z"
         id="path8515"
         inkscape:connector-curvature="0" />
    </clipPath>
    <clipPath
       clipPathUnits="userSpaceOnUse"
       id="clipPath8513-1">
      <path
         style="fill:#ff0000;fill-opacity:1;fill-rule:evenodd;stroke:none;stroke-width:1px;stroke-linecap:butt;stroke-linejoin:miter;stroke-opacity:1"
         d="m 1037.9071,144.02626 13.0113,78.06757 -32.5282,52.04505 -117.10134,39.03376 -175.65205,19.5169 -149.62954,13.0113 -71.56195,-45.53943 -65.05628,-110.59572 143.12385,-84.57325 52.04505,-39.033754 6.50568,-39.033819 39.03375,-13.01123 78.06757,-13.01129406 221.19149,-6.50561504 z"
         id="path8515-4"
         inkscape:connector-curvature="0" />
    </clipPath>
    <clipPath
       clipPathUnits="userSpaceOnUse"
       id="clipPath8565">
      <path
         style="fill:#ff0000;fill-opacity:1;fill-rule:evenodd;stroke:none;stroke-width:1px;stroke-linecap:butt;stroke-linejoin:miter;stroke-opacity:1"
         d="m 1037.9071,144.02626 13.0113,78.06757 -32.5282,52.04505 -117.10134,39.03376 -175.65205,19.5169 -149.62954,13.0113 -71.56195,-45.53943 -65.05628,-110.59572 143.12385,-84.57325 52.04505,-39.033754 6.50568,-39.033819 39.03375,-13.01123 78.06757,-13.01129406 221.19149,-6.50561504 z"
         id="path8567"
         inkscape:connector-curvature="0" />
    </clipPath>
    <clipPath
       clipPathUnits="userSpaceOnUse"
       id="clipPath8637">
      <rect
         style="opacity:1;fill:#ff0000;fill-opacity:1;stroke:none;stroke-width:8.10000038;stroke-linecap:round;stroke-linejoin:bevel;stroke-miterlimit:4;stroke-dasharray:none;stroke-dashoffset:0;stroke-opacity:1"
         id="rect8639"
         width="193.57143"
         height="132.14285"
         x="-219.99998"
         y="776.64789" />
    </clipPath>
    <clipPath
       clipPathUnits="userSpaceOnUse"
       id="clipPath8741">
      <path
         style="fill:#ff0000;fill-opacity:1;fill-rule:evenodd;stroke:none;stroke-width:1px;stroke-linecap:butt;stroke-linejoin:miter;stroke-opacity:1"
         d="m -26.77703,99.03193 15.71429,-5.71429 45.71428,12.85714 57.14286,17.14286 74.28571,27.14285 25.71429,21.42857 100,30 44.28571,32.85715 60,-8.57143 28.57143,17.14286 27.14286,8.57142 48.57143,-14.28571 102.85714,7.14286 -4.28571,-187.14286 -7.14286,-12.85714 -37.14286,5.71428 -22.85714,2.85715 -51.42857,0 -67.14286,0 -22.85714,-1.42858 -14.28572,8.57143 -92.85714,0 -72.85714,-4.28571 -51.42857,5.71428 -37.14286,-2.85714 -32.85714,-2.85714 -32.85715,0 -38.57142,-4.28572 -48.57143,5.71429 z"
         id="path8743"
         inkscape:connector-curvature="0"
         sodipodi:nodetypes="cccccccccccccccccccccccccccccc" />
    </clipPath>
    <clipPath
       clipPathUnits="userSpaceOnUse"
       id="clipPath20203">
      <rect
         style="opacity:1;fill:#ff0000;fill-opacity:1;stroke:none;stroke-width:8.10000038;stroke-linecap:round;stroke-linejoin:bevel;stroke-miterlimit:4;stroke-dasharray:none;stroke-dashoffset:0;stroke-opacity:1"
         id="rect20205"
         width="17069.842"
         height="17666.689"
         x="2366.7041"
         y="-21212.371"
         transform="scale(1,-1)" />
    </clipPath>
    <clipPath
       clipPathUnits="userSpaceOnUse"
       id="clipPath16200">
      <rect
         style="opacity:1;fill:#ff0000;fill-opacity:1;stroke:none;stroke-width:8.10000038;stroke-linecap:round;stroke-linejoin:bevel;stroke-miterlimit:4;stroke-dasharray:none;stroke-dashoffset:0;stroke-opacity:1"
         id="rect16202"
         width="104.38721"
         height="73.647415"
         x="14.41088"
         y="-11.355354" />
    </clipPath>
  </defs>
  <sodipodi:namedview
     id="base"
     pagecolor="#ffffff"
     bordercolor="#666666"
     borderopacity="1.0"
     inkscape:pageopacity="0.0"
     inkscape:pageshadow="2"
     inkscape:zoom="1.4"
     inkscape:cx="105.98434"
     inkscape:cy="82.54772"
     inkscape:document-units="px"
     inkscape:current-layer="layer1"
     showgrid="false"
     inkscape:window-width="1920"
     inkscape:window-height="1026"
     inkscape:window-x="-2"
     inkscape:window-y="31"
     inkscape:window-maximized="1" />
  <metadata
     id="metadata7">
    <rdf:RDF>
      <cc:Work
         rdf:about="">
        <dc:format>image/svg+xml</dc:format>
        <dc:type
           rdf:resource="http://purl.org/dc/dcmitype/StillImage" />
        <dc:title></dc:title>
      </cc:Work>
    </rdf:RDF>
  </metadata>
  <g
     inkscape:label="Layer 1"
     inkscape:groupmode="layer"
     id="layer1"
     transform="translate(0,-740.55118)">
    <text
       xml:space="preserve"
       style="font-style:normal;font-weight:normal;font-size:22.05662727px;line-height:125%;font-family:Sans;letter-spacing:0px;word-spacing:0px;fill:#000000;fill-opacity:1;stroke:none;stroke-width:1px;stroke-linecap:butt;stroke-linejoin:miter;stroke-opacity:1"
       x="164.71159"
       y="766.04486"
       id="text6305"
       sodipodi:linespacing="125%"><tspan
         sodipodi:role="line"
         id="tspan6307"
         x="164.71159"
         y="766.04486"
         style="font-style:normal;font-variant:normal;font-weight:normal;font-stretch:normal;font-size:15px;font-family:'Ubuntu Condensed';-inkscape-font-specification:'Ubuntu Condensed, '">• A D L</tspan></text>
    <text
       xml:space="preserve"
       style="font-style:normal;font-weight:normal;font-size:19.57834816px;line-height:125%;font-family:Sans;letter-spacing:0px;word-spacing:0px;fill:#000000;fill-opacity:1;stroke:none;stroke-width:1px;stroke-linecap:butt;stroke-linejoin:miter;stroke-opacity:1"
       x="14.324148"
       y="763.8302"
       id="text6317"
       sodipodi:linespacing="125%"><tspan
         sodipodi:role="line"
         id="tspan6319"
         x="14.324148"
         y="763.8302"
         style="font-style:normal;font-variant:normal;font-weight:500;font-stretch:normal;font-family:Orbitron;-inkscape-font-specification:'Orbitron Medium'">C</tspan></text>
    <text
       xml:space="preserve"
       style="font-style:normal;font-weight:normal;font-size:40px;line-height:125%;font-family:Sans;letter-spacing:0px;word-spacing:0px;fill:#000000;fill-opacity:1;stroke:none;stroke-width:1px;stroke-linecap:butt;stroke-linejoin:miter;stroke-opacity:1"
       x="60.285713"
       y="1023.7908"
       id="text8669"
       sodipodi:linespacing="125%"><tspan
         sodipodi:role="line"
         id="tspan8671"
         x="60.285713"
         y="1023.7908"
         style="font-style:normal;font-variant:normal;font-weight:500;font-stretch:normal;font-size:17.5px;font-family:Essays1743;-inkscape-font-specification:'Essays1743 Medium'">A mangy dog</tspan></text>
    <text
       sodipodi:linespacing="125%"
       id="text11126"
       y="763.77203"
       x="30.361305"
       style="font-style:normal;font-weight:normal;font-size:22.05662727px;line-height:125%;font-family:Sans;letter-spacing:0px;word-spacing:0px;fill:#000000;fill-opacity:1;stroke:none;stroke-width:1px;stroke-linecap:butt;stroke-linejoin:miter;stroke-opacity:1"
       xml:space="preserve"><tspan
         style="font-style:normal;font-variant:normal;font-weight:normal;font-stretch:normal;font-size:15px;font-family:'Ubuntu Condensed';-inkscape-font-specification:'Ubuntu Condensed, '"
         y="763.77203"
         x="30.361305"
         id="tspan11128"
         sodipodi:role="line">2</tspan></text>
    <g
       transform="matrix(-0.51291192,0,0,0.51291192,203.58857,778.13611)"
       id="g3">
      <g
         transform="matrix(2.4443,0,0,2.4428,-78.648,-412.09)"
         id="g3448">
        <path
           d="m 126.82,181.41 c -1.7,1.14 -4.5,1.19 -6.83,1.71 1.04,-3.08 3.31,-1.45 6.83,-1.71 z"
           style="clip-rule:evenodd;fill-rule:evenodd"
           id="path259"
           inkscape:connector-curvature="0" />
        <path
           d="m 133.07,181.98 c -0.33,2.64 -0.55,4.52 -2.84,6.25 -1.03,-1.8 0.49,-5.93 2.84,-6.25 z"
           style="clip-rule:evenodd;fill-rule:evenodd"
           id="path263"
           inkscape:connector-curvature="0" />
        <path
           d="m 72.791,183.68 c 2.165,-0.98 -3.621,1.65 0,0 z"
           style="clip-rule:evenodd;fill-rule:evenodd"
           id="path265"
           inkscape:connector-curvature="0" />
        <path
           d="m 135.35,183.12 c 2.53,-0.45 3.41,0.75 5.68,0.56 -1.88,1.34 -2.02,4.42 -4.55,5.12 0.13,0.82 1.7,0.2 1.71,1.14 -0.93,2.67 -4.36,2.84 -5.12,5.69 -1.37,-1.09 0.82,-2.97 -0.57,-4.55 1.67,0.51 1.75,0.51 3.42,0 -0.54,-4.36 0.45,-6.09 -0.57,-7.96 z"
           style="clip-rule:evenodd;fill-rule:evenodd"
           id="path267"
           inkscape:connector-curvature="0" />
        <path
           d="m 145.01,183.68 c 0.09,-0.15 1.23,-1.05 1.71,-0.56 0.39,0.39 -2.24,1.56 -1.71,0.56 z"
           style="clip-rule:evenodd;fill-rule:evenodd"
           id="path269"
           inkscape:connector-curvature="0" />
        <path
           d="m 122.27,184.25 c 1.77,1.27 -1.12,2.63 -1.14,3.98 -1.92,-1.41 0.51,-3.23 1.14,-3.98 z"
           style="clip-rule:evenodd;fill-rule:evenodd"
           id="path283"
           inkscape:connector-curvature="0" />
        <path
           d="m 114.87,184.82 c -3.93,1.35 -4.92,4.75 -5.68,7.96 -2.11,-0.42 0.04,-2.84 0,-4.55 -2.49,-0.39 -2.53,1.65 -4.55,1.71 1.98,-3.13 5.22,-5.02 10.23,-5.12 z"
           style="clip-rule:evenodd;fill-rule:evenodd"
           id="path285"
           inkscape:connector-curvature="0" />
        <path
           d="m 116.58,185.96 c 2.09,3.02 -0.22,5.03 1.71,7.96 -1.97,-0.45 -2.41,0.63 -3.42,1.14 0.05,2.8 -0.48,6.16 2.28,6.25 -0.06,1.46 -2.12,0.92 -2.85,1.71 -0.28,4.83 1.54,7.56 5.12,8.53 -0.2,-4.48 3.08,-10.3 -0.57,-14.79 1.54,-1.5 2.21,2.7 4.55,2.28 0.07,3.15 1.01,5.44 2.28,7.39 -1.57,1.09 -1.94,3.37 -4.55,3.41 -0.42,2.08 1.4,3.16 0,4.55 -2.13,0.61 -1.62,-1.41 -3.41,-1.14 -1.42,1.64 -0.64,5.92 1.7,5.69 -1.68,1.46 -3.82,-1.46 -4.55,-2.84 -0.49,-1.83 1.48,-1.18 1.71,-2.28 -0.76,-1.7 -0.98,-3.94 -3.41,-3.98 1.16,-4.12 -1.01,-7.63 -0.57,-10.8 0.64,-4.67 4.81,-8 3.98,-13.08 z"
           style="clip-rule:evenodd;fill-rule:evenodd"
           id="path287"
           inkscape:connector-curvature="0" />
        <path
           d="m 124.54,186.53 c 2.09,-0.2 1.72,2.07 2.28,3.41 -2.76,1.03 -3.64,3.95 -4.55,6.82 -0.81,-1.47 -0.99,-3.56 -1.71,-5.12 2.19,2.51 4.29,-1.7 3.98,-5.11 z"
           style="clip-rule:evenodd;fill-rule:evenodd"
           id="path289"
           inkscape:connector-curvature="0" />
        <path
           d="m 150.13,186.53 c 1.31,0.44 0.55,3.52 -1.14,2.84 -0.42,-1.75 1.57,-1.09 1.14,-2.84 z"
           style="clip-rule:evenodd;fill-rule:evenodd"
           id="path291"
           inkscape:connector-curvature="0" />
        <path
           d="m 128.52,195.06 0,-2.28 c 0.83,0.5 1.8,0.86 1.71,2.28 l -1.71,0 z"
           style="clip-rule:evenodd;fill-rule:evenodd"
           id="path303"
           inkscape:connector-curvature="0" />
        <path
           d="m 119.42,193.92 c 1.54,0.5 -0.48,2.52 -1.13,1.14 0.14,-0.62 1.13,-0.39 1.13,-1.14 z"
           style="clip-rule:evenodd;fill-rule:evenodd"
           id="path307"
           inkscape:connector-curvature="0" />
        <path
           d="m 128.52,196.76 c -1.5,0.18 -1.46,-1.18 -1.7,-2.27 1.49,-0.17 1.86,0.79 1.7,2.27 z"
           style="clip-rule:evenodd;fill-rule:evenodd"
           id="path309"
           inkscape:connector-curvature="0" />
        <path
           d="m 106.91,205.29 c 1.01,-0.18 1.02,3.19 -0.57,2.28 -0.07,-1.02 0.7,-1.2 0.57,-2.28 z"
           style="clip-rule:evenodd;fill-rule:evenodd"
           id="path333"
           inkscape:connector-curvature="0" />
        <path
           d="m 126.25,212.12 c 0.56,-1.74 1.51,0.65 2.27,0.57 -0.56,1.74 -1.92,-0.26 -2.27,-0.57 z"
           style="clip-rule:evenodd;fill-rule:evenodd"
           id="path353"
           inkscape:connector-curvature="0" />
        <path
           d="m 106.91,213.26 c 0.8,-1.66 1.96,1 3.41,0.56 -0.79,1.66 -2.8,-0.16 -3.41,-0.56 z"
           style="clip-rule:evenodd;fill-rule:evenodd"
           id="path355"
           inkscape:connector-curvature="0" />
        <path
           d="m 101.79,213.26 c 1.22,-0.27 1.09,0.81 1.14,1.7 -0.46,-0.11 -0.57,-0.57 -1.14,-0.57 l 0,-1.13 z"
           style="clip-rule:evenodd;fill-rule:evenodd"
           id="path361"
           inkscape:connector-curvature="0" />
        <path
           d="m 120.56,216.67 c 2.46,0.23 -0.6,3.3 0,0 z"
           style="clip-rule:evenodd;fill-rule:evenodd"
           id="path367"
           inkscape:connector-curvature="0" />
        <path
           d="m 121.13,218.94 c 1.85,0.05 3.06,0.73 3.41,2.28 -2.12,0.22 -3.34,-0.46 -3.41,-2.28 z"
           style="clip-rule:evenodd;fill-rule:evenodd"
           id="path373"
           inkscape:connector-curvature="0" />
        <path
           d="m 104.07,220.08 c 2.05,-0.54 0.79,2.24 1.14,3.41 -0.76,-0.91 -2.44,-2.12 -1.14,-3.41 z"
           style="clip-rule:evenodd;fill-rule:evenodd"
           id="path377"
           inkscape:connector-curvature="0" />
        <path
           d="m 107.48,223.49 c 1.28,0.43 0.22,3.19 0.57,4.55 -2.62,-0.19 -1.57,-3.34 -0.57,-4.55 z"
           style="clip-rule:evenodd;fill-rule:evenodd"
           id="path391"
           inkscape:connector-curvature="0" />
        <path
           d="m 123.97,224.63 c 2.69,-1.35 5.41,2.16 6.83,3.98 -4.1,0.5 -4.03,-3.17 -6.83,-3.98 z"
           style="clip-rule:evenodd;fill-rule:evenodd"
           id="path395"
           inkscape:connector-curvature="0" />
        <path
           d="m 99.519,226.34 c 2.421,0.5 0.146,5.19 -1.706,5.11 0.303,-1.97 1.521,-3.03 1.706,-5.11 z"
           style="clip-rule:evenodd;fill-rule:evenodd"
           id="path401"
           inkscape:connector-curvature="0" />
        <path
           d="m 89.852,229.75 c 1.725,-0.34 0.965,5.6 -1.137,5.11 0.247,-1.44 0.174,-3.16 1.137,-5.11 z"
           style="clip-rule:evenodd;fill-rule:evenodd"
           id="path407"
           inkscape:connector-curvature="0" />
        <path
           d="m 102.36,229.75 c 0.7,0.25 1.17,0.73 1.14,1.7 -0.7,-0.25 -1.17,-0.73 -1.14,-1.7 z"
           style="clip-rule:evenodd;fill-rule:evenodd"
           id="path409"
           inkscape:connector-curvature="0" />
        <path
           d="m 97.244,236 c 0.88,0.83 1.194,2.22 1.138,3.98 -0.904,-0.87 -2.525,-2.52 -1.138,-3.98 z"
           style="clip-rule:evenodd;fill-rule:evenodd"
           id="path431"
           inkscape:connector-curvature="0" />
        <path
           d="m 93.264,237.71 c 0.811,1.08 1.322,2.47 1.706,3.98 -1.214,-0.27 -1.083,0.81 -1.138,1.7 -1.481,-0.56 -1.52,-4.45 -0.568,-5.68 z"
           style="clip-rule:evenodd;fill-rule:evenodd"
           id="path433"
           inkscape:connector-curvature="0" />
        <path
           d="m 115.44,243.4 c 0.7,0.24 1.17,0.72 1.14,1.7 -0.7,-0.25 -1.17,-0.73 -1.14,-1.7 z"
           style="clip-rule:evenodd;fill-rule:evenodd"
           id="path461"
           inkscape:connector-curvature="0" />
        <path
           d="m 85.302,246.24 c 0.86,-2.01 1.079,1.05 0.568,1.14 -0.335,0.06 -0.713,-0.8 -0.568,-1.14 z"
           style="clip-rule:evenodd;fill-rule:evenodd"
           id="path469"
           inkscape:connector-curvature="0" />
        <path
           d="m 96.676,246.24 c 0.661,2.44 -3.813,1.6 -3.981,0 0.48,-0.53 3.625,-1.22 3.981,0 z"
           style="clip-rule:evenodd;fill-rule:evenodd"
           id="path471"
           inkscape:connector-curvature="0" />
        <path
           d="m 105.77,246.24 c 0.99,2.06 3.17,5.91 2.28,7.96 -2.19,-0.84 -2.45,-3.61 -2.28,-6.82 -1.42,-0.75 -1.78,2.24 -2.27,0.56 -0.91,-2.23 2.46,-0.19 2.27,-1.7 z"
           style="clip-rule:evenodd;fill-rule:evenodd"
           id="path475"
           inkscape:connector-curvature="0" />
        <path
           d="m 80.752,246.81 c -1.379,2.03 -2.027,4.79 -3.98,6.25 1.235,-2.17 0.615,-6.21 3.98,-6.25 z"
           style="clip-rule:evenodd;fill-rule:evenodd"
           id="path479"
           inkscape:connector-curvature="0" />
        <path
           d="m 98.95,248.51 c 1.65,0.24 0.784,1.53 1.14,2.28 1.63,3.45 5.67,4.68 5.69,9.67 0.33,1.93 3.28,1.26 3.41,3.41 0.5,1.82 -1.48,1.18 -1.71,2.27 1.69,5.8 0.69,10.48 0,15.92 -3.89,-1.67 0.87,-8.05 -3.98,-7.96 2.42,-2.22 3.11,-4.32 1.71,-7.96 -1.84,-0.7 -0.44,1.84 -2.28,1.14 0.08,-2.92 -0.08,-5.6 -1.13,-7.39 2.09,-1.13 1.97,4.83 4.54,5.11 -0.01,-5.33 -9.565,-8.96 -7.39,-16.49 z"
           style="clip-rule:evenodd;fill-rule:evenodd"
           id="path481"
           inkscape:connector-curvature="0" />
        <path
           d="m 119.42,249.08 c 1.73,-0.02 1.42,2 1.71,3.42 -1.38,-0.33 -1.27,-2.15 -1.71,-3.42 z"
           style="clip-rule:evenodd;fill-rule:evenodd"
           id="path483"
           inkscape:connector-curvature="0" />
        <path
           d="m 92.695,249.65 c 1.264,2.53 -0.114,7.7 3.412,7.96 0.09,-1.57 -0.362,-3.99 -0.569,-6.82 2.418,0.99 0.907,5.92 3.412,6.82 -1.176,2.09 0.152,3.15 0.569,5.12 -3.186,-2.85 -10.493,-7.1 -6.824,-13.08 z"
           style="clip-rule:evenodd;fill-rule:evenodd"
           id="path485"
           inkscape:connector-curvature="0" />
        <path
           d="m 85.302,250.22 c 2.151,-0.38 1.066,3.98 0.568,4.55 -1.282,-0.43 -0.222,-3.19 -0.568,-4.55 z"
           style="clip-rule:evenodd;fill-rule:evenodd"
           id="path489"
           inkscape:connector-curvature="0" />
        <path
           d="m 130.8,250.22 c 0.84,0.48 1.22,1.43 1.13,2.84 -0.8,-0.05 -1.61,-0.09 -1.7,0.57 -1.85,-0.98 1.47,-1.49 0.57,-3.41 z"
           style="clip-rule:evenodd;fill-rule:evenodd"
           id="path491"
           inkscape:connector-curvature="0" />
        <path
           d="m 70.516,254.2 c 1.84,-0.62 1.778,-3.15 3.981,-3.41 -1.26,1.2 -1.198,3.73 -3.981,3.41 z"
           style="clip-rule:evenodd;fill-rule:evenodd"
           id="path497"
           inkscape:connector-curvature="0" />
        <path
           d="m 81.89,251.92 c 2.956,-0.04 0.432,2.11 1.137,4.56 -1.944,-1.18 -0.305,-2.97 -1.137,-4.56 z"
           style="clip-rule:evenodd;fill-rule:evenodd"
           id="path503"
           inkscape:connector-curvature="0" />
        <path
           d="m 73.928,252.5 c 1.943,0.28 0.844,4.2 -1.137,3.98 -0.057,-1.77 0.695,-2.72 1.137,-3.98 z"
           style="clip-rule:evenodd;fill-rule:evenodd"
           id="path509"
           inkscape:connector-curvature="0" />
        <path
           d="m 88.146,252.5 c 2.172,1.42 1.847,5.35 3.412,7.39 -2.603,-1 -2.916,-4.29 -3.412,-7.39 z"
           style="clip-rule:evenodd;fill-rule:evenodd"
           id="path511"
           inkscape:connector-curvature="0" />
        <path
           d="m 77.909,254.77 c 2.437,-0.09 -0.596,2.32 -0.569,3.41 -1.656,-0.8 1.009,-1.96 0.569,-3.41 z"
           style="clip-rule:evenodd;fill-rule:evenodd"
           id="path527"
           inkscape:connector-curvature="0" />
        <path
           d="m 72.222,255.34 c -0.505,1.01 -1.587,1.44 -1.137,3.41 -2.752,0.41 -1.403,-4.14 1.137,-3.41 z"
           style="clip-rule:evenodd;fill-rule:evenodd"
           id="path529"
           inkscape:connector-curvature="0" />
        <path
           d="m 64.83,257.61 c 1.153,5.44 -4.99,11.15 -3.981,16.49 -4.488,-3.98 -3.756,-9.17 2.275,-11.37 -1.517,-1.93 1.341,-3.29 1.706,-5.12 z"
           style="clip-rule:evenodd;fill-rule:evenodd"
           id="path533"
           inkscape:connector-curvature="0" />
        <path
           d="m 66.536,258.18 c 0.918,-0.16 0.979,0.54 1.706,0.57 -0.759,3.13 0.087,4.33 0,7.96 -2.833,-1.8 -2.929,-4.82 -1.706,-8.53 z"
           style="clip-rule:evenodd;fill-rule:evenodd"
           id="path537"
           inkscape:connector-curvature="0" />
        <path
           d="m 86.439,258.18 c 1.499,-0.17 1.866,0.79 1.706,2.28 l -1.706,0 0,-2.28 z"
           style="clip-rule:evenodd;fill-rule:evenodd"
           id="path539"
           inkscape:connector-curvature="0" />
        <path
           d="m 99.519,263.3 c 2.611,0.38 -0.457,3.44 0,0 z"
           style="clip-rule:evenodd;fill-rule:evenodd"
           id="path555"
           inkscape:connector-curvature="0" />
        <path
           d="m 113.17,265.57 c 2.52,0.76 -0.65,4.81 -0.57,6.83 -1.47,-1.7 -0.17,-5.46 0.57,-6.83 z"
           style="clip-rule:evenodd;fill-rule:evenodd"
           id="path561"
           inkscape:connector-curvature="0" />
        <path
           d="m 89.852,270.69 c 0.159,1.66 -0.137,1.96 -1.137,1.14 1.921,1.27 10.176,2.2 7.961,7.39 -1.385,-1.14 -4.054,-5.55 -5.687,-2.84 -1.776,-2.02 -5.372,-2.21 -7.961,-3.41 0.097,-2.37 -1.744,-2.81 -1.706,-5.12 2.435,0.79 2.082,4.36 5.118,4.55 1.59,-0.73 -1.792,-1.18 -1.137,-2.84 1.808,0.08 2.501,1.28 4.549,1.13 z"
           style="clip-rule:evenodd;fill-rule:evenodd"
           id="path569"
           inkscape:connector-curvature="0" />
        <path
           d="m 67.673,268.42 c 1.487,-0.16 2.446,0.2 2.275,1.7 -1.065,1.12 -2.74,0.33 -2.275,-1.7 z"
           style="clip-rule:evenodd;fill-rule:evenodd"
           id="path571"
           inkscape:connector-curvature="0" />
        <path
           d="m 94.97,268.99 c 2.563,-0.94 1.72,2.87 2.843,5.11 -2.355,-0.67 -3.562,-2.5 -3.981,-5.11 1.13,0 0.723,1.55 2.275,1.13 -0.252,-0.5 -0.5,-1.01 -1.137,-1.13 z"
           style="clip-rule:evenodd;fill-rule:evenodd"
           id="path573"
           inkscape:connector-curvature="0" />
        <path
           d="m 89.852,268.99 c 1.78,-0.27 2.539,0.49 2.274,2.27 -1.78,0.26 -2.539,-0.49 -2.274,-2.27 z"
           style="clip-rule:evenodd;fill-rule:evenodd"
           id="path577"
           inkscape:connector-curvature="0" />
        <path
           d="m 98.95,269.56 c 1.16,1.51 1.035,1.66 3.41,1.13 0.38,2.85 -0.52,4.4 -0.57,6.83 -0.47,1.8 -0.75,-1.01 -0.57,-1.71 -0.53,-2.31 -2.128,-3.55 -2.27,-6.25 z"
           style="clip-rule:evenodd;fill-rule:evenodd"
           id="path579"
           inkscape:connector-curvature="0" />
        <path
           d="m 54.593,270.12 c 2.281,1.78 0.118,7.76 -2.843,7.97 0.959,-1.88 0.337,-3.64 0,-5.69 1.132,-0.58 2.429,-0.98 2.843,-2.28 z"
           style="clip-rule:evenodd;fill-rule:evenodd"
           id="path581"
           inkscape:connector-curvature="0" />
        <path
           d="m 77.34,273.54 c 1.499,-0.18 1.867,0.78 1.706,2.27 1.023,1.06 3.376,0.79 2.844,3.41 -2.615,1.26 -6.501,-2.46 -4.55,-5.68 z"
           style="clip-rule:evenodd;fill-rule:evenodd"
           id="path593"
           inkscape:connector-curvature="0" />
        <path
           d="m 74.497,277.52 c 1.516,1.51 2.187,3.88 2.275,6.82 -3.812,-0.45 -0.696,-4.3 -2.275,-6.82 z"
           style="clip-rule:evenodd;fill-rule:evenodd"
           id="path605"
           inkscape:connector-curvature="0" />
        <path
           d="m 84.165,277.52 c 0.747,0.2 0.895,1 1.706,1.13 -0.231,1.42 -2.205,0.04 -1.706,-1.13 z"
           style="clip-rule:evenodd;fill-rule:evenodd"
           id="path607"
           inkscape:connector-curvature="0" />
        <path
           d="m 67.104,278.08 c 3.466,-0.43 3.152,2.92 4.55,4.55 -1.576,1.84 -3,3.83 -5.687,4.55 1.356,1.71 1.39,3 -1.137,3.42 -0.414,1.55 1.13,1.14 1.137,2.27 3.859,-1.45 4.566,-6.05 9.667,-6.26 -3.366,2.7 -4.917,7.22 -10.805,7.4 -3.263,-2.49 -0.507,-4.98 -1.706,-8.53 -0.499,-1.83 1.475,-1.18 1.706,-2.28 0.085,-1.41 -0.294,-2.36 -1.138,-2.84 2.219,-1.44 3.267,3.16 4.55,4.55 1.681,-2.09 0.099,-5.76 -1.137,-6.83 z"
           style="clip-rule:evenodd;fill-rule:evenodd"
           id="path609"
           inkscape:connector-curvature="0" />
        <path
           d="m 71.654,278.08 c 1.213,-0.26 1.083,0.82 1.137,1.71 -0.46,-0.11 -0.567,-0.57 -1.137,-0.57 l 0,-1.14 z"
           style="clip-rule:evenodd;fill-rule:evenodd"
           id="path611"
           inkscape:connector-curvature="0" />
        <path
           d="m 51.75,280.36 c -2.775,2.54 -1.374,7.79 0,10.8 -2.353,-0.48 -0.891,-3.08 -3.981,-1.7 -1.318,-2.74 0.896,-5.08 0.569,-8.53 0.672,-0.66 2.01,-0.65 3.412,-0.57 z"
           style="clip-rule:evenodd;fill-rule:evenodd"
           id="path619"
           inkscape:connector-curvature="0" />
        <path
           d="m 100.66,280.36 c 1.13,0.01 0.72,1.55 2.27,1.14 -0.27,2.01 0.93,5.48 -1.71,5.12 1.43,-2.45 -0.45,-3.78 -0.56,-6.26 z"
           style="clip-rule:evenodd;fill-rule:evenodd"
           id="path621"
           inkscape:connector-curvature="0" />
        <path
           d="m 122.27,281.5 c 1.17,0.15 0.13,2.52 1.7,2.27 -0.82,1.68 -2.29,-0.68 -1.7,-2.27 z"
           style="clip-rule:evenodd;fill-rule:evenodd"
           id="path625"
           inkscape:connector-curvature="0" />
        <path
           d="m 72.791,283.2 c 1.104,-0.22 0.831,2.59 -0.569,1.71 l 0,-1.14 c 0.484,0.11 0.537,-0.22 0.569,-0.57 z"
           style="clip-rule:evenodd;fill-rule:evenodd"
           id="path627"
           inkscape:connector-curvature="0" />
        <path
           d="m 125.11,284.34 c 4.77,-1.17 7.31,4.82 12.51,5.12 -0.17,1.16 -1.14,1.51 -1.7,2.27 -1.91,-4.16 -8.23,-3.9 -10.81,-7.39 z"
           style="clip-rule:evenodd;fill-rule:evenodd"
           id="path629"
           inkscape:connector-curvature="0" />
        <path
           d="m 58.005,290.03 c 1.377,0.33 1.265,2.14 1.706,3.41 -2.031,1.02 -3.357,-0.88 -3.981,-2.84 0.901,-0.05 2.17,0.27 2.275,-0.57 z"
           style="clip-rule:evenodd;fill-rule:evenodd"
           id="path643"
           inkscape:connector-curvature="0" />
        <path
           d="m 85.302,291.16 c 1.311,-0.17 0.631,1.65 1.706,1.71 -0.686,1.71 -2.486,-0.09 -1.706,-1.71 z"
           style="clip-rule:evenodd;fill-rule:evenodd"
           id="path645"
           inkscape:connector-curvature="0" />
        <path
           d="m 88.146,294.01 c 0.747,0.58 2.096,0.56 2.843,1.13 -0.412,1.28 -3.243,0.28 -2.843,-1.13 z"
           style="clip-rule:evenodd;fill-rule:evenodd"
           id="path665"
           inkscape:connector-curvature="0" />
        <path
           d="m 125.68,294.01 c 1.87,0.1 0.47,5.93 -2.84,4.55 0.56,-1.9 2.28,-2.65 2.84,-4.55 z"
           style="clip-rule:evenodd;fill-rule:evenodd"
           id="path667"
           inkscape:connector-curvature="0" />
        <path
           d="m 140.46,295.14 c 3.09,-1.17 5.04,3.68 6.26,6.26 -3.23,-0.94 -2.98,-5.36 -6.26,-6.26 z"
           style="clip-rule:evenodd;fill-rule:evenodd"
           id="path669"
           inkscape:connector-curvature="0" />
        <path
           d="m 57.437,295.71 c 1.856,0.8 3.448,1.86 4.549,3.42 -2.768,0.11 -5.056,-0.25 -4.549,-3.42 z"
           style="clip-rule:evenodd;fill-rule:evenodd"
           id="path681"
           inkscape:connector-curvature="0" />
        <path
           d="m 76.772,296.85 c 0.918,-0.16 0.979,0.54 1.706,0.57 0.225,1.1 -2.59,0.83 -1.706,-0.57 z"
           style="clip-rule:evenodd;fill-rule:evenodd"
           id="path683"
           inkscape:connector-curvature="0" />
        <path
           d="m 92.126,296.85 c 1.997,-0.1 1.871,1.92 3.412,2.28 -0.866,1.19 -3.533,-0.6 -3.412,-2.28 z"
           style="clip-rule:evenodd;fill-rule:evenodd"
           id="path685"
           inkscape:connector-curvature="0" />
        <path
           d="m 60.28,301.4 c -1.977,1.76 -4.771,-0.51 -6.256,-1.14 1.742,-3.06 2.872,2.29 6.256,1.14 z"
           style="clip-rule:evenodd;fill-rule:evenodd"
           id="path695"
           inkscape:connector-curvature="0" />
        <path
           d="m 103.5,299.13 c 1.14,-0.2 1.78,0.11 1.71,1.13 l -1.71,0 0,-1.13 z"
           style="clip-rule:evenodd;fill-rule:evenodd"
           id="path697"
           inkscape:connector-curvature="0" />
        <path
           d="m 53.456,303.11 c 0.972,-1.66 2.069,1.29 3.98,0.57 -0.935,1.62 -3.085,-0.28 -3.98,-0.57 z"
           style="clip-rule:evenodd;fill-rule:evenodd"
           id="path719"
           inkscape:connector-curvature="0" />
        <path
           d="m 95.538,303.11 c 0.747,0.2 0.895,1 1.706,1.13 -0.231,1.42 -2.204,0.04 -1.706,-1.13 z"
           style="clip-rule:evenodd;fill-rule:evenodd"
           id="path723"
           inkscape:connector-curvature="0" />
        <path
           d="m 52.887,304.24 c 2.003,0.84 2.515,3.18 5.118,3.42 -2.238,1.64 -4.527,-1.52 -5.118,-3.42 z"
           style="clip-rule:evenodd;fill-rule:evenodd"
           id="path725"
           inkscape:connector-curvature="0" />
        <path
           d="m 93.832,305.38 c 2.486,-0.4 1.212,2.96 2.844,3.41 -1.218,1.37 -2.869,-1.65 -2.844,-3.41 z"
           style="clip-rule:evenodd;fill-rule:evenodd"
           id="path729"
           inkscape:connector-curvature="0" />
        <path
           d="m 148.43,307.09 c 0.51,-1.54 2.3,0.26 1.7,1.7 -2.02,0.89 -0.34,-1.93 -1.7,-1.7 z"
           style="clip-rule:evenodd;fill-rule:evenodd"
           id="path733"
           inkscape:connector-curvature="0" />
        <path
           d="m 51.75,307.66 c 1.788,0.67 3.009,1.92 5.118,2.27 -1.531,1.31 -4.99,-0.29 -5.118,-2.27 z"
           style="clip-rule:evenodd;fill-rule:evenodd"
           id="path735"
           inkscape:connector-curvature="0" />
        <path
           d="m 68.242,308.22 c 3.379,0.04 3.086,3.74 6.824,3.42 -0.978,1.1 -2.945,1.22 -5.118,1.14 -0.724,-1.37 -2.077,-2.1 -1.706,-4.56 z"
           style="clip-rule:evenodd;fill-rule:evenodd"
           id="path737"
           inkscape:connector-curvature="0" />
        <path
           d="m 59.711,311.07 c 0.071,-1.26 2.412,-0.24 3.412,-0.57 1.844,1.95 2.706,4.88 4.549,6.82 l 4.549,0 c -5.013,6.19 -7.491,-5.7 -12.51,-6.25 z"
           style="clip-rule:evenodd;fill-rule:evenodd"
           id="path743"
           inkscape:connector-curvature="0" />
        <path
           d="m 83.596,310.5 c 2.123,-0.23 3.336,0.46 3.412,2.28 -1.114,0.94 -3.358,-0.43 -3.412,-2.28 z"
           style="clip-rule:evenodd;fill-rule:evenodd"
           id="path745"
           inkscape:connector-curvature="0" />
        <path
           d="m 53.456,311.07 c 1.213,-0.27 1.083,0.81 1.137,1.71 -0.46,-0.11 -0.567,-0.58 -1.137,-0.57 l 0,-1.14 z"
           style="clip-rule:evenodd;fill-rule:evenodd"
           id="path749"
           inkscape:connector-curvature="0" />
        <path
           d="m 80.184,311.64 c 2.693,0.34 3.783,2.28 3.98,5.12 -1.736,-1.3 -3.701,-2.37 -3.98,-5.12 z"
           style="clip-rule:evenodd;fill-rule:evenodd"
           id="path755"
           inkscape:connector-curvature="0" />
        <path
           d="m 42.651,312.78 c -1.724,2.1 -1.916,-1.73 0,0 z"
           style="clip-rule:evenodd;fill-rule:evenodd"
           id="path757"
           inkscape:connector-curvature="0" />
        <path
           d="m 46.063,320.74 c 1.907,0.18 1.594,2.57 1.706,4.55 -2.117,0.03 -1.64,-2.53 -1.706,-4.55 z"
           style="clip-rule:evenodd;fill-rule:evenodd"
           id="path777"
           inkscape:connector-curvature="0" />
        <path
           d="m 77.909,322.44 c 0.096,1.24 -2.017,0.26 -2.843,0.57 0.519,-1.91 1.057,-0.28 2.843,-0.57 z"
           style="clip-rule:evenodd;fill-rule:evenodd"
           id="path781"
           inkscape:connector-curvature="0" />
        <path
           d="m 67.104,323.01 c -1.377,1.87 -2.717,-1.58 0,0 z"
           style="clip-rule:evenodd;fill-rule:evenodd"
           id="path783"
           inkscape:connector-curvature="0" />
        <path
           d="m 62.555,325.29 c -1.37,-0.24 -1.236,1.03 -2.843,0.56 0.167,-1.32 1.429,-2.66 -1.137,-2.27 -1.07,-1.13 4.86,-0.64 3.98,1.71 z"
           style="clip-rule:evenodd;fill-rule:evenodd"
           id="path787"
           inkscape:connector-curvature="0" />
        <path
           d="m 73.928,325.29 c -0.096,-1.24 2.017,-0.26 2.844,-0.57 0.096,1.23 -2.017,0.25 -2.844,0.57 z"
           style="clip-rule:evenodd;fill-rule:evenodd"
           id="path791"
           inkscape:connector-curvature="0" />
        <path
           d="m 65.398,325.85 c 0.482,-1.66 1.831,0.34 2.844,0 -0.146,1.33 -2.499,0.33 -2.844,0 z"
           style="clip-rule:evenodd;fill-rule:evenodd"
           id="path797"
           inkscape:connector-curvature="0" />
        <path
           d="m 99.519,325.85 c -0.695,0.83 -2.17,0.87 -2.843,1.71 0.092,0.67 1.037,0.48 1.706,0.57 -0.055,1.46 -2.22,0.81 -2.275,2.27 -1.256,-0.07 -0.242,-2.41 -0.569,-3.41 1.23,-0.47 1.94,-1.47 3.981,-1.14 z"
           style="clip-rule:evenodd;fill-rule:evenodd"
           id="path801"
           inkscape:connector-curvature="0" />
        <path
           d="m 58.574,328.7 c 1.978,-1.76 4.66,0.62 7.393,0 -1.256,2.58 -4.647,-0.51 -7.393,0 z"
           style="clip-rule:evenodd;fill-rule:evenodd"
           id="path811"
           inkscape:connector-curvature="0" />
        <path
           d="m 102.36,328.13 c -0.25,0.7 -0.73,1.17 -1.7,1.14 -0.27,-1.22 0.81,-1.09 1.7,-1.14 z"
           style="clip-rule:evenodd;fill-rule:evenodd"
           id="path813"
           inkscape:connector-curvature="0" />
        <path
           d="m 122.84,332.11 c 1.82,1.13 -2.97,2.13 -3.42,1.14 -0.09,-1.61 3.51,0.47 3.42,-1.14 z"
           style="clip-rule:evenodd;fill-rule:evenodd"
           id="path823"
           inkscape:connector-curvature="0" />
        <path
           d="m 100.65,190.51 c 0.02,-1.34 -0.976,-1.67 -0.57,-3.41 3.22,-1.34 4.99,-4.12 7.97,-5.69 2.3,0.16 3.12,1.81 6.25,1.14 5.55,-3.66 10.94,-4.88 18.77,-3.41 2.23,0.41 4.28,2.12 6.25,2.27 5.66,0.41 9.83,-4.01 15.36,-3.41 2.98,2.25 -1.55,8.74 2.84,9.1 -1.15,1.88 -3.18,2.88 -5.69,3.41 -2.38,3.3 -6.48,4.89 -8.53,8.53 -0.91,0.16 -0.98,-0.54 -1.7,-0.57 -2.68,3.77 -6.51,6.39 -9.67,9.67 0.21,6.92 -0.43,11.43 3.41,14.22 0.08,1.02 -0.69,1.2 -0.57,2.27 0.07,1.64 0.52,1.95 -0.57,1.71 1.08,1.42 -1.28,3.04 1.71,2.84 -0.17,1.16 -1.54,1.11 -1.71,2.27 0.25,0.7 0.73,1.17 1.71,1.14 -1.47,2.46 -1.36,5.58 1.14,6.83 -1.09,2.91 -1.49,6.32 0.57,8.52 -0.21,5.15 -2.98,9.85 -3.98,15.36 -0.76,4.17 0.12,10.25 -2.28,13.08 0.09,0.66 1.04,0.48 1.71,0.57 -1.47,3.27 4.07,6.98 7.96,11.37 2.33,2.63 2.66,4.77 6.25,5.69 0.4,-0.81 2.03,1.55 3.98,5.69 0.07,0.32 0.44,0.99 0.58,1.69 2.32,1.65 3.1,4.86 5.68,6.26 1.25,0.04 2.71,-0.65 3.98,-0.57 4.68,0.27 8.19,3 10.24,6.26 -1.42,1.05 -2.99,1.93 -3.98,3.41 -6.44,0.3 -8.71,-0.64 -14.22,-0.57 -1.62,-1.74 -5.57,-3.71 -8.53,-2.28 0.58,2.21 3.81,-1.76 3.41,1.14 -2.4,-0.13 -3.67,0.88 -5.68,1.14 -1.28,0.17 -1.17,-1.83 -1.14,-2.84 0.55,-6.24 -5.79,-5.59 -11.38,-5.69 0.33,-2.14 3.96,-0.98 4.55,-2.85 -2.08,-1.16 -4.06,1.13 -6.82,0 0.05,-2.22 2.78,-1.77 2.84,-3.98 -0.99,-0.69 -3.74,0.41 -5.68,-0.56 1.63,-1.78 2.47,-4.36 5.11,-5.12 -0.16,2.11 -3,1.54 -2.84,3.98 2.48,0.39 2.53,-1.64 4.55,-1.71 1.47,2.57 -0.81,3.87 -1.14,6.26 3.69,0.66 2.93,-3.15 5.12,-3.98 -0.71,2.95 -1.1,3.37 -0.57,6.82 2.76,0.68 2.53,-1.64 3.41,-2.84 2.16,0.52 0.42,2.28 0.57,3.98 3.31,1.53 2.87,-1.89 6.26,-1.71 -0.45,1.26 -1.99,1.42 -2.85,2.28 0.83,1.06 0.03,3.76 1.14,4.55 2.36,0.46 0.29,-3.51 1.71,-3.99 1,0.52 1.04,2 1.7,2.85 2.48,-2.62 3.58,1.47 5.69,0 1.49,5.08 8.91,0.74 11.94,3.98 1.32,-0.83 -1.11,-1.8 1.14,-1.71 0.88,-2.02 -1.93,-0.34 -1.71,-1.7 -0.04,-2.6 1.68,-1.14 2.85,-0.57 0.89,-2.46 -3.24,-0.86 -3.98,-1.14 -0.14,-0.05 -0.31,-1.7 -0.57,-1.71 -1.17,-0.03 -3.08,1.81 -4.55,1.71 -3.2,-4.19 -8.09,-6.7 -9.1,-13.08 -5.24,-4.51 -10.83,-9.12 -15.35,-14.78 -2.92,-3.66 -4.51,-8.33 -7.97,-11.95 l -2.27,0 c 0.39,-2.43 -1.66,-4.31 -0.57,-5.68 -0.08,-1.06 -1.93,-0.35 -2.27,-1.14 -0.68,-5.11 -10.26,-6.4 -7.4,-11.37 2.18,1.16 3.82,8.53 6.26,5.68 1.26,1.33 0.1,2.79 1.7,5.69 4.54,-1.51 1.06,-7.11 0,-9.67 1.5,-0.17 0.45,2.21 2.28,1.71 2.64,-3.01 -0.57,-6.1 1.14,-9.1 1.72,4.29 0.35,12.87 -0.57,17.06 0.06,1.4 3.33,4.56 1.13,4.55 0.52,1.38 2.29,1.51 3.98,1.71 1.32,0.17 0.64,-1.65 1.71,-1.71 -2.23,0.91 -2.16,-5.61 -1.71,-7.39 1.17,0.73 0.6,3.19 2.28,3.41 2.84,-1.63 -1.34,-4.24 -1.14,-6.83 1.84,-0.32 2.86,0.18 3.42,1.14 -0.16,-1.92 -0.91,-3.26 -0.57,-5.68 0.74,0.2 0.89,1 1.7,1.13 2.18,-4.95 -3.19,-10.97 -1.13,-14.21 -8.06,-3.33 -14.56,-8.2 -20.48,-13.65 0.76,-1.45 1.33,2.03 2.84,1.7 0.06,-1.76 -1.78,-1.62 -1.13,-3.98 3.04,2.46 4.03,6.97 9.67,6.83 -0.21,0.74 -1.01,0.89 -1.14,1.7 2.64,0.96 3.2,4.01 6.82,3.98 -1.2,-0.57 -3.4,-1.64 -1.7,-3.41 -0.73,-0.79 -2.69,-0.35 -3.42,-1.14 3.54,-3.72 4.87,3.58 7.4,4.55 2.52,-0.86 -2.72,-7.89 1.14,-7.96 -1.13,-0.96 -1.56,-2.61 -2.28,-3.98 0.5,-1.68 0.85,1.32 2.28,0.57 -0.47,-2.37 -1.61,-4.08 -3.99,-4.55 4.88,-7.24 -7.85,-17.72 -0.57,-20.47 1.45,0.75 -0.83,2.52 -0.56,3.98 1.76,2.13 2.66,0.9 1.7,5.12 0.83,-1.45 0.93,-3.63 3.42,-3.41 0.58,-2.33 -0.92,-5.49 0,-6.26 1.7,-0.57 1,1.27 1.13,2.27 2.27,-0.39 3.32,-1.98 5.12,-2.84 -0.67,-1.49 1.75,-2.45 -0.57,-2.27 1.13,-1.68 3.97,-7.21 5.12,-5.12 -1.98,0.3 -1.49,3.06 -2.28,4.55 1.23,1 2.72,-2.58 3.42,-3.98 4.77,0.79 4.56,-3.4 7.96,-3.98 l 0,-3.42 c -1.3,-0.89 -4.51,1.16 -6.26,1.71 0.87,-2.47 1.68,-2.78 1.71,-5.12 0.77,0.56 1.14,1.52 1.71,2.28 1.09,-0.06 -0.89,-2.12 0.56,-2.85 1.56,-0.41 1.15,1.13 2.28,1.14 -0.05,-0.81 -0.1,-1.61 0.57,-1.71 -6.05,-0.76 -14.71,5.05 -20.47,0 -6.32,-0.06 -14.14,-1.24 -18.2,3.42 -2.26,-0.21 -5.45,0.52 -6.83,-0.57 -1.97,1.24 -3.92,2.52 -6.25,3.41 0.28,3.46 0.16,3.88 0.57,6.82 0.18,1.21 1.76,-0.81 2.27,-1.13 0.42,2.04 -0.09,2.37 3.41,1.7 -6.23,5.55 -10.721,12.23 -10.233,22.18 -3.453,1.29 -5.034,4.44 -6.824,7.39 -6.997,1.16 -7.879,8.43 -10.236,14.22 2.991,-0.23 3.583,-2.86 6.824,-2.84 -0.511,1 -1.373,1.66 -1.706,2.84 -9.16,2.97 -13.469,10.8 -21.61,14.79 -1.363,2.39 -3.96,3.55 -5.687,5.68 -0.644,0.8 0.023,1.34 -0.568,2.28 -2.08,3.31 -6.359,5.5 -8.53,8.53 -2.103,2.93 -1.942,7.57 -5.687,9.67 0.016,0.55 0.696,0.44 1.137,0.56 -1.743,2.24 -2.242,3.8 -4.549,6.26 0.696,8.29 -1.883,15.5 -1.137,23.89 0.517,0.5 1.678,0.09 3.412,0.56 -0.863,-4.54 0.196,-8.04 0.568,-10.8 3.725,-0.31 0.792,-7.36 2.275,-10.24 1.604,0.67 1.73,2.82 2.275,4.55 -0.321,1.39 -0.487,2.93 -2.275,2.85 -0.093,1.79 1.511,1.9 1.137,3.98 -0.457,-0.31 -0.923,-0.6 -1.706,-0.57 0.288,1.42 1.076,2.33 1.706,3.41 -0.849,1.88 -0.67,-1.9 -2.274,-1.14 -2.23,2.83 1.187,4.86 1.137,7.4 -1.213,0.26 -1.083,-0.82 -1.137,-1.71 -1.109,-0.28 -2.046,2.82 0,2.27 -0.35,1.93 -3.828,0.72 -5.118,1.71 0.34,2.87 2.571,3.61 1.137,6.82 1.189,1.2 2.137,-0.75 2.843,-1.7 -0.141,-0.72 -1.13,-0.58 -1.137,0 -1.532,-0.51 0.985,-1.59 2.275,-1.14 0.341,2.2 -3.233,4.06 -0.569,5.12 -1.985,-0.21 -2.849,1.9 -2.843,5.11 2.662,2.27 4.555,5.31 7.393,7.4 -4.679,1.45 -6.67,-4.7 -9.667,-6.82 2.258,-11.63 -5.198,-20.28 0,-27.87 -0.655,-1.24 -0.113,-3.68 -1.706,-3.98 0.858,-1.04 0.604,-3.19 1.706,-3.98 -0.108,-0.46 -0.57,-0.57 -0.569,-1.14 -0.854,0.24 -0.023,-1.99 0,-1.7 3.877,-7.3 6.003,-16.36 12.511,-21.04 -0.667,-1.6 1.048,-2.94 1.137,-2.27 3.07,-3.61 7.278,-8.32 8.53,-11.94 3.399,-1.72 7.042,-3.2 7.961,-7.4 2.335,0.06 2.277,-2.27 5.118,-1.7 8.282,-4.42 6.289,-19.12 16.492,-21.61 0.244,-1.09 1.225,-1.43 1.138,-2.85 5.024,-1.99 4.736,-9.29 7.393,-13.64 2.653,-4.36 -1.136,-2.66 0.003,-4.56 1.14,-1.89 0.836,-5.22 2.84,-6.25 -1.36,0.23 -1.15,-2.64 -1.14,-3.98 z m 21.61,130.79 c 4.17,0.52 3,0.61 2.85,2.27 -0.15,1.67 1.28,1.75 1.13,3.41 -0.94,0.96 -3.34,0.46 -5.11,0.57 0.06,-1.07 1.88,-0.39 1.7,-1.7 -0.95,-0.76 -1.21,-2.2 -3.41,-1.71 -1.06,-1.26 4.15,-0.35 4.55,0.57 -0.62,-4.12 -7.61,-1.87 -8.53,-5.69 -2.79,0.63 -5.45,1.38 -6.26,3.98 -1.65,-0.74 -4.01,-0.72 -5.11,0.57 -1.11,-1.33 1.73,-3.55 3.41,-3.98 -0.18,-0.77 -1.43,-0.47 -2.28,-0.57 1.58,-1.83 3.96,-0.87 5.12,0.57 4.28,-5.3 7.78,1.19 11.94,1.71 z"
           sodipodi:nodetypes="ccccssccccccccccccccsccsccccsccccccccccccccccccccccccccccccssccsccccccccccccccccccccccccccccccccccccccccccccccccccccccccccccccccccsssccccccccccccccccccccccccccccccccccccccccccscccccccccccc"
           id="path3440"
           inkscape:connector-curvature="0" />
        <path
           d="m 102.36,197.9 c 1.26,0.42 2.34,-2.1 1.14,-2.27 -0.01,1.13 -1.55,0.72 -1.14,2.27 z"
           id="path3410"
           inkscape:connector-curvature="0" />
        <path
           d="m 109.19,320.74 c -0.85,0.09 -2.1,-0.21 -2.28,0.56 0.85,-0.09 2.1,0.21 2.28,-0.56 z"
           id="path3372"
           inkscape:connector-curvature="0" />
        <path
           d="m 115.44,325.85 c 2.23,0.33 3.3,-0.49 4.55,-1.13 1.28,0.58 -2.18,1.17 -2.27,2.27 0.91,0.99 2.56,1.23 4.55,1.14 -0.16,1.17 -2.52,0.13 -2.28,1.7 -0.09,1.24 2.02,0.26 2.85,0.57 -2.18,2.72 -6.57,-2.85 -9.1,-3.41 -0.16,-0.92 0.53,-0.98 0.56,-1.71 -4.3,1.16 -5.66,-1.46 -9.09,0.57 2.2,-2.79 8.32,-3.96 10.23,0 z"
           style="clip-rule:evenodd;fill-rule:evenodd"
           id="path1003"
           inkscape:connector-curvature="0" />
        <path
           d="m 142.17,184.82 c 0.94,0.08 -0.6,2.37 0,3.98 -1.75,-0.92 -0.8,-2.74 0,-3.98 z"
           style="clip-rule:evenodd;fill-rule:evenodd"
           id="path1051"
           inkscape:connector-curvature="0" />
        <path
           d="m 93.264,228.61 c 0.39,-3.59 4.242,-3.72 5.118,-6.82 0.389,2.11 -3.335,4.99 -5.118,6.82 z"
           style="clip-rule:evenodd;fill-rule:evenodd"
           id="path1071"
           inkscape:connector-curvature="0" />
        <path
           d="m 100.66,222.92 c 1.97,-0.26 0.32,3.09 1.7,3.42 -0.77,1.27 -2.28,-1.46 -1.7,-3.42 z"
           style="clip-rule:evenodd;fill-rule:evenodd"
           id="path1073"
           inkscape:connector-curvature="0" />
        <path
           d="m 107.48,228.61 c 1.86,-0.15 1.21,2.21 2.84,2.27 -1.54,2.5 0.73,3.05 1.14,5.12 -2.49,-1.3 -2.96,-4.62 -3.98,-7.39 z"
           style="clip-rule:evenodd;fill-rule:evenodd"
           id="path1079"
           inkscape:connector-curvature="0" />
        <path
           d="m 113.17,229.18 c 1.04,3.31 2.16,6.55 5.68,7.39 0.97,0.21 1.08,-0.44 1.14,-1.14 1.79,1.25 2.88,3.19 3.98,5.12 0.11,1.79 3.07,0.73 2.85,2.85 -5.35,0.98 -3.67,-5.06 -7.97,-5.12 -0.72,0.13 -0.74,1.69 0,1.7 -1.9,-1 -8.23,-5.32 -5.68,-10.8 z"
           style="clip-rule:evenodd;fill-rule:evenodd"
           id="path1083"
           inkscape:connector-curvature="0" />
        <path
           d="m 104.07,233.16 c -2.11,-0.4 -1.42,1.99 -2.28,2.84 -1.08,-0.93 -0.17,-4.69 2.28,-3.98 -0.09,0.66 0.12,1.02 0.57,1.14 -0.11,0.64 -0.57,0.32 -0.57,0 z"
           style="clip-rule:evenodd;fill-rule:evenodd"
           id="path1087"
           inkscape:connector-curvature="0" />
        <path
           d="m 89.852,243.4 c 0.462,-1.97 -1.062,-2.4 0,-3.42 1.479,0.83 1.166,3.05 1.706,3.42 -0.249,0.84 -0.728,-0.23 -1.706,0 z"
           style="clip-rule:evenodd;fill-rule:evenodd"
           id="path1093"
           inkscape:connector-curvature="0" />
        <path
           d="m 75.634,264.44 c 1.572,0.54 1.83,5.34 3.981,3.41 0.815,0.7 1.077,1.95 1.137,3.41 -2.896,-2.8 -3.948,4.72 -6.824,3.41 0.949,-1.51 2.599,-2.33 2.844,-4.55 -0.61,-1.66 -1.614,-2.93 -1.138,-5.68 z"
           style="clip-rule:evenodd;fill-rule:evenodd"
           id="path1101"
           inkscape:connector-curvature="0" />
        <path
           d="m 119.99,271.26 c 1.68,0.8 0.51,2.16 3.41,0.57 -1.74,2.14 -1.22,3.02 -1.13,6.82 -1.27,-0.48 -2.07,-5.2 -2.28,-7.39 z"
           style="clip-rule:evenodd;fill-rule:evenodd"
           id="path1105"
           inkscape:connector-curvature="0" />
        <path
           d="m 116.01,276.95 c 1.35,-1.41 -0.78,1.8 0.57,2.27 1.75,0.43 1.09,-1.56 2.84,-1.14 -0.86,5.32 3.42,8.22 2.85,11.38 -0.83,-0.7 -0.87,-2.17 -1.71,-2.85 -1.75,-0.42 -1.09,1.57 -2.84,1.14 -0.47,-1.61 0.8,-1.47 0.57,-2.84 -1.38,0.51 -1.43,-0.45 -3.42,-1.71 2.11,0.62 3.24,-2.19 1.14,-3.98 -2.01,0.67 -4,3.67 -5.69,2.85 0.3,-0.85 0.84,-1.44 1.14,-2.28 2.9,0.43 3.58,-1.35 4.55,-2.84 z"
           style="clip-rule:evenodd;fill-rule:evenodd"
           id="path1107"
           inkscape:connector-curvature="0" />
        <path
           d="m 87.008,277.52 c 2.188,-0.85 5.14,2.43 7.393,3.41 -0.965,1.12 -2.645,1.52 -4.549,1.7 2.375,-2.3 -1.546,-3.26 -2.844,-5.11 z"
           style="clip-rule:evenodd;fill-rule:evenodd"
           id="path1109"
           inkscape:connector-curvature="0" />
        <path
           d="m 85.871,323.58 c 5.207,-0.27 12.075,-1.34 10.236,-6.82 2.893,-5.56 5.583,-10.07 3.983,-15.36 -0.535,-1.75 -1.993,-2.94 -2.846,-4.55 0.085,0.16 1.049,-0.16 1.138,0 -0.761,-1.36 -2.412,-1.96 -3.412,-3.41 -0.574,-0.83 -0.571,-2.18 -1.138,-2.84 -2.608,-3.07 -6.054,-4.71 -10.236,-6.26 -0.764,0.38 -1.06,1.22 -1.138,2.28 -0.86,-3.67 -2.193,1.6 -4.549,-0.57 3.522,-0.65 4.281,-4.06 8.53,-3.98 -0.252,0.5 -0.5,1.01 -1.137,1.13 2.551,0.88 6.043,3.8 8.53,2.85 1.226,1.24 1.587,3.34 2.844,4.55 0.687,-1.42 1.958,-5.22 0.568,-6.83 3.496,-0.65 2.756,6.24 0.569,8.53 2.109,-0.35 2.257,-2.67 4.547,-2.84 -0.22,1.87 -1.66,2.51 -2.27,3.98 0.97,0.02 1.47,-0.42 1.7,-1.14 1.75,0.56 -0.65,1.52 -0.57,2.28 1.61,0.47 1.48,-0.8 2.85,-0.57 -0.19,2.09 -1.59,2.95 -3.41,3.41 -0.33,2.23 0.49,3.3 1.13,4.55 0.57,0.19 5.1,1.68 3.98,3.41 4.57,-2.26 9.34,-4.31 13.08,-7.39 -2.31,-1.11 -3.9,-2.92 -7.39,-2.85 0.54,-1.73 2.77,-1.78 2.84,-3.98 -1.22,-1.91 -2.61,0.75 -3.98,0.57 -1.39,-1.34 0.85,-1.05 0.57,-2.84 -4.34,-0.03 -4.17,4.6 -2.84,7.39 -1.68,-0.6 -2.05,-2.5 -3.41,-3.41 0.34,-1.36 0.81,-2.59 0.57,-4.55 3.08,0.62 2.54,-2.38 3.41,-3.98 1.08,1.07 1.43,0.06 2.84,0 0.42,1.55 -1.13,1.15 -1.14,2.28 1.16,2.06 4.82,1.62 5.69,3.98 0,1.7 -1.02,2.39 -2.27,2.84 1.44,2.65 4.72,-0.86 3.98,-3.98 3.2,0.5 1.44,5.36 -0.57,5.69 2.06,2.8 6.55,0.07 4.55,-3.42 6.19,4.49 -5.3,7.08 -6.26,9.67 -0.2,0.56 1.27,0.56 1.71,0.57 -0.43,1.28 -3.19,0.22 -4.55,0.57 0.46,1.43 3,0.79 3.98,1.7 -0.7,1.73 -1.96,-0.61 -3.41,0 -0.8,0.2 -0.05,1.01 0.57,1.14 -8.1,-0.71 -16.232,6 -15.358,14.22 2.678,-1.22 5.588,-4.88 9.668,-2.84 -1.9,1.51 -6.29,0.53 -6.83,3.41 0.61,1.29 1.73,-1.64 3.42,-1.14 -1.2,1.45 -2.76,2.55 -3.42,4.55 -1.578,-3.17 -7.223,-1.31 -8.525,1.71 -8.448,-1.52 -13.225,8.28 -23.316,5.11 1.427,-1.03 4.5,-0.42 4.549,-2.84 3.14,3.16 6.836,0.14 10.236,-1.14 -0.643,-3.72 -0.599,-8.12 -3.98,-9.1 0.979,-1.12 3.695,0.82 3.98,2.28 3.071,-0.15 1.625,-4.82 5.687,-3.98 0.015,-1.75 -1.664,-4.03 1.137,-3.98 l 0,3.41 c -3.775,1.96 -4.576,4.08 -5.117,8.53 z"
           style="clip-rule:evenodd;fill-rule:evenodd"
           id="path1115"
           inkscape:connector-curvature="0" />
        <path
           d="m 89.852,288.32 c -1.497,1.4 -3.296,-1.64 0,0 z"
           style="clip-rule:evenodd;fill-rule:evenodd"
           id="path1123"
           inkscape:connector-curvature="0" />
        <path
           d="m 135.92,295.14 c 2.12,3.19 5.87,4.74 8.52,7.4 -4.18,-1.91 -7.38,-1.97 -8.52,-7.4 z"
           style="clip-rule:evenodd;fill-rule:evenodd"
           id="path1127"
           inkscape:connector-curvature="0" />
        <path
           d="m 67.673,303.68 c 1.336,-1.67 3.31,0.82 3.981,1.7 -0.458,0.79 -2.924,-1.21 -3.981,-1.7 z"
           style="clip-rule:evenodd;fill-rule:evenodd"
           id="path1133"
           inkscape:connector-curvature="0" />
        <path
           d="m 143.88,303.68 c 1.16,-1.32 3.67,0.84 3.41,2.84 -1.82,-0.27 -1.26,-2.92 -3.41,-2.84 z"
           style="clip-rule:evenodd;fill-rule:evenodd"
           id="path1135"
           inkscape:connector-curvature="0" />
        <path
           d="m 76.203,315.05 c 2.593,1.97 -0.366,4.14 0,0 z"
           style="clip-rule:evenodd;fill-rule:evenodd"
           id="path1139"
           inkscape:connector-curvature="0" />
        <path
           d="m 93.832,316.19 c -1.125,1.53 -2.505,2.8 -2.274,5.68 -1.386,-1.79 0.152,-5.51 2.274,-5.68 z"
           style="clip-rule:evenodd;fill-rule:evenodd"
           id="path1143"
           inkscape:connector-curvature="0" />
        <path
           d="m 59.711,317.89 c 0.67,-1 2.819,1.31 4.549,1.14 -0.927,1.26 -3.338,-0.79 -4.549,-1.14 z"
           style="clip-rule:evenodd;fill-rule:evenodd"
           id="path1145"
           inkscape:connector-curvature="0" />
        <path
           d="m 80.184,321.87 c -1.76,-0.65 -3.133,0.56 -4.55,-1.13 -2.188,1.95 -7.837,4.78 -9.099,0 4.072,3.22 10.48,-3.58 13.649,1.13 z"
           style="clip-rule:evenodd;fill-rule:evenodd"
           id="path1147"
           inkscape:connector-curvature="0" />
        <path
           sodipodi:nodetypes="cccccccccccccccccccccccc"
           style="clip-rule:evenodd;fill-rule:evenodd"
           d="m 49.475,334.38 c 0.915,-0.69 3.968,1.32 6.824,0.57 -2.729,-2.77 -6.689,-4.3 -9.667,-6.82 5.939,-0.91 10.007,7.68 17.629,5.12 4.749,2.83 14.441,3.29 17.629,-1.14 1.37,-0.23 1.236,1.04 2.843,0.57 0.223,-0.79 1.196,-3.04 2.843,-3.98 0.533,0.02 0.291,4.03 -1.706,3.41 4.847,0.65 9.569,-1 15.35,0.57 -0.17,-0.77 -1.42,-0.48 -2.271,-0.57 3.481,-1.76 6.501,1.83 7.961,3.98 1.69,-1.18 -0.81,-2.94 -1.71,-3.41 1.92,0.21 5.16,0.49 7.97,1.7 0.93,1.34 -1.2,4.08 0,1.71 -0.45,-1.64 -2.75,-1.42 -3.99,-2.27 -0.7,2.7 -1.93,4.88 -4.54,5.68 -0.08,-0.73 -0.59,-1.44 -0.57,-1.7 -0.42,-1.3 -1.71,-1.7 -2.85,-2.28 -1.79,1.24 -2.756,2.93 -3.408,0.57 -0.829,-0.34 -0.994,-0.28 -1.706,-0.57 -3.895,-3.92 -9.422,2.41 -13.648,0 -1.748,0.15 -2.557,1.24 -3.98,1.71 -10.81,0.45 -17.472,-1.09 -27.866,-1.14 0.025,-0.97 -0.422,-1.47 -1.137,-1.71 z"
           id="path1155"
           inkscape:connector-curvature="0" />
        <path
           d="m 104.64,330.97 c 5.27,-6.56 10.14,2.81 14.21,4.55 2.66,0.58 1.89,-2.28 4.55,-1.7 -1.17,2.62 -3.88,3.7 -7.96,3.41 0.49,-2.76 -1.32,-3.23 -2.84,-3.98 -0.21,-0.97 0.44,-1.07 1.14,-1.14 -1.24,-4.32 -7.87,-2.06 -9.1,-1.14 z"
           style="clip-rule:evenodd;fill-rule:evenodd"
           id="path1157"
           inkscape:connector-curvature="0" />
        <path
           d="m 93.832,329.83 c -0.137,1.01 -0.978,1.3 -2.274,1.14 1.151,-1.32 -0.231,-1.31 -1.138,-0.57 -1.482,-0.66 2.759,-1.86 3.412,-0.57 z"
           style="clip-rule:evenodd;fill-rule:evenodd"
           id="path1159"
           inkscape:connector-curvature="0" />
      </g>
    </g>
  </g>
</svg>
