<?xml version="1.0" encoding="UTF-8" standalone="no"?>
<!-- Created with Inkscape (http://www.inkscape.org/) -->

<svg
   xmlns:dc="http://purl.org/dc/elements/1.1/"
   xmlns:cc="http://creativecommons.org/ns#"
   xmlns:rdf="http://www.w3.org/1999/02/22-rdf-syntax-ns#"
   xmlns:svg="http://www.w3.org/2000/svg"
   xmlns="http://www.w3.org/2000/svg"
   xmlns:sodipodi="http://sodipodi.sourceforge.net/DTD/sodipodi-0.dtd"
   xmlns:inkscape="http://www.inkscape.org/namespaces/inkscape"
   width="62mm"
   height="88mm"
   viewBox="0 0 219.68504 311.81102"
   id="svg2"
   version="1.1"
   inkscape:version="0.91 r13725"
   sodipodi:docname="a_rats.svg">
  <defs
     id="defs4">
    <inkscape:perspective
       sodipodi:type="inkscape:persp3d"
       inkscape:vp_x="0 : 155.90551 : 1"
       inkscape:vp_y="0 : 1000 : 0"
       inkscape:vp_z="219.68504 : 155.90551 : 1"
       inkscape:persp3d-origin="109.84252 : 103.93701 : 1"
       id="perspective6315" />
    <clipPath
       clipPathUnits="userSpaceOnUse"
       id="clipPath8648">
      <path
         style="fill:#ff0000;fill-opacity:1;fill-rule:evenodd;stroke:none;stroke-width:1px;stroke-linecap:butt;stroke-linejoin:miter;stroke-opacity:1"
         d="m 48.7971,144.54832 -4.54568,-1.2627 -4.04062,0.50508 -4.79822,3.40927 -5.93465,4.29314 -2.0203,2.90419 0.12627,2.65165 2.65165,2.14658 -1.01015,1.76776 -3.283,1.26269 -3.40926,8.08123 6.31345,9.34391 10.35406,-0.75762 46.21448,3.91434 25.50635,-7.19733 9.47018,-5.05077 0.12627,-10.10152 -2.65165,-1.13642 0.88389,-15.15229 10.35406,-6.9448 3.28299,-3.91434 6.566,-7.82868 0.50507,-4.54569 -4.54568,-1.89404 -2.14658,1.01016 -4.16688,1.13642 -5.93464,-2.90419 -2.77792,-1.76777 -5.80838,2.39911 -2.90419,3.03046 -3.40926,4.9245 -7.07107,0.3788 -8.96511,5.80838 -2.90418,2.14657 -3.66181,0.12627 -5.55584,-0.3788 -17.29886,2.65165 z"
         id="path8650"
         inkscape:connector-curvature="0" />
    </clipPath>
    <mask
       maskUnits="userSpaceOnUse"
       id="mask8666">
      <rect
         rx="1.7260212"
         ry="2.8714814"
         y="98.924339"
         x="22.885082"
         height="109.83415"
         width="100.10923"
         id="rect8668"
         style="opacity:1;fill:#ffffff;fill-opacity:1;stroke:none;stroke-width:2.01114893;stroke-linecap:round;stroke-linejoin:bevel;stroke-miterlimit:4;stroke-dasharray:none;stroke-dashoffset:0;stroke-opacity:1" />
    </mask>
    <clipPath
       clipPathUnits="userSpaceOnUse"
       id="clipPath9647">
      <path
         style="fill:#ff0000;fill-opacity:1;fill-rule:evenodd;stroke:none;stroke-width:1px;stroke-linecap:butt;stroke-linejoin:miter;stroke-opacity:1"
         d="m 24.29467,289.85466 12.14286,-9.28572 41.42857,-15.71428 40,-5 20,5 2.85715,7.14285 9.28571,6.42858 10,1.42857 -3.57143,13.57143 -15.71428,10 -27.85715,5.71428 -74.28571,1.42857 z"
         id="path9649"
         inkscape:connector-curvature="0" />
    </clipPath>
    <inkscape:path-effect
       pattern-nodetypes="sssss"
       fuse_tolerance="0"
       vertical_pattern="false"
       prop_units="false"
       tang_offset="0"
       normal_offset="0"
       spacing="0"
       scale_y_rel="false"
       prop_scale="1"
       copytype="single_stretched"
       pattern="M 0,5 C 0,2.24 2.24,0 5,0 7.76,0 7,0.24 7,3 7,5.76 7.76,5.75 5,5.75 2.24,5.75 0,7.76 0,5 Z"
       is_visible="true"
       id="path-effect20326"
       effect="skeletal" />
    <clipPath
       clipPathUnits="userSpaceOnUse"
       id="clipPath7877">
      <path
         style="fill:#ff0000;fill-opacity:1;fill-rule:evenodd;stroke:none;stroke-width:1px;stroke-linecap:butt;stroke-linejoin:miter;stroke-opacity:1"
         d="m 1349.8263,623.67274 -143.5316,10.50232 -77.0169,-21.00459 -119.0262,66.51457 -91.01997,38.50849 -189.04149,-14.00311 -31.50696,-80.51768 -52.51151,-94.52074 -49.01077,-77.01694 -45.51,-31.50692 -38.50846,31.50692 -21.00461,24.50538 -87.51923,56.0123 L 264.58784,578.16276 121.05631,581.6635 110.554,564.1597 96.550923,357.61431 103.55246,4.0366248 142.06092,-23.9695 l 304.56691,3.500741 59.51307,3.50079 171.53769,-10.502321 115.52538,0 38.50845,28.00617372 38.50844,3.50074108 224.04924,-28.0061248 101.5223,35.007656 91.02,87.519261 -3.5008,140.030723 3.5008,238.0523 7.0016,45.51003 3.5007,112.02459 z"
         id="path7879"
         inkscape:connector-curvature="0" />
    </clipPath>
    <filter
       style="color-interpolation-filters:sRGB"
       id="filter8486"
       inkscape:label="filter1" />
    <clipPath
       clipPathUnits="userSpaceOnUse"
       id="clipPath8513">
      <path
         style="fill:#ff0000;fill-opacity:1;fill-rule:evenodd;stroke:none;stroke-width:1px;stroke-linecap:butt;stroke-linejoin:miter;stroke-opacity:1"
         d="m 1037.9071,144.02626 13.0113,78.06757 -32.5282,52.04505 -117.10134,39.03376 -175.65205,19.5169 -149.62954,13.0113 -71.56195,-45.53943 -65.05628,-110.59572 143.12385,-84.57325 52.04505,-39.033754 6.50568,-39.033819 39.03375,-13.01123 78.06757,-13.01129406 221.19149,-6.50561504 z"
         id="path8515"
         inkscape:connector-curvature="0" />
    </clipPath>
    <clipPath
       clipPathUnits="userSpaceOnUse"
       id="clipPath8513-1">
      <path
         style="fill:#ff0000;fill-opacity:1;fill-rule:evenodd;stroke:none;stroke-width:1px;stroke-linecap:butt;stroke-linejoin:miter;stroke-opacity:1"
         d="m 1037.9071,144.02626 13.0113,78.06757 -32.5282,52.04505 -117.10134,39.03376 -175.65205,19.5169 -149.62954,13.0113 -71.56195,-45.53943 -65.05628,-110.59572 143.12385,-84.57325 52.04505,-39.033754 6.50568,-39.033819 39.03375,-13.01123 78.06757,-13.01129406 221.19149,-6.50561504 z"
         id="path8515-4"
         inkscape:connector-curvature="0" />
    </clipPath>
    <clipPath
       clipPathUnits="userSpaceOnUse"
       id="clipPath8565">
      <path
         style="fill:#ff0000;fill-opacity:1;fill-rule:evenodd;stroke:none;stroke-width:1px;stroke-linecap:butt;stroke-linejoin:miter;stroke-opacity:1"
         d="m 1037.9071,144.02626 13.0113,78.06757 -32.5282,52.04505 -117.10134,39.03376 -175.65205,19.5169 -149.62954,13.0113 -71.56195,-45.53943 -65.05628,-110.59572 143.12385,-84.57325 52.04505,-39.033754 6.50568,-39.033819 39.03375,-13.01123 78.06757,-13.01129406 221.19149,-6.50561504 z"
         id="path8567"
         inkscape:connector-curvature="0" />
    </clipPath>
    <clipPath
       clipPathUnits="userSpaceOnUse"
       id="clipPath8637">
      <rect
         style="opacity:1;fill:#ff0000;fill-opacity:1;stroke:none;stroke-width:8.10000038;stroke-linecap:round;stroke-linejoin:bevel;stroke-miterlimit:4;stroke-dasharray:none;stroke-dashoffset:0;stroke-opacity:1"
         id="rect8639"
         width="193.57143"
         height="132.14285"
         x="-219.99998"
         y="776.64789" />
    </clipPath>
    <clipPath
       clipPathUnits="userSpaceOnUse"
       id="clipPath8741">
      <path
         style="fill:#ff0000;fill-opacity:1;fill-rule:evenodd;stroke:none;stroke-width:1px;stroke-linecap:butt;stroke-linejoin:miter;stroke-opacity:1"
         d="m -26.77703,99.03193 15.71429,-5.71429 45.71428,12.85714 57.14286,17.14286 74.28571,27.14285 25.71429,21.42857 100,30 44.28571,32.85715 60,-8.57143 28.57143,17.14286 27.14286,8.57142 48.57143,-14.28571 102.85714,7.14286 -4.28571,-187.14286 -7.14286,-12.85714 -37.14286,5.71428 -22.85714,2.85715 -51.42857,0 -67.14286,0 -22.85714,-1.42858 -14.28572,8.57143 -92.85714,0 -72.85714,-4.28571 -51.42857,5.71428 -37.14286,-2.85714 -32.85714,-2.85714 -32.85715,0 -38.57142,-4.28572 -48.57143,5.71429 z"
         id="path8743"
         inkscape:connector-curvature="0"
         sodipodi:nodetypes="cccccccccccccccccccccccccccccc" />
    </clipPath>
    <clipPath
       clipPathUnits="userSpaceOnUse"
       id="clipPath20203">
      <rect
         style="opacity:1;fill:#ff0000;fill-opacity:1;stroke:none;stroke-width:8.10000038;stroke-linecap:round;stroke-linejoin:bevel;stroke-miterlimit:4;stroke-dasharray:none;stroke-dashoffset:0;stroke-opacity:1"
         id="rect20205"
         width="17069.842"
         height="17666.689"
         x="2366.7041"
         y="-21212.371"
         transform="scale(1,-1)" />
    </clipPath>
    <clipPath
       clipPathUnits="userSpaceOnUse"
       id="clipPath16200">
      <rect
         style="opacity:1;fill:#ff0000;fill-opacity:1;stroke:none;stroke-width:8.10000038;stroke-linecap:round;stroke-linejoin:bevel;stroke-miterlimit:4;stroke-dasharray:none;stroke-dashoffset:0;stroke-opacity:1"
         id="rect16202"
         width="104.38721"
         height="73.647415"
         x="14.41088"
         y="-11.355354" />
    </clipPath>
  </defs>
  <sodipodi:namedview
     id="base"
     pagecolor="#ffffff"
     bordercolor="#666666"
     borderopacity="1.0"
     inkscape:pageopacity="0.0"
     inkscape:pageshadow="2"
     inkscape:zoom="0.7"
     inkscape:cx="267.10368"
     inkscape:cy="139.69058"
     inkscape:document-units="px"
     inkscape:current-layer="layer1"
     showgrid="false"
     inkscape:window-width="1920"
     inkscape:window-height="1026"
     inkscape:window-x="-2"
     inkscape:window-y="31"
     inkscape:window-maximized="1" />
  <metadata
     id="metadata7">
    <rdf:RDF>
      <cc:Work
         rdf:about="">
        <dc:format>image/svg+xml</dc:format>
        <dc:type
           rdf:resource="http://purl.org/dc/dcmitype/StillImage" />
        <dc:title></dc:title>
      </cc:Work>
    </rdf:RDF>
  </metadata>
  <g
     inkscape:label="Layer 1"
     inkscape:groupmode="layer"
     id="layer1"
     transform="translate(0,-740.55118)">
    <text
       xml:space="preserve"
       style="font-style:normal;font-weight:normal;font-size:22.05662727px;line-height:125%;font-family:Sans;letter-spacing:0px;word-spacing:0px;fill:#000000;fill-opacity:1;stroke:none;stroke-width:1px;stroke-linecap:butt;stroke-linejoin:miter;stroke-opacity:1"
       x="164.71159"
       y="766.04486"
       id="text6305"
       sodipodi:linespacing="125%"><tspan
         sodipodi:role="line"
         id="tspan6307"
         x="164.71159"
         y="766.04486"
         style="font-style:normal;font-variant:normal;font-weight:normal;font-stretch:normal;font-size:15px;font-family:'Ubuntu Condensed';-inkscape-font-specification:'Ubuntu Condensed, '">• A D L</tspan></text>
    <text
       xml:space="preserve"
       style="font-style:normal;font-weight:normal;font-size:19.57834816px;line-height:125%;font-family:Sans;letter-spacing:0px;word-spacing:0px;fill:#000000;fill-opacity:1;stroke:none;stroke-width:1px;stroke-linecap:butt;stroke-linejoin:miter;stroke-opacity:1"
       x="14.324148"
       y="763.8302"
       id="text6317"
       sodipodi:linespacing="125%"><tspan
         sodipodi:role="line"
         id="tspan6319"
         x="14.324148"
         y="763.8302"
         style="font-style:normal;font-variant:normal;font-weight:500;font-stretch:normal;font-family:Orbitron;-inkscape-font-specification:'Orbitron Medium'">C</tspan></text>
    <text
       xml:space="preserve"
       style="font-style:normal;font-weight:normal;font-size:40px;line-height:125%;font-family:Sans;letter-spacing:0px;word-spacing:0px;fill:#000000;fill-opacity:1;stroke:none;stroke-width:1px;stroke-linecap:butt;stroke-linejoin:miter;stroke-opacity:1"
       x="60.285713"
       y="1023.7908"
       id="text8669"
       sodipodi:linespacing="125%"><tspan
         sodipodi:role="line"
         id="tspan8671"
         x="60.285713"
         y="1023.7908"
         style="font-style:normal;font-variant:normal;font-weight:500;font-stretch:normal;font-size:17.5px;font-family:Essays1743;-inkscape-font-specification:'Essays1743 Medium'">A police officer</tspan></text>
    <text
       sodipodi:linespacing="125%"
       id="text11126"
       y="763.77203"
       x="30.361305"
       style="font-style:normal;font-weight:normal;font-size:22.05662727px;line-height:125%;font-family:Sans;letter-spacing:0px;word-spacing:0px;fill:#000000;fill-opacity:1;stroke:none;stroke-width:1px;stroke-linecap:butt;stroke-linejoin:miter;stroke-opacity:1"
       xml:space="preserve"><tspan
         style="font-style:normal;font-variant:normal;font-weight:normal;font-stretch:normal;font-size:15px;font-family:'Ubuntu Condensed';-inkscape-font-specification:'Ubuntu Condensed, '"
         y="763.77203"
         x="30.361305"
         id="tspan11128"
         sodipodi:role="line">2</tspan></text>
    <g
       transform="matrix(0.5362166,0,0,0.5362166,-4.0593946,739.08092)"
       id="layer1-5">
      <path
         d="m 258.54,477.84 c -1.3364,-2.5083 -2.0629,-10.978 -3.1649,-36.898 -0.96699,-22.745 -1.3379,-25.437 -3.5036,-25.437 -3.1998,0 -3.9197,3.229 -4.6033,20.648 -0.37684,9.602 -0.96124,17.734 -1.2986,18.072 -1.3295,1.3295 -1.9445,-1.2019 -3.7292,-15.349 -1.9913,-15.785 -2.5379,-18.371 -3.8843,-18.371 -1.4465,0 -1.8216,2.8548 -2.5303,19.256 -0.63322,14.655 -1.3428,18.376 -2.9944,15.704 -0.3646,-0.58993 -1.0827,-7.6848 -1.5957,-15.766 -0.94614,-14.904 -1.4164,-17.99 -2.5659,-16.841 -0.35158,0.35158 -0.96044,12.375 -1.353,26.72 -0.45148,16.496 -1.113,26.48 -1.8001,27.167 -2.1909,2.1909 -3.1614,-4.4871 -3.2775,-22.555 -0.13543,-21.069 -0.9193,-30.875 -2.5099,-31.399 -1.8969,-0.62423 -2.309,2.0529 -3.8865,25.248 -0.83772,12.318 -1.8026,23.125 -2.1441,24.015 -1.6539,4.31 -2.3132,-2.8395 -2.3273,-25.24 -0.008,-13.305 -0.41432,-24.438 -0.902,-24.739 -0.48768,-0.30141 -1.4857,0.17375 -2.2178,1.0559 -0.97161,1.1707 -1.4905,7.3817 -1.9212,22.997 -0.37512,13.599 -0.9952,21.798 -1.7021,22.505 -2.1695,2.1695 -3.261,-6.4383 -3.2666,-25.761 -0.006,-18.995 -0.0219,-19.138 -2.2556,-19.736 -1.2375,-0.33164 -3.5301,-0.60913 -5.0947,-0.61664 l -2.8447,-0.0137 0.72741,19.5 c 0.65091,17.449 0.56047,19.5 -0.85995,19.5 -2.0781,0 -2.4778,-2.6751 -3.5632,-23.852 -0.68585,-13.381 -1.2407,-17.703 -2.4246,-18.887 -3.2604,-3.2604 -4.4062,-0.94463 -5.1503,10.409 -0.86223,13.155 -2.2817,25.102 -3.1493,26.506 -1.8411,2.979 -2.3921,-3.259 -1.7887,-20.248 0.45395,-12.78 0.31691,-19.212 -0.43949,-20.625 -1.1884,-2.2205 -4.826,-3.6569 -5.6961,-2.2492 -0.29459,0.47664 -0.88107,9.3334 -1.3033,19.682 -0.42224,10.348 -1.1128,19.373 -1.5345,20.056 -2.1689,3.5094 -2.7202,-1.234 -2.5022,-21.529 0.22962,-21.371 0.21214,-21.57 -2.0516,-23.403 -1.2558,-1.0168 -2.6863,-1.5997 -3.179,-1.2952 -0.49271,0.30451 -0.90273,11.215 -0.91115,24.245 -0.009,13.568 -0.42951,24.332 -0.98469,25.191 -0.53316,0.825 -1.0245,1.275 -1.0919,1 -0.0674,-0.275 -0.45071,-11.604 -0.85186,-25.176 -0.60949,-20.621 -1.0065,-25.099 -2.4159,-27.25 -3.7579,-5.7352 -4.597,-2.2436 -4.7587,19.801 -0.12493,17.028 -0.6564,21.719 -2.5312,22.342 -0.85112,0.28309 -1.0087,-4.3816 -0.607,-17.971 0.64332,-21.765 0.0333,-27.746 -2.8295,-27.746 -2.8796,0 -3.7269,3.2782 -4.8405,18.728 -1.1268,15.633 -1.888,20.272 -3.3264,20.272 -0.65759,0 -0.76297,-5.4229 -0.30606,-15.75 0.56414,-12.751 0.43059,-16.107 -0.70125,-17.627 -1.1634,-1.5616 -1.7625,-1.6816 -3.5689,-0.71482 -4.3204,2.3122 -4.9235,4.7813 -5.6405,23.091 -0.37692,9.625 -1.1004,17.928 -1.6078,18.45 -0.56825,0.58519 -0.9225,-0.4829 -0.9225,-2.7814 0,-2.5331 -0.52571,-3.9331 -1.637,-4.3596 -1.4311,-0.54917 -1.5532,-1.9236 -0.971,-10.929 0.71608,-11.076 0.17278,-15.38 -1.9414,-15.38 -2.0694,0 -2.3822,1.0945 -3.4744,12.157 -1.3555,13.729 -2.7462,20.35 -4.7906,22.806 -1.9453,2.3376 -3.2421,1.7568 -5.5002,-2.463 l -1.6053,-3 -0.04,3.45 c -0.0665,5.7307 -1.8995,2.1461 -2.2351,-4.371 -0.3865,-7.5056 -2.7994,-9.1442 -2.8159,-1.9123 -0.0166,7.2781 -1.076,12.333 -2.5846,12.333 -1.9192,0 -3.417,-3.3109 -4.0976,-9.0578 -0.32573,-2.7503 -0.95661,-5.2258 -1.402,-5.501 -0.82591,-0.51045 -3.9048,8.596 -3.9048,11.549 0,0.89505 -0.63544,2.4964 -1.4121,3.5585 -1.3689,1.872 -1.4475,1.8534 -2.5689,-0.60775 -0.90111,-1.9777 -0.81472,-4.4987 0.39087,-11.406 2.1572,-12.359 5.383,-16.709 17.613,-23.749 2.4873,-1.432 5.6373,-3.7003 7,-5.0408 1.3627,-1.3405 3.9637,-2.725 5.78,-3.0767 1.8164,-0.35172 6.5414,-2.7406 10.5,-5.3086 3.9586,-2.568 9.5386,-5.7094 12.4,-6.9808 6.174,-2.7435 6.6708,-3.9994 8.2602,-20.879 1.6957,-18.009 1.4401,-22.566 -1.4886,-26.535 -4.0234,-5.4535 -7.2838,-18.044 -10.466,-40.419 l -1.9848,-13.954 -4.4249,-4.546 c -2.4337,-2.5003 -5.071,-6.121 -5.8607,-8.046 -0.78967,-1.925 -3.528,-5.9475 -6.0853,-8.9388 -6.2707,-7.3352 -8.6604,-14.085 -9.9344,-28.061 -1.0873,-11.927 -0.49996,-19 1.5777,-19 0.70388,0 1.255,1.5589 1.3258,3.75 0.0666,2.0625 0.59087,9.2236 1.165,15.914 1.2157,14.166 2.6363,17.981 10.179,27.336 2.8825,3.575 6.1037,8.1875 7.1581,10.25 2.8376,5.5505 4.1331,4.7876 3.3958,-2 -0.3435,-3.1625 -0.83206,-6.875 -1.0857,-8.25 -0.3292,-1.7847 -0.2056,-2.0708 0.43199,-1 0.49122,0.825 2.1253,8.025 3.6312,16 7.5933,40.212 9.376,48.218 11.855,53.242 2.8578,5.7918 11.494,17.245 12.355,16.384 0.29904,-0.29903 -0.18763,-2.3715 -1.0815,-4.6054 -2.3369,-5.8406 -1.9925,-6.176 1.0483,-1.0212 4.2476,7.2004 7.897,11.609 22.28,26.915 17.457,18.577 19.515,20.083 27.446,20.091 3.355,0.003 7.2958,0.63008 8.7573,1.3926 1.7721,0.92457 2.9906,1.0532 3.6576,0.3862 0.55015,-0.55015 6.0574,-1.3745 12.238,-1.8319 11.222,-0.83045 11.244,-0.83704 15.205,-4.6424 2.1818,-2.0959 8.6532,-9.9982 14.381,-17.561 5.7277,-7.5625 11.077,-13.75 11.887,-13.75 2.0788,0 1.8603,0.99467 -1.3294,6.0542 -4.5603,7.2334 -4.6608,7.5883 -1.2586,4.4458 4.5689,-4.2202 14.664,-17.781 17.707,-23.788 1.8112,-3.5742 3.7089,-11.351 6.4988,-26.63 4.6507,-25.472 6.9302,-34.815 10.287,-42.164 1.3611,-2.9799 2.7874,-7.4431 3.1696,-9.9181 0.69169,-4.4795 0.68551,-4.4917 -1.3567,-2.6822 -1.1284,0.99978 -4.0372,5.7248 -6.4641,10.5 -3.4951,6.8771 -4.7913,10.917 -6.2345,19.432 -1.0021,5.9125 -2.1343,10.75 -2.5159,10.75 -0.98637,0 -5.0298,-18.143 -5.0298,-22.569 0,-2.4137 1.4388,-6.3936 4.1524,-11.487 4.9033,-9.2026 7.9154,-12.704 11.627,-13.516 1.4962,-0.32731 3.2828,-0.76841 3.9703,-0.98021 1.8086,-0.55718 1.6025,-13.003 -0.35814,-21.623 -0.92219,-4.0546 -1.3487,-8.6929 -0.99988,-10.874 0.33454,-2.0921 0.12464,-7.2808 -0.46643,-11.53 -0.99907,-7.183 -0.92872,-7.9241 0.99988,-10.533 2.6889,-3.6369 2.6332,-6.5177 -0.15479,-8.0097 -1.2262,-0.65622 -2.8333,-1.797 -3.5714,-2.5352 -0.73814,-0.73813 -2.5699,-1.3421 -4.0706,-1.3421 -1.5007,0 -3.1633,-0.43473 -3.6946,-0.96607 -0.62144,-0.62144 -3.9927,0.12743 -9.45,2.0992 -25.504,9.2145 -43.903,13.245 -65.984,14.453 -13.172,0.72081 -25.106,-0.41658 -43,-4.0983 -21.794,-4.484 -24.447,-5.2454 -33.57,-9.6321 -4.9114,-2.3616 -10.167,-4.8715 -11.68,-5.5776 l -2.75,-1.2838 0,4.0029 c 0,3.3568 0.32786,4.0029 2.0314,4.0029 1.1173,0 2.2751,0.7875 2.573,1.75 0.29789,0.9625 1.1228,3.1 1.8332,4.75 0.94211,2.1883 1.0102,3.6764 0.25149,5.5 -0.57205,1.375 -1.2986,9.25 -1.6146,17.5 -0.55896,14.595 -0.6353,15.009 -2.8245,15.32 -1.2537,0.17805 -2.299,1.0637 -2.3607,2 -0.43229,6.5628 2.3628,12.503 10.923,23.214 5.0854,6.3628 6.1831,8.4602 7.0655,13.5 1.6581,9.4704 2.5566,30.08 1.3439,30.83 -1.1269,0.69647 -1.5618,-1.4099 -3.2723,-15.848 -1.1723,-9.8958 -3.3083,-15.654 -8.0074,-21.587 -1.7049,-2.1526 -3.6033,-5.6044 -4.2187,-7.6705 -0.92065,-3.0912 -1.1847,-3.3581 -1.4908,-1.5066 -1.0064,6.0879 -13.659,-2.4408 -14.892,-10.038 -0.7515,-4.6309 0.23169,-9.5999 2.4766,-12.517 l 1.7738,-2.3047 2.6122,2.0547 c 1.4367,1.1301 2.9298,2.0547 3.318,2.0547 1.2985,0 -0.66557,-9.2693 -3.1586,-14.906 -4.4003,-9.9498 -8.3658,-12.239 -13.799,-7.9649 -1.5744,1.2384 -3.0772,1.7577 -3.5932,1.2416 -2.1004,-2.1004 4.1012,-6.3703 9.2522,-6.3703 3.1413,0 3.7775,-0.34518 3.7775,-2.0497 0,-1.1273 -0.71162,-3.4258 -1.5814,-5.1077 -1.605,-3.1038 -1.5528,-3.7331 0.99574,-12.003 l 1.4363,-4.6608 -4.4253,-6.2845 c -2.4339,-3.4565 -4.4253,-7.0359 -4.4253,-7.9544 0,-2.9377 -3.7348,-6.5436 -8.1467,-7.8654 -2.3554,-0.7057 -6.7243,-2.5861 -9.7087,-4.1786 -2.9844,-1.5926 -6.2322,-2.8956 -7.2173,-2.8956 -0.98513,0 -2.8079,-1.4625 -4.0505,-3.25 -1.2427,-1.7875 -4.6522,-5.8673 -7.5767,-9.0663 -7.1696,-7.8424 -8.6305,-10.893 -8.06,-16.831 0.55681,-5.7948 4.2396,-11.527 9.9468,-15.482 4.3493,-3.0141 18.25,-20.951 21.899,-28.258 1.234,-2.4709 2.4502,-6.6418 2.7026,-9.2687 0.34813,-3.6231 1.0326,-5.1521 2.8349,-6.333 1.409,-0.92321 2.376,-2.5337 2.376,-3.957 0,-5.9363 8.9587,-11.792 28.141,-18.395 6.4026,-2.2038 13.378,-4.8887 15.5,-5.9665 2.1224,-1.0778 9.6804,-4.324 16.796,-7.2139 7.1152,-2.8899 19.259,-8.3417 26.985,-12.115 7.7266,-3.7734 15.505,-7.134 17.285,-7.468 4.2825,-0.8034 15.349,2.602 21.793,6.7061 9.2895,5.9164 38.066,14.188 53.348,15.335 12.476,0.93632 17.543,2.318 22.565,6.1526 5.6536,4.3168 17.607,18.042 22.431,25.756 10.337,16.529 24.64,33.331 31.243,36.699 2.0465,1.044 6.0142,4.132 8.817,6.8621 6.183,6.0224 6.4966,8.6862 2.0129,17.098 -6.157,11.552 -23.246,28.701 -33.417,33.533 -6.9021,3.2795 -16.459,11.236 -18.682,15.553 -1.8448,3.5829 -1.843,3.6037 0.818,9.5 2.07,4.5866 2.6538,7.4082 2.6084,12.606 l -0.0584,6.697 4.0424,0.30295 c 3.0191,0.22626 4.4511,0.93578 5.657,2.803 l 1.6146,2.5 -2.7148,-1.75 c -4.0829,-2.6319 -5.268,-2.2087 -9.2202,3.2924 -3.8687,5.3849 -6.2989,7.0061 -7.5261,5.0205 -0.80158,-1.297 -1.508,3.0257 -2.6451,16.187 -0.36829,4.2625 -0.44329,7.75 -0.16666,7.75 0.27663,0 2.5862,-3.5854 5.1324,-7.9675 4.6616,-8.0228 15.897,-21.084 17.108,-19.889 0.35854,0.35371 0.7375,9.3537 0.84213,20 l 0.1902,19.357 -3.6386,6 c -2.0012,3.3 -5.0893,8.925 -6.8623,12.5 -4.5662,9.207 -5.4507,10 -11.154,10 -2.6648,0 -4.845,0.28839 -4.845,0.64087 0,2.5934 -6.6281,35.605 -9.0544,45.096 -3.2264,12.621 -3.6688,22.538 -2.1083,47.263 l 0.6627,10.5 5.2048,1.6672 c 2.8626,0.91698 8.0755,3.7157 11.584,6.2195 3.5087,2.5037 10.616,6.1679 15.795,8.1425 5.1787,1.9747 11.455,4.8974 13.948,6.4949 5.8361,3.7404 18.269,9.4634 23.721,10.919 7.1184,1.9006 7.772,3.824 7.5996,22.364 -0.13912,14.961 -0.94001,19.448 -3.0856,17.288 -0.4217,-0.42451 -0.7667,-6.7692 -0.7667,-14.099 0,-7.33 -0.31809,-13.646 -0.70687,-14.035 -2.8863,-2.8895 -4.7667,4.0699 -4.7844,17.708 -0.01,7.5244 -0.61462,9.8318 -2.5771,9.8318 -1.7999,0 -3.0952,-5.5357 -3.8546,-16.473 -0.66608,-9.5943 -1.645,-11.888 -4.0471,-9.4842 -0.95763,0.95853 -1.6882,4.7664 -2.1349,11.128 -1.0793,15.369 -3.3493,16.034 -6.0065,1.7579 -0.8629,-4.6358 -1.9616,-8.8395 -2.4416,-9.3416 -1.4019,-1.4664 -2.947,3.9931 -2.947,10.413 0,6.7929 -1.3144,11 -3.4367,11 -1.6054,0 -2.9734,-4.2646 -4.0098,-12.5 -0.34608,-2.75 -0.92168,-6.35 -1.2791,-8 l -0.64986,-3 -0.69395,3 c -0.38167,1.65 -0.74719,5.1082 -0.81227,7.6849 -0.15948,6.3151 -1.661,10.049 -3.8712,9.6271 -1.5312,-0.29235 -1.8089,-2.021 -2.2471,-13.992 -0.275,-7.5122 -0.8375,-13.995 -1.25,-14.406 -1.4817,-1.4764 -2.2169,0.84362 -2.8508,8.9966 -0.73167,9.4097 -2.4511,15.589 -4.3374,15.589 -1.5978,0 -2.5413,-7.272 -2.553,-19.679 -0.007,-7.0022 -0.3813,-9.5512 -1.5801,-10.75 -3.5651,-3.5651 -4.1284,-2.0996 -4.681,12.179 -0.5045,13.035 -1.1444,17.269 -2.6046,17.235 -2.5717,-0.0612 -3.3883,-2.4933 -4.1868,-12.469 -0.47338,-5.9143 -1.1072,-11 -1.4085,-11.301 -1.3425,-1.3425 -1.9123,1.5594 -2.4605,12.532 -0.54418,10.892 -0.73402,11.754 -2.5873,11.754 -1.2595,0 -2.6051,-1.2115 -3.6345,-3.2722 -2.1414,-4.2871 -2.8655,-2.4436 -2.8655,7.295 0,4.0476 -0.41684,7.6168 -0.92631,7.9317 -1.1707,0.72356 -2.5846,-6.8475 -3.9152,-20.965 -0.57076,-6.056 -1.3247,-11.759 -1.6755,-12.673 -0.687,-1.7903 -3.1861,-3.118 -4.4262,-2.3516 -0.41947,0.25924 -1.0697,6.6732 -1.445,14.253 -0.74613,15.072 -1.4182,20.282 -2.6162,20.282 -1.5126,0 -2.1436,-3.6312 -3.0121,-17.333 -0.87016,-13.728 -2.0642,-17.986 -4.3912,-15.659 -0.72323,0.72331 -1.0924,8.4819 -1.0924,22.959 0,12.027 -0.30104,22.168 -0.66898,22.536 -0.36794,0.36801 -1.1091,-0.15694 -1.647,-1.1665 z m 97.955,-51.422 c -2.5843,-2.0951 -4.1392,-2.4504 -4.1392,-0.94586 0,1.138 5.2685,4.0864 6,3.3578 0.275,-0.27391 -0.56235,-1.3593 -1.8608,-2.4119 z m -60.139,-4.3549 c 0,-1.5926 -1.8144,-3.078 -2.6901,-2.2023 -0.82264,0.82264 0.46152,3.6433 1.6587,3.6433 0.56726,0 1.0314,-0.64844 1.0314,-1.441 z m 49,-0.45203 c 0,-1.1091 -3.0764,-2.3639 -3.8642,-1.5762 -0.31785,0.31786 0.0841,0.99656 0.89313,1.5082 1.8699,1.1825 2.971,1.2077 2.971,0.0679 z m -134.51,-9.815 c -0.009,-7.1829 -1.6983,-10.05 -4.0465,-6.8682 -3.646,4.9396 -2.4248,13.997 1.8062,13.396 2.0565,-0.29208 2.2477,-0.84922 2.2403,-6.5274 z m 52.508,5.3992 c 0,-0.71988 -0.66069,-2.1824 -1.4682,-3.25 -1.4136,-1.869 -1.4694,-1.8451 -1.5,0.6422 -0.0175,1.4208 0.2682,2.8833 0.63487,3.25 1.0968,1.0968 2.3333,0.75645 2.3333,-0.6422 z m -62,-4.2569 c 0,-3.3892 -6.0563,-11.434 -8.6076,-11.434 -2.133,0 -2.7552,5.7972 -0.92244,8.5944 2.5737,3.928 9.5301,6.0009 9.5301,2.8398 z m 19.393,-0.0161 c 0.33385,-0.86993 0.60699,-3.3449 0.60699,-5.5 0,-3.1645 -0.36069,-3.9182 -1.875,-3.9182 -2.1421,0 -3.2772,3.8608 -2.4255,8.25 0.58304,3.0047 2.7284,3.6832 3.6935,1.1682 z m 9.607,-1.5015 c 0,-2.437 -2.3368,-2.0926 -2.8233,0.4162 -0.19138,0.98676 0.31876,1.6671 1.25,1.6671 0.92763,0 1.5733,-0.855 1.5733,-2.0833 z m 45,-0.89762 c 0,-1.1089 -4.7951,-2.5573 -5.6467,-1.7057 -0.30446,0.30446 -0.25694,1.0335 0.10559,1.6201 0.82758,1.339 5.5411,1.4118 5.5411,0.0856 z m -88.173,-3.4537 c 0.41145,-3.5007 -1.6274,-8.5654 -3.4481,-8.5654 -1.772,0 -1.9114,9.0673 -0.16618,10.812 1.796,1.796 3.245,0.89506 3.6143,-2.2471 z m -10.827,-6.0003 c 0,-6.5291 -0.81359,-8.8492 -4.8927,-13.953 l -3.1073,-3.8875 0,9.183 c 0,8.4165 0.20488,9.3878 2.4546,11.638 4.0726,4.0726 5.5454,3.2811 5.5454,-2.9804 z m 96.806,-1.826 c 0.37693,-4.4363 -1.5518,-12.014 -2.8531,-11.21 -1.0571,0.65334 -1.3112,11.375 -0.33012,13.932 1.0311,2.687 2.8562,1.1266 3.1832,-2.7214 z m 26.531,2.0874 c 1.7422,-2.7619 0.0245,-4.9877 -3.5808,-4.6403 -4.1159,0.39665 -5.086,3.8736 -1.5537,5.5686 2.7596,1.3242 3.8364,1.1295 5.1345,-0.92832 z m -135.36,-11.27 c -0.0157,-7.4974 -1.4845,-11.839 -4.1812,-12.358 -3.5556,-0.68475 -3.5908,17.167 -0.0415,21.089 1.5858,1.7523 1.7302,1.7565 2.9524,0.085 0.76349,-1.0441 1.2791,-4.6224 1.2703,-8.8163 z m 118.15,5.0306 c 0.88811,-3.3208 -0.51956,-7.5895 -2.5028,-7.5895 -1.5795,0 -2.7759,2.3283 -2.1839,4.25 0.2118,0.6875 0.66428,2.5195 1.0055,4.071 0.75519,3.4339 2.6688,3.0537 3.6811,-0.73152 z m -129.51,-7.71 c -0.62909,-6.7687 -2.9852,-12.872 -4.9688,-12.872 -0.51291,0 -0.71028,3.4998 -0.45048,7.9877 0.33843,5.8462 0.95064,8.5272 2.2835,10 3.1828,3.5169 3.8387,2.447 3.1358,-5.1153 z m 159.26,-110.42 c 4.3096,-2.852 11.032,-11.426 14.855,-18.948 2.4204,-4.7615 2.507,-5.5118 1.8876,-16.358 -0.77148,-13.508 -1.5592,-15.713 -4.1826,-11.709 -1.7137,2.6154 -1.7211,3.1728 -0.15088,11.318 l 1.6516,8.5672 -2.6042,4.7848 c -2.7991,5.1428 -6.942,9.6206 -7.9596,8.6029 -0.34399,-0.34399 0.49049,-2.5583 1.8544,-4.9206 3.4945,-6.0526 4.0443,-9.1864 2.3311,-13.287 -0.80626,-1.9296 -1.8511,-3.5084 -2.3218,-3.5084 -0.47074,0 -1.3379,3.8907 -1.9271,8.6461 -1.0064,8.1232 -1.2889,8.8338 -4.6709,11.75 -4.0656,3.5056 -5.6482,7.0087 -5.6482,12.502 0,5.9371 1.1401,6.3608 6.8851,2.5589 z m -195.33,-74.234 c -0.83458,-0.83458 -2.5556,0.92852 -2.5244,2.5862 0.0279,1.4846 0.2097,1.4558 1.4897,-0.23602 0.80183,-1.0598 1.2674,-2.1174 1.0347,-2.3501 z m 116.46,1.3457 c 12.682,-1.6918 28.113,-5.7277 42.873,-11.214 9.8582,-3.664 23.498,-10.298 22.737,-11.059 -0.2345,-0.23451 -4.7514,1.4145 -10.038,3.6644 -22.298,9.4907 -66.425,19.34 -72.377,16.154 -1.1594,-0.6205 -5.49,-1.7753 -9.6236,-2.5661 -10.863,-2.0785 -14.661,-4.5614 -9.1094,-5.9549 3.5326,-0.88662 5.1668,-4.7712 7.4524,-17.715 1.1032,-6.2474 2.4693,-11.513 3.0358,-11.702 0.56649,-0.18883 1.03,-0.98083 1.03,-1.76 0,-1.0632 -1.4821,-1.4167 -5.941,-1.4167 -6.1401,0 -8.0606,1.0883 -6.0966,3.4548 1.4073,1.6957 0.7095,2.124 -4.9625,3.046 -6.1214,0.99505 -8,2.1485 -8,4.912 0,1.2883 -0.675,2.9026 -1.5,3.5873 -0.825,0.68469 -1.5,2.0686 -1.5,3.0754 0,2.2032 -5.273,3.9107 -12.102,3.919 -3.3203,0.004 -5.5485,-0.68361 -8,-2.4689 -5.942,-4.3272 -6.8294,-4.456 -19.481,-2.8267 -12.856,1.6556 -16.882,2.7392 -15.926,4.2862 0.95195,1.5403 11.264,4.2275 13.5,3.5179 1.7174,-0.54507 11.909,1.6457 42.764,9.1921 6.0359,1.4762 14.245,6.2658 14.245,8.3112 0,2.6926 -20.665,-0.26562 -39.5,-5.6543 -6.6,-1.8883 -17.118,-5.89 -23.373,-8.8926 -6.2551,-3.0026 -11.543,-5.4593 -11.75,-5.4593 -0.20738,0 -0.37705,0.65201 -0.37705,1.4489 0,3.1448 30.745,14.622 53.5,19.971 10.233,2.4057 12.255,2.5546 29,2.1356 9.9,-0.24771 23.184,-1.1419 29.52,-1.9871 z m -111.06,-14.974 c 0.0231,-0.49774 -0.85808,-0.0905 -1.9581,0.90499 -1.10002,0.99549 -1.9811,2.9777 -1.9581,4.405 0.0403,2.4924 0.11764,2.4567 1.9581,-0.90499 1.0539,-1.925 1.935,-3.9072 1.9581,-4.405 z m 101.05,3.4024 c 2.5923,-1.3874 3.6416,-9.0086 1.9472,-14.143 -1.6735,-5.0709 -0.41881,-8.8644 3.5632,-10.773 1.6328,-0.78258 3.567,-2.0211 4.2982,-2.7523 0.73121,-0.7312 3.1873,-1.3295 5.458,-1.3295 3.2524,0 3.8692,-0.25934 2.9066,-1.222 -1.5721,-1.5721 -27.025,-2.3169 -29.178,-0.85384 -1.2819,0.8712 -1.1728,1.2499 0.75,2.6043 2.007,1.4138 2.2463,2.4156 2.2161,9.2782 -0.0243,5.5013 -0.58445,8.833 -1.9661,11.693 -1.0627,2.2 -1.9474,4.577 -1.9661,5.2822 -0.0699,2.6426 8.2839,4.1884 11.971,2.2152 z m 41.995,-1.906 c 4.9179,-1.4857 5.5311,-1.9753 5.794,-4.6264 0.16173,-1.6307 -0.29829,-3.7744 -1.0223,-4.7637 -1.1815,-1.6146 -1.7236,-1.6658 -5.2941,-0.5 -3.0135,0.98395 -4.4245,2.2133 -5.8208,5.0713 -1.0137,2.0748 -3.1512,4.4489 -4.75,5.2757 -1.5988,0.82677 -2.9069,1.7562 -2.9069,2.0654 0,0.79355 7.4919,-0.55619 14,-2.5222 z m -148,-8.141 c 0,-3.4687 -2.3334,-8.552 -4.229,-9.2127 -4.0883,-1.425 -5.2432,5.1211 -1.6985,9.6275 2.937,3.7337 5.9274,3.5245 5.9274,-0.4148 z m 194.28,-1.7051 c 0.87341,-0.9651 1.9078,-4.1655 2.2987,-7.1121 0.70201,-5.292 0.68386,-5.343 -1.4865,-4.1814 -4.0687,2.1775 -7.5896,10.216 -5.4235,12.382 1.156,1.156 2.9673,0.72859 4.6114,-1.0881 z m -177.91,-7.0395 c 0.8042,-1.3012 -3.0549,-8.9668 -5.0378,-10.007 -2.0448,-1.0726 -6.335,0.12536 -6.335,1.7689 0,0.56772 1.3327,1.0322 2.9615,1.0322 2.6088,0 3.0897,0.47626 4.0385,4 0.98467,3.6568 3.1245,5.2255 4.3728,3.2057 z m 168.63,-4.2057 c 0,-2.9825 0.40278,-4 1.5833,-4 4.2286,0 -2.728,-5.3171 -8.0833,-6.1784 -1.6645,-0.26768 -2.1525,0.46766 -2.9093,4.384 -0.9857,5.1009 -0.0417,7.2555 3.8746,8.8429 4.4387,1.7992 5.5347,1.1955 5.5347,-3.0485 z m -155,-0.0332 c 0,-1.7242 -4.7372,-10.504 -6.422,-11.902 -1.307,-1.0847 -1.5762,-1.0739 -1.5672,0.0628 0.0126,1.5967 2.6348,10.49 3.511,11.908 0.79918,1.2931 4.4782,1.2368 4.4782,-0.0685 z m 5.5805,-6.4842 c -0.98,-1.4957 -1.5803,-3.9854 -1.3987,-5.8013 0.26547,-2.6545 -0.0544,-3.2341 -1.9318,-3.5007 -1.2375,-0.17575 -2.2451,-0.17575 -2.2392,0 0.0389,1.1474 3.0675,10.097 4.0177,11.873 0.81205,1.5173 1.4714,1.8467 2.2127,1.1054 0.74136,-0.74135 0.54446,-1.8368 -0.66078,-3.6762 z m 134.42,3.6341 c 0,-0.48585 -0.95845,-1.134 -2.1299,-1.4403 -1.5772,-0.41245 -1.9444,-1.0266 -1.4149,-2.3666 0.39322,-0.99532 0.95298,-3.2256 1.2439,-4.9561 0.43281,-2.5745 0.14633,-3.2679 -1.5761,-3.8146 -3.1132,-0.98808 -3.8608,-0.081 -4.6475,5.6391 -0.59937,4.358 -0.42595,5.385 1.0974,6.4989 2.0292,1.4838 7.427,1.8033 7.427,0.43963 z m -11.927,-3.8083 c 1.4631,-3.8483 0.79863,-10.808 -1.0319,-10.808 -0.84677,0 -1.7414,1.381 -2.1321,3.291 -0.37019,1.81 -1.4011,4.0954 -2.291,5.0787 -2.1456,2.3709 -2.045,3.0231 0.63208,4.0991 3.3915,1.3632 3.7157,1.2516 4.8229,-1.6605 z m 47.993,1.6565 c 2.8338,-1.5166 2.5162,-5.7426 -0.53613,-7.1333 -1.889,-0.86067 -2.8304,-0.8268 -4,0.14388 -1.8273,1.5165 -2.0028,5.1513 -0.32961,6.8246 1.4692,1.4692 2.3714,1.4997 4.8657,0.16482 z m -136.57,-4.9648 c 5.5,-0.5619 11.912,-1.2693 14.25,-1.5721 l 4.25,-0.55046 0.0153,-4.6887 c 0.0203,-6.2235 0.84483,-7.2398 6.0712,-7.4832 4.4007,-0.20496 4.4144,-0.19493 4.7182,3.4494 0.23431,2.8106 -0.18694,3.9993 -1.8234,5.1456 -1.1705,0.81984 -1.7576,1.7143 -1.3047,1.9876 1.2042,0.72679 37.992,3.9891 39.461,3.4993 1.2903,-0.43009 -9.5536,-2.8964 -21.463,-4.8815 -8.8024,-1.4672 -9.4698,-2.9849 -3.6022,-8.1919 l 4.424,-3.926 -14.498,0.67945 c -23.919,1.121 -39.52,2.4002 -42.338,3.4715 -1.9879,0.75581 -2.6655,1.7124 -2.6819,3.7861 -0.0121,1.5261 -0.90173,4.7133 -1.977,7.0826 l -1.955,4.3078 4.227,-0.54701 c 2.3249,-0.30085 8.727,-1.0067 14.227,-1.5686 z m -27.103,-12.903 c 11.365,-3.6247 29.84,-6.5963 52.845,-8.4998 17.957,-1.4858 21.832,-2.2738 18.192,-3.6991 -5.5867,-2.1878 -36.672,0.21488 -53.418,4.1288 -12.434,2.9061 -27.742,7.9386 -29.091,9.5636 -1.8187,2.1914 1.1151,1.8094 11.471,-1.4935 z m 103.85,2.2411 c -0.6875,-0.27741 -1.8125,-0.27741 -2.5,0 -0.6875,0.27741 -0.125,0.50439 1.25,0.50439 1.375,0 1.9375,-0.22698 1.25,-0.50439 z m -168.74,-2.34 c -0.33809,-0.54704 -1.6022,-1.5125 -2.809,-2.1455 -2.1791,-1.1429 -2.1811,-1.136 -0.28932,0.99462 1.9085,2.1495 4.2539,3.0207 3.0983,1.1509 z m 159.68,0.31151 c -0.72188,-0.28887 -1.5844,-0.25335 -1.9167,0.0789 -0.33229,0.3323 0.25834,0.56864 1.3125,0.52522 1.165,-0.048 1.4019,-0.28494 0.60417,-0.60416 z m -139.61,-3.4053 c 2.7506,-3.0394 3.4325,-16.586 0.88412,-17.564 -2.4346,-0.93423 -4.0744,1.6565 -4.8767,7.7043 -0.68893,5.1934 0.0849,11.948 1.3688,11.948 0.40355,0 1.5842,-0.9398 2.6238,-2.0884 z m 126.15,1.3955 c -0.97297,-0.25354 -2.323,-0.23687 -3,0.037 -0.67703,0.27393 0.11903,0.48137 1.769,0.46099 1.65,-0.0204 2.2039,-0.2445 1.231,-0.49804 z m 98.601,-2.8765 c 0.9362,-1.9632 1.2413,-3.2847 0.6781,-2.9366 -1.4558,0.89976 -4.2312,6.5061 -3.2207,6.5061 0.46225,0 1.6064,-1.6063 2.5426,-3.5695 z m -253.59,-13.18 c 0.30358,-6.5892 0.22679,-13.276 -0.17065,-14.86 -0.693,-2.7611 -0.78079,-2.7996 -2.1411,-0.93925 -1.0543,1.4418 -1.4185,5.3141 -1.4185,15.082 0,7.2282 0.3075,13.45 0.68333,13.826 1.6832,1.6832 2.5341,-1.9779 3.047,-13.109 z m -9.8112,5.3251 c 1.4856,-8.1553 1.3982,-13.566 -0.21909,-13.566 -2.7243,0 -3.6998,2.5008 -3.6864,9.45 0.0248,12.774 1.9572,14.811 3.9054,4.1163 z m -9.0243,-1.0327 c 0.91262,-4.885 0.0175,-6.5357 -2.4386,-4.4973 -0.89783,0.74513 -1.4562,3.0149 -1.4562,5.9194 0,8.1584 2.2591,7.3335 3.8948,-1.4221 z m 237.11,5.9664 c -0.68469,-0.825 -1.9773,-1.4857 -2.8724,-1.4682 -1.3673,0.0267 -1.3172,0.26656 0.31357,1.5 2.5265,1.911 4.1544,1.8908 2.5589,-0.0318 z m -130.87,-2.8843 c 18.244,-4.0723 28.355,-4.9445 48.368,-4.172 21.421,0.82687 23.672,0.78375 24.934,-0.47746 0.62175,-0.62175 -0.41518,-0.96631 -2.908,-0.96631 l -3.8743,0 2.3008,-2.4491 c 3.1162,-3.317 2.0662,-5.2756 -3.256,-6.0737 -4.2906,-0.64341 -20.802,0.85208 -22.758,2.0613 -1.9361,1.1966 0.21304,2.3376 5.828,3.0943 4.7926,0.64583 2.2858,0.9694 -15.266,1.9704 -14.223,0.81121 -23.868,1.8797 -29.887,3.311 -8.9172,2.1205 -17.613,5.3971 -17.613,6.6366 0,0.36477 0.62197,0.42454 1.3822,0.13283 0.76019,-0.29171 6.4977,-1.6722 12.75,-3.0679 z m -12.958,-1.5422 c 9.7049,-3.8769 18.156,-5.7504 31.94,-7.0803 15.415,-1.4874 16.363,-1.7131 14.852,-3.5344 -0.86192,-1.0385 -3.3482,-1.4588 -8.6304,-1.4588 -14.6,0 -39.551,6.984 -47.835,13.39 -1.9846,1.5346 -1.9833,1.5467 0.17444,1.5783 1.196,0.0175 5.471,-1.2851 9.5,-2.8946 z m -35.154,-1.1118 c 1.4006,-2.617 0.86105,-10.181 -0.7643,-10.715 -1.862,-0.61227 -3.3432,4.357 -2.6293,8.8213 0.69865,4.3691 1.7538,4.958 3.3936,1.8941 z m 166.98,-1.9618 c -2.6386,-2.064 -6,-2.652 -6,-1.0497 0,1.4121 3.1543,2.9877 6,2.997 l 2.5,0.008 -2.5,-1.9554 z m -129.95,-5.195 c 13.106,-4.881 17.432,-7.805 11.548,-7.805 -2.118,0 -28.323,12.936 -26.298,12.982 0.4406,0.01 7.0781,-2.3196 14.75,-5.1768 z m -26.252,-1.3695 c 0.33685,-3.435 -1.2606,-8.4356 -2.6947,-8.4356 -1.3922,0 -2.3652,5.5351 -1.592,9.0557 0.8934,4.0676 3.8692,3.6371 4.2867,-0.62012 z m 214.73,-2.734 c 0.60604,-2.3108 1.4279,-5.1772 1.8263,-6.3696 0.54667,-1.6362 -0.0472,-3.0468 -2.4206,-5.75 -1.7297,-1.9701 -3.6034,-3.5819 -4.1637,-3.5819 -1.5273,0 -0.47482,17.451 1.1721,19.435 1.6882,2.0342 2.2179,1.4826 3.5859,-3.7336 z m -9.08,-4.1651 c 0.73034,-5.8454 -0.25257,-17.536 -1.4744,-17.536 -0.42011,0 -1.0301,0.69378 -1.3555,1.5417 -1.1573,3.0159 -2.7821,19.686 -2.1603,22.163 0.59721,2.3795 0.73487,2.4267 2.477,0.85007 1.1202,-1.0138 2.1072,-3.7702 2.513,-7.0186 z m -89.452,6.4635 c 0,-0.55 -0.9,-1 -2,-1 -1.1,0 -2,0.45 -2,1 0,0.55 0.9,1 2,1 1.1,0 2,-0.45 2,-1 z m -157.14,-14.29 c 0.58618,-6.4687 0.72009,-12.696 0.29758,-13.838 -2.5067,-6.7764 -5.4353,12.103 -3.6864,23.765 1.0486,6.9926 2.1473,3.7742 3.3889,-9.9268 z m 50.139,7.2613 c 0,-5.3668 -1.5698,-7.3089 -3.6302,-4.4911 -1.3205,1.8059 -1.0019,5.2192 0.81868,8.7691 1.4992,2.9234 2.8115,0.92658 2.8115,-4.278 z m 215.51,4.991 c 0.92948,-1.5039 -0.44407,-4.991 -1.9659,-4.991 -1.3712,0 -2.5396,2.108 -2.5396,4.5818 0,1.6157 3.56,1.9391 4.5055,0.40926 z m -201.01,-1.991 c 0.33992,-0.55 -0.057,-1 -0.88197,-1 -0.825,0 -1.7781,0.45 -2.118,1 -0.33992,0.55 0.057,1 0.88197,1 0.825,0 1.7781,-0.45 2.118,-1 z m 55.105,-2.25 c 2.6158,-2.0472 3.8021,-2.2273 13.159,-1.9985 10.218,0.24986 10.29,0.23509 11.26,-2.3151 1.4216,-3.7389 1.2078,-5.1424 -0.86555,-5.6846 -1.5332,-0.40093 -1.9506,-1.8851 -2.494,-8.8666 -0.85149,-10.94 -0.83549,-18.824 0.0467,-23.01 0.6753,-3.2041 0.77427,-3.0458 1.9544,3.125 l 1.2431,6.5 -0.31987,-7.2354 c -0.17593,-3.9795 -0.77187,-7.8045 -1.3243,-8.5 -0.55245,-0.69553 -1.2382,-4.3273 -1.5239,-8.0706 -0.81523,-10.681 -2.966,-10.38 -4.1111,0.57498 -0.6448,6.1691 -2.3368,9.1859 -5.7616,10.273 -2.6101,0.82841 -2.3284,2.9274 0.57018,4.2481 2.8548,1.3007 5.0562,4.7864 3.5938,5.6902 -1.181,0.72989 -6.4983,-1.8987 -10.359,-5.1209 -1.5547,-1.2976 -3.419,-2.3593 -4.143,-2.3593 -1.5331,0 -2.8108,-2.737 -1.9374,-4.1502 0.35078,-0.56758 2.79,-0.696 5.882,-0.30968 10.17,1.2707 12.848,-3.4767 4.8294,-8.5621 -5.7206,-3.6279 -6.6186,-3.6733 -8.7362,-0.44148 -1.4324,2.1861 -2.1445,2.446 -5.155,1.8812 -2.603,-0.48833 -3.9876,-0.20768 -5.4343,1.1015 -1.5873,1.4365 -2.2181,1.527 -3.46,0.49635 -0.83532,-0.69325 -1.5188,-1.8538 -1.5188,-2.579 0,-2.6678 -2.2422,-2.5793 -5.1705,0.20419 -4.3455,4.1306 -6.2658,8.1286 -4.7698,9.9311 1.7417,2.0986 7.2754,1.7391 10.34,-0.6718 2.5532,-2.0084 8.8169,-3.0165 10.193,-1.6405 1.3669,1.3669 -0.58738,3.5801 -3.7753,4.2756 -1.8247,0.39806 -4.4953,1.7111 -5.9347,2.9179 -6.2033,5.2008 -12.66,5.7801 -11.468,1.0289 0.36727,-1.4633 -0.003,-3.7187 -0.89393,-5.441 -0.83667,-1.6179 -1.5212,-4.4719 -1.5212,-6.3421 0,-4.335 -1.7486,-9.3884 -3.4782,-10.052 -1.5581,-0.59788 -2.1543,7.548 -2.9658,40.52 l -0.50867,20.667 11.273,-0.55519 c 9.1934,-0.45277 11.818,-0.26031 14.226,1.0434 4.0131,2.172 5.6884,2.0663 9.0588,-0.57138 z m -12.58,-6.22 c -0.67261,-0.81044 -2.7783,-1.7653 -4.6793,-2.122 -2.0556,-0.38564 -4.0963,-1.625 -5.0353,-3.0582 -1.7732,-2.7063 -2.9414,-14.684 -1.8545,-19.015 0.68178,-2.7164 0.76668,-2.7519 2.1286,-0.88936 0.78018,1.067 1.4185,3.6318 1.4185,5.6996 0,5.3525 1.9991,13.977 3.0843,13.306 1.2957,-0.80076 1.1411,-16.158 -0.18759,-18.641 -1.7574,-3.2837 0.50911,-3.9215 12.775,-3.5951 10.712,0.28508 14.127,1.0585 11.592,2.6254 -0.72466,0.44786 -1.2915,4.1839 -1.471,9.6956 -0.2337,7.1742 -0.592,8.967 -1.7921,8.967 -1.1482,0 -1.6456,-1.7911 -2.1209,-7.6366 -0.70169,-8.6305 -1.1939,-9.8634 -3.9381,-9.8634 -2.1257,0 -2.1764,0.26016 -1.9433,9.9586 0.19351,8.0498 1.0175,9.6098 5.6548,10.706 2.0315,0.48045 3.8612,1.3762 4.066,1.9905 0.9955,2.9865 -15.338,4.7132 -17.697,1.8708 z m 4.1261,-4.2765 c 0.27221,-3.2173 -0.23877,-14.717 -0.77801,-17.509 -0.29304,-1.5173 -0.94618,-2.5032 -1.4514,-2.191 -1.0433,0.6448 -1.275,19.76 -0.25196,20.783 1.1972,1.1972 2.3303,0.70256 2.4814,-1.0833 z m -21.472,0.875 c -0.98241,-4.9012 -0.68033,-28.506 0.31121,-24.318 1.3311,5.6221 2.1158,21.533 1.2178,24.693 l -0.85247,3 -0.67651,-3.375 z m 39.355,-2.8086 c 0.0175,-0.99903 0.6925,-2.6899 1.5,-3.7576 0.80751,-1.0676 1.4743,-3.7676 1.4818,-6 0.0168,-4.9769 0.91201,-8.5589 2.1392,-8.5589 0.51614,0 0.79401,4.2776 0.63337,9.75 l -0.28621,9.75 -2.75,0.31642 c -2.1154,0.2434 -2.7427,-0.10276 -2.7182,-1.5 z m -70.85,9.1836 c 0.85763,-1.8823 0.84879,-3.1371 -0.0358,-5.0786 -1.5395,-3.3789 -3.5632,-2.6132 -3.9666,1.5008 -0.59345,6.0523 1.8712,8.2554 4.0024,3.5778 z m 180.8,-9.75 c 0.0145,-9.2119 -1.016,-12.494 -2.3544,-7.5 -0.79019,2.9486 -0.77553,14.606 0.0221,17.585 1.2216,4.5623 2.3167,-0.17292 2.3323,-10.085 z m -8.2371,-5.3504 c -0.52825,-15.992 -1.626,-21.32 -3.4648,-16.817 -1.3737,3.3645 -0.92058,26.591 0.58854,30.167 2.8014,6.6394 3.4388,3.6809 2.8762,-13.35 z m -162.97,0.93102 c 0.15284,-7.1531 -0.13831,-14.091 -0.64701,-15.418 l -0.92491,-2.4125 -1.1947,3 c -2.1382,5.3691 -3.1166,15.479 -2.0542,21.226 1.1517,6.2301 1.7798,7.5283 3.3846,6.9953 0.77904,-0.2587 1.2494,-4.6435 1.4362,-13.39 z m 8.567,-2.4589 c -0.0853,-6.0584 -0.42284,-11.283 -0.75,-11.61 -1.4235,-1.4235 -2.1176,1.5209 -2.4428,10.362 -0.40085,10.898 0.30651,15.322 2.1533,13.465 0.80178,-0.80614 1.1436,-4.8235 1.0395,-12.216 z m -67.38,10.194 c 1.4978,-2.7986 1.2596,-13.112 -0.37523,-16.245 -1.1986,-2.2974 -1.1977,-2.7566 0.006,-3.2186 1.0527,-0.40399 1.4042,-2.6595 1.4042,-9.0112 0,-9.2356 -1.2911,-11.817 -2.934,-5.8671 -1.2334,4.4669 -2.6376,32.345 -1.7462,34.668 0.83181,2.1677 2.3851,2.0291 3.645,-0.32521 z m 212.63,-20.566 c 0.67483,-13.399 -0.65574,-23.596 -2.6648,-20.422 -1.0652,1.6829 -1.2126,24.429 -0.22319,34.422 0.6715,6.7818 0.71711,6.8753 1.4632,3 0.42354,-2.2 1.0647,-9.85 1.4248,-17 z m -50.476,16.75 c 2.1397,-5.4976 -0.12585,-18.25 -3.2423,-18.25 -1.0131,0 -1.2136,19.331 -0.21089,20.333 1.2969,1.2969 2.3955,0.63411 3.4532,-2.0833 z m 18.618,0.0595 c -0.92977,-0.92976 -2.0257,-1.3553 -2.4353,-0.94563 -0.40967,0.40967 -0.0829,1.1635 0.72619,1.6752 2.4346,1.5397 3.5165,1.0778 1.7091,-0.72954 z m -29.35,-13.888 c -0.0665,-7.9733 -0.59414,-14.054 -1.3804,-15.907 l -1.2728,-3 -0.96533,3.5 c -1.1139,4.0386 -0.66002,25.862 0.5782,27.803 0.45717,0.71653 1.3525,1.1248 1.9896,0.90723 0.80521,-0.27496 1.1256,-4.3305 1.0508,-13.303 z m 51.601,-23.852 c -1.3429,-8.6995 -4.6584,-16.7 -6.0251,-14.539 -0.51579,0.81572 -0.94469,9.9351 -0.95311,20.265 -0.0162,19.895 0.41681,22.309 5.2079,29.026 l 2.2768,3.192 0.28275,-15.5 c 0.15551,-8.525 -0.19965,-18.625 -0.78925,-22.445 z m -32.599,31.03 c -0.33473,-0.87227 -1.0104,-1.5859 -1.5016,-1.5859 -1.0495,0 -1.2105,4.3492 -0.1984,5.3613 1.0451,1.0451 2.3974,-1.9579 1.7,-3.7753 z m -122.59,-2.335 c -0.34908,-5.4402 -2.1465,-6.402 -2.6252,-1.4048 -0.37263,3.8898 0.30592,6.1548 1.8439,6.1548 0.6719,0 0.96992,-1.8117 0.78138,-4.75 z m -37.168,-3 c 1.1231,-7.0252 0.7602,-23.305 -0.59625,-26.75 -1.1219,-2.8494 -1.238,-2.8996 -2.3139,-1 -1.3039,2.3022 -1.654,29.291 -0.40543,31.25 1.5029,2.3577 2.557,1.245 3.3156,-3.5 z m 9.3632,-0.30902 c 0,-2.0863 -1.4712,-2.6057 -2.5296,-0.8931 -0.90709,1.4677 0.30138,4.2112 1.5225,3.4565 0.55388,-0.34232 1.0071,-1.4958 1.0071,-2.5634 z m 170.39,-3.5228 c 0.86438,-2.2525 0.75042,-4.4182 -0.23249,-4.4182 -1.1126,0 -3.1946,4.6326 -2.427,5.4002 1.0304,1.0304 2.0287,0.66171 2.6594,-0.98202 z m -170.66,-14.668 c -0.57668,-9.4229 -1.2973,-12.75 -2.7614,-12.75 -1.3346,0 -1.5695,3.0897 -0.76035,10 1.0699,9.1368 1.7905,12 3.0204,12 0.72049,0 0.88346,-3.0067 0.50137,-9.25 z m 8.6653,5.6682 c 1.851,-4.8236 -0.0296,-23.418 -2.3684,-23.418 -2.5349,0 -3.2728,3.3367 -2.6023,11.767 0.38205,4.8034 0.94211,9.746 1.2446,10.983 0.63432,2.5952 2.8352,2.9899 3.7261,0.66821 z m 154.09,-23.091 c -0.66179,-8.2673 -2.2316,-12.221 -4.3358,-10.921 -1.4673,0.90685 -1.5186,21.289 -0.0694,27.579 0.56839,2.4669 1.7949,5.3292 2.7256,6.3607 1.6062,1.7802 1.7084,1.4508 2.013,-6.4852 0.17648,-4.5984 0.0265,-12.038 -0.33334,-16.534 z m -9.5114,9.9228 c -0.0261,-13.941 -0.93402,-19.673 -3.5072,-22.141 -1.5687,-1.5043 -1.6501,-0.56562 -1.2476,14.391 0.41101,15.273 1.3834,20.5 3.8138,20.5 0.57056,0 0.95507,-5.2102 0.94096,-12.75 z m 17.531,4.6674 c 0.7591,-8.5754 -0.1619,-24.586 -1.4605,-25.388 -0.42584,-0.26318 -1.0567,1.8726 -1.4018,4.7463 -1.2769,10.63 -0.40324,28.725 1.3868,28.725 0.418,0 1.082,-3.6372 1.4755,-8.0826 z m -151.87,-7.661 c -0.57418,-6.4942 -1.9491,-10.256 -3.7489,-10.256 -1.0168,0 -0.51332,12.049 0.75206,17.999 0.52234,2.456 0.55725,2.4646 2.0402,0.5 1.1324,-1.5003 1.371,-3.5562 0.95664,-8.2433 z m 102.35,-5.506 c -0.0166,-16.517 -1.5096,-23.548 -2.1246,-10.005 -0.51153,11.264 0.17685,25.255 1.2426,25.255 0.49356,0 0.89049,-6.8625 0.88207,-15.25 z m 22.002,0 c -0.0158,-12.995 -0.56643,-15.979 -2.8656,-15.531 -1.3828,0.26973 -1.6207,2.0163 -1.6207,11.898 0,11.229 0.88943,14.883 3.6224,14.883 0.48266,0 0.87142,-5.0625 0.86391,-11.25 z m -115.42,0.62778 c 0.93092,-6.2078 -0.0964,-9.5873 -2.7945,-9.1927 -1.9802,0.28961 -2.1342,0.83732 -1.9166,6.8149 0.13015,3.575 0.49703,7.3716 0.81529,8.4369 0.55651,1.8629 0.62959,1.8673 1.9109,0.11498 0.73274,-1.0021 1.6259,-3.7804 1.9849,-6.1741 z m 103.92,-0.36537 c 1.5002,-1.6577 1.6906,-3.0224 1.1471,-8.2222 -0.70811,-6.7749 -2.9389,-10.507 -4.6567,-7.7902 -1.0503,1.661 -1.3284,13.926 -0.37216,16.418 0.80195,2.0898 1.7091,1.995 3.8818,-0.4058 z m -30,-23.823 c -0.37729,-2.5937 -1.085,-4.1572 -1.7772,-3.9265 -3.3903,1.1301 -3.4448,23.158 -0.0666,26.898 1.8243,2.02 1.8628,1.8722 2.1641,-8.3026 0.16867,-5.6976 0.0246,-12.299 -0.32026,-14.669 z m -65.11,21.56 c 1.5415,-5.752 0.38997,-10.75 -2.4767,-10.75 -2.0855,0 -2.2516,1.1045 -1.2571,8.3604 0.67672,4.9372 2.7034,6.2343 3.7338,2.3896 z m 19.554,-3.703 c 1.5496,-0.95772 2.401,-11.175 1.1912,-14.297 -1.1598,-2.9928 -4.1103,-3.6657 -6.0142,-1.3716 -0.7634,0.91984 -0.8391,2.1801 -0.22758,3.7886 0.504,1.3256 1.2602,5.9929 1.6804,10.372 0.62661,6.5293 0.90773,7.4371 1.5627,5.0466 0.43926,-1.6031 1.2526,-3.1953 1.8074,-3.5382 z m 9.5212,-0.297 c -0.28827,-3.4375 -0.75668,-8.9644 -1.0409,-12.282 -0.70801,-8.264 -2.3685,-10.673 -2.3902,-3.468 -0.0219,7.2744 2.0679,22 3.1222,22 0.45822,0 0.59727,-2.8125 0.30899,-6.25 z m 17.405,4.5 c 0.54253,-1.0308 0.58284,-5.2431 0.0981,-10.25 -0.45261,-4.675 -0.85124,-11.482 -0.88585,-15.128 -0.0445,-4.6923 -0.5133,-7.0013 -1.6053,-7.9076 -0.90801,-0.75358 -1.8785,-0.90677 -2.3597,-0.37244 -0.77875,0.86482 0.47764,31.543 1.3989,34.158 0.62997,1.7881 2.279,1.5423 3.3538,-0.5 z m -36.458,-1.8318 c 0.33385,-0.86998 0.60699,-4.695 0.60699,-8.5 0,-7.4549 -1.0932,-8.6826 -4.4392,-4.9854 -1.8052,1.9947 -1.6812,4.4859 0.58825,11.817 1.0946,3.5359 2.2912,4.1512 3.244,1.6682 z m 44.982,-1.6682 c 0.33443,-1.2375 0.86473,-7.2 1.1784,-13.25 0.61175,-11.797 -0.32395,-15.64 -3.9802,-16.344 -1.7852,-0.34379 -1.8433,0.26561 -1.1925,12.491 0.75637,14.208 1.4513,19.353 2.6141,19.353 0.42464,0 1.0457,-1.0125 1.3801,-2.25 z m -18.38,-12.941 c 0.0144,-11.006 -1.0082,-15.582 -2.3574,-10.548 -0.8294,3.0946 -0.78393,23.249 0.0543,24.087 1.5845,1.5845 2.2886,-2.5553 2.303,-13.539 z m 39.813,1.441 c 0.27127,-5.6949 0.11898,-6.25 -1.7148,-6.25 -2.6952,0 -4.0829,2.8893 -4.0829,8.5007 0,4.4633 0.10024,4.6206 2.75,4.3157 2.6355,-0.30325 2.7624,-0.57663 3.0477,-6.5664 z m 143.6,432.5 c -0.97599,-4.1902 -0.7049,-30.181 0.36244,-34.75 1.7959,-7.6874 2.7436,-2.9798 3.0199,15 0.28513,18.557 -0.0478,23 -1.7239,23 -0.49582,0 -1.2421,-1.4625 -1.6585,-3.25 z m -310.46,-23.17 c -1.301,-5.8136 -0.84247,-8.5858 1.4202,-8.5858 2.2371,0 3.6073,8.3367 2.041,12.418 -1.1089,2.8898 -2.2362,1.6417 -3.4612,-3.8324 z m 144.73,-67.252 c -0.97708,-0.97707 -0.81374,-4.3333 0.21089,-4.3333 0.48265,0 1.4214,0.65529 2.0861,1.4562 1.7763,2.1403 -0.35908,4.815 -2.297,2.8771 z m -18.144,-21.261 c -0.36175,-1.1398 -0.39452,-2.9016 -0.0728,-3.9152 0.35286,-1.1118 -0.30455,-2.9736 -1.6571,-4.6931 -2.0783,-2.6421 -2.0978,-2.788 -0.26751,-1.9975 1.086,0.46904 6.6995,1.0423 12.474,1.2738 8.1114,0.32525 12.547,-0.0405 19.5,-1.6078 9.2956,-2.0954 12.152,-1.6414 9.0687,1.4416 -1.2037,1.2037 -1.622,3.0163 -1.4271,6.1847 l 0.27561,4.4819 -11.959,-0.32726 c -18.108,-0.49554 -21.809,-0.42693 -23.618,0.43795 -1.2083,0.57747 -1.8385,0.22958 -2.3174,-1.2791 z m 7.977,-24.072 c -1.2449,-0.53494 2.9083,-0.8413 11,-0.8114 8.0266,0.0297 11.852,0.34007 10,0.8114 -4.1286,1.0506 -18.555,1.0506 -21,0 z m -43.5,-2.9057 c 0,-1.0136 0.62881,-3.6251 1.3974,-5.8034 0.76854,-2.1783 1.9096,-7.2621 2.5357,-11.297 1.3806,-8.898 6.507,-19.195 13.02,-26.154 5.2826,-5.6436 9.7732,-7.0281 9.2108,-2.8396 -0.18463,1.375 -0.40963,5.2578 -0.5,8.6285 l -0.16431,6.1285 -2.8759,-2.4199 c -1.5817,-1.3309 -3.3731,-2.2542 -3.9807,-2.0516 -1.4177,0.47256 -4.4891,13.567 -4.8589,20.714 l -0.28451,5.5 4.8277,0.30796 c 2.6851,0.17129 5.4546,-0.21232 6.2403,-0.86437 1.9503,-1.6186 13.965,-2.5085 14.836,-1.0988 0.39626,0.64115 -0.27374,1.2904 -1.6132,1.5632 -1.26,0.25661 -3.4984,0.72085 -4.9742,1.0316 -3.4657,0.72982 -4.4815,3.8968 -2.3118,7.2081 l 1.6707,2.5498 -3.3377,-0.73518 c -1.8358,-0.40435 -5.9889,-1.0487 -9.2291,-1.4319 -3.7075,-0.43842 -6.3432,-1.3146 -7.1102,-2.3635 -1.6703,-2.2843 -3.2294,-2.0896 -4.0532,0.50606 l -0.68966,2.1729 -1.3212,-2.4229 -1.3212,-2.4229 -1.1264,3.1698 c -1.2959,3.6468 -3.9866,5.2832 -3.9866,2.4245 z m 71.537,-0.0343 c -0.34038,-0.55075 0.54413,-1.2933 1.9656,-1.65 3.0473,-0.76483 2.8422,-2.0634 -0.74968,-4.7451 -1.8825,-1.4055 -4.8231,-2.0984 -10.437,-2.4592 -10.272,-0.66023 -6.925,-2.0402 5.184,-2.1375 10.907,-0.0876 26.5,2.541 26.5,4.4676 0,2.2625 -5.3015,5.242 -10.52,5.9124 -2.7391,0.35188 -6.4076,0.85879 -8.1522,1.1265 -1.7446,0.26768 -3.4505,0.0361 -3.7909,-0.51467 z m 30.127,-12.994 c -2.9099,-10.852 -3.1881,-13.066 -1.6419,-13.066 1.5861,0 6.6897,8.6498 7.4291,12.591 0.65792,3.507 -0.91009,10.409 -2.3647,10.409 -0.41718,0 -1.9573,-4.4704 -3.4224,-9.9343 z m -49.664,-11.02 c -1.375,-0.43054 -4.7045,-1.9669 -7.3989,-3.414 -2.6944,-1.4472 -5.7615,-2.6312 -6.8157,-2.6312 -5.6128,0 -7.6486,-4.733 -3.2698,-7.6022 2.401,-1.5732 2.6856,-1.5313 6.25,0.92106 4.8226,3.318 8.5384,4.6811 12.761,4.6811 4.0151,0 6.5476,-2.3407 10.142,-9.3737 l 2.4908,-4.8737 1.4759,2.8737 c 0.81173,1.5805 2.576,3.9044 3.9205,5.1642 2.7421,2.5692 3.1448,4.2095 1.0335,4.2095 -1.887,0 -6.5889,5.6872 -6.5889,7.9697 0,0.99895 -0.7118,2.0894 -1.5818,2.4233 -2.1348,0.81919 -9.3354,0.61757 -12.418,-0.34772 z m 26.75,-12.125 c -1.1809,-0.68779 -1.75,-2.2552 -1.75,-4.8196 0,-4.7397 -5.8793,-13.795 -6.9588,-10.718 -0.5405,1.5409 -0.81193,1.5988 -1.817,0.38782 -2.7657,-3.3325 -4.2154,-9.2834 -4.8544,-19.927 -1.0596,-17.65 -0.88147,-21.984 1.0825,-26.343 l 1.8023,-4 1.3572,5.2698 c 1.4344,5.5693 3.4481,10.01 6.5225,14.385 2.5627,3.6461 2.3424,4.8456 -0.88994,4.8456 l -2.7555,0 0.66847,8.75 c 0.36766,4.8125 0.70765,8.8339 0.75555,8.9365 0.0479,0.10257 3.2371,3.8436 7.0871,8.3135 7.5241,8.7355 8.9323,12.895 5.0657,14.965 -2.3633,1.2648 -3.0774,1.2588 -5.3157,-0.0449 z m -12.088,-25.17 c -0.27741,-0.6875 -0.50439,-0.125 -0.50439,1.25 0,1.375 0.22698,1.9375 0.50439,1.25 0.27741,-0.6875 0.27741,-1.8125 0,-2.5 z m -32.137,13.3 c -1.9153,-3.7037 -1.929,-5.0497 -0.0514,-5.0497 1.416,0 4.5257,4.7757 4.5257,6.9503 0,2.2013 -3.0155,0.92029 -4.4743,-1.9007 z m 0.47432,-37.915 c 0,-1.0258 0.91658,-3.0304 2.0368,-4.4546 1.6775,-2.1326 1.8261,-2.9269 0.84217,-4.5024 -1.5216,-2.4365 -0.4147,-5.4277 1.8473,-4.9921 2.1706,0.41802 3.7598,4.7411 2.9415,8.0017 -0.68758,2.7395 -4.9862,7.8125 -6.62,7.8125 -0.57626,0 -1.0478,-0.83931 -1.0478,-1.8651 z m 64.667,1.1985 c -2.1314,-2.1314 1.1227,-6.3333 4.9048,-6.3333 1.6939,0 2.4286,0.55814 2.4286,1.845 0,3.3225 -5.2723,6.5494 -7.3333,4.4883 z m -99.305,-2.8333 c -0.85773,-2.2352 0.3359,-4.503 2.357,-4.478 0.97976,0.0121 3.8064,0.98169 6.2814,2.1547 l 4.5,2.1327 -4,0.78769 c -6.1112,1.2034 -8.5075,1.0469 -9.1384,-0.59705 z m -12.778,-8.1431 c -0.94492,-2.4624 -0.12917,-2.6174 1.911,-0.363 1.5346,1.6957 1.576,2.0061 0.26753,2.0061 -0.8514,0 -1.8317,-0.73941 -2.1785,-1.6431 z m 7.9166,-0.94926 c 6.4927,-5.4549 12.493,-7.7371 21.5,-8.1779 l 8.5,-0.41598 3.3092,4.3431 c 2.5413,3.3353 2.9582,4.4161 1.7966,4.6575 -0.83197,0.1729 -2.8838,-0.69932 -4.5595,-1.9383 l -3.0468,-2.2526 -2.0387,2.1883 c -2.512,2.6963 -11.362,3.1907 -12.322,0.68826 -0.82528,-2.1506 -2.7637,-1.8586 -6.6384,1 -1.9251,1.4203 -4.7082,2.4845 -6.4443,2.464 l -3.0557,-0.036 3,-2.5205 z m 77.5,0.58668 c 1.375,-1.0787 3.3095,-2.231 4.2988,-2.5606 1.1436,-0.38106 1.69,-1.3888 1.5,-2.7665 -0.25042,-1.8161 0.26554,-2.2207 3.1852,-2.4979 5.2623,-0.49966 18.951,1.7401 23.893,3.9094 2.4074,1.0568 5.7074,1.9214 7.3333,1.9214 1.9179,0 2.8116,0.43906 2.5446,1.25 -0.69156,2.0999 -4.3502,1.9798 -9.6921,-0.31827 l -5.0858,-2.1879 -3.7923,2.6281 c -4.6153,3.1984 -6.8414,3.2993 -9.8769,0.44761 l -2.321,-2.1805 -3.8796,2.1805 c -2.1338,1.1992 -5.3933,2.1704 -7.2434,2.1582 l -3.3638,-0.0222 2.5,-1.9612 z m -123.5,-3.9943 c -1.5808,-1.65 -2.6492,-3 -2.3742,-3 0.275,0 1.7934,1.35 3.3742,3 1.5808,1.65 2.6492,3 2.3742,3 -0.275,0 -1.7934,-1.35 -3.3742,-3 z m 28.509,-1.75 c 0.005,-0.4125 1.3481,-3.0842 2.9844,-5.9372 6.3023,-10.989 17.654,-15.028 27.624,-9.8283 1.5853,0.82675 4.2323,1.5076 5.8823,1.5131 1.65,0.005 4.368,0.84414 6.04,1.8638 1.9681,1.2002 4.1803,1.6865 6.274,1.3792 2.3695,-0.34777 4.2967,0.22868 7.21,2.1566 3.6941,2.4446 5.1484,4.6028 3.1018,4.6028 -0.48085,0 -2.8434,-0.73842 -5.25,-1.6409 -5.2345,-1.963 -20.435,-2.2732 -26.376,-0.53834 -2.2,0.64246 -7.6819,1.1706 -12.182,1.1737 -7.947,0.005 -8.2432,0.0917 -10.318,3.0056 -1.9369,2.7202 -5.0139,4.1074 -4.9906,2.25 z m 13.491,-11.25 c 0.33992,-0.55 -0.057,-1 -0.88197,-1 -0.825,0 -1.7781,0.45 -2.118,1 -0.33992,0.55 0.057,1 0.88197,1 0.825,0 1.7781,-0.45 2.118,-1 z m 62.577,5.4111 c -3.1731,-2.67 -3.6968,-5.2612 -2.1043,-10.411 0.70041,-2.265 0.84545,-2.0918 1.543,1.8428 0.42344,2.3885 1.8307,5.6035 3.1272,7.1444 4.0026,4.7568 2.4312,5.6288 -2.5659,1.424 z m 13.98,1.7035 c -1.9664,-1.3236 0.16886,-6.1146 2.7252,-6.1146 1.0037,0 6.4159,-1.5461 12.027,-3.4357 5.6112,-1.8896 13.558,-3.9996 17.659,-4.6887 6.4208,-1.0789 7.7055,-1.0452 9.2444,0.24236 0.98301,0.82246 3.0248,2.0227 4.5373,2.6673 1.5125,0.64456 2.75,1.8566 2.75,2.6934 0,0.83679 0.76288,1.5214 1.6953,1.5214 0.93241,0 3.0056,1.2375 4.6071,2.75 l 2.9118,2.75 -0.68557,-6.08 c -0.62136,-5.5106 -0.458,-6.3535 1.7443,-9 1.3364,-1.606 2.9626,-3.9325 3.6136,-5.17 0.65106,-1.2375 1.8429,-2.25 2.6486,-2.25 2.0083,0 1.834,3.2397 -0.59023,10.975 -1.1161,3.561 -1.8978,7.611 -1.7371,9 l 0.29215,2.5255 -18.5,-0.33535 c -10.175,-0.18444 -22.1,0.13627 -26.5,0.7127 -4.4,0.57642 -10.025,1.3092 -12.5,1.6284 -2.475,0.31918 -5.1494,0.1432 -5.9431,-0.39109 z"
         id="path3114"
         inkscape:connector-curvature="0" />
    </g>
  </g>
</svg>
