<?xml version="1.0" encoding="UTF-8" standalone="no"?>
<!-- Created with Inkscape (http://www.inkscape.org/) -->

<svg
   xmlns:dc="http://purl.org/dc/elements/1.1/"
   xmlns:cc="http://creativecommons.org/ns#"
   xmlns:rdf="http://www.w3.org/1999/02/22-rdf-syntax-ns#"
   xmlns:svg="http://www.w3.org/2000/svg"
   xmlns="http://www.w3.org/2000/svg"
   xmlns:sodipodi="http://sodipodi.sourceforge.net/DTD/sodipodi-0.dtd"
   xmlns:inkscape="http://www.inkscape.org/namespaces/inkscape"
   width="62mm"
   height="88mm"
   viewBox="0 0 219.68504 311.81102"
   id="svg2"
   version="1.1"
   inkscape:version="0.91 r13725"
   sodipodi:docname="a_rats.svg">
  <defs
     id="defs4">
    <inkscape:perspective
       sodipodi:type="inkscape:persp3d"
       inkscape:vp_x="0 : 155.90551 : 1"
       inkscape:vp_y="0 : 1000 : 0"
       inkscape:vp_z="219.68504 : 155.90551 : 1"
       inkscape:persp3d-origin="109.84252 : 103.93701 : 1"
       id="perspective6315" />
    <clipPath
       clipPathUnits="userSpaceOnUse"
       id="clipPath8648">
      <path
         style="fill:#ff0000;fill-opacity:1;fill-rule:evenodd;stroke:none;stroke-width:1px;stroke-linecap:butt;stroke-linejoin:miter;stroke-opacity:1"
         d="m 48.7971,144.54832 -4.54568,-1.2627 -4.04062,0.50508 -4.79822,3.40927 -5.93465,4.29314 -2.0203,2.90419 0.12627,2.65165 2.65165,2.14658 -1.01015,1.76776 -3.283,1.26269 -3.40926,8.08123 6.31345,9.34391 10.35406,-0.75762 46.21448,3.91434 25.50635,-7.19733 9.47018,-5.05077 0.12627,-10.10152 -2.65165,-1.13642 0.88389,-15.15229 10.35406,-6.9448 3.28299,-3.91434 6.566,-7.82868 0.50507,-4.54569 -4.54568,-1.89404 -2.14658,1.01016 -4.16688,1.13642 -5.93464,-2.90419 -2.77792,-1.76777 -5.80838,2.39911 -2.90419,3.03046 -3.40926,4.9245 -7.07107,0.3788 -8.96511,5.80838 -2.90418,2.14657 -3.66181,0.12627 -5.55584,-0.3788 -17.29886,2.65165 z"
         id="path8650"
         inkscape:connector-curvature="0" />
    </clipPath>
    <mask
       maskUnits="userSpaceOnUse"
       id="mask8666">
      <rect
         rx="1.7260212"
         ry="2.8714814"
         y="98.924339"
         x="22.885082"
         height="109.83415"
         width="100.10923"
         id="rect8668"
         style="opacity:1;fill:#ffffff;fill-opacity:1;stroke:none;stroke-width:2.01114893;stroke-linecap:round;stroke-linejoin:bevel;stroke-miterlimit:4;stroke-dasharray:none;stroke-dashoffset:0;stroke-opacity:1" />
    </mask>
    <clipPath
       clipPathUnits="userSpaceOnUse"
       id="clipPath9647">
      <path
         style="fill:#ff0000;fill-opacity:1;fill-rule:evenodd;stroke:none;stroke-width:1px;stroke-linecap:butt;stroke-linejoin:miter;stroke-opacity:1"
         d="m 24.29467,289.85466 12.14286,-9.28572 41.42857,-15.71428 40,-5 20,5 2.85715,7.14285 9.28571,6.42858 10,1.42857 -3.57143,13.57143 -15.71428,10 -27.85715,5.71428 -74.28571,1.42857 z"
         id="path9649"
         inkscape:connector-curvature="0" />
    </clipPath>
    <inkscape:path-effect
       pattern-nodetypes="sssss"
       fuse_tolerance="0"
       vertical_pattern="false"
       prop_units="false"
       tang_offset="0"
       normal_offset="0"
       spacing="0"
       scale_y_rel="false"
       prop_scale="1"
       copytype="single_stretched"
       pattern="M 0,5 C 0,2.24 2.24,0 5,0 7.76,0 7,0.24 7,3 7,5.76 7.76,5.75 5,5.75 2.24,5.75 0,7.76 0,5 Z"
       is_visible="true"
       id="path-effect20326"
       effect="skeletal" />
    <clipPath
       clipPathUnits="userSpaceOnUse"
       id="clipPath7877">
      <path
         style="fill:#ff0000;fill-opacity:1;fill-rule:evenodd;stroke:none;stroke-width:1px;stroke-linecap:butt;stroke-linejoin:miter;stroke-opacity:1"
         d="m 1349.8263,623.67274 -143.5316,10.50232 -77.0169,-21.00459 -119.0262,66.51457 -91.01997,38.50849 -189.04149,-14.00311 -31.50696,-80.51768 -52.51151,-94.52074 -49.01077,-77.01694 -45.51,-31.50692 -38.50846,31.50692 -21.00461,24.50538 -87.51923,56.0123 L 264.58784,578.16276 121.05631,581.6635 110.554,564.1597 96.550923,357.61431 103.55246,4.0366248 142.06092,-23.9695 l 304.56691,3.500741 59.51307,3.50079 171.53769,-10.502321 115.52538,0 38.50845,28.00617372 38.50844,3.50074108 224.04924,-28.0061248 101.5223,35.007656 91.02,87.519261 -3.5008,140.030723 3.5008,238.0523 7.0016,45.51003 3.5007,112.02459 z"
         id="path7879"
         inkscape:connector-curvature="0" />
    </clipPath>
    <filter
       style="color-interpolation-filters:sRGB"
       id="filter8486"
       inkscape:label="filter1" />
    <clipPath
       clipPathUnits="userSpaceOnUse"
       id="clipPath8513">
      <path
         style="fill:#ff0000;fill-opacity:1;fill-rule:evenodd;stroke:none;stroke-width:1px;stroke-linecap:butt;stroke-linejoin:miter;stroke-opacity:1"
         d="m 1037.9071,144.02626 13.0113,78.06757 -32.5282,52.04505 -117.10134,39.03376 -175.65205,19.5169 -149.62954,13.0113 -71.56195,-45.53943 -65.05628,-110.59572 143.12385,-84.57325 52.04505,-39.033754 6.50568,-39.033819 39.03375,-13.01123 78.06757,-13.01129406 221.19149,-6.50561504 z"
         id="path8515"
         inkscape:connector-curvature="0" />
    </clipPath>
    <clipPath
       clipPathUnits="userSpaceOnUse"
       id="clipPath8513-1">
      <path
         style="fill:#ff0000;fill-opacity:1;fill-rule:evenodd;stroke:none;stroke-width:1px;stroke-linecap:butt;stroke-linejoin:miter;stroke-opacity:1"
         d="m 1037.9071,144.02626 13.0113,78.06757 -32.5282,52.04505 -117.10134,39.03376 -175.65205,19.5169 -149.62954,13.0113 -71.56195,-45.53943 -65.05628,-110.59572 143.12385,-84.57325 52.04505,-39.033754 6.50568,-39.033819 39.03375,-13.01123 78.06757,-13.01129406 221.19149,-6.50561504 z"
         id="path8515-4"
         inkscape:connector-curvature="0" />
    </clipPath>
    <clipPath
       clipPathUnits="userSpaceOnUse"
       id="clipPath8565">
      <path
         style="fill:#ff0000;fill-opacity:1;fill-rule:evenodd;stroke:none;stroke-width:1px;stroke-linecap:butt;stroke-linejoin:miter;stroke-opacity:1"
         d="m 1037.9071,144.02626 13.0113,78.06757 -32.5282,52.04505 -117.10134,39.03376 -175.65205,19.5169 -149.62954,13.0113 -71.56195,-45.53943 -65.05628,-110.59572 143.12385,-84.57325 52.04505,-39.033754 6.50568,-39.033819 39.03375,-13.01123 78.06757,-13.01129406 221.19149,-6.50561504 z"
         id="path8567"
         inkscape:connector-curvature="0" />
    </clipPath>
    <clipPath
       clipPathUnits="userSpaceOnUse"
       id="clipPath8637">
      <rect
         style="opacity:1;fill:#ff0000;fill-opacity:1;stroke:none;stroke-width:8.10000038;stroke-linecap:round;stroke-linejoin:bevel;stroke-miterlimit:4;stroke-dasharray:none;stroke-dashoffset:0;stroke-opacity:1"
         id="rect8639"
         width="193.57143"
         height="132.14285"
         x="-219.99998"
         y="776.64789" />
    </clipPath>
    <clipPath
       clipPathUnits="userSpaceOnUse"
       id="clipPath8741">
      <path
         style="fill:#ff0000;fill-opacity:1;fill-rule:evenodd;stroke:none;stroke-width:1px;stroke-linecap:butt;stroke-linejoin:miter;stroke-opacity:1"
         d="m -26.77703,99.03193 15.71429,-5.71429 45.71428,12.85714 57.14286,17.14286 74.28571,27.14285 25.71429,21.42857 100,30 44.28571,32.85715 60,-8.57143 28.57143,17.14286 27.14286,8.57142 48.57143,-14.28571 102.85714,7.14286 -4.28571,-187.14286 -7.14286,-12.85714 -37.14286,5.71428 -22.85714,2.85715 -51.42857,0 -67.14286,0 -22.85714,-1.42858 -14.28572,8.57143 -92.85714,0 -72.85714,-4.28571 -51.42857,5.71428 -37.14286,-2.85714 -32.85714,-2.85714 -32.85715,0 -38.57142,-4.28572 -48.57143,5.71429 z"
         id="path8743"
         inkscape:connector-curvature="0"
         sodipodi:nodetypes="cccccccccccccccccccccccccccccc" />
    </clipPath>
    <clipPath
       clipPathUnits="userSpaceOnUse"
       id="clipPath20203">
      <rect
         style="opacity:1;fill:#ff0000;fill-opacity:1;stroke:none;stroke-width:8.10000038;stroke-linecap:round;stroke-linejoin:bevel;stroke-miterlimit:4;stroke-dasharray:none;stroke-dashoffset:0;stroke-opacity:1"
         id="rect20205"
         width="17069.842"
         height="17666.689"
         x="2366.7041"
         y="-21212.371"
         transform="scale(1,-1)" />
    </clipPath>
    <clipPath
       clipPathUnits="userSpaceOnUse"
       id="clipPath16200">
      <rect
         style="opacity:1;fill:#ff0000;fill-opacity:1;stroke:none;stroke-width:8.10000038;stroke-linecap:round;stroke-linejoin:bevel;stroke-miterlimit:4;stroke-dasharray:none;stroke-dashoffset:0;stroke-opacity:1"
         id="rect16202"
         width="104.38721"
         height="73.647415"
         x="14.41088"
         y="-11.355354" />
    </clipPath>
  </defs>
  <sodipodi:namedview
     id="base"
     pagecolor="#ffffff"
     bordercolor="#666666"
     borderopacity="1.0"
     inkscape:pageopacity="0.0"
     inkscape:pageshadow="2"
     inkscape:zoom="1.4"
     inkscape:cx="267.10368"
     inkscape:cy="139.69058"
     inkscape:document-units="px"
     inkscape:current-layer="layer1"
     showgrid="false"
     inkscape:window-width="1920"
     inkscape:window-height="1026"
     inkscape:window-x="-2"
     inkscape:window-y="31"
     inkscape:window-maximized="1" />
  <metadata
     id="metadata7">
    <rdf:RDF>
      <cc:Work
         rdf:about="">
        <dc:format>image/svg+xml</dc:format>
        <dc:type
           rdf:resource="http://purl.org/dc/dcmitype/StillImage" />
        <dc:title></dc:title>
      </cc:Work>
    </rdf:RDF>
  </metadata>
  <g
     inkscape:label="Layer 1"
     inkscape:groupmode="layer"
     id="layer1"
     transform="translate(0,-740.55118)">
    <text
       xml:space="preserve"
       style="font-style:normal;font-weight:normal;font-size:22.05662727px;line-height:125%;font-family:Sans;letter-spacing:0px;word-spacing:0px;fill:#000000;fill-opacity:1;stroke:none;stroke-width:1px;stroke-linecap:butt;stroke-linejoin:miter;stroke-opacity:1"
       x="164.71159"
       y="766.04486"
       id="text6305"
       sodipodi:linespacing="125%"><tspan
         sodipodi:role="line"
         id="tspan6307"
         x="164.71159"
         y="766.04486"
         style="font-style:normal;font-variant:normal;font-weight:normal;font-stretch:normal;font-size:15px;font-family:'Ubuntu Condensed';-inkscape-font-specification:'Ubuntu Condensed, '">• A D L</tspan></text>
    <text
       xml:space="preserve"
       style="font-style:normal;font-weight:normal;font-size:19.57834816px;line-height:125%;font-family:Sans;letter-spacing:0px;word-spacing:0px;fill:#000000;fill-opacity:1;stroke:none;stroke-width:1px;stroke-linecap:butt;stroke-linejoin:miter;stroke-opacity:1"
       x="14.324148"
       y="763.8302"
       id="text6317"
       sodipodi:linespacing="125%"><tspan
         sodipodi:role="line"
         id="tspan6319"
         x="14.324148"
         y="763.8302"
         style="font-style:normal;font-variant:normal;font-weight:500;font-stretch:normal;font-family:Orbitron;-inkscape-font-specification:'Orbitron Medium'">C</tspan></text>
    <text
       xml:space="preserve"
       style="font-style:normal;font-weight:normal;font-size:40px;line-height:125%;font-family:Sans;letter-spacing:0px;word-spacing:0px;fill:#000000;fill-opacity:1;stroke:none;stroke-width:1px;stroke-linecap:butt;stroke-linejoin:miter;stroke-opacity:1"
       x="12.285713"
       y="1023.7908"
       id="text8669"
       sodipodi:linespacing="125%"><tspan
         sodipodi:role="line"
         id="tspan8671"
         x="12.285713"
         y="1023.7908"
         style="font-style:normal;font-variant:normal;font-weight:500;font-stretch:normal;font-size:17.5px;font-family:Essays1743;-inkscape-font-specification:'Essays1743 Medium'">A mischievous young scamp</tspan></text>
    <text
       sodipodi:linespacing="125%"
       id="text11126"
       y="763.77203"
       x="30.361305"
       style="font-style:normal;font-weight:normal;font-size:22.05662727px;line-height:125%;font-family:Sans;letter-spacing:0px;word-spacing:0px;fill:#000000;fill-opacity:1;stroke:none;stroke-width:1px;stroke-linecap:butt;stroke-linejoin:miter;stroke-opacity:1"
       xml:space="preserve"><tspan
         style="font-style:normal;font-variant:normal;font-weight:normal;font-stretch:normal;font-size:15px;font-family:'Ubuntu Condensed';-inkscape-font-specification:'Ubuntu Condensed, '"
         y="763.77203"
         x="30.361305"
         id="tspan11128"
         sodipodi:role="line">2</tspan></text>
    <g
       transform="matrix(0.80431282,0,0,0.80431282,-205.18971,483.43512)"
       inkscape:label="Livello 1"
       id="layer1-8"
       style="fill:#000000;fill-opacity:1">
      <g
         transform="translate(78.594,393.72)"
         id="g2406"
         style="fill:#000000;fill-opacity:1">
        <path
           d="m 393.95,62.42 c 3.48,0.317 4.64,7.045 0.94,8.02 -0.07,-2.392 0.36,-4.995 -0.94,-8.02 z"
           style="fill:#000000;fill-opacity:1"
           id="path35"
           inkscape:connector-curvature="0" />
        <path
           d="m 216.58,206.77 c -0.87,1.76 -2.44,0.7 -3.78,0.95 -4.51,0.84 -8.54,3.56 -12.26,3.3 0.43,-2.67 4.31,-3.53 7.07,-4.25 2.94,-0.76 6.4,-1.69 8.97,0 z"
           style="fill:#000000;fill-opacity:1"
           id="path161"
           inkscape:connector-curvature="0" />
        <path
           d="m 221.76,209.6 c -2.83,3.64 -11.84,3.53 -15.56,4.72 1.56,-4.38 10.86,-4.96 15.56,-4.72 z"
           style="fill:#000000;fill-opacity:1"
           id="path167"
           inkscape:connector-curvature="0" />
        <path
           d="m 310.45,211.96 c -0.47,1.1 -1.62,1.53 -3.3,1.42 10.83,4.51 23.78,1.49 35.85,0 1.24,-0.34 1.61,-1.54 2.83,-1.89 15.12,-1.6 29.3,3.53 43.4,0 -0.48,3.45 -6.92,0.94 -7.55,4.25 3.55,1.43 6.49,-4.12 10.38,-2.36 -1.37,3.43 -5.45,4.62 -9.43,6.13 -4.32,1.63 -5.27,0.61 -9.91,-0.47 -3.54,-0.82 -7.17,-0.06 -9.91,-1.89 0.11,-1.46 1.68,-1.47 2.83,-1.89 -6.05,-2.5 -13.22,-1.54 -19.34,-1.41 2.41,1.99 9.05,-0.24 11.32,1.89 -1.48,1.34 -4.4,1.26 -6.6,1.88 8.69,2.79 15.5,7.46 25.47,8.97 -1.25,6.57 -10.73,1.66 -15.56,1.89 -0.53,-0.74 -1.54,-0.99 -1.42,-2.36 -4.61,-0.92 -7.68,-3.21 -11.79,-3.77 -3.01,-0.42 -6.14,0.5 -9.44,0 -0.65,-0.1 -2,-0.96 -2.83,-0.95 -3.86,0.08 -8.33,2.82 -13.21,3.3 -1.5,0.15 -3.2,-0.18 -4.71,0 -5.16,0.6 -10.68,3.89 -14.63,3.3 -2.55,-0.37 -3.76,-3.42 -6.13,-3.77 -4.91,-0.73 -9.08,-1.97 -13.21,-4.25 2.16,-2.24 5.52,-0.43 8.02,-0.47 1.1,-0.01 1.71,-0.83 2.83,-0.94 3.01,-0.3 5.97,1.1 8.49,1.89 2.38,-0.61 4.58,-1.4 7.07,-1.89 -2.12,-2.31 -9.04,-0.05 -11.32,-0.95 -0.07,-1.66 -3.05,-4.39 0.47,-4.24 -9.06,-1.15 -22.22,-0.86 -31.6,1.41 -4.48,1.09 -7.42,3.09 -13.21,3.78 -8.27,0.98 -15.89,5.71 -23.59,5.66 0.31,-2.23 3.03,-3.18 4.72,-3.77 2.52,-0.89 6.14,-1.04 9.43,-1.89 2.19,-0.56 5.34,-1.97 8.49,-2.36 1.26,-0.16 2.48,0.28 3.78,0 3.56,-0.77 6.76,-2.97 9.9,-3.77 6.92,-1.78 13.68,-1.71 21.23,-2.36 1.87,-0.16 3.71,-0.9 5.66,-0.94 3.4,-0.08 6.05,1.35 9.44,1.88 2.18,0.34 5.11,-0.85 7.08,0.94 z"
           style="fill:#000000;fill-opacity:1"
           id="path169"
           inkscape:connector-curvature="0" />
        <path
           d="m 227.42,212.91 c -1.32,2.82 -6.9,3.7 -9.9,3.3 0.58,-3.57 6.68,-3.93 9.9,-3.3 z"
           style="fill:#000000;fill-opacity:1"
           id="path173"
           inkscape:connector-curvature="0" />
        <path
           d="m 237.8,213.38 c -0.19,1.58 -2.74,2.33 -4.24,2.83 -2.6,0.85 -6.01,1.21 -7.55,1.41 1.19,-3.88 7.16,-5.36 11.79,-4.24 z"
           style="fill:#000000;fill-opacity:1"
           id="path175"
           inkscape:connector-curvature="0" />
        <path
           d="m 272.24,216.68 0,1.89 c -0.6,1.06 -4.36,0.92 -5.19,-0.47 0.17,-2.19 3.93,-1.69 5.19,-1.42 z"
           style="fill:#000000;fill-opacity:1"
           id="path187"
           inkscape:connector-curvature="0" />
        <path
           d="m 263.75,220.45 c 0.04,2.76 -3,3.74 -5.19,2.83 -0.13,-2.79 2.3,-3.05 5.19,-2.83 z"
           style="fill:#000000;fill-opacity:1"
           id="path195"
           inkscape:connector-curvature="0" />
        <path
           d="m 288.28,223.76 c 0.35,1.45 -1.3,0.9 -0.95,2.35 -4.12,-0.43 -7.79,-1.32 -11.79,-1.88 -0.43,-2.68 3.91,-2.85 6.14,-2.83 2.72,0.01 5.89,0.77 6.6,2.36 z"
           style="fill:#000000;fill-opacity:1"
           id="path197"
           inkscape:connector-curvature="0" />
        <path
           d="m 399.14,58.646 c 4.86,1.208 9.11,7.51 4.24,11.794 0.43,6.085 -3.87,7.448 -5.66,11.321 -3.75,1.596 -9.35,1.339 -11.79,4.245 1.53,2.564 6.71,1.464 9.91,2.359 1.27,2.663 3.67,4.185 4.71,7.073 2.94,0.864 4.51,2.226 7.55,4.247 3.88,2.575 7.03,3.605 5.19,8.495 5.64,6.09 5.23,15.47 10.38,21.7 4.58,-2.74 8.87,3.47 7.55,8.02 -1.27,1.26 -1.8,-0.6 -2.83,-0.95 -0.13,1.41 1.32,2.88 -0.48,3.3 -1.86,0.6 -1.22,-1.29 -1.88,-1.88 -1.38,1.6 -1.71,4.27 -4.72,4.24 -0.56,-3.06 -1.36,-5.88 -4.25,-6.6 -1.69,0.03 -0.37,3.08 -1.41,3.77 -1.62,0.2 -2.65,-0.18 -3.78,-0.47 -1.56,-3.22 0.68,-5.65 1.89,-7.55 -0.26,-4.12 -4.27,-6.48 -6.6,-9.43 -1.34,-1.7 -1.86,-4.33 -4.25,-5.2 -2.79,-0.43 -3.91,0.81 -6.13,0.95 -3.48,-2.49 -4.59,-7.36 -8.96,-8.97 -9.53,2.43 -9.2,14.71 -16.52,19.35 -1.01,-0.56 -1.12,-2.01 -3.3,-1.42 -0.66,-1.21 -1.59,-3.45 -3.3,-4.71 -0.5,-0.38 -1.78,0.27 -2.35,0 -1.66,-0.81 -2.86,-3 -3.78,-3.31 -3.15,-1.05 -7.67,-0.75 -10.85,0.48 -0.38,1.63 0.7,1.81 0.47,3.3 -0.91,4.99 -6.7,7.88 -7.07,13.21 -0.2,2.72 1.37,4.49 1.41,8.01 2.57,-1.1 0.62,-4.38 0.95,-6.6 0.51,-3.48 1.97,-5.93 4.71,-7.07 0.31,4.18 -2.7,6.99 -0.47,10.37 4.51,-0.52 7.3,-2.76 11.32,-3.77 1.52,1.27 0.01,3.03 0.95,5.19 -3.34,2.2 -7.07,5.87 -11.8,5.19 -2.49,0.96 -2.53,4.39 -5.18,5.19 4.5,0.66 8.81,-0.6 11.79,-2.83 1.73,-1.3 2.46,-4.14 5.19,-3.77 -3.07,10.76 -16.09,11.58 -28.78,12.73 7.24,2.98 10.09,10.35 12.74,17.93 4.27,-4.17 7.69,-10.12 12.26,-15.57 6.03,-7.17 12.6,-11.54 13.21,-23.11 0.14,-2.69 -2,-7.15 0.95,-8.97 2.21,2.59 0.24,6.9 0.94,9.44 1.89,6.86 11.79,7.27 15.57,12.26 1.08,4.1 5.18,9.54 0.47,12.74 -0.05,4.84 -0.05,9.33 -0.95,13.68 -0.54,2.64 -2.09,4.71 -1.88,7.07 0.18,2.08 2.38,2.86 1.88,5.2 2.25,0.42 3.53,-1.8 5.19,-0.48 0.46,2.82 -2.15,3.46 -3.77,2.83 -0.26,2.46 0.14,4.27 0.95,5.66 2.74,0.07 11.3,-0.34 14.15,1.42 -0.51,8.73 -14.34,9.09 -21.7,6.6 -1.88,-0.15 -1.28,2.19 -2.83,2.36 -3.78,0.33 -6.72,-0.2 -8.97,-1.41 -1.37,-4.18 2.13,-8.08 4.25,-11.79 1.5,-2.64 -0.86,-6.62 1.42,-10.39 -2.75,-3.39 -3.5,-8.51 -2.83,-14.15 -1.52,-1.94 -6.94,0.03 -8.02,-2.35 l 0,-4.25 c 3.77,0.47 5.3,-1.31 8.96,-0.95 -0.08,2.87 -4.11,3.92 -6.13,3.31 0.69,1.74 3.17,1 4.24,0.94 3.91,-0.21 8.42,-2.39 11.32,-3.3 1.08,-1.76 2.49,-3.18 4.25,-4.24 -1.39,-9.15 -10.68,-10.4 -16.04,-15.57 -1.54,4.58 -3.93,8.33 -6.6,11.79 3.67,2.26 9.64,-0.93 13.68,-1.42 -0.05,3.1 -2.74,3.56 -5.19,4.25 -1.38,3.85 -7.41,6.08 -11.32,3.3 -0.36,-1.45 1.62,-0.57 0.94,-2.35 -3.55,1.37 -5.92,4.69 -8.02,7.54 -4.42,6.01 -7.73,12.38 -14.15,16.51 -2.07,-0.13 -1.58,-2.82 -3.3,-3.3 -6.5,2.99 -11.96,-3.06 -16.99,-6.13 -1.37,-0.85 -3.17,-1.18 -4.24,-1.89 -0.92,-0.6 -1.08,-1.81 -1.89,-2.36 -2.15,-1.46 -5.8,-1.73 -8.02,-3.77 -5,3.32 -9.34,8.53 -14.62,12.26 -2.86,0.18 -4.54,-0.8 -6.14,-1.89 -1.19,-3.79 1.68,-7.38 1.89,-11.32 3.5,-2.68 7.42,-6.21 7.08,-11.32 3.2,-2.93 4.7,-7.56 11.79,-6.6 2.55,3.42 3.66,8.29 7.07,10.85 2.46,-0.82 4.42,-0.11 6.61,0.94 2.07,1 2.64,1.56 4.71,1.89 2.85,0.46 3.21,0.61 4.72,-1.41 1.88,-2.52 4.77,-4.23 10.38,-3.78 1.13,-1.54 1.69,-3.65 2.83,-5.19 -1.46,-5.46 -6.34,-7.5 -6.6,-14.15 3.39,-4.63 5.66,-10.38 8.02,-16.04 -2.51,-3.25 -0.69,-9.9 1.41,-12.74 -8.04,-4.17 -17.69,8.33 -24.06,10.85 1.89,2.89 0.06,6.3 -0.94,8.97 -2.49,0.13 -3.34,-1.38 -4.25,-2.83 -1.89,0.15 -1.87,2.22 -4.24,1.89 0.19,-1.14 -0.86,-1.03 -0.47,-2.36 -2.13,1.54 -2.71,-1.82 -4.25,-2.36 -0.4,-2.29 1.1,-2.68 2.36,-3.3 -0.03,-1.55 -1.34,-1.8 -0.95,-3.77 0.97,-1.01 1.87,0.13 2.83,0.47 7.06,-7.25 11.7,-16.924 21.7,-21.231 -0.16,-1.698 -0.72,-2.273 0,-3.773 2.49,1.258 4.09,0.855 5.19,-1.415 4.55,0.924 9.78,-1.114 13.21,-2.831 -1.7,-1.764 -4.2,-1.119 -6.13,-1.887 -2.75,-1.097 -5.21,-3.081 -8.02,-4.246 -3.79,-1.569 -7.24,-3.031 -13.21,-2.829 0.33,-5.978 11.22,-4.56 16.04,-2.83 2.86,1.025 5.41,3.705 8.49,5.191 4.9,2.357 10,2.87 16.51,4.244 -0.21,-4.216 -4.48,-12.656 2.83,-13.681 -0.07,-2.766 -1.1,-4.559 -0.94,-7.546 0.72,-2.259 3.67,-2.298 4.71,-4.246 -0.96,-2.062 -4.68,-0.403 -6.6,-0.471 0.35,-2.634 3.14,-2.834 5.19,-3.773 1.28,-1.71 3.26,-2.718 6.13,-2.831 1.33,-0.876 2.19,-2.212 3.78,-2.831 1.52,-0.273 2.19,0.323 3.3,0.474 7.56,-3.694 14.68,3.343 16.04,10.368 z M 388.29,54.4 c 1.49,1.923 3.56,-0.27 5.19,-0.943 -0.83,-2.474 -3.17,-3.44 -6.14,-3.776 -0.37,2.303 3.57,3.046 0.95,4.719 z m -9.91,-2.829 c 2,1.466 4.59,2.336 5.66,4.717 -0.38,1.192 -1.94,1.203 -2.83,1.889 l 0,2.829 c 2.51,-1.08 1.85,0.409 2.36,1.889 1.43,0.145 3.67,-0.524 3.77,0.943 0.51,3.02 -2.03,2.999 -2.35,5.19 0.93,0.984 0.36,3.134 0,4.245 1.97,-1.959 5.57,-1.251 8.02,0 0.34,-1.071 1.42,-1.411 2.35,-1.887 1.09,1.135 1.53,0.72 3.31,0.472 l 0,2.358 c 2.78,-0.97 2.76,-5.737 0.94,-7.547 1.63,-0.374 1.99,0.523 2.83,0.944 0.4,-5.116 -5.74,-3.693 -7.08,-7.077 -0.65,0.759 -2.33,0.502 -2.82,1.417 -0.05,3.252 -0.31,6.299 -2.36,7.547 -1.53,-2.378 1.24,-3.941 0.47,-7.075 -2.65,-1.346 -5.82,-4.27 -3.3,-8.02 -2.24,-1.639 -5.71,-6.525 -8.97,-2.834 z m -4.72,7.075 c 1.24,-0.182 2.59,-0.242 3.3,-0.943 -1.41,-0.796 -3.17,-1.37 -3.3,0.943 z m -4.72,3.303 c -0.68,2.538 1,4.779 0.95,8.018 -1.26,1.884 -4.12,2.17 -4.72,4.717 0.81,2.656 2.32,4.598 2.83,7.547 3.29,-0.798 4.17,-4.012 7.55,-4.717 l 0,2.358 c 3.95,0.14 4.99,3.185 8.49,3.772 0.97,-1.226 2.1,-2.302 4.25,-2.357 -2.7,-2.805 -6.35,-4.655 -10.38,-6.133 -1.73,0.388 -4.77,3.465 -5.66,0.471 2.62,-1.309 4.32,-3.534 4.24,-7.547 -0.55,-0.867 -2.5,-0.327 -1.89,-2.36 1.23,-1.196 3.83,1.089 4.72,-0.944 -2.42,-2.024 -5.97,0.731 -7.55,-0.943 0.27,-2.416 5.99,-1.868 6.14,-2.83 -3.32,-0.577 -5.76,0.299 -8.97,0.948 z m 27.37,16.039 c 1.08,-0.515 3.75,-1.884 2.36,-3.3 -0.35,1.538 -2.2,1.574 -2.36,3.3 z m -41.51,8.02 c -2.01,3.185 -7.6,2.781 -10.86,4.718 -2.61,-0.096 -5.1,-0.067 -6.6,0.942 0.56,4.475 1.37,8.702 3.77,11.322 3.08,0.05 4.38,-0.7 7.08,0 -0.58,-2.25 -2.94,-2.73 -2.83,-5.661 0.67,-0.114 0.79,-0.776 1.41,-0.945 1.99,0.214 2.27,2.142 3.3,3.302 1.21,0.504 1.66,-2.032 2.36,-0.471 -0.9,6.955 -9.08,9.155 -6.6,17.925 1.17,-2.89 3.12,-4.95 5.19,-7.55 1.78,-2.23 5.09,-5.04 5.66,-7.54 0.41,-1.81 -0.49,-3.75 -0.47,-5.666 0.04,-3.505 1.65,-6.451 1.41,-10.379 -0.94,0.003 -1.88,0.003 -2.82,0.003 z m 7.07,0 c -0.07,0.879 -0.31,1.577 -0.94,1.887 1.15,4.284 -2.33,12.325 1.41,12.735 1.28,-0.43 -1.26,-0.875 -0.47,-2.355 5.06,-4.211 11.61,-6.95 16.98,-10.85 -5.66,-3.114 -9.98,0.454 -16.98,-1.417 z m 31.14,4.245 c -12.72,-2.265 -19.29,5.515 -27.37,9.435 -1.66,4.232 -3.93,8.262 -3.3,13.212 0.77,6.03 5.17,9.25 8.49,12.26 1.7,-2.71 3.49,-5.31 4.25,-8.96 -0.98,-0.28 -1.61,-0.91 -1.89,-1.89 -2.24,-0.43 -5.31,-0.03 -5.19,-2.83 6.83,1.32 11.88,-1.26 15.57,-3.77 2.3,-1.57 3.88,-3.84 6.13,-4.72 3.08,-1.2 6.72,0.01 9.44,-2.83 0.11,0.67 0.77,0.8 0.94,1.42 -0.28,2.86 -3.88,2.41 -5.19,4.24 0.89,0.21 2.84,-0.64 2.36,0.95 0.22,1.95 -2.21,1.25 -3.3,1.88 2.22,2.27 1.71,4.66 3.3,7.08 6.14,-2.35 12.46,-4.52 15.09,-10.38 -6.59,-4.89 -15.19,-7.765 -19.33,-15.097 z m -59.92,5.661 c -5.44,5.096 -12.19,8.886 -15.09,16.516 -2.02,1.12 -3.83,2.46 -4.72,4.71 2.05,0.78 2.54,3.13 4.72,3.78 0.7,-6.85 6.33,-8.76 8.96,-13.69 4.58,-1.87 8.26,-4.63 8.96,-10.373 -0.83,-0.42 -1.19,-1.315 -2.83,-0.943 z m 25.01,9.436 c 1.13,-0.19 1.02,0.86 2.35,0.47 -0.49,-1.33 -0.49,-1.96 0,-3.3 -0.6,-0.03 -0.65,-0.6 -1.41,-0.47 -0.63,0.79 -1.25,1.58 -0.94,3.3 z m -1.89,1.41 c -1.86,3.06 -5.94,6.27 -6.13,9.44 3.58,-0.9 6.71,0.6 10.38,0.94 -0.03,-3.62 -1.07,-6.44 -0.95,-8.96 -1.08,-0.49 -1.67,-1.47 -3.3,-1.42 z m 50.48,8.02 c 1.58,2.16 1.85,4.51 4.24,7.55 2.04,2.6 6.89,4.37 7.08,6.6 -0.02,-0.18 -1.82,2.24 -1.89,2.36 -0.66,1.21 -0.59,2.14 -1.42,2.83 2.24,-0.12 3.28,-1.44 5.19,-1.89 2.2,0.86 5.81,3.17 7.55,0.48 -3.54,-0.4 -6.31,-1.56 -8.02,-3.78 -1.94,-6.55 -4.18,-12.8 -7.08,-18.4 -3.06,0.24 -4.2,2.4 -5.65,4.25 z m -109.45,39.16 c 1.88,-0.15 2.37,1.09 4.25,0.94 0.47,-1.42 1.66,-2.1 1.41,-4.24 -1.84,-0.58 -5.75,0.41 -5.66,3.3 z m -1.41,3.77 c -0.6,1.13 -1.73,1.74 -1.42,3.78 -4.28,2.32 -6.45,6.75 -6.13,13.68 7.39,-1.73 10.48,-7.76 10.85,-16.51 -1.46,0.04 -2.25,-0.58 -3.3,-0.95 z m 17.45,8.49 c 0.96,-0.67 3.61,-2.84 1.42,-3.77 -0.13,1.32 -2.65,2.66 -1.42,3.77 z m 7.55,5.19 c 6.85,0.03 10.08,10.65 16.98,4.72 0.47,-5.19 -0.86,-8.57 -5.19,-8.96 -0.16,2.04 0.54,4.94 -0.94,5.66 -1.37,-1.02 -2.72,0.85 -3.3,-0.95 0.39,-1.01 1.22,-1.61 0.94,-3.3 -2,-1.14 -2.04,-4.24 -5.19,-4.24 -0.02,3.44 -2.84,4.08 -3.3,7.07 z m -3.3,-4.71 c 0.07,-0.56 0.84,-1.07 0,-1.42 -0.07,0.56 -0.84,1.07 0,1.42 z m 66.51,0 c -2.74,-0.6 -5.73,2.36 -8.96,2.83 0.49,4.06 4.04,5.07 8.49,5.19 0.83,-2.01 0.35,-5.31 0.47,-8.02 z m 1.89,32.07 c -0.65,-1.3 -2.39,-3.28 -3.77,-2.36 1.13,2.8 3.43,4.44 7.07,4.72 0.14,-2.02 -1.69,-2.08 -3.3,-2.36 z m 8.49,4.25 c 1.08,0.13 1.77,-0.12 1.89,-0.94 -0.64,-0.15 -0.9,-0.68 -1.89,-0.48 l 0,1.42 z"
           style="fill:#000000;fill-opacity:1"
           id="path209"
           inkscape:connector-curvature="0" />
      </g>
    </g>
  </g>
</svg>
