<?xml version="1.0" encoding="UTF-8" standalone="no"?>
<!-- Created with Inkscape (http://www.inkscape.org/) -->

<svg
   xmlns:dc="http://purl.org/dc/elements/1.1/"
   xmlns:cc="http://creativecommons.org/ns#"
   xmlns:rdf="http://www.w3.org/1999/02/22-rdf-syntax-ns#"
   xmlns:svg="http://www.w3.org/2000/svg"
   xmlns="http://www.w3.org/2000/svg"
   xmlns:sodipodi="http://sodipodi.sourceforge.net/DTD/sodipodi-0.dtd"
   xmlns:inkscape="http://www.inkscape.org/namespaces/inkscape"
   width="62mm"
   height="88mm"
   viewBox="0 0 219.68504 311.81102"
   id="svg2"
   version="1.1"
   inkscape:version="0.91 r13725"
   sodipodi:docname="t_cluster.svg">
  <defs
     id="defs4">
    <inkscape:perspective
       sodipodi:type="inkscape:persp3d"
       inkscape:vp_x="0 : 155.90551 : 1"
       inkscape:vp_y="0 : 1000 : 0"
       inkscape:vp_z="219.68504 : 155.90551 : 1"
       inkscape:persp3d-origin="109.84252 : 103.93701 : 1"
       id="perspective6315" />
    <clipPath
       clipPathUnits="userSpaceOnUse"
       id="clipPath8648">
      <path
         style="fill:#ff0000;fill-opacity:1;fill-rule:evenodd;stroke:none;stroke-width:1px;stroke-linecap:butt;stroke-linejoin:miter;stroke-opacity:1"
         d="m 48.7971,144.54832 -4.54568,-1.2627 -4.04062,0.50508 -4.79822,3.40927 -5.93465,4.29314 -2.0203,2.90419 0.12627,2.65165 2.65165,2.14658 -1.01015,1.76776 -3.283,1.26269 -3.40926,8.08123 6.31345,9.34391 10.35406,-0.75762 46.21448,3.91434 25.50635,-7.19733 9.47018,-5.05077 0.12627,-10.10152 -2.65165,-1.13642 0.88389,-15.15229 10.35406,-6.9448 3.28299,-3.91434 6.566,-7.82868 0.50507,-4.54569 -4.54568,-1.89404 -2.14658,1.01016 -4.16688,1.13642 -5.93464,-2.90419 -2.77792,-1.76777 -5.80838,2.39911 -2.90419,3.03046 -3.40926,4.9245 -7.07107,0.3788 -8.96511,5.80838 -2.90418,2.14657 -3.66181,0.12627 -5.55584,-0.3788 -17.29886,2.65165 z"
         id="path8650"
         inkscape:connector-curvature="0" />
    </clipPath>
    <mask
       maskUnits="userSpaceOnUse"
       id="mask8666">
      <rect
         rx="1.7260212"
         ry="2.8714814"
         y="98.924339"
         x="22.885082"
         height="109.83415"
         width="100.10923"
         id="rect8668"
         style="opacity:1;fill:#ffffff;fill-opacity:1;stroke:none;stroke-width:2.01114893;stroke-linecap:round;stroke-linejoin:bevel;stroke-miterlimit:4;stroke-dasharray:none;stroke-dashoffset:0;stroke-opacity:1" />
    </mask>
    <clipPath
       clipPathUnits="userSpaceOnUse"
       id="clipPath9647">
      <path
         style="fill:#ff0000;fill-opacity:1;fill-rule:evenodd;stroke:none;stroke-width:1px;stroke-linecap:butt;stroke-linejoin:miter;stroke-opacity:1"
         d="m 24.29467,289.85466 12.14286,-9.28572 41.42857,-15.71428 40,-5 20,5 2.85715,7.14285 9.28571,6.42858 10,1.42857 -3.57143,13.57143 -15.71428,10 -27.85715,5.71428 -74.28571,1.42857 z"
         id="path9649"
         inkscape:connector-curvature="0" />
    </clipPath>
    <inkscape:path-effect
       pattern-nodetypes="sssss"
       fuse_tolerance="0"
       vertical_pattern="false"
       prop_units="false"
       tang_offset="0"
       normal_offset="0"
       spacing="0"
       scale_y_rel="false"
       prop_scale="1"
       copytype="single_stretched"
       pattern="M 0,5 C 0,2.24 2.24,0 5,0 7.76,0 7,0.24 7,3 7,5.76 7.76,5.75 5,5.75 2.24,5.75 0,7.76 0,5 Z"
       is_visible="true"
       id="path-effect20326"
       effect="skeletal" />
    <clipPath
       clipPathUnits="userSpaceOnUse"
       id="clipPath7877">
      <path
         style="fill:#ff0000;fill-opacity:1;fill-rule:evenodd;stroke:none;stroke-width:1px;stroke-linecap:butt;stroke-linejoin:miter;stroke-opacity:1"
         d="m 1349.8263,623.67274 -143.5316,10.50232 -77.0169,-21.00459 -119.0262,66.51457 -91.01997,38.50849 -189.04149,-14.00311 -31.50696,-80.51768 -52.51151,-94.52074 -49.01077,-77.01694 -45.51,-31.50692 -38.50846,31.50692 -21.00461,24.50538 -87.51923,56.0123 L 264.58784,578.16276 121.05631,581.6635 110.554,564.1597 96.550923,357.61431 103.55246,4.0366248 142.06092,-23.9695 l 304.56691,3.500741 59.51307,3.50079 171.53769,-10.502321 115.52538,0 38.50845,28.00617372 38.50844,3.50074108 224.04924,-28.0061248 101.5223,35.007656 91.02,87.519261 -3.5008,140.030723 3.5008,238.0523 7.0016,45.51003 3.5007,112.02459 z"
         id="path7879"
         inkscape:connector-curvature="0" />
    </clipPath>
    <filter
       style="color-interpolation-filters:sRGB"
       id="filter8486"
       inkscape:label="filter1" />
    <clipPath
       clipPathUnits="userSpaceOnUse"
       id="clipPath8513">
      <path
         style="fill:#ff0000;fill-opacity:1;fill-rule:evenodd;stroke:none;stroke-width:1px;stroke-linecap:butt;stroke-linejoin:miter;stroke-opacity:1"
         d="m 1037.9071,144.02626 13.0113,78.06757 -32.5282,52.04505 -117.10134,39.03376 -175.65205,19.5169 -149.62954,13.0113 -71.56195,-45.53943 -65.05628,-110.59572 143.12385,-84.57325 52.04505,-39.033754 6.50568,-39.033819 39.03375,-13.01123 78.06757,-13.01129406 221.19149,-6.50561504 z"
         id="path8515"
         inkscape:connector-curvature="0" />
    </clipPath>
    <clipPath
       clipPathUnits="userSpaceOnUse"
       id="clipPath8513-1">
      <path
         style="fill:#ff0000;fill-opacity:1;fill-rule:evenodd;stroke:none;stroke-width:1px;stroke-linecap:butt;stroke-linejoin:miter;stroke-opacity:1"
         d="m 1037.9071,144.02626 13.0113,78.06757 -32.5282,52.04505 -117.10134,39.03376 -175.65205,19.5169 -149.62954,13.0113 -71.56195,-45.53943 -65.05628,-110.59572 143.12385,-84.57325 52.04505,-39.033754 6.50568,-39.033819 39.03375,-13.01123 78.06757,-13.01129406 221.19149,-6.50561504 z"
         id="path8515-4"
         inkscape:connector-curvature="0" />
    </clipPath>
    <clipPath
       clipPathUnits="userSpaceOnUse"
       id="clipPath8565">
      <path
         style="fill:#ff0000;fill-opacity:1;fill-rule:evenodd;stroke:none;stroke-width:1px;stroke-linecap:butt;stroke-linejoin:miter;stroke-opacity:1"
         d="m 1037.9071,144.02626 13.0113,78.06757 -32.5282,52.04505 -117.10134,39.03376 -175.65205,19.5169 -149.62954,13.0113 -71.56195,-45.53943 -65.05628,-110.59572 143.12385,-84.57325 52.04505,-39.033754 6.50568,-39.033819 39.03375,-13.01123 78.06757,-13.01129406 221.19149,-6.50561504 z"
         id="path8567"
         inkscape:connector-curvature="0" />
    </clipPath>
    <clipPath
       clipPathUnits="userSpaceOnUse"
       id="clipPath8637">
      <rect
         style="opacity:1;fill:#ff0000;fill-opacity:1;stroke:none;stroke-width:8.10000038;stroke-linecap:round;stroke-linejoin:bevel;stroke-miterlimit:4;stroke-dasharray:none;stroke-dashoffset:0;stroke-opacity:1"
         id="rect8639"
         width="193.57143"
         height="132.14285"
         x="-219.99998"
         y="776.64789" />
    </clipPath>
    <clipPath
       clipPathUnits="userSpaceOnUse"
       id="clipPath8741">
      <path
         style="fill:#ff0000;fill-opacity:1;fill-rule:evenodd;stroke:none;stroke-width:1px;stroke-linecap:butt;stroke-linejoin:miter;stroke-opacity:1"
         d="m -26.77703,99.03193 15.71429,-5.71429 45.71428,12.85714 57.14286,17.14286 74.28571,27.14285 25.71429,21.42857 100,30 44.28571,32.85715 60,-8.57143 28.57143,17.14286 27.14286,8.57142 48.57143,-14.28571 102.85714,7.14286 -4.28571,-187.14286 -7.14286,-12.85714 -37.14286,5.71428 -22.85714,2.85715 -51.42857,0 -67.14286,0 -22.85714,-1.42858 -14.28572,8.57143 -92.85714,0 -72.85714,-4.28571 -51.42857,5.71428 -37.14286,-2.85714 -32.85714,-2.85714 -32.85715,0 -38.57142,-4.28572 -48.57143,5.71429 z"
         id="path8743"
         inkscape:connector-curvature="0"
         sodipodi:nodetypes="cccccccccccccccccccccccccccccc" />
    </clipPath>
    <clipPath
       clipPathUnits="userSpaceOnUse"
       id="clipPath20203">
      <rect
         style="opacity:1;fill:#ff0000;fill-opacity:1;stroke:none;stroke-width:8.10000038;stroke-linecap:round;stroke-linejoin:bevel;stroke-miterlimit:4;stroke-dasharray:none;stroke-dashoffset:0;stroke-opacity:1"
         id="rect20205"
         width="17069.842"
         height="17666.689"
         x="2366.7041"
         y="-21212.371"
         transform="scale(1,-1)" />
    </clipPath>
    <clipPath
       clipPathUnits="userSpaceOnUse"
       id="clipPath16200">
      <rect
         style="opacity:1;fill:#ff0000;fill-opacity:1;stroke:none;stroke-width:8.10000038;stroke-linecap:round;stroke-linejoin:bevel;stroke-miterlimit:4;stroke-dasharray:none;stroke-dashoffset:0;stroke-opacity:1"
         id="rect16202"
         width="104.38721"
         height="73.647415"
         x="14.41088"
         y="-11.355354" />
    </clipPath>
    <clipPath
       clipPathUnits="userSpaceOnUse"
       id="clipPath16490">
      <rect
         style="opacity:1;fill:#a40000;fill-opacity:1;stroke:none;stroke-width:8.10000038;stroke-linecap:round;stroke-linejoin:bevel;stroke-miterlimit:4;stroke-dasharray:none;stroke-dashoffset:0;stroke-opacity:1"
         id="rect16492"
         width="1001.874"
         height="712.34161"
         x="-484.35733"
         y="178.69977" />
    </clipPath>
    <clipPath
       clipPathUnits="userSpaceOnUse"
       id="clipPath91237">
      <path
         style="fill:#ff0000;fill-opacity:1;fill-rule:evenodd;stroke:none;stroke-width:1px;stroke-linecap:butt;stroke-linejoin:miter;stroke-opacity:1"
         d="M 350.17003,58.669784 323.33196,15.843089 C 287.67843,8.8819159 252.05843,1.4028189 216.38398,-5.2351474 166.60708,-9.3054037 142.0144,4.6361616 112.3232,35.933062 c -21.416902,34.377345 -7.80699,74.439668 -4.5793,108.991558 -1.42812,13.70629 8.73535,40.8148 2.32954,49.24442 -7.14976,14.64265 -17.984602,23.46401 -27.713019,35.2365 C 289.16408,261.61856 386.94615,281.81636 351.88309,59.24081 Z"
         id="path91239"
         inkscape:connector-curvature="0"
         sodipodi:nodetypes="ccccccccc" />
    </clipPath>
  </defs>
  <sodipodi:namedview
     id="base"
     pagecolor="#ffffff"
     bordercolor="#666666"
     borderopacity="1.0"
     inkscape:pageopacity="0.0"
     inkscape:pageshadow="2"
     inkscape:zoom="1.979899"
     inkscape:cx="248.60298"
     inkscape:cy="154.34455"
     inkscape:document-units="px"
     inkscape:current-layer="layer1"
     showgrid="false"
     inkscape:window-width="1920"
     inkscape:window-height="1026"
     inkscape:window-x="-2"
     inkscape:window-y="31"
     inkscape:window-maximized="1" />
  <metadata
     id="metadata7">
    <rdf:RDF>
      <cc:Work
         rdf:about="">
        <dc:format>image/svg+xml</dc:format>
        <dc:type
           rdf:resource="http://purl.org/dc/dcmitype/StillImage" />
        <dc:title></dc:title>
      </cc:Work>
    </rdf:RDF>
  </metadata>
  <g
     inkscape:label="Layer 1"
     inkscape:groupmode="layer"
     id="layer1"
     transform="translate(0,-740.55118)">
    <text
       xml:space="preserve"
       style="font-style:normal;font-weight:normal;font-size:22.05662727px;line-height:125%;font-family:Sans;letter-spacing:0px;word-spacing:0px;fill:#000000;fill-opacity:1;stroke:none;stroke-width:1px;stroke-linecap:butt;stroke-linejoin:miter;stroke-opacity:1"
       x="152.71159"
       y="766.04486"
       id="text6305"
       sodipodi:linespacing="125%"><tspan
         sodipodi:role="line"
         id="tspan6307"
         x="152.71159"
         y="766.04486"
         style="font-style:normal;font-variant:normal;font-weight:normal;font-stretch:normal;font-size:15px;font-family:'Ubuntu Condensed';-inkscape-font-specification:'Ubuntu Condensed, '">C1 C2 S T</tspan></text>
    <text
       xml:space="preserve"
       style="font-style:normal;font-weight:normal;font-size:19.57834816px;line-height:125%;font-family:Sans;letter-spacing:0px;word-spacing:0px;fill:#000000;fill-opacity:1;stroke:none;stroke-width:1px;stroke-linecap:butt;stroke-linejoin:miter;stroke-opacity:1"
       x="14.324148"
       y="763.8302"
       id="text6317"
       sodipodi:linespacing="125%"><tspan
         sodipodi:role="line"
         id="tspan6319"
         x="14.324148"
         y="763.8302"
         style="font-style:normal;font-variant:normal;font-weight:500;font-stretch:normal;font-family:Orbitron;-inkscape-font-specification:'Orbitron Medium'">T</tspan></text>
    <text
       xml:space="preserve"
       style="font-style:normal;font-weight:normal;font-size:40px;line-height:125%;font-family:Sans;letter-spacing:0px;word-spacing:0px;fill:#000000;fill-opacity:1;stroke:none;stroke-width:1px;stroke-linecap:butt;stroke-linejoin:miter;stroke-opacity:1"
       x="24.2248"
       y="1016.6589"
       id="text8669"
       sodipodi:linespacing="125%"><tspan
         sodipodi:role="line"
         x="24.2248"
         y="1016.6589"
         style="font-style:normal;font-variant:normal;font-weight:500;font-stretch:normal;font-size:17.5px;font-family:Essays1743;-inkscape-font-specification:'Essays1743 Medium'"
         id="tspan17435">solemn cluster of figures</tspan></text>
    <path
       style="fill:#000000"
       d="m 87.211991,897.76834 c -3.497062,-2.7738 -2.348874,-7.87969 -2.173938,-12.02027 1.146025,-7.93283 -0.370944,-15.97748 -1.304126,-23.86059 -1.089792,-4.26675 -0.516577,4.64228 -0.825853,6.35165 -0.300866,6.51536 -0.631562,13.11328 1.056657,19.48179 -0.157599,3.50924 0.394326,7.05261 -1.664409,9.55792 -4.295297,2.16764 -5.802739,-1.10302 -4.288516,-3.81947 -3.572358,-2.12775 -1.010884,-8.71964 -2.162515,-12.56646 -0.106098,-5.97493 -1.091704,-11.83305 -2.577677,-17.60506 -1.060611,-4.29221 -1.280632,-8.00923 -2.829554,-12.46191 -0.633304,-6.20372 -1.183851,-12.47472 0.276845,-18.61825 -0.189276,-5.68944 8.543954,-3.61562 9.009646,-9.00688 -0.96605,-3.01552 -3.451654,-7.36203 -0.34519,-10.18263 3.524972,-3.13001 9.058012,0.0734 7.580562,4.68755 0.0239,3.23248 -1.561277,7.62809 3.710774,8.21608 6.739656,-0.20349 4.972965,7.16615 5.601805,11.60546 0.0333,5.90524 1.136214,12.61355 -2.622957,17.68141 1.076863,3.13493 -0.721003,4.05751 -0.566831,6.70873 -1.067594,9.96986 -1.261731,20.00449 -1.029168,30.02965 -1.574766,1.46818 -1.82166,2.18876 -0.229152,4.44287 -0.409597,1.83485 -3.251418,1.36708 -4.616403,1.37841 z m -1.19367,-65.00931 c 0.109444,-2.10924 2.147787,-7.96978 -0.645286,-4.36903 -4.521945,-2.33315 1.842505,4.71434 0.03192,6.83563 -0.307639,1.99626 -1.611133,9.62645 -0.533744,3.71247 0.383161,-2.05953 0.75656,-4.12097 1.147102,-6.17907 z m -4.543779,-0.55584 c 0.62321,-2.25179 1.423308,-6.01691 -1.273964,-3.54497 0.434946,2.97341 2.726478,9.17833 3.985552,13.25092 -0.8609,-3.24627 -1.901201,-6.4466 -2.711588,-9.70595 z m 0.374882,-4.9609 c 3.797321,-0.0612 -4.184128,-5.86251 -2.416676,-1.18611 0.62184,2.34105 0.678389,3.77014 2.416676,1.18611 z m 4.350501,0.35859 c 2.190676,-2.67037 0.165174,-5.36844 -1.855702,-1.85565 -2.577046,0.2081 1.559235,3.79257 1.855702,1.85565 z m 25.615795,66.49854 c -6.04734,-0.3684 4.1169,-5.49023 -0.1334,-7.0095 -0.57178,-7.20936 -0.93003,-14.5518 -3.8904,-21.27522 -0.81594,2.53962 -0.94351,10.35886 -1.08901,14.94026 0.55134,4.1347 -1.46248,7.40066 -5.78296,7.00516 -2.10439,2.51569 -8.700455,-0.12369 -3.294577,-1.70246 4.888757,-2.48009 3.998567,-9.63512 4.016877,-14.34894 -0.57423,-6.97547 -2.908864,-13.74199 -2.580396,-20.78167 -3.151557,-2.18768 -1.554633,-6.33895 -2.008124,-9.49065 0.242187,-5.06243 -0.603847,-11.6262 5.21825,-13.70641 2.475,-3.24401 -4.261995,-9.85097 1.54346,-12.10444 4.17326,-1.40852 7.25982,3.64723 5.00087,7.16334 -0.68311,1.87376 1.50821,3.69309 3.23534,4.02109 6.75011,0.5199 5.08374,8.43232 5.94686,13.19227 0.27004,4.94617 -5.12998,8.04228 -2.29782,13.34263 0.72555,3.89972 -0.94419,7.08875 0.54972,11.01364 1.17255,5.79593 2.26426,11.55791 1.65128,17.50448 -0.0962,2.89259 -0.0753,5.7541 0.40223,8.58496 -1.67429,1.69114 -3.71901,3.89403 -6.4882,3.65146 z m -47.995706,-2.37083 c -4.908842,-0.51958 -7.728113,-3.00616 -7.477397,-7.24532 0.09766,-4.9612 0.446126,-7.60085 0.606868,-12.56224 -0.445826,3.21216 0.304269,-5.64344 -0.387487,-7.4492 -0.822754,-6.01044 -1.091821,3.68609 -2.21248,5.2669 -2.05989,6.31185 -3.209817,10.31492 -2.969393,16.96638 0.76672,3.64024 -6.883171,6.86836 -7.440879,2.96481 3.94514,-3.44637 1.127549,-8.89765 1.755099,-13.9891 0.134303,-5.01157 0.749633,-10.00737 0.805619,-15.0306 -2.309214,-1.99685 -1.82985,-4.83841 -2.485427,-7.34416 0.0055,-8.00318 -0.356318,-16.07661 1.048418,-23.99431 3.216215,-2.46813 10.911087,-3.82668 6.745441,-8.91184 -1.005384,-4.30992 3.558336,-8.43525 7.21657,-4.93809 3.350319,3.29795 -2.821606,9.1408 2.503354,10.82134 6.908459,0.41276 6.871484,7.4484 7.149439,12.72588 0.232546,5.48019 0.349889,10.96495 0.455978,16.44887 -1.954727,1.01368 -1.663072,5.45924 -4.346904,6.55334 0.713995,7.21843 -1.18057,14.25314 -1.626834,21.40051 -1.536016,3.87622 0.427541,2.62347 2.395425,5.41084 -0.747867,0.82993 -0.699137,2.92332 -1.73541,2.90599 z m 75.413266,-2.34187 c -3.49225,-0.35514 -1.8808,-5.4529 -3.38356,-7.74732 -0.41306,-3.03155 -0.56881,-6.4427 -1.55828,-9.52286 -0.66477,-3.85252 -1.27791,-10.96567 -2.61199,-13.1029 0.11843,5.88265 0.82269,11.68332 1.85064,17.45742 0.0677,2.70306 0.56369,5.22407 0.3012,7.94451 -0.29034,2.35488 -0.19229,5.32726 -3.26645,5.0298 -3.39523,0.91825 -5.64946,-1.01305 -1.8797,-3.45349 -0.16406,-2.63845 -0.74848,-5.13651 -1.20537,-7.77742 -0.44116,-2.95704 -0.72336,-5.69484 -1.26799,-8.65718 -0.87046,-2.92491 -0.71883,-10.59754 -3.32437,-10.65567 -5.76063,2.54538 -3.1208,-7.84897 -3.75087,-11.04373 0.16864,-5.71079 0.55536,-11.51716 1.5346,-17.11672 2.21814,-2.48894 8.10826,-3.81924 4.51156,-7.71003 -3.22816,-4.85382 4.3557,-10.90675 7.27515,-5.08004 1.8187,3.6325 -3.13799,8.66462 3.67457,8.95511 5.90485,0.505 4.97474,7.52263 7.01261,11.63434 0.72976,5.61864 -0.13922,11.50179 -1.32397,16.85291 -3.93087,1.74976 -2.04031,6.07831 -2.08375,9.51922 0.2549,5.13871 2.85357,9.82352 2.06693,15.07929 0.005,3.77567 0.19551,6.33038 1.36724,9.14389 -1.20973,0.45594 -2.68624,0.57519 -3.9382,0.25087 z M 32.70463,889.2833 c -0.557079,-0.59806 0.458969,0.16315 0,0 z m 8.582185,-0.12837 c 0.11893,-0.24628 0.06008,0.13885 0,0 z m -13.712925,-0.0357 c 0.128748,-0.1895 0.158896,0.10512 0,0 z m 9.63614,0.0152 c 0.717537,-3.29505 -1.034129,-5.20934 -1.716501,-8.39157 -0.46471,-5.05762 -0.281319,-10.16459 -0.236869,-15.21136 -1.415247,-0.78157 -3.73773,-7.5309 -3.182346,-2.3459 -0.548262,5.72088 -1.166077,11.63305 0.765463,17.18398 1.522539,3.08647 -1.660968,5.20635 -0.635203,8.22208 -0.453684,0.56071 -5.115382,0.88359 -6.076227,-0.58041 0.496631,-2.73609 2.298795,-5.54957 0.219447,-8.5425 0.173427,-6.57824 -0.997079,-13.04766 -2.972288,-19.29932 1.193195,-3.72335 -4.28047,-1.12571 -4.468513,-4.77059 -1.072761,-3.60876 -1.397648,-8.49076 -1.310307,-12.84478 1.657051,-4.6133 -1.865427,-12.15678 3.301889,-14.6927 3.70951,-0.75138 7.082054,-3.5922 3.654172,-6.81195 -2.546174,-6.22607 7.906436,-9.84534 8.089088,-2.69743 0.235419,3.45156 -2.320724,8.17467 3.519229,8.05678 6.75173,0.252 4.752654,8.63043 6.341976,13.14838 0.539134,3.84542 -0.321961,7.64248 -0.971572,11.41364 -2.118719,3.26669 0.646786,9.24621 0.699826,13.4391 0.574046,5.33525 0.278894,10.72528 0.29363,16.08229 -1.592864,3.00632 -0.753728,4.71168 0.683059,7.19349 -1.376811,1.11743 -2.246529,1.36311 -3.726332,1.22396 -0.620138,0.11319 -2.020627,-0.35182 -2.271621,0.22483 z m 2.214458,-0.5991 c -0.194495,0.008 0.0569,0.23003 0,0 z"
       id="path2689"
       inkscape:connector-curvature="0"
       sodipodi:nodetypes="ccccccccccccccccccccccccccccccccccccccccccccccccccccccccccccccccccccccccccccccccccccccccccccccccccccccccccccccccccccccccccccccc" />
    <g
       id="layer1-3"
       transform="matrix(0.22982041,0,0,0.22982041,20.273868,817.65776)">
      <path
         inkscape:connector-curvature="0"
         id="path3004"
         d="m 595.47857,334.31571 c -7.2091,-0.65642 -18.124,-3.3925 -21.343,-5.3503 -2.9682,-1.8051 -3.1569,-2.2721 -3.1569,-7.8126 0,-4.4822 -0.42808,-6.2211 -1.7884,-7.2647 -1.6775,-1.2869 -1.7331,-2.9531 -0.89675,-26.872 1.3437,-38.429 0.98835,-45.926 -2.9458,-62.144 -0.75301,-3.1044 -1.3691,-6.8434 -1.3691,-8.309 0,-1.4656 -0.38572,-2.4263 -0.85714,-2.1349 -1.9545,1.208 -5.4952,26.305 -5.5853,39.588 -0.087,12.835 1.4581,55.181 2.1086,57.79 0.34275,1.3751 -0.05,2.9764 -0.98292,4.0072 -0.8546,0.94432 -1.6954,3.9218 -1.8685,6.6167 l -0.31471,4.8998 -9,2.849 c -9.7531,3.0874 -23.045,4.6119 -25.5,2.9247 -2.1794,-1.4977 -0.29426,-4.116 4.8668,-6.7596 5.8608,-3.0021 7.1332,-4.22 7.1332,-6.8281 0,-1.2403 0.675,-2.8153 1.5,-3.5 2.2006,-1.8263 1.8403,-3.3075 -1.2213,-5.0212 -2.5956,-1.4529 -2.7198,-1.8797 -2.7637,-9.5 -0.0253,-4.3883 -0.60067,-12.929 -1.2786,-18.979 -2.3589,-21.051 -2.9216,-35.19 -2.6367,-66.249 l 0.28668,-31.249 -4.6932,0.55978 c -7.0106,0.83618 -8.7374,-0.84625 -8.5264,-8.3072 0.0917,-3.2438 1.3421,-12.75 2.7785,-21.126 2.5817,-15.053 2.5898,-17.74 0.0507,-16.766 -0.71591,0.27472 -1.9927,-0.0321 -2.8373,-0.68182 -2.0017,-1.5398 -11.585,-18.366 -15.197,-26.681 -1.5527,-3.575 -3.2316,-7.0441 -3.7309,-7.709 -1.9759,-2.6317 3.789,-20.587996 12.832,-39.969996 1.8423,-3.9484 4.0681,-9.3484 4.9463,-12 0.87821,-2.6516 2.16,-5.5746 2.8485,-6.4955 1.0578,-1.4148 11.401,-6.8257 13.048,-6.8257 0.29394,0 2.9939,-1.125 6,-2.5 3.0061,-1.375 5.6895,-2.5 5.9632,-2.5 0.27369,0 2.7775,-1.4173 5.5641,-3.1495 4.7885,-2.9767 5.0664,-3.3806 5.0664,-7.3625 0,-3.1597 -0.73754,-5.1411 -2.9499,-7.925 -4.1814,-5.2617 -5.0091,-11.6889997 -2.1906,-17.0109997 1.1803,-2.2286 2.1448,-4.6024 2.1432,-5.2752 -0.005,-2.3838 4.2122,-9.8024003 6.5738,-11.5630003 3.6726,-2.7381 14.481,-3.4422 19.323,-1.2589 8.0344,3.623 9.9819,9.1959 9.0336,25.8500003 -0.63329,11.1209997 -0.85344,12.0569997 -3.8027,16.1629997 -3.7343,5.2 -3.7755,5.5865 -0.88053,8.2666 2.1913,2.0287 13.719,8.2656 15.277,8.2656 2.9687,0 13.674,6.5075 17.587,10.69 4.2789,4.5745 4.7254,5.5656 6.2475,13.868 0.9016,4.9178 2.3287,14.567 3.1714,21.442 0.84269,6.875 1.9571,15.199996 2.4764,18.499996 0.97086,6.169 2.4464,22.131 3.5128,38 0.33263,4.95 1.0226,12.825 1.5333,17.5 1.3862,12.689 1.2767,14.1 -1.1425,14.733 -1.9461,0.50891 -2.0415,1.0041 -1.408,7.3115 0.77078,7.6751 -0.57271,11.73 -5.4269,16.381 -2.3485,2.25 -3.4043,2.6026 -6.2039,2.072 -1.8556,-0.3517 -4.2241,-1.2656 -5.2634,-2.0309 -1.7654,-1.3 -1.7835,-1.5534 -0.27595,-3.8543 1.2698,-1.938 1.3935,-3.0947 0.58024,-5.4275 -0.79116,-2.2695 -0.66784,-3.8398 0.52595,-6.6969 1.9458,-4.6569 1.9738,-4.3992 -0.58045,-5.344 -1.8371,-0.67959 -2.1794,-1.7009 -2.4192,-7.2178 -0.61407,-14.131 -2.6222,-34.791 -3.9918,-41.069 -0.79706,-3.6537 -1.4492,-8.0412 -1.4492,-9.75 0,-1.7088 -0.4217,-3.1069 -0.93712,-3.1069 -1.0259,0 -0.62095,11.739 0.93146,27 1.3479,13.251 2.1651,32.922 1.46,35.144 -0.324,1.0208 -1.1674,1.856 -1.8742,1.856 -1.8976,0 -2.413,11.152 -2.4497,53 -0.0176,20.075 -0.50817,41.9 -1.0902,48.5 -0.58201,6.6 -1.3312,16.95 -1.6649,23 -0.4306,7.8066 -1.0086,11.232 -1.991,11.8 -2.6055,1.5052 -1.382,4.5888 4.2229,10.643 5.5538,5.9988 6.533,9.2536 2.6742,8.8894 -0.97976,-0.0925 -3.5814,-0.332 -5.7814,-0.53233 z m -68.179,-236.799996 c 0.84322,-4.4 1.8016,-9.8 2.1297,-12 0.56529,-3.7902 0.45794,-3.6853 -2.0464,2 -1.4536,3.3 -2.8621,7.4467 -3.13,9.215 -0.26785,1.7682 -1.079,3.706296 -1.8026,4.306796 -1.0783,0.89491 -1.0162,1.6134 0.34421,3.9838 2.0622,3.5931 2.5262,2.82 4.505,-7.505596 z"
         sodipodi:nodetypes="ccssscscsccscscsscsssscscccscccscssscssccccscsscsscsscccssscsccsssscssssccccccssccccc" />
    </g>
    <path
       style="fill:#000000;fill-opacity:1;fill-rule:evenodd;stroke:none;stroke-width:1px;stroke-linecap:butt;stroke-linejoin:miter;stroke-opacity:1"
       d="m 78.471462,826.33385 1.723647,-3.36523 5.745511,0.16415 2.544445,2.29821 -0.82079,18.8781 -5.499273,1.06703 -3.857701,-18.79603 z"
       id="path4147"
       inkscape:connector-curvature="0" />
  </g>
</svg>
