<?xml version="1.0" encoding="UTF-8" standalone="no"?>
<!-- Created with Inkscape (http://www.inkscape.org/) -->

<svg
   xmlns:dc="http://purl.org/dc/elements/1.1/"
   xmlns:cc="http://creativecommons.org/ns#"
   xmlns:rdf="http://www.w3.org/1999/02/22-rdf-syntax-ns#"
   xmlns:svg="http://www.w3.org/2000/svg"
   xmlns="http://www.w3.org/2000/svg"
   xmlns:sodipodi="http://sodipodi.sourceforge.net/DTD/sodipodi-0.dtd"
   xmlns:inkscape="http://www.inkscape.org/namespaces/inkscape"
   width="62mm"
   height="88mm"
   viewBox="0 0 219.68504 311.81102"
   id="svg2"
   version="1.1"
   inkscape:version="0.91 r13725"
   sodipodi:docname="t_diggin.svg">
  <defs
     id="defs4">
    <inkscape:perspective
       sodipodi:type="inkscape:persp3d"
       inkscape:vp_x="0 : 155.90551 : 1"
       inkscape:vp_y="0 : 1000 : 0"
       inkscape:vp_z="219.68504 : 155.90551 : 1"
       inkscape:persp3d-origin="109.84252 : 103.93701 : 1"
       id="perspective6315" />
    <clipPath
       clipPathUnits="userSpaceOnUse"
       id="clipPath8648">
      <path
         style="fill:#ff0000;fill-opacity:1;fill-rule:evenodd;stroke:none;stroke-width:1px;stroke-linecap:butt;stroke-linejoin:miter;stroke-opacity:1"
         d="m 48.7971,144.54832 -4.54568,-1.2627 -4.04062,0.50508 -4.79822,3.40927 -5.93465,4.29314 -2.0203,2.90419 0.12627,2.65165 2.65165,2.14658 -1.01015,1.76776 -3.283,1.26269 -3.40926,8.08123 6.31345,9.34391 10.35406,-0.75762 46.21448,3.91434 25.50635,-7.19733 9.47018,-5.05077 0.12627,-10.10152 -2.65165,-1.13642 0.88389,-15.15229 10.35406,-6.9448 3.28299,-3.91434 6.566,-7.82868 0.50507,-4.54569 -4.54568,-1.89404 -2.14658,1.01016 -4.16688,1.13642 -5.93464,-2.90419 -2.77792,-1.76777 -5.80838,2.39911 -2.90419,3.03046 -3.40926,4.9245 -7.07107,0.3788 -8.96511,5.80838 -2.90418,2.14657 -3.66181,0.12627 -5.55584,-0.3788 -17.29886,2.65165 z"
         id="path8650"
         inkscape:connector-curvature="0" />
    </clipPath>
    <mask
       maskUnits="userSpaceOnUse"
       id="mask8666">
      <rect
         rx="1.7260212"
         ry="2.8714814"
         y="98.924339"
         x="22.885082"
         height="109.83415"
         width="100.10923"
         id="rect8668"
         style="opacity:1;fill:#ffffff;fill-opacity:1;stroke:none;stroke-width:2.01114893;stroke-linecap:round;stroke-linejoin:bevel;stroke-miterlimit:4;stroke-dasharray:none;stroke-dashoffset:0;stroke-opacity:1" />
    </mask>
    <clipPath
       clipPathUnits="userSpaceOnUse"
       id="clipPath9647">
      <path
         style="fill:#ff0000;fill-opacity:1;fill-rule:evenodd;stroke:none;stroke-width:1px;stroke-linecap:butt;stroke-linejoin:miter;stroke-opacity:1"
         d="m 24.29467,289.85466 12.14286,-9.28572 41.42857,-15.71428 40,-5 20,5 2.85715,7.14285 9.28571,6.42858 10,1.42857 -3.57143,13.57143 -15.71428,10 -27.85715,5.71428 -74.28571,1.42857 z"
         id="path9649"
         inkscape:connector-curvature="0" />
    </clipPath>
    <inkscape:path-effect
       pattern-nodetypes="sssss"
       fuse_tolerance="0"
       vertical_pattern="false"
       prop_units="false"
       tang_offset="0"
       normal_offset="0"
       spacing="0"
       scale_y_rel="false"
       prop_scale="1"
       copytype="single_stretched"
       pattern="M 0,5 C 0,2.24 2.24,0 5,0 7.76,0 7,0.24 7,3 7,5.76 7.76,5.75 5,5.75 2.24,5.75 0,7.76 0,5 Z"
       is_visible="true"
       id="path-effect20326"
       effect="skeletal" />
    <clipPath
       clipPathUnits="userSpaceOnUse"
       id="clipPath7877">
      <path
         style="fill:#ff0000;fill-opacity:1;fill-rule:evenodd;stroke:none;stroke-width:1px;stroke-linecap:butt;stroke-linejoin:miter;stroke-opacity:1"
         d="m 1349.8263,623.67274 -143.5316,10.50232 -77.0169,-21.00459 -119.0262,66.51457 -91.01997,38.50849 -189.04149,-14.00311 -31.50696,-80.51768 -52.51151,-94.52074 -49.01077,-77.01694 -45.51,-31.50692 -38.50846,31.50692 -21.00461,24.50538 -87.51923,56.0123 L 264.58784,578.16276 121.05631,581.6635 110.554,564.1597 96.550923,357.61431 103.55246,4.0366248 142.06092,-23.9695 l 304.56691,3.500741 59.51307,3.50079 171.53769,-10.502321 115.52538,0 38.50845,28.00617372 38.50844,3.50074108 224.04924,-28.0061248 101.5223,35.007656 91.02,87.519261 -3.5008,140.030723 3.5008,238.0523 7.0016,45.51003 3.5007,112.02459 z"
         id="path7879"
         inkscape:connector-curvature="0" />
    </clipPath>
    <filter
       style="color-interpolation-filters:sRGB"
       id="filter8486"
       inkscape:label="filter1" />
    <clipPath
       clipPathUnits="userSpaceOnUse"
       id="clipPath8513">
      <path
         style="fill:#ff0000;fill-opacity:1;fill-rule:evenodd;stroke:none;stroke-width:1px;stroke-linecap:butt;stroke-linejoin:miter;stroke-opacity:1"
         d="m 1037.9071,144.02626 13.0113,78.06757 -32.5282,52.04505 -117.10134,39.03376 -175.65205,19.5169 -149.62954,13.0113 -71.56195,-45.53943 -65.05628,-110.59572 143.12385,-84.57325 52.04505,-39.033754 6.50568,-39.033819 39.03375,-13.01123 78.06757,-13.01129406 221.19149,-6.50561504 z"
         id="path8515"
         inkscape:connector-curvature="0" />
    </clipPath>
    <clipPath
       clipPathUnits="userSpaceOnUse"
       id="clipPath8513-1">
      <path
         style="fill:#ff0000;fill-opacity:1;fill-rule:evenodd;stroke:none;stroke-width:1px;stroke-linecap:butt;stroke-linejoin:miter;stroke-opacity:1"
         d="m 1037.9071,144.02626 13.0113,78.06757 -32.5282,52.04505 -117.10134,39.03376 -175.65205,19.5169 -149.62954,13.0113 -71.56195,-45.53943 -65.05628,-110.59572 143.12385,-84.57325 52.04505,-39.033754 6.50568,-39.033819 39.03375,-13.01123 78.06757,-13.01129406 221.19149,-6.50561504 z"
         id="path8515-4"
         inkscape:connector-curvature="0" />
    </clipPath>
    <clipPath
       clipPathUnits="userSpaceOnUse"
       id="clipPath8565">
      <path
         style="fill:#ff0000;fill-opacity:1;fill-rule:evenodd;stroke:none;stroke-width:1px;stroke-linecap:butt;stroke-linejoin:miter;stroke-opacity:1"
         d="m 1037.9071,144.02626 13.0113,78.06757 -32.5282,52.04505 -117.10134,39.03376 -175.65205,19.5169 -149.62954,13.0113 -71.56195,-45.53943 -65.05628,-110.59572 143.12385,-84.57325 52.04505,-39.033754 6.50568,-39.033819 39.03375,-13.01123 78.06757,-13.01129406 221.19149,-6.50561504 z"
         id="path8567"
         inkscape:connector-curvature="0" />
    </clipPath>
    <clipPath
       clipPathUnits="userSpaceOnUse"
       id="clipPath8637">
      <rect
         style="opacity:1;fill:#ff0000;fill-opacity:1;stroke:none;stroke-width:8.10000038;stroke-linecap:round;stroke-linejoin:bevel;stroke-miterlimit:4;stroke-dasharray:none;stroke-dashoffset:0;stroke-opacity:1"
         id="rect8639"
         width="193.57143"
         height="132.14285"
         x="-219.99998"
         y="776.64789" />
    </clipPath>
    <clipPath
       clipPathUnits="userSpaceOnUse"
       id="clipPath8741">
      <path
         style="fill:#ff0000;fill-opacity:1;fill-rule:evenodd;stroke:none;stroke-width:1px;stroke-linecap:butt;stroke-linejoin:miter;stroke-opacity:1"
         d="m -26.77703,99.03193 15.71429,-5.71429 45.71428,12.85714 57.14286,17.14286 74.28571,27.14285 25.71429,21.42857 100,30 44.28571,32.85715 60,-8.57143 28.57143,17.14286 27.14286,8.57142 48.57143,-14.28571 102.85714,7.14286 -4.28571,-187.14286 -7.14286,-12.85714 -37.14286,5.71428 -22.85714,2.85715 -51.42857,0 -67.14286,0 -22.85714,-1.42858 -14.28572,8.57143 -92.85714,0 -72.85714,-4.28571 -51.42857,5.71428 -37.14286,-2.85714 -32.85714,-2.85714 -32.85715,0 -38.57142,-4.28572 -48.57143,5.71429 z"
         id="path8743"
         inkscape:connector-curvature="0"
         sodipodi:nodetypes="cccccccccccccccccccccccccccccc" />
    </clipPath>
    <clipPath
       clipPathUnits="userSpaceOnUse"
       id="clipPath20203">
      <rect
         style="opacity:1;fill:#ff0000;fill-opacity:1;stroke:none;stroke-width:8.10000038;stroke-linecap:round;stroke-linejoin:bevel;stroke-miterlimit:4;stroke-dasharray:none;stroke-dashoffset:0;stroke-opacity:1"
         id="rect20205"
         width="17069.842"
         height="17666.689"
         x="2366.7041"
         y="-21212.371"
         transform="scale(1,-1)" />
    </clipPath>
    <clipPath
       clipPathUnits="userSpaceOnUse"
       id="clipPath16200">
      <rect
         style="opacity:1;fill:#ff0000;fill-opacity:1;stroke:none;stroke-width:8.10000038;stroke-linecap:round;stroke-linejoin:bevel;stroke-miterlimit:4;stroke-dasharray:none;stroke-dashoffset:0;stroke-opacity:1"
         id="rect16202"
         width="104.38721"
         height="73.647415"
         x="14.41088"
         y="-11.355354" />
    </clipPath>
    <clipPath
       clipPathUnits="userSpaceOnUse"
       id="clipPath16490">
      <rect
         style="opacity:1;fill:#a40000;fill-opacity:1;stroke:none;stroke-width:8.10000038;stroke-linecap:round;stroke-linejoin:bevel;stroke-miterlimit:4;stroke-dasharray:none;stroke-dashoffset:0;stroke-opacity:1"
         id="rect16492"
         width="1001.874"
         height="712.34161"
         x="-484.35733"
         y="178.69977" />
    </clipPath>
    <clipPath
       clipPathUnits="userSpaceOnUse"
       id="clipPath91237">
      <path
         style="fill:#ff0000;fill-opacity:1;fill-rule:evenodd;stroke:none;stroke-width:1px;stroke-linecap:butt;stroke-linejoin:miter;stroke-opacity:1"
         d="M 350.17003,58.669784 323.33196,15.843089 C 287.67843,8.8819159 252.05843,1.4028189 216.38398,-5.2351474 166.60708,-9.3054037 142.0144,4.6361616 112.3232,35.933062 c -21.416902,34.377345 -7.80699,74.439668 -4.5793,108.991558 -1.42812,13.70629 8.73535,40.8148 2.32954,49.24442 -7.14976,14.64265 -17.984602,23.46401 -27.713019,35.2365 C 289.16408,261.61856 386.94615,281.81636 351.88309,59.24081 Z"
         id="path91239"
         inkscape:connector-curvature="0"
         sodipodi:nodetypes="ccccccccc" />
    </clipPath>
  </defs>
  <sodipodi:namedview
     id="base"
     pagecolor="#ffffff"
     bordercolor="#666666"
     borderopacity="1.0"
     inkscape:pageopacity="0.0"
     inkscape:pageshadow="2"
     inkscape:zoom="1.4"
     inkscape:cx="101.5274"
     inkscape:cy="160.27856"
     inkscape:document-units="px"
     inkscape:current-layer="layer1"
     showgrid="false"
     inkscape:window-width="1920"
     inkscape:window-height="1026"
     inkscape:window-x="-2"
     inkscape:window-y="31"
     inkscape:window-maximized="1" />
  <metadata
     id="metadata7">
    <rdf:RDF>
      <cc:Work
         rdf:about="">
        <dc:format>image/svg+xml</dc:format>
        <dc:type
           rdf:resource="http://purl.org/dc/dcmitype/StillImage" />
        <dc:title></dc:title>
      </cc:Work>
    </rdf:RDF>
  </metadata>
  <g
     inkscape:label="Layer 1"
     inkscape:groupmode="layer"
     id="layer1"
     transform="translate(0,-740.55118)">
    <text
       xml:space="preserve"
       style="font-style:normal;font-weight:normal;font-size:22.05662727px;line-height:125%;font-family:Sans;letter-spacing:0px;word-spacing:0px;fill:#000000;fill-opacity:1;stroke:none;stroke-width:1px;stroke-linecap:butt;stroke-linejoin:miter;stroke-opacity:1"
       x="152.71159"
       y="766.04486"
       id="text6305"
       sodipodi:linespacing="125%"><tspan
         sodipodi:role="line"
         id="tspan6307"
         x="152.71159"
         y="766.04486"
         style="font-style:normal;font-variant:normal;font-weight:normal;font-stretch:normal;font-size:15px;font-family:'Ubuntu Condensed';-inkscape-font-specification:'Ubuntu Condensed, '">C1 C2 S T</tspan></text>
    <text
       xml:space="preserve"
       style="font-style:normal;font-weight:normal;font-size:19.57834816px;line-height:125%;font-family:Sans;letter-spacing:0px;word-spacing:0px;fill:#000000;fill-opacity:1;stroke:none;stroke-width:1px;stroke-linecap:butt;stroke-linejoin:miter;stroke-opacity:1"
       x="14.324148"
       y="763.8302"
       id="text6317"
       sodipodi:linespacing="125%"><tspan
         sodipodi:role="line"
         id="tspan6319"
         x="14.324148"
         y="763.8302"
         style="font-style:normal;font-variant:normal;font-weight:500;font-stretch:normal;font-family:Orbitron;-inkscape-font-specification:'Orbitron Medium'">T</tspan></text>
    <text
       xml:space="preserve"
       style="font-style:normal;font-weight:normal;font-size:40px;line-height:125%;font-family:Sans;text-align:center;letter-spacing:0px;word-spacing:0px;text-anchor:middle;fill:#000000;fill-opacity:1;stroke:none;stroke-width:1px;stroke-linecap:butt;stroke-linejoin:miter;stroke-opacity:1"
       x="106.33987"
       y="1020.1944"
       id="text8669"
       sodipodi:linespacing="125%"><tspan
         sodipodi:role="line"
         x="106.33987"
         y="1020.1944"
         style="font-style:normal;font-variant:normal;font-weight:500;font-stretch:normal;font-size:17.5px;font-family:Essays1743;-inkscape-font-specification:'Essays1743 Medium';text-align:center;text-anchor:middle"
         id="tspan14044">unusual sounds of digging</tspan></text>
    <path
       style="fill:#000000;fill-opacity:1"
       d="m 93.309872,823.22113 c 0.608367,0 1.216213,0.14193 1.753475,0.42636 0.927043,0.50566 1.812279,1.05299 2.570772,1.72719 0.800626,0.63208 1.390083,1.51717 1.727193,2.52848 0.337098,0.96919 0.632899,1.9388 0.843588,2.90799 0.16855,0.63207 0.29408,1.22183 0.37835,1.81177 0.25284,1.39057 0.75936,2.69644 1.47572,3.91847 0.5478,1.01131 1.0112,1.76999 1.51685,2.52847 -0.0843,-0.1264 0.58936,0.37929 1.38998,0.63213 0.42139,0.12641 0.9276,0.21032 1.39113,0.21032 0.37924,0 0.71567,-0.0414 1.05278,-0.12574 1.39055,-0.29496 2.73935,-0.46341 4.12992,-0.58983 1.13774,-0.0843 2.27518,-0.29501 3.32864,-0.63211 2.14905,-0.71635 4.25674,-1.30658 6.40579,-1.93866 1.17987,-0.33711 2.52759,-0.42102 3.83387,-0.21033 6.74213,1.05346 13.14739,3.32866 18.96247,6.74187 0.58994,0.33709 1.17939,0.67466 1.72719,1.05391 0.84277,0.54779 1.51711,1.30538 1.89637,2.23242 0.46351,1.05346 0.71716,2.1496 0.84358,3.24519 0.29496,3.16038 0.63139,5.98299 1.05277,8.80625 0.25283,1.85408 1.18052,3.79276 2.65536,5.35188 0.37925,0.42138 0.84203,0.80124 1.3477,1.09621 1.01132,0.58994 1.85411,1.43258 2.48618,2.44389 0.29497,0.42139 0.42179,0.92662 0.42179,1.43228 0,0.80062 -0.33725,1.60103 -0.96932,2.10668 -0.58995,0.46353 -1.222,0.92729 -1.85406,1.30654 -0.50567,0.3371 -1.05382,0.50555 -1.64376,0.58982 -0.29496,0.0421 -0.50539,0.25257 -0.54752,0.54754 l 0.54752,12.17831 0.0846,10.02935 -0.16803,4.8032 0.0835,4.17223 -0.25261,3.79272 -0.46295,4.55058 c -0.16855,1.39057 -0.25376,2.82281 -0.25376,4.21338 0,2.10692 0.16912,4.17183 0.46408,6.23661 0.21069,1.3063 0.33722,2.73922 0.33722,4.08763 0,0.42139 -0.0423,0.80042 -0.0423,1.17966 l 0.0846,5.47762 -0.12688,6.27891 -0.16804,5.81481 0.0835,2.78113 c 0.0421,1.01132 0.88504,1.81289 1.89637,1.81289 l 0.42179,-0.0421 2.48618,-2.02329 c 0.37924,-0.29496 0.58983,-0.75843 0.58983,-1.22195 0,-0.12641 -1.6e-4,-0.21075 -0.0423,-0.33716 -0.0843,-0.50566 -0.16803,-1.09484 -0.16803,-1.64263 -0.0422,-0.50567 0.12584,-0.96959 0.46295,-1.34885 0.25283,-0.25282 0.54779,-0.506 0.92703,-0.71669 l 1.55916,-0.6744 1.68603,-0.92704 c 1.47485,-0.80063 2.86464,-1.72666 4.12879,-2.82225 0.33711,-0.29497 0.63206,-0.54831 0.92703,-0.759 0.46353,-0.46352 1.22246,-0.71655 1.98096,-0.67442 0.96917,0 1.93832,0.29465 2.7811,0.84245 0.67421,0.46352 1.22204,1.09558 1.55915,1.85407 2.19119,5.05657 5.52059,9.43972 9.73442,12.895 0.80064,0.63208 1.76964,1.0534 2.73881,1.22195 l 21.37893,0.0526 -0.016,0.0322 0,3.53891 -192.402387,0 0.420653,-1.68488 c 0.632076,-2.44402 1.349494,-4.80359 2.150119,-7.07906 0.589944,-1.85409 1.473882,-3.75108 2.527342,-5.47875 0.71635,-1.17988 1.391323,-2.23303 2.065531,-3.32864 0.08429,-0.1264 0.252255,-0.25308 0.462947,-0.37949 l 0.421801,-0.71671 1.559154,-3.41323 c 0.379241,-0.8849 0.88432,-1.72654 1.389978,-2.48504 0.505659,-0.71635 1.011352,-1.39117 1.559154,-2.02325 1.05346,-1.26414 2.022924,-2.61248 2.865692,-4.00304 0.842757,-1.47484 1.853842,-2.78103 3.033719,-4.00304 0.463528,-0.50567 1.011515,-0.96943 1.601448,-1.30654 0.71635,-0.46353 1.2645,-1.05314 1.643741,-1.76949 0.842768,-1.64339 1.938591,-3.2023 3.1606,-4.59287 1.643394,-1.89623 4.21325,-2.69762 6.657268,-2.06553 1.264152,0.33711 2.485813,0.80102 3.623548,1.34882 2.10692,1.05346 4.045999,2.35934 5.773678,3.91847 l 1.179646,-0.58983 c 5.309432,-2.57044 10.281395,-5.39296 15.085169,-8.46905 l 2.148982,0.84244 2.613066,-2.19127 1.432272,-1.55916 2.738811,-1.98094 c 3.328929,-2.44403 6.911146,-4.50879 10.661459,-6.19432 l 2.191276,-1.93751 3.45551,-3.24519 c 0.379252,-0.37925 0.63145,-0.84302 0.757856,-1.30654 0.421384,-1.34843 0.674729,-2.73922 0.759015,-4.08764 0.126406,-1.98051 0.210634,-3.79155 0.294908,-5.64564 0.04209,-1.43271 0.168654,-2.86526 0.337203,-4.29796 0.252835,-1.89623 0.337214,-3.70828 0.337214,-5.60451 l 0,-1.1385 c 0,-0.29498 -0.04232,-0.92723 -0.04232,-1.60144 -0.0422,-1.13774 -0.168967,-1.60057 -0.42179,-1.97981 l -2.31701,-4.97238 -3.160612,-5.39417 c -0.674207,-1.17987 -1.095371,-2.5279 -1.179646,-3.91846 -0.08429,-1.39057 0.0422,-2.7815 0.337203,-4.12992 0.126417,-0.54781 0.294549,-1.0535 0.505241,-1.55916 0.08429,-0.16856 0.126881,-0.37913 0.126881,-0.58983 0,-0.29496 -0.126359,-0.58962 -0.29492,-0.84245 -0.168549,-0.25283 -0.464026,-0.3795 -0.758992,-0.3795 -0.08429,0 -0.168341,1.5e-4 -0.252627,0.0423 -0.927042,0.21069 -1.896715,-5e-5 -2.613065,-0.63212 -1.643394,-1.39056 -2.780838,-3.24481 -3.32864,-5.30959 -0.210692,-0.75848 -0.463886,-1.55867 -0.716698,-2.3593 -0.168561,-0.58993 -0.505798,-1.05417 -0.969337,-1.43342 -0.884899,-0.75848 -1.516801,-1.76894 -1.811768,-2.86454 -0.294966,-1.22201 -0.294966,-2.44384 0,-3.66585 0.337098,-1.34842 1.053379,-2.61305 2.148982,-3.54009 1.095592,-0.92705 2.359698,-1.64318 3.708124,-2.10669 1.474844,-0.46353 2.992458,-0.84323 4.509433,-1.05392 0.200165,-0.0317 0.403043,-0.0468 0.60584,-0.0468 z m 38.807388,26.7571 c -0.21069,0 -0.42174,0.0814 -0.52124,0.21604 l -0.54753,0.67442 c -0.16855,0.0843 -0.16872,0.25309 -0.0423,0.37949 l 1.89636,1.85408 2.35931,2.61193 1.89636,2.15011 c 0.29496,0.84277 0.67467,1.64327 1.05391,2.4439 l 0.50524,0.96818 0.67442,1.01162 0.84244,0.92704 1.43342,1.51686 1.34768,1.34883 c 0.2107,0.12641 0.46373,0.21033 0.67442,0.21033 l 0.0423,0 c 0.58993,0 1.0962,-0.50514 1.0962,-1.09507 0,-0.0843 -1.6e-4,-0.21064 -0.0423,-0.29491 l -0.12689,-0.54754 -0.33721,-1.43342 -0.63212,-1.89635 -0.67441,-1.64261 -0.58983,-1.05391 -0.96933,-1.93866 -0.58982,-1.38998 -0.37836,-1.05391 -0.54867,-1.22195 -0.75787,-1.64374 c -0.0421,-0.16855 -0.21079,-0.25278 -0.3372,-0.29491 l -2.8234,-0.54754 -1.81178,-0.21032 -2.06438,-0.0423 -0.0275,-0.006 z m -20.24043,17.82969 c -0.42138,0 -0.84322,0.25287 -1.05391,0.63212 l -0.84244,1.39111 c -0.16856,0.42139 -0.29507,0.84303 -0.33722,1.30654 0,0.80063 -0.0841,1.60098 -0.25261,2.4016 -0.0843,0.37925 -0.33684,1.47518 -0.54754,2.57078 -0.58993,2.82326 -1.22214,5.01428 -1.89635,7.07906 l -0.50524,1.43227 -0.59098,1.72833 c -0.12642,0.29497 -0.21032,0.63108 -0.21032,0.96819 0,0.0843 1.5e-4,0.16949 0.0423,0.25376 -0.006,0.18143 0.1229,0.35092 0.29262,0.35092 l 0.002,-0.0137 c 0.0422,0.0421 0.0837,0.0412 0.16803,0.0412 0.16856,0 0.33767,-0.0417 0.46409,-0.21033 0.84277,-0.96918 1.60066,-1.89651 2.31701,-2.86569 0.5478,-0.67421 1.01235,-1.39033 1.51801,-2.10668 0.37924,-0.58994 0.75827,-1.22184 1.17966,-1.81178 0.42137,-0.58994 0.80024,-1.22199 1.13735,-1.85407 0.5478,-1.01131 1.05349,-1.9388 1.55915,-2.90798 0.33711,-0.67421 0.63259,-1.5167 0.75901,-2.4016 0.12641,-0.46353 0.21079,-0.96891 0.33721,-1.47456 0.0843,-0.2107 0.12573,-0.50634 0.12573,-0.8013 0,-0.42139 -0.16798,-0.84255 -0.46294,-1.17966 l -1.05392,-1.17965 -1.26424,-0.96933 c -0.25282,-0.25282 -0.54763,-0.3795 -0.88474,-0.3795 z m 16.92552,26.95942 c -0.22123,-0.0263 -0.45344,0.005 -0.66413,0.0892 l -1.26424,0.46409 -1.72718,1.05277 c -0.21069,0.12642 -0.37898,0.2534 -0.54753,0.46409 -0.29498,0.37924 -0.58962,0.75811 -0.84246,1.13736 l -0.25376,0.3795 -0.54752,0.71556 -4.25567,4.63518 -0.96934,1.01162 -1.55915,1.39112 -1.26425,1.13735 -1.34882,1.05392 -1.13735,1.05277 c -0.12642,0.16856 -0.21033,0.37914 -0.21033,0.58983 -0.0421,0.33711 1.5e-4,0.67451 0.0423,1.01162 0.12641,1.4327 0.42054,2.90802 1.01047,4.46714 1.13774,3.20251 2.19112,6.40472 3.07602,9.52296 0.75849,2.8654 1.26487,5.77296 1.43342,8.6805 0.0421,0.92705 0.25303,1.76916 0.67441,2.61193 0.50566,1.09559 1.13756,2.10799 1.81177,3.07716 0.80063,1.09561 1.43223,2.35956 1.72719,3.66585 l 0.21147,0.75784 -3.75043,2.23357 -1.93866,0.46411 -0.96932,0.29491 -0.25262,0.16802 -5.18271,3.54009 0.005,0 2.27014,0.42067 1.89637,0.37949 2.78111,0.54756 1.81176,0.4218 2.8657,0.46293 3.5824,0.1692 3.07601,-0.0846 c 1.01132,-0.16855 1.97995,-0.2952 2.94913,-0.37947 0.63208,-0.0421 1.30658,-0.16768 1.93865,-0.37838 0.63208,-0.16854 1.09507,-0.71705 1.09507,-1.4334 l 0,-0.0421 c 0,-0.29498 0.0426,-0.58994 0.12688,-0.92704 0.12642,-0.71636 0.75837,-1.26357 1.51686,-1.38999 0.80063,-0.0843 1.60083,-0.29467 2.35931,-0.5475 0.88491,-0.29497 1.55993,-1.01161 1.77062,-1.93865 0.25283,-0.92706 0.37836,-1.89652 0.37836,-2.86571 0,-1.01131 -0.12569,-2.0224 -0.42065,-3.03371 -0.0421,-0.2107 -0.2534,-0.37951 -0.46409,-0.37951 l -1.01048,-0.0423 c -0.0843,0.0421 -0.16948,0.0423 -0.25376,0.0423 -0.42139,0 -0.8003,-0.29485 -0.84245,-0.58982 -0.25282,-1.17988 -0.46289,-2.27512 -0.75785,-3.62355 -0.50566,-2.27547 -0.80161,-4.59343 -0.88589,-6.91103 -0.0421,-1.4327 -0.25272,-2.82282 -0.58983,-4.21337 -0.50565,-1.98051 -1.22209,-3.87714 -2.19127,-5.68909 -0.37924,-0.67421 -0.71551,-1.39049 -1.01047,-2.14899 -0.37926,-1.01131 -0.54869,-2.1073 -0.54869,-3.20289 0,-0.37924 1.6e-4,-0.75811 0.0423,-1.13737 0.12642,-0.96917 0.21147,-1.93895 0.21147,-2.95026 0,-1.05346 -0.0851,-2.10616 -0.21147,-3.20176 l -0.63212,-4.46714 -0.25262,-2.23356 -0.21032,-2.27473 c -0.16856,-0.6742 -0.54841,-1.34923 -1.09621,-1.77062 -0.16855,-0.14748 -0.37889,-0.23085 -0.60012,-0.25719 z m -35.63879,7.25396 -1.81178,0.75785 -0.842443,0.4641 -0.884749,0.54752 -0.969325,0.50639 -1.306527,0.67327 -1.221951,0.58983 -1.179646,0.59096 -1.096218,0.58983 -1.516859,0.92703 -1.221952,0.88474 -1.306527,0.96934 -1.137363,0.96932 -1.769486,1.76948 -2.065531,1.72719 c -1.306284,1.22201 -2.780827,2.19116 -4.255671,2.7811 -1.222009,0.50566 -2.444088,1.01182 -4.045338,1.68603 -1.854085,0.80063 -3.749734,1.39039 -5.730236,1.81178 l -2.907986,0.63212 -1.060764,0.20347 c 2.485616,2.31736 4.508726,5.01443 6.109732,7.92151 l 0.462948,0.88474 0.547523,1.09507 0.801297,1.76947 1.09507,2.23357 0.759004,1.22195 1.609447,2.45304 1.011619,1.47457 1.137363,1.64374 1.052765,1.68487 1.896367,2.69656 c 0.758494,0.71635 1.475598,1.51785 2.065542,2.1078 0.800626,0.8849 1.896287,1.47419 3.118307,1.68488 0.589933,0.12642 1.221673,0.29538 1.769475,0.42179 1.306295,0.37924 2.697074,0.5474 4.087632,0.50526 2.064777,-0.0421 4.044503,-0.29433 5.982863,-0.75785 1.896216,-0.46353 3.750255,-0.8011 5.562197,-1.05392 0.927054,-0.12642 1.896356,-0.16803 2.823399,-0.16803 1.643392,0 3.202782,0.16826 4.719752,0.5475 l 1.17966,0.25266 -0.29491,-1.13738 0,-0.12689 c 0,-0.29496 0.16896,-0.59029 0.42179,-0.71671 l 3.4978,-1.97979 0.29492,-0.46411 1.55916,-2.48616 c 0.0843,-0.16855 0.12573,-0.37912 0.12573,-0.58982 l 0,-0.16802 c -0.16855,-1.13776 -0.63148,-2.19113 -1.38998,-3.07604 -0.3371,-0.42138 -0.8856,-0.63197 -1.43341,-0.58982 -0.12641,0.0421 -0.29423,0.0412 -0.42065,0.0412 -0.80062,0 -1.55951,-0.16828 -2.27586,-0.54754 -0.29497,-0.1264 -0.58962,-0.33699 -0.84245,-0.58981 -0.67422,-0.71635 -1.09584,-1.55916 -1.30654,-2.4862 l -0.3372,-1.81177 -1.26424,-5.73138 -0.58983,-2.27472 -0.884739,-3.03372 -1.179657,-4.76204 -1.391126,-4.63517 -0.08452,-0.37951 -0.08347,-0.37951 -3.58239,-9.77557 z m -36.330352,19.08135 -0.0012,-0.001 -0.04,0 0.007,0.008 0.03432,-0.007 z"
       id="polygon45984"
       inkscape:connector-curvature="0"
       sodipodi:nodetypes="cccccccccscccccccccccscsccccccccccscsccccccccscccccccccccccccccccccccccccccccccccccccccccccccsscccccccscscccccccscccccccccccccccccsssccccccccccccccccccccccccccscccsccccccccscccccccccccccccccccccccccccccccccccccccccccssccscscccsccccccscsccccccccccccccccccccccccccccccccccccccccccccscccsccccscccsccccccccccccccccccc" />
  </g>
</svg>
