<?xml version="1.0" encoding="UTF-8" standalone="no"?>
<!-- Created with Inkscape (http://www.inkscape.org/) -->

<svg
   xmlns:dc="http://purl.org/dc/elements/1.1/"
   xmlns:cc="http://creativecommons.org/ns#"
   xmlns:rdf="http://www.w3.org/1999/02/22-rdf-syntax-ns#"
   xmlns:svg="http://www.w3.org/2000/svg"
   xmlns="http://www.w3.org/2000/svg"
   xmlns:sodipodi="http://sodipodi.sourceforge.net/DTD/sodipodi-0.dtd"
   xmlns:inkscape="http://www.inkscape.org/namespaces/inkscape"
   width="62mm"
   height="88mm"
   viewBox="0 0 219.68504 311.81102"
   id="svg2"
   version="1.1"
   inkscape:version="0.91 r13725"
   sodipodi:docname="e2_escape1.svg">
  <defs
     id="defs4">
    <inkscape:perspective
       sodipodi:type="inkscape:persp3d"
       inkscape:vp_x="0 : 155.90551 : 1"
       inkscape:vp_y="0 : 1000 : 0"
       inkscape:vp_z="219.68504 : 155.90551 : 1"
       inkscape:persp3d-origin="109.84252 : 103.93701 : 1"
       id="perspective6315" />
    <clipPath
       clipPathUnits="userSpaceOnUse"
       id="clipPath8648">
      <path
         style="fill:#ff0000;fill-opacity:1;fill-rule:evenodd;stroke:none;stroke-width:1px;stroke-linecap:butt;stroke-linejoin:miter;stroke-opacity:1"
         d="m 48.7971,144.54832 -4.54568,-1.2627 -4.04062,0.50508 -4.79822,3.40927 -5.93465,4.29314 -2.0203,2.90419 0.12627,2.65165 2.65165,2.14658 -1.01015,1.76776 -3.283,1.26269 -3.40926,8.08123 6.31345,9.34391 10.35406,-0.75762 46.21448,3.91434 25.50635,-7.19733 9.47018,-5.05077 0.12627,-10.10152 -2.65165,-1.13642 0.88389,-15.15229 10.35406,-6.9448 3.28299,-3.91434 6.566,-7.82868 0.50507,-4.54569 -4.54568,-1.89404 -2.14658,1.01016 -4.16688,1.13642 -5.93464,-2.90419 -2.77792,-1.76777 -5.80838,2.39911 -2.90419,3.03046 -3.40926,4.9245 -7.07107,0.3788 -8.96511,5.80838 -2.90418,2.14657 -3.66181,0.12627 -5.55584,-0.3788 -17.29886,2.65165 z"
         id="path8650"
         inkscape:connector-curvature="0" />
    </clipPath>
    <mask
       maskUnits="userSpaceOnUse"
       id="mask8666">
      <rect
         rx="1.7260212"
         ry="2.8714814"
         y="98.924339"
         x="22.885082"
         height="109.83415"
         width="100.10923"
         id="rect8668"
         style="opacity:1;fill:#ffffff;fill-opacity:1;stroke:none;stroke-width:2.01114893;stroke-linecap:round;stroke-linejoin:bevel;stroke-miterlimit:4;stroke-dasharray:none;stroke-dashoffset:0;stroke-opacity:1" />
    </mask>
    <clipPath
       clipPathUnits="userSpaceOnUse"
       id="clipPath9647">
      <path
         style="fill:#ff0000;fill-opacity:1;fill-rule:evenodd;stroke:none;stroke-width:1px;stroke-linecap:butt;stroke-linejoin:miter;stroke-opacity:1"
         d="m 24.29467,289.85466 12.14286,-9.28572 41.42857,-15.71428 40,-5 20,5 2.85715,7.14285 9.28571,6.42858 10,1.42857 -3.57143,13.57143 -15.71428,10 -27.85715,5.71428 -74.28571,1.42857 z"
         id="path9649"
         inkscape:connector-curvature="0" />
    </clipPath>
    <inkscape:path-effect
       pattern-nodetypes="sssss"
       fuse_tolerance="0"
       vertical_pattern="false"
       prop_units="false"
       tang_offset="0"
       normal_offset="0"
       spacing="0"
       scale_y_rel="false"
       prop_scale="1"
       copytype="single_stretched"
       pattern="M 0,5 C 0,2.24 2.24,0 5,0 7.76,0 7,0.24 7,3 7,5.76 7.76,5.75 5,5.75 2.24,5.75 0,7.76 0,5 Z"
       is_visible="true"
       id="path-effect20326"
       effect="skeletal" />
    <clipPath
       clipPathUnits="userSpaceOnUse"
       id="clipPath7877">
      <path
         style="fill:#ff0000;fill-opacity:1;fill-rule:evenodd;stroke:none;stroke-width:1px;stroke-linecap:butt;stroke-linejoin:miter;stroke-opacity:1"
         d="m 1349.8263,623.67274 -143.5316,10.50232 -77.0169,-21.00459 -119.0262,66.51457 -91.01997,38.50849 -189.04149,-14.00311 -31.50696,-80.51768 -52.51151,-94.52074 -49.01077,-77.01694 -45.51,-31.50692 -38.50846,31.50692 -21.00461,24.50538 -87.51923,56.0123 L 264.58784,578.16276 121.05631,581.6635 110.554,564.1597 96.550923,357.61431 103.55246,4.0366248 142.06092,-23.9695 l 304.56691,3.500741 59.51307,3.50079 171.53769,-10.502321 115.52538,0 38.50845,28.00617372 38.50844,3.50074108 224.04924,-28.0061248 101.5223,35.007656 91.02,87.519261 -3.5008,140.030723 3.5008,238.0523 7.0016,45.51003 3.5007,112.02459 z"
         id="path7879"
         inkscape:connector-curvature="0" />
    </clipPath>
    <filter
       style="color-interpolation-filters:sRGB"
       id="filter8486"
       inkscape:label="filter1" />
    <clipPath
       clipPathUnits="userSpaceOnUse"
       id="clipPath8513">
      <path
         style="fill:#ff0000;fill-opacity:1;fill-rule:evenodd;stroke:none;stroke-width:1px;stroke-linecap:butt;stroke-linejoin:miter;stroke-opacity:1"
         d="m 1037.9071,144.02626 13.0113,78.06757 -32.5282,52.04505 -117.10134,39.03376 -175.65205,19.5169 -149.62954,13.0113 -71.56195,-45.53943 -65.05628,-110.59572 143.12385,-84.57325 52.04505,-39.033754 6.50568,-39.033819 39.03375,-13.01123 78.06757,-13.01129406 221.19149,-6.50561504 z"
         id="path8515"
         inkscape:connector-curvature="0" />
    </clipPath>
    <clipPath
       clipPathUnits="userSpaceOnUse"
       id="clipPath8513-1">
      <path
         style="fill:#ff0000;fill-opacity:1;fill-rule:evenodd;stroke:none;stroke-width:1px;stroke-linecap:butt;stroke-linejoin:miter;stroke-opacity:1"
         d="m 1037.9071,144.02626 13.0113,78.06757 -32.5282,52.04505 -117.10134,39.03376 -175.65205,19.5169 -149.62954,13.0113 -71.56195,-45.53943 -65.05628,-110.59572 143.12385,-84.57325 52.04505,-39.033754 6.50568,-39.033819 39.03375,-13.01123 78.06757,-13.01129406 221.19149,-6.50561504 z"
         id="path8515-4"
         inkscape:connector-curvature="0" />
    </clipPath>
    <clipPath
       clipPathUnits="userSpaceOnUse"
       id="clipPath8565">
      <path
         style="fill:#ff0000;fill-opacity:1;fill-rule:evenodd;stroke:none;stroke-width:1px;stroke-linecap:butt;stroke-linejoin:miter;stroke-opacity:1"
         d="m 1037.9071,144.02626 13.0113,78.06757 -32.5282,52.04505 -117.10134,39.03376 -175.65205,19.5169 -149.62954,13.0113 -71.56195,-45.53943 -65.05628,-110.59572 143.12385,-84.57325 52.04505,-39.033754 6.50568,-39.033819 39.03375,-13.01123 78.06757,-13.01129406 221.19149,-6.50561504 z"
         id="path8567"
         inkscape:connector-curvature="0" />
    </clipPath>
    <clipPath
       clipPathUnits="userSpaceOnUse"
       id="clipPath8637">
      <rect
         style="opacity:1;fill:#ff0000;fill-opacity:1;stroke:none;stroke-width:8.10000038;stroke-linecap:round;stroke-linejoin:bevel;stroke-miterlimit:4;stroke-dasharray:none;stroke-dashoffset:0;stroke-opacity:1"
         id="rect8639"
         width="193.57143"
         height="132.14285"
         x="-219.99998"
         y="776.64789" />
    </clipPath>
    <clipPath
       clipPathUnits="userSpaceOnUse"
       id="clipPath8741">
      <path
         style="fill:#ff0000;fill-opacity:1;fill-rule:evenodd;stroke:none;stroke-width:1px;stroke-linecap:butt;stroke-linejoin:miter;stroke-opacity:1"
         d="m -26.77703,99.03193 15.71429,-5.71429 45.71428,12.85714 57.14286,17.14286 74.28571,27.14285 25.71429,21.42857 100,30 44.28571,32.85715 60,-8.57143 28.57143,17.14286 27.14286,8.57142 48.57143,-14.28571 102.85714,7.14286 -4.28571,-187.14286 -7.14286,-12.85714 -37.14286,5.71428 -22.85714,2.85715 -51.42857,0 -67.14286,0 -22.85714,-1.42858 -14.28572,8.57143 -92.85714,0 -72.85714,-4.28571 -51.42857,5.71428 -37.14286,-2.85714 -32.85714,-2.85714 -32.85715,0 -38.57142,-4.28572 -48.57143,5.71429 z"
         id="path8743"
         inkscape:connector-curvature="0"
         sodipodi:nodetypes="cccccccccccccccccccccccccccccc" />
    </clipPath>
    <clipPath
       clipPathUnits="userSpaceOnUse"
       id="clipPath20203">
      <rect
         style="opacity:1;fill:#ff0000;fill-opacity:1;stroke:none;stroke-width:8.10000038;stroke-linecap:round;stroke-linejoin:bevel;stroke-miterlimit:4;stroke-dasharray:none;stroke-dashoffset:0;stroke-opacity:1"
         id="rect20205"
         width="17069.842"
         height="17666.689"
         x="2366.7041"
         y="-21212.371"
         transform="scale(1,-1)" />
    </clipPath>
    <clipPath
       clipPathUnits="userSpaceOnUse"
       id="clipPath16200">
      <rect
         style="opacity:1;fill:#ff0000;fill-opacity:1;stroke:none;stroke-width:8.10000038;stroke-linecap:round;stroke-linejoin:bevel;stroke-miterlimit:4;stroke-dasharray:none;stroke-dashoffset:0;stroke-opacity:1"
         id="rect16202"
         width="104.38721"
         height="73.647415"
         x="14.41088"
         y="-11.355354" />
    </clipPath>
  </defs>
  <sodipodi:namedview
     id="base"
     pagecolor="#ffffff"
     bordercolor="#666666"
     borderopacity="1.0"
     inkscape:pageopacity="0.0"
     inkscape:pageshadow="2"
     inkscape:zoom="2.8"
     inkscape:cx="114.92577"
     inkscape:cy="219.79391"
     inkscape:document-units="px"
     inkscape:current-layer="layer1"
     showgrid="false"
     inkscape:window-width="1920"
     inkscape:window-height="1026"
     inkscape:window-x="-2"
     inkscape:window-y="31"
     inkscape:window-maximized="1" />
  <metadata
     id="metadata7">
    <rdf:RDF>
      <cc:Work
         rdf:about="">
        <dc:format>image/svg+xml</dc:format>
        <dc:type
           rdf:resource="http://purl.org/dc/dcmitype/StillImage" />
        <dc:title></dc:title>
      </cc:Work>
    </rdf:RDF>
  </metadata>
  <g
     inkscape:label="Layer 1"
     inkscape:groupmode="layer"
     id="layer1"
     transform="translate(0,-740.55118)">
    <text
       xml:space="preserve"
       style="font-style:normal;font-weight:normal;font-size:19.57834816px;line-height:125%;font-family:Sans;letter-spacing:0px;word-spacing:0px;fill:#000000;fill-opacity:1;stroke:none;stroke-width:1px;stroke-linecap:butt;stroke-linejoin:miter;stroke-opacity:1"
       x="14.324148"
       y="763.8302"
       id="text6317"
       sodipodi:linespacing="125%"><tspan
         sodipodi:role="line"
         id="tspan6319"
         x="14.324148"
         y="763.8302"
         style="font-style:normal;font-variant:normal;font-weight:500;font-stretch:normal;font-family:Orbitron;-inkscape-font-specification:'Orbitron Medium'">E</tspan></text>
    <flowRoot
       xml:space="preserve"
       id="flowRoot9634"
       style="font-style:normal;font-weight:normal;font-size:74.43455505px;line-height:125%;font-family:Sans;letter-spacing:0px;word-spacing:0px;fill:#000000;fill-opacity:1;stroke:none;stroke-width:1px;stroke-linecap:butt;stroke-linejoin:miter;stroke-opacity:1"><flowRegion
         id="flowRegion9636"><rect
           id="rect9638"
           width="377.48953"
           height="171.46532"
           x="55.267651"
           y="984.81555" /></flowRegion><flowPara
         id="flowPara9642"
         style="font-style:normal;font-variant:normal;font-weight:500;font-stretch:normal;font-size:37.21727753px;font-family:Essays1743;-inkscape-font-specification:'Essays1743 Medium'">Escape</flowPara></flowRoot>    <text
       sodipodi:linespacing="125%"
       id="text11126"
       y="763.95245"
       x="31.134911"
       style="font-style:normal;font-weight:normal;font-size:22.05662727px;line-height:125%;font-family:Sans;letter-spacing:0px;word-spacing:0px;fill:#000000;fill-opacity:1;stroke:none;stroke-width:1px;stroke-linecap:butt;stroke-linejoin:miter;stroke-opacity:1"
       xml:space="preserve"><tspan
         style="font-style:normal;font-variant:normal;font-weight:normal;font-stretch:normal;font-size:15px;font-family:'Ubuntu Condensed';-inkscape-font-specification:'Ubuntu Condensed, '"
         y="763.95245"
         x="31.134911"
         id="tspan11128"
         sodipodi:role="line">2</tspan></text>
    <text
       xml:space="preserve"
       style="font-style:normal;font-weight:normal;font-size:22.05662727px;line-height:125%;font-family:Sans;letter-spacing:0px;word-spacing:0px;fill:#000000;fill-opacity:1;stroke:none;stroke-width:1px;stroke-linecap:butt;stroke-linejoin:miter;stroke-opacity:1"
       x="172.7218"
       y="766.13867"
       id="text6305"
       sodipodi:linespacing="125%"><tspan
         sodipodi:role="line"
         id="tspan6307"
         x="172.7218"
         y="766.13867"
         style="font-style:normal;font-variant:normal;font-weight:normal;font-stretch:normal;font-size:15px;font-family:'Ubuntu Condensed';-inkscape-font-specification:'Ubuntu Condensed, '">END!</tspan></text>
    <g
       style="fill:#000000;fill-opacity:1"
       id="g3768"
       transform="matrix(0.34826896,-0.04623254,0.03213457,0.24206917,50.680465,886.27556)">
      <g
         id="g3763"
         style="fill:#000000;fill-opacity:1">
        <path
           style="fill:#000000;fill-opacity:1"
           d="m 250.394,217.58276 c -0.79999,-0.9625 -2.33223,-3.46843 -3.40499,-5.56874 -6.89816,-0.96162 3.81605,-23.67255 1.75296,-34.77794 -0.89964,-3.54429 -0.69996,-4.76039 1.59713,-9.72702 3.81671,-8.25228 3.57191,-21.197 -0.70674,-37.37255 -3.44332,-13.01755 -4.0899,-25.88702 -1.95122,-38.837174 1.0433,-6.31744 0.91533,-7.85496 -1.47261,-17.692628 -3.92254,-16.15984 -5.50735,-31.07593 -6.27473,-59.05706 -0.38137,-13.90570956 -1.02533,-25.48826 -1.43102,-25.73899 -1.58194,-0.97769 -2.7417,2.3390904 -3.32953,9.5221004 -0.86573,10.57878 -2.08053,17.6170296 -3.30855,19.1689996 -0.57926,0.73205 -1.33824,7.406 -1.68664,14.831 -0.37043,7.89436 -1.46519,16.95197 -2.63649,21.81335 -2.69377,11.18014 -2.63698,21.394508 0.15631,28.115918 2.08134,5.00825 2.11135,5.60016 0.83065,16.38335 -0.73079,6.153064 -1.39635,15.012384 -1.47902,19.687384 -0.25726,14.54774 -3.59818,25 -7.99091,25 -0.77112,0 -1.68015,-0.45 -2.02007,-1 -0.33992,-0.55 -1.96684,-1 -3.61538,-1 -3.30172,0 -7.7494,-4.08795 -10.30336,-9.47 -1.92214,-4.05061 -0.64347,-14.46194 2.95124,-24.03 4.34964,-11.577444 5.22742,-15.846744 5.27203,-25.641834 0.0393,-8.625978 -0.34238,-10.498638 -4.87813,-23.934528 -6.22123,-18.42863 -7.04266,-24.9863 -3.93419,-31.40753 2.12723,-4.39427 2.18956,-5.11001 1.07473,-12.34047 -0.65091,-4.2216 -3.44406,-14.34922956 -6.20698,-22.5058396 -4.47551,-13.2124104 -4.96862,-15.5032504 -4.52037,-21.0000004 1.42832,-17.51503 2.57485,-27.63891 3.53421,-31.20708 1.72925,-6.43166 1.86717,-44.572708 0.19603,-54.212718 -0.7866,-4.5375 -1.72566,-8.25 -2.0868,-8.25 -0.68735,0 -9.98303,13.11467 -9.98303,14.0844 0,0.30679 2.07605,2.72448 4.61344,5.37265 4.13772,4.318358 4.56061,5.187498 4.1012,8.428898 -0.88564,6.24864 -2.43535,9.01164 -5.42927,9.67994 -1.53195,0.34197 -4.34327,1.32092 -6.24737,2.17545 -3.28635,1.47487 -3.69227,1.43205 -8,-0.84382 l -4.538,-2.39752 -0.28724,-9.22835 c -0.22578,-7.253908 0.0664,-9.768058 1.36561,-11.750908 1.29564,-1.97739 1.79956,-6.26065 2.33166,-19.81885 0.64888,-16.53343 0.79296,-17.44857 3.26683,-20.74909 1.4234,-1.89904 4.61993,-7.7278 7.1034,-12.9528 4.40862,-9.27536 4.50304,-9.68071 3.99298,-17.14217 -0.4508,-6.59456 -0.22386,-8.17337 1.65546,-11.51718 2.76979,-4.92816 7.15974,-7.85362 13.87052,-9.24329 7.79582,-1.61435 9.4497,-1.39967 14.29707,1.85587 5.42439,3.64306 6.82988,2.74738 5.03459,-3.20843 -0.70374,-2.33464 -1.77997,-6.65497 -2.39161,-9.60073 -0.97728,-4.7067 -0.90766,-5.47032 0.57433,-6.29969 1.14243,-0.63933 1.6864,-2.23084 1.6864,-4.93391 0,-4.41423 2.64262,-10.37535 5.90909,-13.32948 2.28283,-2.06454 11.07768,-3.30309 15.52639,-2.18654 3.54568,0.88991 9.60614,6.46088 11.21349,10.30781 0.74307,1.77843 1.35104,4.76786 1.35104,6.64318 0,1.87532 0.675,3.96987 1.5,4.65456 2.24131,1.86013 1.81647,6.64789 -1.05865,11.93043 -2.03569,3.74023 -2.49556,5.81178 -2.25,10.13533 0.30095,5.29869 0.42868,5.50908 5.12027,8.43424 2.64639,1.65 10.415,7.90718 17.26356,13.90484 14.45579,12.65971 18.07801,18.32605 19.39721,30.3436 0.487,4.43653 1.86165,9.13294 3.89036,13.29126 1.72549,3.53679 3.13725,7.22356 3.13725,8.19284 0,0.96927 1.85856,7.05097 4.13014,13.51488 5.95419,16.943068 6.01424,18.343488 1.00144,23.356288 -3.86936,3.86937 -4.30029,4.04358 -8.32137,3.36422 -6.91731,-1.16867 -16.02467,-6.067 -18.5694,-9.98741 -2.26283,-3.48612 -5.18861,-4.43407 -8.06211,-2.61212 -1.74688,1.10761 0.0241,17.81655 2.75032,25.94825 1.04794,3.12584 2.40606,9.50835 3.01802,14.18335 0.61196,4.675 1.81878,13.53412 2.68182,19.68694 1.82229,12.99158 1.27165,20.35609 -3.72446,49.81306 -4.68593,27.62813 -4.8628,29.15766 -4.88429,42.2375 -0.0162,9.86695 0.46417,14.101388 2.47989,21.859478 3.79295,14.59827 3.47119,28.735504 -1.64216,53.931994 -0.85951,31.02631 -7.12479,43.9714 4.98076,62.36465 1.38762,1.67198 -0.5037,10.99133 -7.97062,17.12357 -3.31141,2.71951 -4.29078,2.98281 -11.09501,2.98281 -5.88685,0 -7.77018,-0.36959 -8.91751,-1.75 z m 31.46448,-323.875 c -0.63247,-3.07355 -5.50019,-12.38163 -6.23693,-11.9263 -0.49269,0.3045 -1.58409,2.57365 -2.42533,5.04257 l -1.52954,4.48893 4.18593,1.9208 c 4.20698,1.93045 6.34023,2.09882 6.00587,0.474 z"
           id="path2993"
           inkscape:connector-curvature="0"
           sodipodi:nodetypes="sccssssssssssssssssssssssssssssssssscssssssssssssssssssssssssssssssssssssccsssssscss" />
        <path
           style="fill:#000000;fill-opacity:1"
           d="m 261.75019,215.77376 c -0.29125,-0.29124 -3.40375,-0.7114 -6.91667,-0.93369 -4.94323,-0.31279 -6.46443,-0.78007 -6.72905,-2.06702 -0.24733,-1.20287 0.16762,-1.51775 1.5,-1.13827 1.01306,0.28853 4.57942,0.81746 7.92525,1.1754 4.28546,0.45847 6.08334,1.07082 6.08334,2.07196 0,1.43696 -0.89105,1.86344 -1.86287,0.89162 z m 1.64605,-5.08086 c -1.47316,-0.76428 -4.05758,-1.3896 -5.74316,-1.3896 -1.68558,0 -4.5155,-0.52462 -6.2887,-1.16582 -2.91067,-1.05251 -3.12065,-1.39267 -2.16049,-3.5 1.02921,-2.25887 2.7425,-3.1976 2.7425,-1.50266 0,0.97434 9.10671,3.22057 10.23351,2.52417 1.30165,-0.80447 0.84652,-3.111 -0.73351,-3.71732 -0.825,-0.31658 -1.5,-1.22719 -1.5,-2.02358 0,-0.79639 -1.2375,-2.37816 -2.75,-3.51506 -2.74878,-2.06617 -2.749,-2.06737 -0.5,-2.70004 1.2375,-0.34812 2.25,-0.99781 2.25,-1.44374 0,-1.11294 -4.99668,-4.95595 -6.44373,-4.95595 -0.64571,0 -1.98788,-0.59512 -2.98262,-1.32249 -1.72225,-1.25934 -1.72653,-1.4812 -0.0895,-4.64683 1.65029,-3.19131 1.6383,-3.46856 -0.29951,-6.92752 l -0.0375,-3.60316 0.14707,-4 c 0.17323,-4.71175 2.13287,-5.68379 2.16699,-18 0.0294,-10.61972 0.36916,-14.2591 1.40709,-15.07309 2.17596,-1.70649 0.40003,-7.13423 -3.49356,-10.67732 l -3.43997,-3.13029 0.58609,-15.55965 c 0.76843,-20.400575 0.76935,-25.177185 0.006,-33.559645 -0.47932,-5.26631 -0.20937,-8.36219 1.08996,-12.5 2.34368,-7.46362 1.90733,-28.06289 -0.67804,-32.00861 -1.94175,-2.96345 -3.93659,1.78531 -3.96961,9.44974 -0.0236,5.47592 -0.26885,6.6488 -1.09368,5.23026 -1.48352,-2.55135 -0.35032,-19.11956 2.10263,-30.74193 2.5219,-11.9490812 2.50012,-15.7741512 -0.10766,-18.9086212 -1.9493,-2.3429898 -2.1348,-2.3803898 -3.37744,-0.68098 -1.24931,1.70853 -1.34759,1.69502 -1.97154,-0.27084 -0.36077,-1.1379598 -0.37063,-2.9690198 -0.0215,-4.0690188 0.84798,-2.67175 -1.24257,-2.60283 -3.60301,0.11878 -2.45905,2.835299 -2.63573,3.6717288 -3.4203,16.1921588 -0.57452,9.1683412 -1.01748,11.2062412 -2.91538,13.4126812 -2.11568,2.45963 -2.47858,2.54065 -6.64393,1.48338 -2.4233,-0.6151 -4.71674,-0.80081 -5.09652,-0.41268 -1.50785,1.54097 2.10071,12.44842 5.60747,16.9495 4.13595,5.30867 4.30579,7.14724 1.57167,17.01362 -1.1,3.96948 -2,8.98613 -2,11.14811 0,6.36162 -1.39107,8.41163 -2.0998,3.09445 -0.44409,-3.33171 -0.6388,-2.07854 -0.75,4.82692 -0.14953,9.28547 -0.13575,9.34103 3.0998,12.5 l 3.25,3.17308 -0.28334,9.77261 c -0.15585,5.374935 -0.72483,10.933775 -1.2644,12.352975 -0.53958,1.4192 -0.929,6.47152 -0.86538,11.22739 0.16954,12.67281 -3.52463,23.84861 -7.14382,21.61183 -0.6697,-0.4139 -0.90568,-1.90167 -0.5688,-3.58609 0.70864,-3.54319 -0.59279,-3.72034 -2.7823,-0.37872 -2.09261,3.19373 -2.86554,3.14268 -6.52102,-0.43066 -3.19295,-3.12121 -4.86725,-7.45916 -3.2619,-8.45132 0.5341,-0.33009 0.82346,-3.61042 0.64304,-7.28963 -0.35742,-7.2884 0.5887,-10.17359 5.51839,-16.82839 1.6297,-2.2 2.97804,-4.831989 2.99631,-5.848869 0.0183,-1.016876 0.75777,-3.375726 1.64332,-5.241896 1.76643,-3.72247 1.20108,-6.93448 -1.06733,-6.06401 -1.9938,0.76509 -2.87986,-2.57885 -2.64213,-9.97126 0.16206,-5.03952 -0.70242,-8.79928 -4.87412,-21.19827 -5.89384,-17.51748 -6.57217,-24.22563 -3.13166,-30.96958 1.15783,-2.26954 2.10514,-4.77058 2.10514,-5.55786 0,-0.78729 1.2375,-1.73558 2.75,-2.10732 4.20341,-1.03311 10.25,-7.3895613 10.25,-10.7752612 0,-3.80636 -2.21296,-4.41521 -6.47461,-1.78136 -2.35376,1.45471 -3.52539,2.9310399 -3.52539,4.4422599 0,1.2449 -0.9,3.0779413 -2,4.0734313 -1.95653,1.77064 -2,1.74663 -2,-1.10447 0,-1.8314313 0.7432,-3.3785713 2,-4.1634613 2.69404,-1.6824499 2.53027,-5.2521299 -0.51684,-11.2653099 -1.76302,-3.47915 -3.12023,-4.96676 -4.53139,-4.96676 -2.57336,0 -3.30662,-1.9364698 -2.01733,-5.3275488 1.16443,-3.06269 2.84512,-3.47671 3.74459,-0.92245 1.76144,5.0020488 6.88279,14.74999878 7.74931,14.74999878 0.68465,0 9.57166,-5.75889998 9.57166,-6.20256998 0,-0.2269 -1.125,-2.42761 -2.5,-4.8904698 -3.44857,-6.176989 -3.25439,-8.002879 1.00045,-9.407109 4.45346,-1.46977 5.17695,-4.15788 3.06986,-11.40602 -2.86753,-9.86393 -8.82754,-13.21545 -11.59969,-6.52289 -0.68447,1.65244 -1.74536,2.84057 -2.35755,2.64029 -0.61219,-0.20028 -2.17813,-3.25474 -3.47987,-6.78769 -1.92051,-5.2123 -2.39191,-8.54464 -2.5,-17.6723 -0.1098,-9.27253 -0.39673,-11.24898 -1.63323,-11.25 -1.26045,-0.001 -1.53375,-2.50205 -1.71116,-15.65958 -0.11612,-8.61208 0.0365,-16.058935 0.33906,-16.548555 0.3026,-0.48963 1.18287,-0.36514 1.95616,0.27662 1.08876,0.90359 1.97112,0.79654 3.91097,-0.47449 1.37775,-0.90274 2.53332,-1.74347 2.56792,-1.86829 0.0346,-0.12482 0.53696,-4.05195 1.11634,-8.72695 1.89499,-15.29064 1.1926,-28.74894 -1.76108,-33.74368 -3.00745,-5.08566 -6.08979,-3.83031 -5.56454,2.26629 0.15492,1.79811 -0.99289,5.70592 -2.79458,9.5144 -1.68161,3.55464 -3.05783,7.22813 -3.05827,8.1633 -4.3e-4,0.93517 -0.6423,2.06017 -1.42638,2.5 -1.69729,0.95211 -11.57441,15.31325 -11.57441,16.82898 0,0.57986 2.025,3.04168 4.5,5.47071 3.10647,3.04877 4.5,5.243045 4.5,7.085765 0,2.95509 -2.50423,5.90154 -3.21177,3.77893 -0.22344,-0.67034 -0.9422,-0.88756 -1.59724,-0.48272 -1.85609,1.14712 -1.40155,2.61803 0.80901,2.61803 1.1,0 2,0.36 2,0.8 0,1.55197 -2.42753,3.2 -4.71357,3.2 -1.27246,0 -3.10575,0.49473 -4.07399,1.0994 -1.28735,0.80397 -2.93158,0.78404 -6.11868,-0.0742 l -4.35826,-1.17356 0.5593,-5.41901 c 0.30893,-2.99325 1.44435,-6.66197 2.53646,-8.195705 2.48794,-3.49399 3.84406,-11.71835 2.24913,-13.64012 -0.88351,-1.06456 -0.7779,-1.75649 0.45652,-2.99091 0.88327,-0.88322 1.95158,-1.6059 2.37401,-1.6059 1.54832,0 3.08908,-5.23585 3.08908,-10.49736 0,-3.22944 0.5029,-5.72499 1.25,-6.20295 1.99271,-1.27484 4.75,-7.2107 4.75,-10.22574 0,-3.8093 -3.16087,-6.59341 -5.85107,-5.15365 -4.50795,2.41258 -4.24978,0.535 1.58624,-11.5364 4.59368,-9.50169 4.72971,-10.04727 4.55243,-18.25839 -0.19842,-9.19021 0.96238,-12.09361 6.2097,-15.53178 3.11661,-2.04208 3.48869,4.212 6.69294,5.01621 -1.03762,-6.32003 46.27316,3.36673 41.51131,1.80228 -2.63534,-0.86581 11.53548,-4.25813 10.70695,1.43286 l 3.25208,3.09355 c 1.91656,1.82314 2.63578,2.4842 4.48223,3.61209 2.05858,1.25748 3.24353,2.70803 3.06335,3.75 -0.19218,1.11139 0.3709,1.69928 1.62756,1.69928 1.05676,0 2.48159,0.675 3.16628,1.5 0.68469,0.825 1.75229,1.50643 2.37244,1.5143 0.62016,0.008 4.59583,3.27036 8.83483,7.25 6.40709,6.01508 8.22056,8.44949 10.75,14.43089 1.91943,4.5389 3.04273,8.90826 3.04273,11.83546 0,3.28326 1.02355,6.71793 3.5,11.74479 1.925,3.90749 3.5,7.75274 3.5,8.545 0,0.79225 2.025,7.47063 4.5,14.84082 2.475,7.370205 4.5,14.321115 4.5,15.446475 0,2.9126 -5.31458,7.89227 -8.42308,7.89227 -2.3676,0 -2.57692,-0.34745 -2.57692,-4.27749 0,-2.35263 -0.69461,-5.2692 -1.54359,-6.48128 -1.27635,-1.82224 -1.3479,-2.9305 -0.41328,-6.4014 1.62549,-6.036615 0.40854,-12.255815 -3.20306,-16.369205 -1.87547,-2.13604 -4.26113,-7.13498 -6.27876,-13.15659 -1.78972,-5.34139 -3.72307,-9.86796 -4.29634,-10.05905 -1.77946,-0.59315 -6.25448,8.54367 -5.65932,11.55483 0.4174,2.11175 0.0493,2.9052 -1.71203,3.69018 -1.47845,0.65891 -2.8703,2.86378 -4.08062,6.46423 -1.01026,3.00533 -1.70323,5.86508 -1.53992,6.35501 0.37708,1.13124 7.09271,3.67754 11.94391,4.52864 5.41806,0.95056 8.78301,5.864985 8.78301,12.827355 0,4.82748 -0.22064,5.34204 -2.54029,5.92424 -2.49051,0.62508 -6.45971,-1.70675 -6.45971,-3.79495 0,-1.17702 -3.63218,-6.05331 -8.21359,-11.026925 l -3.7136,-4.03151 -1.16205,2.55043 c -0.72903,1.60005 -0.87707,3.976325 -0.39728,6.376955 1.00084,5.00771 1.16212,6.18461 2.3059,16.82653 0.53202,4.95 1.93159,11.7 3.11016,15 1.17856,3.3 2.58879,10.5 3.13384,16 0.54504,5.5 1.70116,13.93831 2.56914,18.75181 1.85958,10.31248 1.3358,16.38702 -4.25693,49.37014 -2.25281,13.28595 -3.71054,25.60538 -4.00872,33.87805 -0.52556,14.58124 -0.98717,17.8527 -2.39619,16.98188 -0.53387,-0.32995 -0.97068,-0.2179 -0.97068,0.249 0,2.11701 3.23332,12.97196 4.39921,14.76912 4.8061,7.40833 4.51038,21.688465 -0.99402,47.999995 -3.00636,14.37074 -3.75859,20.11707 -3.73077,28.5 0.0192,5.775 0.21275,11.4 0.43021,12.5 0.32815,1.65995 -0.0722,1.95106 -2.35463,1.71215 -2.16795,-0.22692 -2.75,0.1297 -2.75,1.6849 0,3.29561 1.99062,7.49125 4.55611,9.60295 1.33639,1.1 3.08166,3.8 3.87837,6 1.30374,3.60006 1.51607,3.77503 2.12368,1.75 0.67318,-2.24359 3.44184,-3.20163 3.44184,-1.19098 0,0.58246 -0.5625,0.72108 -1.25,0.30804 -0.9621,-0.57801 -0.98688,-0.41886 -0.10761,0.69098 2.31318,2.91976 2.01831,5.38333 -0.85906,7.17726 -1.53083,0.95442 -2.78333,2.55192 -2.78333,3.55 0,0.99809 -0.54,2.3547 -1.2,3.0147 -1.59785,1.59785 0.40485,1.55237 2.20177,-0.05 1.18005,-1.05229 1.20651,-0.99029 0.16724,0.39194 -1.78641,2.37594 -4.65172,2.83907 -7.71916,1.24766 z M 251.34028,-24.039145 c 1.79315,-6.6842 -1.65821,-18.65755 -5.3781,-18.65755 -0.89634,0 -2.1131,-1.2375 -2.70391,-2.75 -0.82248,-2.10559 -0.96033,0.062 -0.58828,9.25 0.41063,10.14085 0.77898,12.25677 2.37751,13.65734 2.37688,2.08253 5.53359,1.33018 6.29278,-1.49979 z m 16.60611,-145.775585 c 0,-0.55 -0.45,-0.72189 -1,-0.38197 -0.55,0.33992 -1,1.06803 -1,1.61803 0,0.55 0.45,0.72189 1,0.38197 0.55,-0.33992 1,-1.06803 1,-1.61803 z m -13.33333,370.45136 c -1.15064,-1.15063 -0.72824,-2.33333 0.83333,-2.33333 0.825,0 1.5,0.675 1.5,1.5 0,1.56157 -1.1827,1.98397 -2.33333,0.83333 z"
           id="path2991"
           inkscape:connector-curvature="0"
           sodipodi:nodetypes="csssssccsssssssssssssscsssscscssssssscsssssssssssscsssssssssscsssssssssssssssssssssssssscscssssssscsssscsssssscssscsssssssscscssssscssssssssssssssssssssssscsssssssssssscssssssssssssssscsssssssssssssss" />
        <path
           style="fill:#000000;fill-opacity:1"
           d="m 264.20164,204.47127 c 0,-1.15488 -0.72188,-2.69889 -1.60418,-3.43113 -2.45041,-2.03366 -3.63993,-5.91448 -2.30565,-7.52219 0.62324,-0.75096 0.84934,-2.49622 0.50245,-3.87836 -0.3469,-1.38215 -0.20481,-2.51299 0.31575,-2.51299 1.83604,0 4.91215,5.08336 6.11811,10.11038 1.13434,4.72844 1.07065,5.23693 -0.90304,7.21063 l -2.12344,2.12343 z m -12.24592,-21.50231 c -1.89514,-1.16128 1.92258,-8.77083 4.42853,-8.82705 0.7316,-0.0164 1.28791,1.59397 2.31458,6.70007 0.62483,3.10753 0.54058,3.20816 -2.51168,3 -1.73701,-0.11846 -3.64116,-0.51132 -4.23143,-0.87302 z m 8.76205,-26.59236 c 0.37142,-3.7125 1.32584,-9.06665 2.12093,-11.8981 0.79509,-2.83146 1.84389,-9.35646 2.33067,-14.5 0.48679,-5.14355 1.19567,-10.3644 1.5753,-11.6019 0.51848,-1.69012 0.28795,-2.25 -0.9264,-2.25 -0.95829,0 -1.61663,0.82724 -1.61663,2.03138 0,2.23189 -3.14436,4.03555 -3.7689,2.16191 -0.21387,-0.64159 -1.20974,-2.18029 -2.21305,-3.41933 l -1.8242,-2.25279 -5.03327,2.12649 c -4.26832,1.80331 -5.11893,1.90326 -5.59692,0.65763 -1.03851,-2.70631 -0.57811,-6.83964 1.01523,-9.11446 3.0087,-4.29552 3.60333,-8.369566 1.80921,-12.395486 -1.5682,-3.51894 -1.55034,-3.92002 0.35625,-8 2.68739,-5.75084 3.55561,-10.15316 2.73723,-13.879169 -0.58186,-2.64923 -1.01586,-2.99888 -3.07945,-2.48095 -3.16396,0.7941 -3.14082,-1.0593 0.0904,-7.23882 2.73479,-5.23019 4.88276,-17.93078 4.26621,-25.22543 l -0.37789,-4.47096 -0.8154,3.25 c -1.20869,4.81753 -2.20283,3.96264 -2.90718,-2.5 -0.76747,-7.04176 -2.45771,-13.25 -3.60741,-13.25 -1.56535,0 -3.05045,6.21718 -3.08123,12.89922 -0.0237,5.1521 -0.26377,6.19945 -1.09368,4.77217 -1.50635,-2.5906 -0.33897,-19.14338 2.15642,-30.5768499 2.7419,-12.5629386 3.05285,-21.9434691 0.77621,-23.4162481 -1.31399,-0.85002 -2.15718,-0.67275 -3.7783,0.79435 -2.07847,1.880979 -2.08572,1.875229 -1.80854,-1.43323 0.38872,-4.63981 -1.52875,-4.81447 -4.86307,-0.44295 -2.12771,2.789569 -2.87652,4.959729 -3.03743,8.8029095 -0.74704,17.8419185 -2.78204,23.4254185 -8.0712,22.1452185 -5.87573,-1.42217 -6.83763,-1.50721 -8.05407,-0.71211 -2.72692,1.78241 2.56786,15.92881 7.70043,20.57372 1.1991,1.08521 2.1036,3.12704 2.1036,4.74879 0,3.14422 -1.09817,3.63657 -3,1.34501 -2.30863,-2.78173 -4.5393,-1.69781 -6.68843,3.25 -2.19846,5.06135 -2.03976,9.49278 0.7431,20.75 0.67982,2.75 1.31845,6.8 1.41917,9 0.10073,2.199999 0.53346,4.787499 0.96164,5.749999 0.67355,1.51408 0.20628,1.75 -3.46617,1.75 l -4.24467,0 0.61995,-5.27481 c 0.54715,-4.655409 0.0223,-6.974559 -4.46965,-19.749999 -5.48386,-15.59651 -7.2066,-24.33196 -5.77973,-29.30715 1.70652,-5.9503 4.00532,-9.66867 6.90422,-11.16774 5.31816,-2.75013 10.00057,-8.4553589 10.00057,-12.1850889 0,-2.10665 -0.57467,-3.5985 -1.52694,-3.96392 -2.29475,-0.88058 -9.47306,4.48794 -9.47306,7.08471 0,2.159889 -1.68561,4.5639989 -3.2,4.5639989 -1.66494,0 -0.71357,-4.5728789 1.2,-5.7679289 2.69404,-1.68245 2.53027,-5.25213 -0.51684,-11.2653096 -1.78262,-3.51784 -3.11386,-4.9667601 -4.56336,-4.9667601 -1.7065,0 -1.99445,-0.5399704 -1.73315,-3.2500004 0.39922,-4.140549 2.8062,-4.286159 4.13251,-0.249999 0.5422,1.649999 2.0422,4.5669595 3.33333,6.4821295 1.29113,1.91518 2.34751,4.05268 2.34751,4.7499996 0,1.7186 2.47497,1.60542 3.95755,-0.18098 0.66134,-0.7968596 2.74144,-1.9567596 4.62245,-2.5775496 3.69924,-1.22086 4.53049,-3.80709 1.92,-5.9736005 -0.825,-0.68469 -1.5,-1.80969 -1.5,-2.499999 0,-0.69031 -0.675,-1.81531 -1.5,-2.5 -0.825,-0.68469 -1.5,-2.05946 -1.5,-3.05506 0,-1.75241 0.66994,-2.123201 6,-3.320751 1.375,-0.30893 3.73161,-1.7135 5.23691,-3.12127 2.56029,-2.39441 2.72654,-3.05785 2.57634,-10.28125 -0.18414,-8.85529 -1.02515,-11.22167 -3.98819,-11.22167 -1.15751,0 -2.65663,-0.75498 -3.33137,-1.67774 -1.10778,-1.51498 -1.59415,-1.32096 -5.01364,2 -2.08277,2.02276 -4.11322,3.67774 -4.51213,3.67774 -0.3989,0 -1.29149,1.36696 -1.98353,3.03769 -0.69204,1.67073 -1.72558,2.88191 -2.29675,2.69152 -0.57118,-0.19039 -1.87786,-3.24485 -2.90373,-6.78769 -1.88108,-6.49624 -1.97628,-19.35702 -0.2172,-29.34134 0.7326,-4.15817 0.45913,-4.27266 -4.92914,-2.0635 -1.68033,0.68892 -1.7844,0.43113 -1.0644,-2.63655 0.43891,-1.87007 0.68027,-8.77114 0.53636,-15.335701 -0.22697,-10.353315 -0.37971,-12.298185 0.88305,-11.250205 1.15543,0.95892 2.40501,1.36524 4.86102,-0.0417 3.45292,-1.978 3.13588,-5.0336 2.16247,-10.22234 -0.40692,-2.16903 1.60987,-5.69157 2.88978,-9.19457 1.24499,-3.4074 2.07276,-8.62962 2.2755,-14.35565 l 0.31865,-9 -3.22835,-1.5 c -2.2211,-1.03199 -3.23511,-2.20201 -3.25,-3.75 -0.0223,-2.31856 -1.42998,-3.01635 -2.52165,-1.25 -1.06396,1.72153 -3.66318,1.09199 -4.21576,-1.02108 -0.4067,-1.55521 -0.83617,-1.76574 -1.86323,-0.91336 -1.0891,0.90387 -0.85079,1.83898 1.29505,5.08156 l 2.62977,3.97385 -2.25737,5.18952 c -1.24155,2.85423 -2.93666,7.10201 -3.76691,9.43951 -0.83025,2.3375 -1.86254,4.25 -2.29397,4.25 -0.43144,0 -3.33918,3.80018 -6.46166,8.44484 -5.07579,7.55019 -5.60658,8.82148 -5.01029,12 0.52781,2.81343 1.13299,3.55516 2.90068,3.55516 2.96361,0 5.7917,3.26008 5.35031,6.167545 -0.36476,2.4027 -0.52132,2.44415 -4.99309,1.3218 -2.08023,-0.5221 -2.89302,-0.20932 -3.78448,1.45639 -1.01108,1.88923 -0.80128,2.23772 1.91784,3.18561 3.6644,1.27742 4.00395,2.86867 0.61213,2.86867 -1.34254,0 -2.7191,0.450001 -3.05902,1.000001 -0.33992,0.55 -1.31893,1 -2.17559,1 -1.12217,0 -1.42397,-0.69883 -1.07966,-2.500001 0.5864,-3.06754 0.0491,-3.12471 -2.94354,-0.31324 -5.21967,4.903621 -5.04447,-4.2393 0.23686,-12.360205 2.73987,-4.21299 3.46233,-9.91624 1.54829,-12.22251 -1.56295,-1.88324 -0.75971,-4.60406 1.35921,-4.60406 2.74251,0 4.71828,-4.5545 4.68837,-10.80755 -0.0252,-5.27015 0.23841,-6.05376 2.43138,-7.22741 3.34423,-1.78977 4.93504,-7.42569 3.81184,-13.50459 -1.0818,-5.85489 -3.37675,-7.67578 -6.31862,-5.01342 -3.04275,2.75364 -2.51636,0.44317 1.63395,-7.17195 3.4735,-6.37327 3.70072,-7.33849 3.83123,-16.27508 0.15886,-10.87745 1.58885,-14.67872 6.70204,-17.81567 10.07023,-15.30901 16.43268,4.84316 18.77797,-0.18931 0.88497,-2.3062 3.41241,-0.38244 6.03464,2.40879 1.26423,1.34571 5.68608,0.54173 6.85523,0.71031 -1.8935,-8.04369 -5.97753,-18.41885 -3.10593,-19.82824 4.04224,-1.98394 1.82394,-7.79083 2.75952,-11.17274 3.01794,-10.90916 13.76362,-8.39221 16.43502,-9.48462 3.09886,-1.26722 11.43101,2.6454 13.91681,12.55161 0.64384,2.56577 -0.35061,5.05252 1.02062,6.80776 1.38571,1.77377 3.14634,3.75848 0.50777,8.14903 -4.52598,7.53116 -3.63647,17.64292 -2.05048,17.40637 3.72364,5.6239 5.72005,7.01522 4.39395,9.69017 -1.80915,3.64934 -1.16216,8.63023 1.87246,9.39187 2.10172,0.5275 2.32731,1.01421 1.79218,3.86669 -0.51106,2.72419 -0.14503,3.6964 2.21593,5.8856 3.08064,2.85654 7.34855,3.53102 7.34855,1.16134 0,-0.80358 -0.95562,-2.35134 -2.1236,-3.43948 -2.15834,-2.0108 -2.12126,-4.76447 0.10906,-8.09948 0.83546,-1.24926 1.65359,-0.83135 4.89422,2.5 2.14008,2.2 4.99447,4.75331 6.34308,5.67403 4.22993,2.88783 12.09385,21.82597 9.06307,21.82597 -0.53672,0 -1.79034,-0.9 -2.78583,-2 -3.52707,-3.89737 -5.70071,-2.62212 -9.49811,5.57245 -1.92395,4.15178 -3.36197,8.58755 -3.19558,9.85726 0.20838,1.59015 -0.29379,2.46451 -1.61368,2.80966 -1.20893,0.31615 -2.53341,2.3022 -3.58843,5.38087 -2.64489,7.71804 -4.77316,19.276935 -3.99203,21.681175 0.83889,2.58202 1.27076,6.39528 1.90844,16.850901 0.27473,4.50454 1.30192,9.60076 2.49713,12.38907 3.3267,7.76088 5.29357,21.62457 4.64044,32.70863 -0.35055,5.94927 -0.201,9.75 0.38365,9.75 0.527,0 0.96506,-0.5625 0.97348,-1.25 0.0102,-0.83333 0.33844,-0.75 0.98469,0.25 1.41821,2.19452 1.20546,11.287381 -0.49135,21.0000005 -0.81672,4.6749996 -2.59585,15.6999986 -3.95362,24.4999985 -1.35777,8.8 -3.18037,20.05 -4.05022,25 -0.94547,5.38024 -1.33609,11.11153 -0.97123,14.25 0.51107,4.39615 0.35065,5.25 -0.98637,5.25 -3.00854,0 -3.77521,4.76871 -2.09769,13.04765 0.85277,4.208549 1.55048,10.802359 1.55048,14.652909 0,8.69778 1.40362,13.073636 4.3271,13.489976 1.46752,0.20899 2.26787,1.12185 2.46545,2.81201 0.1609,1.37641 -1.7516,12.77867 -4.25,25.33835 -2.4984,12.55969 -4.54255,23.88423 -4.54255,25.16565 0,3.05392 -0.97102,5.49344 -2.18658,5.49344 -0.60078,0 -0.71443,-2.58052 -0.29729,-6.75 z m -9.82522,-183.110174 c 0.40711,-2.00189 0.68772,-5.77731 0.62359,-8.38981 0.56716,-3.303172 8.7977,-6.18256 1.26706,-8.72308 -1.88014,-0.62051 -4.65449,-0.9929 -6.16521,-0.82755 -2.34729,0.25691 -2.87049,-0.16488 -3.5974,-2.90014 -1.61491,-6.0767 -3.0513,-4.97386 -2.38763,1.8332 0.34145,3.50216 0.86961,9.62944 1.1737,13.61617 0.43478,5.70019 0.97707,7.5457 2.53863,8.63946 3.11348,2.18077 5.70464,0.89524 6.54726,-3.24825 z M 279.70164,-154.8734 c 0,-1.72045 -4.93521,-2.22435 -7.77801,-0.79416 -2.89713,1.45753 -0.85436,2.92321 3.61979,2.59717 2.89486,-0.21095 4.15822,-0.75874 4.15822,-1.80301 z m -78.5,-5.54797 c 0,-1.82398 -1.31956,-2.4906 -2.94346,-1.48697 -1.82096,1.12541 -0.56715,4.16811 1.40561,3.41109 0.84582,-0.32457 1.53785,-1.19042 1.53785,-1.92412 z m 1,-14.51511 c 0,-0.78941 -4.97691,0.31274 -6.96743,1.54295 -0.56791,0.35099 -1.03257,1.51799 -1.03257,2.59334 0,1.82491 0.2665,1.77881 4,-0.69191 2.2,-1.45589 4,-3.00586 4,-3.44438 z m 10.65437,-3.12621 c 0.25802,-4.95781 0.002,-5.93817 -1.90057,-7.27061 -2.73474,-1.91548 -3.23495,-1.91609 -5.14476,-0.006 -1.17713,1.17714 -1.30341,2.13984 -0.54301,4.13986 0.76232,2.00503 0.62764,3.00733 -0.58396,4.34613 -1.45042,1.6027 -1.38723,1.78718 0.80014,2.33617 1.3062,0.32784 2.9392,1.83455 3.62889,3.34825 1.19145,2.61494 1.30861,2.65456 2.34951,0.79458 0.60254,-1.07668 1.22973,-4.53633 1.39376,-7.6881 z m 2.98401,314.68929 c 0.31658,-0.825 0.97746,-1.5 1.46861,-1.5 0.49116,0 0.89301,-0.91114 0.89301,-2.02475 0,-2.18093 -4.31427,-4.45237 -6.7103,-3.53292 -0.75097,0.28817 -1.62152,-0.14346 -1.93454,-0.95919 -0.31302,-0.81573 -1.18562,-1.48314 -1.93909,-1.48314 -0.75348,0 -1.99655,-1.0125 -2.76237,-2.25 -2.03403,-3.28679 -0.67177,-15.51151 2.17385,-19.50781 1.17978,-1.65684 3.00596,-5.02088 4.0582,-7.475626 1.91995,-4.47906 6.19891,-8.76655 8.74911,-8.76655 0.75083,0 1.36514,-0.9551 1.36514,-2.12244 0,-1.8168 0.22648,-1.93449 1.57262,-0.8173 1.24533,1.03354 1.47982,2.77596 1.12674,8.37245 -0.73765,11.692206 -2.70482,29.744106 -3.82137,35.067276 -1.63438,7.79189 -1.91879,8.5 -3.41399,8.5 -0.83469,0 -1.1685,-0.60647 -0.82562,-1.5 z m -8.38838,-0.16228 c -2.0472,-0.82607 -1.41676,-2.19409 0.75,-1.62747 1.1,0.28766 2,0.92053 2,1.40638 0,0.95338 -0.77982,1.01607 -2.75,0.22109 z m 89.78983,-220.789714 c -0.66279,-0.79861 -0.94869,-2.26111 -0.63535,-3.25 0.31335,-0.988901 -0.0927,-3.073981 -0.90245,-4.633521 -1.14921,-2.21347 -1.25417,-3.80829 -0.47844,-7.26974 1.40292,-6.260135 0.25457,-11.651455 -3.65217,-17.146375 -1.85428,-2.60809 -3.37165,-5.41841 -3.37192,-6.24517 -2.8e-4,-0.82676 -0.83839,-3.7532 -1.86247,-6.5032 -1.82675,-4.90547 -1.87209,-12.5 -0.0746,-12.5 0.46398,0 1.2568,1.4625 1.76182,3.25 0.50503,1.7875 2.55561,5.6643 4.55684,8.61511 2.00124,2.95081 3.87765,6.55081 4.16979,8 0.29215,1.44919 1.4083,5.33489 2.48033,8.63489 4.32283,13.30676 6.83854,23.282205 6.34628,25.164626 -0.28599,1.0936 -1.79484,2.74144 -3.35301,3.66187 -3.43898,2.03146 -3.48095,2.03333 -4.98462,0.22151 z m -14.78983,-3.21027 c -1.95961,-0.79072 -1.46329,-2.337721 0.75,-2.337721 1.1,0 2,-0.45 2,-1 0,-0.55 0.45,-1 1,-1 1.63123,0 1.13678,3.733541 -0.58179,4.393011 -0.86998,0.33385 -1.65748,0.57146 -1.75,0.52804 -0.0925,-0.0434 -0.73071,-0.30592 -1.41821,-0.58333 z m -4.35853,-6.968491 c -1.0849,-1.30723 -0.9994,-1.72933 0.52289,-2.58124 1.65331,-0.92524 1.55746,-1.13575 -1.04724,-2.29989 -1.57691,-0.704785 -3.64121,-1.533665 -4.58732,-1.841955 -1.68064,-0.54763 -3.53932,-5.21998 -2.49283,-6.26647 0.28994,-0.28994 1.89664,0.18102 3.57044,1.04657 1.6738,0.86556 4.36221,1.57374 5.97424,1.57374 4.07383,0 8.58803,5.765975 7.25637,9.268505 -0.70635,1.85785 -1.70292,2.43057 -4.40618,2.53219 -2.08397,0.0784 -4.01665,-0.49917 -4.79037,-1.43145 z"
           id="path2989"
           inkscape:connector-curvature="0"
           sodipodi:nodetypes="ssssssscsscssssssssscscssssssssscssscssssssssscssssssscsssssssssssssssssssssssssssssssssssssssscsssssscssssssssssssssssssssssssccscsssssscsssssssssssssssssssscssssssssssssssssccsssssssssssssscssscscsssssccsssssssssssssssssssssscsscsssssscsccssssscssssssssscss" />
      </g>
    </g>
    <path
       style="color:#000000;font-style:normal;font-variant:normal;font-weight:normal;font-stretch:normal;font-size:medium;line-height:normal;font-family:sans-serif;text-indent:0;text-align:start;text-decoration:none;text-decoration-line:none;text-decoration-style:solid;text-decoration-color:#000000;letter-spacing:normal;word-spacing:normal;text-transform:none;direction:ltr;block-progression:tb;writing-mode:lr-tb;baseline-shift:baseline;text-anchor:start;white-space:normal;clip-rule:nonzero;display:inline;overflow:visible;visibility:visible;opacity:1;isolation:auto;mix-blend-mode:normal;color-interpolation:sRGB;color-interpolation-filters:linearRGB;solid-color:#000000;solid-opacity:1;fill:#000000;fill-opacity:1;fill-rule:evenodd;stroke:none;stroke-width:1.4000001;stroke-linecap:butt;stroke-linejoin:miter;stroke-miterlimit:4;stroke-dasharray:none;stroke-dashoffset:0;stroke-opacity:1;color-rendering:auto;image-rendering:auto;shape-rendering:auto;text-rendering:auto;enable-background:accumulate"
       d="m 122.59961,911.83008 -0.91211,1.0625 c 0.75192,0.64526 1.06748,1.43231 1.01953,2.57226 -10.23779,22.74966 -41.116181,44.43592 -56.718749,57.06641 4.56272,0.85854 43.742109,-33.21926 50.931619,-40.59844 2.18431,-4.77633 10.91889,-15.43903 5.67971,-20.10273 z"
       id="path6640"
       inkscape:connector-curvature="0"
       sodipodi:nodetypes="cccccc" />
    <path
       sodipodi:nodetypes="ccccc"
       inkscape:connector-curvature="0"
       id="path6644"
       d="m 166.47052,918.57769 -0.36746,1.35123 c 0.95615,0.25984 1.57912,0.83511 2.02534,1.88519 0.52365,24.94164 -11.93156,28.31201 -20.59833,46.41882 9.87735,-7.6621 31.98393,-44.33871 18.94045,-49.65524 z"
       style="color:#000000;font-style:normal;font-variant:normal;font-weight:normal;font-stretch:normal;font-size:medium;line-height:normal;font-family:sans-serif;text-indent:0;text-align:start;text-decoration:none;text-decoration-line:none;text-decoration-style:solid;text-decoration-color:#000000;letter-spacing:normal;word-spacing:normal;text-transform:none;direction:ltr;block-progression:tb;writing-mode:lr-tb;baseline-shift:baseline;text-anchor:start;white-space:normal;clip-rule:nonzero;display:inline;overflow:visible;visibility:visible;opacity:1;isolation:auto;mix-blend-mode:normal;color-interpolation:sRGB;color-interpolation-filters:linearRGB;solid-color:#000000;solid-opacity:1;fill:#000000;fill-opacity:1;fill-rule:evenodd;stroke:none;stroke-width:1.4000001;stroke-linecap:butt;stroke-linejoin:miter;stroke-miterlimit:4;stroke-dasharray:none;stroke-dashoffset:0;stroke-opacity:1;color-rendering:auto;image-rendering:auto;shape-rendering:auto;text-rendering:auto;enable-background:accumulate" />
  </g>
</svg>
