<?xml version="1.0" encoding="UTF-8" standalone="no"?>
<!-- Created with Inkscape (http://www.inkscape.org/) -->

<svg
   xmlns:dc="http://purl.org/dc/elements/1.1/"
   xmlns:cc="http://creativecommons.org/ns#"
   xmlns:rdf="http://www.w3.org/1999/02/22-rdf-syntax-ns#"
   xmlns:svg="http://www.w3.org/2000/svg"
   xmlns="http://www.w3.org/2000/svg"
   xmlns:sodipodi="http://sodipodi.sourceforge.net/DTD/sodipodi-0.dtd"
   xmlns:inkscape="http://www.inkscape.org/namespaces/inkscape"
   width="62mm"
   height="88mm"
   viewBox="0 0 219.68504 311.81102"
   id="svg2"
   version="1.1"
   inkscape:version="0.91 r13725"
   sodipodi:docname="s_night.svg">
  <defs
     id="defs4">
    <inkscape:perspective
       sodipodi:type="inkscape:persp3d"
       inkscape:vp_x="0 : 155.90551 : 1"
       inkscape:vp_y="0 : 1000 : 0"
       inkscape:vp_z="219.68504 : 155.90551 : 1"
       inkscape:persp3d-origin="109.84252 : 103.93701 : 1"
       id="perspective6315" />
    <clipPath
       clipPathUnits="userSpaceOnUse"
       id="clipPath8648">
      <path
         style="fill:#ff0000;fill-opacity:1;fill-rule:evenodd;stroke:none;stroke-width:1px;stroke-linecap:butt;stroke-linejoin:miter;stroke-opacity:1"
         d="m 48.7971,144.54832 -4.54568,-1.2627 -4.04062,0.50508 -4.79822,3.40927 -5.93465,4.29314 -2.0203,2.90419 0.12627,2.65165 2.65165,2.14658 -1.01015,1.76776 -3.283,1.26269 -3.40926,8.08123 6.31345,9.34391 10.35406,-0.75762 46.21448,3.91434 25.50635,-7.19733 9.47018,-5.05077 0.12627,-10.10152 -2.65165,-1.13642 0.88389,-15.15229 10.35406,-6.9448 3.28299,-3.91434 6.566,-7.82868 0.50507,-4.54569 -4.54568,-1.89404 -2.14658,1.01016 -4.16688,1.13642 -5.93464,-2.90419 -2.77792,-1.76777 -5.80838,2.39911 -2.90419,3.03046 -3.40926,4.9245 -7.07107,0.3788 -8.96511,5.80838 -2.90418,2.14657 -3.66181,0.12627 -5.55584,-0.3788 -17.29886,2.65165 z"
         id="path8650"
         inkscape:connector-curvature="0" />
    </clipPath>
    <mask
       maskUnits="userSpaceOnUse"
       id="mask8666">
      <rect
         rx="1.7260212"
         ry="2.8714814"
         y="98.924339"
         x="22.885082"
         height="109.83415"
         width="100.10923"
         id="rect8668"
         style="opacity:1;fill:#ffffff;fill-opacity:1;stroke:none;stroke-width:2.01114893;stroke-linecap:round;stroke-linejoin:bevel;stroke-miterlimit:4;stroke-dasharray:none;stroke-dashoffset:0;stroke-opacity:1" />
    </mask>
    <clipPath
       clipPathUnits="userSpaceOnUse"
       id="clipPath9647">
      <path
         style="fill:#ff0000;fill-opacity:1;fill-rule:evenodd;stroke:none;stroke-width:1px;stroke-linecap:butt;stroke-linejoin:miter;stroke-opacity:1"
         d="m 24.29467,289.85466 12.14286,-9.28572 41.42857,-15.71428 40,-5 20,5 2.85715,7.14285 9.28571,6.42858 10,1.42857 -3.57143,13.57143 -15.71428,10 -27.85715,5.71428 -74.28571,1.42857 z"
         id="path9649"
         inkscape:connector-curvature="0" />
    </clipPath>
    <inkscape:path-effect
       pattern-nodetypes="sssss"
       fuse_tolerance="0"
       vertical_pattern="false"
       prop_units="false"
       tang_offset="0"
       normal_offset="0"
       spacing="0"
       scale_y_rel="false"
       prop_scale="1"
       copytype="single_stretched"
       pattern="M 0,5 C 0,2.24 2.24,0 5,0 7.76,0 7,0.24 7,3 7,5.76 7.76,5.75 5,5.75 2.24,5.75 0,7.76 0,5 Z"
       is_visible="true"
       id="path-effect20326"
       effect="skeletal" />
    <clipPath
       clipPathUnits="userSpaceOnUse"
       id="clipPath7877">
      <path
         style="fill:#ff0000;fill-opacity:1;fill-rule:evenodd;stroke:none;stroke-width:1px;stroke-linecap:butt;stroke-linejoin:miter;stroke-opacity:1"
         d="m 1349.8263,623.67274 -143.5316,10.50232 -77.0169,-21.00459 -119.0262,66.51457 -91.01997,38.50849 -189.04149,-14.00311 -31.50696,-80.51768 -52.51151,-94.52074 -49.01077,-77.01694 -45.51,-31.50692 -38.50846,31.50692 -21.00461,24.50538 -87.51923,56.0123 L 264.58784,578.16276 121.05631,581.6635 110.554,564.1597 96.550923,357.61431 103.55246,4.0366248 142.06092,-23.9695 l 304.56691,3.500741 59.51307,3.50079 171.53769,-10.502321 115.52538,0 38.50845,28.00617372 38.50844,3.50074108 224.04924,-28.0061248 101.5223,35.007656 91.02,87.519261 -3.5008,140.030723 3.5008,238.0523 7.0016,45.51003 3.5007,112.02459 z"
         id="path7879"
         inkscape:connector-curvature="0" />
    </clipPath>
    <filter
       style="color-interpolation-filters:sRGB"
       id="filter8486"
       inkscape:label="filter1" />
    <clipPath
       clipPathUnits="userSpaceOnUse"
       id="clipPath8513">
      <path
         style="fill:#ff0000;fill-opacity:1;fill-rule:evenodd;stroke:none;stroke-width:1px;stroke-linecap:butt;stroke-linejoin:miter;stroke-opacity:1"
         d="m 1037.9071,144.02626 13.0113,78.06757 -32.5282,52.04505 -117.10134,39.03376 -175.65205,19.5169 -149.62954,13.0113 -71.56195,-45.53943 -65.05628,-110.59572 143.12385,-84.57325 52.04505,-39.033754 6.50568,-39.033819 39.03375,-13.01123 78.06757,-13.01129406 221.19149,-6.50561504 z"
         id="path8515"
         inkscape:connector-curvature="0" />
    </clipPath>
    <clipPath
       clipPathUnits="userSpaceOnUse"
       id="clipPath8513-1">
      <path
         style="fill:#ff0000;fill-opacity:1;fill-rule:evenodd;stroke:none;stroke-width:1px;stroke-linecap:butt;stroke-linejoin:miter;stroke-opacity:1"
         d="m 1037.9071,144.02626 13.0113,78.06757 -32.5282,52.04505 -117.10134,39.03376 -175.65205,19.5169 -149.62954,13.0113 -71.56195,-45.53943 -65.05628,-110.59572 143.12385,-84.57325 52.04505,-39.033754 6.50568,-39.033819 39.03375,-13.01123 78.06757,-13.01129406 221.19149,-6.50561504 z"
         id="path8515-4"
         inkscape:connector-curvature="0" />
    </clipPath>
    <clipPath
       clipPathUnits="userSpaceOnUse"
       id="clipPath8565">
      <path
         style="fill:#ff0000;fill-opacity:1;fill-rule:evenodd;stroke:none;stroke-width:1px;stroke-linecap:butt;stroke-linejoin:miter;stroke-opacity:1"
         d="m 1037.9071,144.02626 13.0113,78.06757 -32.5282,52.04505 -117.10134,39.03376 -175.65205,19.5169 -149.62954,13.0113 -71.56195,-45.53943 -65.05628,-110.59572 143.12385,-84.57325 52.04505,-39.033754 6.50568,-39.033819 39.03375,-13.01123 78.06757,-13.01129406 221.19149,-6.50561504 z"
         id="path8567"
         inkscape:connector-curvature="0" />
    </clipPath>
    <clipPath
       clipPathUnits="userSpaceOnUse"
       id="clipPath8637">
      <rect
         style="opacity:1;fill:#ff0000;fill-opacity:1;stroke:none;stroke-width:8.10000038;stroke-linecap:round;stroke-linejoin:bevel;stroke-miterlimit:4;stroke-dasharray:none;stroke-dashoffset:0;stroke-opacity:1"
         id="rect8639"
         width="193.57143"
         height="132.14285"
         x="-219.99998"
         y="776.64789" />
    </clipPath>
    <clipPath
       clipPathUnits="userSpaceOnUse"
       id="clipPath8741">
      <path
         style="fill:#ff0000;fill-opacity:1;fill-rule:evenodd;stroke:none;stroke-width:1px;stroke-linecap:butt;stroke-linejoin:miter;stroke-opacity:1"
         d="m -26.77703,99.03193 15.71429,-5.71429 45.71428,12.85714 57.14286,17.14286 74.28571,27.14285 25.71429,21.42857 100,30 44.28571,32.85715 60,-8.57143 28.57143,17.14286 27.14286,8.57142 48.57143,-14.28571 102.85714,7.14286 -4.28571,-187.14286 -7.14286,-12.85714 -37.14286,5.71428 -22.85714,2.85715 -51.42857,0 -67.14286,0 -22.85714,-1.42858 -14.28572,8.57143 -92.85714,0 -72.85714,-4.28571 -51.42857,5.71428 -37.14286,-2.85714 -32.85714,-2.85714 -32.85715,0 -38.57142,-4.28572 -48.57143,5.71429 z"
         id="path8743"
         inkscape:connector-curvature="0"
         sodipodi:nodetypes="cccccccccccccccccccccccccccccc" />
    </clipPath>
    <clipPath
       clipPathUnits="userSpaceOnUse"
       id="clipPath20203">
      <rect
         style="opacity:1;fill:#ff0000;fill-opacity:1;stroke:none;stroke-width:8.10000038;stroke-linecap:round;stroke-linejoin:bevel;stroke-miterlimit:4;stroke-dasharray:none;stroke-dashoffset:0;stroke-opacity:1"
         id="rect20205"
         width="17069.842"
         height="17666.689"
         x="2366.7041"
         y="-21212.371"
         transform="scale(1,-1)" />
    </clipPath>
    <clipPath
       clipPathUnits="userSpaceOnUse"
       id="clipPath16200">
      <rect
         style="opacity:1;fill:#ff0000;fill-opacity:1;stroke:none;stroke-width:8.10000038;stroke-linecap:round;stroke-linejoin:bevel;stroke-miterlimit:4;stroke-dasharray:none;stroke-dashoffset:0;stroke-opacity:1"
         id="rect16202"
         width="104.38721"
         height="73.647415"
         x="14.41088"
         y="-11.355354" />
    </clipPath>
    <clipPath
       clipPathUnits="userSpaceOnUse"
       id="clipPath4139">
      <ellipse
         style="opacity:1;fill:#ff0000;fill-opacity:1;stroke:#000000;stroke-width:2;stroke-linecap:round;stroke-linejoin:bevel;stroke-miterlimit:4;stroke-dasharray:none;stroke-dashoffset:0;stroke-opacity:1"
         id="ellipse4141"
         cx="-1217.7091"
         cy="749.07983"
         rx="310.90515"
         ry="462.68564" />
    </clipPath>
  </defs>
  <sodipodi:namedview
     id="base"
     pagecolor="#ffffff"
     bordercolor="#666666"
     borderopacity="1.0"
     inkscape:pageopacity="0.0"
     inkscape:pageshadow="2"
     inkscape:zoom="1.4"
     inkscape:cx="197.10367"
     inkscape:cy="155.76202"
     inkscape:document-units="px"
     inkscape:current-layer="layer1"
     showgrid="false"
     inkscape:window-width="1920"
     inkscape:window-height="1026"
     inkscape:window-x="-2"
     inkscape:window-y="31"
     inkscape:window-maximized="1" />
  <metadata
     id="metadata7">
    <rdf:RDF>
      <cc:Work
         rdf:about="">
        <dc:format>image/svg+xml</dc:format>
        <dc:type
           rdf:resource="http://purl.org/dc/dcmitype/StillImage" />
        <dc:title></dc:title>
      </cc:Work>
    </rdf:RDF>
  </metadata>
  <g
     inkscape:label="Layer 1"
     inkscape:groupmode="layer"
     id="layer1"
     transform="translate(0,-740.55118)">
    <text
       xml:space="preserve"
       style="font-style:normal;font-weight:normal;font-size:19.57834816px;line-height:125%;font-family:Sans;letter-spacing:0px;word-spacing:0px;fill:#000000;fill-opacity:1;stroke:none;stroke-width:1px;stroke-linecap:butt;stroke-linejoin:miter;stroke-opacity:1"
       x="14.324148"
       y="763.8302"
       id="text6317"
       sodipodi:linespacing="125%"><tspan
         sodipodi:role="line"
         id="tspan6319"
         x="14.324148"
         y="763.8302"
         style="font-style:normal;font-variant:normal;font-weight:500;font-stretch:normal;font-family:Orbitron;-inkscape-font-specification:'Orbitron Medium'">S</tspan></text>
    <flowRoot
       xml:space="preserve"
       id="flowRoot9634"
       style="font-style:normal;font-weight:normal;font-size:40px;line-height:125%;font-family:Sans;letter-spacing:0px;word-spacing:0px;fill:#000000;fill-opacity:1;stroke:none;stroke-width:1px;stroke-linecap:butt;stroke-linejoin:miter;stroke-opacity:1"
       transform="translate(12.857143,762.12261)"><flowRegion
         id="flowRegion9636"><rect
           id="rect9638"
           width="202.85715"
           height="92.14286"
           x="8.5714283"
           y="208.23959" /></flowRegion><flowPara
         id="flowPara9642"
         style="font-style:normal;font-variant:normal;font-weight:500;font-stretch:normal;font-size:20px;font-family:Essays1743;-inkscape-font-specification:'Essays1743 Medium'">The clock warns of the late hour and ends this night's stroll.</flowPara></flowRoot>    <g
       transform="matrix(0.59985474,0,0,0.55833023,46.299213,748.87512)"
       id="g3">
      <path
         inkscape:connector-curvature="0"
         d="m 140.39,51.309 c 2.338,2.424 2.147,11.138 4.987,10.688 2.008,0.72 -0.195,3.026 0,4.276 -3.92,-2.741 -4.12,-9.191 -4.99,-14.964 z"
         id="path5" />
      <path
         inkscape:connector-curvature="0"
         d="m 66.986,101.19 c 3.102,6.399 1.879,17.124 2.139,26.366 -2.359,1.205 -4.408,2.718 -7.839,2.851 1.039,-8.225 0.06,-18.469 1.426,-26.367 0.097,4.064 0.524,10.17 0.712,15.677 0.104,3.021 -1.765,7.047 0.713,8.552 4.679,0.251 2.621,-6.61 2.85,-9.978 0.377,-5.533 1.815,-12.4 -0.712,-15.677 -1.863,-0.833 -3.065,2.199 -2.851,-0.713 0.826,-0.59 1.91,-0.94 3.562,-0.71 z"
         id="path7" />
      <path
         inkscape:connector-curvature="0"
         d="m 178.87,113.31 c 3.768,1.313 0.926,7.817 -0.714,9.977 -1.98,-0.17 2.4,-5.44 0.71,-9.98 z"
         id="path9" />
      <path
         inkscape:connector-curvature="0"
         d="m 183.14,121.86 c -2.216,-0.159 -1.205,-3.547 -1.425,-5.701 0.447,1.214 2.15,1.173 2.849,2.137 0.53,2.19 -2.46,0.86 -1.43,3.56 z"
         id="path11" />
      <path
         inkscape:connector-curvature="0"
         d="m 173.17,136.11 c 2.006,-2.416 2.742,2.433 4.987,2.138 -1.508,1.309 -2.069,2.455 -4.274,1.425 -0.4,-1.04 0.82,-3.69 -0.72,-3.57 z"
         id="path13" />
      <path
         inkscape:connector-curvature="0"
         d="m 171.74,145.38 c 2.127,0.011 -1.006,5.281 2.139,4.275 -0.713,0.965 -3.455,6.346 0.711,5.702 0.406,2.306 -0.215,3.584 -1.424,4.274 -1.535,-3.058 -3.508,-4.473 -1.426,-7.838 -0.93,-1.34 -2.295,2.884 -4.988,2.138 1.108,-2.288 4.146,-3.748 2.14,-7.126 1.33,-0.1 2.38,-0.47 2.85,-1.42 z"
         id="path15" />
      <path
         inkscape:connector-curvature="0"
         d="m 163.9,151.08 c 1.277,-0.767 0.762,6.336 4.988,4.988 0.531,2.196 -2.458,0.869 -1.426,3.562 -3.08,-0.95 -3.37,-4.7 -3.56,-8.55 z"
         id="path17" />
      <path
         inkscape:connector-curvature="0"
         d="m 60.572,152.5 c 1.313,5.518 3.265,12.781 2.139,18.529 -0.911,-5.98 -2.069,-11.71 -2.139,-18.53 z"
         id="path19" />
      <path
         inkscape:connector-curvature="0"
         d="m 67.699,161.05 c 0.634,0.316 1.275,0.625 1.426,1.426 0.562,11.217 -1.027,18.443 2.138,24.941 l 0,4.275 c -0.968,-0.221 -0.591,-1.784 -0.713,-2.852 -3.794,-6.492 -2.393,-14.965 -2.138,-24.94 -0.311,-1.059 -0.913,0.281 -2.138,0 -0.52,-1.95 1.415,-1.44 1.425,-2.86 z"
         id="path21" />
      <path
         inkscape:connector-curvature="0"
         d="m 106.89,173.88 c 3.096,-0.589 2.188,4.193 4.275,0.713 2.146,-0.718 1.264,1.588 1.427,2.852 2.304,0.88 0.544,-2.308 2.85,-1.426 -1.044,2.463 2.892,2.649 3.563,3.562 0.574,0.782 -0.992,5.082 2.137,3.563 1.477,9.024 5.83,16.918 3.562,27.079 -3.459,-0.655 -0.695,-2.912 -0.711,-4.274 -0.148,-13.688 -7.896,-35.85 -22.804,-26.367 -3.147,2.001 -8.147,8.354 -9.978,12.114 -0.93,1.91 -0.645,4.854 -1.426,7.126 -0.709,2.055 -2.481,3.542 -2.85,4.988 -1.49,5.813 -0.73,12.308 -2.138,17.815 -3.009,-3.764 0.12,-8.349 0.712,-12.116 0.77,-4.895 0.51,-10.438 2.852,-17.102 0.572,-0.378 1.156,-0.743 2.137,-0.713 0.988,-7.906 8.2,-10.566 9.976,-15.678 2.361,0.46 3.103,1.438 2.139,-1.426 2.285,-0.622 2.229,1.098 2.85,2.139 1.25,-0.16 1.62,-1.22 1.42,-2.84 z"
         id="path23" />
      <path
         inkscape:connector-curvature="0"
         d="m 88.366,178.87 c -0.445,2.169 -1.585,3.643 -4.277,3.563 2.125,-2.18 -1.446,-3.58 4.277,-3.56 z"
         id="path25" />
      <path
         inkscape:connector-curvature="0"
         d="m 116.87,205.23 c 0.534,2.671 -0.805,3.473 -2.852,3.562 0.091,-1.278 -0.872,-1.503 -0.713,-2.851 0.83,-0.59 1.91,-0.93 3.56,-0.71 z"
         id="path27" />
      <path
         inkscape:connector-curvature="0"
         d="m 108.32,210.22 c -0.115,0.828 0.158,1.269 0.713,1.426 -0.893,5.283 -4.746,7.604 -4.986,13.54 0.209,1.452 1.927,1.396 2.139,2.852 0.973,-1.253 3.455,-2.874 4.986,-1.426 -1.973,2.904 -2.808,2.517 -6.412,3.562 0.361,-3.346 -3.266,-0.525 -2.139,-5.7 -1.749,0.478 -1.906,4.424 -4.275,2.139 3.848,-3.479 5.833,-8.6 4.275,-15.679 1.03,-1.1 3.64,-0.62 5.7,-0.71 z"
         id="path29" />
      <path
         inkscape:connector-curvature="0"
         d="m 188.84,220.2 c 1.695,-1.063 1.365,6.656 -0.711,6.413 0.03,-2.34 1.2,-3.54 0.71,-6.41 z"
         id="path31" />
      <path
         inkscape:connector-curvature="0"
         d="m 99.053,221.62 c 0.202,1.863 -0.259,3.064 -2.137,2.851 -1.288,-1.22 0.219,-2.8 2.137,-2.85 z"
         id="path33" />
      <path
         inkscape:connector-curvature="0"
         d="m 138.96,230.18 c 3.502,0.448 -0.373,3.845 0.713,6.413 -1.61,-0.76 -0.27,-4.48 -0.71,-6.41 z"
         id="path35" />
      <path
         inkscape:connector-curvature="0"
         d="m 176.02,232.31 c 1.32,-1.732 0.482,4.695 0.715,6.413 -2.1,-1.85 -0.4,-3.08 -0.72,-6.41 z"
         id="path37" />
      <path
         inkscape:connector-curvature="0"
         d="m 154.64,233.03 c 1.433,-1.155 0.402,6.217 0.711,8.551 -1.43,1.15 -0.4,-6.22 -0.71,-8.55 z"
         id="path39" />
      <path
         inkscape:connector-curvature="0"
         d="m 117.58,234.45 c 3.025,0.062 4.494,1.681 4.274,4.988 -1.673,0.703 -3.499,1.249 -5.7,1.426 -0.69,-3.31 0.93,-4.31 1.43,-6.42 z"
         id="path41" />
      <path
         inkscape:connector-curvature="0"
         d="m 111.17,237.3 c 0.728,3.341 -1.174,4.054 -2.139,5.701 -1.824,0.771 -3.396,-2.165 -4.273,0 -2.67,-4.07 3.25,-9.3 6.41,-5.7 z"
         id="path43" />
      <path
         inkscape:connector-curvature="0"
         d="m 70.549,243 c 1.403,-1.354 0.424,5.719 0.713,7.839 -1.403,1.36 -0.424,-5.72 -0.713,-7.84 z"
         id="path45" />
      <path
         inkscape:connector-curvature="0"
         d="m 154.64,243.72 c 1.98,1.568 -0.1,5.077 0,7.126 -2.18,-1.78 0.85,-4.33 0,-7.13 z"
         id="path47" />
      <path
         inkscape:connector-curvature="0"
         d="m 175.3,248.7 c 1.98,1.57 -0.102,5.077 0,7.127 -1.4,-0.99 -0.86,-6.05 0,-7.13 z"
         id="path49" />
      <path
         inkscape:connector-curvature="0"
         d="m 70.549,255.12 c 1.19,2.237 1.418,7.742 0.713,13.54 0.2,1.273 -0.674,1.462 -0.713,0.713 l 0,-14.25 z"
         id="path51" />
      <path
         inkscape:connector-curvature="0"
         d="m 189.56,256.54 c 3.067,0.018 0.987,5.206 0,5.7 -1.62,-1.34 2.2,-3.25 0,-5.7 z"
         id="path53" />
      <path
         inkscape:connector-curvature="0"
         d="m 1.426,257.26 c 3.317,-0.229 3.965,2.208 6.414,2.852 -1.715,1.43 -5.824,-0.8 -6.414,-2.85 z"
         id="path55" />
      <path
         inkscape:connector-curvature="0"
         d="m 174.59,257.97 c 2.867,0.786 0.757,4.966 0.715,7.128 -1.42,-1.14 -2.1,-5.38 -0.71,-7.13 z"
         id="path57" />
      <path
         inkscape:connector-curvature="0"
         d="m 63.423,260.11 c 1.806,6.355 -1.811,20.429 4.276,24.938 2.557,-0.057 0.566,-4.655 2.138,-5.697 0.424,-1.479 -0.88,-4.685 0.713,-4.99 l 0,5.701 c -0.598,2.015 -0.827,4.397 -1.425,6.413 0.108,2.266 1.616,3.137 1.425,5.702 -1.087,-2.301 -2.568,-0.816 -2.138,2.138 -2.483,-0.475 0.21,-4.583 -0.713,-7.84 -1.521,-0.332 -1.357,1.02 -1.425,2.139 -0.792,-4.91 -3.119,-8.282 -4.988,-12.114 1.497,-4.68 2.244,-10.11 2.137,-16.39 z"
         id="path59" />
      <path
         inkscape:connector-curvature="0"
         d="m 176.02,266.52 c 1.32,-1.733 0.482,4.694 0.715,6.413 -1.33,1.73 -0.49,-4.69 -0.72,-6.41 z"
         id="path61" />
      <path
         inkscape:connector-curvature="0"
         d="m 190.98,272.93 c 1.264,-1.902 0.52,4.175 0.713,5.698 -1.26,1.9 -0.52,-4.17 -0.71,-5.7 z"
         id="path63" />
      <path
         inkscape:connector-curvature="0"
         d="m 173.88,275.07 c 1.265,-1.9 0.52,4.175 0.711,5.701 -1.26,1.9 -0.52,-4.18 -0.71,-5.7 z"
         id="path65" />
      <path
         inkscape:connector-curvature="0"
         d="m 176.02,277.21 c 1.402,0.688 0.742,5.368 1.426,8.554 -2.25,-1.09 -1.2,-5.47 -1.43,-8.55 z"
         id="path67" />
      <path
         inkscape:connector-curvature="0"
         d="m 191.69,285.76 c 1.402,-1.356 0.424,5.716 0.713,7.839 -1.4,1.35 -0.42,-5.72 -0.71,-7.84 z"
         id="path69" />
      <path
         inkscape:connector-curvature="0"
         d="m 187.42,285.76 c 0.728,0.463 0.737,1.64 2.142,1.425 -0.565,3.403 -0.226,6.348 0,9.264 -0.608,0.133 -0.673,-0.278 -0.716,-0.711 -0.604,-0.132 -0.67,0.277 -0.711,0.711 -1.58,-3.56 0.27,-6.32 -0.71,-10.68 z"
         id="path71" />
      <path
         inkscape:connector-curvature="0"
         d="m 64.849,289.32 c 2.046,1.408 -0.247,4.448 0,6.414 -2.047,-1.4 0.247,-4.44 0,-6.41 z"
         id="path73" />
      <path
         inkscape:connector-curvature="0"
         d="m 67.699,300.01 c 2.19,6.173 -2.108,21.437 2.851,29.219 -6.733,-7.51 -3.823,-17.51 -2.851,-29.22 z"
         id="path75" />
      <path
         inkscape:connector-curvature="0"
         d="m 72.687,309.27 c 1.572,2.552 0.302,14.944 0.713,21.382 -1.571,-2.55 -0.301,-14.94 -0.713,-21.38 z"
         id="path77" />
      <path
         inkscape:connector-curvature="0"
         d="m 173.17,309.27 c 1.115,6.113 0.601,9.722 1.424,16.392 -1.82,-4.42 -2.77,-10.81 -1.42,-16.39 z"
         id="path79" />
      <path
         inkscape:connector-curvature="0"
         d="m 129.7,313.55 c 1.579,1.285 0.298,11.569 0.714,16.391 -1.58,-1.28 -0.3,-11.57 -0.71,-16.39 z"
         id="path81" />
      <path
         inkscape:connector-curvature="0"
         d="m 111.88,317.11 c 1.06,1.319 1.365,3.388 1.427,5.702 -2.81,0.44 -0.84,-3.91 -1.43,-5.7 z"
         id="path83" />
      <path
         inkscape:connector-curvature="0"
         d="m 13.54,317.83 c 1.822,-0.032 0.869,0.528 0.713,1.424 0.151,6.264 3.706,9.122 4.275,14.965 -2.783,-4.34 -5.291,-8.96 -4.988,-16.39 z"
         id="path85" />
      <path
         inkscape:connector-curvature="0"
         d="m 126.13,332.08 c -12.741,0.473 -28.643,4.071 -37.767,3.563 0.736,-2.43 4.273,-1.754 6.413,-2.139 7.647,-1.375 21.033,-2.333 29.218,-4.274 1.05,0.62 2.26,1.07 2.14,2.85 z"
         id="path87" />
      <path
         inkscape:connector-curvature="0"
         d="m 176.73,330.66 c 1.319,-1.733 0.479,4.695 0.711,6.413 -1.32,1.73 -0.48,-4.7 -0.71,-6.41 z"
         id="path89" />
      <path
         inkscape:connector-curvature="0"
         d="m 128.27,336.35 c 1.074,3.954 1.587,12.153 -2.14,13.54 -1.752,-2.45 0.869,-5.453 0,-9.264 -1.154,1.933 -0.916,5.259 -1.426,7.84 -1.19,2.052 -0.565,-3.643 -0.711,-4.989 -1.615,3.226 -3.25,8.389 0,10.688 -0.513,2.575 -3.617,2.562 -6.412,2.853 0.681,-1.933 0.312,-4.912 3.562,-4.275 -1.621,-4.302 1.974,-8.09 0.713,-14.253 2.26,0.13 3.05,-1.74 6.42,-2.14 z"
         id="path91" />
      <path
         inkscape:connector-curvature="0"
         d="m 94.065,337.78 c -2.371,2.618 -8.005,1.972 -12.828,2.139 3.423,-1.77 9.159,-2.69 12.828,-2.14 z"
         id="path93" />
      <path
         inkscape:connector-curvature="0"
         d="m 180.29,349.18 c 1.656,0.719 2.295,2.454 2.137,4.987 -1.09,-1.29 -2.57,-2.18 -2.14,-4.99 z"
         id="path95" />
      <path
         inkscape:connector-curvature="0"
         d="m 81.953,353.46 c -0.396,2.798 -6.526,0.194 -7.127,-1.426 1.28,-0.76 4.966,0.84 7.127,1.43 z"
         id="path97" />
      <path
         inkscape:connector-curvature="0"
         d="m 146.09,353.46 c 0.809,6.754 -10.787,4.878 -14.965,4.275 l 0,-1.426 c 2.78,-3.15 10.4,-1.48 14.97,-2.85 z"
         id="path99" />
      <path
         inkscape:connector-curvature="0"
         d="m 76.963,359.87 c 1.469,0.903 -0.334,6.84 -2.138,9.265 -1.409,1.891 -3.955,3.264 -5.701,3.562 -2.403,-4.83 5.16,-8.71 7.839,-12.83 z"
         id="path101" />
      <path
         inkscape:connector-curvature="0"
         d="m 176.02,366.29 c 5.292,-0.303 7.561,2.418 11.4,3.562 0.22,1.88 -1.485,1.838 -2.85,2.139 -0.46,-5.82 -7.44,-0.7 -8.55,-5.7 z"
         id="path103" />
      <path
         inkscape:connector-curvature="0"
         d="m 198.11,368.42 c 3.315,2.147 7.349,3.581 7.127,9.266 -4.02,-1.11 -7.75,-5.85 -7.13,-9.27 z"
         id="path105" />
      <path
         inkscape:connector-curvature="0"
         d="m 202.38,377.69 c -2.574,2.394 -8.694,-5.674 -12.827,-7.126 3.312,-2.707 7.614,4.942 12.112,5.7 -0.1,0.83 0.17,1.27 0.72,1.43 z"
         id="path107" />
      <path
         inkscape:connector-curvature="0"
         d="m 182.43,376.26 c -3.92,-1.066 -7.733,-2.243 -11.402,-3.562 2.08,-2.31 9.66,0.91 11.4,3.56 z"
         id="path109" />
      <path
         inkscape:connector-curvature="0"
         d="m 158.2,84.802 c 1.152,0.988 2.26,2.02 3.562,2.852 2.822,-5.708 8.785,-15.696 3.564,-22.804 1.955,-2.224 3.043,-2.553 2.139,-6.414 1.716,0.292 1.547,-1.302 3.562,-0.713 1.813,8.391 0.437,20.279 2.14,30.643 -1.756,-1.768 -3.09,0.526 -2.851,2.851 3.154,1.017 1.863,-2.411 4.272,-2.139 0.272,2.408 -1.232,3.042 -2.137,4.276 0.225,2.865 3.354,2.821 2.853,6.414 -1.944,0.519 -1.437,-1.416 -2.853,-1.426 -0.531,3.295 0.803,2.91 2.853,2.139 -0.888,3.109 -1.121,7.079 3.562,6.414 0.817,2.955 -1.498,2.775 -1.426,4.987 -0.691,-0.019 -0.552,-0.872 -0.711,-1.425 -1.825,1.502 -1.396,5.257 -1.426,8.551 1.057,-1.003 1.531,-2.273 1.426,0.714 0.637,2.487 -2.327,1.217 -2.852,0.713 0.761,6.521 7.387,2.844 9.265,7.838 -1.815,-3.924 4.976,-10.657 0,-13.54 -0.129,-1.555 0.582,-2.268 2.137,-2.139 -0.251,-0.936 -1.254,-1.12 -1.426,-2.138 -1.89,-0.227 0.668,3.992 -2.136,2.852 1.511,-6.468 -0.787,-15.621 4.986,-20.667 -0.272,-1.863 -2.283,-1.99 -1.426,-4.988 -2.271,1.362 -3.689,6.631 -4.275,9.977 -0.431,2.463 -0.42,5.076 0,7.126 -4.963,0.756 -2.271,-3.169 -1.424,-5.702 0.686,-2.048 0.399,-4.807 1.424,-7.838 -2.578,0.813 0.988,-3.17 -2.137,-4.275 0.396,-2.75 2.756,0.917 2.137,-2.851 -0.377,-1.097 -0.742,-0.046 -0.711,0.712 -2.631,-10.55 6.897,-25.167 0.711,-32.779 1.108,-1.028 1.406,-2.87 4.275,-2.139 -1.072,-3.198 -0.629,-5.418 1.426,-7.126 1.482,0.417 2.305,1.497 3.562,2.139 -3.615,8.814 1.545,21.671 0,32.067 0.82,2.029 3.363,2.337 4.277,4.276 -4.765,7.446 -1.592,19.541 1.424,28.504 -4.574,5.349 -4.889,13.906 -4.275,22.804 -2.089,-0.048 -2.646,-1.629 -3.562,-2.851 3.457,-4.621 -1.278,-17.431 4.988,-19.241 -0.088,-2.64 -1.037,-1.792 -2.852,-1.425 -0.229,-1.673 -1.125,-2.675 -0.711,-4.988 2.802,3.568 1.139,-6.581 -0.715,-7.126 -0.69,2.482 -2.461,2.245 -2.851,-0.713 -1.606,0.53 -0.278,3.998 -0.713,5.701 0.114,0.835 1.302,0.602 2.138,0.713 -1.229,10.799 1.824,11.234 1.426,20.666 -3.319,-2.13 -2.9,1.826 -4.275,3.563 3.025,10.75 16.943,10.611 20.667,20.665 -1.94,0.383 -7.967,-2.076 -7.84,3.563 -2.013,0.589 -1.847,-1.005 -3.563,-0.713 2.414,12.807 -0.246,22.385 0.715,35.631 0.607,8.404 6.51,23.68 7.84,34.918 3.304,1.492 2.356,7.576 -0.715,8.552 -2.295,-0.316 -4.138,-1.088 -3.562,-4.274 2.236,-0.338 1.882,1.918 3.562,2.137 2.086,-1.922 0.611,-2.766 0,-4.988 -2.235,-0.35 -1.883,2.456 -3.562,0.713 -1.408,-4.463 -1.561,-10.928 -4.986,-11.4 0.512,-4.511 0.154,-5.507 1.426,-9.264 -3.441,1.548 -1.724,8.255 -4.988,9.977 -1.912,-2.8 -2.04,-6.288 -1.426,-9.977 1.936,-0.512 -0.51,3.358 1.426,2.851 1.188,-3.036 1.246,-10.32 4.273,-13.54 -5.359,-6.885 1.198,-16.91 -4.988,-22.804 1.217,-2.502 1.562,1.663 2.139,2.139 1.8,-2.546 0.279,-7.856 -1.424,-9.264 0.197,-1.496 1.9,1.031 2.85,-0.713 -1.225,-6.933 -1.31,-11.361 -4.99,-16.391 -1.684,2.665 2.043,6.013 2.853,8.551 -4.024,-1.914 -4.472,-7.405 -4.988,-12.826 2.524,-0.387 1.753,2.523 4.277,2.138 -0.076,2.926 -0.118,5.817 1.424,7.125 2.089,-0.604 -0.426,-2.293 0,-3.563 3.033,1.681 5.248,0.498 8.552,0 -0.133,-2.003 -1.238,-3.036 -3.562,-2.85 0.185,-2.324 -0.849,-3.43 -2.851,-3.564 -2.502,0.196 1.785,2.655 -0.713,2.852 -3.224,-2.243 -5.214,-5.715 -10.689,-5.701 -2.025,-0.125 0.859,4.661 -2.139,3.562 -2.541,-2.286 2.842,-3.113 0.713,-4.987 -0.494,-2.233 -1.9,-0.93 -3.562,-0.712 2.22,-3.104 -2.688,-4.146 -2.853,-7.126 6.289,2.021 8.434,10.38 15.68,9.265 -1.934,-4.482 -7.877,-4.951 -9.266,-9.977 -7.15,-1.4 -10.041,-7.063 -15.679,-9.978 3.011,-2.908 -1.171,-4.239 -0.711,-8.552 1.04,0.622 2.759,0.565 2.138,2.851 1.625,-0.987 0.266,-4.96 0.713,-7.126 3.523,1.231 2.711,10.737 0,12.114 1.785,1.23 2.951,3.166 5.699,4.988 -1.426,-4.819 -1.455,-6.954 -1.426,-13.539 2.323,1.953 2.249,6.303 2.139,10.688 4.182,-4.639 -0.41,-10.952 0.713,-14.964 -1.879,-0.217 -1.838,1.487 -2.139,2.851 -2.933,-2.692 -0.713,-9.792 -0.713,-12.114 -2.708,-0.571 -0.904,3.369 -1.425,4.988 -4.403,-0.445 -0.616,-4.05 -0.711,-6.414 -4.616,-1.054 -1.05,6.021 -2.853,10.689 -2.004,-0.22 -3.582,-2.376 -5.701,-4.275 -0.219,-3.544 0.113,-6.538 0.713,-9.265 -0.618,-1.043 -1.067,-2.258 -2.852,-2.138 -2.792,5.309 -1.306,15.751 0,21.378 -3.212,-1.006 -3.99,-7.638 -3.562,-9.978 -1.452,0.211 -1.399,1.93 -2.853,2.14 3.33,2.058 -1.922,5.393 2.139,7.125 -0.01,1.416 -1.943,0.907 -1.426,2.851 0.252,2.362 2.135,3.091 3.564,4.275 -0.584,1.44 -3.76,-0.452 -4.988,-0.713 -1.285,6.238 1.448,7.429 2.137,12.827 -2.162,0.262 -1.479,-2.321 -2.137,-3.562 -1.757,2.735 0.954,7.098 2.137,9.263 3.715,-5.529 -2.51,-14.893 6.414,-17.102 -0.008,1.416 -1.942,0.905 -1.427,2.85 1.464,-0.198 1.423,-1.903 2.14,-2.85 -0.53,-2.794 -4.203,-2.45 -4.274,-5.701 3.372,-1.887 4.776,3.559 7.839,4.275 -2.426,-0.124 -4.422,4.628 -4.99,8.552 2.851,0.108 2.911,1.464 5.701,2.851 -1.508,2.442 -5.631,-2.157 -4.275,2.852 -1.654,1.721 -1.905,-1.113 -3.562,-1.426 3.314,4.764 7.387,8.767 14.252,9.977 -0.804,0.858 -2.033,1.292 -1.425,3.563 -4.57,-2.319 -7.039,-6.737 -11.401,-9.265 -1.574,0.088 -0.303,3.023 -0.712,4.276 -2.308,0.88 -0.545,-2.306 -2.851,-1.425 -1.336,3.232 2.83,0.969 2.137,3.562 1.709,0.282 -0.396,-3.246 2.139,-2.138 -0.922,6.285 9.988,3.509 6.414,12.114 -1.345,-6.44 -3.42,3.365 -7.839,0 0.552,0.634 0.765,1.608 0.712,2.851 0.277,0.017 3.356,1.337 4.276,0 1.052,1.642 -1.703,3.347 1.426,4.988 -0.142,1.013 -4.892,-1.503 -2.853,-2.851 -3.283,1.171 0.606,2.385 0,4.989 -0.605,0.13 -0.672,-0.279 -0.713,-0.713 -1.535,2.463 -1.148,0.179 -2.139,-1.426 -1.316,0.106 -0.437,2.413 -1.425,2.851 -0.118,1.545 2.526,0.323 3.563,0.713 1.379,5.036 1.904,10.922 5.701,13.54 -1.686,-2.689 -1.849,-8.377 -3.562,-12.827 0.665,0.523 1.08,1.296 1.426,2.139 2.087,-0.604 -0.426,-2.293 0,-3.563 1.982,2.769 5.012,4.489 5.699,8.552 1.083,-2.478 4.562,-3.921 2.852,-7.126 2.312,0.414 3.314,-0.484 4.987,-0.712 l 0,-4.274 c 1.431,-0.243 2.231,0.146 2.14,1.425 1.723,-1.772 0.301,-6.443 -0.713,-7.838 -0.027,1.118 -1.104,3.032 -1.427,5.701 -1.502,-2.191 -1.153,-4.104 0,-5.701 0.038,-3.6 -3.45,-3.676 -4.274,-6.414 3.084,0.24 2.492,4.16 5.701,4.274 3.078,-1.022 -1.445,-3.236 0.713,-5.7 4.594,3.48 5.633,10.519 7.836,16.39 -1.383,-1.465 -1.983,-3.716 -2.85,-5.701 -1.393,0.099 -3.381,3.179 -1.424,4.275 -1.057,2.032 -4.907,1.269 -3.562,5.702 -2.02,-0.743 -2.973,-0.743 -4.99,0 -1.473,6.462 5.589,4.388 4.99,9.976 1.373,-0.287 0.062,-3.263 2.85,-2.138 -3.176,-4.031 -2.124,-10.788 2.138,-12.827 1.534,2.611 -0.153,7.183 -2.138,8.551 4.554,6.795 -0.025,13.066 2.851,20.666 -3.827,2.649 0.009,9.314 0.714,12.114 -0.572,-0.376 -1.158,-0.743 -2.14,-0.713 l 0,7.127 c 6.205,4.696 3.728,14.838 0.713,21.379 0.285,1.854 2.128,2.149 2.14,4.274 -3.004,4.097 2.188,14.5 -2.14,18.527 -0.211,1.874 2.767,0.562 2.14,2.853 -3.354,0.445 -0.1,7.503 -3.562,7.837 3.615,4.571 1.343,11.241 2.137,17.814 0.692,-0.019 0.555,-0.87 0.713,-1.424 2.479,1.352 -0.298,0.797 -0.713,2.139 -1.254,4.05 -1.271,20.868 -0.713,27.08 0.217,2.406 0.227,5.396 2.139,7.124 -1.242,2.795 -1.656,6.42 -4.275,7.84 -0.232,-2.619 0.607,-6.31 -0.711,-7.84 -0.998,2.805 -2.768,4.836 -2.139,9.267 1.545,0.118 0.322,-2.528 0.713,-3.562 1.414,1.346 1.215,2.497 0.711,4.273 0.836,1.764 2.961,-1.729 2.851,1.425 2.03,-0.583 0.072,-5.153 2.853,-4.987 -0.193,7.24 -0.664,9.644 -1.426,17.814 -1.894,2.205 -3.711,6.46 -2.138,9.979 -6.108,-3.268 -1.89,-12.455 -3.563,-19.954 -0.078,-0.565 -2.354,-2.159 -2.139,-0.713 0.665,-11.586 -1.171,-21.893 -0.711,-38.48 1.37,2.282 1.555,1.62 3.562,3.563 0.559,-2.936 -1.096,-3.657 -0.713,-6.414 3.654,-7.134 -0.896,-17.469 1.424,-25.653 -0.209,-2.482 -1.928,0.06 -2.137,-1.426 l 0,-31.354 c 1.658,0.008 -0.027,4.724 1.426,6.414 -0.537,-0.624 2.939,-2.439 1.426,0 0.783,-3.378 2.146,-6.237 1.425,-9.267 -2.396,-0.73 -1.108,2.218 -1.425,3.564 -1.367,1.547 -0.451,-5.212 -0.715,-7.126 1.262,1.336 2.08,-0.851 3.562,0.713 0.487,-4.201 3.831,-9.083 0,-13.54 -3.21,3.153 -1.277,7.59 -3.562,12.114 -2.656,-3.686 -0.561,-12.033 -1.424,-15.68 2.532,-1.105 0.43,2.423 2.139,2.14 0.893,-5.474 0.604,-12.463 0,-19.241 -3.197,3.171 0.467,9.336 -0.715,14.966 -2.779,0.309 -3.248,2.928 -2.851,6.413 -2.069,-1.983 -1.848,2.339 -4.987,1.426 -0.119,1.544 2.525,0.323 3.563,0.711 -0.838,2.251 -5.349,0.831 -4.276,4.988 1.063,2.353 0.84,-2.384 2.852,-1.424 -1.404,1.488 -0.547,4.73 0,6.414 -2.691,1.226 -8.018,0.344 -7.84,-4.99 1.785,1.867 3.582,2.139 3.562,4.277 1.783,0.121 2.232,-1.097 2.852,-2.14 -2.28,-1.993 -4.438,-4.11 -6.412,-6.414 -0.359,-3.684 2.266,-4.383 1.426,-8.552 -1.88,-0.848 -1.839,3.429 -2.139,0 -1.06,1.08 -1.148,3.129 -1.426,4.99 -3.733,-1.915 1.412,-3.85 -0.713,-9.266 l 2.139,0 c -0.743,-2.02 -0.743,-2.97 0,-4.987 -5.06,-0.35 -6.902,13.183 -2.851,15.676 0.517,9.448 2.036,23.919 0.712,30.646 -1.574,-0.09 -0.304,-3.024 -0.712,-4.275 -1.089,-0.049 -2.897,-0.623 -2.852,-3.562 -2.896,1.382 -0.779,7.771 -1.427,11.4 1.272,1.815 1.929,0.758 3.562,2.853 1.764,-0.614 -0.209,-4.96 1.426,-5.701 -0.316,3.487 2.117,8.935 0,12.114 l 0,6.411 c 0.414,1.452 -0.484,5.616 -0.711,2.141 l 0,-12.116 c -1.938,-0.209 -2.246,-1.328 -4.277,-2.849 l 0,13.539 c 1.75,1.402 4.44,2.816 6.414,5.698 -3.019,4.062 0.779,8.932 0,14.969 3.362,-3.771 0.719,-9.677 0.713,-14.969 -0.014,-13.344 1.5,-28.726 0.713,-37.056 0.104,-1.557 1.795,-1.528 3.562,-1.424 -0.105,-1.317 -2.412,-0.439 -2.851,-1.426 0.92,-2.169 4.628,1.941 4.989,-1.427 -0.09,-1.572 -3.024,-0.302 -4.274,-0.713 1.346,-2.382 2.878,-0.447 5.698,-0.711 l 0,5.699 c -1.482,-1.546 -2.303,0.088 -3.562,0.715 2.236,5.421 0.838,15.397 0,23.517 -1.045,-8.202 0.186,-13.194 -0.711,-22.093 -3.634,5.944 -0.393,13.661 -0.714,19.953 -0.022,0.487 -1.281,1.375 -1.426,2.14 -0.878,4.7 1.321,9.396 0.715,14.251 3.178,-1.57 0.581,-8.919 1.425,-12.827 4.518,3.201 0.072,11.204 1.424,17.814 -1.148,0.201 -1.226,-0.674 -2.138,-0.711 -1.147,13.709 -1.476,28.914 -1.426,47.746 -1.785,-1.649 -2.253,2.095 -3.562,-0.715 0.727,4.115 -1.646,10.281 0.713,13.542 2.784,-0.769 0.043,-4.935 1.426,-5.703 2.298,-1.938 2.254,3.022 2.139,5.703 -1.193,2.051 -0.566,-3.643 -0.715,-4.99 -1.275,3.307 -2.133,8.607 0.715,10.688 1.178,-3.083 0.593,-8.301 1.425,-12.827 -0.922,-1.396 -3.455,1.11 -2.851,-2.849 0.875,-0.798 1.464,-0.622 1.426,0.713 1.936,0.509 -0.51,-3.361 1.425,-2.853 l 0,-10.688 c 0.601,-5.416 0.931,3.013 0.711,4.986 1.943,6.94 -2.188,18.45 1.427,24.941 0.225,1.677 3.377,0.422 2.852,2.852 -2.193,0.53 -1.37,-1.955 -3.564,-1.426 -0.637,2.3 2.325,1.002 2.85,2.138 -2.422,1.932 0.085,2.535 0,5.701 -1.137,-0.999 -1.818,-2.455 -2.137,-4.275 -3.861,1.422 -4.433,-1.68 -4.986,-3.562 -4.344,0.072 -3.95,1.15 -5.703,-1.426 -1.954,1.775 0.193,9.252 -0.711,9.976 -4.121,-1.817 -2.221,-7.466 -2.139,-12.111 0.211,-1.906 -2.765,1.894 -2.139,-1.426 3.276,-2.548 8.413,4.057 12.827,4.987 -2.765,-4.6 -9.698,-5.026 -9.978,-12.113 -1.059,0.603 -1.029,2.294 -1.426,3.563 -1.635,-1.454 -0.258,-5.92 -0.711,-8.554 -2.938,1.38 -2.656,6.339 -2.14,9.265 -3.151,-3.203 0.112,-7.676 0,-11.4 -0.101,-3.423 -1.795,-8.039 -1.424,-13.54 0.575,-8.567 0.34,-15.76 0.713,-26.367 2.882,8.522 -2.124,29.589 2.137,38.48 0.853,-6.163 1.69,-14.839 1.425,-21.378 -0.119,-2.939 -0.886,-2.859 -0.711,-6.413 1.243,-25.297 -1.25,-61.024 0.711,-77.676 1.045,0.62 2.26,1.066 2.139,2.85 1.059,-0.604 1.533,-1.793 1.425,-3.562 -0.298,-1.601 -3.778,-0.019 -4.272,-1.426 3.713,-1.607 0.041,-8.409 0,-11.401 -4.635,4.936 -4.601,15.124 -4.277,23.517 2.576,0.675 0.994,-2.809 1.427,-4.274 1.364,-1.55 0.448,5.21 0.711,7.126 -1.251,-1.771 -1.304,-1.165 -2.138,0.713 -1.107,2.532 2.423,0.43 2.138,2.137 0.334,1.521 -1.019,1.357 -2.138,1.427 -1.877,14.262 1.891,21.769 2.138,35.63 -0.646,1.414 -2.392,1.414 -0.711,0 l 0,-3.562 c 0.3,-1.49 -0.489,-1.886 -0.713,-2.852 -3.345,2.343 -0.63,9.188 0,12.116 -1.249,1.189 -2.948,3.162 -1.427,7.125 1.108,2.533 -2.42,0.432 -2.139,2.139 -0.129,2.73 0.586,0.258 2.139,0.713 -1.487,8.369 -0.27,17.136 0,25.654 0.383,12.042 -0.732,23.907 -0.713,35.63 4.014,-0.669 2.821,-5.92 1.426,-8.551 0.686,1.217 2.24,1.562 3.562,2.137 -0.811,6.798 1.035,12.953 2.139,15.679 2.016,0.589 1.846,-1.004 3.563,-0.713 0.992,0.907 0.308,3.492 2.138,3.564 1.398,-0.54 -1.935,-2.275 -0.711,-4.99 0.723,0.464 0.734,1.639 2.137,1.426 1.443,-0.808 -1.537,-3.157 -0.713,-5.7 1.897,2.514 2.644,1.748 5.699,2.852 -0.011,5.95 4.686,7.192 4.988,12.827 -2.189,2.691 -7.71,0.765 -10.688,0 1.073,3.438 7.191,1.833 7.838,5.698 -3.248,-0.586 -6.817,-2.434 -9.978,-4.274 -2.323,-1.355 -7.14,-3.153 -5.698,-6.413 1.639,1.686 3.071,3.579 5.698,4.273 2.542,-1.463 -3.112,-0.603 -2.137,-2.849 3.473,0.328 8.347,-0.747 10.688,0.713 -3.158,-4.677 -5.964,-1.339 -9.979,-4.277 -2.305,-0.878 -0.543,2.309 -2.85,1.427 -2.567,-2.418 -6.525,-3.45 -9.264,-5.701 -1.412,-4.288 -0.418,-10.983 -0.713,-16.389 0.729,-0.698 1.441,-1.409 2.139,-2.14 -0.137,-0.578 -0.715,-0.711 -0.715,-1.426 -0.677,-0.407 -6.578,1.402 -4.275,4.276 -4.616,0.962 -8.842,-0.368 -13.539,1.426 0.518,-2.18 -1.229,-2.097 -0.711,-4.276 1.147,-1.063 3.572,0.615 6.414,0 -2.187,-1.979 0.221,-1.565 0,-3.562 -0.381,-3.418 -3.849,-11.538 -0.715,-7.126 -0.777,3.863 1.438,4.737 1.426,7.837 2.603,-0.01 3.201,-2.024 4.988,-2.851 1.656,-0.358 -3.879,3.464 -4.988,4.99 3.494,0.165 5.395,-1.259 9.265,-0.715 0.515,-14.234 -0.894,-37.073 0,-56.297 0.31,-6.62 1.669,-13.044 -0.713,-17.814 3.438,-9.233 0.021,-23.303 1.426,-31.354 0.386,-2.522 -2.524,-1.753 -2.14,-4.274 3.615,0.049 2.32,-4.808 2.853,-7.84 -0.297,-2.555 -4.167,-1.536 -4.987,-3.562 2.484,1.468 4.664,-6.985 0,-7.129 -0.518,-2.179 1.229,-2.095 0.711,-4.274 -2.858,-2.366 -1.936,-8.515 -3.562,-12.114 -0.844,2.077 -2.527,5.101 0,5.701 -1.914,0.233 -3.159,0.418 -3.562,3.563 0.742,1.225 4.172,0.883 2.138,2.85 -3.685,-3.007 -3.675,2.739 -2.853,5.701 -1.76,-1.771 -2.107,1.509 -3.562,2.139 0.905,4.728 4.368,2.651 6.414,6.413 -1.063,-4.129 -2.036,-6.298 -2.138,-9.979 2.092,1.267 2.41,0.975 4.275,1.427 -4.013,3.025 1.188,5.308 2.139,9.265 -1.645,0.217 -0.793,-2.059 -2.139,-2.139 -1.525,0.89 1.773,2.922 1.424,4.989 -1.83,-0.069 -1.02,-2.782 -2.85,-2.852 -1.43,5.64 4.412,8.684 1.426,12.827 -0.791,-1.404 -1.777,-3.326 -2.139,0 -0.631,-3.646 -2.396,-6.157 -3.562,-9.265 0.578,0.137 0.711,0.715 1.426,0.713 -0.81,-3.467 -2.715,-5.838 -4.276,-8.554 -1.539,1.821 2.42,4.201 2.14,7.129 -0.572,-0.378 -1.158,-0.744 -2.14,-0.715 0.737,3.853 0.151,6.71 0.713,12.116 -0.692,-0.019 -0.554,-0.872 -0.713,-1.426 -2.683,3.95 2.063,2.143 1.426,6.414 -1.026,-0.162 -0.249,-2.128 -1.426,-2.14 -0.079,31.276 0.142,69.861 -0.713,96.916 -2.72,-0.671 -1.345,-4.174 -1.423,-5.699 -0.961,-17.978 0.037,-44.055 0,-57.011 -0.036,-11.812 -0.728,-24.13 -0.715,-36.345 0.006,-5.102 2.676,-10.877 -0.711,-15.677 -3.486,-0.397 -1.703,4.475 -2.14,7.127 -2.374,-1.238 -3.161,0.359 -6.414,0 -3.507,2.668 -3.394,8.957 -7.126,11.401 4.146,0.101 5.518,-8.729 9.977,-10.688 2.565,12.319 -2.142,33.807 2.852,44.893 -0.91,-1.742 -1.934,0.553 -2.137,2.142 -1.992,15.469 2.398,43.812 0,59.146 -3.301,-1.213 0.048,-9.073 -2.139,-11.4 -3.504,1.012 -3.871,5.157 -7.127,6.414 -1.293,-7.714 -0.33,-15.315 -0.713,-24.941 1.219,0.03 1.846,-0.531 2.139,-1.426 1.289,1.322 3.597,1.627 5.701,2.137 -0.463,-3.016 1.527,-10.664 -2.853,-11.402 1.552,2.167 -2.075,4.773 -2.849,8.554 -2.812,-2.998 -1.1,-8.065 -1.426,-12.114 -0.334,-4.114 -0.875,-7.214 -0.714,-11.401 0.116,-3.023 0.693,-6.321 0.714,-9.266 0.041,-6.443 -3.654,-13.922 1.426,-17.102 -1.431,1.449 -0.188,1.897 0.711,2.849 8.24,2.217 4.736,-17.841 3.562,-19.24 -1.663,0.211 -1.663,1.93 0,2.139 -8.51,4.556 -21.109,5.021 -30.642,8.553 -0.443,7.03 -1.333,14.574 0,21.377 1.613,-2.402 2.29,-5.463 1.424,-8.55 3.071,-0.016 5.483,-0.693 6.413,-2.853 -0.344,-4.979 -5.83,-1.161 -6.413,-1.426 0.536,-3.74 1.469,-7.082 4.989,-7.837 2.603,2.739 -0.902,7.16 3.564,7.837 -3.541,18.07 -0.126,35.712 0,53.447 0.053,7.804 -1.057,15.753 0,24.229 -2.579,-1.224 -1.304,-6.299 -4.99,-6.413 -0.91,0.231 0.934,5.065 -2.138,4.987 -0.034,-5.531 -2.088,-11.652 0,-17.104 -2.38,-5.521 0.418,-11.864 0,-19.24 -0.354,-6.25 -4.232,-16.735 1.425,-19.24 -2.364,-0.486 -3.425,-2.275 -3.562,-4.988 -0.339,20.307 -1.635,48.499 0.711,65.562 10.004,-0.448 18.184,-2.723 28.505,-2.853 -0.396,2.319 -3.326,2.526 -4.987,2.853 -7.816,1.527 -18.99,0.479 -26.367,2.852 0.88,-30.354 0.032,-65.106 -0.713,-96.204 -4.931,0.668 -2.791,7.058 -2.852,9.978 -0.25,12.08 0.166,29.049 0.715,40.617 0.375,7.929 -0.745,15.784 0,22.806 0.261,2.465 2.053,4.841 2.137,7.126 0.116,3.146 -3.102,9.979 -1.426,14.964 -4.498,-6.665 -1.059,-21.269 -2.137,-31.354 -1.676,-0.938 -2.011,-3.217 -2.851,-4.989 0.399,-2.064 1.112,1.093 2.139,0.713 -2.403,-16.173 -0.504,-29.403 -0.713,-52.021 -0.399,-1.093 -3.946,-2.613 -1.426,-4.274 -1.03,-0.146 -1.593,-1.293 -4.275,-1.426 3.18,4.087 0.007,17.812 0,24.94 -0.027,24.094 1.458,47.068 1.423,71.977 2.145,0.716 1.264,-1.589 1.426,-2.851 3.14,5.989 -4.748,3.952 -4.988,7.837 -1.151,0.201 -1.226,-0.673 -2.138,-0.713 -3.133,3.509 -12.663,3.65 -17.815,2.853 -1.559,0.104 -1.53,1.795 -1.426,3.562 7.303,-0.757 16.379,-4.655 22.091,-1.426 0.858,-0.805 1.292,-2.034 3.564,-1.426 0.614,3.045 0.793,3.884 1.426,7.839 -1.829,-0.072 -1.146,-2.653 -2.141,-3.562 -2.585,0.646 -0.433,2.103 -0.711,4.274 -1.876,-1.735 -2.4,-0.4 -4.276,-2.139 -1.698,1.151 -3.74,1.962 -4.276,4.276 -6.189,-2.821 -9.59,-11.388 -17.103,-5.7 0.463,0.725 1.638,0.735 1.425,2.139 0.956,-0.47 1.327,-1.524 1.426,-2.852 1.267,2.95 1.072,10.558 0,13.539 4.095,1.017 9.656,-1.41 14.965,-1.425 -0.932,5.491 -12.85,2.599 -18.528,4.274 -2.717,2.105 -6.032,4.711 -5.701,7.84 -4.407,-2.281 -4.658,5.152 -10.69,3.562 2.266,-3.433 7.437,-3.965 7.838,-9.263 -2.226,-0.325 -2.277,1.521 -2.138,3.563 -2.368,0.229 -0.772,-3.504 -4.276,-2.139 -2.09,0.606 0.928,1.793 0,3.562 -4.092,-2.773 -6.391,-10.415 -4.275,-17.104 -3.913,-2.356 -6.284,-9.744 -12.827,-7.126 0.51,4.716 2.549,7.901 2.85,12.827 3.936,4.377 7.354,9.273 11.401,13.54 -2.585,-0.74 -4.423,-2.229 -5.701,-4.277 -1.849,0.604 1.372,3.127 -0.713,4.277 -2.313,-0.536 -1.101,-4.602 -3.563,-4.988 -1.641,3.324 1.836,7.649 1.426,12.114 -2.639,-3.062 -2.837,-8.563 -3.563,-13.54 -4.65,-3.189 -9.444,-6.232 -12.827,-10.69 -1.666,-8.546 -5.186,-15.24 -9.264,-21.377 5.417,-0.421 8.268,7.877 15.677,7.839 -5.138,-18.71 -13.957,-36.32 -16.389,-59.18 0.681,-1.221 2.366,-1.437 2.851,-2.853 2.731,6.297 4.933,13.122 10.689,16.393 1.087,-1.6 -0.146,-6.954 -1.426,-8.553 2.634,-1.653 2.425,5.631 2.852,8.553 0.724,3.312 4.328,3.746 4.275,7.837 0.031,1.825 -0.529,0.87 -1.425,0.715 2.143,10.447 4.83,20.347 9.977,27.791 1.928,-4.085 -3.002,-7.437 -4.276,-10.688 6.084,-9.153 -1.759,-24.493 -6.414,-33.494 2.17,0.442 1.393,3.834 3.563,4.274 1.016,-5.3 -2.146,-12.574 -3.563,-17.814 -2.484,-2.267 -8.211,-1.288 -9.264,-4.987 3.877,-0.078 4.454,3.147 8.551,2.851 -0.126,-2.25 -0.5,-4.25 -2.85,-4.275 1.103,-2.239 0.455,-3.976 -0.713,-5.701 -1.011,-0.061 -2.018,-0.117 -2.138,0.713 -1.603,-0.743 0.932,-3.277 2.851,-2.852 0.561,-2.459 -0.667,-3.132 -2.138,-3.562 1.068,-2.354 1.742,1.48 3.563,0.713 -2.866,-8.537 -7.007,-15.799 -7.839,-26.366 2.061,0.314 3.249,1.501 3.563,3.562 -1.026,-0.796 -1.739,-0.768 -2.137,0.715 2.925,9.189 5.117,19.111 10.688,25.654 0.725,-0.464 0.737,-1.639 2.139,-1.426 0.895,5.756 0.129,7.806 4.988,11.401 -1.046,-5.707 -3.549,-11.021 -2.138,-17.814 1.312,1.774 0.773,5.401 2.851,6.413 -2.508,0.564 0.037,11.492 4.275,12.112 2.181,-3.862 -1.492,-7.991 -3.562,-9.977 -0.107,-1.348 1.729,0.401 1.424,0.713 2.621,-2.688 -2.561,-13.733 -4.988,-14.966 l 0,2.139 c -1.275,-6.801 -4.527,-11.626 -10.689,-13.54 1.633,-1.121 5.232,1.867 7.126,2.853 0.003,-2.456 0.311,-6.079 -0.713,-8.553 -1.474,-3.559 -7.046,-6.525 -8.551,-10.688 -0.538,-1.486 -2.689,-6.42 0.712,-7.84 0.175,6.954 2.178,12.074 7.126,14.253 3.025,-6.601 -1.878,-11.417 -2.851,-16.39 1.981,0.394 1.996,2.755 2.851,4.274 1.87,-0.253 -2.312,-6.499 1.426,-6.413 -0.764,9.789 2.72,15.33 8.551,18.527 1.646,-6.643 -4.761,-11.386 -4.988,-18.527 3.014,0.784 0.634,6.966 4.988,6.413 -0.941,4.503 1.992,5.135 2.851,7.838 1.395,-4.452 -0.269,-8.11 -0.713,-13.539 2.674,3.026 1.168,10.234 3.563,13.539 2.288,0.625 1.478,-1.848 2.851,-2.137 0.435,-10.756 -10.326,-13.759 -9.264,-22.804 4.962,-0.213 2.209,7.292 4.989,9.264 2.637,-1.401 1.094,-6.982 3.563,-8.553 1.87,0.356 4.016,2.314 2.138,4.276 2.644,-0.207 0.296,-5.403 2.85,-5.702 3.638,1.978 -1.204,5.257 -1.424,7.84 -2.843,-0.393 -2.146,-0.393 -4.989,0 -0.393,1.462 1.361,1.698 1.426,0.713 -0.984,2.271 0.037,7.662 1.425,11.402 1.516,-2.523 2.052,-6.024 4.276,-7.84 1.334,3.452 -7.338,10.459 -1.426,14.253 2.629,-0.619 1.245,-6.039 0.713,-7.839 4.946,-3.368 1.545,-15.083 9.977,-14.966 0.956,2.964 -4.153,4.637 -4.988,6.414 -1.613,3.435 0.036,8.217 -2.852,11.401 1.736,4.202 0.851,11.026 2.139,15.679 5.113,-5.815 6.094,-15.761 12.114,-20.667 -1.263,-14.938 -0.511,-36.646 -0.713,-54.872 -2.12,-4.77 -8.964,-4.813 -10.688,-9.978 -0.912,0.976 -3.366,0.976 -4.276,0 l 0,-3.562 c 2.942,-1.81 6.866,-2.636 10.689,-3.564 1.604,-1.245 0.948,-4.752 4.276,-4.274 l 0,-23.518 c -5.598,-7.812 3.283,-16.891 4.989,-24.229 0.27,-2.408 -1.235,-3.041 -2.139,-4.276 1.66,-2.422 -0.222,-3.979 2.851,-4.987 0.589,-2.015 -1.004,-1.848 -0.712,-3.563 5.39,-4.448 5.14,-19.367 5.701,-24.229 0.693,0.02 0.553,0.873 0.713,1.426 2.355,-1.068 -1.482,-1.742 -0.713,-3.563 -1.904,-0.003 -1.549,2.253 -3.563,2.139 -1.102,-1.036 -0.627,-3.648 -0.713,-5.701 1.497,-1.508 2.778,0.838 4.276,1.426 1.145,-0.975 -1.197,-5.385 0.713,-7.126 2.014,-0.589 1.846,1.004 3.562,0.713 1.589,2.339 -1.481,3.143 0,4.988 0.584,1.732 3.757,-1.413 4.989,0.713 0.341,2.242 -1.015,2.786 -1.426,4.276 -2.014,0.588 -1.846,-1.005 -3.563,-0.714 -0.16,8.01 2.475,14.934 2.852,24.229 1.455,1.692 2.82,-0.979 4.274,0.713 -0.426,2.563 0.259,4.021 2.141,4.276 -1.061,8.768 0.209,17.557 1.424,23.516 1.821,-0.079 1.414,-2.386 1.426,-4.275 2.355,-1.444 4.937,-2.664 9.263,-2.138 -0.875,2.08 0.838,5.796 -0.711,8.552 0.49,2.233 1.9,0.929 3.562,0.713 -0.494,1.406 -1.9,1.898 -3.562,2.138 -2.692,-1.35 -0.377,-7.7 -2.139,-9.978 -1.418,0.958 -3.393,1.358 -4.99,2.138 l 0,10.688 c -1.688,1.161 -4.121,1.58 -6.414,2.139 -0.901,-3.342 0.521,-5.593 -0.711,-9.265 -3.434,-0.345 -4.915,1.262 -5.702,3.563 4.424,1.174 3.966,3.291 4.276,7.839 4.566,-0.187 7.446,-2.057 10.69,-3.563 0.452,-2.633 -0.924,-7.099 0.711,-8.552 3.075,0.488 0.656,6.471 1.426,9.265 -2.981,3.193 -10.172,2.181 -12.114,6.414 -1.573,-0.564 -0.927,-3.35 -2.851,-3.562 -0.568,2.044 -2.427,2.799 -2.139,5.701 1.521,0.333 1.357,-1.019 1.426,-2.139 1.62,4.372 -0.831,7.665 0.713,12.114 9.19,-1.973 17.504,-4.823 24.94,-8.552 -2.376,-2.383 -7.644,3.074 -12.827,0.713 -2.81,0.276 -2.178,0.506 -4.988,1.425 4.372,-4.375 -6.285,0.732 -4.988,-4.275 5.056,0.96 11.568,3.267 16.39,-1.426 1.684,0.199 -0.817,1.903 -0.711,2.852 2.372,-0.584 3.718,-0.655 7.124,-1.426 l 0,-4.988 c -1.695,-1.029 -1.749,-1.082 -2.137,-2.14 4.038,-4.438 1.62,-12.456 2.137,-19.24 -5.531,-0.306 -0.46,9.991 -4.275,11.402 l 0,-11.402 c 1.49,-0.41 2.034,-1.768 4.275,-1.424 0.229,-2.365 0.108,-4.385 -1.426,-4.989 -0.876,-4.916 2.101,-5.977 1.426,-10.688 -0.952,-2.275 -2.408,-4.065 0.715,-4.988 1.779,0.492 -1.323,1.9 -0.715,3.562 2.994,-1.146 2.956,-4.121 6.414,-1.425 -0.578,-3.222 -1.64,-5.963 -2.851,-8.552 -2.557,-0.419 -0.021,4.256 -2.85,3.562 1.296,-4.004 -1.061,-10.036 1.424,-13.54 2.757,-0.619 2.534,1.741 4.275,2.139 0.018,12.255 2.395,17.855 3.562,28.505 -0.306,1.968 2.655,0.669 2.851,2.138 -1.042,4.058 -0.146,6.267 0,10.688 -1.356,0.306 -1.791,1.535 -3.562,1.426 0.235,-4.66 0.237,-6.761 0.713,-9.978 -6.002,0.06 -1.203,11.842 -2.851,14.253 2.377,0.715 2.335,-0.988 2.138,-2.851 3.387,3.535 6.808,-1.798 10.688,-2.138 l 0,-11.402 c 2.85,1.188 0.811,7.268 1.426,10.688 3.271,0.658 3.441,-1.782 6.414,-1.425 -1.857,3.854 -11.538,3.652 -11.4,7.126 -1.041,0.717 -4.488,-1.976 -6.414,0.713 -0.781,4.136 1.207,2.178 1.424,4.275 -4.022,2.651 -1.344,-3.401 -3.562,-3.562 -2.887,3.231 3.705,7.646 0,9.977 -0.52,1.944 1.417,1.435 1.426,2.851 13.764,-1.915 20.67,-10.687 34.205,-12.827 -4.072,4.24 -13.273,3.354 -17.103,7.839 6.696,0.04 15.644,-3.833 22.092,-6.414 -0.765,2.086 -2.022,3.679 -1.426,7.126 1.604,-1.009 2.907,-2.319 4.274,-3.563 -0.141,-2.47 -0.593,-4.632 -3.562,-4.275 0.616,-5.645 0.448,-6.637 0,-12.114 -2.239,1.086 -1.187,5.465 -1.427,8.551 -3.315,-1.956 -0.848,-6.719 -0.713,-9.976 0.211,-4.98 -0.154,-9.983 0,-14.966 -0.17,-1.254 -1.226,-1.625 -2.848,-1.425 -0.093,-5.013 -2.094,-8.938 -4.277,-13.54 -3.049,4.776 -1.721,14.474 -6.414,19.241 0.427,6.463 -0.883,14.661 0.713,19.954 4.014,-9.052 -2.643,-21.669 5.701,-27.08 7.09,3.125 2.047,18.382 3.563,27.08 -1.858,1.7 -5.587,2.897 -8.553,1.425 -3.003,-0.39 0.347,5.571 -2.851,4.989 -0.506,-6.713 0.89,-10.909 -1.424,-15.678 -1.543,0.597 -2.433,1.845 -4.99,1.425 -2.297,-2.355 -0.164,-4.937 -0.711,-9.265 -2.99,-0.376 -3.98,1.245 -6.414,1.426 -0.402,4.111 1.338,10.365 -2.139,11.401 0.116,-1.333 1.249,-7.761 0.713,-12.114 2.813,-1.46 6.113,-2.438 9.266,-3.563 1.82,2.215 -0.399,8.474 1.424,10.689 1.15,0.2 1.227,-0.675 2.139,-0.713 1.231,-3.387 1.602,-12.039 -1.426,-13.539 4.172,-5.093 5.832,-12.696 7.839,-19.954 -0.26,-4.016 -4.185,-4.367 -4.276,-8.552 2.129,-1.918 4.559,0.182 6.414,0.714 2.067,-2.058 -1.933,-1.686 -2.138,-3.563 3.979,-11.317 4.733,-23.229 8.552,-35.631 -0.293,-1.316 -3.389,2.41 -4.988,0 l 0,-2.137 c -0.217,-1.881 1.488,-1.839 2.852,-2.14 -0.643,-4.205 1.074,-6.051 4.273,-6.414 1.953,2.088 1.091,6.988 4.275,7.839 -0.677,2.41 -0.781,5.395 -4.275,4.988 3.529,10.722 3.731,20.438 4.99,33.494 4.362,-0.978 -0.445,-6.704 2.851,-8.552 4.479,0.908 -0.622,7.226 3.563,7.839 -0.914,1.937 -2.229,3.475 -2.852,5.701 2.064,9.475 0.458,19.858 4.986,25.653 1.02,4.083 -1.82,4.326 -1.38,7.858 z m 7.13,6.414 c 1.42,-1.729 3.043,1.203 3.564,-1.426 -0.831,-0.12 -0.775,-1.126 -0.715,-2.138 -2.016,0.122 -4.889,-0.613 -4.988,1.425 3.077,0.333 -3.486,6.228 0,9.265 1.76,-1.187 3.49,-5.079 2.14,-7.126 z m -16.39,40.614 c 1.766,4.41 2.934,9.418 6.412,12.114 -1.22,-4.95 -0.69,-11.65 -6.41,-12.11 z m 1.42,7.13 c -1.79,4.67 1.091,9.479 4.277,11.401 1.55,-4.11 -2.21,-8.57 -4.28,-11.4 z m -0.71,7.84 c -0.69,6.392 1.8,9.604 4.988,12.114 -0.09,-5.61 -1.49,-9.91 -4.99,-12.11 z m -0.71,9.26 c 0.664,3.612 2.546,6.006 3.562,9.264 -1.969,-0.17 -1.625,-2.649 -2.851,-3.562 0.521,4.897 -1.946,14.207 4.274,17.814 1.634,-1.915 -1.617,-4.954 0,-6.414 -0.129,1.556 0.584,2.268 2.14,2.139 -0.569,-3.706 -2.099,-6.453 -3.563,-9.265 0.91,0.04 0.985,0.913 2.139,0.713 0.08,-5.19 -2.34,-11.25 -5.7,-10.69 z m 4.99,29.93 c -0.166,-3.873 -1.727,-6.35 -4.275,-7.839 -0.607,6.072 2.338,8.589 5.699,10.688 1.2,-2.65 -0.16,-1.39 -1.43,-2.85 z M 98.342,306.43 c -0.695,-0.417 -4.756,1.866 -4.276,4.989 3.493,3.67 7.304,-4.52 4.276,-4.99 z m -80.526,36.34 c -3.966,-1.733 -8.04,-3.361 -12.115,-4.988 4.168,9.136 6.183,20.423 16.391,23.518 -0.667,-6.94 -2.529,-12.68 -4.276,-18.53 z m 9.977,-69.13 c -4.181,-4.37 -8.154,-8.949 -11.403,-14.253 l -2.85,0 c 1.43,7.25 4.823,19.71 14.253,14.25 z m 0,-3.56 c 0.564,2.284 0.593,5.107 4.275,4.274 -0.371,-2.47 -2.412,-3.28 -4.275,-4.27 z m 2.137,-17.1 c 0.16,-0.553 0.019,-1.405 0.713,-1.424 -1.955,-3.747 -1.391,-10.013 -7.126,-9.979 2.14,3.8 3.443,8.43 6.413,11.4 z m 5.701,-26.37 c 0.106,6.733 1.204,20.256 5.701,22.803 0.426,-1.27 -2.088,-2.96 0,-3.562 1.545,3.321 0.357,6.613 2.139,1.425 0.484,2.604 0.994,5.183 0.712,8.551 0.842,0.346 1.616,0.76 2.139,1.426 -1.083,3.649 1.103,9.684 4.988,10.688 -0.62,-6.742 -2.699,-12.027 -2.851,-19.241 -1.327,-0.683 -2.382,2.135 -2.85,0 0.385,-4.661 -0.439,-8.11 -0.713,-12.114 -3.282,-0.905 -1.137,3.615 -2.851,4.277 1.302,-6.067 -5.468,-7.82 -3.563,-12.116 1.347,0.08 0.495,2.356 2.139,2.14 -0.536,-5.098 -1.712,-5.309 -1.426,-11.401 -4.456,0.63 -3.612,4.07 -3.564,7.11 z m -4.276,2.14 c -0.121,1.066 0.255,2.631 -0.712,2.853 0.446,-4.011 -1.555,-5.573 -4.276,-6.414 0.375,8.417 1.075,16.362 4.988,21.377 0.786,1.008 3.758,5.061 7.126,2.852 -0.995,2.05 1.943,3.619 0,4.277 -0.992,-2.811 -3.761,-3.842 -7.126,-4.277 3.753,5.037 4.326,13.253 8.552,17.815 0.41,-1.253 -0.861,-4.187 0.713,-4.275 1.134,7.925 3.04,14.901 10.688,17.815 -1.28,-3.709 -4.496,-5.48 -4.988,-9.979 0.714,0 0.848,0.577 1.424,0.714 0.2,-5.425 -2.501,-7.948 -3.563,-12.115 -1.401,-0.214 -1.412,0.962 -2.138,1.426 -0.339,-8.924 -4.861,-13.667 -7.838,-19.951 -1.226,-0.281 -1.828,1.057 -2.139,0 -0.862,-2.228 -1.729,-4.448 -2.851,-6.414 1.673,1.736 1.595,-0.796 2.851,-1.426 -0.013,3.812 0.156,7.444 3.563,7.84 -0.178,-5.3 0.244,-11.18 -4.274,-12.13 z m -9.976,-8.55 c 0.623,5.067 -1.757,18.692 4.988,19.951 -0.171,-8.69 -0.377,-14.76 -4.988,-19.95 z m 9.264,32.07 c -0.277,5.503 0.637,9.813 2.851,12.826 -1.009,2.287 0.389,7.447 2.137,9.264 0.604,-2.089 2.294,0.426 3.563,0 l 0,-4.987 c -1.479,-1.371 -3.452,-2.249 -4.988,-3.563 l 2.85,0 c -2.024,-4.63 -2.67,-10.63 -6.413,-13.54 z m 17.815,15.67 c 0.013,2.838 0.682,5.02 2.138,6.413 1.419,-1.93 0.799,-6.59 -2.138,-6.41 z M 146.09,74.11 c 1.818,-1.269 0.613,-2.071 1.426,-4.988 -0.838,-0.111 -2.021,0.123 -2.139,-0.713 3.953,-3.648 2.197,-13.005 5.703,-17.103 0.159,0.553 0.019,1.405 0.711,1.426 0.82,-0.842 0.805,-2.52 0.713,-4.276 -1.783,0.089 -2.229,1.36 -2.851,-0.713 -0.707,-6.384 -2.085,-15.212 -4.987,-17.102 -0.293,-4.222 0.902,-9.932 -1.426,-12.114 -0.902,8.937 -5.555,20.609 0,27.792 -0.738,3.146 -2.84,4.263 -4.988,4.275 -0.067,6.116 -4.877,11.268 -2.852,17.103 1.837,-3.388 2.209,-8.244 3.562,-12.114 3.61,4.951 3.88,13.233 7.14,18.527 z M 64.136,88.363 c 2.523,1.248 1.752,-0.474 4.276,-0.713 0.16,1.347 -0.803,1.572 -0.713,2.851 2.533,-1.107 0.431,2.42 2.138,2.138 0.158,-0.556 0.597,-0.828 1.426,-0.713 l 0,-3.562 C 68.713,87.2 65.296,86.258 64.136,88.363 Z m 9.976,-10.689 c 1.044,1.021 2.258,0.547 2.138,-1.426 -1.347,-0.16 -1.572,0.805 -2.851,0.713 -0.556,-7.045 -1.728,-13.474 -2.137,-20.666 -1.654,-0.367 -1.956,1.5 -2.138,2.139 -1.483,5.208 -1.275,12.29 -2.139,18.527 0.543,1.121 2.261,1.065 2.139,2.851 0.186,2.086 -1.612,2.189 -1.426,4.275 1.986,0.627 1.691,3.535 4.276,3.563 2.061,-0.314 3.248,-1.502 3.563,-3.563 -2.121,-2.084 -1.715,-2.461 -1.425,-6.413 z m -0.713,17.815 c -0.655,-3.503 5.041,-7.464 1.426,-9.264 -0.761,2.351 -2.985,6.959 -1.426,9.264 z M 148.22,68.41 c 2.084,3.298 -1.074,7.458 -1.426,10.689 2.658,-0.669 1.537,-5.114 3.562,-6.414 0.152,0.86 0.791,0.438 1.427,0 0.774,1.812 -3.338,2.763 0,2.851 1.422,-2.809 -0.969,-7.006 -0.711,-10.688 0.159,-2.328 3.873,-4.861 0.711,-5.701 -0.65,3.614 -0.98,7.559 -3.56,9.263 z m 37.06,8.551 c -1.416,1.188 -0.904,-0.064 -2.851,0 1.18,3.572 -0.11,9.613 4.987,9.265 -0.16,-1.348 0.805,-1.572 0.715,-2.851 -4.727,-4.07 2.076,-11.098 -2.139,-15.678 -1.15,2.877 -1.72,6.043 -0.72,9.264 z m -55.58,0.713 c 2.085,0.187 2.188,-1.61 4.274,-1.426 -0.95,-3.13 2.133,-5.889 0,-7.838 0.06,4.571 -2.75,6.272 -4.27,9.264 z m 25.65,-4.277 c -0.122,-2.017 0.615,-4.889 -1.424,-4.988 -0.12,2.252 -0.03,4.301 1.42,4.988 z m -53.45,47.741 c 6.444,0.143 4.263,-8.546 4.277,-15.679 0.021,-11.723 2.756,-24.82 -3.564,-30.642 -1.72,13.4 0.16,31.462 -0.72,46.322 z m 36.35,-32.063 c -1.555,-0.129 -2.27,0.583 -2.139,2.139 2.405,4.271 -0.47,5.893 0,11.401 4.918,-0.34 3.199,-2.601 2.85,-5.701 -0.396,-3.525 0.946,-7.783 1.426,-9.977 1.225,-5.588 0.9,-11.122 -1.426,-11.401 -1.74,2.577 -5.51,11.146 -0.71,13.536 z m 12.11,6.414 c 2.427,-3.276 1.771,-9.631 2.14,-14.965 0.674,-1.228 2.635,-1.166 2.139,-3.563 -2.194,0.499 -1.369,0.499 -3.562,0 -0.35,5.982 -2.23,12.884 -0.72,18.528 z m 4.28,-7.839 c 0.346,-1.27 0.76,0.309 1.426,0.713 -0.973,-3.933 0.756,-6.492 -1.426,-8.552 -0.83,2.841 -2.07,5.396 0,7.839 z m -79.102,8.552 c 0.937,-1.939 2.993,-6.472 1.425,-8.551 0.211,3.087 -3.317,6.148 -1.425,8.551 z m -16.39,15.676 c -0.503,6.675 1.812,13.613 0.712,22.092 5.419,-0.281 8.364,-3.038 12.827,-4.275 0.365,-7.094 -1.535,-13.553 -0.711,-21.379 -2.333,-4.555 -4.562,-9.214 -5.702,-14.965 -0.911,-0.039 -0.987,-0.913 -2.138,-0.713 -0.27,6.746 -4.483,12.518 -4.988,19.238 z M 78.389,99.765 c -0.697,-2.507 2.374,-5.915 0,-7.126 -0.87,1.078 -1.4,6.138 0,7.126 z M 61.285,99.052 c 0.318,-1.401 2.643,-4.406 0.713,-5.701 -0.318,1.401 -2.644,4.407 -0.713,5.701 z m 10.69,5.706 c 0.209,-1.453 1.927,-1.397 2.137,-2.851 -3.48,0.394 -3.571,-2.605 -4.988,-4.275 -0.12,3.435 1.205,5.445 2.851,7.125 z m -14.966,3.56 c 3.612,0.499 3.794,-6.149 2.851,-7.838 0.293,3.86 -2.915,4.21 -2.851,7.84 z m 27.793,0.71 c -1.185,-1.428 0.059,-5.286 -1.426,-6.414 -0.097,1.328 -0.47,2.382 -1.424,2.85 0.053,-0.998 -0.16,-2.725 -0.715,-1.424 0.461,2.38 1.176,4.52 3.565,4.98 z m -9.264,4.28 c -0.558,-1.76 2.588,-4.935 -0.713,-4.989 0.424,1.48 -0.881,4.68 0.713,4.99 z m 64.132,-1.43 c 2.822,-0.503 6.603,-0.05 7.127,-2.85 -3.07,0.25 -6.23,0.43 -7.13,2.85 z m -9.26,3.56 c 3.144,-0.657 5.668,-1.932 7.838,-3.563 -3.12,0.68 -6.56,1.04 -7.84,3.56 z m 9.26,1.43 c 1.65,-0.726 3.318,-1.433 3.564,-3.562 -2.55,-0.17 -5.43,1.48 -3.56,3.56 z M 124,114.018 c -11.845,4.753 -25.625,10.471 -37.771,14.965 -2.881,1.065 -8.038,0.261 -8.55,4.988 2.283,2.198 2.513,-1.676 4.988,-1.426 15.975,-4.217 28.867,-11.515 44.895,-15.678 -0.13,-2 -1.24,-3.03 -3.56,-2.84 z m 7.12,3.56 c -2.608,1.43 -7.811,0.266 -8.552,3.562 3.218,-0.131 4.019,-1.334 4.988,1.425 1.48,-1.35 3.16,-2.53 3.56,-4.98 z m 6.41,62 c -3.789,-4.633 1.986,-9.768 4.277,-12.827 -2.878,-4.01 -1.223,-12.556 -4.988,-15.678 -2.531,6.163 2.176,15.193 -1.426,19.954 -1.559,-14.292 1.281,-26.69 2.137,-42.044 -1.521,-1.975 -3.882,1.317 -4.275,-1.426 3.744,0.181 2.843,-4.286 2.853,-7.838 -1.399,-0.215 -1.411,0.962 -2.139,1.425 -0.433,-1.703 0.894,-5.17 -0.714,-5.701 0.158,2.294 -1.26,3.016 -0.711,5.701 -1.943,0.063 -1.435,-1.187 -2.851,0 -0.692,2.125 -0.185,4.339 -0.713,4.988 -6.067,2.248 -14.679,1.949 -17.104,7.839 0.306,1.358 2.039,1.29 1.427,3.562 3.372,-3.281 9.495,-3.808 14.253,-5.701 0.068,-2.904 0.732,-4.806 4.277,-5.701 0.027,15.445 0.461,45.532 0,64.849 0.908,0.04 0.983,0.914 2.136,0.713 -0.08,-5.28 2.39,-8.04 3.54,-12.11 z m -4.98,21.38 c 2.521,-1.487 2.402,-6.71 3.562,-10.688 0.359,-1.229 1.73,-3.367 2.139,-4.989 0.201,-0.803 1.197,-5.799 0,-2.851 -2.32,5.76 -5.19,10.97 -5.7,18.53 z m 13.54,-74.83 c -1.883,-0.018 -4.465,0.664 -3.562,-2.138 1.48,1.545 2.303,-0.087 3.562,-0.713 1.533,-2.668 -1.366,-2.153 -0.713,-5.701 -2.84,-0.465 -2.041,2.709 -2.137,4.988 -0.828,-0.598 -1.912,-0.94 -3.564,-0.712 -0.316,1.923 -0.258,3.804 2.14,4.989 -0.562,1.574 -2.494,1.782 -3.562,2.85 0.736,3.062 1.396,6.206 2.85,8.551 -1.673,-0.227 -1.596,-2.206 -2.85,-2.851 -0.319,3.646 -3.142,11.028 0,13.54 3.394,-2.107 3.215,-6.394 3.562,-9.978 -0.49,2.37 1.474,1.148 2.138,0.712 0.65,-4.56 2.8,-7.64 2.13,-13.54 z m -4.28,34.92 c -0.468,-4.521 0.938,-10.917 -0.713,-14.252 -4.42,3.903 0.219,12.261 1.426,17.104 0.112,-0.838 -0.124,-2.022 0.713,-2.138 -0.237,4.513 1.326,7.224 1.427,11.4 -4.644,6.137 -0.084,19.954 3.562,26.367 -0.414,-2.313 0.485,-3.315 0.713,-4.987 -1.823,-0.153 -2.627,-3.833 -2.853,-6.415 -0.428,-4.965 0.844,-12.711 1.427,-14.252 -0.171,-1.336 -1.173,0.404 -1.427,-0.713 0.615,-13.25 1.854,-27.042 -0.713,-36.343 -3.63,5.64 -1.97,16.57 -3.57,24.23 z m -24.23,-35.63 c 2.179,-0.517 2.096,1.23 4.274,0.713 -0.344,-2.744 -1.454,-4.722 -4.274,-4.988 -1.55,1.5 0.36,2.04 0,4.28 z m -14.25,2.14 c -1.382,1.065 -2.167,4.089 0.713,4.275 0.955,-0.469 1.326,-1.522 1.424,-2.85 -1.01,-0.18 -1.2,-1.18 -2.13,-1.43 z m -0.71,-0.71 c -1.735,0.401 -3.667,0.608 -3.564,2.85 2.324,0.18 3.424,-0.85 3.564,-2.85 z m 4.99,4.27 c 1.225,-2.755 5.91,-1.687 4.273,-4.274 -1.729,1.795 1.205,-2.487 -1.424,-2.14 -2.024,2.53 -5.104,-0.392 -7.127,2.14 2.85,0 2.79,2.91 4.28,4.27 z m -10.694,-0.71 c 0.548,2.446 1.974,4.009 4.277,2.85 -0.07,-2.32 -2.878,-4.04 -4.274,-2.85 z m -38.481,10.69 c 6.209,-0.725 13.081,-6.626 17.815,-4.275 -1.023,-2.124 2.501,-4.342 -0.712,-4.276 -4.43,4.13 -13.807,3.3 -17.103,8.56 z m 17.815,-9.27 c -0.081,-0.87 -0.213,-1.687 -1.425,-1.425 -5.447,2.867 -13.384,3.243 -17.103,7.838 7.025,-1.28 12.246,-4.37 18.528,-6.41 z m 1.426,4.99 c -0.298,2.435 0.215,4.061 2.851,3.562 0.926,-1.77 -2.091,-2.957 0,-3.562 0.954,0.469 1.327,1.521 1.426,2.85 5.087,-0.138 7.212,-3.238 8.55,-7.125 -2.555,0.938 -2.612,-0.047 -4.988,0.712 -1.806,1.741 1.502,1.52 0.711,4.276 -1.503,-0.633 -2.106,-2.169 -4.273,-2.138 -1.491,0.42 -2.035,1.77 -4.277,1.43 z m 34.924,12.12 c -1.087,-2.807 2.099,-4.952 0.711,-5.701 -0.15,0.799 -0.791,1.109 -1.427,1.425 -1.551,-1.49 0.357,-2.034 0,-4.276 -9.818,-1.708 -17.506,4.146 -19.239,12.827 0.355,-3.68 -4.25,-2.399 -4.273,-5.701 -4.916,0.55 -7.178,3.752 -9.265,7.127 0.357,2.967 2.741,3.908 2.852,7.126 4.804,-0.184 9.299,-0.679 8.55,-6.414 1.348,0.159 1.572,-0.804 2.852,-0.712 0.231,2.616 3.182,2.519 3.562,4.987 -0.151,0.799 -0.79,1.11 -1.426,1.425 -0.956,-0.468 -1.326,-1.522 -1.425,-2.85 -2.312,0.801 -6.182,3.763 -4.988,5.701 1.053,-1.797 2.756,-2.945 4.988,-3.563 0.882,2.307 -2.305,0.545 -1.426,2.852 2.778,-1.021 5.9,-1.702 7.839,-3.563 -3.549,-1.568 -7.744,-7.184 -4.988,-10.688 0.08,0.869 0.213,1.687 1.426,1.425 0.552,-9.93 14.819,-9.446 14.963,-1.425 0.059,3.063 -3.053,5.677 -6.412,7.125 2.589,-2.021 7.541,-7.792 2.851,-10.688 0.886,2.833 0.289,8.306 -2.851,9.265 -1.205,-1.438 -7.358,-1.626 -4.273,-4.989 1.259,0.641 2.079,1.72 3.562,2.139 3.705,-2.3 -0.469,-5.349 2.137,-7.126 -6.338,-2.301 -11.272,4.417 -9.264,10.689 1.717,0.791 5.047,1.331 2.139,2.851 3.796,1.451 8.413,-1.885 11.4,-3.562 0.068,3.12 4.305,0.087 5.701,0 -0.79,-2.57 -3.84,-2.85 -4.28,-5.72 z m -31.362,12.11 c -2.551,0.301 -3.428,2.271 -3.562,4.988 4.36,2.532 6.697,-1.718 9.265,-2.851 -2.988,-1.842 -2.205,1.931 -5.703,1.426 0.08,-1.78 1.336,-2.21 0,-3.57 z m 39.902,-9.26 c -3.174,-0.863 -4.166,-3.91 -6.413,-5.702 -2.099,2.797 1.543,4.777 2.14,7.126 5.627,-0.07 10.504,-0.896 12.113,-4.987 -3.66,0.13 -3.71,3.88 -7.84,3.56 z m 7.13,-10.69 c 0.082,0.869 0.213,1.687 1.426,1.425 -1.002,-2.95 2.032,-5.505 0,-7.126 -0.763,0.665 -0.223,2.629 -2.139,2.138 -0.554,-1.584 -0.411,-3.863 -2.138,-4.276 0,4.529 -9.996,2.814 -7.838,7.126 0.453,-0.598 3.33,-2.23 3.562,-0.713 -1.151,1.461 -3.429,1.797 -4.987,2.852 -0.193,2.806 0.273,4.951 2.137,5.701 -0.812,-3.746 8.264,-0.431 5.703,-6.413 -2.636,0.365 -2.674,3.262 -4.276,1.425 0.573,-2.277 3.663,-2.038 4.987,-3.564 3.179,3.483 -1.256,9.524 -4.987,7.84 3.92,6.18 10.31,-1.99 8.56,-6.42 z m -18.53,-2.85 c -0.547,-3.499 -1.664,-2.714 0,-5.701 -6.188,0.761 -11.641,6.964 -14.964,1.426 l 0,8.552 c 5.364,-1.06 9.264,-3.57 14.964,-4.28 z m -32.064,7.13 c 1.205,2.523 -0.728,4.057 0.713,5.701 1.534,-1.078 1.986,-3.24 3.564,-4.276 4.663,-1.511 10.995,-1.354 11.402,-7.126 -5.181,-0.79 -11.11,3.54 -15.679,5.71 z m -17.104,-2.86 c -1.84,10.199 -1.333,18.461 -0.712,30.642 1.401,0.213 1.413,-0.961 2.138,-1.425 -0.408,3.365 -1.099,5.473 2.138,6.414 0.168,-2.92 0.35,-5.826 1.426,-7.838 0.067,4.106 0.102,8.179 -1.426,10.688 -3.256,-0.068 -2.468,-4.184 -4.276,-5.701 2.485,11.824 -1.474,22.584 0.712,34.918 0.424,-5.039 2.435,-8.491 3.563,-12.827 -1.864,0.202 -3.065,-0.261 -2.851,-2.139 1.794,-2.006 2.063,-5.538 4.988,-6.413 1.994,1.566 1.6,6.885 4.276,5.702 0.913,2.812 -2.076,1.725 -2.138,3.562 1.669,4.27 2.774,9.102 4.275,13.54 -0.053,0.998 0.16,2.725 0.713,1.426 l 0,-2.139 c -0.15,-14.488 1.361,-44.532 -1.424,-59.146 1.276,2.851 1.871,-2.319 1.424,-4.275 -1.002,-4.396 -4.235,-3.538 -4.988,-7.127 -1.14,0.979 -2.781,3.991 -4.276,0.714 -2.351,1.542 1.58,4.433 0,4.987 -1.702,-0.65 -2.89,-1.84 -3.562,-3.55 z m -10.688,2.14 c 1.102,-2.178 0.627,3.091 0.712,4.276 2.234,0.709 5.315,3.252 7.126,2.138 -0.299,-3.977 -5.206,-3.346 -5.701,-7.126 3.014,-0.889 4.579,0.481 6.414,-0.712 -0.896,-0.292 -1.456,-0.92 -1.426,-2.138 -2.969,0.14 -7.81,2.13 -7.125,3.56 z m 108.32,-2.85 c -0.82,0.842 -0.806,2.519 -0.711,4.274 2.18,-0.516 2.096,1.23 4.273,0.713 0.175,-2.387 1.535,-4.491 -0.711,-5.7 0.22,2.92 -1.49,0.39 -2.85,0.72 z m -37.77,17.82 0,2.851 c -1.898,-2.619 -4.477,1.748 -7.126,-1.426 -2.281,0.095 -3.136,1.616 -2.851,4.275 3.584,0.497 4.967,-1.209 8.553,-0.712 -0.676,1.775 2.543,4.299 -0.715,4.275 -1.543,0.12 -0.322,-2.527 -0.711,-3.563 -2.756,-0.381 -3.479,1.272 -6.414,0.713 0.604,2.722 4.271,2.382 6.414,3.563 1.022,2.933 4.615,3.568 6.414,5.7 2.111,2.506 2.194,5.922 4.987,7.84 -1.892,-7.315 2.461,-14.036 -1.426,-17.816 1.053,5.882 -4.669,2.97 -3.562,7.126 -1.229,0.038 -1.828,-0.548 -2.14,-1.425 1.038,-2.288 3.931,-2.723 4.274,-5.702 -2.86,-0.91 -2.84,-4.73 -5.68,-5.69 z m 8.55,-4.28 c 2.679,3.067 -2.804,10.257 2.138,11.401 l 0,-14.965 c -7.951,2.737 -16.707,4.67 -24.229,7.838 -0.774,2.043 -0.247,5.552 2.138,6.414 -0.365,-3.929 2.024,-5.102 4.275,-6.414 2.193,-0.531 1.369,1.956 3.564,1.425 0.717,-0.946 0.674,-2.65 2.139,-2.85 1.58,0.554 2.777,1.497 4.986,1.425 -0.141,2.041 -0.089,3.89 2.137,3.563 -0.16,-3.71 -0.2,-7.32 2.85,-7.83 z m -1.42,7.13 c 0.54,-1.552 2.802,-5.017 0,-5.701 -0.92,1.83 -0.5,4.51 0,5.7 z m 28.5,6.41 c 0.171,-1.254 1.224,-1.624 2.849,-1.426 0.455,4.061 2.203,6.823 4.99,8.552 -0.552,-5.626 -4.816,-7.536 -4.99,-13.54 -3.228,-1.091 0.379,4.652 -2.849,3.562 -0.435,-1.703 0.894,-5.17 -0.715,-5.701 -0.26,0.98 -0.45,6.79 0.72,8.56 z m -59.144,3.56 c 3.388,-1.961 7.065,-7.021 5.701,-11.402 -7.738,1.763 -12.822,6.184 -21.379,7.126 -1.35,3.98 -6.139,6.673 -2.849,11.402 1.522,-1.456 -0.201,-2.82 -0.713,-4.275 1.528,-1.829 3.98,0.597 4.988,-0.713 -0.815,2.241 1.12,1.732 1.426,2.852 -2.015,0.588 -1.848,-1.005 -3.562,-0.713 1.775,3.902 -1.319,3.472 -1.426,7.126 0.838,0.11 2.023,-0.123 2.137,0.712 2.665,6.553 7.14,-2.394 8.552,-5.701 2.526,1.042 4.946,-3.39 6.413,-5.701 -1.663,0.217 -3.069,1.521 -3.563,-0.712 2.733,-0.724 0.906,-3.295 2.14,-4.274 0.761,0.664 0.221,2.629 2.137,2.138 1.715,-1.836 0.947,-4.032 2.852,-4.276 0.173,3.26 -3.231,2.94 -2.857,6.4 z m -16.389,12.83 c -2.931,1.36 -3.823,8.512 -2.138,12.114 0.833,-2.968 2.617,-4.981 3.564,-7.838 -4.613,-0.39 0.718,-2.58 -1.426,-4.27 z m 0.711,11.4 c -2.693,-1.03 -1.367,1.958 -3.562,1.426 0.336,4.316 -1.249,6.35 0.713,9.265 0.741,-7.576 7.149,-13.271 6.414,-19.953 -0.581,3.41 -6.105,5.01 -3.565,9.25 z m -13.539,35.63 c 2.87,1.543 4.061,6.791 2.851,8.552 -1.084,-3.207 -3.872,-8.463 -6.414,-7.84 1.619,0.52 2.132,2.145 2.85,3.562 -5.521,3.958 -2.159,12.27 -3.563,18.528 -4.269,-6.18 3.924,-16.474 -3.563,-19.241 -2.471,34.699 0.576,69.188 -1.425,102.62 5.455,0.882 12.294,-0.306 16.39,-2.85 1.026,-23.053 -1.566,-53.138 -0.713,-76.252 0.103,-2.769 0.361,-6.258 2.138,-8.551 -1.596,0.034 -1.841,-0.04 -2.138,-1.426 -1.488,-6.957 2.423,-17.562 -0.713,-24.229 -3.27,0.769 -2.034,6.041 -3.563,8.55 -0.209,-0.62 -1.927,-3.11 -2.137,-1.42 z m 17.103,-9.97 c 0.424,2.273 -1.336,2.205 0,3.564 3.986,2.04 6.976,-1.04 7.837,-4.275 -2.046,-0.996 -3.62,1.941 -4.273,0 -0.981,-16.174 6.44,-43.178 21.376,-41.333 2.52,0.312 6.354,3.306 7.84,5.701 3.629,5.854 3.377,17.699 2.85,25.654 1.279,1.335 4.374,0.852 4.99,2.85 -2.49,-0.637 -1.219,2.325 -0.715,2.853 l 2.852,0 c 0.531,-4.57 -0.833,-7.244 -0.713,-11.401 1.348,-1.415 3.365,-0.347 4.99,0 1.019,-2.128 -0.584,-2.424 0.711,-4.277 -0.947,-1.745 -2.65,0.783 -2.851,-0.711 -1.086,-17.205 -7.632,-28.949 -22.091,-32.78 -1.214,-1.4 -1.665,-3.562 -3.562,-4.276 -1.488,9.562 -10.743,13.312 -15.677,20.666 -0.949,1.41 -2.325,5.338 -3.564,8.552 -3.401,8.81 -4.317,17.997 -4.99,28.505 -1.357,0.304 -1.289,2.034 -3.562,1.424 -0.03,-0.979 0.335,-1.563 0.713,-2.138 -2.29,-0.626 -0.976,2.349 -2.851,2.138 -2.306,-8.145 -4.453,-16.449 -7.126,-24.229 -2.283,0.595 -4.795,4.671 -2.85,7.127 -0.038,-1.227 0.548,-1.827 1.426,-2.139 3.703,6.511 4.169,16.258 8.551,22.092 4.155,-0.9 6.021,-2.07 10.692,-3.55 z m -4.99,9.97 c -0.414,-3.773 2.931,-0.455 3.564,-2.14 -1.66,-0.488 1.859,-5.437 -1.424,-5.7 -0.133,1.056 -1.722,0.651 -2.852,0.713 -0.497,2.99 -0.959,4.77 0.712,7.13 z m 79.808,-44.89 c 0.101,3.68 -1.619,3.975 -2.851,1.425 l 0,4.276 c 2.718,-2.273 1.726,0.285 4.276,1.426 1.717,-6.823 4.422,-17.814 9.265,-19.241 -0.765,2.562 -2.231,4.42 -3.563,6.413 2.336,-0.04 2.725,-2.025 5.701,-1.425 1.434,2.774 7.268,9.545 2.137,12.115 -2.096,-2.892 -2.959,-7.017 -5.698,-9.264 -0.476,2.85 -2.144,4.509 -2.853,7.126 2.598,0.457 0.883,-3.396 2.853,-3.563 2.079,3.659 1.84,8.053 2.849,11.401 0.125,0.413 1.277,-0.095 1.426,0.713 0.619,3.364 -1.215,6.646 0.713,9.263 -0.932,-2.896 1.475,-3.579 2.853,-2.136 0.285,-3.376 -1.272,-4.904 -0.715,-8.553 -1.063,-0.119 -2.629,0.255 -2.851,-0.713 2.986,0.849 1.271,-3.003 2.851,-3.562 3.677,1.476 -0.464,6.423 3.563,7.126 -0.101,-8.928 -2.088,-15.603 -2.139,-22.804 -4.372,-0.771 -0.74,-5.318 -2.852,-8.552 -1.619,2.697 0.658,-4.375 -2.137,-2.851 -4.848,5.604 -7.703,13.2 -12.828,18.528 -0.836,-1.89 1.367,-4.195 0,-4.275 -1.72,2.59 -2.75,6.9 0,7.1 z m -17.1,-12.12 c -1.684,-2.525 0.967,-5.146 -1.426,-6.414 -1.84,1.14 -1.64,6.22 1.43,6.41 z m -11.4,0 c -0.431,-1.469 1.15,-4.95 -1.425,-4.275 0.43,1.48 -1.15,4.96 1.42,4.28 z m 25.66,0 c 4.286,-2.159 2.095,2.695 4.276,4.275 2.4,-3.285 -1.092,-5.742 -2.852,-7.126 -0.38,1.06 -1.06,1.8 -1.43,2.85 z m -1.43,2.14 c -0.105,1.77 0.367,2.957 1.426,3.562 0.439,-1.696 3.105,-1.171 2.139,-4.275 -1.72,-0.28 -1.56,1.31 -3.57,0.72 z m 26.37,4.99 c 0.873,-2.021 0.576,-4.713 -1.426,-5.701 -1.36,1.57 1.11,3.64 1.43,5.7 z m -65.56,7.13 c 0.172,0.773 1.174,1.711 1.426,0.713 -4.668,-9.583 -20.866,-5.462 -22.092,4.275 3.338,-2.937 1.57,-0.641 4.988,0.711 -2.711,-4.21 1.376,-8.384 4.276,-5.699 1.79,-5.43 8.24,-1.29 11.39,0.01 z m 36.34,3.56 c 0.416,-1.299 0.067,-6.898 -2.851,-7.127 -0.47,3.8 1.32,5.33 2.85,7.13 z m -45.61,-1.43 c 2.189,1.091 2.189,-4.653 0,-3.563 l 0,3.56 z m 4.28,2.86 c 1.988,0.494 3.016,-3.547 1.427,-4.275 -0.42,1.48 -1.77,2.02 -1.43,4.27 z m -47.034,1.42 c 1.656,1.406 1.907,1.406 3.563,0 0.121,-1.784 -1.095,-2.231 -2.137,-2.852 -0.01,1.42 -1.945,0.9 -1.426,2.85 z m 45.604,4.99 c 3.547,0.694 3.42,-2.281 4.275,-4.276 -1.492,0.251 -4.904,-2.334 -6.412,-1.426 1.26,1.35 2.34,2.89 2.13,5.71 z m 3.57,23.52 c -0.169,-3.021 0.057,-5.645 2.139,-6.413 0.187,1.002 1.563,0.812 2.14,1.426 0.244,-5.344 5.121,1.135 5.699,-4.99 -1.912,-0.84 -3.154,-2.323 -4.988,-1.424 0.8,0.15 1.108,0.791 1.426,1.424 -2.654,-0.753 -2.301,1.502 -3.562,2.139 -1.043,-0.619 -2.259,-1.065 -2.139,-2.85 1.477,-1.604 0.627,-4.893 4.275,-2.852 1.766,-4.444 -0.154,-9.909 -3.562,-11.401 -0.314,2.061 -1.502,3.249 -3.562,3.562 -3.65,-1.099 -8.54,-0.96 -7.125,-7.125 -3.995,0.28 -5.505,3.047 -7.127,5.699 0.494,1.406 3.977,-0.175 4.277,1.426 -2.95,0.285 -0.411,2.128 -2.852,2.14 -1.469,-0.194 -0.171,-3.155 -2.139,-2.851 -0.914,1.263 -3.025,4.993 -1.424,6.413 0.345,-0.844 0.759,-1.614 1.424,-2.138 2.145,0.902 2.45,2.858 1.426,4.274 -1.667,-0.222 -2.944,-1.396 -4.274,0 -1.357,4.443 4.71,1.466 4.987,4.276 -1.296,2.607 -2.593,1.506 -5.702,1.424 -0.251,5.953 2.98,8.424 4.276,12.827 8.9,5.921 21.358,-0.162 20.667,-9.263 -1.18,1.68 -1.83,3.87 -4.29,4.27 z m -21.381,-19.25 c 1.956,-0.136 3.84,-3.978 1.426,-4.275 -0.992,0.91 -0.438,3.36 -1.426,4.27 z m -29.218,2.85 c -1.681,3.309 -2.442,7.537 -4.276,10.691 l 0,-4.988 c -2.896,1.38 -3.355,5.197 -4.989,7.839 2.194,0.506 3.719,-0.188 5.702,-2.138 1.362,5.399 -4.876,3.199 -5.702,6.413 0.914,2.856 3.393,-2.115 3.563,0 0.094,1.757 0.108,3.433 -0.712,4.274 4.984,-4.03 5.309,-16.52 6.414,-22.08 z m 2.851,17.11 c 0.12,-0.831 1.126,-0.773 2.137,-0.713 0.884,3.065 -2.279,5.75 1.426,5.7 -0.283,-9.254 0.291,-13.655 -3.563,-22.093 -1.845,3.389 1.878,4.944 0,7.84 2.378,-0.715 2.336,0.988 2.137,2.853 -0.91,-0.04 -0.986,-0.913 -2.137,-0.713 2.52,2.99 -0.824,4.93 0,7.12 z m 94.058,2.85 c 2.088,0.289 2.891,1.862 4.277,2.851 0.667,-4.572 -0.869,-3.229 -2.141,-4.988 1.297,-2.928 0.441,-7.4 -1.424,-9.266 0.06,4.11 0.15,8.24 -0.72,11.41 z m -125.41,-0.72 c 0.48,-3.568 -1.903,-4.273 -3.563,-5.699 -0.137,3.23 -0.584,6.76 3.563,5.7 z m 8.55,7.84 c 3.839,-0.84 2.713,-12.426 0,-13.538 -2.314,3.67 -0.527,8.81 0,13.54 z m 52.733,-2.85 c 1.438,-1.793 -0.395,-4.884 -2.851,-4.99 0.81,1.81 1.186,4.04 2.851,4.99 z m -42.044,42.76 c 0.126,5.101 0.662,9.79 2.851,12.827 1.023,-18.687 0.562,-38.135 1.425,-53.445 -0.676,-1.463 -2.301,-1.977 -3.563,-2.851 -1.413,-0.487 0.445,-4.247 -2.137,-3.562 -5.825,1.92 -7.29,12.841 -4.276,19.24 1.097,-2.959 2.326,-9.53 4.989,-8.552 -1.797,4.952 1.547,9.64 1.424,15.677 -0.106,5.229 -2.386,10.046 -1.424,14.966 0.705,3.609 4.366,5.514 3.563,9.263 -1.573,-0.58 -0.927,-3.37 -2.852,-3.58 z m 42.044,-39.91 c 1.817,-0.081 3.667,-0.133 3.562,-2.137 -1.817,0.09 -3.664,0.14 -3.562,2.14 z m -31.354,2.14 c -0.134,-1.585 -2.059,-4.99 -3.563,-2.85 1.655,0.48 1.907,2.37 3.563,2.85 z m -12.827,22.09 c -0.709,-6.288 2.378,-12.669 -0.713,-17.103 -1.956,4.36 -1.329,12.69 0.713,17.1 z m 65.561,0.72 c 2.002,1.649 4.096,-0.924 6.414,0.711 -0.732,-3.923 0.807,-5.909 -2.14,-7.839 -1.22,2.57 -4.49,3.1 -4.27,7.13 z m 34.92,0 c -0.195,-1.526 0.551,-7.604 -0.711,-5.702 0.19,1.52 -0.56,7.6 0.71,5.7 z m -58.436,3.56 c 1.4,1.414 4.069,0.452 5.698,0 -0.306,-2.308 0.939,-6.162 -1.424,-6.413 -2.316,1.24 -4.745,2.38 -4.274,6.41 z m 67.696,12.11 c 0.111,-0.838 -0.12,-2.022 0.712,-2.139 -0.034,3.125 -0.498,6.676 2.141,7.127 1.688,-4.785 -0.696,-8.619 0,-15.678 -2.627,0.414 -0.901,-2.061 -4.276,-2.139 0.52,4.24 -1.27,10.78 1.43,12.83 z m -44.89,-2.85 c 0.008,1.892 -0.271,4.067 0.713,4.987 3.111,0.498 4.014,-1.213 7.127,-0.715 l 0,-8.55 c -4.6,-3.1 -3,5.35 -7.84,4.28 z m -21.381,7.84 c 0.299,-1.602 3.779,-0.021 4.273,-1.424 -0.008,-1.895 0.271,-4.072 -0.711,-4.99 l -2.139,0 c -0.483,1.69 -3.224,4.8 -1.423,6.41 z m -55.585,2.14 c -0.428,-2.584 1.574,-6.169 -1.426,-7.84 -2.824,1.589 0.662,5.055 -1.425,7.127 -1.428,-2.373 -0.67,-6.933 -4.276,-7.127 -1.57,3.661 1.402,11.425 5.701,13.54 0.003,-1.271 -1.919,-4.146 0,-4.989 0.524,4.941 1.875,9.054 4.989,11.403 -0.236,-3.85 -2.867,-7.91 -3.563,-12.11 z m 16.39,23.52 c -0.784,-7.354 -0.686,-15.341 -3.563,-22.091 -1.406,0.494 0.176,3.978 -1.426,4.275 l 0,-6.413 c -3.231,-0.443 -5.313,-6.097 -5.701,-1.426 -3.072,-0.017 -0.827,-5.351 -4.275,-4.988 -0.848,3.557 0.729,14.536 2.85,10.688 -2.75,6.669 2.917,10.128 4.988,14.253 0.057,-4.585 -2.668,-10.142 -1.424,-13.54 1.12,1.968 0.029,6.146 2.137,7.127 0.992,-0.909 0.31,-3.49 2.138,-3.562 1.074,4.187 -2.612,7.158 -2.138,12.827 l 2.851,0 c 0.262,-3.613 -1.208,-6.25 0,-9.265 2.137,1.43 -0.08,12.72 3.563,12.11 z m -19.24,-9.98 c -1.071,-5.482 -4.997,-3.723 -5.701,-9.264 0.038,1.227 -0.549,1.826 -1.426,2.139 -1.53,-4.699 3.979,-8.063 0,-10.69 -0.39,1.036 0.833,3.685 -0.713,3.564 -0.145,-2.23 0.481,-5.231 -0.711,-6.414 l -8.552,0 c 2.963,9.151 2.322,21.908 10.689,25.654 1.536,-0.604 -0.267,-4.543 1.425,-4.989 l 0,5.702 c 1.348,0.16 1.573,-0.804 2.852,-0.713 -0.089,2.938 1.238,4.462 0.711,7.837 0.95,1.749 2.151,-1.282 2.851,0.715 -1.422,7.623 1.169,15.025 3.563,21.378 0.749,1.988 0.033,5.402 2.851,5.702 -1.202,-2.351 -0.422,-4.56 0,-7.128 -4.28,-9.292 -6.119,-21.278 -6.414,-32.779 1.858,5.98 2.705,12.972 5.702,17.815 -2.01,-0.129 -0.889,-3.389 -3.563,-2.853 1.608,3.146 1.216,8.284 4.275,9.978 0.506,-2.644 -1.217,-3.058 -0.712,-5.699 1.554,-0.456 2.267,2.019 2.138,-0.715 -0.803,-0.414 -3.984,-8.335 -1.426,-12.112 -0.038,1.224 0.549,1.825 1.426,2.137 0.351,-5.061 -2.717,-5.606 -4.276,-7.125 -1.86,-5.028 -5.616,-8.162 -8.551,-12.115 0.612,3.43 5.229,6.62 3.562,9.97 z m 125.42,-11.4 c 2.308,-0.88 0.548,2.31 2.853,1.427 -0.096,-2.277 0.702,-5.451 -2.138,-4.987 0.6,2.01 -1,1.84 -0.71,3.56 z m -142.52,56.29 c 1.325,-1.565 -0.034,-5.31 0.713,-5.698 1.625,0.988 0.266,4.96 0.713,7.125 7.674,-1.498 8.533,3.819 12.827,5.702 C 28.461,335.218 20.548,324.84 16.4,310.696 c 2.938,-2.79 -1.142,-7.463 -0.712,-12.112 -2.384,-0.941 -3.399,-3.254 -6.414,-3.562 -3.02,-3.869 -3.895,-9.883 -7.838,-12.827 3.289,22.37 9.97,41.35 17.815,59.15 z m 141.1,-48.46 c 0.158,-3.141 1.117,-4.907 -0.713,-7.125 0.92,3.12 -1.82,6.67 0.71,7.12 z m -65.561,4.99 3.562,0 c 1.194,-1.182 0.566,-4.182 0.711,-6.413 l -3.562,0 c -1.193,1.18 -0.566,4.19 -0.711,6.41 z m -37.77,2.14 c 0.649,-1.824 1.155,-4.039 -0.712,-4.987 0.424,1.48 -0.88,4.69 0.712,4.99 z m 109.74,10.69 c -0.256,-5.911 1.289,-8.377 -0.713,-12.827 -1.35,3.71 -2.1,9.87 0.71,12.83 z m -141.1,9.98 c 2.079,3.859 3.63,8.246 4.989,12.826 0.345,-0.843 0.759,-1.615 1.425,-2.139 -0.146,2.36 -1.711,4.668 0.713,5.702 -3.194,0.787 -0.193,6.521 2.137,6.412 -0.274,-4.123 -0.679,-8.161 0.713,-12.114 0.744,3.294 -1.855,9.932 2.138,9.976 -0.273,-4.001 -1.098,-7.45 -0.712,-12.111 -1.226,-0.281 -1.827,1.057 -2.139,0 -0.813,-6.075 0.34,-14.12 -2.85,-17.815 -0.829,5.876 2.771,13.103 -0.713,17.102 -0.667,-12.923 2.438,-25.574 -7.125,-29.929 0.72,7.55 5.683,15.86 1.424,22.09 z m 134.69,-11.41 c 1.178,0.012 0.397,1.978 1.425,2.141 -0.171,-4.579 0.875,-10.375 -2.138,-12.116 0.555,-0.158 1.408,-0.019 1.426,-0.711 -3.65,1.27 1.25,5.18 -0.71,10.69 z m -43.47,-5.69 c 0.516,2.177 -0.729,2.597 -0.713,4.275 1.699,0.447 3.141,0.435 4.987,2.138 1.819,-2.22 3.761,-4.318 2.853,-9.265 -4.42,-0.82 -4.15,6.41 -7.13,2.84 z m -71.262,19.24 c 1.789,1.299 1.306,4.87 4.276,4.988 0.41,-1.256 -0.862,-4.188 0.712,-4.277 0.24,3.087 -0.813,7.467 1.426,8.553 1.391,-6.473 -2.432,-13.649 -4.276,-19.241 3.754,0.903 0.887,-4.813 2.851,-5.699 0.716,0.945 0.674,2.65 2.139,2.851 -0.078,-1.773 -1.335,-2.207 0,-3.562 -2.421,-0.562 -4.412,0.618 -4.276,-3.564 -3.257,1.008 -3.094,5.562 -1.424,7.839 -1.121,0.068 -2.471,-0.095 -2.139,1.426 1.066,0.122 2.63,-0.255 2.85,0.713 -0.598,3.17 -0.524,6.39 -2.139,9.97 z m -9.264,-3.57 c -0.573,-3.633 0.355,-4.939 -1.426,-7.838 0.173,2.92 -0.693,6.87 1.426,7.84 z m 17.815,-3.56 c 0.455,3.46 2.331,7.29 2.139,9.265 0.04,-0.434 0.106,-0.844 0.712,-0.711 0.041,0.434 0.106,0.843 0.713,0.711 -0.441,-3.847 1.381,-13.713 -2.138,-12.114 3.055,0.46 -0.274,4.54 -1.426,2.84 z m 97.631,7.13 c -0.381,-2.471 1.059,-6.759 -1.427,-7.128 -0.07,2.93 -0.12,5.82 1.43,7.13 z m 9.97,5.7 c 2.978,-0.996 2.259,-6.607 0.715,-8.551 -0.95,2.13 -0.73,5.45 -0.72,8.55 z m -117.58,21.38 c 0.546,-7.264 -3.2,-16.229 -6.414,-22.09 1.003,8.49 1.784,17.21 6.414,22.09 z m 1.426,-17.82 c -1.077,4.683 -2.413,9.654 2.137,11.401 -0.463,-4.687 -0.284,-5.674 -0.711,-9.977 0.91,0.039 0.986,0.914 2.137,0.712 0.104,-1.768 0.132,-3.459 -1.426,-3.562 0.121,2.82 -1.095,-0.22 -2.137,1.43 z m 120.43,2.14 c 0.455,-2.593 -1.476,-2.802 -3.562,-2.851 -0.1,2.24 1.82,2.45 3.56,2.85 z m -113.31,7.12 c -0.397,-4.171 -0.4,-7.271 -2.139,-8.55 -2.064,4.8 -0.521,5.88 2.139,8.55 z m 2.85,-1.42 c 0.598,-0.827 0.94,-1.91 0.713,-3.563 l -2.139,0 c -0.106,1.77 0.37,2.95 1.426,3.56 z m -18.527,7.84 c 0.393,-2.604 0.859,-3.815 -1.426,-4.986 0.122,2.01 -0.613,4.89 1.426,4.99 z m 8.551,0.71 c 3.53,0.031 2.36,4.766 6.414,4.274 0.062,-2.914 -1.951,-3.75 -3.563,-4.99 0.338,-2.236 -0.889,-2.909 -2.137,-3.562 -0.948,1.51 0.349,2.11 -0.714,4.28 z m 111.17,4.28 c 0.752,-2.032 -2.36,-5.477 -3.562,-7.839 l 0,4.987 c 3.26,-1.13 1.31,2.95 3.56,2.85 z m -113.31,4.27 c -0.462,-5.003 -2.152,-8.774 -5.702,-10.688 0.111,4.27 0.633,9.6 5.702,10.69 z m 2.851,7.13 c 5.908,-2.44 -3.788,-7.915 -0.713,-12.114 l -1.426,0 c -0.435,0.04 -0.843,0.106 -0.712,0.713 0.374,4.06 3.507,8.61 2.851,11.4 z m 6.413,-5.7 c 1.347,-0.16 1.572,0.802 2.85,0.712 -0.84,-1.773 0.33,-5.556 -2.138,-5.7 -0.982,0.92 -0.705,3.09 -0.712,4.99 z m -18.527,2.85 c 1.569,1.042 3.06,2.163 5.701,2.138 -0.853,-3.896 -3.349,-6.153 -4.989,-9.266 -1.265,1.35 -0.52,4.71 -0.712,7.13 z m 9.975,1.42 c -0.406,-1.968 -0.755,-3.995 -3.562,-3.562 0.315,2.06 1.502,3.25 3.562,3.56 z m 22.804,-18.53 c 0.784,2.065 0.882,4.82 3.563,4.987 l 0,-5.7 c -3.571,-0.526 0.948,2.627 -1.425,2.852 0.13,-1.55 -0.583,-2.27 -2.138,-2.14 z m 113.3,-99.05 c -0.015,4.399 1.377,-1.287 1.426,-2.853 0.07,-2.354 -1.59,-4.832 -0.715,-6.414 1.045,1.021 2.26,0.546 2.14,-1.424 -1.062,-1.537 -2.013,0.779 -2.851,-1.426 -0.83,2.32 0.54,7.79 0,12.11 z m 2.85,42.04 c 0.351,-1.729 0.399,-8.795 -0.714,-8.553 0.46,2.64 -0.92,7.1 0.71,8.55 z m -3.56,12.83 c -0.443,-1.934 0.903,-5.655 -0.713,-6.413 -0.43,2.57 -1.18,4.75 0.71,6.41 z m 2.14,0 c 1.951,-1.269 -0.11,-4.476 -0.715,-4.274 0.05,2.41 -1.28,3.04 0.72,4.27 z"
         id="path111" />
      <path
         inkscape:connector-curvature="0"
         d="m 128.98,99.054 c -0.594,1.562 -1.312,9.127 -4.276,10.688 -1.727,1.188 2.816,-1.944 1.426,-4.988 -2.18,-0.517 -2.096,1.229 -4.275,0.712 3.18,-1.32 3.94,-5.08 7.12,-6.406 z"
         id="path113" />
      <path
         inkscape:connector-curvature="0"
         d="m 165.33,121.14 c 3.127,1.86 6.637,3.342 7.84,7.126 -3.278,-2.088 -3.188,1.54 -5.701,2.138 1.217,0.684 1.562,2.238 2.138,3.562 2.015,0.589 1.849,-1.005 3.563,-0.714 -0.307,1.357 -1.535,1.791 -1.426,3.564 -3.394,-2.07 -6.354,-4.573 -10.689,-5.702 1.188,-1.416 -0.063,-0.906 0,-2.85 1.906,0.471 4.453,0.298 5.701,1.425 2.01,-0.128 0.889,-3.387 3.563,-2.851 0.423,-2.144 -3.009,-4.043 -4.276,-2.139 -0.94,-0.49 0.36,-1.9 -0.7,-3.57 z"
         id="path115" />
      <path
         inkscape:connector-curvature="0"
         d="m 90.503,174.59 c -1.456,1.158 -2.912,2.313 -4.988,2.852 -1.376,-0.945 5.555,-2.215 1.426,-4.276 3.067,-3.62 6.542,7.11 3.562,1.43 z"
         id="path117" />
      <path
         inkscape:connector-curvature="0"
         d="m 141.81,225.9 c 1.844,4.808 3.292,10.008 4.987,14.966 -2.2,-4.46 -4.95,-8.36 -4.99,-14.97 z"
         id="path119" />
      <path
         inkscape:connector-curvature="0"
         d="m 194.54,226.61 c 2.416,1.896 2.012,5.824 2.137,8.55 1.285,27.803 -1.775,56.021 -0.711,85.517 0.277,7.691 1.281,17.555 0.711,25.653 -2.914,-0.647 -0.667,-6.46 -2.137,-8.553 -0.836,0.114 -0.602,1.301 -0.715,2.139 -2.605,-1.047 -0.183,-3.83 0,-6.413 0.586,-8.243 0.537,-28.78 -2.137,-29.93 -0.852,-0.669 1.665,-3.996 2.137,-5.703 -0.619,-21.076 0.926,-40.143 -1.424,-56.296 1.99,-1.84 2.68,-10.5 2.14,-14.97 z"
         id="path121" />
      <path
         inkscape:connector-curvature="0"
         d="m 127.56,233.74 c 1.32,2.243 1.523,5.604 1.426,9.266 -2.29,-2.87 -0.71,-5.26 -1.43,-9.27 z"
         id="path123" />
      <path
         inkscape:connector-curvature="0"
         d="m 137.53,240.15 c 0.879,0.797 1.465,0.621 1.426,-0.711 2.022,6.06 3.44,16.505 4.277,21.377 -2.812,0.436 -0.841,-3.912 -1.426,-5.7 -2.564,2.891 -1.496,6.632 -2.139,10.688 -1.442,9.111 -6.575,19.737 -1.424,29.932 3.631,-6.418 2.057,-13.642 2.85,-22.804 0.747,0.351 1.43,5.414 2.139,1.424 0.573,6.146 -1.749,15.694 0,23.516 -1.297,-0.842 -0.562,-3.714 -1.426,-4.986 -4.338,4.45 -2.434,15.146 -2.852,23.518 -0.543,-0.49 -2.26,-3.004 -2.138,0 -2.927,-6.356 2.429,-14.641 0.712,-19.955 -0.525,-1.63 -1.83,-1.576 -2.138,-2.85 -2.718,-11.28 2.842,-19.838 3.562,-29.931 0.58,-8.03 1.14,-16.12 -1.42,-23.53 z"
         id="path125" />
      <path
         inkscape:connector-curvature="0"
         d="m 16.39,243 c 1.899,1.9 2.246,5.356 2.851,8.553 -1.398,-2.4 -2.138,-5.46 -2.851,-8.55 z"
         id="path127" />
      <path
         inkscape:connector-curvature="0"
         d="m 114.02,314.26 c -2.285,2.075 -4.121,2.542 -5.701,6.414 -2.246,0.352 -1.386,-4.116 -2.851,-0.714 -1.838,-25.959 -0.939,-47.215 -2.137,-71.976 4.039,1.554 8.102,-1.456 9.976,-4.274 0.856,3.934 -2.058,8.471 -2.138,12.827 -0.041,2.241 1.168,4.238 1.427,6.413 0.468,3.967 -0.337,9.145 0,13.54 0.82,10.84 0.1,24.68 1.42,37.77 z m -2.14,-12.11 c -4.059,0.217 -5.492,3.057 -5.697,7.124 1.033,0.393 3.682,-0.832 3.562,0.715 -1.854,1.103 -2.556,1.817 -2.852,5.699 3.794,-0.72 1.543,-7.481 6.413,-7.125 0.05,-2.65 -0.71,-4.5 -1.42,-6.41 z m -7.12,-39.91 c 2.642,0.506 3.057,-1.217 5.699,-0.713 l 0,-6.413 c -4.24,0.04 -5.52,3.03 -5.7,7.12 z m 0,16.39 c 1.904,1.823 3.756,-0.43 6.412,0 -0.455,-2.633 0.922,-7.098 -0.713,-8.55 -1.79,2.97 -5.94,3.57 -5.7,8.55 z m 0.71,17.11 c 2.22,-0.395 4.646,-0.582 6.412,-1.426 1.14,-9.69 -7.54,-5.83 -6.41,1.43 z"
         id="path129" />
      <path
         inkscape:connector-curvature="0"
         d="m 127.56,286.47 c 2.84,2.344 2.783,10.355 0.713,13.54 l 0,6.413 c -1.074,2.868 -0.88,-3.521 -0.713,-5.7 0.225,-2.904 1.861,-6.135 1.426,-7.839 0.22,-2.83 -1.65,-3.57 -1.43,-6.41 z"
         id="path131" />
      <path
         inkscape:connector-curvature="0"
         d="m 143.24,306.43 c 0.247,5.215 3.21,7.717 3.562,12.827 -1.88,-3.71 -4.79,-8.14 -3.56,-12.83 z"
         id="path133" />
      <path
         inkscape:connector-curvature="0"
         d="m 192.41,358.45 c 1.295,0.842 0.561,3.714 1.424,4.987 1.094,-2.946 1.311,-6.768 1.426,-10.688 -0.715,-1.422 -3.149,-1.125 -2.85,-3.563 -1.359,0.305 -1.291,2.038 -3.564,1.426 1.146,-2.42 2.505,-4.623 4.988,-5.7 -0.865,3.716 1.514,4.188 4.276,4.274 0.339,8.334 0.259,13.512 -3.562,19.953 -1.812,-0.056 -0.959,-4.011 -1.426,-6.413 -0.37,-1.83 -2.64,-3.17 -0.72,-4.28 z"
         id="path135" />
      <path
         inkscape:connector-curvature="0"
         d="m 177.44,348.47 c 1.209,1.878 2.11,4.063 2.14,7.125 -1.07,-2.02 -1.76,-4.42 -2.14,-7.13 z"
         id="path137" />
      <path
         inkscape:connector-curvature="0"
         d="m 179.58,356.31 c 1.301,1.073 1.676,3.072 2.85,4.273 0.969,-0.22 0.593,-1.782 0.714,-2.849 1.179,-0.078 2.452,4.389 2.851,0.713 1.469,1.38 1.358,4.341 2.139,6.413 1.941,0.063 1.434,-1.188 2.85,0 0.163,2.538 -1.023,3.726 -3.564,3.562 -1.135,-1.947 0.355,-3.038 -1.424,-4.987 -2.666,1.711 -2.842,-2.737 -6.412,-0.713 -0.606,-2.006 -2.303,-2.924 -2.14,-5.7 1.46,1.15 1.798,3.429 2.853,4.986 1.99,-1.36 -0.99,-3.7 -0.72,-5.69 z"
         id="path139" />
      <path
         inkscape:connector-curvature="0"
         d="m 89.79,157.49 c -2.804,2.408 -5.674,0.382 -6.414,-2.85 1.026,-0.399 1.739,-1.112 2.138,-2.14 2.916,1.153 3.756,1.573 6.414,0 0.588,2.54 -4.417,3.12 -2.138,4.99 z"
         id="path141" />
      <path
         inkscape:connector-curvature="0"
         d="m 171.03,271.51 c 1.147,5.026 0.996,11.356 1.427,17.104 1.573,-0.089 0.305,-3.024 0.713,-4.275 1.649,2.863 0.246,8.778 0.713,12.827 -1.151,0.2 -1.229,-0.675 -2.139,-0.714 0.014,3.102 0.235,6.413 -0.714,8.554 -0.97,-8.98 -1.29,-22.98 0,-33.5 z"
         id="path143" />
      <path
         inkscape:connector-curvature="0"
         d="m 151.79,354.88 c 1.196,5.451 2.363,10.937 2.139,17.814 -6.352,2.099 -13.106,6.384 -20.668,2.137 -2.514,2.594 -9.271,1.05 -10.688,-3.562 1.465,-3.524 2.002,-7.978 4.275,-10.691 6.898,0.435 0.529,6.587 0.713,10.691 7.859,1.742 15.104,-1.367 23.518,0 -1.77,-4.75 -2.22,-12.57 0.72,-16.39 z"
         id="path145" />
    </g>
  </g>
</svg>
