<?xml version="1.0" encoding="UTF-8" standalone="no"?>
<!-- Created with Inkscape (http://www.inkscape.org/) -->

<svg
   xmlns:dc="http://purl.org/dc/elements/1.1/"
   xmlns:cc="http://creativecommons.org/ns#"
   xmlns:rdf="http://www.w3.org/1999/02/22-rdf-syntax-ns#"
   xmlns:svg="http://www.w3.org/2000/svg"
   xmlns="http://www.w3.org/2000/svg"
   xmlns:sodipodi="http://sodipodi.sourceforge.net/DTD/sodipodi-0.dtd"
   xmlns:inkscape="http://www.inkscape.org/namespaces/inkscape"
   width="62mm"
   height="88mm"
   viewBox="0 0 219.68504 311.81102"
   id="svg2"
   version="1.1"
   inkscape:version="0.91 r13725"
   sodipodi:docname="s_save.svg">
  <defs
     id="defs4">
    <inkscape:perspective
       sodipodi:type="inkscape:persp3d"
       inkscape:vp_x="0 : 155.90551 : 1"
       inkscape:vp_y="0 : 1000 : 0"
       inkscape:vp_z="219.68504 : 155.90551 : 1"
       inkscape:persp3d-origin="109.84252 : 103.93701 : 1"
       id="perspective6315" />
    <clipPath
       clipPathUnits="userSpaceOnUse"
       id="clipPath8648">
      <path
         style="fill:#ff0000;fill-opacity:1;fill-rule:evenodd;stroke:none;stroke-width:1px;stroke-linecap:butt;stroke-linejoin:miter;stroke-opacity:1"
         d="m 48.7971,144.54832 -4.54568,-1.2627 -4.04062,0.50508 -4.79822,3.40927 -5.93465,4.29314 -2.0203,2.90419 0.12627,2.65165 2.65165,2.14658 -1.01015,1.76776 -3.283,1.26269 -3.40926,8.08123 6.31345,9.34391 10.35406,-0.75762 46.21448,3.91434 25.50635,-7.19733 9.47018,-5.05077 0.12627,-10.10152 -2.65165,-1.13642 0.88389,-15.15229 10.35406,-6.9448 3.28299,-3.91434 6.566,-7.82868 0.50507,-4.54569 -4.54568,-1.89404 -2.14658,1.01016 -4.16688,1.13642 -5.93464,-2.90419 -2.77792,-1.76777 -5.80838,2.39911 -2.90419,3.03046 -3.40926,4.9245 -7.07107,0.3788 -8.96511,5.80838 -2.90418,2.14657 -3.66181,0.12627 -5.55584,-0.3788 -17.29886,2.65165 z"
         id="path8650"
         inkscape:connector-curvature="0" />
    </clipPath>
    <mask
       maskUnits="userSpaceOnUse"
       id="mask8666">
      <rect
         rx="1.7260212"
         ry="2.8714814"
         y="98.924339"
         x="22.885082"
         height="109.83415"
         width="100.10923"
         id="rect8668"
         style="opacity:1;fill:#ffffff;fill-opacity:1;stroke:none;stroke-width:2.01114893;stroke-linecap:round;stroke-linejoin:bevel;stroke-miterlimit:4;stroke-dasharray:none;stroke-dashoffset:0;stroke-opacity:1" />
    </mask>
    <clipPath
       clipPathUnits="userSpaceOnUse"
       id="clipPath9647">
      <path
         style="fill:#ff0000;fill-opacity:1;fill-rule:evenodd;stroke:none;stroke-width:1px;stroke-linecap:butt;stroke-linejoin:miter;stroke-opacity:1"
         d="m 24.29467,289.85466 12.14286,-9.28572 41.42857,-15.71428 40,-5 20,5 2.85715,7.14285 9.28571,6.42858 10,1.42857 -3.57143,13.57143 -15.71428,10 -27.85715,5.71428 -74.28571,1.42857 z"
         id="path9649"
         inkscape:connector-curvature="0" />
    </clipPath>
    <inkscape:path-effect
       pattern-nodetypes="sssss"
       fuse_tolerance="0"
       vertical_pattern="false"
       prop_units="false"
       tang_offset="0"
       normal_offset="0"
       spacing="0"
       scale_y_rel="false"
       prop_scale="1"
       copytype="single_stretched"
       pattern="M 0,5 C 0,2.24 2.24,0 5,0 7.76,0 7,0.24 7,3 7,5.76 7.76,5.75 5,5.75 2.24,5.75 0,7.76 0,5 Z"
       is_visible="true"
       id="path-effect20326"
       effect="skeletal" />
    <clipPath
       clipPathUnits="userSpaceOnUse"
       id="clipPath7877">
      <path
         style="fill:#ff0000;fill-opacity:1;fill-rule:evenodd;stroke:none;stroke-width:1px;stroke-linecap:butt;stroke-linejoin:miter;stroke-opacity:1"
         d="m 1349.8263,623.67274 -143.5316,10.50232 -77.0169,-21.00459 -119.0262,66.51457 -91.01997,38.50849 -189.04149,-14.00311 -31.50696,-80.51768 -52.51151,-94.52074 -49.01077,-77.01694 -45.51,-31.50692 -38.50846,31.50692 -21.00461,24.50538 -87.51923,56.0123 L 264.58784,578.16276 121.05631,581.6635 110.554,564.1597 96.550923,357.61431 103.55246,4.0366248 142.06092,-23.9695 l 304.56691,3.500741 59.51307,3.50079 171.53769,-10.502321 115.52538,0 38.50845,28.00617372 38.50844,3.50074108 224.04924,-28.0061248 101.5223,35.007656 91.02,87.519261 -3.5008,140.030723 3.5008,238.0523 7.0016,45.51003 3.5007,112.02459 z"
         id="path7879"
         inkscape:connector-curvature="0" />
    </clipPath>
    <filter
       style="color-interpolation-filters:sRGB"
       id="filter8486"
       inkscape:label="filter1" />
    <clipPath
       clipPathUnits="userSpaceOnUse"
       id="clipPath8513">
      <path
         style="fill:#ff0000;fill-opacity:1;fill-rule:evenodd;stroke:none;stroke-width:1px;stroke-linecap:butt;stroke-linejoin:miter;stroke-opacity:1"
         d="m 1037.9071,144.02626 13.0113,78.06757 -32.5282,52.04505 -117.10134,39.03376 -175.65205,19.5169 -149.62954,13.0113 -71.56195,-45.53943 -65.05628,-110.59572 143.12385,-84.57325 52.04505,-39.033754 6.50568,-39.033819 39.03375,-13.01123 78.06757,-13.01129406 221.19149,-6.50561504 z"
         id="path8515"
         inkscape:connector-curvature="0" />
    </clipPath>
    <clipPath
       clipPathUnits="userSpaceOnUse"
       id="clipPath8513-1">
      <path
         style="fill:#ff0000;fill-opacity:1;fill-rule:evenodd;stroke:none;stroke-width:1px;stroke-linecap:butt;stroke-linejoin:miter;stroke-opacity:1"
         d="m 1037.9071,144.02626 13.0113,78.06757 -32.5282,52.04505 -117.10134,39.03376 -175.65205,19.5169 -149.62954,13.0113 -71.56195,-45.53943 -65.05628,-110.59572 143.12385,-84.57325 52.04505,-39.033754 6.50568,-39.033819 39.03375,-13.01123 78.06757,-13.01129406 221.19149,-6.50561504 z"
         id="path8515-4"
         inkscape:connector-curvature="0" />
    </clipPath>
    <clipPath
       clipPathUnits="userSpaceOnUse"
       id="clipPath8565">
      <path
         style="fill:#ff0000;fill-opacity:1;fill-rule:evenodd;stroke:none;stroke-width:1px;stroke-linecap:butt;stroke-linejoin:miter;stroke-opacity:1"
         d="m 1037.9071,144.02626 13.0113,78.06757 -32.5282,52.04505 -117.10134,39.03376 -175.65205,19.5169 -149.62954,13.0113 -71.56195,-45.53943 -65.05628,-110.59572 143.12385,-84.57325 52.04505,-39.033754 6.50568,-39.033819 39.03375,-13.01123 78.06757,-13.01129406 221.19149,-6.50561504 z"
         id="path8567"
         inkscape:connector-curvature="0" />
    </clipPath>
    <clipPath
       clipPathUnits="userSpaceOnUse"
       id="clipPath8637">
      <rect
         style="opacity:1;fill:#ff0000;fill-opacity:1;stroke:none;stroke-width:8.10000038;stroke-linecap:round;stroke-linejoin:bevel;stroke-miterlimit:4;stroke-dasharray:none;stroke-dashoffset:0;stroke-opacity:1"
         id="rect8639"
         width="193.57143"
         height="132.14285"
         x="-219.99998"
         y="776.64789" />
    </clipPath>
    <clipPath
       clipPathUnits="userSpaceOnUse"
       id="clipPath8741">
      <path
         style="fill:#ff0000;fill-opacity:1;fill-rule:evenodd;stroke:none;stroke-width:1px;stroke-linecap:butt;stroke-linejoin:miter;stroke-opacity:1"
         d="m -26.77703,99.03193 15.71429,-5.71429 45.71428,12.85714 57.14286,17.14286 74.28571,27.14285 25.71429,21.42857 100,30 44.28571,32.85715 60,-8.57143 28.57143,17.14286 27.14286,8.57142 48.57143,-14.28571 102.85714,7.14286 -4.28571,-187.14286 -7.14286,-12.85714 -37.14286,5.71428 -22.85714,2.85715 -51.42857,0 -67.14286,0 -22.85714,-1.42858 -14.28572,8.57143 -92.85714,0 -72.85714,-4.28571 -51.42857,5.71428 -37.14286,-2.85714 -32.85714,-2.85714 -32.85715,0 -38.57142,-4.28572 -48.57143,5.71429 z"
         id="path8743"
         inkscape:connector-curvature="0"
         sodipodi:nodetypes="cccccccccccccccccccccccccccccc" />
    </clipPath>
    <clipPath
       clipPathUnits="userSpaceOnUse"
       id="clipPath20203">
      <rect
         style="opacity:1;fill:#ff0000;fill-opacity:1;stroke:none;stroke-width:8.10000038;stroke-linecap:round;stroke-linejoin:bevel;stroke-miterlimit:4;stroke-dasharray:none;stroke-dashoffset:0;stroke-opacity:1"
         id="rect20205"
         width="17069.842"
         height="17666.689"
         x="2366.7041"
         y="-21212.371"
         transform="scale(1,-1)" />
    </clipPath>
    <clipPath
       clipPathUnits="userSpaceOnUse"
       id="clipPath16200">
      <rect
         style="opacity:1;fill:#ff0000;fill-opacity:1;stroke:none;stroke-width:8.10000038;stroke-linecap:round;stroke-linejoin:bevel;stroke-miterlimit:4;stroke-dasharray:none;stroke-dashoffset:0;stroke-opacity:1"
         id="rect16202"
         width="104.38721"
         height="73.647415"
         x="14.41088"
         y="-11.355354" />
    </clipPath>
  </defs>
  <sodipodi:namedview
     id="base"
     pagecolor="#ffffff"
     bordercolor="#666666"
     borderopacity="1.0"
     inkscape:pageopacity="0.0"
     inkscape:pageshadow="2"
     inkscape:zoom="1.4"
     inkscape:cx="5.6751029"
     inkscape:cy="106.83345"
     inkscape:document-units="px"
     inkscape:current-layer="layer1"
     showgrid="false"
     inkscape:window-width="1920"
     inkscape:window-height="1026"
     inkscape:window-x="-2"
     inkscape:window-y="31"
     inkscape:window-maximized="1" />
  <metadata
     id="metadata7">
    <rdf:RDF>
      <cc:Work
         rdf:about="">
        <dc:format>image/svg+xml</dc:format>
        <dc:type
           rdf:resource="http://purl.org/dc/dcmitype/StillImage" />
        <dc:title></dc:title>
      </cc:Work>
    </rdf:RDF>
  </metadata>
  <g
     inkscape:label="Layer 1"
     inkscape:groupmode="layer"
     id="layer1"
     transform="translate(0,-740.55118)">
    <text
       xml:space="preserve"
       style="font-style:normal;font-weight:normal;font-size:19.57834816px;line-height:125%;font-family:Sans;letter-spacing:0px;word-spacing:0px;fill:#000000;fill-opacity:1;stroke:none;stroke-width:1px;stroke-linecap:butt;stroke-linejoin:miter;stroke-opacity:1"
       x="14.324148"
       y="763.8302"
       id="text6317"
       sodipodi:linespacing="125%"><tspan
         sodipodi:role="line"
         id="tspan6319"
         x="14.324148"
         y="763.8302"
         style="font-style:normal;font-variant:normal;font-weight:500;font-stretch:normal;font-family:Orbitron;-inkscape-font-specification:'Orbitron Medium'">S</tspan></text>
    <flowRoot
       xml:space="preserve"
       id="flowRoot9634"
       style="font-style:normal;font-weight:normal;font-size:40px;line-height:125%;font-family:Sans;letter-spacing:0px;word-spacing:0px;fill:#000000;fill-opacity:1;stroke:none;stroke-width:1px;stroke-linecap:butt;stroke-linejoin:miter;stroke-opacity:1"
       transform="translate(85,798.97975)"><flowRegion
         id="flowRegion9636"><rect
           id="rect9638"
           width="202.85715"
           height="92.14286"
           x="8.5714283"
           y="208.23959" /></flowRegion><flowPara
         id="flowPara9640"
         style="font-style:normal;font-variant:normal;font-weight:500;font-stretch:normal;font-size:20px;font-family:Essays1743;-inkscape-font-specification:'Essays1743 Medium'">Save</flowPara><flowPara
         id="flowPara9642"
         style="font-style:normal;font-variant:normal;font-weight:500;font-stretch:normal;font-size:20px;font-family:Essays1743;-inkscape-font-specification:'Essays1743 Medium'" /></flowRoot>    <g
       id="g7411"
       transform="matrix(1.2368712,0,0,1.2368712,445.17708,-471.67041)">
      <path
         sodipodi:nodetypes="ccccccccccccccccccccccccccccccccccccccccccccccccccccccccccccccccccccccccccccccccccccccccccccccccccccccccccccccccccccccccccccccccccccccccccccccccccccccccccccccccccccccccccccccccccccccccccccccccccccccccccccccccccccccccccccccccccccccccccccccccccccccccccccccccccccccccccccccccccccccccccccccccc"
         inkscape:connector-curvature="0"
         id="path2943"
         d="m -270.67538,1146.3274 c -2.90556,-0.9708 -4.37615,-3.4608 -5.0442,-5.6587 -4.3331,0.03 -8.46459,1.459 -12.88895,-0.5765 -3.47263,-0.376 -6.54,-2.3933 -8.84047,-4.9557 -1.61166,-0.4576 0.19261,-3.5037 -1.05164,-3.1902 -2.75188,2.0751 -8.0004,2.2825 -8.81886,-1.9177 -3.73219,1.8968 -8.75118,0.8321 -9.64249,-3.7472 -3.32296,-0.8988 -5.52638,-3.6535 -5.4124,-6.519 -2.85788,-1.3673 -4.9329,-4.8663 -3.60491,-8.0748 1.40495,-1.648 1.54718,-4.8846 -0.2389,-4.564 -0.7711,-3.35 -1.87524,-8.6436 2.06842,-10.2583 2.27465,-1.7993 1.42712,-6.5606 4.93712,-8.0798 3.63468,-2.5462 6.66363,-5.8726 10.28071,-8.4549 3.36746,-2.4729 7.71166,-2.9915 11.39566,-4.9008 4.06482,-0.961 8.04314,-2.2385 12.09535,-3.2802 5.98359,-0.7439 11.92757,-2.3972 17.9975,-1.9554 4.13507,1.0991 8.53841,0.6228 12.6381,2.0652 3.70187,0.973 7.598,1.3824 10.97924,3.1113 4.11572,0.053 7.74504,2.796 10.31974,5.682 4.31143,2.1901 4.60109,7.1078 5.34624,11.3061 0.64985,4.0022 1.41097,7.8434 2.50212,11.6834 -0.68637,2.5324 -1.68089,5.7514 -1.2376,7.0712 -1.82681,2.2337 1.13498,8.4905 -2.73328,11.3217 -0.47731,4.4827 -3.72395,8.0498 -6.46039,11.3555 -1.86982,3.688 -6.74045,2.6043 -9.52498,4.2822 -1.99918,2.1602 -5.52625,2.7143 -8.07661,2.3282 -1.22202,1.377 -4.94728,2.7846 -7.28241,2.2882 -2.11772,1.215 -6.01092,5.4302 -9.70189,3.6384 z m 3.61032,-0.43 c 3.35441,-0.4489 5.87721,-5.8927 5.58244,-5.8119 0.91003,3.5053 11.25106,-0.2942 5.31859,-1.9006 -3.57001,-1.1061 -8.36215,-1.3794 -11.37472,1.1761 -4.28268,4.2286 0.52636,-2.9495 3.24274,-1.937 3.19511,-1.5584 6.72506,0.3739 9.60533,-0.067 3.08213,-0.914 5.77626,-4.6247 4.48621,-7.3964 0.81438,-2.2837 2.52629,-3.1936 0.73462,-0.3013 0.41218,3.902 6.72057,2.0125 7.93751,-0.9911 0.31645,-4.316 6.61261,-1.763 8.02694,-4.3275 -1.69439,3.9833 -7.83744,0.1529 -7.92545,5.3898 -2.01871,2.7839 -5.38075,2.8115 -7.8166,2.8673 0.33121,3.625 -7.58549,4.3198 -3.25398,7.2787 3.97839,1.4622 7.42637,-4.2223 7.80566,-5.4927 -1.32937,3.9828 2.97044,1.7777 5.15047,1.5218 2.32088,-0.4397 4.27826,-3.7304 0.72106,-3.8249 -1.32024,-1.7885 -0.63051,-5.2227 -0.023,-1.1554 3.16092,4.4685 5.13092,-2.4055 7.11296,-4.01 2.92154,-2.438 -0.1814,-7.2738 -0.25234,-8.8421 0.8144,2.6188 2.96107,5.255 3.70245,0.9334 1.15718,-1.9924 -0.11293,-7.0298 -1.84144,-3.4824 -2.92066,0.5102 -6.69273,-1.9506 -6.28712,2.4985 -1.19789,4.05 -6.07556,5.1466 -9.74151,5.7576 -3.56427,-0.7364 -3.91545,2.9172 -6.9738,4.8389 -2.26025,1.5377 -4.12155,3.4339 -6.829,4.5016 -4.28266,1.1012 -8.41001,-0.6398 -10.651,4.0456 -4.71201,2.1158 -4.21588,7.3564 0.64428,9.004 0.96954,0.1935 1.96541,0 2.89869,-0.2726 z m -13.56903,-5.1477 c 1.40802,-1.7087 4.97807,-0.7667 5.76617,-1.2021 1.04082,0.9149 4.85358,-3.6528 5.63783,-5.4018 1.01349,-1.4341 3.06923,-3.3563 2.59287,-5.3414 -0.56362,-2.1007 -1.20115,-6.0123 0.22778,-1.6795 1.79588,2.6015 -3.67822,7.4172 1.87557,6.0814 5.07889,0.1834 8.64271,-3.6233 12.6696,-6.0156 3.49846,-2.7747 2.35533,-7.0718 0.54431,-10.4958 3.00382,0.9577 0.52738,8.4216 6.08004,6.5773 3.89958,-0.9532 8.59735,-2.6318 8.71574,-7.4539 0.39271,-4.0167 -0.46408,-8.0653 0.41365,-12.2966 0.17771,-4.9519 -8.09728,-2.7052 -6.71168,2.0348 -0.28513,2.2471 3.5838,2.8864 -0.15411,2.5998 -1.01036,-2.5499 0.0123,-5.6835 1.15498,-7.7652 2.20774,-2.6818 3.94146,-6.4558 2.30648,-9.9172 0.30212,-2.041 2.51296,4.3238 1.07151,5.8354 -1.86197,2.4632 -2.35271,4.118 1.23144,4.1462 3.40781,1.3371 1.15647,6.1401 1.50959,9.2168 -2.38546,2.0621 2.38857,8.0567 5.87433,4.6149 1.41695,-1.4136 3.61425,-4.0526 1.20366,-6.5564 -1.83606,-0.7979 1.01449,-6.1235 0.38667,-8.689 2.33448,-4.8073 -4.10054,-4.3919 -5.82276,-6.8093 2.2233,0.6036 7.80562,4.4345 5.20947,-0.4782 -0.56489,-3.6768 -1.26039,-7.9565 -4.97562,-10.469 -1.8408,-2.8124 -4.07526,-2.3811 -2.91987,1.2232 1.84943,1.5864 5.80847,5.4175 2.14183,3.111 -1.19665,1.0501 0.27526,5.5906 -1.23602,2.1813 0.55415,-2.2767 0.5069,-4.2971 -1.75375,-5.6254 0.89911,-2.9069 -0.63161,-5.9586 -4.15581,-6.0854 -2.25861,2.0298 -4.70219,5.2608 -6.19743,7.3881 0.40511,1.1663 1.75706,4.6185 2.1528,7.2493 0.98969,3.2089 -0.11728,7.4101 -1.06832,9.8983 -0.10967,-2.4735 1.11716,-5.8024 -0.70937,-8.2799 2.38168,2.8507 1.12422,-2.2224 0.73436,-3.5597 -0.33734,-4.4351 -3.42221,-5.0493 -5.57405,-8.3992 -0.98393,-1.875 -5.68967,-3.6194 -8.44854,-4.4515 -1.85829,0.608 -6.51805,-0.7155 -6.25634,2.0175 -0.17269,3.5118 0.88851,7.2659 2.30998,10.5286 -0.22814,2.0282 -2.47465,5.9884 -0.94986,1.7054 1.46393,-2.0637 -0.9247,-4.0322 -1.16761,-6.1315 -0.64889,-2.2893 -0.68076,-5.6807 -2.396,-7.0457 -1.13932,2.1439 -4.92201,1.4209 -7.42722,1.7286 -3.89572,-0.06 -7.36053,1.3319 -10.86718,2.7515 -2.10557,1.3263 -4.62098,3.626 -8.23662,3.8371 -4.16024,2.6663 2.47222,-0.4692 4.3047,0.2265 4.084,-0.2458 5.81098,-0.049 8.89069,-3.027 2.64898,-2.4172 7.55247,-0.1696 9.23709,1.1075 -2.44262,-1.1792 -1.03274,6.6685 -1.76766,1.2876 -0.38504,-4.1288 -7.78551,-0.939 -10.32434,0.4333 -0.22409,1.4523 1.70726,4.4631 0.32187,5.6849 -0.16734,-1.9028 -0.47131,-5.5302 -3.23746,-4.8346 -3.57118,0.035 -7.45138,-0.3787 -10.29783,2.2876 -4.02869,2.3732 -5.56445,7.1091 -8.46194,10.4633 3.42346,0.7662 7.63037,-0.6644 11.34348,0.1423 2.38787,0.5072 0.5956,7.5656 0.75138,2.5104 -0.88147,-4.4212 -8.04532,-1.1729 -10.00299,-1.8738 -1.47828,1.3694 -5.38644,1.1334 -6.49851,3.755 -2.02866,3.2848 -4.834,7.3718 -3.18125,9.5585 -0.5319,2.4645 8.06609,4.0968 2.83261,3.4278 -2.65557,-1.2594 -4.87057,1.2318 -4.74024,3.9018 -0.43267,4.806 4.74095,8.0738 8.79918,5.2763 1.57258,-1.6023 4.45262,-1.4749 1.15089,0.01 -0.89458,2.1176 6.21183,4.479 4.99262,5.3293 -3.37152,-0.1751 -4.70715,-6.1156 -7.4004,-3.6973 -4.48222,1.3689 -8.31087,-2.0666 -8.56368,-6.404 -2.36014,-0.1506 -5.6871,-0.4062 -2.6438,2.5243 4.19858,1.1167 4.22202,6.8233 8.74367,6.9526 3.00031,-0.2399 5.20724,-2.7703 5.73977,1.4634 3.62457,2.6128 7.30632,-0.7866 10.11145,-2.0187 3.02743,0.07 0.28815,-4.2413 3.1944,-2.8229 3.66194,-1.2112 -2.73889,-2.8058 -3.68511,-4.1898 -4.0092,-0.3314 -8.5047,-1.3703 -11.28582,-4.5336 -0.44683,-3.3234 6.64637,-4.2973 3.59778,-8.392 -0.79355,-1.553 -5.33118,-7.2511 -1.4328,-3.2215 3.19388,0.842 1.45928,7.2386 4.37637,4.9694 3.45228,-2.1836 8.10942,-1.3086 11.19767,1.247 3.30714,4.4934 -1.17211,-4.4506 1.24337,-5.8247 1.36265,-1.573 3.21496,-2.8903 2.35884,-5.2077 -0.0411,-3.6917 -5.96674,-5.185 -6.09325,-8.0936 3.1646,2.8582 6.39969,6.9067 11.20436,5.9547 4.26014,0.2808 6.75518,-3.4253 9.70079,-5.8354 0.35866,-1.923 -10e-4,-4.1328 0.48716,-6.0443 0.79712,2.0996 0.37683,4.4934 1.23982,6.6454 -1.60223,0.825 -5.50887,1.5573 -3.82012,3.8812 1.67244,3.6106 7.53883,-0.3431 10.67108,-1.4297 2.3606,-0.9646 5.21988,-3.6033 4.29768,-6.335 -0.24865,-2.9751 -3.52664,-4.8205 -3.89569,-7.0786 1.54378,0.9752 4.23765,5.1815 4.85296,7.9 -0.47976,4.7426 8.02572,6.5208 4.93558,10.8704 0.021,2.6643 -3.0226,5.0733 -2.78998,7.0129 3.0945,2.7439 0.50659,7.1204 -1.81576,9.2488 -2.46151,1.8487 -0.71899,5.9249 -1.73494,7.4183 0.58341,-5.93 -6.51462,-5.3649 -10.38157,-6.6426 -4.40506,0.526 -5.67529,5.6132 -9.03126,7.331 -0.55315,6.4642 -3.86418,9.5624 -6.1906,8.0905 -2.54043,1.0324 -4.66176,6.1231 -0.0725,5.6123 1.27836,0.3523 2.67734,1.0761 3.98969,0.4091 z m 35.93087,-22.1676 c 1.80452,-4.1309 -3.25883,-6.1678 -3.84428,-9.6486 2.60156,2.7178 -0.14168,-1.5942 -0.25116,-2.9098 1.76406,-0.3522 2.38651,6.5949 4.56324,8.4117 1.23504,0.059 -0.65266,6.6854 -0.4678,4.1467 z m 4.71255,-19.1167 c 1.18001,-0.3591 0.15033,0.4922 0,0 z m -47.76122,38.8607 c 0.87945,-2.2825 2.35792,-4.1386 -1.23809,-3.821 -3.85413,-0.3508 -4.243,-7.2363 -8.39403,-3.0066 -1.43387,4.5868 5.79439,8.0559 9.30904,7.7022 l 0.32308,-0.8746 z m 3.33451,-4.5299 c 3.10098,-0.4685 6.2753,-3.4545 5.30117,-6.1366 0.55347,-1.7103 -3.58923,-7.3073 -0.42151,-3.7729 2.88973,3.8916 5.17137,-3.1249 6.3426,-5.139 -1.12792,-3.9309 -6.2484,-5.59 -4.94951,-10.4702 -0.8051,-1.5169 -2.34811,-4.7847 -0.16553,-1.4396 0.51587,4.2068 2.63343,7.4595 5.32409,10.7638 0.28772,4.1845 6.64938,0.08 8.38206,-1.7148 2.58821,-1.3363 -0.69167,-7.3342 1.79372,-2.8728 0.71366,2.6355 -3.95141,5.0383 -3.84554,5.9457 3.4948,1.5733 7.97373,3.4216 9.48126,-1.4421 4.78122,-3.5275 2.0451,-8.6189 -1.87751,-11.3878 -1.46397,-1.6425 -4.47291,-5.3371 -0.87499,-2.01 2.17342,2.0917 5.28188,5.6329 5.79259,0.3261 0.27849,-3.022 3.73914,-5.0678 0.0308,-5.4956 -2.16754,-0.3211 -3.17276,-7.6085 -4.49069,-4.1317 -1.7201,3.8308 -6.64892,5.5134 -10.84049,5.8377 -3.9542,-0.222 -2.99811,1.2673 -0.29152,2.5507 3.33102,0.013 3.57544,10.2134 2.25525,3.9295 -1.03044,-2.511 -6.17057,-4.2698 -4.9104,-5.14 -1.97898,-0.6036 -1.99746,-5.6871 -4.46651,-2.504 -3.45942,1.8976 -8.02433,2.686 -9.85212,6.7434 -3.76091,2.3537 0.0686,8.1475 -0.4163,10.5492 -0.35603,0.2237 -0.41916,4.2198 -1.18848,0.9322 -1.05832,-3.7466 -4.18778,-6.9616 -8.27976,-6.7012 -3.97812,0.656 -7.87749,3.7602 -10.0576,6.4738 0.66129,2.4763 5.10356,2.714 7.26165,4.1277 3.87599,0.064 6.65659,3.1109 9.97099,4.5928 3.16076,0.4767 5.18948,3.3548 1.91296,4.7647 3.56024,-3.6585 -6.44723,-6.4336 -5.70335,-1.3821 1.02872,3.8197 5.19912,5.2473 8.78271,4.2031 z m 2.37009,-12.0205 c -2.0648,-2.3602 1.99491,0.8986 0.59532,0.5617 z m -36.78611,-1.7665 c 1.58224,-2.7381 4.2278,-5.9404 2.47423,-7.4568 -1.24835,-1.6909 2.61467,-6.8489 -1.48461,-4.448 -2.24285,1.016 -2.80339,2.2439 -3.3791,-0.022 -0.8404,-0.8934 2.7156,1.3174 3.69562,-0.6973 2.87587,-1.4024 4.27126,-4.3615 5.63618,-6.1449 4.14523,-2.4563 5.91453,-6.9471 8.71168,-10.6729 2.21189,-3.0598 5.0864,-5.8899 8.96786,-6.4577 3.21821,-2.1487 6.56329,-4.289 10.33842,-5.5747 4.72781,-1.4739 10.16583,0.2223 14.46672,-2.5484 4.2227,-1.8684 6.60869,-0.5547 10.64091,-1.4463 3.68472,-0.7215 6.57345,0.064 10.00039,-0.1584 -3.30304,-1.2388 -7.29332,-1.6758 -10.85955,-2.7235 -1.60579,-1.3913 -5.36217,2.8423 -3.99252,-0.2028 -3.21289,-0.8829 -7.08346,-1.2097 -9.11512,1.9706 0.36452,0.507 5.06143,0.6983 0.71192,0.8928 -1.72755,0.1272 -4.1586,-0.4036 -1.28055,-1.1512 4.92758,-3.3568 -4.50214,-2.6173 -5.28766,-1.0322 1.63809,1.4767 3.58193,3.5449 0.42731,1.2756 -2.35913,-3.6721 -5.22812,0.2785 -7.23609,1.4603 -4.32266,-0.3019 -7.75903,3.2242 -10.00848,6.4443 -0.45878,-1.2954 2.72744,-3.7183 -0.99012,-2.2022 -3.33343,0.5532 -6.45726,2.2006 -8.90081,4.565 -2.34562,1.5684 -6.1524,4.7567 -6.48905,7.1575 -0.99301,2.3922 -2.80031,5.0807 -0.86137,7.6136 2.28065,3.1535 -2.27638,-1.21 -1.80435,-2.5096 -1.4807,1.49 -1.049,2.5913 -1.87863,0.3072 -1.01257,0.073 2.43572,-2.6891 1.79299,-1.2195 1.98108,-4.1533 3.30183,-8.8634 7.62931,-11.2474 1.72887,-2.1657 9.38734,-3.8592 6.62852,-6.5737 -4.24241,0.7818 -8.78995,2.3786 -8.92505,7.0777 -3.16463,2.2646 -6.24397,4.909 -8.63388,7.9716 -0.98899,3.1152 -2.32795,6.4729 -2.57504,9.9263 1.98672,1.2097 2.70189,3.2053 0.2973,0.9863 -1.06249,-1.8039 -4.0477,0.6242 -1.2484,-2.1144 1.01014,-2.6086 0.63704,-3.7971 1.95733,-5.7846 -0.92521,-3.3716 4.11563,-4.8938 3.09549,-8.2388 -2.25603,1.9974 -5.36425,3.7408 -5.98595,6.8564 3.30196,2.3847 -2.53141,2.95 -3.16143,5.5956 -1.85466,2.4878 -0.92944,7.5269 2.26328,9.2287 -1.45586,1.6608 -3.37646,5.9014 -1.1479,7.1899 0.27827,1.7328 3.09204,5.0379 5.5102,4.108 z m 7.26792,-29.8272 c 0.13976,-1.0221 0.18465,0.892 0,0 z m 6.85399,24.5642 c -0.66059,-0.3216 -0.84577,1.2659 0,0 z m -9.91488,-7.2037 c -0.98077,0.3275 -0.11454,1.7115 0,0 z m 0.37371,-0.7074 c 0.0572,-0.9931 -0.74513,1.1507 0,0 z m 87.56921,-0.6919 c 1.81782,-1.1839 -0.88246,-8.6926 -1.11769,-5.4921 0.11373,2.61 -1.59657,5.5668 0.26689,7.7517 0.33507,-0.7327 0.60324,-1.4936 0.8508,-2.2596 z m -41.28209,-0.6765 c -1.64103,-2.4093 -1.65306,-0.4509 0.20057,0.3269 l -0.20059,-0.3269 z m -43.84631,-3.0199 c 0.76893,-1.2618 -1.32237,1.2602 0,0 z m 28.81408,-1.0085 c 2.18819,-1.3878 -5.2391,-2.3433 -2.43018,0.6475 -0.19967,2.2169 1.76489,-0.4653 2.43018,-0.6475 z m 12.74704,1.903 c -1.27231,-1.0543 -3.03615,-1.0199 0,0 z m -38.98687,-3.2804 c 1.27185,-1.643 -1.82705,1.6504 0,0 z m 36.75898,0.235 c -0.99987,-1.4096 -0.74787,0.824 0,0 z m 32.03867,0.01 c 0.0541,-0.9038 -1.11585,0.912 0,0 z m -33.72808,-2.2229 c -0.69526,-0.7866 -0.10541,0.8107 0,0 z m -38.68013,-11.7555 c 1.5134,-0.4229 6.0639,-5.4729 2.98923,-4.7636 -1.763,1.3541 -7.36355,5.811 -5.02348,6.4296 0.70621,-0.5199 1.37451,-1.0891 2.03425,-1.666 z m 65.26648,-4.8535 c 2.35638,-0.5749 2.97495,-4.1489 4.31785,-5.4564 -3.64485,-1.728 -6.02071,-0.7436 -10.10856,-1.2146 -1.18607,-0.2849 -3.95752,0.5797 -3.92095,1.5315 3.18752,0.4133 4.97573,3.4764 7.16685,6.0318 2.29841,1.4268 0.55028,0.6961 2.54481,-0.8923 z m -49.88948,-2.4708 c 3.3118,-0.1925 5.88814,-2.0196 8.10322,-4.3239 2.21181,0.8052 8.38863,-1.9894 3.51016,-1.8857 -4.27973,1.6646 -9.02783,1.9631 -13.20988,3.8468 0.23702,1.335 -0.64838,3.6723 1.5965,2.3628 z"
         style="fill:#000000" />
      <g
         transform="matrix(0.29720825,0,0,0.29720825,-107.74808,890.93144)"
         id="g4277">
        <path
           id="path25-8"
           d="m -520.48342,457.1853 c 5.65132,0.72888 2.2815,10.48058 4.50475,14.63919 -6.75629,0.77215 -6.30698,-10.49056 -4.50974,-14.63919 z"
           style="clip-rule:evenodd;fill-rule:evenodd"
           inkscape:connector-curvature="0" />
        <path
           id="path39-4"
           d="m -415.7609,697.05363 c 5.648,-43.39503 22.50378,-106.47316 4.50475,-148.65007 -2.71416,0.46096 -2.44791,-2.05684 -5.63135,-1.1266 10.60372,-10.14609 15.90558,15.02027 16.89073,25.90023 3.57784,39.47272 -7.10576,96.26884 -15.77578,123.87644 z"
           style="clip-rule:evenodd;fill-rule:evenodd"
           inkscape:connector-curvature="0" />
        <path
           id="path43-4"
           d="m -437.14473,557.4114 c 1.30799,-0.18305 2.00359,0.24795 2.25321,1.1266 8.82312,7.72814 10.47891,23.69362 11.26104,37.16294 1.36124,23.42569 -0.89696,51.82541 -5.62969,69.82111 -1.54596,-29.83751 6.07567,-70.1323 -2.2532,-94.59474 -1.89709,-5.49489 -6.78958,-8.03266 -5.64134,-13.51258 z"
           style="clip-rule:evenodd;fill-rule:evenodd"
           inkscape:connector-curvature="0" />
        <path
           id="path45-4"
           d="m -728.82017,560.78955 c 3.41642,11.62714 -2.34307,28.88231 -3.37815,41.66768 -6.60652,81.62799 12.30777,159.71474 27.02683,222.97427 -5.89927,-3.28662 -6.77792,-14.16824 -9.00949,-23.65035 -14.16326,-60.18092 -23.54219,-142.02524 -19.14394,-212.83983 0.57245,-9.1859 2.93383,-19.69975 4.50475,-28.14678 z"
           style="clip-rule:evenodd;fill-rule:evenodd"
           inkscape:connector-curvature="0" />
        <path
           id="path47-2"
           d="m -735.57646,561.91615 c 1.3862,0.49091 2.31311,1.44112 2.2532,3.37814 -15.16837,41.46467 -8.92795,97.73326 -3.37814,143.01872 -10.16273,-34.51367 -13.19308,-108.18387 1.12494,-146.40352 z"
           style="clip-rule:evenodd;fill-rule:evenodd"
           inkscape:connector-curvature="0" />
        <path
           id="path49-6"
           d="m -705.16982,561.91615 c 1.00179,0.49923 2.01357,0.98848 2.25321,2.25321 -18.26695,56.22699 -7.79969,143.56288 -1.12661,200.45884 -11.81519,-62.43745 -19.6415,-142.98044 -1.1266,-202.72204 z"
           style="clip-rule:evenodd;fill-rule:evenodd"
           inkscape:connector-curvature="0" />
        <path
           id="path55-1"
           d="m -761.47669,597.95581 c 2.46288,6.80122 1.55761,10.2892 3.37814,16.89239 -8.49528,0.5658 -3.0786,-12.06481 -3.37814,-16.89073 z"
           style="clip-rule:evenodd;fill-rule:evenodd"
           inkscape:connector-curvature="0" />
        <path
           id="path57-6"
           d="m -409.00461,702.67833 c 1.81888,-0.31618 1.93869,1.06503 3.37815,1.1266 -14.6758,89.30454 -33.01264,174.94803 -66.44297,245.4897 -3.65772,3.55954 3.35984,0.4177 2.25321,4.50475 -4.62457,8.13751 -6.75796,18.76785 -14.63919,23.64869 -1.01012,-9.6402 5.99579,-16.6744 9.00783,-24.77529 27.38129,-73.63693 54.58618,-154.85887 65.31637,-246.6213 -0.2829,-1.81388 1.09831,-1.93036 1.14824,-3.37814 z"
           style="clip-rule:evenodd;fill-rule:evenodd"
           inkscape:connector-curvature="0" />
        <path
           id="path63-2"
           d="m -445.03261,797.28306 c 1.30965,-0.18305 2.00359,0.24795 2.2532,1.1266 -15.74582,60.82993 -28.72922,124.4256 -51.80212,177.92678 -6.47506,-5.70624 1.07502,-13.92362 3.37815,-19.14393 13.83708,-31.36517 23.98317,-72.42046 32.65818,-108.10899 4.50974,-18.50492 6.30698,-37.9251 13.52923,-51.82043 z"
           style="clip-rule:evenodd;fill-rule:evenodd"
           inkscape:connector-curvature="0" />
        <path
           id="path65-2"
           d="m -735.57646,807.4175 c 4.33001,3.55454 2.58603,13.18142 5.63135,18.01899 -4.31837,-3.57784 -5.46827,-10.30085 -5.63135,-18.02232 z"
           style="clip-rule:evenodd;fill:#b38708;fill-rule:evenodd"
           inkscape:connector-curvature="0" />
        <path
           id="path67-7"
           d="m -664.63041,965.0754 c -24.17121,-41.24001 -48.65695,-86.57373 -56.30687,-140.76551 11.02474,33.88463 17.85592,66.15175 33.78313,94.59474 8.6151,15.37639 19.535,29.47141 22.52374,46.17909 z"
           style="clip-rule:evenodd;fill-rule:evenodd"
           inkscape:connector-curvature="0" />
        <path
           id="path69-3"
           d="m -698.41353,841.19896 c 12.23455,36.84508 21.82815,79.32152 37.16293,115.99188 0.3478,1.52766 2.81901,0.93357 4.50475,1.1266 -1.87878,8.66337 6.24874,10.67195 3.37815,16.89073 -8.49862,-0.8853 -4.67948,-14.09003 -11.26104,-16.89073 -11.70203,-37.49242 -28.73255,-80.34329 -33.78479,-117.12015 z"
           style="clip-rule:evenodd;fill-rule:evenodd"
           inkscape:connector-curvature="0" />
        <path
           id="path81-8"
           d="m -477.39986,413.26608 c 9.84321,21.69003 55.66951,13.39776 54.05366,42.79262 -7.27217,15.24992 -26.13154,18.91263 -47.29737,20.27054 -6.07567,18.32519 11.84181,27.4412 21.39548,31.53158 19.7064,8.43705 50.33104,6.48504 68.69451,14.63919 15.31648,6.80122 41.35649,25.04654 45.04417,45.04416 2.05684,11.14955 0.48259,30.10211 -1.12661,43.91923 -2.52778,21.70167 -10.46892,41.43138 -12.38764,64.18976 -1.32297,15.69424 -1.6325,28.04028 -3.37648,41.66769 -8.40044,65.63754 -34.26239,133.98093 -56.30687,192.57096 -2.78739,7.40696 -6.75463,16.38983 -10.13611,23.65035 -8.43371,18.1022 -16.84247,34.36722 -28.15343,49.54891 -24.26441,3.56785 -50.30276,7.92949 -82.20709,6.75629 -28.52287,-1.04839 -51.88533,-0.27125 -85.58524,-2.2532 -16.63945,-0.97684 -42.12864,-0.50257 -50.67552,-5.62969 -6.22544,-3.73593 -15.22163,-23.96487 -20.27054,-33.78479 -13.12817,-25.53246 -23.58379,-45.34537 -33.78313,-73.1976 -8.29393,-22.64856 -17.65789,-45.22389 -23.64869,-69.82112 -13.96855,-57.34527 -18.83275,-120.06563 -28.15676,-176.81182 3.07694,-16.934 -1.78726,-41.46966 0,-64.18977 6.28867,-8.02767 6.89275,-16.66108 13.51425,-22.52375 20.00761,-17.71446 61.05458,-18.05727 93.46814,-25.90022 18.44169,-4.46315 35.17266,-13.25798 33.78313,-36.03633 -15.44129,-8.2074 -45.88621,-1.41117 -54.05367,-16.8924 2.04187,-19.22548 14.47112,-34.11761 38.28788,-34.90972 34.97629,-29.28171 114.05819,-16.97727 168.92393,-14.64086 z m -21.40048,3.37981 c -30.75609,-4.08872 -70.13562,-4.71776 -103.60423,0 -10.64365,1.49936 -27.81728,1.16654 -31.53158,9.0095 50.74042,-6.34193 105.63779,-8.32056 156.53129,-1.12661 -4.26012,-5.6613 -13.8454,-6.8811 -21.38383,-7.88289 z m -63.0698,5.62969 c 14.3879,-0.49924 26.04999,1.72901 39.41447,2.2532 -8.76986,-3.71263 -32.53337,-4.14363 -39.42279,-2.2532 z m -24.76198,2.25154 c 6.63148,-0.12481 14.29804,0.78546 18.019,-2.25321 -6.37355,0.39107 -14.82723,-1.298 -18.02233,2.25321 z m -60.81828,20.2722 c 42.87916,-12.5474 98.57697,-6.40516 145.27025,-6.75795 20.79973,-0.15643 37.05144,-1.88045 54.05367,4.50475 4.33834,4.29507 9.17591,8.09257 13.51425,12.38764 -1.82054,4.93742 -7.98108,5.53317 -9.0095,11.26104 30.61632,-13.12318 -4.07042,-29.81255 -27.02683,-32.65818 -12.95844,-1.60587 -25.58239,-0.48592 -38.28954,-2.25154 -36.03299,-5.00898 -71.42198,-1.4794 -96.84628,-5.63136 -10.59872,9.10602 -33.80975,-1.3629 -42.79262,9.0095 2.09678,0.15476 3.76422,0.74053 4.50475,2.25321 -15.31482,1.952 -25.22959,9.30571 -33.78312,18.019 4.20354,4.91079 18.30522,11.91004 19.14393,1.1266 -2.33308,-0.67064 -7.39697,1.3912 -7.88289,-1.1266 8.19907,-3.43806 18.73789,-4.53637 27.02683,-7.8829 -2.15502,-2.96877 -8.031,4.56632 -7.88622,-2.25321 z m -10.13443,-9.0095 c -5.44664,0.60075 -12.03652,0.73221 -14.63919,9.0095 7.3587,-3.50295 20.97945,-9.70842 14.63919,-9.0095 z m 51.80212,6.7563 c 17.58133,-2.91885 35.58535,1.47107 49.54891,-4.50475 -18.00568,0.0233 -36.36083,-0.32118 -49.55391,4.50475 z m 68.69118,-4.50475 c -14.87715,-1.40285 -12.58068,3.36982 0,0 z m 3.37815,2.2532 c 14.57262,0.0732 32.4435,2.83565 45.04582,1.12661 -13.32953,-0.63569 -33.74817,-5.93922 -45.04748,-1.12661 z m 63.06981,4.50475 c 9.74836,-1.11828 19.58492,7.14237 24.77529,3.37815 -8.23236,-2.65259 -16.18182,-5.58975 -24.77529,-7.8829 l 0,4.50475 z m -1.1316,61.93656 c 13.85872,5.66131 23.61541,15.42465 43.92089,14.63919 3.82912,11.18449 21.84313,8.18576 31.52992,13.51425 3.76921,-2.35638 -4.34167,-4.23184 -1.12661,-5.63136 7.99107,3.26998 20.69323,1.83053 27.02684,6.75796 -6.88277,-7.382 -19.28872,-9.24081 -30.40498,-12.38764 -3.71596,2.24155 2.79238,4.80928 0,5.62968 -9.42386,-1.08666 -15.93387,-5.08552 -24.77529,-6.75629 4.93908,-1.45776 10.5488,2.87392 11.26271,-1.1266 -16.18515,-4.08539 -36.89834,-3.64108 -46.17077,-14.63919 l -6.75796,0 c -9.59859,-10.38239 -14.29305,-23.36246 -11.2627,-43.91922 5.12047,-4.82593 6.17718,-7.65991 9.00949,-13.51425 -11.43244,1.64248 -19.73136,-4.47812 -28.15343,-2.25154 0.99514,2.75909 3.37482,4.13198 2.25321,9.00949 -11.19282,11.26437 -15.30151,34.41216 1.1266,42.79263 -24.92172,-3.69267 -12.82697,-33.42368 -5.63135,-47.29737 -4.73606,-1.43114 -9.41388,2.93882 -10.13444,-1.12661 2.90055,-1.97863 8.13584,-1.62417 10.13444,-4.50475 -52.86881,-3.16847 -91.93216,-0.59408 -135.13582,5.62969 7.96777,8.92463 12.95345,20.83135 15.7658,34.90973 6.27869,-9.16926 -0.84704,-24.67544 -4.50475,-27.02683 23.7918,4.60958 -2.92385,45.23886 -5.63136,46.17243 0.30953,-0.1065 -0.67063,-3.63775 -2.2532,-2.25321 -18.34184,20.69156 -61.14278,16.93067 -87.83014,29.28004 66.93223,-15.18169 137.07119,-17.8243 218.46453,-14.63919 2.1933,-1.56093 3.45969,-4.04712 6.75795,-4.50475 25.12642,-0.3478 41.99385,13.55918 65.31471,11.26271 -14.65417,-3.73926 -31.44172,-5.34513 -40.53942,-14.63919 -69.10887,0.43434 -109.13906,0.65233 -173.41703,5.62969 23.39741,2.0818 45.71148,-41.02367 23.64869,-59.68502 11.43411,-3.64107 12.35935,11.41914 12.38764,18.019 0.0865,20.12743 -13.41107,30.7611 -18.01733,38.28787 41.89567,-6.88442 79.15179,-0.87199 120.49496,-6.75795 -33.68826,-8.82645 -71.84633,0.51587 -108.10731,0 32.76302,-5.51154 73.31408,-9.53037 103.60256,-2.25321 -1.85382,-3.69765 -8.3921,-10.53216 -1.12494,-13.51425 2.24489,11.54561 12.50913,20.73982 24.77529,15.76579 -14.49773,-8.79815 -16.63113,-49.69868 3.37815,-54.05366 -14.7823,11.09796 -15.34144,50.01487 5.62969,55.18027 -9.04944,-12.64059 -13.81379,-47.70841 2.2532,-55.18027 -11.73198,11.34758 -8.96956,44.81618 2.2632,55.18193 z m 20.26888,-50.67552 c -3.03035,-2.59434 -6.17885,-7.22889 -11.26104,-4.50474 0.4127,3.34153 1.952,5.5548 4.50475,6.75795 0.19137,-1.68574 -0.40272,-4.15695 1.1266,-4.50475 2.24655,-0.2363 4.80928,4.77267 5.6247,2.25154 z m -11.26604,2.25155 c -0.78213,-0.88198 -6.28368,-2.50615 -6.75795,0 3.30159,1.93037 -5.35178,7.28048 -1.12661,10.13444 2.87892,-3.14684 5.40837,-6.61984 7.88789,-10.13444 z m 14.64418,1.12494 c -4.69612,2.81068 -16.68604,-1.67244 -16.89073,5.63135 1.33129,1.29634 3.98056,1.27471 6.75796,1.1266 -0.48093,2.14837 -3.21839,2.03854 -2.25321,5.63136 3.58117,-0.17307 4.95406,-2.55442 9.00784,-2.25321 1.09665,-4.47313 -6.29201,-0.46262 -5.62969,-4.50475 5.76614,-0.88531 20.78974,-7.0525 11.26104,-12.38765 -2.87891,0.12648 -2.24655,3.77254 -2.26319,6.7563 z m -185.81465,0 c -0.29289,-3.51461 -6.05571,-7.382 -9.0095,-4.50475 2.87225,1.63249 2.85228,6.15887 9.0095,4.50475 z m -20.27054,3.37981 c 2.9904,2.64261 10.419,5.5781 14.63918,3.37814 0.77714,-6.074 -10.35743,-4.83091 -6.75795,-10.13444 -4.76103,0.11483 -6.72634,3.03035 -7.88123,6.7563 z m 19.14393,7.88289 c -13.42771,-4.96404 -31.69466,-5.09218 -43.91922,-11.2627 4.42487,12.52243 32.56666,13.15979 43.91922,11.2627 z m 5.63135,0 c -0.66231,-3.46634 -0.28789,-7.97109 -4.50474,-7.88289 0.0116,4.11701 2.22491,6.0324 4.50474,7.88289 z m 4.50475,19.14394 c 1.28303,-4.10037 2.86394,-14.70076 -2.2532,-15.76579 0.83372,5.17206 0.40105,11.6105 2.2532,15.76579 z m 164.41752,476.35186 c 7.42027,-10.22264 10.16605,-25.1181 19.14394,-33.78313 -6.70138,18.44834 -13.99851,36.30093 -29.28004,46.17077 20.91122,-0.48425 20.50351,-22.2891 31.53158,-32.65818 -0.19137,-5.26691 -2.89722,-3.74092 -1.12661,-9.0095 32.01085,-65.02349 56.84937,-138.98658 67.56792,-219.59613 -18.25198,38.22797 -19.26376,93.0854 -34.90973,131.75768 -1.51101,-0.22798 -2.09845,-4.67782 -2.25321,0 -11.03472,21.71166 -20.55177,49.84346 -30.40498,72.07266 -2.95379,6.6631 -5.10549,18.87601 -13.51424,19.14394 35.62363,-67.60453 63.4692,-142.99043 72.07432,-237.61846 2.31811,-4.19189 5.71123,4.38327 5.63135,-1.1266 1.85216,-0.1531 1.85216,-7.7298 0,-7.8829 0.17806,3.55787 0.0383,6.79623 -2.2532,7.8829 5.94919,-34.87645 9.22084,-71.12245 11.26104,-106.98239 0.5192,-9.1393 -2.03687,-20.94617 4.50475,-28.15343 3.62277,30.73946 -4.66617,63.4692 -5.63136,93.4698 4.18358,-24.2278 14.38791,-60.79498 12.38765,-86.71185 -0.79212,-10.25425 -10.16439,-13.2613 -11.26271,-22.52208 -5.15208,-0.218 -3.98221,-8.49196 -10.13443,-4.50475 -1.95866,6.48504 5.69791,13.05495 9.00783,18.019 -3.91399,68.53476 -16.50466,128.38951 -28.15343,189.19281 -0.40938,2.59269 -4.9291,1.07502 -4.50475,4.50475 -1.04839,19.55165 -4.19356,32.43353 -9.00784,49.54892 -0.44764,2.69918 5.12879,-0.62405 3.37815,3.37814 -10.38073,31.77454 -18.98252,62.52566 -31.53158,90.09166 -4.06709,8.93461 -10.53216,16.70768 -14.64085,25.90023 -4.35332,9.74337 -2.99707,23.79013 -11.26105,29.28004 8.11588,-32.05079 21.06266,-59.26733 32.65819,-87.83845 -0.92192,9.22583 -7.02089,19.24045 -6.75796,25.90022 5.43998,-11.22276 9.09604,-24.77362 13.51259,-38.28953 4.12866,-12.63394 11.19115,-26.44939 10.1361,-37.16127 -0.1764,1.32463 0.19304,3.19675 -1.1266,3.37814 7.11241,-20.50018 10.09949,-67.71934 16.89073,-99.10115 1.61585,-3.35984 5.86932,2.96045 5.63135,-2.25321 6.25872,-34.95799 14.01847,-74.61875 18.01733,-112.61208 1.26805,-12.03984 4.31005,-26.67404 -1.12494,-37.16293 -2.29148,4.28675 -2.52612,10.7252 -5.63135,11.26104 -0.24463,28.26826 -2.27651,57.53499 -12.38765,78.83062 2.56274,-24.1862 12.15634,-53.15671 7.8829,-81.08216 -1.62917,-10.65364 -9.92143,-20.96447 -9.0095,-31.53158 -1.63582,-1.74066 -5.76448,-0.99181 -9.00783,-1.1266 1.05338,-3.44971 6.24041,-2.76742 7.88123,-5.63136 -23.11284,-7.00258 -50.36267,-9.27243 -76.57741,-11.26104 -29.04041,-2.20328 -54.29662,-2.91219 -79.95555,-2.25321 -67.64779,-4.73772 -135.57681,11.92336 -194.81752,25.9019 -2.5594,5.63301 -3.96557,9.30571 -1.1266,15.76579 -6.71968,61.98981 1.27471,123.8598 14.63919,172.30208 3.44637,12.49415 6.93768,24.91175 6.75629,37.16127 -13.82544,-40.42958 -22.43389,-92.69599 -24.77529,-143.01872 -1.16821,-25.11809 -1.95367,-45.24718 -2.25154,-66.4413 -3.15516,6.76627 0.32283,13.17976 -3.37815,19.14393 -4.88583,-15.89725 3.11022,-37.06475 14.63919,-43.91922 4.19023,2.3181 -4.38327,5.71123 1.12494,5.63135 97.0593,-31.55322 215.85188,-29.68442 328.84503,-18.02898 -58.20229,-11.57889 -168.32485,-20.71153 -246.62128,-9.0095 -13.76387,2.05684 -35.42228,6.47173 -55.18027,10.13444 -11.89175,2.20494 -26.97193,6.10063 -34.90974,11.26104 -15.41466,10.0246 -11.10295,21.82149 -11.2627,38.28953 -0.18638,19.29205 -5.46494,42.68612 -1.12661,61.93823 -0.0582,-4.93742 -0.78712,-10.54714 3.37815,-11.26104 -0.96851,15.14008 -0.96186,23.57047 1.1266,38.28787 -0.34447,3.51793 3.25334,-2.86227 3.37815,1.12494 2.07348,64.42607 14.10833,105.33658 29.27837,156.5313 -3.42474,1.41949 -3.95226,2.91719 -1.1266,5.63135 1.56094,4.19356 0.16974,-3.31324 2.25321,-2.2532 0.55747,7.34372 7.20393,14.54433 5.63135,20.2722 -0.54749,-1.33129 -1.20149,-2.55441 -2.25321,-3.37815 4.04213,25.5308 18.32687,54.86409 30.40499,77.70235 8.15914,15.42798 19.09734,55.7444 42.79262,49.54892 -6.83117,-36.71363 -24.01645,-69.07726 -25.90023,-106.98239 8.81979,36.97655 21.16584,70.42519 28.15344,109.23559 52.51436,4.91579 116.27312,4.23683 167.79233,0 5.04226,-5.07554 6.8395,-13.41273 16.89073,-13.49594 z M -372.684,712.81776 c 10.86665,-39.43444 21.1908,-79.41139 23.64869,-127.25293 -9.78498,39.77226 -19.68644,85.41884 -23.64702,127.2546 z m 15.77578,-156.52797 c -1.61086,-7.7947 -7.78638,-17.7594 -15.76746,-12.38765 9.4688,-0.65898 7.50515,15.53781 15.77578,12.38765 z m -24.77862,20.27054 c 2.9538,-7.47186 7.96777,-13.25298 3.37815,-22.52208 -4.98568,-1.60754 -2.94714,3.81081 -6.75796,3.37814 -1.98196,-6.95266 7.50348,-6.86446 4.50475,-11.26104 -6.04239,1.12328 -10.46892,-5.24528 -14.64085,-2.25321 7.60499,7.77806 5.79111,24.99329 13.51258,32.65819 z m 25.89357,-18.01733 c 1.03841,3.84243 0.47427,9.28574 3.37815,11.26104 1.29468,-2.4579 0.22299,-7.28382 3.37648,-7.8829 2.16002,7.6 0.43267,19.08736 7.8829,21.39548 3.7093,-15.03192 -8.33554,-21.59517 -7.8829,-32.65818 -2.56273,-0.1531 -4.36163,-6.77959 -6.75629,-3.37815 3.44471,2.45456 4.80928,9.44217 0,11.26271 z m -12.38099,164.4092 c 13.84541,-23.38576 10.46893,-54.97392 18.019,-83.3337 4.22851,-15.88394 11.70703,-31.75125 7.88123,-48.42398 -0.24795,-0.87698 -0.94188,-1.30965 -2.2532,-1.1266 -6.8395,44.79788 -17.55638,91.11009 -23.66367,132.89593 z m -12.39762,5.64134 c 0.20135,-9.17259 4.30505,-14.19487 2.2532,-22.52209 0.59908,7.83797 -6.9227,17.85592 -2.24655,22.51543 z m -18.00569,21.38383 c 0.5242,-8.49862 4.91412,-19.09069 3.37815,-25.90023 -2.04686,6.98927 -5.60806,18.40507 -3.37815,25.89357 z m -6.75629,125.00804 c 15.24659,-20.78974 19.5816,-52.49107 30.40498,-77.70235 1.92038,-22.56202 10.93154,-43.76446 7.88289,-67.56958 -0.23797,-1.26306 -1.24975,-1.75397 -2.2532,-2.2532 -5.80775,55.38162 -21.38383,100.99491 -36.04466,147.50682 z m -323.2037,-49.5406 c -3.04532,-4.83757 -1.30133,-14.46445 -5.63135,-18.01899 0.16308,7.72147 1.31298,14.44448 5.63135,18.02232 z m 296.17853,110.34722 c 3.46635,0.84038 2.16335,-3.09025 5.62969,-2.25154 1.67243,-12.29112 16.59785,-23.0962 12.38765,-33.78479 -6.4734,11.54894 -13.97854,22.04948 -18.00569,36.02801 z m -7.88789,24.77862 c 3.13519,-0.37775 7.73313,-9.58195 3.37815,-10.13444 -1.08167,3.42807 -4.17692,4.82593 -3.37815,10.13444 z m -7.88788,12.38099 c 4.3816,-0.33449 9.29739,-8.85973 4.50475,-11.26271 -1.31465,3.66105 -6.42347,7.9711 -4.50975,11.26604 z"
           style="clip-rule:evenodd;fill-rule:evenodd"
           inkscape:connector-curvature="0" />
        <path
           id="path91-6"
           d="m -695.03538,810.79564 c 6.83783,17.18528 8.0493,39.99858 12.38764,59.68502 -6.2271,-17.48981 -10.11447,-40.12173 -12.38764,-59.69167 z"
           style="clip-rule:evenodd;fill-rule:evenodd"
           inkscape:connector-curvature="0" />
      </g>
      <path
         sodipodi:nodetypes="ssssssssss"
         inkscape:connector-curvature="0"
         id="path4294"
         d="m -297.34866,1067.0491 c -1.26089,0 -2.27681,1.0896 -2.27681,2.4191 0,1.3296 1.01592,2.4192 2.27681,2.4192 1.26088,0 2.2768,-1.0896 2.2768,-2.4192 0,-1.3295 -1.01592,-2.4191 -2.2768,-2.4191 z m 0,0.2846 c 1.09682,0 1.9922,0.9492 1.9922,2.1345 0,1.1854 -0.89538,1.7321 -1.9922,1.7321 -1.09682,0 -1.4891,-0.7479 -1.4891,-1.9333 0,-1.1853 0.39228,-1.9333 1.4891,-1.9333 z"
         style="color:#000000;font-style:normal;font-variant:normal;font-weight:normal;font-stretch:normal;font-size:medium;line-height:normal;font-family:sans-serif;text-indent:0;text-align:start;text-decoration:none;text-decoration-line:none;text-decoration-style:solid;text-decoration-color:#000000;letter-spacing:normal;word-spacing:normal;text-transform:none;direction:ltr;block-progression:tb;writing-mode:lr-tb;baseline-shift:baseline;text-anchor:start;white-space:normal;clip-rule:nonzero;display:inline;overflow:visible;visibility:visible;opacity:1;isolation:auto;mix-blend-mode:normal;color-interpolation:sRGB;color-interpolation-filters:linearRGB;solid-color:#000000;solid-opacity:1;fill:#000000;fill-opacity:1;fill-rule:nonzero;stroke:none;stroke-width:2;stroke-linecap:round;stroke-linejoin:bevel;stroke-miterlimit:4;stroke-dasharray:none;stroke-dashoffset:0;stroke-opacity:1;color-rendering:auto;image-rendering:auto;shape-rendering:auto;text-rendering:auto;enable-background:accumulate" />
      <path
         style="color:#000000;font-style:normal;font-variant:normal;font-weight:normal;font-stretch:normal;font-size:medium;line-height:normal;font-family:sans-serif;text-indent:0;text-align:start;text-decoration:none;text-decoration-line:none;text-decoration-style:solid;text-decoration-color:#000000;letter-spacing:normal;word-spacing:normal;text-transform:none;direction:ltr;block-progression:tb;writing-mode:lr-tb;baseline-shift:baseline;text-anchor:start;white-space:normal;clip-rule:nonzero;display:inline;overflow:visible;visibility:visible;opacity:1;isolation:auto;mix-blend-mode:normal;color-interpolation:sRGB;color-interpolation-filters:linearRGB;solid-color:#000000;solid-opacity:1;fill:#000000;fill-opacity:1;fill-rule:nonzero;stroke:none;stroke-width:2;stroke-linecap:round;stroke-linejoin:bevel;stroke-miterlimit:4;stroke-dasharray:none;stroke-dashoffset:0;stroke-opacity:1;color-rendering:auto;image-rendering:auto;shape-rendering:auto;text-rendering:auto;enable-background:accumulate"
         d="m -290.73282,1065.4943 c -1.07584,0 -1.94266,0.9296 -1.94266,2.064 0,1.1345 0.86682,2.0641 1.94266,2.0641 1.07583,0 1.94265,-0.9296 1.94265,-2.0641 0,-1.1344 -0.86682,-2.064 -1.94265,-2.064 z m 0,0.2428 c 0.93585,0 1.69982,0.8099 1.69982,1.8212 0,1.0114 -0.76397,1.4779 -1.69982,1.4779 -0.93585,0 -1.27055,-0.6382 -1.27055,-1.6496 0,-1.0114 0.3347,-1.6495 1.27055,-1.6495 z"
         id="path4303"
         inkscape:connector-curvature="0"
         sodipodi:nodetypes="ssssssssss" />
      <path
         sodipodi:nodetypes="ssssssssss"
         inkscape:connector-curvature="0"
         id="path4305"
         d="m -293.45922,1064.7097 c 0.56042,-0.3099 0.74415,-1.0439 0.41734,-1.6348 -0.32681,-0.591 -1.04617,-0.8255 -1.6066,-0.5156 -0.56043,0.3099 -0.74415,1.0439 -0.41735,1.6349 0.32681,0.5909 1.04618,0.8255 1.60661,0.5155 z m -0.07,-0.1264 c -0.48751,0.2696 -1.11878,0.068 -1.41015,-0.4591 -0.29137,-0.5268 -0.0278,-0.9899 0.45974,-1.2595 0.48751,-0.2696 0.8457,-0.034 1.13707,0.4932 0.29136,0.5269 0.30085,0.9557 -0.18666,1.2254 z"
         style="color:#000000;font-style:normal;font-variant:normal;font-weight:normal;font-stretch:normal;font-size:medium;line-height:normal;font-family:sans-serif;text-indent:0;text-align:start;text-decoration:none;text-decoration-line:none;text-decoration-style:solid;text-decoration-color:#000000;letter-spacing:normal;word-spacing:normal;text-transform:none;direction:ltr;block-progression:tb;writing-mode:lr-tb;baseline-shift:baseline;text-anchor:start;white-space:normal;clip-rule:nonzero;display:inline;overflow:visible;visibility:visible;opacity:1;isolation:auto;mix-blend-mode:normal;color-interpolation:sRGB;color-interpolation-filters:linearRGB;solid-color:#000000;solid-opacity:1;fill:#000000;fill-opacity:1;fill-rule:nonzero;stroke:none;stroke-width:2;stroke-linecap:round;stroke-linejoin:bevel;stroke-miterlimit:4;stroke-dasharray:none;stroke-dashoffset:0;stroke-opacity:1;color-rendering:auto;image-rendering:auto;shape-rendering:auto;text-rendering:auto;enable-background:accumulate" />
    </g>
  </g>
</svg>
