<?xml version="1.0" encoding="UTF-8" standalone="no"?>
<!-- Created with Inkscape (http://www.inkscape.org/) -->

<svg
   xmlns:dc="http://purl.org/dc/elements/1.1/"
   xmlns:cc="http://creativecommons.org/ns#"
   xmlns:rdf="http://www.w3.org/1999/02/22-rdf-syntax-ns#"
   xmlns:svg="http://www.w3.org/2000/svg"
   xmlns="http://www.w3.org/2000/svg"
   xmlns:sodipodi="http://sodipodi.sourceforge.net/DTD/sodipodi-0.dtd"
   xmlns:inkscape="http://www.inkscape.org/namespaces/inkscape"
   width="62mm"
   height="88mm"
   viewBox="0 0 219.68504 311.81102"
   id="svg2"
   version="1.1"
   inkscape:version="0.91 r13725"
   sodipodi:docname="l_house.svg">
  <defs
     id="defs4">
    <inkscape:perspective
       sodipodi:type="inkscape:persp3d"
       inkscape:vp_x="0 : 155.90551 : 1"
       inkscape:vp_y="0 : 1000 : 0"
       inkscape:vp_z="219.68504 : 155.90551 : 1"
       inkscape:persp3d-origin="109.84252 : 103.93701 : 1"
       id="perspective6315" />
    <clipPath
       clipPathUnits="userSpaceOnUse"
       id="clipPath8648">
      <path
         style="fill:#ff0000;fill-opacity:1;fill-rule:evenodd;stroke:none;stroke-width:1px;stroke-linecap:butt;stroke-linejoin:miter;stroke-opacity:1"
         d="m 48.7971,144.54832 -4.54568,-1.2627 -4.04062,0.50508 -4.79822,3.40927 -5.93465,4.29314 -2.0203,2.90419 0.12627,2.65165 2.65165,2.14658 -1.01015,1.76776 -3.283,1.26269 -3.40926,8.08123 6.31345,9.34391 10.35406,-0.75762 46.21448,3.91434 25.50635,-7.19733 9.47018,-5.05077 0.12627,-10.10152 -2.65165,-1.13642 0.88389,-15.15229 10.35406,-6.9448 3.28299,-3.91434 6.566,-7.82868 0.50507,-4.54569 -4.54568,-1.89404 -2.14658,1.01016 -4.16688,1.13642 -5.93464,-2.90419 -2.77792,-1.76777 -5.80838,2.39911 -2.90419,3.03046 -3.40926,4.9245 -7.07107,0.3788 -8.96511,5.80838 -2.90418,2.14657 -3.66181,0.12627 -5.55584,-0.3788 -17.29886,2.65165 z"
         id="path8650"
         inkscape:connector-curvature="0" />
    </clipPath>
    <mask
       maskUnits="userSpaceOnUse"
       id="mask8666">
      <rect
         rx="1.7260212"
         ry="2.8714814"
         y="98.924339"
         x="22.885082"
         height="109.83415"
         width="100.10923"
         id="rect8668"
         style="opacity:1;fill:#ffffff;fill-opacity:1;stroke:none;stroke-width:2.01114893;stroke-linecap:round;stroke-linejoin:bevel;stroke-miterlimit:4;stroke-dasharray:none;stroke-dashoffset:0;stroke-opacity:1" />
    </mask>
    <clipPath
       clipPathUnits="userSpaceOnUse"
       id="clipPath9647">
      <path
         style="fill:#ff0000;fill-opacity:1;fill-rule:evenodd;stroke:none;stroke-width:1px;stroke-linecap:butt;stroke-linejoin:miter;stroke-opacity:1"
         d="m 24.29467,289.85466 12.14286,-9.28572 41.42857,-15.71428 40,-5 20,5 2.85715,7.14285 9.28571,6.42858 10,1.42857 -3.57143,13.57143 -15.71428,10 -27.85715,5.71428 -74.28571,1.42857 z"
         id="path9649"
         inkscape:connector-curvature="0" />
    </clipPath>
    <inkscape:path-effect
       pattern-nodetypes="sssss"
       fuse_tolerance="0"
       vertical_pattern="false"
       prop_units="false"
       tang_offset="0"
       normal_offset="0"
       spacing="0"
       scale_y_rel="false"
       prop_scale="1"
       copytype="single_stretched"
       pattern="M 0,5 C 0,2.24 2.24,0 5,0 7.76,0 7,0.24 7,3 7,5.76 7.76,5.75 5,5.75 2.24,5.75 0,7.76 0,5 Z"
       is_visible="true"
       id="path-effect20326"
       effect="skeletal" />
    <clipPath
       clipPathUnits="userSpaceOnUse"
       id="clipPath7877">
      <path
         style="fill:#ff0000;fill-opacity:1;fill-rule:evenodd;stroke:none;stroke-width:1px;stroke-linecap:butt;stroke-linejoin:miter;stroke-opacity:1"
         d="m 1349.8263,623.67274 -143.5316,10.50232 -77.0169,-21.00459 -119.0262,66.51457 -91.01997,38.50849 -189.04149,-14.00311 -31.50696,-80.51768 -52.51151,-94.52074 -49.01077,-77.01694 -45.51,-31.50692 -38.50846,31.50692 -21.00461,24.50538 -87.51923,56.0123 L 264.58784,578.16276 121.05631,581.6635 110.554,564.1597 96.550923,357.61431 103.55246,4.0366248 142.06092,-23.9695 l 304.56691,3.500741 59.51307,3.50079 171.53769,-10.502321 115.52538,0 38.50845,28.00617372 38.50844,3.50074108 224.04924,-28.0061248 101.5223,35.007656 91.02,87.519261 -3.5008,140.030723 3.5008,238.0523 7.0016,45.51003 3.5007,112.02459 z"
         id="path7879"
         inkscape:connector-curvature="0" />
    </clipPath>
    <filter
       style="color-interpolation-filters:sRGB"
       id="filter8486"
       inkscape:label="filter1" />
    <clipPath
       clipPathUnits="userSpaceOnUse"
       id="clipPath8513">
      <path
         style="fill:#ff0000;fill-opacity:1;fill-rule:evenodd;stroke:none;stroke-width:1px;stroke-linecap:butt;stroke-linejoin:miter;stroke-opacity:1"
         d="m 1037.9071,144.02626 13.0113,78.06757 -32.5282,52.04505 -117.10134,39.03376 -175.65205,19.5169 -149.62954,13.0113 -71.56195,-45.53943 -65.05628,-110.59572 143.12385,-84.57325 52.04505,-39.033754 6.50568,-39.033819 39.03375,-13.01123 78.06757,-13.01129406 221.19149,-6.50561504 z"
         id="path8515"
         inkscape:connector-curvature="0" />
    </clipPath>
    <clipPath
       clipPathUnits="userSpaceOnUse"
       id="clipPath8513-1">
      <path
         style="fill:#ff0000;fill-opacity:1;fill-rule:evenodd;stroke:none;stroke-width:1px;stroke-linecap:butt;stroke-linejoin:miter;stroke-opacity:1"
         d="m 1037.9071,144.02626 13.0113,78.06757 -32.5282,52.04505 -117.10134,39.03376 -175.65205,19.5169 -149.62954,13.0113 -71.56195,-45.53943 -65.05628,-110.59572 143.12385,-84.57325 52.04505,-39.033754 6.50568,-39.033819 39.03375,-13.01123 78.06757,-13.01129406 221.19149,-6.50561504 z"
         id="path8515-4"
         inkscape:connector-curvature="0" />
    </clipPath>
    <clipPath
       clipPathUnits="userSpaceOnUse"
       id="clipPath8565">
      <path
         style="fill:#ff0000;fill-opacity:1;fill-rule:evenodd;stroke:none;stroke-width:1px;stroke-linecap:butt;stroke-linejoin:miter;stroke-opacity:1"
         d="m 1037.9071,144.02626 13.0113,78.06757 -32.5282,52.04505 -117.10134,39.03376 -175.65205,19.5169 -149.62954,13.0113 -71.56195,-45.53943 -65.05628,-110.59572 143.12385,-84.57325 52.04505,-39.033754 6.50568,-39.033819 39.03375,-13.01123 78.06757,-13.01129406 221.19149,-6.50561504 z"
         id="path8567"
         inkscape:connector-curvature="0" />
    </clipPath>
    <clipPath
       clipPathUnits="userSpaceOnUse"
       id="clipPath8637">
      <rect
         style="opacity:1;fill:#ff0000;fill-opacity:1;stroke:none;stroke-width:8.10000038;stroke-linecap:round;stroke-linejoin:bevel;stroke-miterlimit:4;stroke-dasharray:none;stroke-dashoffset:0;stroke-opacity:1"
         id="rect8639"
         width="193.57143"
         height="132.14285"
         x="-219.99998"
         y="776.64789" />
    </clipPath>
    <clipPath
       clipPathUnits="userSpaceOnUse"
       id="clipPath8741">
      <path
         style="fill:#ff0000;fill-opacity:1;fill-rule:evenodd;stroke:none;stroke-width:1px;stroke-linecap:butt;stroke-linejoin:miter;stroke-opacity:1"
         d="m -26.77703,99.03193 15.71429,-5.71429 45.71428,12.85714 57.14286,17.14286 74.28571,27.14285 25.71429,21.42857 100,30 44.28571,32.85715 60,-8.57143 28.57143,17.14286 27.14286,8.57142 48.57143,-14.28571 102.85714,7.14286 -4.28571,-187.14286 -7.14286,-12.85714 -37.14286,5.71428 -22.85714,2.85715 -51.42857,0 -67.14286,0 -22.85714,-1.42858 -14.28572,8.57143 -92.85714,0 -72.85714,-4.28571 -51.42857,5.71428 -37.14286,-2.85714 -32.85714,-2.85714 -32.85715,0 -38.57142,-4.28572 -48.57143,5.71429 z"
         id="path8743"
         inkscape:connector-curvature="0"
         sodipodi:nodetypes="cccccccccccccccccccccccccccccc" />
    </clipPath>
    <clipPath
       clipPathUnits="userSpaceOnUse"
       id="clipPath20203">
      <rect
         style="opacity:1;fill:#ff0000;fill-opacity:1;stroke:none;stroke-width:8.10000038;stroke-linecap:round;stroke-linejoin:bevel;stroke-miterlimit:4;stroke-dasharray:none;stroke-dashoffset:0;stroke-opacity:1"
         id="rect20205"
         width="17069.842"
         height="17666.689"
         x="2366.7041"
         y="-21212.371"
         transform="scale(1,-1)" />
    </clipPath>
    <clipPath
       clipPathUnits="userSpaceOnUse"
       id="clipPath16200">
      <rect
         style="opacity:1;fill:#ff0000;fill-opacity:1;stroke:none;stroke-width:8.10000038;stroke-linecap:round;stroke-linejoin:bevel;stroke-miterlimit:4;stroke-dasharray:none;stroke-dashoffset:0;stroke-opacity:1"
         id="rect16202"
         width="104.38721"
         height="73.647415"
         x="14.41088"
         y="-11.355354" />
    </clipPath>
    <clipPath
       clipPathUnits="userSpaceOnUse"
       id="clipPath16490">
      <rect
         style="opacity:1;fill:#a40000;fill-opacity:1;stroke:none;stroke-width:8.10000038;stroke-linecap:round;stroke-linejoin:bevel;stroke-miterlimit:4;stroke-dasharray:none;stroke-dashoffset:0;stroke-opacity:1"
         id="rect16492"
         width="1001.874"
         height="712.34161"
         x="-484.35733"
         y="178.69977" />
    </clipPath>
    <clipPath
       clipPathUnits="userSpaceOnUse"
       id="clipPath91237">
      <path
         style="fill:#ff0000;fill-opacity:1;fill-rule:evenodd;stroke:none;stroke-width:1px;stroke-linecap:butt;stroke-linejoin:miter;stroke-opacity:1"
         d="M 350.17003,58.669784 323.33196,15.843089 C 287.67843,8.8819159 252.05843,1.4028189 216.38398,-5.2351474 166.60708,-9.3054037 142.0144,4.6361616 112.3232,35.933062 c -21.416902,34.377345 -7.80699,74.439668 -4.5793,108.991558 -1.42812,13.70629 8.73535,40.8148 2.32954,49.24442 -7.14976,14.64265 -17.984602,23.46401 -27.713019,35.2365 C 289.16408,261.61856 386.94615,281.81636 351.88309,59.24081 Z"
         id="path91239"
         inkscape:connector-curvature="0"
         sodipodi:nodetypes="ccccccccc" />
    </clipPath>
  </defs>
  <sodipodi:namedview
     id="base"
     pagecolor="#ffffff"
     bordercolor="#666666"
     borderopacity="1.0"
     inkscape:pageopacity="0.0"
     inkscape:pageshadow="2"
     inkscape:zoom="1.4"
     inkscape:cx="11.671663"
     inkscape:cy="195.29396"
     inkscape:document-units="px"
     inkscape:current-layer="layer1"
     showgrid="false"
     inkscape:window-width="1920"
     inkscape:window-height="1026"
     inkscape:window-x="-2"
     inkscape:window-y="31"
     inkscape:window-maximized="1" />
  <metadata
     id="metadata7">
    <rdf:RDF>
      <cc:Work
         rdf:about="">
        <dc:format>image/svg+xml</dc:format>
        <dc:type
           rdf:resource="http://purl.org/dc/dcmitype/StillImage" />
        <dc:title />
      </cc:Work>
    </rdf:RDF>
  </metadata>
  <g
     inkscape:label="Layer 1"
     inkscape:groupmode="layer"
     id="layer1"
     transform="translate(0,-740.55118)">
    <text
       xml:space="preserve"
       style="font-style:normal;font-weight:normal;font-size:22.05662727px;line-height:125%;font-family:Sans;letter-spacing:0px;word-spacing:0px;fill:#000000;fill-opacity:1;stroke:none;stroke-width:1px;stroke-linecap:butt;stroke-linejoin:miter;stroke-opacity:1"
       x="152.71159"
       y="766.04486"
       id="text6305"
       sodipodi:linespacing="125%"><tspan
         sodipodi:role="line"
         id="tspan6307"
         x="152.71159"
         y="766.04486"
         style="font-style:normal;font-variant:normal;font-weight:normal;font-stretch:normal;font-size:15px;font-family:'Ubuntu Condensed';-inkscape-font-specification:'Ubuntu Condensed, '">• A D T O</tspan></text>
    <text
       xml:space="preserve"
       style="font-style:normal;font-weight:normal;font-size:19.57834816px;line-height:125%;font-family:Sans;letter-spacing:0px;word-spacing:0px;fill:#000000;fill-opacity:1;stroke:none;stroke-width:1px;stroke-linecap:butt;stroke-linejoin:miter;stroke-opacity:1"
       x="14.324148"
       y="763.8302"
       id="text6317"
       sodipodi:linespacing="125%"><tspan
         sodipodi:role="line"
         id="tspan6319"
         x="14.324148"
         y="763.8302"
         style="font-style:normal;font-variant:normal;font-weight:500;font-stretch:normal;font-family:Orbitron;-inkscape-font-specification:'Orbitron Medium'">L</tspan></text>
    <text
       xml:space="preserve"
       style="font-style:normal;font-weight:normal;font-size:40px;line-height:125%;font-family:Sans;letter-spacing:0px;word-spacing:0px;fill:#000000;fill-opacity:1;stroke:none;stroke-width:1px;stroke-linecap:butt;stroke-linejoin:miter;stroke-opacity:1"
       x="38.08194"
       y="1023.8018"
       id="text8669"
       sodipodi:linespacing="125%"><tspan
         sodipodi:role="line"
         x="38.08194"
         y="1023.8018"
         style="font-style:normal;font-variant:normal;font-weight:500;font-stretch:normal;font-size:17.5px;font-family:Essays1743;-inkscape-font-specification:'Essays1743 Medium'"
         id="tspan17435">The shunned house</tspan></text>
    <g
       id="g96062"
       transform="matrix(-0.69859813,0,0,0.69859813,186.92087,748.48593)">
      <path
         id="path95864"
         d="m 163,0 c -1.714,2.675 -5.06,3.718 -6.896,6.269 -1.02,-2.917 3.61,-5.579 6.9,-6.269 z"
         style="clip-rule:evenodd;fill-rule:evenodd"
         inkscape:connector-curvature="0" />
      <path
         id="path95866"
         d="m 198.73,28.211 c -1.304,0.949 -3.641,2.94 -5.015,1.881 1.18,-1.115 2.53,-2.066 5.01,-1.881 z"
         style="clip-rule:evenodd;fill-rule:evenodd"
         inkscape:connector-curvature="0" />
      <path
         id="path95868"
         d="m 190.58,30.719 c 1.048,2.737 -4.502,4.261 -4.388,8.15 -2.001,0.538 -1.938,-0.987 -3.136,-1.253 1.27,-3.549 4.81,-4.811 7.53,-6.897 z"
         style="clip-rule:evenodd;fill-rule:evenodd"
         inkscape:connector-curvature="0" />
      <path
         id="path95870"
         d="m 204.38,49.526 c 2.306,5.5 -4.272,9.459 -4.389,12.539 0.432,1.686 -1.295,1.212 -1.88,1.88 0.388,6.196 -6.625,9.974 -10.031,14.419 -2.117,-0.258 -0.352,-2.982 0,-4.388 -2.091,-0.002 -2.141,2.039 -4.389,1.88 -1.029,-7.765 9.04,-9.731 13.793,-13.792 -0.633,-4.395 1.835,-5.688 3.134,-8.15 -1.34,-1.956 1.2,-4.363 3.77,-4.388 z m -4.39,10.031 c 0.142,-1.979 3.647,-3.833 1.881,-5.642 -0.51,1.812 -4.47,4.638 -1.88,5.642 z m -12.54,13.165 c 2.134,-2.046 4.938,-3.421 6.269,-6.27 -2.78,0.996 -7.27,3.58 -6.27,6.27 z m 3.76,1.255 c 0.743,-1.584 4.102,-3.803 3.135,-5.016 -0.74,1.584 -4.1,3.803 -3.13,5.016 z"
         style="clip-rule:evenodd;fill-rule:evenodd"
         inkscape:connector-curvature="0" />
      <path
         id="path95872"
         d="m 154.85,132.91 c 3.755,-1.003 9.511,0.206 13.165,0 -4.09,2.55 -8.19,1.01 -13.17,0 z"
         style="clip-rule:evenodd;fill-rule:evenodd"
         inkscape:connector-curvature="0" />
      <path
         id="path95874"
         d="m 162.37,135.41 c -1.731,1.402 -4.968,1.3 -8.149,1.254 1.73,-1.4 4.97,-1.29 8.15,-1.25 z"
         style="clip-rule:evenodd;fill-rule:evenodd"
         inkscape:connector-curvature="0" />
      <path
         id="path95876"
         d="m 98.426,154.22 c 2.075,-0.238 -0.691,3.205 -0.627,3.134 -0.646,0.704 -3.062,1.466 -4.388,2.507 -2.818,2.21 -6.728,6.944 -10.658,8.15 4.294,-5.52 11.406,-8.23 15.673,-13.79 z"
         style="clip-rule:evenodd;fill-rule:evenodd"
         inkscape:connector-curvature="0" />
      <path
         id="path95878"
         d="m 131.03,154.85 c 0.059,0.063 8.216,-0.037 8.776,0 2.073,0.138 10.976,0.146 2.507,0.627 -3.07,0.17 -10.2,0.5 -11.29,-0.63 z"
         style="clip-rule:evenodd;fill-rule:evenodd"
         inkscape:connector-curvature="0" />
      <path
         id="path95880"
         d="m 166.76,181.81 c -2.377,2.46 -5.745,0.073 -9.401,1.254 1.65,-1.9 6.02,-1.08 9.4,-1.25 z"
         style="clip-rule:evenodd;fill-rule:evenodd"
         inkscape:connector-curvature="0" />
      <path
         id="path95882"
         d="m 167.39,182.43 c 4.64,-1.079 13.527,-0.996 18.181,0 -4.62,1.06 -11.86,-0.67 -18.18,0 z"
         style="clip-rule:evenodd;fill-rule:evenodd"
         inkscape:connector-curvature="0" />
      <path
         id="path95884"
         d="m 143.56,190.58 c 1.914,-2.606 8.655,-0.983 2.508,-0.627 -1.11,0.07 -1.33,0.66 -2.51,0.63 z"
         style="clip-rule:evenodd;fill-rule:evenodd"
         inkscape:connector-curvature="0" />
      <path
         id="path95886"
         d="m 142.31,189.96 c -2.409,1.938 -10.915,1.958 -16.3,1.879 -0.76,-0.009 -1.295,1.085 -1.253,-0.625 5.79,-0.49 12.04,-0.5 17.55,-1.26 z"
         style="clip-rule:evenodd;fill-rule:evenodd"
         inkscape:connector-curvature="0" />
      <path
         id="path95888"
         d="m 94.664,190.58 c -1.389,2.923 -1.981,3.063 -1.879,6.896 4.072,-0.882 1.628,-3.659 2.506,-5.644 4.024,2.03 0.328,8.441 -4.388,7.524 -1.234,-1.692 -0.373,-5.478 -0.627,-8.149 0.808,-0.87 2.723,-0.62 4.388,-0.63 z"
         style="clip-rule:evenodd;fill-rule:evenodd"
         inkscape:connector-curvature="0" />
      <path
         id="path95890"
         d="m 100.31,211.27 c 0.749,3.99 -4.459,2.36 -5.644,1.254 1.075,-1.22 3.244,-1.34 5.644,-1.25 z"
         style="clip-rule:evenodd;fill-rule:evenodd"
         inkscape:connector-curvature="0" />
      <path
         id="path95892"
         d="m 112.84,218.17 c -0.561,1.538 -4.386,1.698 -5.642,0.627 0.33,-3.95 3.76,-1.72 5.64,-0.63 z"
         style="clip-rule:evenodd;fill-rule:evenodd"
         inkscape:connector-curvature="0" />
      <path
         id="path95894"
         d="m 113.47,218.17 c 3.362,-1.328 6.546,0.417 10.658,-0.627 -2.41,2.66 -7.44,1.42 -10.66,0.63 z"
         style="clip-rule:evenodd;fill-rule:evenodd"
         inkscape:connector-curvature="0" />
      <path
         id="path95896"
         d="m 130.4,219.42 c 1.72,-0.31 5.73,-0.015 8.777,-0.627 -1.36,1.6 -6.7,1.76 -8.78,0.63 z"
         style="clip-rule:evenodd;fill-rule:evenodd"
         inkscape:connector-curvature="0" />
      <path
         id="path95898"
         d="m 82.753,221.3 c 0.009,-0.958 4.646,-1.374 3.761,0.627 -1.546,0.08 -3.019,0.09 -3.761,-0.63 z"
         style="clip-rule:evenodd;fill-rule:evenodd"
         inkscape:connector-curvature="0" />
      <path
         id="path95900"
         d="m 115.35,220.67 6.269,0 0,1.255 c -1.9,-0.59 -6.36,1.35 -6.27,-1.25 z"
         style="clip-rule:evenodd;fill-rule:evenodd"
         inkscape:connector-curvature="0" />
      <path
         id="path95902"
         d="m 213.15,221.3 c 0.557,0.278 1.121,0.551 1.252,1.254 -0.451,9.369 -2.051,17.591 -2.506,26.958 -2.322,0.438 -1.081,-2.682 -2.509,-3.136 0.46,-1.117 1.14,-0.09 1.882,0 0.95,-8.03 0.12,-17.85 1.89,-25.07 z"
         style="clip-rule:evenodd;fill-rule:evenodd"
         inkscape:connector-curvature="0" />
      <path
         id="path95904"
         d="m 55.795,222.56 c 1.763,-0.091 1.809,1.536 1.881,3.133 -1.05,0.834 -2.101,1.662 -4.39,1.255 0.015,-1.476 -1.079,-1.845 -0.625,-3.761 2.238,1.14 2.188,2.64 3.134,-0.62 z"
         style="clip-rule:evenodd;fill-rule:evenodd"
         inkscape:connector-curvature="0" />
      <path
         id="path95906"
         d="m 48.899,224.44 c -0.411,1.681 -1.796,2.385 -2.508,3.763 -0.771,-0.273 -1.288,-0.803 -1.252,-1.882 -2.069,3.684 -5.262,-1.639 -6.898,2.509 -1.613,-1.125 -3.012,-1.564 -3.76,0.627 -1.627,-6.8 9.537,-3.68 14.418,-5.02 z"
         style="clip-rule:evenodd;fill-rule:evenodd"
         inkscape:connector-curvature="0" />
      <path
         id="path95908"
         d="m 25.704,226.94 c -1.035,3.354 -6.584,2.194 -8.777,4.389 -1.359,0.105 -0.284,-2.224 -0.627,-3.135 4.622,-0.18 5.477,-1.35 9.404,-1.26 z"
         style="clip-rule:evenodd;fill-rule:evenodd"
         inkscape:connector-curvature="0" />
      <path
         id="path95910"
         d="m 32.6,226.94 0,2.508 c -1.98,-0.1 -3.784,-0.022 -4.387,1.254 -1.361,0.105 -0.284,-2.224 -0.627,-3.135 2.932,1 2.081,-0.51 5.014,-0.62 z"
         style="clip-rule:evenodd;fill-rule:evenodd"
         inkscape:connector-curvature="0" />
      <path
         id="path95912"
         d="m 203.75,228.2 c 0.504,0.332 1.019,0.654 1.882,0.627 -1.234,5.037 -4.103,8.438 -4.39,14.419 -1.571,-1.849 -2.2,-2.081 -3.134,0.627 0.3,-4.31 5,-9.63 5.64,-15.68 z"
         style="clip-rule:evenodd;fill-rule:evenodd"
         inkscape:connector-curvature="0" />
      <path
         id="path95914"
         d="m 9.404,230.08 5.015,0 c -0.102,0.729 0.138,1.116 0.627,1.254 -0.893,3.26 -4.143,0.18 -5.642,-1.25 z"
         style="clip-rule:evenodd;fill-rule:evenodd"
         inkscape:connector-curvature="0" />
      <path
         id="path95916"
         d="m 73.35,230.7 c 2.174,1.797 -1.365,7.503 -3.763,8.777 0.924,-2.211 1.632,-4.639 1.254,-8.15 1.199,-0.29 2.699,1.94 2.509,-0.63 z"
         style="clip-rule:evenodd;fill-rule:evenodd"
         inkscape:connector-curvature="0" />
      <path
         id="path95918"
         d="m 6.896,231.96 c 0.879,3.26 -6.946,4.345 -5.642,0.627 2.99,1.1 2.783,-0.37 5.642,-0.63 z"
         style="clip-rule:evenodd;fill-rule:evenodd"
         inkscape:connector-curvature="0" />
      <path
         id="path95920"
         d="m 208.14,233.21 c 2.643,1.737 1.385,7.979 0,10.656 -1.61,-2.67 0.88,-6.62 0,-10.66 z"
         style="clip-rule:evenodd;fill-rule:evenodd"
         inkscape:connector-curvature="0" />
      <path
         id="path95922"
         d="m 215.03,233.84 c 1.324,4.467 -1.034,10.66 -1.252,15.673 -1.91,-3.6 0.12,-10.55 1.25,-15.67 z"
         style="clip-rule:evenodd;fill-rule:evenodd"
         inkscape:connector-curvature="0" />
      <path
         id="path95924"
         d="m 207.51,236.97 c -2.296,4.126 -2.684,8.667 -3.761,15.046 -3.925,-3.358 3.698,-12.927 0.627,-15.046 0.45,-2.16 1.88,-0.41 3.13,0 z"
         style="clip-rule:evenodd;fill-rule:evenodd"
         inkscape:connector-curvature="0" />
      <path
         id="path95926"
         d="m 62.691,237.6 c -0.958,2.178 -4.004,4.899 -6.896,3.133 -0.285,-3.72 4.251,-4.21 6.896,-3.13 z"
         style="clip-rule:evenodd;fill-rule:evenodd"
         inkscape:connector-curvature="0" />
      <path
         id="path95928"
         d="m 52.662,239.48 c -0.192,2.318 -2.665,2.352 -3.763,3.761 -1.606,-0.066 -2.989,-0.354 -3.76,-1.255 0.43,-3.78 5.601,0.32 7.523,-2.5 z"
         style="clip-rule:evenodd;fill-rule:evenodd"
         inkscape:connector-curvature="0" />
      <path
         id="path95930"
         d="m 21.314,245.12 c 1.986,0.523 2.662,2.355 5.017,2.508 0.669,6.079 -6.134,7.459 -9.404,4.388 l 0,-3.133 c -1.477,-0.015 -1.846,1.078 -3.762,0.627 0.523,-3.66 8.054,-0.31 8.149,-4.4 z m -1.252,7.53 c 2.119,-0.596 4.745,-0.688 4.387,-3.76 -2.036,0.363 -2.916,-0.429 -4.387,-0.627 -0.894,0.84 -0.894,3.55 0,4.39 z"
         style="clip-rule:evenodd;fill-rule:evenodd"
         inkscape:connector-curvature="0" />
      <path
         id="path95932"
         d="m 190.58,245.75 c 2.215,1.266 -1.258,9.365 -3.134,10.656 1.26,-3.34 2.06,-7.14 3.13,-10.66 z"
         style="clip-rule:evenodd;fill-rule:evenodd"
         inkscape:connector-curvature="0" />
      <path
         id="path95934"
         d="m 216.29,248.26 c 0.505,0.331 1.018,0.652 1.881,0.627 -1.866,2.314 0.172,11.705 -3.136,14.418 -0.65,-6.09 1.13,-9.75 1.26,-15.05 z"
         style="clip-rule:evenodd;fill-rule:evenodd"
         inkscape:connector-curvature="0" />
      <path
         id="path95936"
         d="m 91.53,248.89 c 1.538,1.785 -1.457,4.367 -1.254,6.896 -1.554,-1.81 1.063,-4.77 1.254,-6.9 z"
         style="clip-rule:evenodd;fill-rule:evenodd"
         inkscape:connector-curvature="0" />
      <path
         id="path95938"
         d="m 212.52,253.9 c 1.536,0.664 1.486,5.409 -0.627,6.896 0.21,-2.31 -0.53,-5.55 0.63,-6.9 z"
         style="clip-rule:evenodd;fill-rule:evenodd"
         inkscape:connector-curvature="0" />
      <path
         id="path95940"
         d="m 210.64,260.17 c 0.594,-1.355 1.821,7.838 -0.628,7.524 0.43,-2.29 0.88,-4.55 0.63,-7.52 z"
         style="clip-rule:evenodd;fill-rule:evenodd"
         inkscape:connector-curvature="0" />
      <path
         id="path95942"
         d="m 198.73,260.17 c 2.267,-0.594 0.876,2.47 1.255,3.763 -2.26,0.6 -0.87,-2.47 -1.25,-3.76 z"
         style="clip-rule:evenodd;fill-rule:evenodd"
         inkscape:connector-curvature="0" />
      <path
         id="path95944"
         d="m 25.077,268.95 c 0.846,0.616 1.252,1.673 1.881,2.509 0.137,2.02 -1.11,2.652 -0.627,5.015 -3.379,0.306 -0.039,-2.217 -1.881,-3.136 -0.99,1.31 -1.3,3.298 -1.254,5.644 -3.143,-2.3 0.702,-7.93 1.881,-10.03 z"
         style="clip-rule:evenodd;fill-rule:evenodd"
         inkscape:connector-curvature="0" />
      <path
         id="path95946"
         d="m 106.58,271.46 c 3.04,3.122 -0.94,12.724 -1.881,19.434 -0.863,6.15 -0.406,11.851 -1.254,17.554 1.077,-2.059 1.66,-4.611 1.881,-7.523 1.001,6.859 -2.385,14.749 -1.254,23.823 -2.556,-3.336 -0.42,-7.48 -0.627,-11.283 -0.07,-1.315 -1.055,-2.577 -1.254,-3.763 -1.379,-8.284 1.705,-18.712 3.136,-26.329 -0.142,-1.112 0.632,-3.141 -1.254,-2.508 2.03,-2.19 3.23,-6.2 2.49,-9.4 z"
         style="clip-rule:evenodd;fill-rule:evenodd"
         inkscape:connector-curvature="0" />
      <path
         id="path95948"
         d="m 17.554,276.47 c 3.303,2.848 -0.766,8.724 -3.763,9.404 1.646,-2.74 3.289,-5.49 3.763,-9.4 z"
         style="clip-rule:evenodd;fill-rule:evenodd"
         inkscape:connector-curvature="0" />
      <path
         id="path95950"
         d="m 46.392,277.72 c 3.493,3.036 -2.564,6.924 -3.761,9.404 -0.723,-2.61 4.247,-4.93 3.761,-9.4 z"
         style="clip-rule:evenodd;fill-rule:evenodd"
         inkscape:connector-curvature="0" />
      <path
         id="path95952"
         d="m 134.79,280.86 c 0.61,0.017 0.487,0.767 0.628,1.254 0.61,-0.019 0.486,-0.768 0.627,-1.254 1.414,0.466 0.245,3.515 0.627,5.015 -0.86,-1.45 -1.81,-2.8 -1.89,-5.02 z"
         style="clip-rule:evenodd;fill-rule:evenodd"
         inkscape:connector-curvature="0" />
      <path
         id="path95954"
         d="m 77.737,286.5 c -0.391,9.71 -8.521,25.482 -3.76,36.36 2.552,-2.896 1.071,-11.689 0.627,-15.673 1.929,1.676 2.416,6.528 3.761,6.897 0.468,7.154 -0.744,12.63 -6.269,13.792 0.93,-0.742 0.976,-2.368 1.881,-3.136 -7.217,-10.6 0.927,-27.82 3.76,-38.24 z m -1.252,36.36 c 0.691,-1.089 1.188,-7.982 0,-6.895 0.821,2.74 -1.393,5.67 0,6.9 z"
         style="clip-rule:evenodd;fill-rule:evenodd"
         inkscape:connector-curvature="0" />
      <path
         id="path95956"
         d="m 107.2,286.5 c 1.359,-0.105 0.284,2.222 0.627,3.133 -1.824,2.357 0.032,8.392 -2.508,10.033 0.46,-4.55 1.26,-8.77 1.88,-13.16 z"
         style="clip-rule:evenodd;fill-rule:evenodd"
         inkscape:connector-curvature="0" />
      <path
         id="path95958"
         d="m 175.54,287.13 c 2.609,1.252 0.87,4.572 1.254,6.896 0.561,3.39 2.265,6.293 3.136,8.777 -1.422,-0.67 -2.278,-1.901 -2.509,-3.761 -2.257,2.298 1.754,3.648 1.255,6.267 -4.48,-3.68 -5.53,-11.69 -3.14,-18.19 z"
         style="clip-rule:evenodd;fill-rule:evenodd"
         inkscape:connector-curvature="0" />
      <path
         id="path95960"
         d="m 178.67,293.4 c 1.943,2.235 3.26,5.098 4.387,8.15 -2.78,-1.13 -4.78,-5.89 -4.39,-8.15 z"
         style="clip-rule:evenodd;fill-rule:evenodd"
         inkscape:connector-curvature="0" />
      <path
         id="path95962"
         d="m 55.795,302.8 c 1.868,0.515 0.633,3.994 0,5.642 -1.127,2.939 -4.854,8.022 -6.896,6.897 3.027,-3.45 5.814,-7.14 6.896,-12.54 z"
         style="clip-rule:evenodd;fill-rule:evenodd"
         inkscape:connector-curvature="0" />
      <path
         id="path95964"
         d="m 119.11,307.19 c -0.029,6.464 -1.661,14.494 -1.879,21.316 0.517,1.486 -0.885,2.888 -0.627,0.627 -0.26,-8.43 0.75,-15.56 2.51,-21.95 z"
         style="clip-rule:evenodd;fill-rule:evenodd"
         inkscape:connector-curvature="0" />
      <path
         id="path95966"
         d="m 77.737,308.44 c 5.75,5.5 3.955,17.417 -2.506,20.689 0.511,-3.279 4.834,-5.718 5.015,-10.658 0.13,-3.54 -2.564,-6.13 -2.509,-10.03 z"
         style="clip-rule:evenodd;fill-rule:evenodd"
         inkscape:connector-curvature="0" />
      <path
         id="path95968"
         d="m 124.13,309.07 c 0.485,8.558 -0.85,24.6 1.88,34.48 -4.33,-8.33 -3.44,-23.72 -1.88,-34.48 z"
         style="clip-rule:evenodd;fill-rule:evenodd"
         inkscape:connector-curvature="0" />
      <path
         id="path95970"
         d="m 168.64,327.25 c 2.969,1.638 3.226,9.3 3.135,11.911 -2.35,-2.15 -2.59,-6.94 -3.14,-11.91 z"
         style="clip-rule:evenodd;fill-rule:evenodd"
         inkscape:connector-curvature="0" />
      <path
         id="path95972"
         d="m 88.395,328.5 c 2.116,1.686 1.778,6.252 3.135,9.402 0.782,1.816 2.852,2.919 2.507,5.016 -3.637,-3.05 -5.9,-7.47 -5.642,-14.42 z"
         style="clip-rule:evenodd;fill-rule:evenodd"
         inkscape:connector-curvature="0" />
      <path
         id="path95974"
         d="m 113.47,331.01 c 0.729,-0.104 1.116,0.137 1.255,0.627 0.992,4.858 0.534,11.166 0.627,16.927 0.518,1.485 -0.884,2.887 -0.627,0.626 -0.63,-6.86 -1.95,-11.25 -1.25,-18.19 z"
         style="clip-rule:evenodd;fill-rule:evenodd"
         inkscape:connector-curvature="0" />
      <path
         id="path95976"
         d="m 143.56,346.69 c 1.727,-0.013 1.604,5.025 1.254,5.015 -2.47,0.38 -0.73,-3.44 -1.25,-5.01 z"
         style="clip-rule:evenodd;fill-rule:evenodd"
         inkscape:connector-curvature="0" />
      <path
         id="path95978"
         d="m 182.43,22.568 c 2.26,1.086 2.937,-4.237 3.763,-0.626 -0.476,-3.216 4.288,-4.308 7.522,-5.643 1.849,-5.466 4.252,-10.377 10.031,-11.911 -1.772,5.751 -6.32,8.725 -10.031,12.538 0.762,2.177 1.519,2.38 0,4.389 1.614,0.337 4.672,-3.253 6.896,-4.389 -0.081,-3.217 1.243,-5.025 3.762,-5.643 0.55,7.655 -2.161,12.05 -6.269,15.046 -1.202,-0.07 0.736,-2.099 0,-3.762 -2.611,1.569 -4.326,4.034 -7.524,5.016 0.234,-2.065 1.466,-3.132 2.508,-4.388 -2.263,-1.199 -0.256,-1.798 0,-3.762 -0.154,-0.68 -1.246,-0.425 -1.254,-1.254 -1.678,2.468 -6.326,5.712 -6.896,9.404 -5.771,-0.664 -6.78,6.468 -11.283,5.016 2.482,-2.532 5.229,-4.801 7.522,-7.523 -1.027,-0.572 -5.351,4.227 -7.522,2.507 0.798,-2.126 2.572,-3.277 3.76,-5.016 1.517,-0.91 -2.045,2.61 -1.881,4.389 4.774,-0.658 5.199,-5.668 6.271,-10.03 -0.019,-0.609 -0.769,-0.487 -1.254,-0.627 0.965,-1.751 0.569,-4.862 3.134,-5.016 0.011,2.728 -1.938,3.495 -1.255,6.896 2.644,0.122 5.093,-5.348 9.404,-5.642 -1.37,5.111 -6.62,6.339 -9.41,10.031 z m -0.62,4.389 c 0.618,-1.708 4.41,-3.493 3.134,-5.015 -0.4,1.922 -4.76,3.145 -3.13,5.015 z m 11.91,-2.507 c 2.632,-0.712 3.854,-2.833 5.015,-5.016 -2.27,1.084 -4.63,2.065 -5.02,5.016 z m 6.27,-0.627 c 0.125,-1.33 3.71,-4.497 0.627,-5.016 0.58,2.1 -2.26,3.952 -0.63,5.016 z"
         style="clip-rule:evenodd;fill-rule:evenodd"
         inkscape:connector-curvature="0" />
      <path
         id="path95980"
         d="m 169.27,2.507 c 0.822,0.221 0.986,1.104 1.881,1.254 -1.497,3.728 -4.504,5.945 -8.777,6.896 0.67,-4.345 4.77,-5.26 6.9,-8.15 z"
         style="clip-rule:evenodd;fill-rule:evenodd"
         inkscape:connector-curvature="0" />
      <path
         id="path95982"
         d="m 184.31,6.269 c -1.968,4.516 -7.675,8.618 -7.523,13.166 -2.482,4.205 -7.269,6.105 -10.658,9.404 -4.957,-3.109 -5.134,6.686 -11.91,5.642 -0.92,-2.7 4.566,-4.606 1.254,-5.642 1.187,-1.584 2.196,0.578 3.761,-0.627 0.112,2.201 -2.117,2.062 -2.507,3.761 3.839,-0.561 5.747,-6.359 8.777,-5.643 3.568,-3.535 6.466,-7.743 10.656,-10.657 1.76,-4.094 3.61,-8.095 8.15,-9.404 z m -15.04,17.554 c 1.802,-0.319 4.795,-2.687 3.135,-4.389 -1.01,1.494 -2.25,2.764 -3.13,4.389 z"
         style="clip-rule:evenodd;fill-rule:evenodd"
         inkscape:connector-curvature="0" />
      <path
         id="path95984"
         d="m 171.15,10.657 c 0.354,1.837 -5.052,3.294 -6.269,5.643 4.295,1.359 6.841,-4.437 11.283,-5.016 -1.505,2.466 -4.137,3.804 -5.642,6.269 -0.932,-0.273 0.247,-0.801 0,-1.88 -2.742,-0.235 -3.014,2.001 -3.763,3.761 0.185,1.491 1.697,-0.697 1.882,-1.254 0.603,2.708 -4.842,4.76 -5.642,8.15 -3.016,-0.418 -2.266,-1.34 -5.642,-0.627 2.88,-1.716 6.08,-3.113 7.522,-6.269 -0.546,-0.917 -0.938,-1.987 -2.509,-1.881 0.939,-1.151 2.617,-1.562 3.136,-3.135 -3.653,0.317 -5.903,2.039 -7.522,4.389 0.186,1.135 2.635,-0.633 3.133,-1.254 0.305,2.409 -6.737,2.865 -7.522,6.27 2.844,1.363 5.183,-3.162 7.522,-4.389 0.479,2.375 -5.704,3.479 -5.642,7.523 -3.53,-0.061 -2.74,-0.565 -6.269,-0.627 3.853,-2.083 3.043,-4.942 6.269,-7.523 -2.464,0.253 -2.678,2.756 -5.017,3.135 3.435,1.389 0.03,0.752 -1.879,3.134 -0.655,0.816 -2.298,2.89 -5.017,4.389 -0.079,-1.125 0.768,-1.322 0.627,-2.508 -3.545,-0.41 -3.759,2.51 -6.896,2.508 0.889,-2.422 3.688,-1.965 3.135,-4.389 -3.768,0.043 -8.01,0.625 -8.149,-5.643 4.17,-0.618 5.562,1.543 7.522,3.134 5.49,-8.935 21.81,-7.037 31.36,-11.91 z m -28.84,12.539 c 2.229,-2.578 5.953,-3.66 8.149,-6.269 -3.55,0.853 -8.73,3.372 -8.15,6.269 z m 0.63,1.254 3.135,0 c 2.033,-2.671 8.239,-4.154 7.523,-7.523 -3.88,2.186 -8.44,3.688 -10.66,7.523 z m -5.02,-1.882 c -1.118,-0.195 -2.457,-3.315 -3.763,-1.253 0.46,0.853 2.54,3.234 3.76,1.253 z"
         style="clip-rule:evenodd;fill-rule:evenodd"
         inkscape:connector-curvature="0" />
      <path
         id="path95986"
         d="m 199.36,28.211 c 2.73,0.542 2.956,-5.453 6.897,-5.643 -5.527,8.475 -11.147,16.857 -19.436,22.57 l 0,2.507 c 1.924,0.764 1.874,-0.172 1.254,3.134 2.968,0.335 1.71,-3.55 1.255,-5.015 2.585,-1.592 4.096,-4.262 6.269,-6.27 1.044,0.784 -5.494,4.42 -4.39,9.404 6.09,-4.568 7.888,-13.428 16.3,-15.673 -2.036,5.694 -7.196,8.267 -11.283,11.912 0.102,0.734 1.142,0.528 1.881,0.627 -1.678,1.667 -4.354,2.333 -6.271,3.761 0.102,0.734 1.144,0.529 1.881,0.626 1.513,0.398 -3.616,0.369 -4.387,1.881 -0.701,1.375 -0.467,3.198 -1.255,4.388 -1.642,2.48 -6.178,6.79 -7.522,10.03 -0.257,1.51 1.146,1.363 0.627,3.135 -3.896,1.954 -7.134,4.568 -10.031,7.523 0.766,1.521 2.42,-1.283 3.761,-1.254 -0.722,0.742 -0.708,2.216 -0.625,3.762 -7.809,3.268 -9.27,12.882 -18.809,14.419 0.776,-3.834 5.398,-4.299 7.523,-6.896 1.163,-1.422 0.474,-3.646 2.508,-4.389 -3.016,0.501 -5.633,4.162 -9.404,1.881 0.62,-7.948 8.487,-8.648 11.911,-13.792 -0.985,-5.411 3.327,-10.215 6.896,-14.419 0.683,0.155 0.426,1.247 1.254,1.254 -1.708,-2.915 0.378,-4.784 1.254,-6.897 -9.154,1.295 -10.044,16.284 -17.554,21.315 -1.146,-4.579 1.986,-7.268 3.136,-11.284 1.558,0.094 0.183,2.123 0,2.507 3.888,-1.69 -3.403,-6.757 1.254,-7.523 -0.363,-1.309 -2.368,0.904 -3.763,0.627 3.352,2.527 -3.145,3.772 -3.133,6.896 0.893,1.254 1.468,-3.086 3.76,-2.507 -1.756,3.887 -5.202,6.082 -6.269,10.657 -4.458,0.766 -5.899,4.549 -6.896,8.777 -1.772,-0.518 -1.625,0.883 -3.136,0.627 -0.301,-1.972 0.893,-2.451 1.254,-3.761 -1.121,-0.131 -5.048,3.753 -6.896,0 -4.109,4.054 -8.51,7.454 -8.149,14.418 -1.756,0.721 -3.259,0.721 -5.017,0 -0.363,-2.035 0.428,-2.916 0.627,-4.388 -1.553,-1.308 -2.027,3.796 -5.015,3.134 -0.052,-0.992 0.303,-2.39 -0.627,-2.507 3.633,-3.68 9.393,-5.236 11.285,-10.657 0.911,-0.343 3.24,0.732 3.134,-0.627 1.115,0.459 0.09,1.14 0,1.881 2.041,-0.258 1.617,-2.982 2.508,-4.388 -2.643,-0.39 -3.17,3.411 -5.015,1.88 0.361,-1.519 2.366,-1.394 3.761,-1.88 -1.448,-2.009 -2.794,1.334 -5.015,0.626 1.835,-1.717 5.131,-1.974 7.522,-3.134 -4.789,-1.854 -9.513,1.765 -12.539,3.761 1.584,4.105 -3.62,6.137 -3.134,9.404 -1.013,0.177 -1.081,-0.593 -1.881,-0.627 1.184,1.642 -1.979,3.126 -4.388,3.134 -0.762,-3.478 1.625,-3.809 2.507,-5.642 -3.394,-1.902 -4.645,3.123 -7.523,3.762 -1.603,0.028 -0.764,-0.467 -0.627,-1.254 -1.94,0.148 -2.435,1.745 -3.761,2.508 -1.278,-0.185 -1.23,-1.696 -2.508,-1.881 0.695,-1.894 3.012,-4.525 5.015,-3.135 1.808,-2.164 2.639,-5.302 6.271,-5.643 -0.94,1.359 -3.138,1.461 -3.136,3.762 1.28,0.121 2.606,0.56 0.627,2.507 2.914,-1.997 2.352,-5.102 7.523,-5.642 -0.008,1.246 -1.71,0.796 -1.254,2.507 2.041,-0.163 3.288,-2.324 4.389,0 1.037,-1.026 -0.561,-2.622 -2.508,-2.507 0.188,-1.693 2.638,-1.125 3.136,-2.507 -0.578,-1.709 -1.961,0.875 -3.763,0 -2.389,-1.083 2.441,0.048 1.881,-1.254 -0.523,-1.083 -3.853,0.279 -5.017,0.627 0.019,0.609 0.77,0.486 1.255,0.627 -0.012,1.821 -3.543,1.482 -4.388,0.626 -5.878,2.691 -10.974,6.163 -13.794,11.912 -5.361,1.325 -7.724,5.649 -13.165,6.896 -0.769,1.739 -2.082,2.933 -3.133,4.389 -2.176,-0.503 -2.411,0.933 -4.39,0.626 -0.293,-1.964 1.577,-1.767 2.508,-2.507 0.505,-8.898 6.747,-12.061 13.792,-14.419 -1.855,2.323 -5.614,2.746 -6.896,5.642 1.774,-0.745 6.951,-3.489 8.15,-6.896 l 4.388,0 c -0.562,1.108 -1.512,1.831 -1.879,3.134 2.254,-0.671 4.008,-1.842 5.015,-3.761 -0.273,-0.931 -0.802,0.247 -1.881,0 0.173,-1.29 2.335,-0.59 2.508,-1.88 -3.419,-1.83 -7.829,3.706 -11.285,1.88 2.508,-4.597 12.089,-2.122 16.3,-5.016 -3.613,-2.435 -6.958,0.623 -10.031,-0.626 3.873,-4.487 13.016,-3.704 20.689,-4.389 -0.81,-1.28 -3.039,-1.141 -2.508,-3.761 7.498,-0.197 16.336,1.177 23.822,-2.508 4.745,1.203 6.81,-0.75 9.404,-3.134 -6.612,-1.708 -15.465,0.623 -21.314,0 0.693,-2.425 -2.217,-2.23 -0.627,-3.762 4.683,1.58 8.812,0.575 12.537,0 -0.604,-1.276 -2.407,-1.354 -4.388,-1.254 -0.417,-6.023 -8.222,-2.224 -11.285,-3.134 -0.155,-1.727 2.25,-1.481 3.136,-1.881 2.807,-1.268 6.584,-3.302 10.658,-4.388 -0.384,-2.125 -4.012,-1.006 -3.763,-3.762 7.256,-2.58 12.236,2.334 17.554,3.762 3.188,-1.653 10.623,-4.312 11.911,0.626 5.75,0.633 11.766,-0.188 15.672,-4.389 0.611,0.018 0.487,0.768 0.628,1.254 3.143,-0.512 4.183,-2.608 6.271,-5.016 3.53,-4.018 10.58,-6.925 9.45,-10.026 z m -3.13,6.269 c -3.19,1.407 -5.22,3.975 -6.896,6.897 3.46,-1.137 4.75,-4.444 6.9,-6.897 z m -23.2,39.497 c 1.525,-1.626 6.31,-3.281 5.643,-5.016 -1.52,1.633 -6.48,3.111 -5.64,5.016 z M 188.7,52.661 c -0.824,-0.639 -2.311,-0.615 -3.135,-1.254 -0.639,2.498 -1.897,4.372 -3.761,5.643 l 0,-3.761 c -3.88,2.395 -2.52,13.356 -6.897,13.165 1.029,-1.093 2.835,-4.647 1.881,-5.642 -1.312,1.614 -1.521,4.329 -3.761,5.016 0.143,-0.974 2.409,-2.926 0.628,-3.762 -0.83,1.908 -4.032,4.717 -2.509,6.896 0.411,-0.842 1.339,-1.167 2.509,-1.254 -0.327,0.987 -2.415,3.358 -0.628,4.389 5.819,-3.584 6.44,-12.367 13.165,-15.046 0.521,-1.637 -1.896,-3.439 0,-4.388 l 0,2.507 c 1.98,0.291 1.78,-1.578 2.52,-2.509 z m -14.42,5.642 c -1.251,1.902 -4.89,4.702 -3.763,6.896 0.67,-2.48 4.64,-4.949 3.76,-6.896 z m 3.14,-5.642 c 2.567,-1.404 4.008,-3.934 5.642,-6.27 -3.27,0.702 -3.72,4.223 -5.64,6.27 z m -6.9,1.254 c 4.17,-2.1 6.688,-5.851 10.031,-8.777 -3.66,2.608 -7.61,4.928 -10.03,8.777 z m -46.39,26.33 c -2.325,-0.611 -4.098,2.534 -3.135,3.134 0.55,-1.533 3.5,-0.678 3.13,-3.134 z m 14.42,-31.973 c 1.905,0.392 5.644,-0.559 3.761,-1.881 -0.36,1.522 -4.06,-0.294 -3.76,1.881 z m 1.88,-5.015 c -0.131,0.899 5.572,1.409 7.523,1.881 -0.45,-3.121 -7.31,-3.324 -7.52,-1.881 z m 20.69,6.269 c 1.199,-0.265 2.698,-0.228 2.509,-1.881 -1.802,0.13 -3.186,-0.159 -3.763,-1.254 1.994,0.877 5.608,0.943 6.896,-0.626 -2.973,-0.96 -7.319,-1.985 -9.401,0.626 0.737,0.099 1.777,-0.108 1.879,0.627 -2.144,0.573 -4.251,1.182 -6.269,1.881 1.396,2.541 10.339,0.757 6.896,4.389 2.246,-0.054 3.622,-0.976 5.644,-1.254 -0.245,0.894 -0.753,1.058 0,1.881 3.499,-0.232 4.228,-0.236 5.642,-3.135 -2.106,-0.793 -3.316,2.456 -4.39,0.627 2.35,-0.995 4.862,-1.827 6.898,-3.134 -4.79,-0.138 -10.43,3.753 -12.55,1.253 z m 21.94,-1.254 c 1.457,-0.423 2.634,-1.129 2.509,-3.134 -0.938,0.107 -2.312,-0.224 -2.509,0.627 0.766,0.071 1.485,0.187 1.255,1.253 -0.71,0.133 -0.98,0.697 -1.26,1.254 z m -35.73,-1.88 c -1.935,0.628 1.359,1.033 1.254,1.881 -1.75,1.594 -7.237,-0.549 -8.15,1.88 0.74,0.304 1.421,0.668 1.88,1.254 2.877,-1.673 9.695,0.737 10.658,-1.254 -1.603,-1.039 -4.626,-1.429 -3.761,-3.134 0.297,-0.587 3.562,0.901 1.879,-0.627 -2.17,0.509 -2.65,-1.171 -3.76,0 z m 36.36,7.523 c 0.516,-1.605 2.963,-4.519 1.254,-6.27 0.09,2.413 -4.13,4.969 -1.25,6.27 z m -31.35,2.507 c 1.735,-0.563 5.885,1.289 5.644,-1.254 -1.5,-0.382 -4.55,0.788 -5.017,-0.627 0.765,-0.071 1.484,-0.187 1.254,-1.253 -1.312,-0.361 -1.789,-1.555 -3.763,-1.254 -0.033,0.801 -0.802,0.868 -0.625,1.881 2.21,0.752 2.22,0.765 2.52,2.507 z m -3.13,-5.015 c -3.167,1.946 -6.854,-0.522 -8.777,2.508 1.498,0.382 4.549,-0.788 5.015,0.626 -0.486,0.142 -1.237,0.018 -1.254,0.627 2.136,0.192 5.096,2.809 6.896,1.254 -1.103,-0.151 -1.427,-1.079 -1.252,-2.507 -0.938,-0.107 -2.314,0.223 -2.508,-0.627 0.41,-0.507 4.08,-0.81 1.88,-1.881 z m 3.76,13.165 c 0.972,-1.118 1.725,-2.456 2.508,-3.761 0.738,-0.099 1.78,0.108 1.882,-0.627 -0.849,-0.198 -1.199,-0.893 -2.509,-0.627 -0.19,1.731 -4.03,3.034 -1.88,5.015 z m -23.83,1.881 c 1.42,3.823 8.969,2.745 10.031,-0.626 -3.09,0.23 -6.92,2.427 -10.03,0.626 z m 1.26,2.508 c -2.504,-0.441 -6.058,-3.112 -8.776,-1.254 2.4,0.546 5.82,3.352 8.78,1.254 z m 16.93,-1.254 c -1.909,0.114 -7.723,-2.065 -8.15,2.508 2.728,1.215 3.469,-2.733 4.388,-1.254 -0.625,0.837 -1.693,1.231 -1.879,2.507 2.751,-0.133 0.067,2.236 0,3.134 3.251,0.955 1.731,-2.864 3.76,-3.134 0.194,1.907 -2.353,4.277 -1.254,5.016 1.583,-1.985 5.527,-4.904 3.763,-8.15 -0.629,0.835 -1.035,1.892 -1.882,2.507 -0.1,-1.559 0.98,-1.94 1.25,-3.134 z m -36.37,5.015 c 1.905,-0.394 5.4,0.802 6.271,-0.627 -1.9,-0.036 -5.57,-1.894 -6.27,0.627 z m 51.41,7.523 c 2.644,-1.747 4.765,-4.014 6.896,-6.269 -2.74,1.242 -7.26,4.007 -6.9,6.269 z m -0.63,2.507 c 3.397,-0.991 6.691,-2.086 8.777,-4.388 -5.29,-0.902 -6.86,1.917 -8.78,4.388 z m -33.22,7.523 c 2.084,0.772 1.534,-4.237 0.627,-4.388 0.3,1.979 -1.13,2.214 -0.63,4.388 z m -33.229,-1.88 c 0.568,-1.104 2.309,-1.036 2.508,-2.507 -1.844,-0.533 -4.074,1.696 -2.508,2.507 z"
         style="clip-rule:evenodd;fill-rule:evenodd"
         inkscape:connector-curvature="0" />
      <path
         id="path95988"
         d="m 198.11,53.915 c -0.688,2.249 -4.857,6.42 -8.149,8.15 -0.965,-2.639 0.584,-4.03 -2.509,-3.762 0.496,-2.012 2.276,-2.739 3.134,-4.388 1.565,0.434 -1.162,1.672 -0.625,3.134 1.582,-1.113 7.483,-3.958 5.015,-5.015 0.343,-2.202 3.635,-1.006 5.015,-0.627 -3.309,2.543 -7.106,4.595 -9.404,8.15 2.26,0.385 5.32,-3.849 7.51,-5.642 z"
         style="clip-rule:evenodd;fill-rule:evenodd"
         inkscape:connector-curvature="0" />
      <path
         id="path95990"
         d="m 209.39,41.377 c -1.982,2.613 -4.758,4.435 -8.149,5.642 0.061,-1.611 2.447,-0.896 2.508,-2.507 -1.086,-2.035 -1.643,1.628 -3.762,0.627 2.89,-1.497 4.99,-3.783 9.4,-3.762 z"
         style="clip-rule:evenodd;fill-rule:evenodd"
         inkscape:connector-curvature="0" />
      <path
         id="path95992"
         d="m 199.99,47.019 c 1.329,1.169 -2.876,2.104 -3.761,3.134 -1.92,-1.752 3.49,-1.486 3.76,-3.134 z"
         style="clip-rule:evenodd;fill-rule:evenodd"
         inkscape:connector-curvature="0" />
      <path
         id="path95994"
         d="m 195.6,91.529 c -0.904,-3.261 2.447,-6.406 3.761,-9.404 -2.085,0.229 -6.621,3.399 -6.896,7.524 -2.722,0.214 -3.288,-1.727 -3.761,-3.762 2.887,-1.92 5.282,-4.331 8.15,-6.27 -1.627,-14.125 9.78,-20.188 19.434,-25.077 -0.895,7.464 -6.686,10.032 -10.029,15.047 1.892,0.618 4.776,-3.148 8.147,-3.135 -1.925,2.881 -4.968,4.643 -6.896,7.524 0.604,1.551 2.409,-0.864 4.39,0 -2.872,3.606 -4.222,8.733 -6.269,13.165 2.24,-1.312 4.197,-2.908 5.642,-5.016 2.281,5.221 -6.577,8.038 -3.763,13.792 -0.907,2.017 -2.337,3.513 -3.134,5.643 1.195,1.564 2.723,-0.781 4.388,0.627 -2.574,4.112 -9.033,4.34 -10.031,10.03 -2.386,0.507 -1.923,-1.838 -3.76,-1.88 -1.919,-0.456 -1.845,1.081 -3.763,0.626 2.211,5.416 -2.729,10.143 -6.896,9.404 0.625,-2.929 2.169,-4.937 3.762,-6.896 -1.608,-1.97 -3.329,1.228 -3.762,2.508 -1.317,-2.374 -3.366,-3.571 -1.255,-6.269 -4.09,0.887 -12.041,2.084 -10.656,-4.388 2.66,0.475 4.929,1.341 6.896,2.507 2.877,-0.466 5.191,-1.496 7.522,-2.507 -0.12,-4.867 4.46,-5.372 6.896,-7.523 0.657,-0.58 2.613,-1.712 3.136,-2.508 0.26,-0.396 -0.299,-1.902 0,-2.507 0.511,-1.039 2.329,-1.325 3.134,-2.508 0.735,-1.083 1.075,-3.105 1.881,-4.388 0.885,-1.41 2.235,-2.115 2.508,-3.762 -3.88,-0.309 -5.7,6.838 -8.78,9.405 z m 5.01,-8.777 c 3.159,-1.23 4.353,-4.424 6.896,-6.269 -3.32,1.074 -4.55,4.228 -6.9,6.269 z m -10.03,25.708 c -0.61,2.525 3.747,2.525 3.135,0 -1.93,-0.44 -1.21,-0.44 -3.14,0 z m 6.27,0 c -2.846,-0.465 -2.82,-2.833 -3.136,-4.389 -1.557,1.28 -0.872,2.562 0,4.389 1.12,-0.38 2.61,1.83 3.14,0 z m -13.79,0.62 c 2.729,0.429 3.472,-1.128 4.39,-2.508 -2.32,-0.01 -4.32,0.29 -4.39,2.51 z m 1.88,1.88 c 2.545,0.038 3.738,-1.277 4.39,-3.135 -2.55,-0.03 -3.74,1.29 -4.39,3.14 z m 13.79,-15.669 3.136,0 c 0.944,-5.156 1.844,-8.138 4.39,-12.539 -3.02,1.998 -4.844,5.189 -6.271,8.777 1.167,0.6 2.095,-1.877 2.508,0 -1.79,0.727 -3.73,1.294 -3.77,3.762 z m 1.88,-24.45 c 1.472,3.79 -3.405,5.699 -0.627,6.896 3.109,-5.881 8.002,-13.31 9.403,-18.808 -3.09,3.798 -5.42,8.367 -8.77,11.912 z m -5.64,11.911 c 2.728,-1.878 9,-3.524 8.149,-6.896 -2.89,2.122 -6.04,3.989 -8.15,6.896 z m 8.15,-8.149 c 2.274,-0.65 3.892,-1.958 5.015,-3.761 -2.18,0.744 -4.49,1.366 -5.02,3.761 z m 1.26,18.808 c 1.008,-1.312 4.666,-5.886 3.134,-5.643 -0.67,1.857 -4.78,3.549 -3.13,5.643 z m -11.29,5.641 c 0.107,0.939 -0.223,2.314 0.627,2.508 1.492,-1.225 3.854,-1.581 5.643,-2.508 l 0,-2.507 c -3.43,0.471 -2.93,3.227 -6.27,2.507 z m 5.02,6.268 c 2.115,-1.228 3.759,-2.928 4.388,-5.643 -5.06,-0.608 -3.96,2.793 -4.39,5.643 z m -9.41,1.26 c 2.839,0.122 3.194,-2.239 4.388,-3.761 -2.59,-0.01 -5.54,1.99 -4.39,3.76 z m -1.88,12.53 c 2.165,0.25 3.63,-3.428 2.509,-4.389 -0.48,1.82 -2.97,1.63 -2.51,4.39 z"
         style="clip-rule:evenodd;fill-rule:evenodd"
         inkscape:connector-curvature="0" />
      <path
         id="path95996"
         d="m 189.33,98.425 c -1.637,4.084 -6.847,7.679 -10.658,7.524 1.83,-4.37 5.81,-8.026 10.66,-7.525 z m -6.9,3.765 c 1.616,1.541 3.014,-0.671 3.763,-1.881 -1.23,-1.16 -3.13,0.55 -3.76,1.88 z"
         style="clip-rule:evenodd;fill-rule:evenodd"
         inkscape:connector-curvature="0" />
      <path
         id="path95998"
         d="m 68.962,240.73 c 0.402,1.059 -1.335,5.334 -1.881,7.525 6.494,-6.108 7.894,-17.914 10.656,-27.586 0.806,-2.815 2.763,-5.444 1.881,-8.149 -2.003,4.893 -3.187,10.604 -5.015,15.673 -0.564,-3.198 -2.919,-4.604 -6.896,-4.388 -0.848,3.773 2.062,3.79 3.134,5.642 -4.181,0.421 -5.369,-2.152 -5.642,-5.642 -1.123,1.184 -3.141,2.075 -2.508,-1.254 -2.654,-0.564 -0.637,3.541 -3.134,3.133 -1.127,-1.804 1.787,-5.529 4.388,-3.76 3.943,-7.885 0.845,-16.476 1.881,-25.077 -3.241,-0.089 -7.838,1.752 -10.658,0 -0.584,0.459 -0.95,1.14 -1.254,1.881 -4.692,-2.032 -15.045,-1.431 -20.688,0 -0.498,0.126 -2.038,1.212 -2.508,1.255 -9.544,0.854 -19.659,-4.06 -30.719,-1.255 l 0,-6.271 c 3.726,0.31 3.126,-3.122 6.896,-1.252 1.636,-0.664 1.311,-3.287 3.135,-3.763 1.698,3.775 7.497,1.007 10.031,0 0.363,-2.034 -0.428,-2.916 -0.627,-4.388 1.771,0.517 1.623,-0.884 3.134,-0.627 0.186,-2.113 0.315,-4.282 1.254,-5.643 2.896,-0.806 1.725,2.455 3.135,3.135 -0.893,1.978 -3.05,3.502 -0.627,5.644 1.359,0.104 0.284,-2.225 0.627,-3.136 2.005,0.085 4.797,-0.618 4.388,1.882 2.25,0.368 0.017,-3.745 2.508,-3.136 2.98,0.921 1.783,4.378 2.508,6.269 3.43,-0.127 1.005,-2.846 0.625,-4.388 2.569,-0.061 4.93,0.086 5.017,2.509 3.043,0.116 2.191,-3.661 5.015,-3.763 1.75,1.682 0.273,3.333 1.254,5.017 3.316,0.598 2.798,-2.638 3.763,-4.39 2.997,-0.072 4.147,1.704 5.015,3.763 1.674,0.002 1.363,-1.982 3.135,-1.881 2.838,0.295 3.784,2.482 4.387,5.015 1.437,-0.861 1.472,-3.127 3.135,-3.761 -3.172,-3.935 -6.289,-7.922 -12.539,-8.778 3.078,-4.445 9.319,-5.728 12.539,-10.03 3.834,-1.003 8.056,-4.964 11.284,-7.522 7.521,-5.963 14.786,-12.609 21.316,-18.808 4.47,-1.307 8.137,-3.191 14.419,-4.389 8.822,-1.681 20.792,-7.741 28.21,-10.657 0.706,-0.277 1.829,0.331 2.508,0 4.547,-2.218 7.68,-7.062 13.165,-2.508 2.362,-0.271 2.655,-2.607 5.017,-1.253 1.3,3.296 2.192,7.001 4.388,9.403 -3.231,-2.791 -8.158,-3.688 -13.165,-1.88 0.093,1.371 1.579,1.347 3.136,1.254 -1.31,0.884 -12.733,-0.87 -13.794,1.88 1.691,1.445 6.048,0.223 8.777,0.627 -1.544,2.008 -6.702,0.403 -8.777,1.881 -0.594,2.265 2.47,0.875 3.763,1.253 l 5.015,0 c -3.41,1.815 -11.337,-0.888 -13.165,2.508 2.459,2.972 6.235,0.252 9.404,0 5.804,-0.464 12.265,0.531 18.18,0 0.407,-2.497 -3.698,-0.481 -3.134,-3.135 4.11,0.559 5.913,-1.192 7.522,-3.134 0.396,-2.486 -2.385,-1.795 -1.881,-4.389 3.458,0.86 4.637,0.275 7.522,-0.627 -0.221,0.823 -1.103,0.986 -1.254,1.881 2.729,-0.614 5.575,-1.112 6.269,-3.761 0.109,-2.332 -5.057,-1.274 -1.879,-3.134 -1.808,-2.121 -3.609,0.566 -3.136,1.253 -4.766,0.188 -4.4,-6.944 -0.627,-7.522 1.66,1.381 1.004,2.692 0.627,5.015 l 3.763,0 c 1.752,-0.806 -1.976,-1.296 -1.254,-3.134 3.358,1.384 3.155,5.425 8.149,3.762 -0.278,0.558 -0.551,1.121 -1.254,1.253 1.086,2.034 1.644,-1.628 3.761,-0.626 0.813,1.133 -0.562,3.166 0.627,5.015 -1.357,1.358 -3.418,2.016 -5.015,3.135 0.102,0.734 1.144,0.528 1.881,0.626 -1.189,2.365 -3.631,3.475 -6.269,4.389 -1.767,-1.16 -3.207,-2.644 -5.644,-3.134 -1.791,0.326 1.013,0.928 1.254,1.254 -1.825,2.113 -4.135,4.301 -7.522,3.134 -0.12,2.665 3.929,0.713 5.015,0.627 8.365,10.861 14.544,23.908 25.704,31.973 -3.242,3.418 -9.873,1.087 -15.673,1.88 -4.265,0.584 -8.58,3.238 -14.419,3.135 3.615,1.844 6.811,-1.066 10.031,0.627 -4.884,1.385 -20.54,0.604 -28.839,2.507 11.138,0.847 17.522,0.517 27.585,0.627 8.699,0.095 12.828,-4.021 18.181,0 0.932,-4.367 -2.265,-1.341 -2.508,-3.762 l 4.388,0 c 2.25,-0.05 0.499,-4.099 1.881,-5.015 5.675,3.56 -3.639,5.665 -2.509,10.657 -1.186,-1.243 -2.96,-0.305 -4.388,0 0.257,1.51 -1.145,1.363 -0.627,3.135 1.747,0.098 1.234,-1.693 3.136,-1.881 0.461,-0.045 1.52,1.137 2.507,0.627 2.266,-1.17 1.79,-3.022 4.389,-4.388 0.212,1.944 -1.451,2.995 0,4.388 4.024,-3.174 5.227,0.16 10.031,0 0.673,3.39 -1.7,3.733 -1.254,6.896 1.451,0.88 4.878,-3.376 5.642,1.255 -4.008,-0.664 -2.346,-0.825 -1.881,2.506 -6.719,-0.312 -13.519,-2.01 -20.688,0.627 0.003,3.56 -2.229,5.098 0.627,6.898 -3.387,3.481 0.667,9.664 -3.763,11.91 -3.024,-1.933 -6.507,-0.251 -10.031,0.627 0.775,0.9 2.156,1.188 3.763,1.254 -4.441,2.394 -13.993,-2.001 -13.792,3.763 0.545,1.852 0.939,-1.455 2.507,-0.627 -0.487,0.557 -0.673,1.414 -0.625,2.508 2.187,-2.134 6.667,2.059 8.147,-2.508 1.982,2.172 4.288,2.172 6.271,0 -2.351,9.8 -8.985,19.007 -6.896,29.464 2.096,-0.619 0.525,-4.905 1.88,-6.269 1.038,-0.125 0.682,4.687 1.254,1.252 1.846,3.333 -2.507,9.174 -0.627,12.54 2.329,0.131 1.049,-2.577 1.254,-3.761 0.579,-3.358 1.594,-6.403 1.254,-11.285 1.368,0.112 1.994,-0.515 1.881,-1.882 0.496,6.562 -2.342,15.21 -3.135,22.569 1.287,2.235 0.531,-2.739 2.508,-1.882 -0.961,2.804 -1.383,6.142 -2.508,8.779 3.388,-7.271 8.687,-12.63 8.776,-23.197 0.535,-1.137 1.614,-1.729 1.882,-3.134 -0.068,6.272 -2.493,11.44 -1.254,21.314 -1.367,1.727 0.112,-4.666 -1.255,-5.017 -3.716,1.778 -4.679,6.654 -6.269,10.66 -1.54,3.877 -2.287,8.556 -5.017,11.283 0.655,-7.329 3.057,-16.111 1.882,-23.195 -3.475,2.237 -2.04,7.979 -2.507,12.539 -0.264,2.575 -1.169,5.019 -1.254,7.521 -0.11,3.226 2.289,7.296 -0.627,9.403 -3.088,-0.795 -1.625,-4.984 -1.882,-7.522 -0.418,-4.153 -0.993,-9.11 -0.627,-13.164 -0.221,-0.72 -1.103,-1.59 -1.254,-0.628 -0.225,-2.543 1.529,-6.565 1.254,-10.03 0.585,0.355 0.95,1.742 1.255,0.627 -0.382,5.015 -1.002,14.907 0.627,21.314 0.592,-11.108 3.095,-25.152 0,-34.481 1.221,-3.375 2.449,-6.742 1.881,-11.91 1.359,-0.105 0.284,2.225 0.627,3.136 2.281,-3.152 3.696,-7.171 4.388,-11.913 l -2.508,0 c -1.303,0.161 -0.17,2.754 -1.255,3.136 -1.3,-0.16 -0.169,-2.754 -1.252,-3.136 -0.803,0.871 -2.96,0.384 -3.763,1.255 1.602,5.516 -2.038,8.961 -0.627,14.418 2.063,-1.071 0.085,-6.184 3.136,-6.269 -1.502,6.231 -3.441,12.024 -4.39,18.809 2.98,0.053 1.804,-4.051 3.136,-5.644 0.511,4.907 -3.281,10.925 -3.136,17.554 -3.514,1.263 -1.064,3.331 -2.507,5.017 0.815,-0.956 -2.996,-2.841 -2.508,1.254 -2.088,-0.199 1.887,-2.973 -1.254,-2.508 1.476,5.765 -5.61,12.404 -5.015,18.808 2.388,-0.236 0.062,-3.273 1.879,-5.017 -0.118,9.646 -5.733,18.842 -8.147,28.838 -0.826,3.417 -0.412,6.786 -1.882,10.03 -1.92,-2.369 1.155,-5.09 0.627,-8.149 -1.557,3.043 -2.537,6.658 -3.135,10.658 -2.007,-4.558 1.789,-10.072 1.881,-15.046 0.033,-1.8 -0.079,-5.137 -1.881,-6.269 -0.002,-1.92 2.514,-4.545 0.627,-6.271 1.258,-0.861 2.773,-4.707 1.254,-6.269 -2.267,-0.595 -0.874,2.469 -1.254,3.76 -0.924,0.27 -0.801,-5.864 -1.254,-8.147 -1.907,-2.899 -3.818,-5.795 -3.761,-10.658 -0.223,-0.878 -1.104,-0.054 -1.254,0.627 -0.395,-0.234 -0.396,-5.376 1.881,-5.015 -0.179,4.356 1.557,6.802 1.88,10.656 2.334,-10.453 -1.819,-17.171 -1.255,-26.956 1.284,-1.845 -0.027,4.157 1.255,4.388 4.699,-8.479 2.649,-15.981 6.271,-25.077 -4.207,6.034 -5.436,15.046 -9.404,21.316 0.32,3.441 -0.058,4.972 0.627,8.775 -1.103,-0.9 -1.43,-0.576 -1.254,1.254 -0.853,-0.193 -0.521,-1.569 -0.627,-2.509 -1.521,10.822 -1.404,22.726 1.254,33.854 -1.152,-1.608 -1.564,-0.378 -3.136,-1.882 -0.385,10.539 -2.552,17.806 0,26.958 -2.423,-5.518 -4.015,-11.866 -3.76,-20.06 3.159,2.932 0.901,-3.208 0,-5.017 -1.768,0.634 0.171,2.663 0,3.762 -4.433,-5.665 -2.365,-14.831 -2.509,-21.943 2.737,0.458 1.021,3.555 1.254,5.644 0.5,4.517 1.467,9.628 2.507,13.165 2.918,-9.332 3.153,-21.941 1.254,-31.346 -1.413,0.469 -0.245,3.517 -0.627,5.017 -4.23,-5.102 0.008,-17.842 -5.015,-20.689 -4.886,10.075 4.411,17.392 3.761,30.092 -3.01,-3.049 -1.413,-10.706 -4.388,-13.792 -1.461,3.556 0.017,10.048 -1.254,13.792 -1.552,-0.539 0.185,-4.364 -1.254,-5.015 -2.793,0.518 -0.111,5.542 -1.255,6.269 -2.902,-2.099 -0.468,-7.871 -0.625,-11.91 -1.418,2.134 -2.949,4.156 -2.508,8.147 -0.904,-0.7 -1.531,-0.675 -1.882,0.627 -0.235,-2.238 0.891,-6.848 -0.627,-10.656 -1.077,4.364 -1.429,9.72 0.627,12.538 2.793,-1.531 2.254,1.401 3.136,0.627 0.256,2.34 1.528,6.606 1.254,11.285 -0.042,3.078 -1.435,-1.418 -2.508,0.627 -1.868,0.013 -0.805,2.956 -1.882,3.761 -0.104,1.36 2.225,0.284 3.136,0.627 -0.376,3.301 0.465,5.387 0.627,8.149 2.082,-1.143 -0.1,-4.701 0.627,-8.149 -0.274,0.013 0.168,-4.312 0.625,-1.882 0.209,1.107 -0.062,4.482 0,5.017 0.766,6.411 3.012,14.834 5.017,18.809 -1.525,-1.612 -2.13,-4.139 -3.135,-6.271 -2.002,0.756 0.237,2.646 0.627,4.39 0.81,3.625 2.484,10.696 0.627,8.149 -0.354,-4.033 -2.062,-6.715 -2.509,-10.658 -1.571,3.261 0.921,7.844 0.628,11.91 -2.482,-8.585 -4.842,-18.135 -3.761,-27.583 -2.385,-0.922 -0.124,2.804 -2.509,1.882 -0.345,13.108 2.038,27.741 6.27,38.241 -2.889,0.588 -1.203,-3.396 -2.507,-4.388 -3.381,-1.009 -2.941,-5.836 -4.39,-8.777 -1.91,3.186 0.485,7.44 0,11.285 -2.916,-9.221 -2.821,-23.305 -0.627,-32.6 0.191,-1.654 -1.308,-1.619 -2.506,-1.881 1.125,-4.18 1.108,-12.302 -0.628,-15.673 -2.146,1.767 -3.271,5.525 -1.254,6.894 -1.173,3.844 -2.163,7.868 -1.881,13.167 1.103,-0.151 1.429,-1.079 1.254,-2.507 2.119,19.21 -7.453,37.369 1.254,52.66 -3.483,0.068 -3.213,-4.859 -3.762,-7.522 -1.087,-5.261 -2.264,-10.737 -1.882,-18.182 1.604,-0.027 0.766,0.465 0.627,1.255 2.457,-1.953 0.946,-5.228 1.255,-8.15 0.571,-5.402 2.765,-11.527 1.254,-16.3 -2.25,-0.369 -0.017,3.744 -2.509,3.134 0.284,-2.997 0.284,-2.646 0,-5.643 -3.727,8.394 -5.341,18.898 -7.522,28.84 -0.411,3.977 0.826,9.602 -0.627,12.537 -0.174,-9.996 0.072,-19.571 0.627,-28.837 -1.806,7.388 -3.089,15.298 -3.761,23.82 -1.676,-4.027 0.378,-6.709 0,-10.656 -1.781,-0.11 0.758,4.102 -1.881,3.136 -0.197,-13.637 5.186,-29.011 8.777,-42.631 -2.798,2.844 -3.804,7.482 -5.015,11.912 -1.12,-7.399 1.844,-13.521 3.133,-21.316 0.681,0.155 0.427,1.247 1.254,1.254 1.386,-0.077 0.266,-2.659 0.628,-3.762 -0.611,0.019 -0.487,0.767 -0.628,1.254 -1.979,-1.693 0.334,-1.682 0.628,-3.136 0.98,-4.861 1.049,-15.416 3.133,-18.806 0.174,-0.28 1.619,0.223 1.882,0 -0.709,-0.755 -1.789,-1.137 -1.255,-3.134 2.313,-6.675 2.114,-15.86 3.763,-23.197 0.347,5.023 -0.125,10.762 -0.627,16.927 1.727,-3.087 3.57,-9.375 1.881,-13.792 3.873,-3.327 0.535,-10.536 3.134,-14.418 -4.491,-2.017 -10.476,1.31 -15.046,-0.627 5.737,-3.128 18.778,0.287 25.704,-3.136 -3.781,-1.266 -11.138,-0.882 -16.927,0 6.654,-4.928 23.214,1.299 26.958,-2.508 0.521,-3.154 -3.964,-1.299 -1.882,-4.388 l -5.015,0 c -0.644,2.105 1.95,0.976 3.134,1.254 -7.215,2.63 -23.312,0.05 -31.346,3.761 1.561,0.562 5.45,2.032 6.896,0.627 1.313,2.043 -3.959,1.442 -6.269,1.254 -2.672,-0.218 -5.559,-1.017 -6.269,-1.881 2.641,-5.408 -2.888,-8.617 1.881,-12.538 -0.076,-1.806 -2.674,-1.088 -2.508,-3.135 1.134,-7.447 12.327,-1.229 16.927,-3.763 1.603,-0.025 0.764,0.469 0.627,1.254 8.567,0.419 15.723,-0.575 23.823,-0.627 l 3.76,0 c -10.21,2.08 -19.357,1.389 -30.091,1.881 2.2,-3.411 -2.331,1.907 -5.642,0.628 4.965,-0.926 -0.865,-2.455 -1.882,0 -0.974,2.228 2.131,0.38 1.882,1.881 15.516,-2.302 30.947,-1.258 46.391,-3.763 -1.073,-1.435 -4.785,-0.229 -6.896,-0.627 4.047,-1.848 10.102,-0.457 16.3,-1.252 -5.549,-2.271 -14.448,-1.318 -20.689,-1.254 1.173,-2.368 4.777,-1.208 6.898,-1.255 5.979,-0.127 11.397,0.205 16.927,0 4.737,-0.175 9.579,-0.679 13.164,1.255 -4.679,2.377 -16.962,0.739 -22.568,2.506 6.542,1.944 15.297,-0.304 25.077,0.627 0.313,-1.553 0.256,-3.956 1.879,-5.642 -22.458,-2.233 -42.502,-0.085 -65.826,1.254 -2.204,0.128 -4.517,-0.312 -6.896,0 -5.179,0.681 -8.828,3.609 -12.537,-1.254 -0.269,-2.775 1.046,-3.969 3.135,-4.388 2.324,-0.026 2.247,2.35 3.76,3.136 11.2,-1.959 20.419,-1.878 30.092,-1.881 -9.946,2.091 -20.972,0.646 -30.092,2.508 23.443,1.262 55.169,-4.297 78.364,-0.627 1.202,-1.517 0.396,-5.039 0.627,-7.524 -29.789,-0.252 -55.054,3.937 -85.887,2.507 -1.044,-0.836 -0.21,-3.552 -1.254,-4.389 -0.911,-0.343 -3.241,0.733 -3.136,-0.627 -8.646,4.663 -23.64,4.394 -33.852,5.643 -0.107,2.195 2.206,1.974 3.133,3.136 10.169,-1.859 21.589,-1.328 33.227,-3.136 -1.979,2.229 -7.405,2.814 -10.658,3.136 -7.32,0.717 -15.784,0.496 -25.075,0.627 -1.424,0.665 -0.24,3.939 -0.627,5.642 1.176,1.945 5.001,-0.623 5.642,0.625 -0.22,2.08 -3.613,0.985 -5.642,1.254 0.752,10.511 0.863,20.461 -1.254,29.467 1.717,0.907 3.788,-0.452 6.269,0.627 0.988,-2.982 0.765,-7.176 2.508,-9.404 -0.786,-7.141 -1.656,-17.734 0.627,-22.568 3.104,1.057 5.804,-0.93 8.777,0.625 -0.166,2.553 -1.18,4.255 -1.881,6.271 0.666,1.424 3.941,0.24 5.642,0.627 -0.166,3.715 -3.939,0.365 -5.642,1.882 0.203,2.303 -0.535,5.549 0.627,6.896 4.45,-1.33 7.904,-0.022 12.537,-0.627 -2.801,3.012 -8.12,0.673 -13.165,1.252 -3.731,12.864 -2.158,25.062 -2.508,36.989 4.277,-2.619 1.214,-12.578 3.136,-17.554 1.409,-0.952 6.435,-1.33 6.269,1.254 -1.501,-0.38 -2.86,-0.9 -5.015,-0.627 0.708,5.098 -1.123,7.653 -1.254,11.912 0.007,1.474 1.709,-0.23 1.254,-1.254 -0.048,11.283 -4.463,28.813 -4.39,42.004 4.305,-5.087 3.265,-12.198 4.39,-18.809 1.343,-7.9 7.294,-15.691 4.388,-24.449 -2.496,1.735 -1.592,9.044 -1.254,10.03 -2.735,-1.508 -0.841,-8.608 -0.627,-11.285 -0.74,-1.871 -0.542,2.293 -2.506,1.255 0.302,-2.831 3.22,-5.685 5.642,-4.388 l 0,8.774 c 2.724,-5.215 2.702,-13.179 4.388,-19.433 3.417,1.274 0.223,4.355 0,5.642 -2.306,13.271 -7.328,26.867 -9.404,41.377 2.628,-3.225 3.777,-7.926 5.644,-11.913 3.111,5.183 -4.478,9.449 -4.389,15.673 -1.188,1.11 -1.946,2.652 -3.133,3.763 -0.229,2.804 -1.677,5.538 -2.508,8.15 -0.86,2.694 -0.749,6.073 -3.135,7.522 0.276,-3.485 1.103,-6.42 2.508,-8.775 -3.19,-10.003 1.195,-22.386 1.881,-32.6 -3.43,9.524 -6.25,19.66 -6.269,32.6 -2.186,-0.324 -0.92,-4.098 -1.254,-6.271 -4.258,6.608 -10.411,11.324 -11.285,21.316 3.722,-3.593 3.995,-10.634 8.15,-13.793 -2.025,8.354 -10.035,13.594 -6.896,25.076 -2.135,0.465 -1.033,-2.309 -2.508,-2.508 -0.926,-9.155 1.66,-15.916 5.016,-21.314 2.25,-3.621 5.873,-6.534 7.523,-10.658 2.134,-5.334 0.956,-10.448 3.761,-16.927 -0.487,-0.558 -0.673,-1.415 -0.627,-2.509 -3.569,3.748 -4.46,10.17 -6.896,15.048 0.714,-4.849 2.479,-9.585 5.017,-15.673 0.828,-1.99 2.659,-3.836 3.133,-5.642 1.975,-7.528 -0.539,-15.448 0,-25.079 -3.289,5.672 -0.583,11.38 -1.254,16.927 -1.232,10.201 -10.833,20.127 -9.402,32.601 1.101,-0.151 1.427,-1.077 1.252,-2.507 1.964,2.005 -1.344,4.056 -0.627,6.896 2.512,-2.296 3.301,-6.312 4.39,-10.031 0.946,5.969 -3.777,11.684 -6.896,15.673 0.146,-1.049 2.702,-7.969 0.627,-11.285 -1.713,4.35 -2.696,9.425 -4.389,13.794 1.569,0.105 1.962,-0.963 2.508,-1.881 -0.317,1.993 -3.79,6.231 -4.39,10.03 -3.329,-1.021 -0.354,-3.747 0,-6.271 2.706,-9.689 7.176,-18.189 4.39,-30.091 0.99,1.099 0.839,3.342 1.254,5.017 2.188,-4.084 1.749,-10.79 3.761,-15.046 -2.862,-0.801 -4.143,4.917 -4.388,8.774 -4.017,1.843 -5.184,9.856 -5.017,13.794 -1.874,6.324 -4.721,16.254 -3.76,24.45 0.448,3.817 3.048,6.65 3.135,10.029 -2.265,-1.915 -3.613,-4.746 -3.762,-8.775 -2.042,0.048 -1.339,2.84 -1.881,4.388 -2.352,1.41 -2.56,4.963 -5.015,6.269 0.092,-3.036 4.142,-5.299 5.015,-10.029 0.581,-3.15 -0.424,-6.698 0,-10.658 1.012,-0.177 1.081,0.592 1.881,0.627 0.634,-9.072 1.267,-14.656 -0.627,-21.941 3.661,-5.326 2.741,-15.232 7.523,-19.436 -0.404,6.297 -4.172,11.706 -5.015,20.689 1.702,-1.665 4.535,-6.326 5.642,-9.406 0.771,-2.143 1.745,-6.06 1.881,-8.147 0.232,-3.09 -0.836,-6.57 2.539,-8.78 z m 114.1,-70.83 c -6.954,-1.003 -13.625,0.369 -21.314,0.627 2.14,-0.578 5.17,-0.265 6.27,-1.881 -3.493,-0.343 -7.727,1.864 -10.656,0 7.541,-0.684 14.814,-1.775 20.687,-1.253 -1.167,0.085 -2.095,0.412 -2.508,1.253 4.849,0.402 8.674,0.641 14.421,1.254 0.247,-4.011 -5.091,-2.435 -7.525,-3.762 1.293,-0.38 4.356,1.012 3.763,-1.254 -11.877,-1.009 -22.441,2.632 -31.973,1.881 9.133,-2.359 21.047,-1.939 31.346,-3.135 -8.246,-3.322 -17.51,-0.2 -26.958,0.627 -13.255,1.161 -27.377,0.637 -40.123,0 19.145,-0.086 44.845,-2.552 65.2,-3.135 -3.603,-4.759 -13.941,-1.737 -20.688,-1.254 -12.094,0.867 -23.963,1.869 -33.854,1.254 15.627,-1.709 32.854,-3.128 52.662,-3.134 -1.962,-3.924 -5.206,-2.257 -10.031,-1.881 -3.229,0.252 -6.739,-0.382 -9.404,0 -1.399,0.201 -2.41,1.18 -3.762,1.254 -3.39,0.186 -6.44,-0.776 -9.402,-0.627 -2.733,0.138 -5.519,1.2 -8.15,1.254 -7.148,0.147 -16.728,-1.532 -19.435,2.507 0.677,1.833 5.594,-0.578 6.269,1.254 -4.262,-0.438 -6.885,1.378 -9.404,-0.627 -0.484,3.933 -4.845,5.204 -3.76,8.777 4.727,-1.858 10.87,1.096 14.418,-1.254 -3.199,-0.353 -8.062,0.958 -9.403,-1.253 13.164,1.438 22.888,-1.682 33.227,0 -2.617,0.596 -3.073,-0.28 -5.015,1.253 2.617,1.476 5.684,-1.197 8.149,0.627 -12.384,0.843 -29.569,2.059 -45.139,0.627 0.27,-0.985 1.974,-0.536 1.254,-2.507 -2.604,0.112 -3.052,2.381 -4.388,3.76 1.267,4.097 5.876,4.636 10.029,2.508 -0.909,-0.343 -3.238,0.732 -3.133,-0.627 9.011,-0.369 24.643,0.118 36.359,0 -0.91,0.343 -3.24,-0.732 -3.133,0.627 2.325,-0.39 6.451,1.019 6.896,-1.254 -0.911,-0.343 -3.24,0.733 -3.135,-0.627 3.147,0.823 6.516,-1.39 7.522,-0.627 -1.017,1.283 -3.423,1.175 -3.761,3.135 -7.524,1.465 -22.535,0.007 -33.227,0.627 -3.348,0.193 -10.345,-0.55 -10.031,4.387 6.363,-1.437 12.565,-0.394 20.062,-0.626 8.537,-0.266 18.677,-2.458 25.077,-3.134 4.187,-0.443 8.349,1.274 11.91,-1.254 -3.387,-1.853 -8.948,1.562 -12.538,-0.627 5.41,-3.06 23.27,1.2 26.31,-3.78 z m -5.64,-15.68 c -3.041,-1.347 -9.45,0.674 -11.285,-1.881 3.819,-0.616 11.183,2.882 11.912,-0.627 -1.2,-1.308 -3.758,-1.256 -3.76,-3.761 -3.146,0.407 -7.927,-0.822 -10.031,0.627 3.093,1.596 7.366,-1.239 9.404,1.881 -4.854,-0.286 -11.387,-2.531 -10.658,5.015 5.22,-0.01 10.73,0.27 14.42,-1.26 z m -29.47,1.26 0,-1.253 c 1.64,0.176 2.696,-0.229 2.506,-1.881 -6.036,-0.175 -17.313,-1.357 -24.449,1.881 0.385,0.869 2.414,0.094 2.508,1.253 -2.275,0.023 -4.948,-0.351 -5.642,1.254 5.496,1.932 14.5,-1.105 21.314,-0.627 3.138,0.22 5.363,0.289 6.896,-1.254 -1.46,-0.2 -2.41,0.1 -3.14,0.63 z m -3.76,73.34 c -0.772,-2.306 -1.735,3.56 -2.506,1.254 1.64,-2.748 2.004,-6.772 3.133,-10.031 -2.192,0.105 -4.013,-0.166 -5.015,-1.252 4.342,-0.199 6.852,0.472 8.15,1.879 -0.481,1.438 -2.499,4.56 -0.627,6.27 1.18,-1.537 0.164,-5.268 1.881,-6.27 0.193,1.896 -0.697,4.877 1.252,5.015 0.838,-3.041 4.275,-11.692 0.627,-13.164 -2.462,0.847 -0.895,4.758 -1.879,5.644 -2.466,-0.639 -3.352,0.924 -5.644,-1.254 1.64,0.177 2.696,-0.229 2.508,-1.882 -5.451,-1.154 -12.921,0.098 -15.673,1.255 3.48,1.047 5.99,-0.749 8.777,0.627 -2.728,1.451 -8.143,0.216 -11.912,0.627 -0.535,12.53 -2.113,17.406 -2.507,28.837 -0.895,-0.151 -1.059,-1.032 -1.881,-1.254 -1.324,5.154 0.241,13.197 -1.254,18.181 -0.107,-0.938 0.223,-2.312 -0.627,-2.508 -1.09,6.854 -5.481,13.74 -5.015,20.062 0.733,-0.939 0.778,-2.563 1.879,-3.136 0.278,1.395 -1.935,3.401 -0.625,3.763 0.936,-0.736 0.737,-2.606 2.507,-2.509 -1.321,4.954 -5.485,10.391 -5.015,15.046 -0.002,-0.347 0.507,-0.712 0.627,0 -1.268,5.002 -2.457,10.081 -3.763,15.046 l 0,3.763 c 1.359,0.104 0.284,-2.225 0.627,-3.136 1.328,-1.808 0.38,-5.889 3.136,-6.269 -0.535,3.032 -3.049,7.383 -1.255,10.658 2.656,-10.93 6.087,-21.082 7.523,-33.227 1.186,-0.141 1.383,0.706 2.508,0.627 -0.106,-1.774 0.539,-4.301 -1.254,-4.39 -0.098,0.737 0.107,1.779 -0.627,1.881 l 0,-8.776 c -1.686,-1.118 -1.212,2.761 -1.881,0.627 1.148,-2.196 0.771,-5.917 3.762,-6.269 -0.631,3.028 -1.8,12.203 1.88,14.418 0.343,-5.365 0.677,-11.497 -1.253,-16.927 1.286,0.72 2.988,-0.984 1.253,-1.254 -3.104,1.029 -3.167,-8.732 -1.253,-11.283 0.36,3.817 -1.062,9.421 1.88,10.656 1.601,-6.767 -1.691,-14.006 -0.627,-20.688 0.478,-2.989 2.314,-6.282 2.508,-9.404 0.264,-4.238 0.365,-5.229 2.509,-6.896 3.983,-0.351 7.113,-0.604 10.03,0 -1.225,2.576 -5.991,1.509 -9.403,1.252 -3.759,9.45 -3.18,20.416 -3.136,30.721 0.395,1.067 1.895,1.031 2.509,1.879 -0.515,2.623 -1.224,5.048 -1.255,8.152 2.982,0.893 2.422,-1.76 3.763,-2.509 -1.715,-12.132 4.068,-18.158 1.252,-28.837 -0.324,0.239 -0.928,3.043 -1.252,1.254 0.604,-1.903 1.677,-3.34 2.507,-5.017 1.503,-0.249 -0.347,2.855 1.881,1.882 1.272,-0.4 0.413,-2.933 1.881,-3.136 0.444,2.323 -1.071,2.69 -0.627,5.017 1.769,0.843 1.571,-3.323 2.509,-1.254 -3.231,3.045 -2.785,12.22 -0.628,14.418 0.915,-1.175 0.024,-4.155 1.253,-5.017 0.382,1.5 -0.786,4.55 0.627,5.017 1.357,-4.201 3.55,-13.12 1.254,-16.927 -0.319,3.651 -0.662,7.277 -1.881,10.031 -0.21,-4.56 0.7,-8.04 1.86,-11.27 z m -11.28,55.8 c -1.363,-1.98 -0.909,-5.777 -1.881,-8.149 -2.184,-0.303 -2.191,1.571 -3.136,2.508 -0.141,-0.486 -0.017,-1.235 -0.627,-1.254 -0.81,2.482 2.063,1.28 1.254,3.763 -2.599,-1.749 -3.151,10.476 0,10.656 -0.14,-3.87 2.16,-8.09 4.4,-7.53 z m 58.3,-92.78 1.881,0 c 0.178,-1.638 -0.229,-2.696 -1.881,-2.506 l 0,2.51 z m -39.5,-66.46 c 0.837,0.895 3.552,0.895 4.389,0 -0.403,-1.896 -0.979,-3.619 -3.135,-3.761 -1.06,0.61 -1.6,1.73 -1.25,3.76 z m 7.53,0 3.763,0 0,-2.508 c -2.34,-0.25 -3.68,0.51 -3.76,2.51 z m -37.62,20.69 c 4.552,-5.061 10.677,-8.549 14.419,-14.42 -4.53,0.156 -6.031,4.091 -8.15,6.27 -0.764,0.785 -2.261,1.05 -3.134,1.88 -3.981,3.788 -6.553,9.73 -11.285,10.658 1.935,-2.765 4.84,-5.467 7.523,-8.15 2.643,-2.643 6.746,-4.791 6.896,-8.15 -10.071,3.511 -13.884,13.282 -21.941,18.807 0.487,0.14 1.237,0.018 1.254,0.627 -1.8,0.938 -4.323,4.425 -5.644,3.761 1.245,-1.389 3.358,-1.904 1.881,-4.389 2.685,-1.854 5.566,-4.314 8.15,-6.896 2.512,-2.508 5.946,-5.251 6.269,-8.15 -5.664,3.423 -10.713,8.855 -15.673,12.538 -1.383,1.027 -2.421,3.401 -4.387,2.507 1.988,0.476 1.626,-1.667 2.508,-2.507 4.07,-3.887 11.167,-6.632 11.91,-11.285 -6.563,0.275 -7.718,4.584 -11.283,8.15 -2.16,2.16 -5.151,3.794 -6.271,5.016 -0.743,0.812 -0.006,1.546 -0.627,2.507 -0.961,1.489 -2.87,1.521 -3.134,3.135 -3.862,1.389 -6.755,4.968 -10.031,7.523 -3.502,2.731 -7.018,5.442 -10.658,6.269 7.501,-5.873 15.994,-10.755 22.571,-17.553 -0.738,-0.099 -1.78,0.108 -1.881,-0.627 1.5,-0.703 3.643,-1.942 5.015,-3.135 2.746,-2.388 6.676,-6.37 6.896,-8.777 -4.77,1.213 -6.898,5.832 -10.029,8.777 -2.147,2.018 -5.448,2.999 -6.271,6.269 -5.426,4.359 -10.669,8.25 -16.3,11.911 -3.469,2.257 -7.102,4.557 -10.029,7.523 7.174,-0.556 14.373,-1.091 21.314,-1.88 6.713,-4.574 12.947,-12.962 19.435,-15.672 -4.904,4.918 -10.798,8.846 -15.673,13.792 4.73,0.902 11.543,-0.794 14.418,-3.762 -1.385,1.376 0.62,2.562 0,5.016 0.974,1.25 6.398,-0.067 3.134,1.881 0.819,0.743 3.982,0.296 3.762,-1.881 -3.419,-0.134 -5.376,-1.728 -6.269,-4.388 0.772,-1.317 1.733,-2.445 2.506,-3.762 -5.055,-1.282 -5.802,5.046 -8.15,4.389 0.605,-1.84 4.904,-3.31 1.881,-5.016 7.704,-0.656 7.578,-9.139 13.792,-11.284 -1.579,5.106 -7.182,6.192 -8.777,11.284 7.809,-2.432 10.76,-9.72 17.554,-13.166 -5.219,6.065 -12.445,10.124 -16.927,16.927 6.007,-1.727 8.399,-4.558 12.54,-8.777 2.386,-2.433 4.054,-5.617 6.269,-8.15 0.567,-0.648 1.874,-0.576 2.508,-1.253 5.826,-6.228 12.599,-15.235 16.3,-17.554 0.644,-0.404 1.579,0.614 2.507,-0.627 1.02,-1.363 0.322,-3.997 1.254,-5.016 -8.65,4.93 -13.31,13.85 -21.95,18.79 z m 60.81,-12.54 c 1.075,1.132 2.466,-0.192 2.509,-1.881 -1.2,0.27 -2.7,0.23 -2.51,1.88 z m -20.69,6.9 c -0.3,2.39 2.901,1.278 1.882,4.388 3.842,-0.336 9.33,1.054 8.776,-5.016 -0.895,-0.149 -1.059,-1.032 -1.881,-1.253 -1.7,3.23 -4.3,1.74 -8.78,1.88 z m -26.33,0.63 c 1.103,2.178 0.547,2.38 1.254,4.389 5.15,0.24 8.856,-2.52 13.791,-0.627 0.655,-1.436 2.438,-1.742 3.136,-3.134 -0.938,-0.107 -2.314,0.224 -2.509,-0.627 2.564,-0.615 2.534,0.069 5.644,0 -3.22,-4.03 -14.88,0.41 -21.31,0 z m 17.56,3.13 c 2.055,1.558 6.707,-0.035 8.776,0.627 0.105,0.033 -1.16,1.853 0.627,1.254 0.99,-5.54 -8.34,-5.49 -9.41,-1.88 z m -21.94,3.13 c -0.105,2.267 0.345,1.792 -1.255,4.389 3.539,0.497 7.479,-0.386 11.285,-0.626 3.344,-0.212 8.082,1.36 9.402,-1.881 -2.848,-1.991 -9.153,0.7 -11.283,-0.627 2.186,-2.203 10.114,1.338 11.283,-1.88 -5.02,-2.2 -14.18,-0.75 -19.43,0.63 z m 33.22,-1.25 c 0.596,2.192 8.745,1.848 9.404,0 -1.94,-1 -7.45,-1 -9.4,0 z m -11.28,1.25 c 0.434,1.566 1.673,-1.163 3.135,-0.626 l 0,3.134 c 1.959,0.287 2.003,-1.34 1.882,-3.134 -0.62,-0.54 -5.42,-1.74 -5.01,0.63 z m -26.33,4.39 c 1.569,0.107 1.964,-0.963 2.508,-1.88 -0.727,-0.526 -1.68,-0.827 -3.135,-0.627 -0.15,1.19 0.7,1.39 0.62,2.51 z m 26.33,0.63 c 1.378,-0.329 4.683,0.541 2.508,3.762 l 3.761,0 c -0.703,-3.42 1.922,-3.512 2.508,-5.642 l -3.135,0 c -0.373,1.299 0.776,4.119 -0.625,4.388 -0.724,-0.74 -0.71,-2.215 -0.627,-3.76 -1.59,-0.58 -4.31,-1.21 -4.4,1.25 z m -33.86,6.9 c 1.963,0.291 2.8,-0.546 2.509,-2.508 l -2.509,0 0,2.51 z m -3.76,6.27 c 0.197,-0.848 0.893,-1.197 0.627,-2.508 l -2.509,0 c -0.17,1.64 0.23,2.7 1.88,2.51 z m 73.98,0.62 c -0.495,2.414 3,2.414 2.506,0 -1.71,0.06 -1.27,-1.04 -2.51,0 z m -81.5,13.79 c 3.229,0.812 4.714,-2.352 3.134,-4.388 -2.08,0.43 -3.4,1.62 -3.13,4.39 z m -18.808,-1.88 c 3.445,-0.108 7.298,0.192 8.777,-1.881 -2.51,-0.091 -5.458,1.609 -7.523,0 0.188,1.24 -0.846,1.25 -1.254,1.88 z m 118.49,9.41 c 0.938,-0.104 2.314,0.224 2.508,-0.625 -1.709,-1.007 1.338,-3.7 -1.881,-3.763 -0.01,1.67 0.23,3.58 -0.63,4.39 z m -98.43,9.4 c 1.184,0.14 1.381,-0.706 2.506,-0.627 0.025,-1.907 0.365,-4.126 -1.879,-3.763 0.09,1.93 -2.2,2.82 -0.63,4.39 z m 82.13,-0.63 c 0.863,-0.026 1.378,0.295 1.881,0.627 0.724,-0.741 0.71,-2.217 0.627,-3.763 -1.77,0.12 -2.67,1.09 -2.51,3.13 z m -28.84,-1.88 c -4.878,0.159 -9.964,1.741 -15.045,1.882 -4.657,0.129 -9.168,-0.575 -13.792,0 -4.924,0.612 -11.831,1.741 -17.554,1.881 -1.562,0.039 -4.683,-2.403 -5.017,1.254 5.197,3.858 15.435,-3.917 21.316,0.628 -5.673,-0.078 -10.59,-1.413 -13.794,1.881 10.581,-0.461 15.884,-1.266 25.704,-0.627 -0.046,-1.092 0.141,-1.951 0.627,-2.509 -4.157,-0.797 -8.091,1.918 -11.283,0 5.326,-0.114 12.551,-1.648 17.552,0 -0.984,0.06 -2.172,-0.085 -1.879,1.255 1.247,1.52 2.676,-1.06 3.134,1.254 -0.683,1.881 -0.902,6.654 1.254,8.774 1.457,-0.49 2.356,-0.245 3.135,-2.506 -0.177,1.64 0.229,2.696 1.88,2.506 0.105,-0.729 0.992,-0.679 1.881,-0.627 -0.072,-4.669 1.135,-8.06 1.881,-11.91 -2.517,0.618 -6.406,-0.139 -6.896,2.509 0.185,2.211 1.697,-2.214 1.882,0 0.756,0.829 0.627,4.31 -1.255,4.387 0.813,-0.831 0.826,-2.333 -0.627,-2.506 -0.304,0.739 -0.669,1.42 -1.254,1.879 -0.867,-2.875 -0.395,-4.444 -1.254,-6.269 8.773,-0.928 22.537,-0.926 31.973,-3.136 -6.69,-0.13 -14.4,-0.24 -22.55,0.02 z m -158.61,2.51 1.879,0 c 0.177,-1.64 -0.229,-2.696 -1.879,-2.509 l 0,2.51 z m 165.51,0 c -1.448,0.255 -4.558,0.303 -4.388,2.508 7.676,0.886 17.825,-1.372 25.077,-1.254 -0.463,-0.852 -0.498,-5.274 -1.882,-3.135 -1.19,1.65 -13.67,0.96 -18.81,1.87 z m -93.413,25.08 c 0.521,-6.59 5.249,-12.298 3.761,-18.807 -0.782,6.33 -5.544,12 -3.761,18.81 z m 3.134,-25.08 c -0.644,2.91 -1.562,5.544 -3.134,7.522 2.385,-0.92 0.124,2.802 2.507,1.882 0.306,-2.63 2.386,-6.78 0.627,-9.4 z m 92.789,3.76 c -2.464,0.339 -7.375,-1.592 -7.522,2.508 7.049,-0.062 15.418,-2.13 21.941,-0.627 -2.228,-0.227 -5,0.974 -8.777,1.252 -5.312,0.392 -12.159,-1.263 -13.791,1.882 4.214,1.521 9.017,-0.985 13.791,-1.255 4.898,-0.274 10.249,1.905 13.792,-0.627 -2.289,-1.975 -3.381,-0.723 -1.879,-4.388 -5.58,-0.45 -12.23,0.54 -17.55,1.27 z m -61.44,3.14 c -3.89,0.194 0.513,-1.204 -0.625,-3.76 -3.83,-0.12 -0.82,7.61 0.62,3.76 z m 82.75,-1.25 0,-2.508 -1.881,0 c -0.18,1.63 0.23,2.69 1.88,2.51 z m -70.84,0.62 c -3.983,0.203 -9.857,-1.606 -11.285,2.507 4.629,1.285 10.011,-0.915 15.673,-1.255 7.923,-0.474 16.272,3.551 19.435,-1.252 -4.99,-2.33 -15.28,-0.45 -23.81,-0.01 z m 25.7,8.78 c 2.645,0.567 3.261,-0.917 3.761,-3.136 0.287,-1.271 -0.539,-6.945 -1.88,-6.894 -0.05,3.4 -0.44,6.63 -1.88,10.03 z m -35.11,-5.02 c 3.406,4.282 11.599,0.525 17.554,0.627 3.248,0.054 6.421,1.156 8.777,-0.627 -9.07,-2.19 -18.25,0.39 -26.33,0 z m 46.4,5.02 c -5.521,1.069 -1.017,9.78 -3.761,14.418 -1.438,-2.896 1.357,-10.233 -0.627,-15.045 -1.28,4.172 -2.901,10.578 -1.881,15.045 -5.126,1.354 -1.002,11.955 -3.134,16.301 2.85,-2.166 1.976,-8.055 3.761,-11.284 1.034,0.01 0.351,1.737 1.254,1.882 2.92,-5.66 2.23,-14.91 4.39,-21.32 z m 0,3.13 c 0.629,-0.002 0.747,0.508 1.254,0.627 -0.199,-3.444 1.393,-1.028 1.881,0 0.066,-1.605 0.354,-2.989 1.255,-3.762 6.025,-0.873 13.723,0.232 19.433,-0.627 1.895,-0.284 4.711,-1.218 5.644,-2.509 -4.326,-2.617 -12.771,1.946 -15.673,-1.252 5.537,-0.523 13.342,1.223 16.928,-1.254 -8.148,0.164 -19.423,-0.969 -26.331,1.879 2.522,0.404 6.665,-0.813 8.149,0.627 -3.74,1 -6.044,-0.232 -9.404,0.627 0.21,4.44 -2.72,1.88 -3.13,5.63 z m -50.16,-6.27 c 0.035,-0.382 0.092,-0.741 0.627,-0.627 0.341,0.911 -0.734,3.242 0.625,3.136 0.527,-0.727 0.828,-1.681 0.627,-3.136 -1.23,-0.69 -3.21,-0.29 -1.89,0.63 z m 55.17,5.64 c 1.501,0.38 2.86,0.9 5.015,0.627 -0.592,1.446 -0.041,2.021 -0.627,4.39 3.441,1.121 4.446,-6.106 1.881,-6.897 -1.68,2.32 -5.05,-0.91 -6.26,1.88 z m 10.66,-0.62 c 2.412,-0.05 1.636,-0.351 3.135,-0.627 7.878,-1.446 -4.966,-1.119 -5.015,0.627 l 1.89,0 z m -6.9,42.63 c -1.859,-2.379 -0.512,4.548 -2.507,3.763 0.108,0.044 -0.28,-2.505 -0.627,-1.882 -0.446,0.801 -1.044,3.001 -1.254,3.763 -0.714,2.573 -0.417,5.538 -2.509,8.777 0.718,-12.241 8.008,-21.246 5.642,-34.481 0.004,0.349 -0.507,0.712 -0.627,0 1.28,-4.442 2.005,-7.187 1.882,-11.912 2.665,0.575 2.678,-1.501 2.508,-3.761 -2.275,-0.603 -0.527,2.816 -2.508,2.509 -0.594,-3.506 -2.603,-5.147 0,-7.523 l -3.761,0 c 0.278,4.431 3.008,11.567 0,17.555 0.087,-3.043 2.09,-9.452 -0.627,-11.285 0.092,1.555 0.116,3.041 -1.255,3.133 0.176,-1.427 -0.15,-2.354 -1.254,-2.506 -1.492,2.809 -2.56,6.397 -0.627,9.404 -1.709,0.055 -1.262,-1.044 -2.506,0 -2.195,12.843 0.393,20.707 -0.627,33.227 1.076,0.247 1.605,-0.932 1.879,0 -0.87,1.986 -0.87,5.536 0,7.521 -2.626,-0.745 -1.117,2.645 -2.507,3.136 0.356,-4.589 -0.26,-8.401 -0.627,-10.656 -0.627,-3.854 0.631,-6.463 0.627,-10.031 -0.003,-1.861 1.114,-5.166 -1.881,-6.269 -3.773,10.25 0.522,19.937 -1.254,31.973 2.429,-0.517 1.924,1.809 2.508,2.508 1.306,1.559 3.287,5.011 4.388,8.148 -1.806,-0.074 -1.088,-2.673 -3.133,-2.509 0.868,7.215 -1.996,10.815 -0.628,16.928 1.349,-7.011 4.404,-12.312 6.27,-18.807 -0.185,-2.211 -1.697,2.211 -1.882,0 -0.28,-12.83 5.58,-19.51 6.9,-30.72 z m -4.38,21.94 c 0.472,-3.917 2.255,-6.521 3.133,-10.031 -2.38,1.61 -4.09,7.18 -3.13,10.03 z m 6.89,-36.99 c -1.308,-3.45 4.012,-8.856 5.015,-13.164 0.479,-2.057 2.335,-7.287 -1.879,-7.523 -4.032,9.74 -5.589,23.462 -5.017,34.481 1.777,-4.085 2.969,-11.617 3.762,-15.673 0.083,-0.426 2.737,-2.055 0,-1.881 0.24,2.11 -1.08,2.67 -1.88,3.75 z m -25.7,14.42 c 2.289,0.552 0.795,-1.835 1.254,-3.136 0.246,-0.693 1.675,-1.804 1.882,-2.506 1.864,-6.352 1.005,-13.578 1.254,-21.316 -0.139,-0.489 -0.525,-0.729 -1.254,-0.627 -0.7,9.56 -3.38,17.11 -3.13,27.6 z M 72.099,242.62 c -0.022,8.342 -3.729,16.327 -3.133,23.197 2.435,-11.347 11.079,-21.426 6.896,-33.854 0.167,4.96 -1.033,8.57 -3.763,10.65 z m 65.205,0 c 0.979,-3.582 2.468,-7.684 -0.627,-9.402 0.4,2.93 -0.82,7.5 0.63,9.4 z m 33.22,11.28 c -0.559,2.701 -3.547,6.539 0.627,7.522 1.518,-1.188 2.656,-4.347 3.136,-6.896 1.055,-5.622 1.171,-13.134 0.625,-18.182 -1.94,4.43 -3.26,12.04 -4.4,17.56 z m 11.91,-1.25 c 0.712,-0.901 1.826,-6.869 0.627,-5.642 -0.08,1.53 -1.53,7.17 -0.63,5.64 z m -102.18,2.51 c -0.653,-3.186 3.406,-4.921 1.254,-7.523 -0.267,2.26 -2.838,5.48 -1.254,7.52 z m 63.315,-0.63 c 1.034,-0.278 1.034,-4.738 0,-5.015 0.21,1.5 -3.14,4.55 0,5.01 z m -7.52,14.42 c -0.598,-5.202 1.938,-10.588 0,-15.045 -0.97,4.1 -3.02,12.54 0,15.05 z m -23.82,20.06 c 0.236,-2.501 3.688,-5.061 1.881,-7.521 0.06,2.8 -3.72,5.02 -1.88,7.52 z m 15.67,26.33 c 1.102,-0.177 1.147,3.746 1.881,1.88 -0.345,-1.57 -0.874,-9.377 -1.881,-10.031 l 0,8.15 z"
         style="clip-rule:evenodd;fill-rule:evenodd"
         inkscape:connector-curvature="0" />
      <path
         id="path96000"
         d="m 208.14,214.4 c -2.908,-0.191 -0.933,4.5 -3.761,4.39 l 0,-3.136 c -1.74,0.977 -5.613,-0.181 -5.644,2.509 -1.103,-0.568 -1.034,-2.31 -2.506,-2.509 -2.401,1.271 -0.902,3.852 -1.254,5.643 -1.027,5.221 -3.688,9.895 -5.015,14.418 -0.911,-3.845 3.037,-8.238 3.133,-13.164 -7.252,-0.517 -1.918,11.984 -8.149,15.046 0.708,0.754 1.789,1.136 1.254,3.133 -1.278,-0.185 -1.229,-1.694 -2.508,-1.879 1.729,-8.091 5.776,-13.867 5.644,-23.823 1.455,-0.274 1.678,-2.768 3.133,-1.254 -1.223,0.616 -3.153,3.722 -0.627,4.39 1.449,-0.642 1.299,-2.885 1.254,-5.017 3.281,1.416 4.844,-2.663 8.15,-3.136 1.979,0.531 1.783,3.233 3.762,3.763 3.302,0.376 1.199,-4.653 4.388,-4.39 -1.16,2.117 -1.923,3.985 1.255,4.39 0.138,4.942 -2.553,7.061 -2.509,11.91 -1.87,-2.89 2.58,-7.67 0.03,-11.28 z m -6.9,1.26 c 0.525,-0.729 0.828,-1.682 0.627,-3.135 -0.741,-0.722 -2.215,-0.708 -3.761,-0.627 0.4,1.9 0.98,3.63 3.13,3.77 z"
         style="clip-rule:evenodd;fill-rule:evenodd"
         inkscape:connector-curvature="0" />
      <path
         id="path96002"
         d="m 203.75,220.67 c 1.52,-0.596 -1.482,4.086 -1.881,5.642 0.177,1.122 -0.592,1.288 -0.627,0.628 0.32,-2.61 1.86,-3.98 2.51,-6.27 z"
         style="clip-rule:evenodd;fill-rule:evenodd"
         inkscape:connector-curvature="0" />
      <path
         id="path96004"
         d="m 196.85,221.3 c 1.433,0.977 -2.464,7.024 -1.881,11.285 0.771,-0.275 1.287,-0.805 1.254,-1.882 1.482,1.019 0.544,7.16 -1.254,5.015 -0.519,1.772 0.883,1.625 0.627,3.136 -1.774,-2.941 -2.296,3.174 -3.136,5.015 -1.638,-2.594 0.961,-7.418 1.881,-11.91 0.81,-3.93 0.56,-8.13 2.51,-10.67 z"
         style="clip-rule:evenodd;fill-rule:evenodd"
         inkscape:connector-curvature="0" />
      <path
         id="path96006"
         d="m 110.96,248.89 c -2.549,6.016 -3.006,14.127 -4.388,21.314 -1.783,-2.826 -2.217,3.402 -2.508,0 -0.681,0.154 -0.424,1.246 -1.254,1.254 -0.456,2.746 1.247,-0.506 1.254,1.252 -2.794,9.745 -4.419,20.66 -5.015,32.6 2.326,-4.569 2.302,-11.489 3.133,-17.552 0.57,-1.245 2.106,-1.245 0.627,0 -2.188,16.04 -5.044,34.896 0,50.152 1.807,-2.177 -0.529,-11.797 1.254,-11.911 -1.444,15.253 4.607,26.3 3.762,38.868 -3.076,-0.592 -1.462,-3.199 -1.881,-5.014 -2.606,-11.272 -7.611,-22.04 -12.538,-31.346 2.35,-0.66 3.886,4.876 5.015,7.522 0.581,-7.69 -4.937,-14.704 -6.269,-22.568 0.822,0.221 0.985,1.103 1.879,1.254 -2.247,-11.514 -0.38,-22.366 1.881,-32.6 0.505,0.332 1.018,0.652 1.881,0.627 2.414,-8.035 4.73,-16.167 6.269,-25.079 3.545,1.885 -0.297,7.588 -1.254,10.658 4.939,1.681 3.587,-7.456 5.016,-11.285 -0.559,0.279 -1.121,0.552 -1.254,1.254 -0.187,-4.789 4.211,-10.412 3.761,-17.554 -3.071,4.452 -2.215,12.833 -6.269,16.3 2.933,-8.559 4.673,-18.313 6.896,-27.583 -3.746,7.54 -5.987,16.584 -8.777,25.077 -3.456,4.772 0.934,-4.596 1.254,-5.642 1.666,-5.432 3.021,-12.669 4.389,-16.927 -4.007,7.277 -8.122,14.447 -13.166,20.687 -0.631,2.546 1.903,4.369 -1.252,4.388 -2.04,-3.371 3.451,-10.411 5.642,-13.791 -0.703,-1.974 -0.057,-1.42 0,-3.761 3.538,-4.196 4.483,-10.981 7.523,-15.673 0.911,5.306 -4.054,10.151 -5.642,15.046 4.412,-1.5 4.638,-8.692 6.896,-13.167 3.259,1.144 1.544,-4.689 5.642,-4.387 -0.561,1.111 -2.545,0.798 -1.881,3.133 0.596,-0.059 5.533,-1.132 8.777,-0.625 0.245,1.762 -1.166,4.358 0.627,2.506 0.669,2.566 -1.147,8.036 -1.882,11.286 0.115,2.402 -0.513,0.227 -1.879,0.627 -0.455,1.426 -0.559,3.203 -1.254,4.388 -1.245,-3.756 2.489,-10.029 2.506,-16.301 -0.467,-1.412 -3.515,-0.243 -5.015,-0.627 -1.407,0.266 -0.017,3.327 -1.254,3.763 0.425,2.346 2.084,-0.465 2.509,1.881 -1.566,11.208 -2.652,19.782 -4.39,31.346 -1.45,-3.73 1.66,-8.33 0.59,-13.79 z m -11.907,80.87 c 1.653,-5.913 -4.413,-15.359 -1.881,-20.062 0.098,0.738 -0.106,1.78 0.627,1.881 -1.245,-11.726 1.957,-25.867 3.135,-36.361 -6.834,15.13 -9.756,38.36 -1.877,54.54 z m 6.897,24.45 c -0.205,-5.647 -1.94,-9.761 -3.763,-13.792 -0.12,5.96 2.42,9.27 3.76,13.79 z"
         style="clip-rule:evenodd;fill-rule:evenodd"
         inkscape:connector-curvature="0" />
      <path
         id="path96008"
         d="m 131.03,241.36 c 0.681,0.155 0.424,1.247 1.254,1.255 -1.833,-3.387 -0.697,-10.476 0.627,-14.419 -1.023,6.516 1.032,14.81 -1.254,22.57 -1.396,-0.642 0.818,-2.885 0,-5.017 -0.07,-1.77 -2.37,-2.66 -0.63,-4.39 z"
         style="clip-rule:evenodd;fill-rule:evenodd"
         inkscape:connector-curvature="0" />
      <path
         id="path96010"
         d="m 165.51,239.48 c 1.297,-1.267 -1.569,2.621 -2.508,3.134 0.169,8.321 -1.554,14.746 -3.763,20.688 -2.239,-8.428 4.473,-18.994 0.627,-29.464 0.351,-2.42 2.427,0.804 1.881,-2.509 1.436,1.073 0.23,4.784 0.627,6.896 1.338,0.293 1.193,-0.895 1.255,-1.882 1.385,0.08 0.266,2.66 0.627,3.763 0.49,-0.12 0.61,-0.63 1.24,-0.63 z"
         style="clip-rule:evenodd;fill-rule:evenodd"
         inkscape:connector-curvature="0" />
      <path
         id="path96012"
         d="m 102.19,243.24 c 1.459,7.261 -5.02,12.497 -6.269,19.435 -0.361,2.013 0.806,3.622 0.627,5.642 -0.084,0.971 -1.671,2.929 -1.881,4.388 -0.485,3.39 -0.284,5.371 -1.252,8.152 -2.46,-0.558 -2.006,2.726 -3.135,5.015 -0.634,-6.282 5.011,-11.702 4.388,-20.061 -3.582,11.254 -11.892,17.78 -13.165,31.346 2.314,-2.494 1.549,-8.065 3.762,-10.658 0.603,5.623 -3.272,12.188 -1.881,20.688 -1.838,-0.46 -2.696,-1.9 -3.762,-3.134 -1.452,-15.352 8.017,-23.476 12.54,-33.854 1.271,-2.916 0.114,-6.306 3.76,-8.15 0.349,-8.03 5.788,-10.95 6.268,-18.83 z"
         style="clip-rule:evenodd;fill-rule:evenodd"
         inkscape:connector-curvature="0" />
      <path
         id="path96014"
         d="m 115.35,250.77 c -0.757,10.11 -2.756,18.978 -4.39,28.21 -1.302,-0.16 -0.172,-2.755 -1.252,-3.135 0.265,-1.405 1.344,-1.998 1.879,-3.136 0.519,-5.484 1.256,-10.693 1.881,-15.673 0.25,-1.99 -1.37,-5.76 1.88,-6.26 z"
         style="clip-rule:evenodd;fill-rule:evenodd"
         inkscape:connector-curvature="0" />
      <path
         id="path96016"
         d="m 55.795,260.8 c -0.375,-3.097 1.837,0.653 0,0.627 -2.069,13.367 -0.166,32.853 -6.269,43.883 -2.126,-1.241 -0.102,-3.378 0,-5.015 0.308,-5 -0.196,-10.835 0.627,-16.298 0.183,-1.223 1.009,-2.587 1.254,-3.762 0.345,-1.658 -0.304,-3.53 0,-5.017 0.432,-2.11 1.727,-3.661 1.879,-5.642 0.4,-5.13 -2.829,-9.902 -0.625,-14.419 1.118,2.016 0.581,5.686 1.252,8.149 1.291,-0.18 1.254,-1.68 1.882,-2.51 z m -2.508,18.8 c -0.601,-2.113 1.922,-4.282 0,-5.644 0.218,1.73 -1.798,4.4 0,5.64 z m -2.506,18.81 c 2.352,-3.506 2.471,-12.567 1.254,-17.554 -1.424,4.49 -1.82,15.05 -1.254,17.55 z"
         style="clip-rule:evenodd;fill-rule:evenodd"
         inkscape:connector-curvature="0" />
      <path
         id="path96018"
         d="m 37.614,264.56 c -2.641,6.134 -7.377,10.175 -10.656,15.673 1.741,2.854 2.636,6.558 3.761,10.028 -3.104,-0.239 -2.757,-3.928 -3.761,-6.267 -1.933,0.834 1.167,2.787 -0.627,3.761 -2.975,-1.513 0.02,-5.662 -0.627,-8.777 5.824,-2.95 6.274,-11.27 11.91,-14.41 z"
         style="clip-rule:evenodd;fill-rule:evenodd"
         inkscape:connector-curvature="0" />
      <path
         id="path96020"
         d="m 100.94,264.56 c -0.422,3.973 -2.921,11.283 -3.763,16.927 -0.624,-5.02 1.755,-12.45 3.763,-16.93 z"
         style="clip-rule:evenodd;fill-rule:evenodd"
         inkscape:connector-curvature="0" />
      <path
         id="path96022"
         d="m 40.75,281.49 c -0.155,-0.79 -1.247,-0.633 -1.254,0 -0.116,-1.405 1.894,-2.953 2.508,-6.271 0.64,-3.462 -1.791,-9.174 1.881,-10.029 0.661,3.867 0.406,5.938 0.627,11.91 -1.918,1.363 -3.846,8.913 -5.644,6.271 1.686,0.43 1.212,-1.3 1.882,-1.88 z"
         style="clip-rule:evenodd;fill-rule:evenodd"
         inkscape:connector-curvature="0" />
      <path
         id="path96024"
         d="m 119.74,272.08 c 1.672,1.312 -1.562,2.993 -1.255,5.015 -1.38,-1.02 0.88,-3.68 1.26,-5.02 z"
         style="clip-rule:evenodd;fill-rule:evenodd"
         inkscape:connector-curvature="0" />
      <path
         id="path96026"
         d="m 160.49,272.71 c 0.679,2.575 -1.453,7.731 -1.881,11.287 -1.01,-2.92 1.28,-7.91 1.88,-11.29 z"
         style="clip-rule:evenodd;fill-rule:evenodd"
         inkscape:connector-curvature="0" />
      <path
         id="path96028"
         d="m 149.83,305.94 c 2.816,-10.51 -0.93,-18.107 -0.627,-29.465 2.02,7.383 2.692,16.115 2.507,25.704 0.61,-0.017 0.486,-0.768 0.627,-1.255 1.464,1.64 -2.63,9.263 -0.627,9.404 0.264,2.335 -0.216,8.352 0.627,11.91 -0.849,0.109 -0.812,-3.627 -1.882,-1.252 -1.63,-1.551 -0.509,-4.494 -0.625,-6.896 -0.282,-5.729 -1.482,-11.94 -1.254,-17.554 0.052,-0.992 -0.303,-2.393 0.627,-2.509 l 0,2.509 c -0.11,4.8 0.48,5.01 0.61,9.41 z"
         style="clip-rule:evenodd;fill-rule:evenodd"
         inkscape:connector-curvature="0" />
      <path
         id="path96030"
         d="m 82.126,309.07 c 2.368,-0.278 0.904,3.275 2.508,3.763 2.202,-4.714 2.333,-10.967 3.76,-16.3 0.074,-0.277 1.184,-0.429 1.254,-0.627 1.407,-3.964 -0.133,-10.683 3.762,-11.911 -2.743,11.691 -7.912,24.249 -7.525,36.987 0.934,-0.531 0.908,-2.02 1.254,-3.135 0.812,5.364 -0.882,15.005 0.627,21.314 -3.325,-3.669 -2.202,-10.301 -1.881,-16.3 -2.464,2.865 -2.139,9.335 -1.252,13.793 -2.665,-0.286 -2.259,-6.198 -1.881,-7.522 -1.531,-1.49 -2.445,2.958 -4.389,3.135 4.905,-5.11 7.133,-14.82 3.763,-23.19 z"
         style="clip-rule:evenodd;fill-rule:evenodd"
         inkscape:connector-curvature="0" />
      <path
         id="path96032"
         d="m 167.39,285.87 c 0.608,2.713 0.826,10.428 -1.88,11.912 -0.08,-4.25 1.79,-6.48 1.88,-11.91 z"
         style="clip-rule:evenodd;fill-rule:evenodd"
         inkscape:connector-curvature="0" />
      <path
         id="path96034"
         d="m 89.022,286.5 c 1.437,1.462 -0.495,3.475 -0.627,3.76 -1.479,3.22 -0.096,-0.71 0.627,-3.76 z"
         style="clip-rule:evenodd;fill-rule:evenodd"
         inkscape:connector-curvature="0" />
      <path
         id="path96036"
         d="m 136.67,288.38 c 1.728,9.791 6.057,23.637 7.522,36.987 -1.857,-1.181 -0.994,-2.702 -3.134,-2.508 2.29,-13.18 -5.58,-22.02 -4.39,-34.48 z"
         style="clip-rule:evenodd;fill-rule:evenodd"
         inkscape:connector-curvature="0" />
      <path
         id="path96038"
         d="m 166.13,317.85 c -1.422,0.665 -0.237,3.941 -0.625,5.642 -2.016,-3.383 -0.351,-17.314 0,-22.569 2.914,0.639 -0.11,7.217 1.88,8.777 -0.102,0.734 -1.143,0.529 -1.88,0.627 0.191,5.393 1.603,9.578 3.761,10.658 0.415,0.207 0.78,-1.148 0.627,-1.254 1.144,0.784 0.967,3.012 2.508,2.506 0.826,1.572 -2.479,1.963 -0.627,2.509 -1.81,0.12 -3.94,-4.83 -5.64,-6.91 z"
         style="clip-rule:evenodd;fill-rule:evenodd"
         inkscape:connector-curvature="0" />
      <path
         id="path96040"
         d="m 89.649,314.09 c 1.044,1.698 0.601,7.267 -1.254,8.147 0.111,-4.06 1.23,-3.65 1.254,-8.15 z"
         style="clip-rule:evenodd;fill-rule:evenodd"
         inkscape:connector-curvature="0" />
      <path
         id="path96042"
         d="m 158.61,314.71 c 1.661,3.016 -2.92,9.188 0,13.165 -3.088,0.081 -3.933,-7.931 -3.134,-10.658 1.386,0.079 0.266,2.659 0.627,3.762 2.12,-0.8 1.2,-4.65 2.5,-6.27 z"
         style="clip-rule:evenodd;fill-rule:evenodd"
         inkscape:connector-curvature="0" />
      <path
         id="path96044"
         d="m 138.55,324.12 c 0.273,-0.93 0.803,0.247 1.881,0 -0.197,1.32 -1.783,3.742 1.255,3.135 0.013,1.476 -1.081,1.847 -0.628,3.763 -2.53,-0.61 -1.07,-5.2 -2.5,-6.9 z"
         style="clip-rule:evenodd;fill-rule:evenodd"
         inkscape:connector-curvature="0" />
      <path
         id="path96046"
         d="m 146.07,325.37 c 1.625,2.899 -1.396,6.529 -1.881,9.404 -0.938,-0.176 1.185,-5.849 -0.627,-6.896 1.08,-0.97 3.21,2.24 2.51,-2.5 z"
         style="clip-rule:evenodd;fill-rule:evenodd"
         inkscape:connector-curvature="0" />
      <path
         id="path96048"
         d="m 163,331.01 c 1.161,3.807 2.562,13.659 6.269,16.927 -3.755,-0.225 -5.349,-8.021 -6.269,-13.166 -1.214,-1.503 -3.52,-1.915 -3.763,-4.388 0.45,1.03 3.88,4.74 3.76,0.63 z"
         style="clip-rule:evenodd;fill-rule:evenodd"
         inkscape:connector-curvature="0" />
      <path
         id="path96050"
         d="m 35.108,245.12 c 0.745,4.508 -3.7,3.823 -6.896,4.39 0.983,-2.77 2.525,-4.99 6.896,-4.39 z"
         style="clip-rule:evenodd;fill-rule:evenodd"
         inkscape:connector-curvature="0" />
      <path
         id="path96052"
         d="m 174.28,272.71 c 1.119,-0.175 1.285,0.594 0.625,0.627 -0.954,14.133 -6.463,27.379 -3.761,41.379 -7.408,-10.326 1.575,-23.411 1.254,-33.854 -1.626,1.717 -1.474,5.214 -2.508,7.522 -0.28,-4.49 1.82,-11.99 4.4,-15.68 z"
         style="clip-rule:evenodd;fill-rule:evenodd"
         inkscape:connector-curvature="0" />
      <path
         id="path96054"
         d="m 70.841,297.79 c 1.925,-1.837 0.483,-7.042 3.762,-7.525 -3.807,4.556 -0.957,15.762 -6.896,18.182 -0.011,-8.578 2.296,-14.839 5.015,-20.688 1.199,2.69 -2.523,5.83 -1.881,10.04 z"
         style="clip-rule:evenodd;fill-rule:evenodd"
         inkscape:connector-curvature="0" />
    </g>
  </g>
</svg>
