<?xml version="1.0" encoding="UTF-8" standalone="no"?>
<!-- Created with Inkscape (http://www.inkscape.org/) -->

<svg
   xmlns:dc="http://purl.org/dc/elements/1.1/"
   xmlns:cc="http://creativecommons.org/ns#"
   xmlns:rdf="http://www.w3.org/1999/02/22-rdf-syntax-ns#"
   xmlns:svg="http://www.w3.org/2000/svg"
   xmlns="http://www.w3.org/2000/svg"
   xmlns:sodipodi="http://sodipodi.sourceforge.net/DTD/sodipodi-0.dtd"
   xmlns:inkscape="http://www.inkscape.org/namespaces/inkscape"
   width="62mm"
   height="88mm"
   viewBox="0 0 219.68504 311.81102"
   id="svg2"
   version="1.1"
   inkscape:version="0.91 r13725"
   sodipodi:docname="a_graffiti.svg">
  <defs
     id="defs4">
    <inkscape:perspective
       sodipodi:type="inkscape:persp3d"
       inkscape:vp_x="0 : 155.90551 : 1"
       inkscape:vp_y="0 : 1000 : 0"
       inkscape:vp_z="219.68504 : 155.90551 : 1"
       inkscape:persp3d-origin="109.84252 : 103.93701 : 1"
       id="perspective6315" />
    <clipPath
       clipPathUnits="userSpaceOnUse"
       id="clipPath8648">
      <path
         style="fill:#ff0000;fill-opacity:1;fill-rule:evenodd;stroke:none;stroke-width:1px;stroke-linecap:butt;stroke-linejoin:miter;stroke-opacity:1"
         d="m 48.7971,144.54832 -4.54568,-1.2627 -4.04062,0.50508 -4.79822,3.40927 -5.93465,4.29314 -2.0203,2.90419 0.12627,2.65165 2.65165,2.14658 -1.01015,1.76776 -3.283,1.26269 -3.40926,8.08123 6.31345,9.34391 10.35406,-0.75762 46.21448,3.91434 25.50635,-7.19733 9.47018,-5.05077 0.12627,-10.10152 -2.65165,-1.13642 0.88389,-15.15229 10.35406,-6.9448 3.28299,-3.91434 6.566,-7.82868 0.50507,-4.54569 -4.54568,-1.89404 -2.14658,1.01016 -4.16688,1.13642 -5.93464,-2.90419 -2.77792,-1.76777 -5.80838,2.39911 -2.90419,3.03046 -3.40926,4.9245 -7.07107,0.3788 -8.96511,5.80838 -2.90418,2.14657 -3.66181,0.12627 -5.55584,-0.3788 -17.29886,2.65165 z"
         id="path8650"
         inkscape:connector-curvature="0" />
    </clipPath>
    <mask
       maskUnits="userSpaceOnUse"
       id="mask8666">
      <rect
         rx="1.7260212"
         ry="2.8714814"
         y="98.924339"
         x="22.885082"
         height="109.83415"
         width="100.10923"
         id="rect8668"
         style="opacity:1;fill:#ffffff;fill-opacity:1;stroke:none;stroke-width:2.01114893;stroke-linecap:round;stroke-linejoin:bevel;stroke-miterlimit:4;stroke-dasharray:none;stroke-dashoffset:0;stroke-opacity:1" />
    </mask>
    <clipPath
       clipPathUnits="userSpaceOnUse"
       id="clipPath9647">
      <path
         style="fill:#ff0000;fill-opacity:1;fill-rule:evenodd;stroke:none;stroke-width:1px;stroke-linecap:butt;stroke-linejoin:miter;stroke-opacity:1"
         d="m 24.29467,289.85466 12.14286,-9.28572 41.42857,-15.71428 40,-5 20,5 2.85715,7.14285 9.28571,6.42858 10,1.42857 -3.57143,13.57143 -15.71428,10 -27.85715,5.71428 -74.28571,1.42857 z"
         id="path9649"
         inkscape:connector-curvature="0" />
    </clipPath>
    <inkscape:path-effect
       pattern-nodetypes="sssss"
       fuse_tolerance="0"
       vertical_pattern="false"
       prop_units="false"
       tang_offset="0"
       normal_offset="0"
       spacing="0"
       scale_y_rel="false"
       prop_scale="1"
       copytype="single_stretched"
       pattern="M 0,5 C 0,2.24 2.24,0 5,0 7.76,0 7,0.24 7,3 7,5.76 7.76,5.75 5,5.75 2.24,5.75 0,7.76 0,5 Z"
       is_visible="true"
       id="path-effect20326"
       effect="skeletal" />
    <clipPath
       clipPathUnits="userSpaceOnUse"
       id="clipPath7877">
      <path
         style="fill:#ff0000;fill-opacity:1;fill-rule:evenodd;stroke:none;stroke-width:1px;stroke-linecap:butt;stroke-linejoin:miter;stroke-opacity:1"
         d="m 1349.8263,623.67274 -143.5316,10.50232 -77.0169,-21.00459 -119.0262,66.51457 -91.01997,38.50849 -189.04149,-14.00311 -31.50696,-80.51768 -52.51151,-94.52074 -49.01077,-77.01694 -45.51,-31.50692 -38.50846,31.50692 -21.00461,24.50538 -87.51923,56.0123 L 264.58784,578.16276 121.05631,581.6635 110.554,564.1597 96.550923,357.61431 103.55246,4.0366248 142.06092,-23.9695 l 304.56691,3.500741 59.51307,3.50079 171.53769,-10.502321 115.52538,0 38.50845,28.00617372 38.50844,3.50074108 224.04924,-28.0061248 101.5223,35.007656 91.02,87.519261 -3.5008,140.030723 3.5008,238.0523 7.0016,45.51003 3.5007,112.02459 z"
         id="path7879"
         inkscape:connector-curvature="0" />
    </clipPath>
    <filter
       style="color-interpolation-filters:sRGB"
       id="filter8486"
       inkscape:label="filter1" />
    <clipPath
       clipPathUnits="userSpaceOnUse"
       id="clipPath8513">
      <path
         style="fill:#ff0000;fill-opacity:1;fill-rule:evenodd;stroke:none;stroke-width:1px;stroke-linecap:butt;stroke-linejoin:miter;stroke-opacity:1"
         d="m 1037.9071,144.02626 13.0113,78.06757 -32.5282,52.04505 -117.10134,39.03376 -175.65205,19.5169 -149.62954,13.0113 -71.56195,-45.53943 -65.05628,-110.59572 143.12385,-84.57325 52.04505,-39.033754 6.50568,-39.033819 39.03375,-13.01123 78.06757,-13.01129406 221.19149,-6.50561504 z"
         id="path8515"
         inkscape:connector-curvature="0" />
    </clipPath>
    <clipPath
       clipPathUnits="userSpaceOnUse"
       id="clipPath8513-1">
      <path
         style="fill:#ff0000;fill-opacity:1;fill-rule:evenodd;stroke:none;stroke-width:1px;stroke-linecap:butt;stroke-linejoin:miter;stroke-opacity:1"
         d="m 1037.9071,144.02626 13.0113,78.06757 -32.5282,52.04505 -117.10134,39.03376 -175.65205,19.5169 -149.62954,13.0113 -71.56195,-45.53943 -65.05628,-110.59572 143.12385,-84.57325 52.04505,-39.033754 6.50568,-39.033819 39.03375,-13.01123 78.06757,-13.01129406 221.19149,-6.50561504 z"
         id="path8515-4"
         inkscape:connector-curvature="0" />
    </clipPath>
    <clipPath
       clipPathUnits="userSpaceOnUse"
       id="clipPath8565">
      <path
         style="fill:#ff0000;fill-opacity:1;fill-rule:evenodd;stroke:none;stroke-width:1px;stroke-linecap:butt;stroke-linejoin:miter;stroke-opacity:1"
         d="m 1037.9071,144.02626 13.0113,78.06757 -32.5282,52.04505 -117.10134,39.03376 -175.65205,19.5169 -149.62954,13.0113 -71.56195,-45.53943 -65.05628,-110.59572 143.12385,-84.57325 52.04505,-39.033754 6.50568,-39.033819 39.03375,-13.01123 78.06757,-13.01129406 221.19149,-6.50561504 z"
         id="path8567"
         inkscape:connector-curvature="0" />
    </clipPath>
    <clipPath
       clipPathUnits="userSpaceOnUse"
       id="clipPath8637">
      <rect
         style="opacity:1;fill:#ff0000;fill-opacity:1;stroke:none;stroke-width:8.10000038;stroke-linecap:round;stroke-linejoin:bevel;stroke-miterlimit:4;stroke-dasharray:none;stroke-dashoffset:0;stroke-opacity:1"
         id="rect8639"
         width="193.57143"
         height="132.14285"
         x="-219.99998"
         y="776.64789" />
    </clipPath>
    <clipPath
       clipPathUnits="userSpaceOnUse"
       id="clipPath8741">
      <path
         style="fill:#ff0000;fill-opacity:1;fill-rule:evenodd;stroke:none;stroke-width:1px;stroke-linecap:butt;stroke-linejoin:miter;stroke-opacity:1"
         d="m -26.77703,99.03193 15.71429,-5.71429 45.71428,12.85714 57.14286,17.14286 74.28571,27.14285 25.71429,21.42857 100,30 44.28571,32.85715 60,-8.57143 28.57143,17.14286 27.14286,8.57142 48.57143,-14.28571 102.85714,7.14286 -4.28571,-187.14286 -7.14286,-12.85714 -37.14286,5.71428 -22.85714,2.85715 -51.42857,0 -67.14286,0 -22.85714,-1.42858 -14.28572,8.57143 -92.85714,0 -72.85714,-4.28571 -51.42857,5.71428 -37.14286,-2.85714 -32.85714,-2.85714 -32.85715,0 -38.57142,-4.28572 -48.57143,5.71429 z"
         id="path8743"
         inkscape:connector-curvature="0"
         sodipodi:nodetypes="cccccccccccccccccccccccccccccc" />
    </clipPath>
    <clipPath
       clipPathUnits="userSpaceOnUse"
       id="clipPath20203">
      <rect
         style="opacity:1;fill:#ff0000;fill-opacity:1;stroke:none;stroke-width:8.10000038;stroke-linecap:round;stroke-linejoin:bevel;stroke-miterlimit:4;stroke-dasharray:none;stroke-dashoffset:0;stroke-opacity:1"
         id="rect20205"
         width="17069.842"
         height="17666.689"
         x="2366.7041"
         y="-21212.371"
         transform="scale(1,-1)" />
    </clipPath>
  </defs>
  <sodipodi:namedview
     id="base"
     pagecolor="#ffffff"
     bordercolor="#666666"
     borderopacity="1.0"
     inkscape:pageopacity="0.0"
     inkscape:pageshadow="2"
     inkscape:zoom="0.7"
     inkscape:cx="199.45403"
     inkscape:cy="38.36466"
     inkscape:document-units="px"
     inkscape:current-layer="layer1"
     showgrid="false"
     inkscape:window-width="1920"
     inkscape:window-height="1026"
     inkscape:window-x="-2"
     inkscape:window-y="31"
     inkscape:window-maximized="1" />
  <metadata
     id="metadata7">
    <rdf:RDF>
      <cc:Work
         rdf:about="">
        <dc:format>image/svg+xml</dc:format>
        <dc:type
           rdf:resource="http://purl.org/dc/dcmitype/StillImage" />
        <dc:title></dc:title>
      </cc:Work>
    </rdf:RDF>
  </metadata>
  <g
     inkscape:label="Layer 1"
     inkscape:groupmode="layer"
     id="layer1"
     transform="translate(0,-740.55118)">
    <text
       xml:space="preserve"
       style="font-style:normal;font-weight:normal;font-size:22.05662727px;line-height:125%;font-family:Sans;letter-spacing:0px;word-spacing:0px;fill:#000000;fill-opacity:1;stroke:none;stroke-width:1px;stroke-linecap:butt;stroke-linejoin:miter;stroke-opacity:1"
       x="156.71159"
       y="766.04486"
       id="text6305"
       sodipodi:linespacing="125%"><tspan
         sodipodi:role="line"
         id="tspan6307"
         x="156.71159"
         y="766.04486"
         style="font-style:normal;font-variant:normal;font-weight:normal;font-stretch:normal;font-size:15px;font-family:'Ubuntu Condensed';-inkscape-font-specification:'Ubuntu Condensed, '">• A D L T</tspan></text>
    <text
       xml:space="preserve"
       style="font-style:normal;font-weight:normal;font-size:19.57834816px;line-height:125%;font-family:Sans;letter-spacing:0px;word-spacing:0px;fill:#000000;fill-opacity:1;stroke:none;stroke-width:1px;stroke-linecap:butt;stroke-linejoin:miter;stroke-opacity:1"
       x="14.324148"
       y="763.8302"
       id="text6317"
       sodipodi:linespacing="125%"><tspan
         sodipodi:role="line"
         id="tspan6319"
         x="14.324148"
         y="763.8302"
         style="font-style:normal;font-variant:normal;font-weight:500;font-stretch:normal;font-family:Orbitron;-inkscape-font-specification:'Orbitron Medium'">A</tspan></text>
    <text
       xml:space="preserve"
       style="font-style:normal;font-weight:normal;font-size:40px;line-height:125%;font-family:Sans;letter-spacing:0px;word-spacing:0px;fill:#000000;fill-opacity:1;stroke:none;stroke-width:1px;stroke-linecap:butt;stroke-linejoin:miter;stroke-opacity:1"
       x="16.857143"
       y="1025.9336"
       id="text8669"
       sodipodi:linespacing="125%"><tspan
         sodipodi:role="line"
         id="tspan8671"
         x="16.857143"
         y="1025.9336"
         style="font-style:normal;font-variant:normal;font-weight:500;font-stretch:normal;font-size:15px;font-family:Essays1743;-inkscape-font-specification:'Essays1743 Medium'">Unearthly howls in the night</tspan></text>
    <path
       d="m 73.186501,1001.5483 c -0.89812,-0.249 -2.73409,-0.8822 -4.07994,-1.4068 -2.09826,-0.81861 -4.32104,-0.95373 -15.51969,-0.94313 -9.3256,0.0106 -13.42939,0.20664 -14.3275,0.68882 -0.94581,0.50601 -1.61874,0.52191 -2.70972,0.0715 -1.60814,-0.66498 -2.60269,-0.70737 -9.32957,-0.39475 -3.13652,0.14572 -5.98719,-0.0901 -8.86196,-0.73651 -4.43919,-0.99614 -6.36922,-2.18038 -6.36922,-3.90774 -5e-5,-2.89305 8.07299,-11.94046 11.79687,-13.22008 1.54959,-0.53252 2.22516,-1.25313 3.36649,-3.59512 1.29869,-2.66522 1.79623,-3.11825 5.5074,-5.00191 3.41523,-1.73265 4.0508,-2.26517 3.90111,-3.26396 -0.59371,-3.96073 -0.66206,-7.75455 -0.18068,-10.01971 0.30361,-1.42798 0.8348,-6.63389 1.18106,-11.57221 0.34442,-4.93568 0.86103,-9.46601 1.14716,-10.0674 0.28877,-0.6014 1.36969,-1.67172 2.40558,-2.38174 2.55924,-1.75384 2.65991,-4.55417 0.24108,-6.86967 -0.90341,-0.86368 -1.90485,-2.56189 -2.22542,-3.77263 -0.32057,-1.21073 -1.31671,-3.40437 -2.21483,-4.87209 -2.60295,-4.2601 -2.61726,-5.79405 -0.10677,-11.47419 1.59039,-3.60042 5.28618,-14.32484 5.91672,-17.17285 0.91137,-4.10644 1.35115,-4.80056 4.99926,-7.89231 1.73795,-1.47037 3.24276,-2.86391 3.34344,-3.0944 0.10332,-0.23314 0.95905,-0.82129 1.90485,-1.30612 1.91281,-0.98819 9.59053,-6.89087 13.31017,-10.23695 2.41087,-2.16979 3.2825,-2.55129 18.05508,-7.86317 3.14209,-1.13126 6.07753,-2.20158 6.52792,-2.38174 4.20976,-1.68231 7.06307,-2.54599 8.43012,-2.55394 0.898119,-0.005 3.467949,-0.51396 5.711919,-1.12861 2.24397,-0.61464 5.10259,-1.33261 6.35041,-1.59754 2.49036,-0.52721 8.36389,-2.8851 10.22106,-4.10114 0.64644,-0.42389 3.24012,-1.41208 5.76491,-2.19893 2.5248,-0.7842 5.11053,-1.89956 5.74372,-2.47976 0.63319,-0.57755 1.76709,-1.22398 2.5195,-1.43328 2.54069,-0.70737 17.69478,-15.13289 16.81521,-16.00981 -0.28348,-0.28613 -1.90486,0.0901 -3.91569,0.90871 -3.73289,1.51541 -4.6416,1.67172 -5.13703,0.87163 -0.355,-0.57491 2.28636,-6.16761 3.04937,-6.45904 0.26228,-0.098 0.47422,-0.3868 0.47422,-0.64113 0,-0.25169 0.94581,-1.88366 2.10091,-3.62691 1.15775,-1.7406 3.01492,-5.36752 4.13293,-8.06187 1.11537,-2.69197 2.41883,-5.82956 2.89306,-6.97168 0.59079,-1.42162 1.76709,-2.67686 3.73023,-3.98006 1.579,-1.04675 3.02287,-2.38995 3.21097,-2.98499 0.19075,-0.59477 1.62668,-2.47578 3.19508,-4.17956 1.56839,-1.70377 3.71699,-4.06087 4.77407,-5.23796 1.81478,-2.01655 2.03202,-2.10888 3.76732,-1.6014 l 1.84128,0.53852 -0.17486,3.3694 c -0.15896,2.99505 -0.0636,3.3694 0.84249,3.3694 0.56165,0 1.31406,-0.29381 1.67171,-0.65279 1.29022,-1.29048 1.70881,0.25751 1.13126,4.19016 -0.30732,2.09349 -0.80804,4.61723 -1.11006,5.60833 -0.48483,1.59012 -0.38945,5.76571 0.3709,16.14944 0.53251,7.24323 1.03059,10.70323 1.96314,13.59894 0.57756,1.79623 1.28757,4.01636 1.57635,4.93302 0.70737,2.23337 0.67557,7.15315 -0.0477,7.59824 -0.31792,0.1987 -1.02793,-0.0477 -1.57899,-0.54576 -0.54841,-0.49807 -1.11536,-0.70472 -1.25843,-0.46098 -0.14306,0.24374 -0.0318,2.64666 0.24639,5.33837 1.29022,12.53392 1.22663,15.5038 -0.34176,15.5038 -1.45183,0 -1.50481,2.36054 -0.23579,10.18927 0.0371,0.23049 0.0371,0.96965 0.003,1.64257 -0.0768,1.46508 -1.9393,1.70351 -2.47181,0.31527 -0.27288,-0.70736 -0.49278,-0.763 -1.00409,-0.24903 -0.45569,0.45568 -0.61465,2.61487 -0.51397,7.07367 l 0.14306,6.41929 -2.3155,2.94339 c -1.27697,1.61873 -2.62812,3.26661 -3.00697,3.66136 -0.37621,0.39739 -0.70737,1.00939 -0.73651,1.36174 -0.0265,0.35236 -0.12187,1.98699 -0.2146,3.63222 -0.0901,1.64522 -0.54576,4.94891 -1.01204,7.34389 -1.20544,6.18615 -1.90485,9.85281 -2.58838,13.59894 -0.32586,1.79623 -1.33525,6.32392 -2.24397,10.0621 l -1.64787,6.80079 0.91666,5.69603 c 0.50337,3.13149 1.01204,5.79406 1.13391,5.91327 0.11922,0.11922 1.32995,0.42389 2.68905,0.67823 1.3591,0.25433 3.14739,0.9458 3.96868,1.53395 0.82393,0.58815 2.53009,1.33791 3.79382,1.66642 1.26372,0.32587 3.0944,1.32201 4.0667,2.21218 0.97495,0.88752 2.26781,1.77239 2.87186,1.96314 0.60404,0.19075 2.49565,1.26903 4.19916,2.40028 2.00023,1.32731 4.41111,2.342 6.80079,2.86391 10.4754,2.29166 12.2266,2.79503 12.68493,3.64811 0.69412,1.30082 1.85452,21.55483 1.40414,24.55386 -0.64909,4.34223 -4.52769,5.64834 -11.30993,3.80972 -2.64667,-0.71532 -5.88413,-1.09947 -9.68855,-1.14451 -3.13944,-0.0371 -9.13749,-0.32057 -13.32606,-0.63054 -4.18857,-0.30997 -16.18467,-0.69147 -26.65476,-0.84513 -10.47275,-0.15366 -19.89637,-0.30997 -20.94285,-0.34706 -3.04936,-0.11127 -26.559379,1.71941 -30.734709,2.39233 -2.09296,0.33647 -5.37281,1.31671 -7.28296,2.17774 -1.91016,0.86103 -3.77528,1.56575 -4.14089,1.56575 -0.3656,0 -1.52865,0.58815 -2.58573,1.30609 -2.30225,1.5631 -4.45615,2.0161 -6.66038,1.4068 z m -20.8819,-35.38955 c 3.91833,-2.16184 4.17267,-2.22277 10.27404,-2.45856 5.76491,-0.22255 14.1553,-1.85452 17.67889,-3.43882 2.84536,-1.27961 5.86293,-2.22277 7.11606,-2.22277 1.32995,0 1.36705,0.0927 1.01469,2.44797 -0.33382,2.22542 -0.26494,2.44796 0.7471,2.44796 0.612,0 1.80419,-0.26493 2.64667,-0.59079 0.84248,-0.32322 2.95399,-0.82129 4.69459,-1.10477 3.29045,-0.53516 5.266839,-1.43328 5.266839,-2.38703 0,-0.30467 -1.59754,-3.00168 -3.552739,-5.98745 -3.6799,-5.62715 -8.66326,-10.82511 -12.5763,-13.12207 -2.38968,-1.40413 -3.00697,-2.7076 -2.53539,-5.36751 0.15896,-0.89547 0.40269,-2.73144 0.54311,-4.07995 0.27023,-2.60427 0.41329,-2.3208 -4.36872,-8.65266 -2.03998,-2.7023 -3.61897,-3.56598 -3.61897,-1.97904 0,0.43449 -1.77504,2.31285 -3.94483,4.17267 -2.16979,1.85982 -4.11704,3.82032 -4.32898,4.36078 -0.37885,0.967 0.5537,6.58355 1.70616,10.25815 0.33116,1.05707 0.45038,3.24011 0.27023,4.89593 -0.18016,1.66377 -0.0689,3.65606 0.25168,4.48264 0.79215,2.05852 0.26758,3.04672 -1.82538,3.43882 -2.21217,0.41329 -7.11871,-1.96315 -12.06233,-5.84174 -1.83598,-1.44388 -3.58452,-2.62283 -3.88125,-2.62283 -0.29672,0 -1.98169,1.5419 -3.74348,3.42557 -2.94869,3.15003 -3.26131,3.73023 -3.90244,7.20879 -0.38415,2.07971 -0.84513,4.39256 -1.02529,5.13967 -0.44243,1.82273 -0.30202,2.41353 1.49951,6.3875 1.11537,2.46386 1.83333,3.40437 2.58839,3.40437 0.57755,0 2.85596,-0.99614 5.06814,-2.21483 z m 73.298609,-9.18518 c 1.00144,-0.28877 2.7076,-1.20543 3.79117,-2.03997 1.08357,-0.83453 2.58839,-1.64258 3.34344,-1.79359 1.89691,-0.37885 2.11415,-3.32754 0.51927,-7.03658 -1.21604,-2.82682 -1.17895,-6.45373 0.0821,-7.97179 0.29672,-0.36031 1.54984,-3.79912 2.78443,-7.64328 2.03732,-6.34246 2.26781,-7.63797 2.48505,-13.96719 0.27023,-7.94794 -0.11127,-11.55896 -1.27167,-12.00405 -0.44243,-0.1669 -2.03467,-0.0212 -3.53948,0.32587 -3.12355,0.72061 -3.72229,0.47953 -9.47925,-3.79911 -4.80056,-3.57128 -8.37714,-4.98072 -13.54596,-5.33837 -3.39907,-0.23314 -4.83765,-0.59875 -6.30802,-1.59489 -1.39619,-0.94581 -3.01757,-1.38824 -6.064279,-1.66112 -3.76998,-0.33647 -4.21241,-0.27288 -4.72373,0.68352 -0.73916,1.38559 -0.47423,3.16328 0.91931,6.15701 0.62789,1.34585 1.14716,3.15799 1.15246,4.02695 0.0132,1.63198 2.29165,7.02069 3.60571,8.5202 0.63054,0.71797 0.62789,1.39884 -0.008,4.44026 -0.4133,1.97638 -1.04118,4.47204 -1.39619,5.54501 -0.35501,1.07563 -0.54046,2.25987 -0.4133,2.63077 0.12717,0.37091 -0.1987,1.68497 -0.72591,2.9222 -1.83862,4.31838 -1.3644,6.52526 1.97109,9.17723 1.12861,0.89812 2.360539,1.87571 2.736749,2.17509 0.3762,0.29937 1.47301,2.01348 2.43472,3.80706 0.96435,1.79624 2.34464,4.36608 3.06525,5.71193 0.72062,1.34585 1.54456,2.47976 1.82803,2.51685 0.28083,0.0371 0.81864,0.10067 1.19219,0.14041 0.37621,0.0424 1.73001,1.07827 3.00963,2.30226 2.03467,1.94459 2.55394,2.18568 4.10644,1.89426 1.38029,-0.25964 2.18568,-0.0291 3.62426,1.03058 2.07706,1.53396 2.28371,1.57105 4.8244,0.84248 z m 24.1909,-5.2059 c 1.44388,-0.0689 2.89306,-0.3921 3.21892,-0.71797 0.7842,-0.78419 -0.47157,-4.6469 -2.15919,-6.65508 -1.45182,-1.7247 -1.5472,-3.55273 -0.3815,-7.29886 1.82008,-5.85499 3.34344,-12.29813 4.61776,-19.54665 0.40269,-2.28636 0.30467,-2.95399 -0.65703,-4.51179 -0.62259,-1.00674 -1.40414,-1.7406 -1.73795,-1.62933 -0.33117,0.11127 -0.95906,1.40679 -1.3909,2.88246 -0.74445,2.5301 -3.79911,11.5934 -6.13051,18.18225 -0.58285,1.64523 -1.55515,5.05225 -2.16184,7.5744 -1.09152,4.54622 -1.07298,5.90532 0.14571,10.57341 0.52456,2.01878 0.61464,2.08237 2.27841,1.68497 0.9511,-0.22784 2.9116,-0.46893 4.35812,-0.53781 z M 50.503061,926.37928 c 1.02529,-1.02529 0.763,-1.61874 -0.43714,-0.9776 -0.59874,0.31792 -1.08621,0.81599 -1.08621,1.10476 0,0.72062 0.73651,0.65968 1.52335,-0.12716 z m 2.53275,-7.46842 c 0.1722,-0.27818 0.0901,-0.64379 -0.1828,-0.81334 -0.27288,-0.16956 -0.63584,0.0583 -0.80805,0.50601 -0.33911,0.88223 0.47953,1.13391 0.99085,0.30733 z m 0.33116,-4.95158 c 0.57755,-0.30997 1.05178,-0.80009 1.05178,-1.08886 0,-0.90077 -1.41738,-0.57491 -2.44797,0.56165 -1.08092,1.19484 -0.36295,1.46772 1.39619,0.52721 z m 0.47158,-6.1941 c 0.52721,-0.63583 0.44244,-0.72061 -0.47688,-0.48217 -0.61464,0.16161 -1.11801,0.50867 -1.11801,0.7736 0,0.73386 0.87693,0.57225 1.59489,-0.29143 z"
       inkscape:connector-curvature="0"
       style="fill:#000000"
       id="path1372" />
  </g>
</svg>
