<?xml version="1.0" encoding="UTF-8" standalone="no"?>
<!-- Created with Inkscape (http://www.inkscape.org/) -->

<svg
   xmlns:dc="http://purl.org/dc/elements/1.1/"
   xmlns:cc="http://creativecommons.org/ns#"
   xmlns:rdf="http://www.w3.org/1999/02/22-rdf-syntax-ns#"
   xmlns:svg="http://www.w3.org/2000/svg"
   xmlns="http://www.w3.org/2000/svg"
   xmlns:sodipodi="http://sodipodi.sourceforge.net/DTD/sodipodi-0.dtd"
   xmlns:inkscape="http://www.inkscape.org/namespaces/inkscape"
   width="62mm"
   height="88mm"
   viewBox="0 0 219.68504 311.81102"
   id="svg2"
   version="1.1"
   inkscape:version="0.91 r13725"
   sodipodi:docname="a_bonfire.svg">
  <defs
     id="defs4">
    <inkscape:perspective
       sodipodi:type="inkscape:persp3d"
       inkscape:vp_x="0 : 155.90551 : 1"
       inkscape:vp_y="0 : 1000 : 0"
       inkscape:vp_z="219.68504 : 155.90551 : 1"
       inkscape:persp3d-origin="109.84252 : 103.93701 : 1"
       id="perspective6315" />
    <clipPath
       clipPathUnits="userSpaceOnUse"
       id="clipPath8648">
      <path
         style="fill:#ff0000;fill-opacity:1;fill-rule:evenodd;stroke:none;stroke-width:1px;stroke-linecap:butt;stroke-linejoin:miter;stroke-opacity:1"
         d="m 48.7971,144.54832 -4.54568,-1.2627 -4.04062,0.50508 -4.79822,3.40927 -5.93465,4.29314 -2.0203,2.90419 0.12627,2.65165 2.65165,2.14658 -1.01015,1.76776 -3.283,1.26269 -3.40926,8.08123 6.31345,9.34391 10.35406,-0.75762 46.21448,3.91434 25.50635,-7.19733 9.47018,-5.05077 0.12627,-10.10152 -2.65165,-1.13642 0.88389,-15.15229 10.35406,-6.9448 3.28299,-3.91434 6.566,-7.82868 0.50507,-4.54569 -4.54568,-1.89404 -2.14658,1.01016 -4.16688,1.13642 -5.93464,-2.90419 -2.77792,-1.76777 -5.80838,2.39911 -2.90419,3.03046 -3.40926,4.9245 -7.07107,0.3788 -8.96511,5.80838 -2.90418,2.14657 -3.66181,0.12627 -5.55584,-0.3788 -17.29886,2.65165 z"
         id="path8650"
         inkscape:connector-curvature="0" />
    </clipPath>
    <mask
       maskUnits="userSpaceOnUse"
       id="mask8666">
      <rect
         rx="1.7260212"
         ry="2.8714814"
         y="98.924339"
         x="22.885082"
         height="109.83415"
         width="100.10923"
         id="rect8668"
         style="opacity:1;fill:#ffffff;fill-opacity:1;stroke:none;stroke-width:2.01114893;stroke-linecap:round;stroke-linejoin:bevel;stroke-miterlimit:4;stroke-dasharray:none;stroke-dashoffset:0;stroke-opacity:1" />
    </mask>
    <clipPath
       clipPathUnits="userSpaceOnUse"
       id="clipPath9647">
      <path
         style="fill:#ff0000;fill-opacity:1;fill-rule:evenodd;stroke:none;stroke-width:1px;stroke-linecap:butt;stroke-linejoin:miter;stroke-opacity:1"
         d="m 24.29467,289.85466 12.14286,-9.28572 41.42857,-15.71428 40,-5 20,5 2.85715,7.14285 9.28571,6.42858 10,1.42857 -3.57143,13.57143 -15.71428,10 -27.85715,5.71428 -74.28571,1.42857 z"
         id="path9649"
         inkscape:connector-curvature="0" />
    </clipPath>
    <inkscape:path-effect
       pattern-nodetypes="sssss"
       fuse_tolerance="0"
       vertical_pattern="false"
       prop_units="false"
       tang_offset="0"
       normal_offset="0"
       spacing="0"
       scale_y_rel="false"
       prop_scale="1"
       copytype="single_stretched"
       pattern="M 0,5 C 0,2.24 2.24,0 5,0 7.76,0 7,0.24 7,3 7,5.76 7.76,5.75 5,5.75 2.24,5.75 0,7.76 0,5 Z"
       is_visible="true"
       id="path-effect20326"
       effect="skeletal" />
  </defs>
  <sodipodi:namedview
     id="base"
     pagecolor="#ffffff"
     bordercolor="#666666"
     borderopacity="1.0"
     inkscape:pageopacity="0.0"
     inkscape:pageshadow="2"
     inkscape:zoom="1.4"
     inkscape:cx="295.41879"
     inkscape:cy="152.41657"
     inkscape:document-units="px"
     inkscape:current-layer="layer1"
     showgrid="false"
     inkscape:window-width="1920"
     inkscape:window-height="1026"
     inkscape:window-x="-2"
     inkscape:window-y="31"
     inkscape:window-maximized="1"
     showguides="false" />
  <metadata
     id="metadata7">
    <rdf:RDF>
      <cc:Work
         rdf:about="">
        <dc:format>image/svg+xml</dc:format>
        <dc:type
           rdf:resource="http://purl.org/dc/dcmitype/StillImage" />
        <dc:title></dc:title>
      </cc:Work>
    </rdf:RDF>
  </metadata>
  <g
     inkscape:label="Layer 1"
     inkscape:groupmode="layer"
     id="layer1"
     transform="translate(0,-740.55118)">
    <text
       xml:space="preserve"
       style="font-style:normal;font-weight:normal;font-size:22.05662727px;line-height:125%;font-family:Sans;letter-spacing:0px;word-spacing:0px;fill:#000000;fill-opacity:1;stroke:none;stroke-width:1px;stroke-linecap:butt;stroke-linejoin:miter;stroke-opacity:1"
       x="156.71159"
       y="766.04486"
       id="text6305"
       sodipodi:linespacing="125%"><tspan
         sodipodi:role="line"
         id="tspan6307"
         x="156.71159"
         y="766.04486"
         style="font-style:normal;font-variant:normal;font-weight:normal;font-stretch:normal;font-size:15px;font-family:'Ubuntu Condensed';-inkscape-font-specification:'Ubuntu Condensed, '">• A D L T</tspan></text>
    <text
       xml:space="preserve"
       style="font-style:normal;font-weight:normal;font-size:17.82295036px;line-height:125%;font-family:Sans;letter-spacing:0px;word-spacing:0px;fill:#000000;fill-opacity:1;stroke:none;stroke-width:1px;stroke-linecap:butt;stroke-linejoin:miter;stroke-opacity:1"
       x="19.082771"
       y="1025.4789"
       id="text6309"
       sodipodi:linespacing="125%"><tspan
         sodipodi:role="line"
         id="tspan6311"
         x="19.082771"
         y="1025.4789"
         style="font-style:normal;font-variant:normal;font-weight:500;font-stretch:normal;font-size:15px;font-family:Essays1743;-inkscape-font-specification:'Essays1743 Medium'">Strange markings and diggings</tspan></text>
    <text
       xml:space="preserve"
       style="font-style:normal;font-weight:normal;font-size:19.57834816px;line-height:125%;font-family:Sans;letter-spacing:0px;word-spacing:0px;fill:#000000;fill-opacity:1;stroke:none;stroke-width:1px;stroke-linecap:butt;stroke-linejoin:miter;stroke-opacity:1"
       x="14.324148"
       y="763.8302"
       id="text6317"
       sodipodi:linespacing="125%"><tspan
         sodipodi:role="line"
         id="tspan6319"
         x="14.324148"
         y="763.8302"
         style="font-style:normal;font-variant:normal;font-weight:500;font-stretch:normal;font-family:Orbitron;-inkscape-font-specification:'Orbitron Medium'">A</tspan></text>
    <path
       style="fill:#ffffff;fill-opacity:1;fill-rule:evenodd;stroke:none;stroke-width:1px;stroke-linecap:butt;stroke-linejoin:miter;stroke-opacity:1"
       d="m 38.313684,980.3173 -0.967506,-4.51506 3.547538,-6.12757 -0.322502,-9.99764 5.160083,2.58003 2.902534,1.29003 0.645003,-6.12759 -7.740097,-2.90254 -2.580032,-1.61252 1.612509,-3.22504 3.547556,-4.83756 4.192559,-2.58005 3.225036,-2.58003 1.290025,-4.83757 1.612508,-8.38511 2.257534,-4.19254 1.93504,-4.83757 9.99763,-5.16008 -3.87006,-5.16006 2.58005,-6.7726 16.4477,-12.90017 0.96753,0.3225 13.22268,-6.45009 13.545178,-1.61251 17.41522,2.58003 13.54518,3.54754 12.57768,7.41761 7.09509,5.80507 7.4176,8.06262 4.51506,7.74009 3.54755,6.45009 2.25754,8.06262 -0.96751,16.12521 0,10.96515 -1.29003,5.80507 -5.80508,8.38512 -4.19254,6.45009 -4.51506,2.90253 -7.41762,2.90251 -7.74009,-1.61248 -15.15771,-1.29003 -3.54754,-0.645 -7.41761,-0.3225 -3.87004,-2.90255 -9.99765,-3.54754 -0.3225,4.19256 -3.87006,6.12754 -5.805058,3.2251 -1.61253,1.6125 -17.73774,-0.645 -13.54518,0 -15.157714,-2.2575 z"
       id="path5333"
       inkscape:connector-curvature="0"
       sodipodi:nodetypes="ccccccccccccccccccccccccccccccccccccccccccccccccccccc" />
    <g
       transform="matrix(0.55490852,0,0,0.55490852,-40.935249,729.12773)"
       inkscape:label="Layer 1"
       id="layer1-0"
       style="fill:#000000;fill-opacity:1">
      <g
         inkscape:export-filename="C:\Users\Monkey\Desktop\scratch.png"
         inkscape:export-xdpi="90"
         inkscape:export-ydpi="90"
         id="g3798"
         style="fill:#000000;fill-opacity:1">
        <path
           inkscape:connector-curvature="0"
           style="fill:#000000;fill-opacity:1"
           d="m 185.31,187.93 c -2.0403,3.0327 -2.0033,3.3532 -2.0033,6.0099 0,0.33389 0.23609,0.76557 0,1.0017 -0.2361,0.23609 -0.76557,-0.23609 -1.0017,0 -0.50083,0.50083 0.50083,2.5041 0,3.005 -0.23609,0.23609 -0.76557,-0.23609 -1.0017,0 -0.23609,0.23609 0.14932,0.70302 0,1.0017 -0.21117,0.42233 -0.79049,0.57932 -1.0017,1.0017 -0.14931,0.29863 0.2361,0.76556 0,1.0016 -0.23609,0.2361 -0.76556,-0.23609 -1.0016,0 -0.47219,0.47219 0.29863,1.406 0,2.0033 -0.21117,0.42233 -0.79049,0.57932 -1.0017,1.0017 -0.29864,0.59727 0.47219,1.5311 0,2.0033 -0.23609,0.23609 -0.85234,-0.29864 -1.0017,0 -0.29863,0.59727 0.29864,1.406 0,2.0033 -0.14932,0.29863 -0.76556,-0.2361 -1.0017,0 -0.23609,0.23609 0.14932,0.70302 0,1.0016 -0.13039,0.26078 -1.7847,1.2203 -1.0016,2.0033 0.23609,0.23609 0.70302,-0.14932 1.0016,0 0.42234,0.21117 0.57933,0.79049 1.0017,1.0017 0.29864,0.14931 0.70302,-0.14932 1.0017,0 1.202,0.60099 1.803,2.404 3.005,3.005 0.59727,0.29863 1.5311,-0.47219 2.0033,0 0.10016,0.10016 0.10016,2.9048 0,3.005 -0.2361,0.23609 -0.70302,-0.14932 -1.0017,0 -2.2147,1.1074 -0.31084,0.62167 -1.0017,2.0033 -0.42233,0.84467 -1.581,1.1586 -2.0033,2.0033 -0.14932,0.29864 0.14931,0.70302 0,1.0017 -0.42234,0.84467 -1.7047,1.1074 -2.0033,2.0033 -0.31675,0.95026 0,2.0033 0,3.005 l 0,1.0017 c 0,0.33389 -0.14932,0.70302 0,1.0017 0.21117,0.42234 0.79049,0.57932 1.0017,1.0017 0.14932,0.29863 -0.10558,0.6849 0,1.0016 0.23609,0.70828 0.76556,1.295 1.0017,2.0033 0.20956,0.62869 0,3.2003 0,4.0066 l 0,1.0017 c 0,0.33388 0.23609,0.76556 0,1.0016 -0.2361,0.2361 -0.76557,-0.23609 -1.0017,0 -0.23609,0.2361 0.23609,0.76557 0,1.0017 -0.23609,0.23609 -0.66777,0 -1.0017,0 0,0.33389 0.14932,0.70302 0,1.0017 -0.27828,0.55655 -2.0033,1.6803 -2.0033,2.0033 0,0.47219 1.3355,0.66778 1.0016,1.0017 -0.33388,0.33389 -1.0016,-1.4738 -1.0016,-1.0017 0,0.7466 0.76556,1.295 1.0016,2.0033 0.99393,2.9818 -2.3718,-2.0552 1.0017,3.005 0.26192,0.39288 0.57932,0.79049 1.0017,1.0017 0.29864,0.14932 1.0017,-0.33389 1.0017,0 0,0.33388 -1.0017,-0.33389 -1.0017,0 0,1.6289 1.8769,0.25287 1.0017,2.0033 -0.83496,1.6699 -2.0033,0.45259 -2.0033,3.005 0,0.33388 -0.14932,0.70302 0,1.0016 2.0843,4.1687 -0.0692,-1.0708 2.0033,1.0017 0.47218,0.47219 -0.29864,1.406 0,2.0033 2.0843,4.1686 -0.0692,-1.0708 2.0033,1.0016 0.14126,0.14126 0.10274,2.7995 0,3.005 -0.21117,0.42233 -0.79049,0.57932 -1.0017,1.0016 -0.14931,0.29864 0.2361,0.76557 0,1.0017 -0.23609,0.23609 -0.76556,-0.23609 -1.0016,0 -0.2361,0.23609 0.33388,1.0017 0,1.0017 -0.33389,0 0,-1.3356 0,-1.0017 0,0.39597 0.21389,4.5805 0,5.0083 -0.21117,0.42233 -0.57932,0.79049 -1.0017,1.0016 -0.6391,0.31955 -4.3922,-0.30805 -5.0083,0 -0.29863,0.14932 0.23609,0.76557 0,1.0017 -0.23609,0.2361 -0.76556,-0.23609 -1.0017,0 -0.23609,0.2361 0.14932,0.70302 0,1.0017 -0.21116,0.42234 -0.79048,0.57932 -1.0016,1.0017 -0.14932,0.29863 0,0.66777 0,1.0016 0,2.4755 -0.47219,1.5311 1.0016,3.005 0.33389,0.33388 0.57933,0.79049 1.0017,1.0016 0.29864,0.14932 0.76557,-0.23609 1.0017,0 0.23609,0.2361 -0.23609,0.76557 0,1.0017 0.23609,0.23609 0.70302,-0.14932 1.0017,0 0.26595,0.13298 2.872,2.739 3.005,3.005 0.13169,0.26338 0,3.4828 0,4.0066 0,0.24293 0.0322,2.9728 0,3.005 -0.23609,0.23609 -0.76557,-0.2361 -1.0017,0 -0.23609,0.23609 0,0.66777 0,1.0016 0,0.6967 0.18112,4.6461 0,5.0083 -0.21117,0.42234 -0.79049,0.57932 -1.0017,1.0017 -0.14931,0.29863 0.2361,0.76556 0,1.0017 -0.52792,0.52792 -1.295,0.76556 -2.0033,1.0016 -0.31675,0.10559 -0.76557,-0.23609 -1.0017,0 -0.23609,0.2361 -0.23609,0.76557 0,1.0017 0.23609,0.23609 0.76557,-0.23609 1.0017,0 0.23609,0.23609 -0.23609,0.76556 0,1.0017 0.23609,0.23609 0.76556,-0.2361 1.0017,0 0.23609,0.23609 0.23609,0.76556 0,1.0017 -0.2361,0.23609 -0.76557,-0.2361 -1.0017,0 -0.23609,0.23609 0.23609,0.76556 0,1.0016 -0.47219,0.47219 -1.406,-0.29863 -2.0033,0 -0.65156,0.32579 -1.4162,1.1743 -1.0016,2.0033 0.21117,0.42233 0.79049,0.57932 1.0016,1.0017 0.14932,0.29863 -0.23609,0.76556 0,1.0016 0.2361,0.2361 0.70303,-0.14932 1.0017,0 0.42234,0.21117 0.57932,0.79049 1.0017,1.0017 0.29864,0.14932 0.76556,-0.23609 1.0017,0 0.23609,0.23609 -0.14932,0.70302 0,1.0017 0.21116,0.42233 0.79049,0.57932 1.0016,1.0016 0.14932,0.29864 -0.23609,0.76557 0,1.0017 0.2361,0.2361 0.76557,-0.23609 1.0017,0 0.23609,0.2361 0.23609,0.76557 0,1.0017 -0.23609,0.23609 -0.66777,0 -1.0017,0 l -1.0016,0 c -0.42136,0 -5.712,-0.14898 -6.01,0 -0.42233,0.21117 -0.79049,0.57932 -1.0017,1.0017 -0.0427,0.0854 -0.0427,3.9212 0,4.0066 0.21117,0.42233 0.79049,0.57932 1.0017,1.0016 0.14932,0.29864 0,0.66778 0,1.0017 0.33389,0.33389 0.79049,0.57932 1.0017,1.0017 0.13169,0.26338 0,3.4828 0,4.0066 l 0,1.0017 c 0,0.33388 0.33389,1.0016 0,1.0016 -0.33389,0 0,-1.3355 0,-1.0016 l 0,2.0033 c 0,0.33389 0.33389,1.0017 0,1.0017 -0.33389,0 -0.33389,-1.0017 0,-1.0017 0.47219,0 0.66777,0.66777 1.0017,1.0017 0.33388,0.33388 0.79049,0.57932 1.0016,1.0017 0.14054,0.28107 0.14054,3.7256 0,4.0066 -0.21116,0.42233 -0.79048,0.57932 -1.0016,1.0016 -0.14932,0.29864 0,0.66778 0,1.0017 0,0.33389 -0.2361,0.76557 0,1.0017 2.0725,2.0725 -0.081,-3.167 2.0033,1.0017 0.14932,0.29863 0,0.66777 0,1.0016 l 0,1.0017 0,5.0083 c 0,0.33388 -0.23609,0.76556 0,1.0017 0.44518,0.44518 1.892,-0.77907 1.0017,1.0016 -2.0843,4.1687 0.0692,-1.0708 -2.0033,1.0017 -1.3355,1.3355 2.1248,0.96115 -1.0016,2.0033 -0.63351,0.21116 -1.406,-0.29864 -2.0033,0 -0.29863,0.14931 0.2361,0.76556 0,1.0016 -0.23609,0.2361 -0.76556,-0.23609 -1.0017,0 -2.0725,2.0725 3.167,-0.081 -1.0016,2.0033 -0.29864,0.14932 -0.76557,-0.2361 -1.0017,0 -0.47219,0.47218 0.66777,2.0033 0,2.0033 -0.33389,0 -0.29864,-1.151 0,-1.0017 0.84467,0.42234 1.3355,1.3356 2.0033,2.0033 0.66778,0.66777 1.4795,1.2176 2.0033,2.0033 0.18521,0.27781 0,0.66778 0,1.0017 0,0.52379 0.13169,3.7432 0,4.0066 -0.42234,0.84467 -1.581,1.1586 -2.0033,2.0033 -0.14931,0.29863 0.2361,0.76556 0,1.0016 -0.23609,0.2361 -0.76556,-0.23609 -1.0016,0 -0.2361,0.2361 0,0.66778 0,1.0017 0,3.0541 1.0152,0.0136 2.0033,1.0017 0.0322,0.0322 0,2.762 0,3.005 0,0.33389 0.2361,0.76557 0,1.0017 -0.23609,0.23609 -0.70302,-0.14932 -1.0017,0 -0.42233,0.21117 -0.57932,0.79049 -1.0016,1.0017 -0.29864,0.14931 -0.76557,-0.2361 -1.0017,0 -0.47219,0.47218 0.47219,1.5311 0,2.0033 -0.23609,0.23609 -0.70302,-0.14932 -1.0017,0 -0.42233,0.21117 -0.57932,0.79049 -1.0016,1.0017 -1.6694,0.83471 -1.0017,-2.0033 -1.0017,2.0033 0,0.33389 -0.2361,0.76557 0,1.0017 0.47218,0.47219 1.406,-0.29864 2.0033,0 0.42234,0.21117 0.79049,0.57932 1.0017,1.0017 0.16533,0.33066 0.0287,4.9509 0,5.0083 -0.21117,0.42233 -0.79049,0.57932 -1.0017,1.0016 -0.14932,0.29864 0.2361,0.76557 0,1.0017 -0.23609,0.23609 -0.66777,0 -1.0016,0 -0.33389,0.33389 -0.73974,0.60878 -1.0017,1.0017 -0.41414,0.6212 -0.47374,1.4754 -1.0017,2.0033 -0.44518,0.44518 -1.892,-0.77906 -1.0017,1.0017 0.21117,0.42234 0.66777,0.66777 1.0017,1.0017 0.66777,0.66777 1.2176,1.4795 2.0033,2.0033 0.2778,0.18521 0.76556,-0.23609 1.0016,0 0.14126,0.14126 0.10274,2.7995 0,3.005 -0.42233,0.84468 -1.581,1.1586 -2.0033,2.0033 -0.34594,0.69188 0.3516,4.6567 0,5.0083 -0.2361,0.23609 -0.70302,-0.14932 -1.0017,0 -0.42234,0.21116 -0.57932,0.79049 -1.0017,1.0016 -0.29863,0.14932 -0.76556,-0.23609 -1.0016,0 -0.2361,0.2361 0,0.66778 0,1.0017 0,0.90286 0.21014,4.3778 0,5.0083 -0.2361,0.70828 -0.38046,1.5892 -1.0017,2.0033 -0.55562,0.37042 -1.406,-0.29863 -2.0033,0 -0.29863,0.14932 0,0.66778 0,1.0017 0,0.33389 -0.23609,0.76557 0,1.0017 0.2361,0.23609 0.66777,0 1.0017,0 0.55908,0 4.5498,0.15284 5.0083,0 3.1265,-1.0422 -0.33389,-0.66777 1.0017,-2.0033 0.23609,-0.23609 0.70302,0.14932 1.0016,0 0.84467,-0.42233 1.1586,-1.581 2.0033,-2.0033 0.29863,-0.14932 0.76556,0.23609 1.0016,0 0.2361,-0.23609 -0.23609,-0.76557 0,-1.0017 0.2361,-0.23609 0.76557,0.23609 1.0017,0 0.2361,-0.23609 -0.14932,-0.70302 0,-1.0017 0.21117,-0.42233 1.0017,-0.52947 1.0017,-1.0016 0,-0.33389 -0.66777,0 -1.0017,0 l -1.0017,0 c -1.3744,0 -3.2429,0.52584 -4.0066,-1.0017 -0.14932,-0.29864 -0.14932,-0.70302 0,-1.0017 0.21116,-0.42233 0.66777,-0.66777 1.0016,-1.0017 0.33389,-0.33388 0.57932,-0.79049 1.0017,-1.0016 0.29864,-0.14932 0.76556,0.23609 1.0017,0 2.0725,-2.0725 -3.167,0.081 1.0016,-2.0033 0.29864,-0.14932 0.76557,0.2361 1.0017,0 0.52792,-0.52792 0.58753,-1.3821 1.0017,-2.0033 0.26192,-0.39289 0.79049,-0.57932 1.0017,-1.0017 0.29863,-0.59727 -0.47219,-1.5311 0,-2.0033 0.23609,-0.23609 0.70302,0.14932 1.0016,0 0.42234,-0.21116 0.66778,-0.66777 1.0017,-1.0016 0.66777,0 1.3698,0.21117 2.0033,0 3.1265,-1.0422 -0.33389,-0.66777 1.0016,-2.0033 0.0622,-2.8204 2.2584,-0.25506 3.005,-1.0016 0.23609,-0.2361 0,-0.66778 0,-1.0017 l 0,-1.0017 c 0,-0.80637 0.20956,-3.3779 0,-4.0066 -0.2361,-0.70828 -0.76557,-1.295 -1.0017,-2.0033 -0.20957,-0.6287 0,-3.2003 0,-4.0066 0,-2.031 -0.43444,-4.5738 1.0017,-6.01 0.23609,-0.23609 0.76556,0.23609 1.0016,0 0.2361,-0.23609 -0.14931,-0.70302 0,-1.0017 0.21117,-0.42233 0.79049,-0.57932 1.0017,-1.0016 0.93619,-1.8724 -1.0389,-0.0745 -2.0033,-2.0033 -0.14932,-0.29864 0,-0.66777 0,-1.0017 l 0,-1.0016 c 0,-6.6442 -0.47219,1.4166 1.0016,-3.005 0.21117,-0.6335 -0.29863,-1.406 0,-2.0033 0.14932,-0.29864 0.76557,0.23609 1.0017,0 0.23609,-0.23609 0,-0.66777 0,-1.0017 l 0,-1.0017 0,-5.0083 c 0,-0.66777 -0.29863,-1.406 0,-2.0033 0.14932,-0.29863 0.70302,0.14932 1.0017,0 2.2147,-1.1074 0.31083,-0.62167 1.0017,-2.0033 0.42233,-0.84467 1.581,-1.1586 2.0033,-2.0033 0.14932,-0.29863 -0.33388,-1.0016 0,-1.0016 0.33389,0 0.33389,1.0016 0,1.0016 -0.74659,0 -1.295,-0.76556 -2.0033,-1.0016 -0.31676,-0.10559 -0.70302,0.14931 -1.0017,0 -0.42234,-0.21117 -0.79049,-0.57933 -1.0017,-1.0017 -0.19914,-0.39829 -7.8e-4,-4.0055 0,-4.0066 0.41414,-0.6212 1.4754,-0.47374 2.0033,-1.0017 0.23609,-0.23609 -0.2361,-0.76556 0,-1.0017 0.23609,-0.23609 0.76556,0.2361 1.0016,0 0.0642,-0.0642 1.8789,-3.82 2.0033,-4.0066 0.26192,-0.39288 0.79049,-0.57932 1.0017,-1.0016 0.93618,-1.8724 -1.0389,-0.0745 -2.0033,-2.0033 -0.14932,-0.29864 0.23609,-0.76556 0,-1.0017 -0.52792,-0.52792 -1.4754,-0.47373 -2.0033,-1.0016 -0.2361,-0.2361 0,-0.66778 0,-1.0017 l 0,-1.0017 c 0,-0.52379 -0.13169,-3.7432 0,-4.0066 0.21116,-0.42233 0.66777,-0.66777 1.0016,-1.0017 0.33389,-0.33388 0.60878,-0.73973 1.0017,-1.0016 0.6212,-0.41414 1.3821,-0.58753 2.0033,-1.0017 1.9843,0.1 0.47373,-1.4754 1.0016,-2.0033 0.2361,-0.23609 0.76557,0.2361 1.0017,0 0.23609,-0.23609 0,-0.66777 0,-1.0016 0,-0.33389 0.23609,-0.76557 0,-1.0017 -0.23609,-0.23609 -0.76556,0.23609 -1.0017,0 -0.23609,-0.23609 0.2361,-0.76557 0,-1.0017 -0.23609,-0.23609 -0.76556,0.23609 -1.0016,0 -0.2361,-0.23609 0.23609,-0.76556 0,-1.0017 -2.0725,-2.0725 0.081,3.167 -2.0033,-1.0016 -0.18112,-0.36224 0,-4.3116 0,-5.0083 0,-0.70998 -0.12949,-5.751 0,-6.0099 0.21117,-0.42234 0.79049,-0.57933 1.0017,-1.0017 0.14932,-0.29864 -0.14932,-0.70302 0,-1.0017 0.21117,-0.42234 0.79049,-0.57932 1.0017,-1.0017 0.29863,-0.59727 -0.47219,-1.5311 0,-2.0033 0.23609,-0.2361 0.76556,0.23609 1.0016,0 0.2361,-0.2361 -0.23609,-0.76557 0,-1.0017 0.21959,-0.21959 2.6605,0.22965 3.005,0 0.78576,-0.52384 1.2176,-1.4795 2.0033,-2.0033 0.55562,-0.37042 1.5311,0.47218 2.0033,0 0.23609,-0.2361 -0.33389,-1.0017 0,-1.0017 0.33388,0 0,1.3355 0,1.0017 0,-0.7353 0.1746,-5.6608 0,-6.01 -0.21117,-0.42233 -0.79049,-0.57932 -1.0017,-1.0017 -0.14932,-0.29863 0,-0.66777 0,-1.0016 0,-1.4909 0.14932,-1.2785 -1.0017,-3.005 0.1,-1.9843 -1.4754,-0.47373 -2.0033,-1.0016 -0.2361,-0.2361 0,-0.66778 0,-1.0017 l 0,-1.0017 c 0,-1.3744 -0.52585,-3.2429 1.0016,-4.0066 0.29864,-0.14932 0.76557,0.23609 1.0017,0 0.23609,-0.23609 -0.23609,-0.76556 0,-1.0017 0.23609,-0.23609 0.70302,0.14932 1.0017,0 0.42233,-0.21116 0.57932,-0.79049 1.0017,-1.0016 0.29863,-0.14932 0.76556,0.23609 1.0016,0 0.2361,-0.2361 -0.33388,-1.0017 0,-1.0017 0.33389,0 0,1.3355 0,1.0017 l 0,-7.0116 0,-5.0083 c 0,-0.33389 0.2361,-0.76557 0,-1.0017 -2.0725,-2.0725 0.081,3.167 -2.0033,-1.0017 -0.14932,-0.29863 0,-0.66777 0,-1.0016 0,-2.2537 -0.33389,0.16694 2.0033,-1.0017 0.29864,-0.14932 -0.23609,-0.76557 0,-1.0017 0.2361,-0.23609 0.70302,0.14932 1.0017,0 1.3903,-0.69517 1.0017,-1.7823 1.0017,-3.005 0,-2.3491 0.23609,0.47218 -1.0017,-2.0033 -0.69082,-1.3816 1.2131,-0.89595 -1.0017,-2.0033 -0.29863,-0.14932 -0.76556,0.23609 -1.0016,0 -0.2361,-0.23609 0,-0.66777 0,-1.0017 l 0,-6.0099 c 0,-0.33389 -0.14932,-0.70302 0,-1.0017 0.21116,-0.42234 0.79049,-0.57932 1.0016,-1.0017 0.14932,-0.29864 0,-0.66777 0,-1.0017 0,-2.263 0.14932,0.44796 -1.0016,-3.005 -0.10559,-0.31675 0.14931,-0.70302 0,-1.0017 -0.21117,-0.42233 -0.79049,-0.57932 -1.0017,-1.0016 -0.14932,-0.29864 0,-0.66778 0,-1.0017 0,-0.33389 -0.14932,-0.70302 0,-1.0017 0.49283,-0.98566 3.5138,-3.021 4.0066,-4.0066 0.14932,-0.29863 -0.23609,-0.76556 0,-1.0017 0.23609,-0.23609 0.70302,0.14932 1.0017,0 0.65156,-0.32578 1.4162,-1.1743 1.0016,-2.0033 -0.21116,-0.42234 -0.79049,-0.57932 -1.0016,-1.0017 -0.14932,-0.29863 0.23609,-0.76556 0,-1.0017 -0.2361,-0.23609 -0.76557,0.2361 -1.0017,0 -0.20478,-0.20477 0.19857,-2.6078 0,-3.005 -0.82899,-1.658 -1.9136,-0.26907 -1.0017,-3.005 0.29864,-0.89591 1.581,-1.1586 2.0033,-2.0033 0.14931,-0.29864 0,-0.66778 0,-1.0017 l 0,-2.0033 c 0,-0.33388 0.23609,-0.76556 0,-1.0016 -0.2361,-0.2361 -0.85234,0.29863 -1.0017,0 -0.29864,-0.59728 0,-1.3356 0,-2.0033 0,-0.33389 0.23609,-0.76556 0,-1.0017 -0.23609,-0.23609 -0.76557,0.2361 -1.0017,0 -2.8204,-0.0622 -0.25507,-2.2584 -1.0017,-3.005 -0.23609,-0.23609 -0.76556,0.23609 -1.0016,0 -0.50083,-0.50083 0.50082,-2.5041 0,-3.005 -0.47219,-0.47219 -1.406,0.29863 -2.0033,0 -2.2147,-1.1074 -0.31083,-0.62167 -1.0017,-2.0033 -0.21116,-0.42233 -0.85234,-0.5537 -1.0016,-1.0016 -0.21117,-0.63351 0,-1.3356 0,-2.0033 l 0,-1.0017 c 0,-0.33388 -0.2361,-0.76556 0,-1.0016 0.23609,-0.2361 0.70302,0.14931 1.0016,0 0.26595,-0.13298 2.872,-2.739 3.005,-3.005 0.14931,-0.29863 0,-0.66777 0,-1.0016 l 0,-1.0017 0,-1.0017 c 0,-0.33388 0.14931,-0.70302 0,-1.0017 -0.21117,-0.42233 -0.66778,-0.66777 -1.0017,-1.0016 -0.33389,-0.33389 -0.57932,-0.79049 -1.0017,-1.0017 -0.29864,-0.14932 -0.76556,0.23609 -1.0017,0 -0.47218,-0.47219 0.47219,-1.5311 0,-2.0033 -0.23609,-0.23609 -0.76556,0.2361 -1.0016,0 -0.2361,-0.23609 0.14931,-0.70302 0,-1.0016 -0.21117,-0.42234 -0.79049,-0.57932 -1.0017,-1.0017 -0.14932,-0.29864 0.3274,-1.0671 0,-1.0017 -1.7631,0.35262 -4.2042,3.6115 -5.0083,2.0033 -0.84467,-1.6894 2.8267,-2.5318 4.0066,-4.0066 0.20858,-0.26072 0,-0.66777 0,-1.0017 l 0,-1.0017 c 0,-2.1352 0.56974,-6.4419 -1.0017,-8.0133 -0.69082,-0.69082 -1.8729,0.74088 -2.0033,1.0017 -0.29864,0.59727 0.47218,1.5311 0,2.0033 -0.23609,0.23609 -0.76557,-0.2361 -1.0017,0 -1.2455,1.2455 -1.0017,2.5185 -1.0017,4.0066 0,0.33389 0.14932,0.70303 0,1.0017 -0.21116,0.42234 -0.79049,0.57932 -1.0016,1.0017 -0.5686,1.1372 1.9922,4.9861 2.0033,5.0083 z"
           id="path2989" />
        <path
           inkscape:connector-curvature="0"
           style="fill:#000000;fill-opacity:1"
           d="m 232.88,382.21 c 2.0403,-3.0327 2.0033,-3.3532 2.0033,-6.0099 0,-0.33389 -0.23609,-0.76557 0,-1.0017 0.2361,-0.23609 0.76557,0.23609 1.0017,0 0.50083,-0.50083 -0.50083,-2.5041 0,-3.005 0.23609,-0.23609 0.76557,0.23609 1.0017,0 0.23609,-0.23609 -0.14932,-0.70302 0,-1.0017 0.21117,-0.42233 0.79049,-0.57932 1.0017,-1.0017 0.14931,-0.29863 -0.2361,-0.76556 0,-1.0016 0.23609,-0.2361 0.76556,0.23609 1.0016,0 0.47219,-0.47219 -0.29863,-1.406 0,-2.0033 0.21117,-0.42233 0.79049,-0.57932 1.0017,-1.0017 0.29864,-0.59727 -0.47219,-1.5311 0,-2.0033 0.23609,-0.23609 0.85234,0.29864 1.0017,0 0.29863,-0.59727 -0.29864,-1.406 0,-2.0033 0.14932,-0.29863 0.76556,0.2361 1.0017,0 0.23609,-0.23609 -0.14932,-0.70302 0,-1.0016 0.13039,-0.26078 1.7847,-1.2203 1.0016,-2.0033 -0.23609,-0.23609 -0.70302,0.14932 -1.0016,0 -0.42234,-0.21117 -0.57933,-0.79049 -1.0017,-1.0017 -0.29864,-0.14931 -0.70302,0.14932 -1.0017,0 -1.202,-0.60099 -1.803,-2.404 -3.005,-3.005 -0.59727,-0.29863 -1.5311,0.47219 -2.0033,0 -0.10016,-0.10016 -0.10016,-2.9048 0,-3.005 0.2361,-0.23609 0.70302,0.14932 1.0017,0 2.2147,-1.1074 0.31084,-0.62167 1.0017,-2.0033 0.42233,-0.84467 1.581,-1.1586 2.0033,-2.0033 0.14932,-0.29864 -0.14931,-0.70302 0,-1.0017 0.42234,-0.84467 1.7047,-1.1074 2.0033,-2.0033 0.31675,-0.95026 0,-2.0033 0,-3.005 l 0,-1.0017 c 0,-0.33389 0.14932,-0.70302 0,-1.0017 -0.21117,-0.42234 -0.79049,-0.57932 -1.0017,-1.0017 -0.14932,-0.29863 0.10558,-0.6849 0,-1.0016 -0.23609,-0.70828 -0.76556,-1.295 -1.0017,-2.0033 -0.20956,-0.62869 0,-3.2003 0,-4.0066 l 0,-1.0017 c 0,-0.33388 -0.23609,-0.76556 0,-1.0016 0.2361,-0.2361 0.76557,0.23609 1.0017,0 0.23609,-0.2361 -0.23609,-0.76557 0,-1.0017 0.23609,-0.23609 0.66777,0 1.0017,0 0,-0.33389 -0.14932,-0.70302 0,-1.0017 0.27828,-0.55655 2.0033,-1.6803 2.0033,-2.0033 0,-0.47219 -1.3355,-0.66778 -1.0016,-1.0017 0.33388,-0.33389 1.0016,1.4738 1.0016,1.0017 0,-0.7466 -0.76556,-1.295 -1.0016,-2.0033 -0.99393,-2.9818 2.3718,2.0552 -1.0017,-3.005 -0.26192,-0.39288 -0.57932,-0.79049 -1.0017,-1.0017 -0.29864,-0.14932 -1.0017,0.33389 -1.0017,0 0,-0.33388 1.0017,0.33389 1.0017,0 0,-1.6289 -1.8769,-0.25287 -1.0017,-2.0033 0.83496,-1.6699 2.0033,-0.45259 2.0033,-3.005 0,-0.33388 0.14932,-0.70302 0,-1.0016 -2.0843,-4.1687 0.0692,1.0708 -2.0033,-1.0017 -0.47218,-0.47219 0.29864,-1.406 0,-2.0033 -2.0843,-4.1686 0.0692,1.0708 -2.0033,-1.0016 -0.14126,-0.14126 -0.10274,-2.7995 0,-3.005 0.21117,-0.42233 0.79049,-0.57932 1.0017,-1.0016 0.14931,-0.29864 -0.2361,-0.76557 0,-1.0017 0.23609,-0.23609 0.76556,0.23609 1.0016,0 0.2361,-0.23609 -0.33388,-1.0017 0,-1.0017 0.33389,0 0,1.3356 0,1.0017 0,-0.39597 -0.21389,-4.5805 0,-5.0083 0.21117,-0.42233 0.57932,-0.79049 1.0017,-1.0016 0.6391,-0.31955 4.3922,0.30805 5.0083,0 0.29863,-0.14932 -0.23609,-0.76557 0,-1.0017 0.23609,-0.2361 0.76556,0.23609 1.0017,0 0.23609,-0.2361 -0.14932,-0.70302 0,-1.0017 0.21116,-0.42234 0.79048,-0.57932 1.0016,-1.0016 0.14932,-0.29863 0,-0.66777 0,-1.0016 0,-2.4755 0.47219,-1.5311 -1.0016,-3.005 -0.33389,-0.33388 -0.57933,-0.79049 -1.0017,-1.0016 -0.29864,-0.14932 -0.76557,0.23609 -1.0017,0 -0.23609,-0.2361 0.23609,-0.76557 0,-1.0017 -0.23609,-0.23609 -0.70302,0.14932 -1.0017,0 -0.26595,-0.13298 -2.872,-2.739 -3.005,-3.005 -0.13169,-0.26338 0,-3.4828 0,-4.0066 0,-0.24293 -0.0322,-2.9728 0,-3.005 0.23609,-0.23609 0.76557,0.2361 1.0017,0 0.23609,-0.23609 0,-0.66777 0,-1.0016 0,-0.6967 -0.18112,-4.6461 0,-5.0083 0.21117,-0.42234 0.79049,-0.57932 1.0017,-1.0017 0.14931,-0.29863 -0.2361,-0.76556 0,-1.0017 0.52792,-0.52792 1.295,-0.76556 2.0033,-1.0016 0.31675,-0.10559 0.76557,0.23609 1.0017,0 0.23609,-0.2361 0.23609,-0.76557 0,-1.0017 -0.23609,-0.23609 -0.76557,0.23609 -1.0017,0 -0.23609,-0.23609 0.23609,-0.76556 0,-1.0017 -0.23609,-0.23609 -0.76556,0.2361 -1.0017,0 -0.23609,-0.23609 -0.23609,-0.76556 0,-1.0017 0.2361,-0.23609 0.76557,0.2361 1.0017,0 0.23609,-0.23609 -0.23609,-0.76556 0,-1.0016 0.47219,-0.47219 1.406,0.29863 2.0033,0 0.65156,-0.32579 1.4162,-1.1743 1.0016,-2.0033 -0.21117,-0.42233 -0.79049,-0.57932 -1.0016,-1.0017 -0.14932,-0.29863 0.23609,-0.76556 0,-1.0016 -0.2361,-0.2361 -0.70303,0.14932 -1.0017,0 -0.42234,-0.21117 -0.57932,-0.79049 -1.0017,-1.0017 -0.29864,-0.14932 -0.76556,0.23609 -1.0017,0 -0.23609,-0.23609 0.14932,-0.70302 0,-1.0017 -0.21116,-0.42233 -0.79049,-0.57932 -1.0016,-1.0016 -0.14932,-0.29864 0.23609,-0.76557 0,-1.0017 -0.2361,-0.2361 -0.76557,0.23609 -1.0017,0 -0.23609,-0.2361 -0.23609,-0.76557 0,-1.0017 0.23609,-0.23609 0.66777,0 1.0017,0 l 1.0016,0 c 0.42136,0 5.712,0.14898 6.01,0 0.42233,-0.21117 0.79049,-0.57932 1.0017,-1.0017 0.0427,-0.0854 0.0427,-3.9212 0,-4.0066 -0.21117,-0.42233 -0.79049,-0.57932 -1.0017,-1.0016 -0.14932,-0.29864 0,-0.66778 0,-1.0017 -0.33389,-0.33389 -0.79049,-0.57932 -1.0017,-1.0017 -0.13169,-0.26338 0,-3.4828 0,-4.0066 l 0,-1.0017 c 0,-0.33388 -0.33389,-1.0016 0,-1.0016 0.33389,0 0,1.3355 0,1.0016 l 0,-2.0033 c 0,-0.33389 -0.33389,-1.0017 0,-1.0017 0.33389,0 0.33389,1.0017 0,1.0017 -0.47219,0 -0.66777,-0.66777 -1.0017,-1.0017 -0.33388,-0.33388 -0.79049,-0.57932 -1.0016,-1.0017 -0.14054,-0.28107 -0.14054,-3.7256 0,-4.0066 0.21116,-0.42233 0.79048,-0.57932 1.0016,-1.0016 0.14932,-0.29864 0,-0.66778 0,-1.0017 0,-0.33389 0.2361,-0.76557 0,-1.0017 -2.0725,-2.0725 0.081,3.167 -2.0033,-1.0017 -0.14932,-0.29863 0,-0.66777 0,-1.0016 l 0,-1.0017 0,-5.0083 c 0,-0.33388 0.23609,-0.76556 0,-1.0017 -0.44518,-0.44518 -1.892,0.77907 -1.0017,-1.0016 2.0843,-4.1687 -0.0692,1.0708 2.0033,-1.0017 1.3355,-1.3355 -2.1248,-0.96115 1.0016,-2.0033 0.63351,-0.21116 1.406,0.29864 2.0033,0 0.29863,-0.14931 -0.2361,-0.76556 0,-1.0016 0.23609,-0.2361 0.76556,0.23609 1.0017,0 2.0725,-2.0725 -3.167,0.081 1.0016,-2.0033 0.29864,-0.14932 0.76557,0.2361 1.0017,0 0.47219,-0.47218 -0.66777,-2.0033 0,-2.0033 0.33389,0 0.29864,1.151 0,1.0017 -0.84467,-0.42234 -1.3355,-1.3356 -2.0033,-2.0033 -0.66778,-0.66777 -1.4795,-1.2176 -2.0033,-2.0033 -0.18521,-0.27781 0,-0.66778 0,-1.0017 0,-0.52379 -0.13169,-3.7432 0,-4.0066 0.42234,-0.84467 1.581,-1.1586 2.0033,-2.0033 0.14931,-0.29863 -0.2361,-0.76556 0,-1.0016 0.23609,-0.2361 0.76556,0.23609 1.0016,0 0.2361,-0.2361 0,-0.66778 0,-1.0017 0,-3.0541 -1.0152,-0.0136 -2.0033,-1.0017 -0.0322,-0.0322 0,-2.762 0,-3.005 0,-0.33389 -0.2361,-0.76557 0,-1.0017 0.23609,-0.23609 0.70302,0.14932 1.0017,0 0.42233,-0.21117 0.57932,-0.79049 1.0016,-1.0017 0.29864,-0.14931 0.76557,0.2361 1.0017,0 0.47219,-0.47218 -0.47219,-1.5311 0,-2.0033 0.23609,-0.23609 0.70302,0.14932 1.0017,0 0.42233,-0.21117 0.57932,-0.79049 1.0016,-1.0017 1.6694,-0.83471 1.0017,2.0033 1.0017,-2.0033 0,-0.33389 0.2361,-0.76557 0,-1.0017 -0.47218,-0.47219 -1.406,0.29864 -2.0033,0 -0.42234,-0.21117 -0.79049,-0.57932 -1.0017,-1.0017 -0.16533,-0.33066 -0.0287,-4.9509 0,-5.0083 0.21117,-0.42233 0.79049,-0.57932 1.0017,-1.0016 0.14932,-0.29864 -0.2361,-0.76557 0,-1.0017 0.23609,-0.23609 0.66777,0 1.0016,0 0.33389,-0.33389 0.73974,-0.60878 1.0017,-1.0017 0.41414,-0.6212 0.47374,-1.4754 1.0017,-2.0033 0.44518,-0.44518 1.892,0.77906 1.0017,-1.0017 -0.21117,-0.42234 -0.66777,-0.66777 -1.0017,-1.0017 -0.66777,-0.66777 -1.2176,-1.4795 -2.0033,-2.0033 -0.2778,-0.18521 -0.76556,0.23609 -1.0016,0 -0.14126,-0.14126 -0.10274,-2.7995 0,-3.005 0.42233,-0.84468 1.581,-1.1586 2.0033,-2.0033 0.34594,-0.69188 -0.3516,-4.6567 0,-5.0083 0.2361,-0.23609 0.70302,0.14932 1.0017,0 0.42234,-0.21116 0.57932,-0.79049 1.0017,-1.0016 0.29863,-0.14932 0.76556,0.23609 1.0016,0 0.2361,-0.2361 0,-0.66778 0,-1.0017 0,-0.90286 -0.21014,-4.3778 0,-5.0083 0.2361,-0.70828 0.38046,-1.5892 1.0017,-2.0033 0.55562,-0.37042 1.406,0.29863 2.0033,0 0.29863,-0.14932 0,-0.66778 0,-1.0017 0,-0.33389 0.23609,-0.76557 0,-1.0017 -0.2361,-0.23609 -0.66777,0 -1.0017,0 -0.55908,0 -4.5498,-0.15284 -5.0083,0 -3.1265,1.0422 0.33389,0.66777 -1.0017,2.0033 -0.23609,0.23609 -0.70302,-0.14932 -1.0016,0 -0.84467,0.42233 -1.1586,1.581 -2.0033,2.0033 -0.29863,0.14932 -0.76556,-0.23609 -1.0016,0 -0.2361,0.23609 0.23609,0.76557 0,1.0017 -0.2361,0.23609 -0.76557,-0.23609 -1.0017,0 -0.2361,0.23609 0.14932,0.70302 0,1.0017 -0.21117,0.42233 -1.0017,0.52947 -1.0017,1.0016 0,0.33389 0.66777,0 1.0017,0 l 1.0017,0 c 1.3744,0 3.2429,-0.52584 4.0066,1.0017 0.14932,0.29864 0.14932,0.70302 0,1.0017 -0.21116,0.42233 -0.66777,0.66777 -1.0016,1.0017 -0.33389,0.33388 -0.57932,0.79049 -1.0017,1.0016 -0.29864,0.14932 -0.76556,-0.23609 -1.0017,0 -2.0725,2.0725 3.167,-0.081 -1.0016,2.0033 -0.29864,0.14932 -0.76557,-0.2361 -1.0017,0 -0.52792,0.52792 -0.58753,1.3821 -1.0017,2.0033 -0.26192,0.39289 -0.79049,0.57932 -1.0017,1.0017 -0.29863,0.59727 0.47219,1.5311 0,2.0033 -0.23609,0.23609 -0.70302,-0.14932 -1.0016,0 -0.42234,0.21116 -0.66778,0.66777 -1.0017,1.0016 -0.66777,0 -1.3698,-0.21117 -2.0033,0 -3.1265,1.0422 0.33389,0.66777 -1.0016,2.0033 -0.0622,2.8204 -2.2584,0.25506 -3.005,1.0016 -0.23609,0.2361 0,0.66778 0,1.0017 l 0,1.0017 c 0,0.80637 -0.20956,3.3779 0,4.0066 0.2361,0.70828 0.76557,1.295 1.0017,2.0033 0.20957,0.6287 0,3.2003 0,4.0066 0,2.031 0.43444,4.5738 -1.0017,6.01 -0.23609,0.23609 -0.76556,-0.23609 -1.0016,0 -0.2361,0.23609 0.14931,0.70302 0,1.0017 -0.21117,0.42233 -0.79049,0.57932 -1.0017,1.0016 -0.93619,1.8724 1.0389,0.0745 2.0033,2.0033 0.14932,0.29864 0,0.66777 0,1.0017 l 0,1.0016 c 0,6.6442 0.47219,-1.4166 -1.0016,3.005 -0.21117,0.6335 0.29863,1.406 0,2.0033 -0.14932,0.29864 -0.76557,-0.23609 -1.0017,0 -0.23609,0.23609 0,0.66777 0,1.0017 l 0,1.0017 0,5.0083 c 0,0.66777 0.29863,1.406 0,2.0033 -0.14932,0.29863 -0.70302,-0.14932 -1.0017,0 -2.2147,1.1074 -0.31083,0.62167 -1.0017,2.0033 -0.42233,0.84467 -1.581,1.1586 -2.0033,2.0033 -0.14932,0.29863 0.33388,1.0016 0,1.0016 -0.33389,0 -0.33389,-1.0016 0,-1.0016 0.74659,0 1.295,0.76556 2.0033,1.0016 0.31676,0.10559 0.70302,-0.14931 1.0017,0 0.42234,0.21117 0.79049,0.57933 1.0017,1.0017 0.19914,0.39829 7.8e-4,4.0055 0,4.0066 -0.41414,0.6212 -1.4754,0.47374 -2.0033,1.0017 -0.23609,0.23609 0.2361,0.76556 0,1.0017 -0.23609,0.23609 -0.76556,-0.2361 -1.0016,0 -0.0642,0.0642 -1.8789,3.82 -2.0033,4.0066 -0.26192,0.39288 -0.79049,0.57932 -1.0017,1.0016 -0.93618,1.8724 1.0389,0.0745 2.0033,2.0033 0.14932,0.29864 -0.23609,0.76556 0,1.0017 0.52792,0.52792 1.4754,0.47373 2.0033,1.0016 0.2361,0.2361 0,0.66778 0,1.0017 l 0,1.0017 c 0,0.52379 0.13169,3.7432 0,4.0066 -0.21116,0.42233 -0.66777,0.66777 -1.0016,1.0017 -0.33389,0.33388 -0.60878,0.73973 -1.0017,1.0016 -0.6212,0.41414 -1.3821,0.58753 -2.0033,1.0017 -1.9843,-0.1 -0.47373,1.4754 -1.0016,2.0033 -0.2361,0.23609 -0.76557,-0.2361 -1.0017,0 -0.23609,0.23609 0,0.66777 0,1.0016 0,0.33389 -0.23609,0.76557 0,1.0017 0.23609,0.23609 0.76556,-0.23609 1.0017,0 0.23609,0.23609 -0.2361,0.76557 0,1.0017 0.23609,0.23609 0.76556,-0.23609 1.0016,0 0.2361,0.23609 -0.23609,0.76556 0,1.0017 2.0725,2.0725 -0.081,-3.167 2.0033,1.0016 0.18112,0.36224 0,4.3116 0,5.0083 0,0.70998 0.12949,5.751 0,6.0099 -0.21117,0.42234 -0.79049,0.57933 -1.0017,1.0017 -0.14932,0.29864 0.14932,0.70302 0,1.0017 -0.21117,0.42234 -0.79049,0.57932 -1.0017,1.0017 -0.29863,0.59727 0.47219,1.5311 0,2.0033 -0.23609,0.2361 -0.76556,-0.23609 -1.0016,0 -0.2361,0.2361 0.23609,0.76557 0,1.0017 -0.21959,0.21959 -2.6605,-0.22965 -3.005,0 -0.78576,0.52384 -1.2176,1.4795 -2.0033,2.0033 -0.55562,0.37042 -1.5311,-0.47218 -2.0033,0 -0.23609,0.2361 0.33389,1.0017 0,1.0017 -0.33388,0 0,-1.3355 0,-1.0017 0,0.7353 -0.1746,5.6608 0,6.01 0.21117,0.42233 0.79049,0.57932 1.0017,1.0017 0.14932,0.29863 0,0.66777 0,1.0016 0,1.4909 -0.14932,1.2785 1.0017,3.005 -0.1,1.9843 1.4754,0.47373 2.0033,1.0016 0.2361,0.2361 0,0.66778 0,1.0017 l 0,1.0017 c 0,1.3744 0.52585,3.2429 -1.0016,4.0066 -0.29864,0.14932 -0.76557,-0.23609 -1.0017,0 -0.23609,0.23609 0.23609,0.76556 0,1.0017 -0.23609,0.23609 -0.70302,-0.14932 -1.0017,0 -0.42233,0.21116 -0.57932,0.79049 -1.0017,1.0016 -0.29863,0.14932 -0.76556,-0.23609 -1.0016,0 -0.2361,0.2361 0.33388,1.0017 0,1.0017 -0.33389,0 0,-1.3355 0,-1.0017 l 0,7.0116 0,5.0083 c 0,0.33389 -0.2361,0.76557 0,1.0017 2.0725,2.0725 -0.081,-3.167 2.0033,1.0017 0.14932,0.29863 0,0.66777 0,1.0016 0,2.2537 0.33389,-0.16694 -2.0033,1.0017 -0.29864,0.14932 0.23609,0.76557 0,1.0017 -0.2361,0.23609 -0.70302,-0.14932 -1.0017,0 -1.3903,0.69517 -1.0017,1.7823 -1.0017,3.005 0,2.3491 -0.23609,-0.47218 1.0017,2.0033 0.69082,1.3816 -1.2131,0.89595 1.0017,2.0033 0.29863,0.14932 0.76556,-0.23609 1.0016,0 0.2361,0.23609 0,0.66777 0,1.0017 l 0,6.0099 c 0,0.33389 0.14932,0.70302 0,1.0017 -0.21116,0.42234 -0.79049,0.57932 -1.0016,1.0017 -0.14932,0.29864 0,0.66777 0,1.0017 0,2.263 -0.14932,-0.44796 1.0016,3.005 0.10559,0.31675 -0.14931,0.70302 0,1.0017 0.21117,0.42233 0.79049,0.57932 1.0017,1.0016 0.14932,0.29864 0,0.66778 0,1.0017 0,0.33389 0.14932,0.70302 0,1.0017 -0.49283,0.98566 -3.5138,3.021 -4.0066,4.0066 -0.14932,0.29863 0.23609,0.76556 0,1.0017 -0.23609,0.23609 -0.70302,-0.14932 -1.0017,0 -0.65156,0.32578 -1.4162,1.1743 -1.0016,2.0033 0.21116,0.42234 0.79049,0.57932 1.0016,1.0017 0.14932,0.29863 -0.23609,0.76556 0,1.0017 0.2361,0.23609 0.76557,-0.2361 1.0017,0 0.20478,0.20477 -0.19857,2.6078 0,3.005 0.82899,1.658 1.9136,0.26907 1.0017,3.005 -0.29864,0.89591 -1.581,1.1586 -2.0033,2.0033 -0.14931,0.29864 0,0.66778 0,1.0017 l 0,2.0033 c 0,0.33388 -0.23609,0.76556 0,1.0016 0.2361,0.2361 0.85234,-0.29863 1.0017,0 0.29864,0.59728 0,1.3356 0,2.0033 0,0.33389 -0.23609,0.76556 0,1.0017 0.23609,0.23609 0.76557,-0.2361 1.0017,0 2.8204,0.0622 0.25507,2.2584 1.0017,3.005 0.23609,0.23609 0.76556,-0.23609 1.0016,0 0.50083,0.50083 -0.50082,2.5041 0,3.005 0.47219,0.47219 1.406,-0.29863 2.0033,0 2.2147,1.1074 0.31083,0.62167 1.0017,2.0033 0.21116,0.42233 0.85234,0.5537 1.0016,1.0016 0.21117,0.63351 0,1.3356 0,2.0033 l 0,1.0017 c 0,0.33388 0.2361,0.76556 0,1.0016 -0.23609,0.2361 -0.70302,-0.14931 -1.0016,0 -0.26595,0.13298 -2.872,2.739 -3.005,3.005 -0.14931,0.29863 0,0.66777 0,1.0016 l 0,1.0017 0,1.0017 c 0,0.33388 -0.14931,0.70302 0,1.0017 0.21117,0.42233 0.66778,0.66777 1.0017,1.0016 0.33389,0.33389 0.57932,0.79049 1.0017,1.0017 0.29864,0.14932 0.76556,-0.23609 1.0017,0 0.47218,0.47219 -0.47219,1.5311 0,2.0033 0.23609,0.23609 0.76556,-0.2361 1.0016,0 0.2361,0.23609 -0.14931,0.70302 0,1.0016 0.21117,0.42234 0.79049,0.57932 1.0017,1.0017 0.14932,0.29864 -0.3274,1.0671 0,1.0017 1.7631,-0.35262 4.2042,-3.6115 5.0083,-2.0033 0.84467,1.6894 -2.8267,2.5318 -4.0066,4.0066 -0.20858,0.26072 0,0.66777 0,1.0017 l 0,1.0017 c 0,2.1352 -0.56974,6.4419 1.0017,8.0133 0.69082,0.69082 1.8729,-0.74088 2.0033,-1.0017 0.29864,-0.59727 -0.47218,-1.5311 0,-2.0033 0.23609,-0.23609 0.76557,0.2361 1.0017,0 1.2455,-1.2455 1.0017,-2.5185 1.0017,-4.0066 0,-0.33389 -0.14932,-0.70303 0,-1.0017 0.21116,-0.42234 0.79049,-0.57932 1.0016,-1.0017 0.5686,-1.1372 -1.9922,-4.9861 -2.0033,-5.0083 z"
           id="path2989-1" />
        <path
           inkscape:connector-curvature="0"
           style="fill:#000000;fill-opacity:1"
           d="m 296.62,172.32 c -2.1707,2.9408 -2.1477,3.2627 -2.2636,5.9168 -0.0145,0.33358 0.20248,0.77514 -0.0434,1.0007 -0.24619,0.22556 -0.75456,-0.26926 -1.0007,-0.0434 -0.5222,0.47852 0.39113,2.5236 -0.1311,3.0021 -0.24616,0.22556 -0.75454,-0.26926 -1.0007,-0.0434 -0.24616,0.22557 0.11851,0.70887 -0.0434,1.0007 -0.2294,0.41272 -0.81501,0.54429 -1.0444,0.95702 -0.16219,0.29184 0.20249,0.77513 -0.0434,1.0007 -0.24618,0.22558 -0.75454,-0.26926 -1.0007,-0.0434 -0.49234,0.45114 0.23702,1.4177 -0.0874,2.0014 -0.22939,0.41272 -0.81501,0.54429 -1.0444,0.95702 -0.32441,0.58367 0.40496,1.5503 -0.0874,2.0014 -0.24616,0.22557 -0.83851,-0.33553 -1.0007,-0.0434 -0.32439,0.58367 0.23703,1.4177 -0.0874,2.0014 -0.16221,0.29184 -0.75453,-0.26927 -1.0007,-0.0434 -0.24617,0.22557 0.1185,0.70887 -0.0434,1.0007 -0.14165,0.25484 -1.8362,1.1413 -1.0881,1.9577 0.22556,0.24616 0.70886,-0.11851 1.0007,0.0434 0.41272,0.2294 0.5443,0.81501 0.95702,1.0444 0.29184,0.1622 0.70886,-0.11851 1.0007,0.0434 1.1746,0.65285 1.6964,2.4803 2.871,3.1332 0.58367,0.3244 1.5503,-0.40495 2.0014,0.0874 0.0957,0.10445 -0.0266,2.9064 -0.1311,3.0021 -0.24617,0.22556 -0.69584,-0.17985 -1.0007,-0.0434 -2.2609,1.0097 -0.33767,0.60752 -1.0881,1.9577 -0.45877,0.82545 -1.63,1.0886 -2.0888,1.914 -0.1622,0.29184 0.1185,0.70887 -0.0434,1.0007 -0.45879,0.82544 -1.7514,1.032 -2.0888,1.914 -0.35789,0.93554 -0.0874,2.0014 -0.1311,3.0021 -0.0145,0.33358 -0.029,0.66716 -0.0434,1.0007 -0.0145,0.33358 -0.17984,0.69584 -0.0434,1.0007 0.19255,0.43116 0.76446,0.61325 0.95701,1.0444 0.13615,0.30486 -0.13536,0.67964 -0.0434,1.0007 0.20497,0.7179 0.70834,1.3272 0.91333,2.0451 0.18193,0.63724 -0.13962,3.1972 -0.17473,4.0028 -0.0145,0.33356 -0.029,0.66714 -0.0434,1.0007 -0.0145,0.33357 0.20247,0.77513 -0.0434,1.0007 -0.24617,0.22558 -0.75454,-0.26926 -1.0007,-0.0434 -0.24616,0.22557 0.20247,0.77514 -0.0434,1.0007 -0.24616,0.22557 -0.66714,-0.029 -1.0007,-0.0434 -0.0145,0.33357 0.11851,0.70887 -0.0434,1.0007 -0.30229,0.54388 -2.0747,1.5914 -2.0888,1.914 -0.0207,0.47173 1.3052,0.7254 0.957,1.0444 -0.34812,0.31901 -0.9364,-1.5161 -0.957,-1.0444 -0.0321,0.74591 0.70834,1.3272 0.91331,2.0451 0.86293,3.0223 -2.2799,-2.1567 0.86964,3.0458 0.24453,0.40393 0.54428,0.815 0.95701,1.0444 0.29184,0.16221 1.0153,-0.28988 1.0007,0.0434 -0.0145,0.33357 -0.98614,-0.37727 -1.0007,-0.0434 -0.0711,1.6274 1.8641,0.3345 0.91332,2.0451 -0.907,1.6319 -2.0212,0.36479 -2.1325,2.9147 -0.0145,0.33357 -0.17984,0.69584 -0.0434,1.0007 1.9005,4.2556 -0.0224,-1.0728 1.9577,1.0881 0.45113,0.49234 -0.35969,1.3917 -0.0874,2.0014 1.9005,4.2556 -0.0224,-1.0728 1.9577,1.0881 0.13495,0.14729 -0.0195,2.8013 -0.1311,3.0021 -0.22939,0.41272 -0.81501,0.54429 -1.0444,0.95701 -0.16219,0.29184 0.20248,0.77514 -0.0434,1.0007 -0.24616,0.22556 -0.75453,-0.26926 -1.0007,-0.0434 -0.24617,0.22557 0.28987,1.0153 -0.0434,1.0007 -0.33358,-0.0145 0.0582,-1.3343 0.0434,-1.0007 -0.0177,0.39557 0.0139,4.5855 -0.21846,5.0035 -0.22939,0.41271 -0.61325,0.76446 -1.0444,0.957 -0.65243,0.29136 -4.3746,-0.49934 -5.0035,-0.21846 -0.30486,0.13615 0.20247,0.77513 -0.0434,1.0007 -0.24616,0.22558 -0.75453,-0.26925 -1.0007,-0.0434 -0.24617,0.22558 0.11851,0.70887 -0.0434,1.0007 -0.22937,0.41273 -0.81499,0.54429 -1.0444,0.95701 -0.1622,0.29183 -0.029,0.66715 -0.0434,1.0007 -0.10798,2.4732 -0.53853,1.5091 0.86963,3.0458 0.31901,0.34812 0.54429,0.815 0.95701,1.0444 0.29184,0.1622 0.77514,-0.20247 1.0007,0.0434 0.22556,0.24617 -0.26926,0.75454 -0.0434,1.0007 0.22556,0.24616 0.70886,-0.11852 1.0007,0.0434 0.2599,0.14445 2.7498,2.8617 2.871,3.1332 0.12008,0.26888 -0.15191,3.4795 -0.17473,4.0028 -0.0107,0.24269 -0.0975,2.9713 -0.1311,3.0021 -0.24616,0.22556 -0.75454,-0.26927 -1.0007,-0.0434 -0.24616,0.22557 -0.029,0.66714 -0.0434,1.0007 -0.0305,0.69603 -0.0217,4.6495 -0.21846,5.0035 -0.22939,0.41272 -0.81501,0.54428 -1.0444,0.95701 -0.16219,0.29183 0.20249,0.77513 -0.0434,1.0007 -0.55045,0.50439 -1.3272,0.70834 -2.0451,0.91332 -0.32104,0.0917 -0.75454,-0.26926 -1.0007,-0.0434 -0.24617,0.22558 -0.26926,0.75454 -0.0434,1.0007 0.22557,0.24616 0.77514,-0.20247 1.0007,0.0434 0.22557,0.24617 -0.26926,0.75454 -0.0434,1.0007 0.22557,0.24616 0.77513,-0.20248 1.0007,0.0434 0.22556,0.24616 0.20247,0.77512 -0.0434,1.0007 -0.24617,0.22557 -0.75454,-0.26926 -1.0007,-0.0434 -0.24617,0.22557 0.20248,0.77513 -0.0434,1.0007 -0.49234,0.45115 -1.3917,-0.35968 -2.0014,-0.0874 -0.66515,0.29706 -1.466,1.1114 -1.0881,1.9577 0.19255,0.43114 0.76447,0.61325 0.95701,1.0444 0.13615,0.30486 -0.26925,0.75453 -0.0434,1.0007 0.22558,0.24617 0.70888,-0.11852 1.0007,0.0434 0.41273,0.22939 0.54428,0.81501 0.95701,1.0444 0.29184,0.1622 0.77513,-0.20247 1.0007,0.0434 0.22557,0.24616 -0.17984,0.69584 -0.0434,1.0007 0.19254,0.43114 0.76447,0.61325 0.95701,1.0444 0.13615,0.30487 -0.26926,0.75455 -0.0434,1.0007 0.22557,0.24618 0.77513,-0.20248 1.0007,0.0434 0.22557,0.24617 0.20247,0.77514 -0.0434,1.0007 -0.24616,0.22556 -0.66714,-0.029 -1.0007,-0.0434 -0.33357,-0.0145 -0.66715,-0.0289 -1.0007,-0.0434 -0.42098,-0.0181 -5.7,-0.39796 -6.0042,-0.2622 -0.43115,0.19254 -0.81501,0.54428 -1.0444,0.95702 -0.0464,0.0835 -0.21322,3.9157 -0.17473,4.0028 0.19255,0.43113 0.76446,0.61325 0.95701,1.0444 0.13615,0.30487 -0.029,0.66715 -0.0434,1.0007 0.31901,0.34813 0.76447,0.61325 0.95702,1.0444 0.12007,0.26887 -0.15191,3.4795 -0.17473,4.0028 -0.0145,0.33356 -0.029,0.66714 -0.0434,1.0007 -0.0145,0.33357 0.28988,1.0153 -0.0434,1.0007 -0.33358,-0.0145 0.0582,-1.3343 0.0434,-1.0007 -0.029,0.66714 -0.0582,1.3343 -0.0874,2.0014 -0.0145,0.33358 0.28988,1.0153 -0.0434,1.0007 -0.33357,-0.0145 -0.28987,-1.0153 0.0434,-1.0007 0.47173,0.0207 0.63801,0.69626 0.95702,1.0444 0.319,0.34813 0.76447,0.61325 0.95701,1.0444 0.12814,0.28694 -0.0221,3.7282 -0.17473,4.0028 -0.22938,0.41272 -0.815,0.54429 -1.0444,0.957 -0.16221,0.29185 -0.029,0.66716 -0.0434,1.0007 -0.0145,0.33357 -0.26926,0.75454 -0.0434,1.0007 1.9801,2.1609 0.0572,-3.1675 1.9577,1.0881 0.13615,0.30485 -0.029,0.66713 -0.0434,1.0007 -0.0145,0.33358 -0.029,0.66714 -0.0434,1.0007 -0.0728,1.6678 -0.14567,3.3357 -0.21846,5.0035 -0.0145,0.33357 -0.26926,0.75453 -0.0434,1.0007 0.42533,0.46418 1.9242,-0.69579 0.95701,1.0444 -2.2642,4.0738 0.11589,-1.0668 -2.0451,0.91333 -1.3925,1.276 2.0809,1.0529 -1.0881,1.9577 -0.64213,0.18332 -1.3917,-0.35969 -2.0014,-0.0874 -0.30486,0.13614 0.20248,0.77513 -0.0434,1.0007 -0.24616,0.22558 -0.75453,-0.26926 -1.0007,-0.0434 -2.1609,1.9801 3.1675,0.0572 -1.0881,1.9577 -0.30486,0.13616 -0.75454,-0.26926 -1.0007,-0.0434 -0.49234,0.45114 0.57975,2.0305 -0.0874,2.0014 -0.33357,-0.0145 -0.24815,-1.1629 0.0434,-1.0007 0.82544,0.45879 1.276,1.3925 1.914,2.0888 0.63801,0.69625 1.425,1.2809 1.914,2.0888 0.17292,0.28562 -0.029,0.66715 -0.0434,1.0007 -0.0224,0.52332 -0.0317,3.7454 -0.17473,4.0028 -0.45879,0.82544 -1.63,1.0886 -2.0888,1.914 -0.16219,0.29183 0.20248,0.77513 -0.0434,1.0007 -0.24616,0.22558 -0.75453,-0.26926 -1.0007,-0.0434 -0.24618,0.22558 -0.029,0.66715 -0.0434,1.0007 -0.13317,3.0512 1.0136,0.0581 1.9577,1.0881 0.0308,0.0336 -0.12049,2.7594 -0.1311,3.0021 -0.0145,0.33358 0.20249,0.77514 -0.0434,1.0007 -0.24616,0.22557 -0.69583,-0.17984 -1.0007,-0.0434 -0.43114,0.19254 -0.61325,0.76446 -1.0444,0.95701 -0.30486,0.13614 -0.75454,-0.26927 -1.0007,-0.0434 -0.49234,0.45113 0.40495,1.5503 -0.0874,2.0014 -0.24616,0.22557 -0.69583,-0.17984 -1.0007,-0.0434 -0.43114,0.19255 -0.61325,0.76447 -1.0444,0.95702 -1.7042,0.76109 -0.91332,-2.0451 -1.0881,1.9577 -0.0145,0.33357 -0.26927,0.75454 -0.0434,1.0007 0.45113,0.49235 1.4177,-0.23701 2.0014,0.0874 0.41273,0.22939 0.76447,0.61325 0.95702,1.0444 0.15075,0.33756 -0.18729,4.9474 -0.21847,5.0035 -0.22938,0.41272 -0.815,0.54429 -1.0444,0.95701 -0.16221,0.29184 0.20248,0.77514 -0.0434,1.0007 -0.24616,0.22557 -0.66713,-0.029 -1.0007,-0.0434 -0.34814,0.31901 -0.7656,0.57593 -1.0444,0.95701 -0.44084,0.60254 -0.53765,1.4533 -1.0881,1.9577 -0.46418,0.42533 -1.8562,-0.86085 -1.0444,0.95701 0.19255,0.43115 0.63801,0.69626 0.95701,1.0444 0.63801,0.69626 1.1519,1.5312 1.914,2.0888 0.26945,0.19715 0.77513,-0.20247 1.0007,0.0434 0.13496,0.14729 -0.0195,2.8013 -0.1311,3.0021 -0.45877,0.82545 -1.63,1.0886 -2.0888,1.914 -0.37579,0.67613 0.14814,4.6676 -0.21846,5.0035 -0.24618,0.22556 -0.69584,-0.17985 -1.0007,-0.0434 -0.43115,0.19254 -0.61325,0.76447 -1.0444,0.957 -0.30485,0.13616 -0.75453,-0.26925 -1.0007,-0.0434 -0.24618,0.22558 -0.029,0.66715 -0.0434,1.0007 -0.0393,0.902 0.019,4.3828 -0.21846,5.0035 -0.26677,0.69731 -0.44942,1.5711 -1.0881,1.9577 -0.57125,0.34584 -1.3917,-0.35968 -2.0014,-0.0874 -0.30485,0.13616 -0.029,0.66716 -0.0434,1.0007 -0.0145,0.33357 -0.26926,0.75454 -0.0434,1.0007 0.22558,0.24616 0.66714,0.029 1.0007,0.0434 0.55856,0.0243 4.5388,0.35116 5.0035,0.21847 3.169,-0.9048 -0.30445,-0.6817 1.0881,-1.9577 0.24617,-0.22558 0.69584,0.17984 1.0007,0.0434 0.86229,-0.38509 1.2265,-1.5289 2.0888,-1.914 0.30486,-0.13615 0.75453,0.26926 1.0007,0.0434 0.24617,-0.22556 -0.20247,-0.77514 0.0434,-1.0007 0.24617,-0.22556 0.75454,0.26926 1.0007,0.0434 0.24617,-0.22558 -0.11852,-0.70887 0.0434,-1.0007 0.22939,-0.41271 1.0238,-0.48528 1.0444,-0.957 0.0145,-0.33358 -0.66714,-0.029 -1.0007,-0.0434 -0.33357,-0.0145 -0.66714,-0.029 -1.0007,-0.0434 -1.3731,-0.0599 -3.2627,0.38389 -3.9591,-1.1755 -0.13615,-0.30487 -0.11851,-0.70887 0.0434,-1.0007 0.22938,-0.41271 0.69626,-0.63801 1.0444,-0.95702 0.34813,-0.31899 0.61324,-0.76446 1.0444,-0.957 0.30488,-0.13615 0.75453,0.26926 1.0007,0.0434 2.1609,-1.9801 -3.1675,-0.0572 1.0881,-1.9577 0.30487,-0.13615 0.75454,0.26927 1.0007,0.0434 0.55045,-0.50439 0.64726,-1.3552 1.0881,-1.9577 0.27882,-0.38109 0.81501,-0.54429 1.0444,-0.95702 0.32439,-0.58367 -0.40496,-1.5503 0.0874,-2.0014 0.24617,-0.22556 0.69584,0.17985 1.0007,0.0434 0.43115,-0.19254 0.69627,-0.63801 1.0444,-0.95701 0.66714,0.029 1.3593,0.27071 2.0014,0.0874 3.169,-0.9048 -0.30444,-0.6817 1.0881,-1.9577 0.18518,-2.815 2.2674,-0.15631 3.0458,-0.86963 0.24617,-0.22557 0.029,-0.66714 0.0434,-1.0007 0.0145,-0.33358 0.029,-0.66714 0.0434,-1.0007 0.0352,-0.8056 0.35671,-3.3656 0.17473,-4.0028 -0.20498,-0.7179 -0.70835,-1.3272 -0.91333,-2.0451 -0.18194,-0.63724 0.13962,-3.1972 0.17473,-4.0028 0.0886,-2.029 -0.23452,-4.5884 1.2629,-5.9605 0.24617,-0.22557 0.75454,0.26926 1.0007,0.0434 0.24618,-0.22557 -0.1185,-0.70886 0.0434,-1.0007 0.22938,-0.41272 0.815,-0.54429 1.0444,-0.95701 1.017,-1.8298 -1.0347,-0.11971 -1.914,-2.0888 -0.13615,-0.30487 0.0289,-0.66714 0.0434,-1.0007 0.0145,-0.33357 0.029,-0.66714 0.0434,-1.0007 0.28979,-6.6378 -0.53353,1.3946 1.1318,-2.9584 0.2386,-0.62369 -0.23702,-1.4177 0.0874,-2.0014 0.16221,-0.29184 0.75455,0.26925 1.0007,0.0434 0.24616,-0.22557 0.029,-0.66715 0.0434,-1.0007 0.0145,-0.33357 0.029,-0.66715 0.0434,-1.0007 0.0728,-1.6678 0.14567,-3.3357 0.21846,-5.0035 0.029,-0.66715 -0.23701,-1.4177 0.0874,-2.0014 0.1622,-0.29183 0.69584,0.17984 1.0007,0.0434 2.2609,-1.0097 0.33765,-0.60752 1.0881,-1.9577 0.45876,-0.82545 1.63,-1.0886 2.0888,-1.914 0.16221,-0.29183 -0.28986,-1.0153 0.0434,-1.0007 0.33358,0.0145 0.28989,1.0153 -0.0434,1.0007 -0.7459,-0.0321 -1.2604,-0.82132 -1.9577,-1.0881 -0.31185,-0.1193 -0.70886,0.1185 -1.0007,-0.0434 -0.41273,-0.2294 -0.76448,-0.61326 -0.95703,-1.0444 -0.18157,-0.4066 0.17397,-4.0017 0.17473,-4.0028 0.44084,-0.60255 1.4947,-0.40893 2.0451,-0.91332 0.24616,-0.22557 -0.20248,-0.77513 0.0434,-1.0007 0.24616,-0.22557 0.75453,0.26927 1.0007,0.0434 0.0669,-0.0614 2.0438,-3.7344 2.1762,-3.9154 0.27881,-0.38108 0.81501,-0.54429 1.0444,-0.95701 1.017,-1.8298 -1.0347,-0.11972 -1.914,-2.0888 -0.13615,-0.30486 0.26926,-0.75453 0.0434,-1.0007 -0.50439,-0.55044 -1.4533,-0.53763 -1.9577,-1.0881 -0.22558,-0.24617 0.029,-0.66714 0.0434,-1.0007 0.0145,-0.33358 0.029,-0.66715 0.0434,-1.0007 0.0224,-0.52332 0.0317,-3.7454 0.17473,-4.0028 0.22938,-0.41272 0.69626,-0.63801 1.0444,-0.95702 0.34813,-0.31899 0.64047,-0.71247 1.0444,-0.95701 0.63867,-0.38664 1.4064,-0.52668 2.0451,-0.91332 1.9781,0.18648 0.53764,-1.4533 1.0881,-1.9577 0.24617,-0.22557 0.75454,0.26927 1.0007,0.0434 0.24616,-0.22557 0.029,-0.66714 0.0434,-1.0007 0.0145,-0.33358 0.26926,-0.75454 0.0434,-1.0007 -0.22557,-0.24616 -0.77513,0.20247 -1.0007,-0.0434 -0.22557,-0.24616 0.26927,-0.75454 0.0434,-1.0007 -0.22557,-0.24616 -0.77513,0.20247 -1.0007,-0.0434 -0.22557,-0.24617 0.26926,-0.75453 0.0434,-1.0007 -1.9801,-2.1609 -0.0572,3.1675 -1.9577,-1.0881 -0.16514,-0.3698 0.18809,-4.3075 0.21846,-5.0035 0.0312,-0.7093 0.12148,-5.7512 0.2622,-6.0042 0.22939,-0.41273 0.815,-0.5443 1.0444,-0.95701 0.1622,-0.29185 -0.11852,-0.70887 0.0434,-1.0007 0.22939,-0.41272 0.815,-0.54428 1.0444,-0.95701 0.3244,-0.58368 -0.40495,-1.5503 0.0874,-2.0014 0.24616,-0.22558 0.75453,0.26925 1.0007,0.0434 0.24617,-0.22559 -0.20247,-0.77514 0.0434,-1.0007 0.22896,-0.20979 2.648,0.34549 3.0021,0.1311 0.80786,-0.48907 1.2809,-1.425 2.0888,-1.914 0.57124,-0.34583 1.5091,0.53852 2.0014,0.0874 0.24616,-0.22558 -0.28988,-1.0153 0.0434,-1.0007 0.33357,0.0145 -0.0583,1.3343 -0.0434,1.0007 0.0325,-0.73458 0.42135,-5.6477 0.2622,-6.0042 -0.19254,-0.43113 -0.76447,-0.61325 -0.95701,-1.0444 -0.13616,-0.30486 0.029,-0.66714 0.0434,-1.0007 0.065,-1.4895 0.20495,-1.2708 -0.86963,-3.0458 0.18648,-1.9781 -1.4533,-0.53763 -1.9577,-1.0881 -0.22557,-0.24617 0.029,-0.66715 0.0434,-1.0007 0.0145,-0.33357 0.029,-0.66714 0.0434,-1.0007 0.0599,-1.3731 -0.3839,-3.2627 1.1755,-3.9591 0.30486,-0.13615 0.75454,0.26926 1.0007,0.0434 0.24617,-0.22557 -0.20247,-0.77513 0.0434,-1.0007 0.24616,-0.22556 0.69583,0.17985 1.0007,0.0434 0.43113,-0.19253 0.61325,-0.76447 1.0444,-0.957 0.30487,-0.13615 0.75454,0.26926 1.0007,0.0434 0.24617,-0.22559 -0.28987,-1.0153 0.0434,-1.0007 0.33358,0.0145 -0.0582,1.3343 -0.0434,1.0007 0.10194,-2.335 0.20389,-4.67 0.30583,-7.005 0.0728,-1.6678 0.14568,-3.3357 0.21846,-5.0035 0.0145,-0.33357 0.26927,-0.75454 0.0434,-1.0007 -1.9801,-2.1609 -0.0572,3.1675 -1.9577,-1.0881 -0.13615,-0.30485 0.029,-0.66714 0.0434,-1.0007 0.0983,-2.2516 -0.34085,0.15222 2.0451,-0.91332 0.30487,-0.13616 -0.20247,-0.77515 0.0434,-1.0007 0.24617,-0.22556 0.69583,0.17985 1.0007,0.0434 1.4193,-0.63386 1.0784,-1.7369 1.1318,-2.9584 0.10246,-2.3468 0.21527,0.48203 -0.91333,-2.0451 -0.6299,-1.4105 1.251,-0.84218 -0.91332,-2.0451 -0.29183,-0.16221 -0.77513,0.20247 -1.0007,-0.0434 -0.22557,-0.24617 0.029,-0.66714 0.0434,-1.0007 0.0874,-2.0014 0.17473,-4.0028 0.26209,-6.0042 0.0145,-0.33358 -0.11851,-0.70887 0.0434,-1.0007 0.22938,-0.41273 0.81501,-0.54429 1.0444,-0.95702 0.16221,-0.29184 0.029,-0.66714 0.0434,-1.0007 0.0987,-2.2608 0.12963,0.45405 -0.86963,-3.0458 -0.0917,-0.32106 0.17983,-0.69584 0.0434,-1.0007 -0.19255,-0.43115 -0.76446,-0.61325 -0.95701,-1.0444 -0.13615,-0.30487 0.029,-0.66715 0.0434,-1.0007 0.0145,-0.33357 -0.11851,-0.70887 0.0434,-1.0007 0.53535,-0.96322 3.6422,-2.8648 4.1776,-3.828 0.1622,-0.29183 -0.20248,-0.77513 0.0434,-1.0007 0.24616,-0.22556 0.69584,0.17985 1.0007,0.0434 0.66515,-0.29706 1.466,-1.1114 1.0881,-1.9577 -0.19254,-0.43115 -0.76447,-0.61325 -0.95701,-1.0444 -0.13615,-0.30485 0.26926,-0.75453 0.0434,-1.0007 -0.22558,-0.24616 -0.77514,0.20248 -1.0007,-0.0434 -0.19565,-0.21351 0.31213,-2.5967 0.1311,-3.0021 -0.75588,-1.6926 -1.9001,-0.35229 -0.86963,-3.0458 0.33743,-0.88203 1.63,-1.0886 2.0888,-1.914 0.16219,-0.29185 0.029,-0.66715 0.0434,-1.0007 0.029,-0.66714 0.0582,-1.3343 0.0874,-2.0014 0.0145,-0.33357 0.26926,-0.75454 0.0434,-1.0007 -0.22559,-0.24618 -0.86457,0.26116 -1.0007,-0.0434 -0.2723,-0.60973 0.0583,-1.3343 0.0874,-2.0014 0.0145,-0.33357 0.26926,-0.75453 0.0434,-1.0007 -0.22557,-0.24617 -0.77514,0.20248 -1.0007,-0.0434 -2.815,-0.18518 -0.15632,-2.2674 -0.86964,-3.0458 -0.22556,-0.24617 -0.77513,0.20247 -1.0007,-0.0434 -0.4785,-0.5222 0.60958,-2.4799 0.1311,-3.0021 -0.45114,-0.49234 -1.4177,0.23702 -2.0014,-0.0874 -2.1643,-1.2029 -0.28342,-0.63464 -0.91333,-2.0451 -0.19254,-0.43114 -0.82737,-0.59035 -0.957,-1.0444 -0.18334,-0.64211 0.0582,-1.3343 0.0874,-2.0014 0.0145,-0.33357 0.029,-0.66714 0.0434,-1.0007 0.0145,-0.33357 -0.20249,-0.77513 0.0434,-1.0007 0.24617,-0.22558 0.69584,0.17983 1.0007,0.0434 0.2715,-0.12125 2.9887,-2.6111 3.1332,-2.871 0.1622,-0.29184 0.029,-0.66714 0.0434,-1.0007 0.0145,-0.33357 0.0289,-0.66715 0.0434,-1.0007 0.0145,-0.33358 0.0289,-0.66714 0.0434,-1.0007 0.0145,-0.33357 0.17984,-0.69584 0.0434,-1.0007 -0.19255,-0.43114 -0.63802,-0.69626 -0.95702,-1.0444 -0.319,-0.34814 -0.54428,-0.81501 -0.95701,-1.0444 -0.29184,-0.16221 -0.77513,0.20247 -1.0007,-0.0434 -0.45113,-0.49233 0.53853,-1.5091 0.0874,-2.0014 -0.22558,-0.24616 -0.77513,0.20249 -1.0007,-0.0434 -0.22558,-0.24616 0.17983,-0.69583 0.0434,-1.0007 -0.19254,-0.43115 -0.76446,-0.61325 -0.95701,-1.0444 -0.13615,-0.30486 0.37364,-1.0518 0.0434,-1.0007 -1.7768,0.27538 -4.3577,3.4247 -5.0909,1.783 -0.77017,-1.7246 2.9345,-2.4061 4.1776,-3.828 0.21975,-0.25137 0.029,-0.66715 0.0434,-1.0007 0.0145,-0.33358 0.029,-0.66714 0.0434,-1.0007 0.0932,-2.1332 0.85019,-6.4109 -0.65117,-8.0493 -0.66003,-0.7203 -1.9034,0.65849 -2.0451,0.91332 -0.32441,0.58369 0.40494,1.5503 -0.0874,2.0014 -0.24616,0.22556 -0.75454,-0.26927 -1.0007,-0.0434 -1.2986,1.19 -1.1106,2.4724 -1.1755,3.9591 -0.0145,0.33357 0.11852,0.70887 -0.0434,1.0007 -0.22937,0.41273 -0.815,0.54428 -1.0444,0.95701 -0.61765,1.1113 1.7728,5.0682 1.783,5.0909 z"
           id="path2989-7" />
        <path
           inkscape:connector-curvature="0"
           style="fill:#000000;fill-opacity:1"
           d="m 346.01,367.83 c -1.9224,-3.1088 -1.8731,-3.4277 -1.7711,-6.0824 0.0128,-0.33364 0.26531,-0.75594 0.0385,-1.0009 -0.22687,-0.24498 -0.77407,0.20653 -1.0009,-0.0384 -0.48123,-0.51969 0.59659,-2.4831 0.11536,-3.0028 -0.22686,-0.24498 -0.77407,0.20653 -1.0009,-0.0385 -0.22686,-0.24498 0.17619,-0.69677 0.0384,-1.0009 -0.1948,-0.43012 -0.76767,-0.60924 -0.96247,-1.0394 -0.13774,-0.30414 0.26531,-0.75594 0.0385,-1.0009 -0.22685,-0.24499 -0.77406,0.20652 -1.0009,-0.0385 -0.45372,-0.48996 0.35238,-1.3936 0.0769,-2.0018 -0.1948,-0.43012 -0.76767,-0.60924 -0.96247,-1.0394 -0.27549,-0.6083 0.53062,-1.5119 0.0769,-2.0018 -0.22685,-0.24497 -0.86317,0.2657 -1.0009,-0.0385 -0.27548,-0.60829 0.3524,-1.3935 0.0769,-2.0018 -0.13774,-0.30414 -0.77406,0.20654 -1.0009,-0.0384 -0.22685,-0.24498 0.1762,-0.69677 0.0384,-1.0009 -0.12028,-0.2656 -1.7365,-1.2879 -0.92401,-2.0403 0.24498,-0.22685 0.69677,0.1762 1.0009,0.0385 0.43013,-0.1948 0.60924,-0.76767 1.0394,-0.96247 0.30415,-0.13773 0.69677,0.1762 1.0009,0.0384 1.2242,-0.5544 1.8939,-2.333 3.1181,-2.8874 0.60829,-0.27548 1.5119,0.53062 2.0018,0.0769 0.10394,-0.0962 0.2116,-2.8988 0.11536,-3.0028 -0.22686,-0.24498 -0.70824,0.12222 -1.0009,-0.0385 -2.1706,-1.1916 -0.28675,-0.63314 -0.92402,-2.0403 -0.3896,-0.86025 -1.5353,-1.2185 -1.9249,-2.0787 -0.13775,-0.30415 0.17618,-0.69677 0.0384,-1.0009 -0.3896,-0.86026 -1.6609,-1.172 -1.9249,-2.0787 -0.28004,-0.96172 0.0769,-2.0018 0.11535,-3.0028 0.0128,-0.33365 0.0256,-0.66729 0.0384,-1.0009 0.0128,-0.33364 -0.12222,-0.70823 0.0385,-1.0009 0.22722,-0.41392 0.81214,-0.54855 1.0394,-0.96247 0.16067,-0.29268 -0.0792,-0.68845 0.0385,-1.0009 0.2631,-0.69869 0.81471,-1.2647 1.0778,-1.9634 0.23354,-0.62018 0.12286,-3.1979 0.15381,-4.0037 0.0128,-0.33363 0.0256,-0.66728 0.0385,-1.0009 0.0128,-0.33363 0.26531,-0.75593 0.0385,-1.0009 -0.22686,-0.24499 -0.77407,0.20653 -1.0009,-0.0385 -0.22685,-0.24499 0.26531,-0.75595 0.0385,-1.0009 -0.22685,-0.24498 -0.66728,-0.0256 -1.0009,-0.0385 0.0128,-0.33364 0.1762,-0.69677 0.0385,-1.0009 -0.25671,-0.56682 -1.9373,-1.756 -1.9249,-2.0787 0.0181,-0.47185 1.3602,-0.61602 1.0394,-0.96247 -0.32082,-0.34647 -1.0575,1.4343 -1.0394,0.96247 0.0287,-0.74605 0.81471,-1.2647 1.0778,-1.9634 1.1077,-2.9414 -2.4489,1.9626 1.1163,-2.9643 0.27681,-0.38254 0.60924,-0.76767 1.0394,-0.96247 0.30415,-0.13775 0.9881,0.3721 1.0009,0.0385 0.0128,-0.33363 -1.0137,0.29519 -1.0009,-0.0385 0.0625,-1.6277 1.8852,-0.18063 1.0778,-1.9634 -0.77024,-1.7007 -1.9845,-0.52916 -1.8865,-3.0797 0.0128,-0.33363 -0.12222,-0.70823 0.0385,-1.0009 2.2428,-4.0856 -0.11025,1.0674 2.0403,-0.92402 0.48996,-0.45372 -0.24445,-1.4165 0.0769,-2.0018 2.2428,-4.0856 -0.11025,1.0674 2.0403,-0.92401 0.14658,-0.13574 0.21014,-2.7935 0.11536,-3.0028 -0.1948,-0.43012 -0.76767,-0.60924 -0.96247,-1.0394 -0.13774,-0.30415 0.26531,-0.75594 0.0385,-1.0009 -0.22685,-0.24498 -0.77406,0.20652 -1.0009,-0.0384 -0.22686,-0.24498 0.37208,-0.98811 0.0384,-1.0009 -0.33364,-0.0128 -0.0513,1.3346 -0.0384,1.0009 0.0152,-0.39568 0.38957,-4.5689 0.19226,-5.0046 -0.19481,-0.43013 -0.54855,-0.81215 -0.96247,-1.0394 -0.62637,-0.34384 -4.4008,0.13922 -5.0046,-0.19225 -0.29268,-0.16068 0.2653,-0.75595 0.0384,-1.0009 -0.22685,-0.24499 -0.77406,0.20652 -1.0009,-0.0385 -0.22686,-0.24499 0.17619,-0.69677 0.0385,-1.0009 -0.19479,-0.43013 -0.76766,-0.60924 -0.96246,-1.0394 -0.13775,-0.30414 0.0256,-0.66728 0.0384,-1.0009 0.095,-2.4737 -0.41307,-1.5481 1.1163,-2.9643 0.34646,-0.32081 0.60924,-0.76766 1.0394,-0.96246 0.30415,-0.13774 0.75594,0.26531 1.0009,0.0385 0.24498,-0.22687 -0.20653,-0.77407 0.0385,-1.0009 0.24498,-0.22685 0.69677,0.1762 1.0009,0.0384 0.27086,-0.12267 2.975,-2.6268 3.1181,-2.8874 0.14171,-0.25813 0.1337,-3.4803 0.15381,-4.0037 0.009,-0.24275 0.14629,-2.9693 0.11535,-3.0028 -0.22685,-0.24498 -0.77407,0.20654 -1.0009,-0.0385 -0.22685,-0.24498 0.0256,-0.66728 0.0385,-1.0009 0.0267,-0.69619 0.35934,-4.6357 0.19226,-5.0046 -0.1948,-0.43013 -0.76767,-0.60924 -0.96247,-1.0394 -0.13774,-0.30414 0.26531,-0.75594 0.0385,-1.0009 -0.50726,-0.5478 -1.2647,-0.81471 -1.9634,-1.0778 -0.31246,-0.11767 -0.77407,0.20653 -1.0009,-0.0384 -0.22686,-0.24499 -0.20653,-0.77407 0.0384,-1.0009 0.24498,-0.22686 0.75594,0.2653 1.0009,0.0385 0.24498,-0.22685 -0.20653,-0.77406 0.0385,-1.0009 0.24498,-0.22686 0.75593,0.26531 1.0009,0.0384 0.24498,-0.22685 0.26531,-0.75593 0.0385,-1.0009 -0.22687,-0.24498 -0.77407,0.20653 -1.0009,-0.0385 -0.22685,-0.24498 0.26531,-0.75594 0.0385,-1.0009 -0.45371,-0.48996 -1.4165,0.24444 -2.0018,-0.0769 -0.63857,-0.35056 -1.37,-1.2278 -0.92401,-2.0403 0.22723,-0.41392 0.81215,-0.54855 1.0394,-0.96247 0.16067,-0.29268 -0.20653,-0.77406 0.0385,-1.0009 0.24499,-0.22686 0.69678,0.1762 1.0009,0.0385 0.43013,-0.19481 0.60924,-0.76767 1.0394,-0.96247 0.30415,-0.13775 0.75593,0.2653 1.0009,0.0385 0.24498,-0.22686 -0.12222,-0.70824 0.0385,-1.0009 0.22721,-0.41392 0.81214,-0.54855 1.0394,-0.96246 0.16067,-0.29269 -0.20653,-0.77407 0.0385,-1.0009 0.24499,-0.22686 0.75594,0.26531 1.0009,0.0385 0.24498,-0.22687 0.26531,-0.75595 0.0385,-1.0009 -0.22685,-0.24498 -0.66727,-0.0256 -1.0009,-0.0385 -0.33363,-0.0128 -0.66728,-0.0256 -1.0009,-0.0385 -0.42105,-0.0162 -5.7135,-0.0704 -6.0055,-0.23071 -0.41391,-0.22722 -0.76767,-0.60924 -0.96247,-1.0394 -0.0394,-0.087 0.10786,-3.92 0.1538,-4.0037 0.22723,-0.41391 0.81215,-0.54855 1.0394,-0.96246 0.16067,-0.29269 0.0256,-0.66729 0.0384,-1.0009 0.34646,-0.32083 0.81215,-0.54855 1.0394,-0.96247 0.14171,-0.25813 0.1337,-3.4803 0.15381,-4.0037 0.0128,-0.33363 0.0256,-0.66727 0.0384,-1.0009 0.0128,-0.33363 0.3721,-0.98809 0.0385,-1.0009 -0.33364,-0.0128 -0.0513,1.3346 -0.0385,1.0009 0.0256,-0.66728 0.0513,-1.3346 0.0769,-2.0018 0.0128,-0.33365 0.3721,-0.98811 0.0385,-1.0009 -0.33364,-0.0128 -0.37209,0.9881 -0.0385,1.0009 0.47184,0.0181 0.69291,-0.64165 1.0394,-0.96247 0.34645,-0.32082 0.81214,-0.54855 1.0394,-0.96247 0.15123,-0.27547 0.28345,-3.7174 0.15381,-4.0037 -0.1948,-0.43012 -0.76766,-0.60924 -0.96247,-1.0394 -0.13774,-0.30415 0.0256,-0.66729 0.0385,-1.0009 0.0128,-0.33365 -0.20654,-0.77407 0.0385,-1.0009 2.1505,-1.9914 -0.20252,3.1616 2.0403,-0.92401 0.16068,-0.29268 0.0256,-0.66728 0.0385,-1.0009 0.0128,-0.33364 0.0256,-0.66727 0.0385,-1.0009 0.0641,-1.6682 0.12817,-3.3364 0.19225,-5.0046 0.0128,-0.33363 -0.20653,-0.77406 0.0385,-1.0009 0.46195,-0.42776 1.8607,0.85113 1.0394,-0.96246 -1.9228,-4.2456 0.028,1.0727 -1.9634,-1.0778 -1.2833,-1.3858 2.1602,-0.87888 -0.924,-2.0403 -0.62494,-0.23532 -1.4165,0.24445 -2.0018,-0.0769 -0.29268,-0.16066 0.26532,-0.75593 0.0385,-1.0009 -0.22685,-0.24499 -0.77405,0.20653 -1.0009,-0.0385 -1.9914,-2.1505 3.1616,0.20251 -0.92401,-2.0403 -0.29268,-0.16067 -0.77407,0.20654 -1.0009,-0.0385 -0.45371,-0.48996 0.74418,-1.9762 0.0769,-2.0018 -0.33364,-0.0128 -0.3426,1.1386 -0.0385,1.0009 0.86026,-0.38961 1.3858,-1.2833 2.0787,-1.9249 0.69292,-0.64165 1.5251,-1.1599 2.0788,-1.9249 0.19573,-0.2705 0.0256,-0.66729 0.0385,-1.0009 0.0201,-0.52341 0.27529,-3.7354 0.1538,-4.0037 -0.3896,-0.86026 -1.5353,-1.2185 -1.9249,-2.0788 -0.13773,-0.30414 0.26532,-0.75593 0.0385,-1.0009 -0.22685,-0.24499 -0.77405,0.20653 -1.0009,-0.0384 -0.22686,-0.24499 0.0256,-0.66729 0.0385,-1.0009 0.11725,-3.0519 1.015,0.0254 2.0403,-0.92402 0.0334,-0.0309 0.10603,-2.76 0.11535,-3.0028 0.0128,-0.33364 0.26532,-0.75594 0.0385,-1.0009 -0.22685,-0.24498 -0.70823,0.12222 -1.0009,-0.0385 -0.41391,-0.22723 -0.54855,-0.81215 -0.96246,-1.0394 -0.29269,-0.16067 -0.77407,0.20653 -1.0009,-0.0385 -0.45372,-0.48996 0.53062,-1.5119 0.0769,-2.0018 -0.22685,-0.24498 -0.70823,0.12223 -1.0009,-0.0385 -0.41391,-0.22723 -0.54855,-0.81215 -0.96246,-1.0394 -1.6362,-0.89818 -1.0778,1.9634 -0.92402,-2.0403 0.0128,-0.33364 -0.20653,-0.77407 0.0385,-1.0009 0.48996,-0.45371 1.3935,0.3524 2.0018,0.0769 0.43013,-0.1948 0.81214,-0.54854 1.0394,-0.96247 0.1779,-0.32407 0.21873,-4.9461 0.19226,-5.0046 -0.1948,-0.43013 -0.76767,-0.60924 -0.96247,-1.0394 -0.13775,-0.30415 0.26531,-0.75594 0.0385,-1.0009 -0.22685,-0.24498 -0.66728,-0.0256 -1.0009,-0.0384 -0.32083,-0.34646 -0.71583,-0.63673 -0.96247,-1.0394 -0.38999,-0.63664 -0.41676,-1.4925 -0.92402,-2.0403 -0.42776,-0.46194 -1.9205,0.70586 -0.96247,-1.0394 0.22723,-0.41392 0.69291,-0.64165 1.0394,-0.96247 0.69291,-0.64165 1.2734,-1.4316 2.0788,-1.9249 0.2847,-0.17441 0.75593,0.2653 1.0009,0.0385 0.14658,-0.13573 0.21013,-2.7935 0.11535,-3.0028 -0.38959,-0.86027 -1.5353,-1.2185 -1.9249,-2.0787 -0.31912,-0.70465 0.5301,-4.6398 0.19226,-5.0046 -0.22686,-0.24498 -0.70823,0.12222 -1.0009,-0.0385 -0.41392,-0.22722 -0.54855,-0.81215 -0.96247,-1.0394 -0.29268,-0.16067 -0.77406,0.20653 -1.0009,-0.0385 -0.22687,-0.24499 0.0256,-0.66728 0.0385,-1.0009 0.0347,-0.90219 0.37804,-4.3666 0.19226,-5.0046 -0.20874,-0.71682 -0.31918,-1.6026 -0.92402,-2.0403 -0.54099,-0.39148 -1.4165,0.24443 -2.0018,-0.0769 -0.29268,-0.16068 0.0256,-0.66729 0.0385,-1.0009 0.0128,-0.33364 -0.20652,-0.77407 0.0385,-1.0009 0.24498,-0.22685 0.66727,0.0256 1.0009,0.0385 0.55867,0.0215 4.5523,0.0219 5.0046,0.19226 3.0842,1.1614 -0.35928,0.65446 0.92401,2.0403 0.22686,0.24497 0.70824,-0.12223 1.0009,0.0384 0.82783,0.45444 1.0971,1.6243 1.9249,2.0787 0.29267,0.16068 0.77406,-0.20652 1.0009,0.0385 0.22686,0.24498 -0.26531,0.75595 -0.0385,1.0009 0.22686,0.24498 0.77407,-0.20653 1.0009,0.0385 0.22686,0.24498 -0.1762,0.69677 -0.0385,1.0009 0.1948,0.43012 0.98059,0.56753 0.96247,1.0394 -0.0128,0.33365 -0.66728,-0.0256 -1.0009,-0.0385 l -1.0009,-0.0384 c -1.3734,-0.0528 -3.2203,-0.64994 -4.0421,0.84712 -0.16068,0.29268 -0.1762,0.69677 -0.0385,1.0009 0.1948,0.43012 0.64165,0.69291 0.96246,1.0394 0.32083,0.34645 0.54855,0.81215 0.96248,1.0394 0.29268,0.16068 0.77405,-0.20652 1.0009,0.0385 1.9914,2.1505 -3.1616,-0.20251 0.92401,2.0403 0.29268,0.16067 0.77406,-0.20654 1.0009,0.0385 0.50726,0.5478 0.53404,1.4036 0.92402,2.0403 0.24664,0.40265 0.76766,0.60923 0.96247,1.0394 0.27548,0.60829 -0.53062,1.5119 -0.0769,2.0018 0.22686,0.24498 0.70824,-0.12222 1.0009,0.0385 0.41392,0.22722 0.64165,0.69292 0.96247,1.0394 0.66727,0.0256 1.3769,-0.15843 2.0018,0.0769 3.0842,1.1614 -0.35928,0.65446 0.92401,2.0403 -0.0461,2.8207 2.2469,0.34157 2.9643,1.1163 0.22685,0.24499 -0.0256,0.66729 -0.0384,1.0009 -0.0128,0.33365 -0.0256,0.66728 -0.0385,1.0009 -0.031,0.80578 0.0797,3.3835 -0.15381,4.0037 -0.26311,0.6987 -0.81472,1.2647 -1.0778,1.9634 -0.23355,0.62019 -0.12285,3.1979 -0.15381,4.0037 -0.078,2.0294 -0.6097,4.5538 0.77022,6.044 0.22685,0.24498 0.77405,-0.20653 1.0009,0.0385 0.22686,0.24498 -0.17619,0.69677 -0.0385,1.0009 0.1948,0.43013 0.76766,0.60924 0.96247,1.0394 0.86362,1.9069 -1.041,0.0346 -2.0787,1.9249 -0.16067,0.29269 -0.0256,0.66728 -0.0385,1.0009 -0.0128,0.33363 -0.0256,0.66728 -0.0385,1.0009 -0.25506,6.6393 -0.41747,-1.4336 0.88555,3.0412 0.1867,0.64114 -0.35238,1.3935 -0.0769,2.0018 0.13775,0.30415 0.77407,-0.20653 1.0009,0.0385 0.22686,0.24498 -0.0256,0.66728 -0.0385,1.0009 -0.0128,0.33364 -0.0256,0.66728 -0.0385,1.0009 -0.0641,1.6682 -0.12817,3.3364 -0.19226,5.0046 -0.0256,0.66728 -0.35238,1.3935 -0.0769,2.0018 0.13775,0.30414 0.70823,-0.12222 1.0009,0.0385 2.1706,1.1916 0.28674,0.63314 0.92402,2.0403 0.38959,0.86026 1.5353,1.2185 1.9249,2.0788 0.13775,0.30414 -0.37208,0.9881 -0.0385,1.0009 0.33364,0.0128 0.3721,-0.98809 0.0385,-1.0009 -0.74604,-0.0287 -1.3235,0.71528 -2.0403,0.92401 -0.32058,0.0933 -0.69677,-0.17619 -1.0009,-0.0385 -0.43014,0.1948 -0.81215,0.54856 -1.0394,0.96247 -0.21428,0.39035 -0.15454,4.0025 -0.1538,4.0037 0.38998,0.63664 1.4561,0.53003 1.9634,1.0778 0.22685,0.24498 -0.26532,0.75593 -0.0385,1.0009 0.22685,0.24498 0.77406,-0.20654 1.0009,0.0385 0.0617,0.0666 1.7309,3.8894 1.848,4.0806 0.24664,0.40265 0.76766,0.60924 0.96247,1.0394 0.86361,1.9069 -1.041,0.0346 -2.0788,1.9249 -0.16067,0.29268 0.20653,0.77405 -0.0384,1.0009 -0.5478,0.50726 -1.4925,0.41674 -2.0403,0.92401 -0.24499,0.22686 -0.0256,0.66728 -0.0385,1.0009 -0.0128,0.33364 -0.0256,0.66728 -0.0385,1.0009 -0.0201,0.5234 -0.27529,3.7354 -0.15381,4.0037 0.1948,0.43012 0.64165,0.69291 0.96247,1.0394 0.32082,0.34645 0.57993,0.76255 0.96247,1.0394 0.60484,0.43768 1.3585,0.64016 1.9634,1.0778 1.9867,-0.0238 0.41674,1.4925 0.92401,2.0403 0.22686,0.24498 0.77406,-0.20654 1.0009,0.0385 0.22685,0.24498 -0.0256,0.66728 -0.0385,1.0009 -0.0128,0.33364 0.20652,0.77406 -0.0385,1.0009 -0.24497,0.22685 -0.75593,-0.26531 -1.0009,-0.0385 -0.24498,0.22685 0.20654,0.77406 -0.0385,1.0009 -0.24498,0.22685 -0.75593,-0.26531 -1.0009,-0.0385 -0.24499,0.22685 0.20653,0.77405 -0.0384,1.0009 -2.1505,1.9914 0.20251,-3.1616 -2.0403,0.92401 -0.19489,0.35502 -0.16551,4.3084 -0.19225,5.0046 -0.0273,0.70946 -0.35017,5.7418 -0.23071,6.0055 0.1948,0.43014 0.76767,0.60925 0.96247,1.0394 0.13774,0.30415 -0.1762,0.69677 -0.0385,1.0009 0.1948,0.43013 0.76767,0.60924 0.96247,1.0394 0.27548,0.6083 -0.53062,1.5119 -0.0769,2.0018 0.22686,0.24499 0.77406,-0.20653 1.0009,0.0385 0.22686,0.24499 -0.26531,0.75594 -0.0385,1.0009 0.211,0.22786 2.6674,-0.12735 3.0028,0.11535 0.76507,0.55362 1.1599,1.5251 1.9249,2.0787 0.54099,0.39148 1.5481,-0.41306 2.0018,0.0769 0.22686,0.24499 -0.37209,0.98811 -0.0385,1.0009 0.33364,0.0128 0.0513,-1.3346 0.0385,-1.0009 -0.0282,0.73476 -0.0428,5.6633 -0.23071,6.0055 -0.22722,0.41392 -0.81214,0.54855 -1.0394,0.96247 -0.16067,0.29268 -0.0256,0.66728 -0.0385,1.0009 -0.0572,1.4898 0.10013,1.2833 -1.1163,2.9643 0.0238,1.9867 -1.4925,0.41674 -2.0403,0.92401 -0.24499,0.22686 -0.0256,0.66729 -0.0384,1.0009 -0.0128,0.33364 -0.0256,0.66728 -0.0385,1.0009 -0.0528,1.3734 -0.64995,3.2203 0.8471,4.0421 0.29269,0.16067 0.77407,-0.20653 1.0009,0.0385 0.22686,0.24498 -0.2653,0.75593 -0.0385,1.0009 0.22686,0.24498 0.70824,-0.12222 1.0009,0.0385 0.41392,0.22722 0.54855,0.81215 0.96247,1.0394 0.29268,0.16067 0.77406,-0.20653 1.0009,0.0385 0.22686,0.24499 -0.37209,0.9881 -0.0385,1.0009 0.33365,0.0128 0.0513,-1.3346 0.0385,-1.0009 -0.0897,2.3355 -0.17944,4.671 -0.26916,7.0064 -0.0641,1.6682 -0.12818,3.3364 -0.19226,5.0046 -0.0128,0.33364 0.20654,0.77407 -0.0385,1.0009 -2.1505,1.9914 0.20251,-3.1616 -2.0403,0.92402 -0.16067,0.29268 -0.0256,0.66728 -0.0385,1.0009 -0.0865,2.2521 -0.32723,-0.17963 1.9634,1.0778 0.29269,0.16067 -0.2653,0.75594 -0.0384,1.0009 0.22686,0.24498 0.70824,-0.12223 1.0009,0.0385 1.3626,0.74803 0.93251,1.8194 0.88557,3.0412 -0.0902,2.3473 0.25404,-0.46277 -1.0778,1.9634 -0.74335,1.3541 1.1778,0.94185 -1.0778,1.9634 -0.30414,0.13774 -0.75593,-0.26531 -1.0009,-0.0385 -0.24499,0.22685 -0.0256,0.66728 -0.0385,1.0009 -0.0769,2.0018 -0.15381,4.0037 -0.23071,6.0055 -0.0128,0.33364 -0.1762,0.69677 -0.0385,1.0009 0.19479,0.43014 0.76767,0.60924 0.96246,1.0394 0.13774,0.30416 -0.0256,0.66728 -0.0385,1.0009 -0.0869,2.2613 0.1664,-0.4419 -1.1163,2.9643 -0.11767,0.31246 0.12221,0.70823 -0.0385,1.0009 -0.22723,0.41391 -0.81215,0.54855 -1.0394,0.96246 -0.16068,0.29269 -0.0256,0.66729 -0.0385,1.0009 -0.0128,0.33365 -0.1762,0.69677 -0.0385,1.0009 0.45463,1.0039 3.3952,3.1536 3.8499,4.1575 0.13774,0.30414 -0.26531,0.75593 -0.0385,1.0009 0.22686,0.24498 0.70824,-0.12222 1.0009,0.0384 0.63857,0.35055 1.37,1.2278 0.924,2.0403 -0.22721,0.41392 -0.81214,0.54854 -1.0394,0.96247 -0.16067,0.29267 0.20653,0.77405 -0.0385,1.0009 -0.24499,0.22685 -0.75594,-0.26532 -1.0009,-0.0384 -0.21249,0.19675 0.0983,2.6135 -0.11536,3.0028 -0.89202,1.6249 -1.9225,0.19541 -1.1163,2.9643 0.26403,0.90672 1.5353,1.2185 1.9249,2.0787 0.13773,0.30415 -0.0256,0.66729 -0.0384,1.0009 -0.0256,0.66728 -0.0513,1.3346 -0.0769,2.0018 -0.0128,0.33363 0.20653,0.77405 -0.0385,1.0009 -0.24499,0.22686 -0.84025,-0.33113 -1.0009,-0.0384 -0.32135,0.58537 -0.0513,1.3346 -0.0769,2.0018 -0.0128,0.33364 0.20653,0.77406 -0.0384,1.0009 -0.24498,0.22685 -0.75595,-0.26531 -1.0009,-0.0385 -2.8207,-0.0461 -0.34157,2.2469 -1.1163,2.9643 -0.24498,0.22686 -0.75593,-0.2653 -1.0009,-0.0385 -0.51969,0.48124 0.40432,2.5215 -0.11536,3.0028 -0.48997,0.45371 -1.3936,-0.35239 -2.0018,-0.0769 -2.2556,1.0215 -0.33447,0.60928 -1.0778,1.9634 -0.22721,0.41391 -0.87296,0.52057 -1.0394,0.96246 -0.23533,0.62493 -0.0513,1.3346 -0.0769,2.0018 -0.0128,0.33363 -0.0256,0.66728 -0.0384,1.0009 -0.0128,0.33364 -0.26532,0.75593 -0.0385,1.0009 0.22685,0.24499 0.70823,-0.12221 1.0009,0.0385 0.26065,0.1431 2.7647,2.8473 2.8874,3.1181 0.13773,0.30415 -0.0256,0.66728 -0.0384,1.0009 -0.0128,0.33364 -0.0256,0.66728 -0.0385,1.0009 -0.0128,0.33364 -0.0256,0.66728 -0.0385,1.0009 -0.0128,0.33363 0.12222,0.70823 -0.0385,1.0009 -0.22722,0.41391 -0.69292,0.64164 -1.0394,0.96246 -0.34646,0.32083 -0.60924,0.76767 -1.0394,0.96247 -0.30416,0.13775 -0.75594,-0.2653 -1.0009,-0.0384 -0.48995,0.45372 0.41307,1.5481 -0.0769,2.0018 -0.24498,0.22686 -0.75593,-0.26531 -1.0009,-0.0385 -0.24499,0.22685 0.12221,0.70824 -0.0385,1.0009 -0.22723,0.41393 -0.81215,0.54855 -1.0394,0.96247 -0.16068,0.29269 0.28619,1.0789 -0.0385,1.0009 -1.7483,-0.42005 -4.0624,-3.7702 -4.9277,-2.1941 -0.9089,1.6557 2.7275,2.6384 3.8499,4.1575 0.19842,0.26852 -0.0256,0.66727 -0.0385,1.0009 -0.0128,0.33364 -0.0256,0.66728 -0.0385,1.0009 -0.082,2.1336 0.32203,6.459 -1.3085,7.9689 -0.71683,0.66379 -1.8431,-0.81223 -1.9634,-1.0778 -0.27549,-0.6083 0.53061,-1.5119 0.0769,-2.0018 -0.22686,-0.24498 -0.77407,0.20653 -1.0009,-0.0385 -1.1968,-1.2924 -0.90424,-2.5551 -0.84711,-4.0421 0.0128,-0.33365 0.17619,-0.69678 0.0385,-1.0009 -0.19479,-0.43013 -0.76767,-0.60923 -0.96246,-1.0394 -0.52453,-1.1582 2.1821,-4.9059 2.1941,-4.9277 z"
           id="path2989-4" />
        <path
           inkscape:connector-curvature="0"
           style="fill:#000000;fill-opacity:1"
           d="m 433.34,251.92 c -4.3652,2.7401 -4.8567,2.7524 -8.8937,3.191 -0.50739,0.0551 -1.1915,-0.13276 -1.5221,0.16538 -0.33062,0.29812 0.45004,0.80131 0.11949,1.0994 -0.70134,0.63239 -3.865,-0.13632 -4.5663,0.49607 -0.3306,0.29809 0.45004,0.8013 0.11948,1.0994 -0.3306,0.29809 -1.0861,-0.0478 -1.5221,0.16537 -0.6166,0.30148 -0.78608,0.96328 -1.4027,1.2648 -0.436,0.21317 -1.1915,-0.13277 -1.5221,0.16538 -0.33062,0.29809 0.45005,0.80128 0.11949,1.0994 -0.66124,0.59622 -2.1722,-0.0957 -3.0442,0.33071 -0.61659,0.3015 -0.78605,0.96326 -1.4027,1.2648 -0.87199,0.4264 -2.383,-0.2655 -3.0442,0.33071 -0.33061,0.29812 0.55543,0.88623 0.11948,1.0994 -0.87199,0.42639 -2.1722,-0.0957 -3.0442,0.33071 -0.43599,0.21319 0.45006,0.80131 0.11938,1.0994 -0.3306,0.29812 -1.0861,-0.0478 -1.5221,0.16538 -0.38074,0.18618 -1.6416,2.1603 -2.9248,1.4301 -0.38691,-0.22015 0.14309,-0.79629 -0.11948,-1.0994 -0.37125,-0.4287 -1.2703,-0.50537 -1.6415,-0.93405 -0.2625,-0.30313 0.14308,-0.79628 -0.11939,-1.0994 -1.0566,-1.22 -3.868,-1.5821 -4.9246,-2.8022 -0.525,-0.60626 0.53497,-1.7585 -0.23887,-2.1988 -0.16413,-0.0934 -4.426,0.36954 -4.5663,0.49606 -0.33061,0.29812 0.31074,0.74698 0.11949,1.0994 -1.4186,2.6137 -0.90761,0.44378 -2.9248,1.4301 -1.2332,0.60298 -1.5722,1.9265 -2.8053,2.5295 -0.43602,0.21318 -1.0861,-0.0478 -1.5221,0.16538 -1.2332,0.60299 -1.4795,2.0539 -2.8053,2.5295 -1.4062,0.50453 -3.0442,0.33071 -4.5663,0.49606 -0.50737,0.0551 -1.0148,0.11025 -1.5221,0.16538 -0.50738,0.0551 -1.0505,0.27995 -1.5221,0.16538 -0.66697,-0.16206 -0.97456,-0.77201 -1.6415,-0.93407 -0.47161,-0.11459 -1.0282,0.22895 -1.5221,0.16538 -1.1045,-0.14221 -2.0592,-0.62649 -3.1636,-0.7687 -0.98036,-0.12621 -4.8631,0.52831 -6.0884,0.66142 -0.50736,0.0551 -1.0147,0.11025 -1.5221,0.16538 -0.50737,0.0551 -1.1915,-0.13277 -1.5221,0.16538 -0.33061,0.29811 0.45003,0.8013 0.11938,1.0994 -0.33061,0.29813 -1.1915,-0.13274 -1.5221,0.16538 -0.3306,0.29811 0.0796,0.73295 0.11938,1.0994 -0.50737,0.0551 -1.0861,-0.0478 -1.5221,0.16538 -0.81253,0.39731 -2.3146,2.4762 -2.8053,2.5295 -0.71755,0.0779 -1.174,-1.3556 -1.6416,-0.93407 -0.46756,0.42159 2.3591,0.85612 1.6416,0.93407 -1.1345,0.12324 -2.0592,-0.62649 -3.1636,-0.76871 -4.6496,-0.59868 3.4059,2.264 -4.6857,-0.60335 -0.62825,-0.22263 -1.2703,-0.50536 -1.6416,-0.93406 -0.26251,-0.30313 0.38795,-1.1545 -0.11948,-1.0994 -0.50735,0.0551 0.62682,1.0443 0.11948,1.0994 -2.4753,0.26892 -0.60805,-2.0183 -3.1636,-0.7687 -2.438,1.1921 -0.44887,2.2735 -4.3274,2.6949 -0.50736,0.0551 -1.0505,0.27995 -1.5221,0.16538 -6.5832,-1.5996 1.6354,-0.10083 -1.761,-2.0335 -0.77384,-0.44031 -2.101,0.5599 -3.0442,0.33071 -6.5832,-1.5996 1.6354,-0.10083 -1.761,-2.0335 -0.2315,-0.13173 -4.2664,0.34936 -4.5663,0.49606 -0.6166,0.30148 -0.78607,0.96327 -1.4027,1.2648 -0.43601,0.21318 -1.1915,-0.13277 -1.5221,0.16538 -0.33063,0.29809 0.45003,0.80128 0.11948,1.0994 -0.33063,0.29811 -1.5619,-0.20111 -1.5221,0.16538 0.0398,0.36647 2.0295,-0.22051 1.5221,-0.16538 -0.6017,0.0653 -6.986,0.52138 -7.6105,0.82676 -0.61659,0.3015 -1.1322,0.76634 -1.4027,1.2648 -0.40936,0.75424 0.99183,4.77 0.59718,5.4971 -0.1913,0.35243 -1.1915,-0.13275 -1.5221,0.16538 -0.33063,0.2981 0.45004,0.80129 0.11948,1.0994 -0.33063,0.2981 -1.0861,-0.0478 -1.5221,0.16537 -0.61661,0.30149 -0.78608,0.96327 -1.4027,1.2648 -0.436,0.21318 -1.0147,0.11025 -1.5221,0.16538 -3.7618,0.40865 -2.2704,0.77102 -4.6858,-0.60335 -0.54718,-0.31136 -1.2703,-0.50538 -1.6415,-0.93406 -0.26251,-0.30314 0.26746,-0.87927 -0.11949,-1.0994 -0.38693,-0.22015 -1.1352,0.38551 -1.5221,0.16538 -0.38691,-0.22015 0.14308,-0.79627 -0.11948,-1.0994 -0.23379,-0.26994 -4.5046,-2.7001 -4.9246,-2.8022 -0.41594,-0.10105 -5.2925,0.57495 -6.0884,0.66141 -0.36915,0.0402 -4.5212,0.45535 -4.5663,0.49607 -0.33062,0.29812 0.45005,0.80132 0.11948,1.0994 -0.33062,0.29812 -1.0147,0.11026 -1.5221,0.16538 -1.0587,0.11503 -7.0817,0.56818 -7.6105,0.82677 -0.61659,0.30151 -0.78605,0.96328 -1.4027,1.2648 -0.43599,0.21319 -1.1915,-0.13274 -1.5221,0.16538 -0.73925,0.66659 -1.0089,1.5478 -1.2832,2.3642 -0.12268,0.36509 0.45005,0.80131 0.11949,1.0994 -0.33062,0.2981 -1.1352,0.3855 -1.5221,0.16538 -0.3869,-0.22017 0.26749,-0.87927 -0.11938,-1.0994 -0.3869,-0.22015 -1.1352,0.38551 -1.5221,0.16538 -0.38691,-0.22016 0.2675,-0.87924 -0.11948,-1.0994 -0.38691,-0.22015 -1.1915,-0.13274 -1.5221,0.16538 -0.33061,0.29812 0.45005,0.80131 0.11948,1.0994 -0.33061,0.2981 -1.1915,-0.13274 -1.5221,0.16538 -0.66124,0.59623 0.62143,1.494 0.23886,2.1988 -0.41739,0.76892 -1.6156,1.7482 -2.9248,1.4301 -0.66695,-0.16207 -0.9746,-0.77201 -1.6416,-0.93406 -0.47159,-0.1146 -1.1352,0.38551 -1.5221,0.16538 -0.38692,-0.22017 0.14306,-0.79629 -0.11948,-1.0994 -0.37125,-0.42871 -1.2703,-0.50538 -1.6416,-0.93407 -0.2625,-0.30315 0.26748,-0.87924 -0.11948,-1.0994 -0.38691,-0.22015 -1.0505,0.27995 -1.5221,0.16537 -0.66696,-0.16204 -0.97458,-0.772 -1.6415,-0.93406 -0.47161,-0.11458 -1.1352,0.38552 -1.5221,0.16538 -0.38693,-0.22016 0.26748,-0.87924 -0.11948,-1.0994 -0.38693,-0.22014 -1.1915,-0.13274 -1.5221,0.16538 -0.3306,0.29812 0.0796,0.73294 0.11948,1.0994 0.0399,0.36647 0.0796,0.73295 0.11948,1.0994 0.0503,0.46249 0.90747,6.2448 0.71661,6.5965 -0.27054,0.49841 -0.78608,0.96327 -1.4027,1.2648 -0.12468,0.061 -5.9536,0.69424 -6.0884,0.6614 -0.66694,-0.16206 -0.97459,-0.77198 -1.6415,-0.93405 -0.47162,-0.11459 -1.0147,0.11025 -1.5221,0.16537 -0.5472,-0.31135 -0.97458,-0.772 -1.6416,-0.93407 -0.41593,-0.10106 -5.2925,0.57495 -6.0884,0.66142 -0.50738,0.0551 -1.0147,0.11025 -1.5221,0.16538 -0.50734,0.0551 -1.5619,-0.20113 -1.5221,0.16537 0.0399,0.36648 2.0295,-0.2205 1.5221,-0.16537 -1.0147,0.11025 -2.0295,0.2205 -3.0442,0.33069 -0.50737,0.0551 -1.5619,-0.20111 -1.5221,0.16538 0.0399,0.36648 1.5619,0.20112 1.5221,-0.16538 -0.0563,-0.51825 -1.0944,-0.62268 -1.6415,-0.93404 -0.54718,-0.31135 -0.97457,-0.77201 -1.6416,-0.93406 -0.44386,-0.10786 -5.6781,0.4608 -6.0884,0.66142 -0.61659,0.30148 -0.78607,0.96326 -1.4026,1.2648 -0.43601,0.21319 -1.0148,0.11026 -1.5221,0.16538 -0.50736,0.0551 -1.1352,0.38552 -1.5221,0.16538 -3.3964,-1.9326 4.8222,-0.43403 -1.761,-2.0335 -0.4716,-0.11461 -1.0147,0.11025 -1.5221,0.16538 -0.50738,0.0551 -1.0147,0.11025 -1.5221,0.16538 -2.5368,0.27563 -5.0737,0.55117 -7.6105,0.82676 -0.50736,0.0551 -1.1352,0.38551 -1.5221,0.16538 -0.72957,-0.41515 0.95826,-2.2053 -1.6415,-0.93406 -6.0861,2.9759 1.6189,-0.25273 -1.2832,2.3642 -1.8702,1.6864 -1.7139,-2.1736 -2.9248,1.4301 -0.24536,0.73019 0.62145,1.494 0.23886,2.1988 -0.19129,0.35242 -1.1915,-0.13276 -1.5221,0.16538 -0.33063,0.29811 0.45005,0.8013 0.11948,1.0994 -2.9022,2.6168 -0.25453,-3.4894 -2.9248,1.4301 -0.19128,0.35244 0.45005,0.8013 0.11948,1.0994 -0.66121,0.59623 -3.1238,-0.40223 -3.0442,0.33071 0.0399,0.36647 1.7846,0.13779 1.5221,-0.16538 -0.7425,-0.85739 -2.1887,-1.2454 -3.2831,-1.8681 -1.0944,-0.6227 -2.0266,-1.4228 -3.2831,-1.8681 -0.44423,-0.15743 -1.0147,0.11025 -1.5221,0.16538 -0.79595,0.0864 -5.7039,0.47334 -6.0884,0.66141 -1.2332,0.60299 -1.5722,1.9266 -2.8053,2.5295 -0.43599,0.21319 -1.1915,-0.13276 -1.5221,0.16538 -0.33062,0.29813 0.45003,0.80132 0.11948,1.0994 -0.33062,0.29811 -1.0147,0.11025 -1.5221,0.16538 -4.641,0.50418 -0.14162,-1.112 -1.761,-2.0335 -0.0527,-0.0301 -4.1972,0.45596 -4.5663,0.49606 -0.50736,0.0551 -1.1915,-0.13276 -1.5221,0.16537 -0.33061,0.29812 0.31073,0.74699 0.11948,1.0994 -0.27053,0.49841 -1.1321,0.76636 -1.4027,1.2648 -0.19126,0.35244 0.45006,0.80131 0.11948,1.0994 -0.6612,0.59622 -2.383,-0.26551 -3.0442,0.33071 -0.33062,0.2981 0.31073,0.74699 0.11949,1.0994 -0.27053,0.4984 -1.1321,0.76635 -1.4027,1.2648 -1.0694,1.9701 3.1637,0.76871 -2.9248,1.4301 -0.50737,0.0551 -1.1352,0.38551 -1.5221,0.16538 -0.77384,-0.44032 0.28616,-1.5926 -0.23886,-2.1988 -0.37126,-0.42869 -0.97459,-0.77201 -1.6416,-0.93407 -0.52217,-0.12687 -7.5267,0.78578 -7.6105,0.82677 -0.6166,0.30149 -0.78607,0.96328 -1.4027,1.2648 -0.436,0.21319 -1.1915,-0.13276 -1.5221,0.16538 -0.33062,0.2981 0.0796,0.73295 0.11948,1.0994 -0.46758,0.4216 -0.8369,0.91244 -1.4027,1.2648 -0.89459,0.55709 -2.1855,0.76353 -2.9248,1.4301 -0.62341,0.56211 1.4094,1.9481 -1.4027,1.2648 -0.66698,-0.16206 -1.0944,-0.62271 -1.6416,-0.93406 -1.0944,-0.62269 -2.3934,-1.0921 -3.2831,-1.8681 -0.31458,-0.27434 0.26748,-0.87926 -0.11948,-1.0994 -0.2315,-0.13172 -4.2664,0.34935 -4.5663,0.49606 -1.2332,0.60299 -1.5722,1.9266 -2.8053,2.5295 -1.0101,0.4939 -7.1182,0.3828 -7.6105,0.82676 -0.33063,0.2981 0.3107,0.74697 0.11948,1.0994 -0.27054,0.4984 -1.1322,0.76635 -1.4027,1.2648 -0.19129,0.35241 0.45005,0.80129 0.11948,1.0994 -0.33062,0.29813 -1.0147,0.11025 -1.5221,0.16538 -1.372,0.14906 -6.6776,0.4921 -7.6105,0.82677 -1.0481,0.37608 -2.3695,0.67993 -2.9248,1.4301 -0.49663,0.671 0.62145,1.494 0.23887,2.1988 -0.19129,0.35244 -1.0147,0.11026 -1.5221,0.16538 -0.5074,0.0551 -1.1352,0.38552 -1.5221,0.16538 -0.3869,-0.22016 -0.07962,-0.73294 -0.11943,-1.0994 -0.06666,-0.61364 -0.77474,-4.9686 -0.59717,-5.4971 1.2109,-3.6037 1.0546,0.25624 2.9248,-1.4301 0.33063,-0.29812 -0.31072,-0.74699 -0.11943,-1.0994 0.54106,-0.99683 2.2643,-1.5327 2.8053,-2.5295 0.1913,-0.35243 -0.45003,-0.80129 -0.11943,-1.0994 0.33062,-0.29812 1.1915,0.13276 1.5221,-0.16538 0.33061,-0.29811 -0.45004,-0.8013 -0.11943,-1.0994 0.33061,-0.2981 1.0861,0.0478 1.5221,-0.16538 0.6166,-0.30149 0.68514,-1.1868 1.4027,-1.2648 0.50738,-0.0551 0.0796,0.73295 0.11943,1.0994 0.0398,0.36647 0.0796,0.73295 0.11944,1.0994 0.16388,1.5085 -0.41239,3.6462 1.9998,4.2323 0.47161,0.11458 1.0861,0.0478 1.5221,-0.16538 0.61658,-0.30149 0.93511,-0.84316 1.4027,-1.2648 0.46756,-0.42159 1.1322,-0.76636 1.4027,-1.2648 0.19128,-0.35243 -0.45006,-0.80131 -0.11948,-1.0994 2.9022,-2.6168 0.25453,3.4895 2.9248,-1.4301 0.19128,-0.35243 -0.45007,-0.8013 -0.11949,-1.0994 0.73928,-0.66658 2.0302,-0.87301 2.9248,-1.4301 0.5658,-0.35233 0.78608,-0.96326 1.4027,-1.2648 0.87198,-0.42637 2.383,0.26551 3.0442,-0.33071 0.33061,-0.29811 -0.31075,-0.74698 -0.11949,-1.0994 0.27053,-0.49842 0.93512,-0.84318 1.4027,-1.2648 -0.0796,-0.73295 -0.48422,-1.4686 -0.23887,-2.1988 1.2109,-3.6036 1.0545,0.25624 2.9248,-1.4301 4.2784,-0.53378 0.1183,-2.5209 1.1638,-3.4636 0.33061,-0.29812 1.0148,-0.11026 1.5221,-0.16538 0.50738,-0.0551 1.0147,-0.11026 1.5221,-0.16538 1.2253,-0.1331 5.1081,-0.78763 6.0884,-0.66141 1.1044,0.1422 2.0592,0.62648 3.1636,0.76869 0.98035,0.12625 4.8631,-0.5283 6.0884,-0.66141 3.0862,-0.33527 7.0022,-0.27821 9.0132,-2.0915 0.33061,-0.29812 -0.45005,-0.80132 -0.11938,-1.0994 0.33061,-0.29811 1.0861,0.0478 1.5221,-0.16537 0.61658,-0.30151 0.78606,-0.96329 1.4026,-1.2648 2.7336,-1.3366 0.23708,1.128 3.2831,1.8681 0.47162,0.1146 1.0147,-0.11025 1.5221,-0.16538 0.50734,-0.0551 1.0147,-0.11025 1.5221,-0.16537 10.096,-1.0968 -2.0963,0.75211 4.4469,-1.5955 0.93748,-0.33636 2.1722,0.0957 3.0442,-0.33071 0.436,-0.2132 -0.45005,-0.80133 -0.11949,-1.0994 0.33061,-0.29811 1.0148,-0.11025 1.5221,-0.16538 0.50737,-0.0551 1.0147,-0.11025 1.5221,-0.16538 2.5368,-0.27563 5.0737,-0.55118 7.6105,-0.82677 1.0147,-0.11025 2.1722,0.0957 3.0442,-0.33071 0.43599,-0.21318 -0.31073,-0.74699 -0.11948,-1.0994 1.4187,-2.6137 0.90763,-0.44379 2.9248,-1.4301 1.2332,-0.603 1.5722,-1.9266 2.8054,-2.5296 0.43599,-0.21318 1.5619,0.20112 1.5221,-0.16538 -0.0398,-0.36648 -1.5619,-0.20112 -1.5221,0.16538 0.089,0.81946 1.3178,1.295 1.761,2.0335 0.1982,0.33023 -0.14308,0.79628 0.11948,1.0994 0.37124,0.4287 0.9746,0.772 1.6415,0.93406 0.62899,0.15282 6.0867,-0.66036 6.0884,-0.66141 0.89459,-0.55712 0.54396,-1.6976 1.2832,-2.3642 0.33062,-0.29811 1.1915,0.13277 1.5221,-0.16538 0.3306,-0.29811 -0.45007,-0.8013 -0.11948,-1.0994 0.09,-0.0811 5.5808,-2.6929 5.8495,-2.8602 0.56579,-0.35234 0.78608,-0.96328 1.4027,-1.2648 2.7336,-1.3366 0.23708,1.128 3.2831,1.8681 0.47163,0.11461 1.1352,-0.3855 1.5221,-0.16538 0.86517,0.4923 0.89579,1.5412 1.761,2.0335 0.38693,0.22017 1.0148,-0.11026 1.5221,-0.16538 0.50736,-0.0551 1.0147,-0.11026 1.5221,-0.16538 0.79594,-0.0864 5.7039,-0.47344 6.0884,-0.66142 0.61658,-0.30149 0.9351,-0.84318 1.4027,-1.2648 0.46754,-0.4216 1.0515,-0.7903 1.4026,-1.2648 0.55525,-0.75017 0.72802,-1.614 1.2832,-2.3642 -0.38857,-2.1615 2.1855,-0.76352 2.9248,-1.4301 0.3306,-0.29812 -0.45006,-0.80132 -0.11948,-1.0994 0.33061,-0.29809 1.0147,-0.11025 1.5221,-0.16537 0.50737,-0.0551 1.1352,-0.38551 1.5221,-0.16538 0.38691,0.22015 -0.26746,0.87925 0.11949,1.0994 0.38691,0.22015 1.1352,-0.38553 1.5221,-0.16538 0.3869,0.22016 -0.2675,0.87923 0.11948,1.0994 0.3869,0.22017 1.1352,-0.38552 1.5221,-0.16538 3.3964,1.9326 -4.8222,0.43404 1.761,2.0335 0.57204,0.139 6.5518,-0.71176 7.6105,-0.82677 1.0789,-0.11724 8.7545,-0.80723 9.1326,-0.99212 0.6166,-0.30148 0.78609,-0.96326 1.4027,-1.2648 0.43599,-0.21322 1.0861,0.0478 1.5221,-0.16538 0.6166,-0.30151 0.78606,-0.96328 1.4027,-1.2648 0.87199,-0.42637 2.383,0.26552 3.0442,-0.3307 0.33063,-0.29813 -0.45005,-0.8013 -0.11939,-1.0994 0.33062,-0.29812 1.1915,0.13275 1.5221,-0.16538 0.30748,-0.27727 -0.66621,-2.8822 -0.35831,-3.2983 0.70234,-0.94891 2.103,-1.5806 2.8053,-2.5295 0.49666,-0.67097 -0.90008,-1.6026 -0.23886,-2.1988 0.33064,-0.2981 1.5619,0.20112 1.5221,-0.16538 -0.0398,-0.36647 -2.0295,0.2205 -1.5221,0.16538 1.1174,-0.12134 8.5812,-1.1261 9.1326,-0.99213 0.66694,0.16206 0.97457,0.77201 1.6415,0.93407 0.4716,0.11459 1.0147,-0.11025 1.5221,-0.16538 2.2655,-0.24614 1.925,-0.37496 4.6858,0.60334 3.0035,-0.43729 0.8958,1.5412 1.761,2.0335 0.38692,0.22017 1.0148,-0.11025 1.5221,-0.16538 0.50739,-0.0551 1.0147,-0.11025 1.5221,-0.16538 2.0885,-0.22684 4.9905,0.0418 5.969,-1.7608 0.19128,-0.35242 -0.45005,-0.80131 -0.11949,-1.0994 0.33061,-0.29808 1.1915,0.13277 1.5221,-0.16537 0.33061,-0.29809 -0.31073,-0.74697 -0.11949,-1.0994 0.27053,-0.49839 1.1321,-0.76635 1.4027,-1.2648 0.1913,-0.35241 -0.45004,-0.80129 -0.11948,-1.0994 0.33061,-0.29812 1.5619,0.20111 1.5221,-0.16538 -0.0398,-0.36648 -2.0294,0.22051 -1.5221,0.16538 3.5516,-0.38582 7.1031,-0.77165 10.655,-1.1575 2.5368,-0.27563 5.0737,-0.55118 7.6105,-0.82677 0.50737,-0.0551 1.1352,-0.38553 1.5221,-0.16538 3.3964,1.9326 -4.8222,0.43394 1.761,2.0335 0.4716,0.1146 1.0147,-0.11025 1.5221,-0.16537 3.4247,-0.37205 -0.21386,0.39402 1.2832,-2.3642 0.19129,-0.35244 1.1915,0.13275 1.5221,-0.16538 0.33059,-0.29811 -0.31074,-0.74698 -0.11948,-1.0994 0.89059,-1.6408 2.5889,-1.3936 4.4469,-1.5955 3.5696,-0.38778 -0.74567,-0.18118 3.1636,0.76871 2.1819,0.53016 1.2168,-1.4793 3.1636,0.76871 0.26252,0.30314 -0.26747,0.87926 0.11948,1.0994 0.38691,0.22017 1.0147,-0.11025 1.5221,-0.16538 3.0442,-0.33069 6.0884,-0.6614 9.1326,-0.99211 0.50737,-0.0551 1.0861,0.0478 1.5221,-0.16538 0.61661,-0.3015 0.78607,-0.96327 1.4027,-1.2648 0.43601,-0.21318 1.0147,-0.11025 1.5221,-0.16538 3.4388,-0.37357 -0.69851,-0.0899 4.6858,0.60335 0.49392,0.0636 1.0505,-0.27994 1.5221,-0.16538 0.66694,0.16206 0.97459,0.77202 1.6415,0.93407 0.47164,0.11459 1.0147,-0.11025 1.5221,-0.16538 0.50737,-0.0551 1.0861,0.0478 1.5221,-0.16538 1.439,-0.70364 4.1716,-4.3554 5.6107,-5.0591 0.43599,-0.21318 1.1915,0.13275 1.5221,-0.16538 0.3306,-0.2981 -0.31072,-0.74698 -0.11938,-1.0994 0.41736,-0.76893 1.6156,-1.7482 2.9248,-1.4301 0.66696,0.16203 0.97459,0.772 1.6416,0.93404 0.47158,0.11459 1.1352,-0.38551 1.5221,-0.16538 0.38691,0.22017 -0.26749,0.87926 0.11949,1.0994 0.33558,0.19096 3.9391,-0.64846 4.5663,-0.49606 2.6183,0.6362 0.63704,2.056 4.6857,0.60335 1.3258,-0.47568 1.5721,-1.9265 2.8053,-2.5295 0.436,-0.21317 1.0147,-0.11025 1.5221,-0.16538 1.0147,-0.11025 2.0295,-0.22051 3.0442,-0.33071 0.50735,-0.0551 1.1352,-0.3855 1.5221,-0.16538 0.38693,0.22017 -0.35217,0.98484 0.11948,1.0994 0.94321,0.22918 2.0295,-0.22051 3.0442,-0.33071 0.50739,-0.0551 1.1352,-0.38552 1.5221,-0.16538 0.38691,0.22014 -0.26748,0.87926 0.11948,1.0994 0.43074,3.0854 3.4622,-0.0928 4.6857,0.60337 0.38692,0.22016 -0.26745,0.87926 0.11938,1.0994 0.82079,0.46704 3.7456,-0.96308 4.5663,-0.49606 0.77383,0.44032 -0.28615,1.5926 0.23887,2.1988 1.9468,2.2481 0.98173,0.23856 3.1636,0.76872 0.66694,0.16205 0.94302,0.84413 1.6415,0.93406 0.98786,0.12719 2.0295,-0.22051 3.0442,-0.33071 0.50735,-0.0551 1.0147,-0.11025 1.5221,-0.16538 0.50735,-0.0551 1.1915,0.13277 1.5221,-0.16538 0.33064,-0.2981 -0.3107,-0.74698 -0.11948,-1.0994 0.17037,-0.31385 3.8197,-3.6044 4.208,-3.7943 0.43598,-0.21318 1.0147,-0.11025 1.5221,-0.16538 0.50737,-0.0551 1.0147,-0.11025 1.5221,-0.16538 0.50737,-0.0551 1.0147,-0.11025 1.5221,-0.16538 0.50736,-0.0551 1.0505,-0.27994 1.5221,-0.16538 0.66694,0.16206 1.0944,0.62273 1.6415,0.93407 0.5472,0.31136 1.2703,0.50536 1.6416,0.93405 0.26251,0.30315 -0.2675,0.87927 0.11948,1.0994 0.77381,0.44033 2.2704,-0.77103 3.0442,-0.33071 0.38692,0.22018 -0.26748,0.87926 0.11948,1.0994 0.38692,0.22016 1.0505,-0.27993 1.5221,-0.16538 0.66695,0.16206 0.97459,0.77201 1.6415,0.93407 0.47162,0.11459 1.5826,-0.53552 1.5221,-0.16538 -0.32561,1.9934 -4.9867,5.2107 -2.447,5.8278 2.6678,0.64823 3.5102,-3.5206 5.6107,-5.0591 0.37131,-0.27198 1.0147,-0.11025 1.5221,-0.16538 0.50737,-0.0551 1.0147,-0.11025 1.5221,-0.16538 3.2446,-0.35248 9.721,-1.6888 12.296,-0.2234 1.1322,0.64419 -0.90251,2.178 -1.2832,2.3642 -0.872,0.4264 -2.383,-0.26551 -3.0442,0.33071 -0.33062,0.2981 0.45005,0.80131 0.11938,1.0994 -1.7441,1.5726 -3.7077,1.5152 -5.969,1.7608 -0.50737,0.0551 -1.0861,-0.0478 -1.5221,0.16538 -0.61661,0.3015 -0.78607,0.96328 -1.4027,1.2648 -1.6603,0.81182 -7.8143,-1.3635 -7.8494,-1.3721 z"
           id="path2989-0" />
      </g>
    </g>
  </g>
</svg>
