<?xml version="1.0" encoding="UTF-8" standalone="no"?>
<!-- Created with Inkscape (http://www.inkscape.org/) -->

<svg
   xmlns:dc="http://purl.org/dc/elements/1.1/"
   xmlns:cc="http://creativecommons.org/ns#"
   xmlns:rdf="http://www.w3.org/1999/02/22-rdf-syntax-ns#"
   xmlns:svg="http://www.w3.org/2000/svg"
   xmlns="http://www.w3.org/2000/svg"
   xmlns:sodipodi="http://sodipodi.sourceforge.net/DTD/sodipodi-0.dtd"
   xmlns:inkscape="http://www.inkscape.org/namespaces/inkscape"
   width="62mm"
   height="88mm"
   viewBox="0 0 219.68504 311.81102"
   id="svg2"
   version="1.1"
   inkscape:version="0.91 r13725"
   sodipodi:docname="a_rain.svg">
  <defs
     id="defs4">
    <inkscape:perspective
       sodipodi:type="inkscape:persp3d"
       inkscape:vp_x="0 : 155.90551 : 1"
       inkscape:vp_y="0 : 1000 : 0"
       inkscape:vp_z="219.68504 : 155.90551 : 1"
       inkscape:persp3d-origin="109.84252 : 103.93701 : 1"
       id="perspective6315" />
    <clipPath
       clipPathUnits="userSpaceOnUse"
       id="clipPath8648">
      <path
         style="fill:#ff0000;fill-opacity:1;fill-rule:evenodd;stroke:none;stroke-width:1px;stroke-linecap:butt;stroke-linejoin:miter;stroke-opacity:1"
         d="m 48.7971,144.54832 -4.54568,-1.2627 -4.04062,0.50508 -4.79822,3.40927 -5.93465,4.29314 -2.0203,2.90419 0.12627,2.65165 2.65165,2.14658 -1.01015,1.76776 -3.283,1.26269 -3.40926,8.08123 6.31345,9.34391 10.35406,-0.75762 46.21448,3.91434 25.50635,-7.19733 9.47018,-5.05077 0.12627,-10.10152 -2.65165,-1.13642 0.88389,-15.15229 10.35406,-6.9448 3.28299,-3.91434 6.566,-7.82868 0.50507,-4.54569 -4.54568,-1.89404 -2.14658,1.01016 -4.16688,1.13642 -5.93464,-2.90419 -2.77792,-1.76777 -5.80838,2.39911 -2.90419,3.03046 -3.40926,4.9245 -7.07107,0.3788 -8.96511,5.80838 -2.90418,2.14657 -3.66181,0.12627 -5.55584,-0.3788 -17.29886,2.65165 z"
         id="path8650"
         inkscape:connector-curvature="0" />
    </clipPath>
    <mask
       maskUnits="userSpaceOnUse"
       id="mask8666">
      <rect
         rx="1.7260212"
         ry="2.8714814"
         y="98.924339"
         x="22.885082"
         height="109.83415"
         width="100.10923"
         id="rect8668"
         style="opacity:1;fill:#ffffff;fill-opacity:1;stroke:none;stroke-width:2.01114893;stroke-linecap:round;stroke-linejoin:bevel;stroke-miterlimit:4;stroke-dasharray:none;stroke-dashoffset:0;stroke-opacity:1" />
    </mask>
    <clipPath
       clipPathUnits="userSpaceOnUse"
       id="clipPath9647">
      <path
         style="fill:#ff0000;fill-opacity:1;fill-rule:evenodd;stroke:none;stroke-width:1px;stroke-linecap:butt;stroke-linejoin:miter;stroke-opacity:1"
         d="m 24.29467,289.85466 12.14286,-9.28572 41.42857,-15.71428 40,-5 20,5 2.85715,7.14285 9.28571,6.42858 10,1.42857 -3.57143,13.57143 -15.71428,10 -27.85715,5.71428 -74.28571,1.42857 z"
         id="path9649"
         inkscape:connector-curvature="0" />
    </clipPath>
    <inkscape:path-effect
       pattern-nodetypes="sssss"
       fuse_tolerance="0"
       vertical_pattern="false"
       prop_units="false"
       tang_offset="0"
       normal_offset="0"
       spacing="0"
       scale_y_rel="false"
       prop_scale="1"
       copytype="single_stretched"
       pattern="M 0,5 C 0,2.24 2.24,0 5,0 7.76,0 7,0.24 7,3 7,5.76 7.76,5.75 5,5.75 2.24,5.75 0,7.76 0,5 Z"
       is_visible="true"
       id="path-effect20326"
       effect="skeletal" />
    <clipPath
       clipPathUnits="userSpaceOnUse"
       id="clipPath7877">
      <path
         style="fill:#ff0000;fill-opacity:1;fill-rule:evenodd;stroke:none;stroke-width:1px;stroke-linecap:butt;stroke-linejoin:miter;stroke-opacity:1"
         d="m 1349.8263,623.67274 -143.5316,10.50232 -77.0169,-21.00459 -119.0262,66.51457 -91.01997,38.50849 -189.04149,-14.00311 -31.50696,-80.51768 -52.51151,-94.52074 -49.01077,-77.01694 -45.51,-31.50692 -38.50846,31.50692 -21.00461,24.50538 -87.51923,56.0123 L 264.58784,578.16276 121.05631,581.6635 110.554,564.1597 96.550923,357.61431 103.55246,4.0366248 142.06092,-23.9695 l 304.56691,3.500741 59.51307,3.50079 171.53769,-10.502321 115.52538,0 38.50845,28.00617372 38.50844,3.50074108 224.04924,-28.0061248 101.5223,35.007656 91.02,87.519261 -3.5008,140.030723 3.5008,238.0523 7.0016,45.51003 3.5007,112.02459 z"
         id="path7879"
         inkscape:connector-curvature="0" />
    </clipPath>
    <filter
       style="color-interpolation-filters:sRGB"
       id="filter8486"
       inkscape:label="filter1" />
    <clipPath
       clipPathUnits="userSpaceOnUse"
       id="clipPath8513">
      <path
         style="fill:#ff0000;fill-opacity:1;fill-rule:evenodd;stroke:none;stroke-width:1px;stroke-linecap:butt;stroke-linejoin:miter;stroke-opacity:1"
         d="m 1037.9071,144.02626 13.0113,78.06757 -32.5282,52.04505 -117.10134,39.03376 -175.65205,19.5169 -149.62954,13.0113 -71.56195,-45.53943 -65.05628,-110.59572 143.12385,-84.57325 52.04505,-39.033754 6.50568,-39.033819 39.03375,-13.01123 78.06757,-13.01129406 221.19149,-6.50561504 z"
         id="path8515"
         inkscape:connector-curvature="0" />
    </clipPath>
    <clipPath
       clipPathUnits="userSpaceOnUse"
       id="clipPath8513-1">
      <path
         style="fill:#ff0000;fill-opacity:1;fill-rule:evenodd;stroke:none;stroke-width:1px;stroke-linecap:butt;stroke-linejoin:miter;stroke-opacity:1"
         d="m 1037.9071,144.02626 13.0113,78.06757 -32.5282,52.04505 -117.10134,39.03376 -175.65205,19.5169 -149.62954,13.0113 -71.56195,-45.53943 -65.05628,-110.59572 143.12385,-84.57325 52.04505,-39.033754 6.50568,-39.033819 39.03375,-13.01123 78.06757,-13.01129406 221.19149,-6.50561504 z"
         id="path8515-4"
         inkscape:connector-curvature="0" />
    </clipPath>
    <clipPath
       clipPathUnits="userSpaceOnUse"
       id="clipPath8565">
      <path
         style="fill:#ff0000;fill-opacity:1;fill-rule:evenodd;stroke:none;stroke-width:1px;stroke-linecap:butt;stroke-linejoin:miter;stroke-opacity:1"
         d="m 1037.9071,144.02626 13.0113,78.06757 -32.5282,52.04505 -117.10134,39.03376 -175.65205,19.5169 -149.62954,13.0113 -71.56195,-45.53943 -65.05628,-110.59572 143.12385,-84.57325 52.04505,-39.033754 6.50568,-39.033819 39.03375,-13.01123 78.06757,-13.01129406 221.19149,-6.50561504 z"
         id="path8567"
         inkscape:connector-curvature="0" />
    </clipPath>
    <clipPath
       clipPathUnits="userSpaceOnUse"
       id="clipPath8637">
      <rect
         style="opacity:1;fill:#ff0000;fill-opacity:1;stroke:none;stroke-width:8.10000038;stroke-linecap:round;stroke-linejoin:bevel;stroke-miterlimit:4;stroke-dasharray:none;stroke-dashoffset:0;stroke-opacity:1"
         id="rect8639"
         width="193.57143"
         height="132.14285"
         x="-219.99998"
         y="776.64789" />
    </clipPath>
    <clipPath
       clipPathUnits="userSpaceOnUse"
       id="clipPath8741">
      <path
         style="fill:#ff0000;fill-opacity:1;fill-rule:evenodd;stroke:none;stroke-width:1px;stroke-linecap:butt;stroke-linejoin:miter;stroke-opacity:1"
         d="m -26.77703,99.03193 15.71429,-5.71429 45.71428,12.85714 57.14286,17.14286 74.28571,27.14285 25.71429,21.42857 100,30 44.28571,32.85715 60,-8.57143 28.57143,17.14286 27.14286,8.57142 48.57143,-14.28571 102.85714,7.14286 -4.28571,-187.14286 -7.14286,-12.85714 -37.14286,5.71428 -22.85714,2.85715 -51.42857,0 -67.14286,0 -22.85714,-1.42858 -14.28572,8.57143 -92.85714,0 -72.85714,-4.28571 -51.42857,5.71428 -37.14286,-2.85714 -32.85714,-2.85714 -32.85715,0 -38.57142,-4.28572 -48.57143,5.71429 z"
         id="path8743"
         inkscape:connector-curvature="0"
         sodipodi:nodetypes="cccccccccccccccccccccccccccccc" />
    </clipPath>
    <clipPath
       clipPathUnits="userSpaceOnUse"
       id="clipPath20203">
      <rect
         style="opacity:1;fill:#ff0000;fill-opacity:1;stroke:none;stroke-width:8.10000038;stroke-linecap:round;stroke-linejoin:bevel;stroke-miterlimit:4;stroke-dasharray:none;stroke-dashoffset:0;stroke-opacity:1"
         id="rect20205"
         width="17069.842"
         height="17666.689"
         x="2366.7041"
         y="-21212.371"
         transform="scale(1,-1)" />
    </clipPath>
    <clipPath
       clipPathUnits="userSpaceOnUse"
       id="clipPath16200">
      <rect
         style="opacity:1;fill:#ff0000;fill-opacity:1;stroke:none;stroke-width:8.10000038;stroke-linecap:round;stroke-linejoin:bevel;stroke-miterlimit:4;stroke-dasharray:none;stroke-dashoffset:0;stroke-opacity:1"
         id="rect16202"
         width="104.38721"
         height="73.647415"
         x="14.41088"
         y="-11.355354" />
    </clipPath>
  </defs>
  <sodipodi:namedview
     id="base"
     pagecolor="#ffffff"
     bordercolor="#666666"
     borderopacity="1.0"
     inkscape:pageopacity="0.0"
     inkscape:pageshadow="2"
     inkscape:zoom="1.4"
     inkscape:cx="96.239743"
     inkscape:cy="162.29324"
     inkscape:document-units="px"
     inkscape:current-layer="layer1"
     showgrid="false"
     inkscape:window-width="1920"
     inkscape:window-height="1026"
     inkscape:window-x="-2"
     inkscape:window-y="31"
     inkscape:window-maximized="1" />
  <metadata
     id="metadata7">
    <rdf:RDF>
      <cc:Work
         rdf:about="">
        <dc:format>image/svg+xml</dc:format>
        <dc:type
           rdf:resource="http://purl.org/dc/dcmitype/StillImage" />
        <dc:title></dc:title>
      </cc:Work>
    </rdf:RDF>
  </metadata>
  <g
     inkscape:label="Layer 1"
     inkscape:groupmode="layer"
     id="layer1"
     transform="translate(0,-740.55118)">
    <text
       xml:space="preserve"
       style="font-style:normal;font-weight:normal;font-size:22.05662727px;line-height:125%;font-family:Sans;letter-spacing:0px;word-spacing:0px;fill:#000000;fill-opacity:1;stroke:none;stroke-width:1px;stroke-linecap:butt;stroke-linejoin:miter;stroke-opacity:1"
       x="156.71159"
       y="766.04486"
       id="text6305"
       sodipodi:linespacing="125%"><tspan
         sodipodi:role="line"
         id="tspan6307"
         x="156.71159"
         y="766.04486"
         style="font-style:normal;font-variant:normal;font-weight:normal;font-stretch:normal;font-size:15px;font-family:'Ubuntu Condensed';-inkscape-font-specification:'Ubuntu Condensed, '">• A D L T</tspan></text>
    <text
       xml:space="preserve"
       style="font-style:normal;font-weight:normal;font-size:19.57834816px;line-height:125%;font-family:Sans;letter-spacing:0px;word-spacing:0px;fill:#000000;fill-opacity:1;stroke:none;stroke-width:1px;stroke-linecap:butt;stroke-linejoin:miter;stroke-opacity:1"
       x="14.324148"
       y="763.8302"
       id="text6317"
       sodipodi:linespacing="125%"><tspan
         sodipodi:role="line"
         id="tspan6319"
         x="14.324148"
         y="763.8302"
         style="font-style:normal;font-variant:normal;font-weight:500;font-stretch:normal;font-family:Orbitron;-inkscape-font-specification:'Orbitron Medium'">A</tspan></text>
    <text
       xml:space="preserve"
       style="font-style:normal;font-weight:normal;font-size:40px;line-height:125%;font-family:Sans;letter-spacing:0px;word-spacing:0px;fill:#000000;fill-opacity:1;stroke:none;stroke-width:1px;stroke-linecap:butt;stroke-linejoin:miter;stroke-opacity:1"
       x="76.285713"
       y="1023.7908"
       id="text8669"
       sodipodi:linespacing="125%"><tspan
         sodipodi:role="line"
         id="tspan8671"
         x="76.285713"
         y="1023.7908"
         style="font-style:normal;font-variant:normal;font-weight:500;font-stretch:normal;font-size:20px;font-family:Essays1743;-inkscape-font-specification:'Essays1743 Medium'">Vermin</tspan></text>
    <g
       transform="matrix(0.41064049,0,0,0.41064049,17.220751,958.12284)"
       id="g3">
      <path
         inkscape:connector-curvature="0"
         style="clip-rule:evenodd;fill-rule:evenodd"
         d="m 379.05,7.2 c -0.93,1.206 -2.924,-0.564 -4.32,-0.48 0.59,-1.942 3.77,-0.543 4.32,0.48 z"
         id="path5" />
      <path
         inkscape:connector-curvature="0"
         style="clip-rule:evenodd;fill-rule:evenodd"
         d="m 382.41,8.16 c 2.234,-0.154 2.672,1.489 4.32,1.92 -1.26,1.073 -4.39,-0.063 -4.32,-1.92 z"
         id="path7" />
      <path
         inkscape:connector-curvature="0"
         style="clip-rule:evenodd;fill-rule:evenodd"
         d="m 388.65,9.12 c 1.429,-0.927 4.786,0.317 4.8,2.4 -2.53,0.13 -2.67,-2.126 -4.8,-2.4 z"
         id="path9" />
      <path
         inkscape:connector-curvature="0"
         style="clip-rule:evenodd;fill-rule:evenodd"
         d="m 370.41,11.04 c -1.092,-0.348 -2.451,-0.428 -3.359,-0.96 0.01,-1.411 3.61,-0.766 3.36,0.96 z"
         id="path11" />
      <path
         inkscape:connector-curvature="0"
         style="clip-rule:evenodd;fill-rule:evenodd"
         d="m 382.41,10.56 c -0.47,1.049 -2.77,-0.065 -3.359,-0.48 -1.396,0.417 -0.54,0.719 -0.48,1.92 -2.056,0.296 -1.957,-1.563 -3.84,-1.44 1.33,-1.994 6.38,-1.852 7.68,0 z"
         id="path13" />
      <path
         inkscape:connector-curvature="0"
         style="clip-rule:evenodd;fill-rule:evenodd"
         d="m 360.33,11.04 c -1.882,2.238 -1.124,4.248 -4.801,4.8 0.91,-2.289 2.04,-4.366 4.8,-4.8 z"
         id="path15" />
      <path
         inkscape:connector-curvature="0"
         style="clip-rule:evenodd;fill-rule:evenodd"
         d="m 372.33,12 c 2.118,-0.198 3.709,0.13 4.8,0.96 -1,0.968 -4.63,0.5 -4.8,-0.96 z"
         id="path17" />
      <path
         inkscape:connector-curvature="0"
         style="clip-rule:evenodd;fill-rule:evenodd"
         d="m 391.05,14.4 c -1.529,2.48 -6.073,2.247 -7.68,0 1.927,-2.157 3.287,2.142 4.8,0.48 -0.469,-0.491 -0.949,-0.971 -1.44,-1.44 1.05,-2.336 3.13,0.48 4.32,0.96 z"
         id="path19" />
      <path
         inkscape:connector-curvature="0"
         style="clip-rule:evenodd;fill-rule:evenodd"
         d="m 354.57,12.96 c -0.518,1.402 -2.285,1.555 -4.319,1.44 0.21,-1.717 2.49,-1.351 4.32,-1.44 z"
         id="path21" />
      <path
         inkscape:connector-curvature="0"
         style="clip-rule:evenodd;fill-rule:evenodd"
         d="m 435.69,18.24 c -4.456,0.495 -10.655,2.787 -10.56,-0.96 0.13,-5.144 9.57,-4.883 10.56,0.96 z m -4.32,-1.44 c 0.392,-1.832 -1.022,-1.858 -1.921,-2.4 -0.36,1.804 1.26,1.624 1.92,2.4 z"
         id="path23" />
      <path
         inkscape:connector-curvature="0"
         style="clip-rule:evenodd;fill-rule:evenodd"
         d="m 375.69,15.84 c -2.579,0.34 -3.933,-0.547 -5.76,-0.96 0.82,-1.836 5.48,-0.769 5.76,0.96 z"
         id="path25" />
      <path
         inkscape:connector-curvature="0"
         style="clip-rule:evenodd;fill-rule:evenodd"
         d="m 379.53,13.92 c -0.169,0.63 -0.845,0.755 -0.96,1.44 2.909,-0.189 5.317,0.124 5.761,2.4 -3.353,-0.167 -5.328,-1.713 -7.681,-2.88 0.06,-1.226 1.61,-0.953 2.88,-0.96 z"
         id="path27" />
      <path
         inkscape:connector-curvature="0"
         style="clip-rule:evenodd;fill-rule:evenodd"
         d="m 359.37,15.84 c 0.146,1.266 -1.003,1.238 -1.921,1.44 0.149,0.652 1.202,0.398 1.921,0.48 -0.921,1.804 -1.841,1.109 -3.36,0.48 0.43,-1.491 1.77,-2.076 3.36,-2.4 z"
         id="path29" />
      <path
         inkscape:connector-curvature="0"
         style="clip-rule:evenodd;fill-rule:evenodd"
         d="m 370.89,16.32 c 1.893,-0.132 1.468,2.052 3.36,1.92 l 0,2.4 c -2.09,-0.686 -2.207,1.64 -3.36,0.48 2.34,-1.308 0.27,-2.379 0,-4.8 z"
         id="path31" />
      <path
         inkscape:connector-curvature="0"
         style="clip-rule:evenodd;fill-rule:evenodd"
         d="m 377.61,18.24 c 1.594,0.486 4.107,0.053 4.32,1.92 -2.12,0.041 -4.25,0.093 -4.32,-1.92 z"
         id="path33" />
      <path
         inkscape:connector-curvature="0"
         style="clip-rule:evenodd;fill-rule:evenodd"
         d="m 362.25,20.16 c 0.08,1.041 -1.703,0.217 -2.4,0.48 0.078,-0.558 -0.105,-0.854 -0.479,-0.96 0.58,-1.996 1.65,0.37 2.88,0.48 z"
         id="path35" />
      <path
         inkscape:connector-curvature="0"
         style="clip-rule:evenodd;fill-rule:evenodd"
         d="m 393.45,19.2 c -0.367,1.161 -4.021,2.484 -3.84,0 1.1,-0.305 2.9,-0.952 3.84,0 z"
         id="path37" />
      <path
         inkscape:connector-curvature="0"
         style="clip-rule:evenodd;fill-rule:evenodd"
         d="m 424.65,19.68 c 1.24,0.429 3.986,2.582 4.8,0.48 1.468,1.19 -0.501,2.986 -1.439,3.36 -1.517,-0.244 -2.107,-1.413 -3.84,-1.44 -0.15,-1.113 0.08,-1.843 0.48,-2.4 z"
         id="path39" />
      <path
         inkscape:connector-curvature="0"
         style="clip-rule:evenodd;fill-rule:evenodd"
         d="m 390.09,21.12 c 0.084,0.783 -3.141,0.969 -2.4,-0.48 1,-1.041 1.55,0.059 2.4,0.48 z"
         id="path41" />
      <path
         inkscape:connector-curvature="0"
         style="clip-rule:evenodd;fill-rule:evenodd"
         d="m 354.57,20.64 c 0.062,0.861 -0.587,1.012 -0.479,1.92 0.013,0.467 0.587,0.373 0.96,0.48 -0.544,1.216 -2.128,1.393 -3.84,1.44 -0.94,-1.254 1.999,-2.798 -1.44,-1.92 0.87,-1.37 2.94,-1.547 4.8,-1.92 z"
         id="path43" />
      <path
         inkscape:connector-curvature="0"
         style="clip-rule:evenodd;fill-rule:evenodd"
         d="m 381.45,21.12 c -0.92,1.639 -4.397,0.722 -6.72,0.96 1.09,-2.311 5.27,-1.158 6.72,-0.96 z"
         id="path45" />
      <path
         inkscape:connector-curvature="0"
         style="clip-rule:evenodd;fill-rule:evenodd"
         d="m 364.17,22.56 c 0.799,-1.076 2.606,0.881 3.84,0.96 -0.87,2.228 -2.63,-0.592 -3.84,-0.96 z"
         id="path47" />
      <path
         inkscape:connector-curvature="0"
         style="clip-rule:evenodd;fill-rule:evenodd"
         d="m 388.65,22.56 c 0.528,1.528 -4.368,1.528 -3.84,0 0.5,-0.506 3.43,-0.991 3.84,0 z"
         id="path49" />
      <path
         inkscape:connector-curvature="0"
         style="clip-rule:evenodd;fill-rule:evenodd"
         d="m 379.53,24.96 c -2.771,-0.664 -4.73,0.412 -6.239,-0.96 1.53,-0.447 5.05,-1.854 6.24,0.96 z"
         id="path51" />
      <path
         inkscape:connector-curvature="0"
         style="clip-rule:evenodd;fill-rule:evenodd"
         d="m 399.21,23.04 c -0.087,1.41 -4.971,2.41 -5.28,0.48 1.03,-0.89 3.52,-0.324 5.28,-0.48 z"
         id="path53" />
      <path
         inkscape:connector-curvature="0"
         style="clip-rule:evenodd;fill-rule:evenodd"
         d="m 387.69,24.48 c -1.225,1.988 -0.88,1.625 -0.96,3.36 -1.255,-0.825 -1.904,-2.256 -2.88,-3.36 0.95,-0.952 2.75,-0.306 3.84,0 z"
         id="path55" />
      <path
         inkscape:connector-curvature="0"
         style="clip-rule:evenodd;fill-rule:evenodd"
         d="m 363.69,24.48 c 2.034,-0.114 3.399,0.441 4.8,0.96 -0.92,0.889 -5.04,0.905 -4.8,-0.96 z"
         id="path57" />
      <path
         inkscape:connector-curvature="0"
         style="clip-rule:evenodd;fill-rule:evenodd"
         d="m 372.81,24.48 c 0.385,1.825 -2.27,0.61 -3.36,0.96 0.07,-1.373 2.01,-0.878 3.36,-0.96 z"
         id="path59" />
      <path
         inkscape:connector-curvature="0"
         style="clip-rule:evenodd;fill-rule:evenodd"
         d="m 399.69,25.44 c -1.168,0.912 -3.832,0.328 -5.28,0.96 0.6,-1.386 4.42,-1.355 5.28,-0.96 z"
         id="path61" />
      <path
         inkscape:connector-curvature="0"
         style="clip-rule:evenodd;fill-rule:evenodd"
         d="m 379.53,25.92 c -0.899,0.914 -0.052,1.205 0,2.399 -1.649,0.21 -2.69,-0.189 -3.84,-0.479 0.58,-1.342 1.45,-2.389 3.84,-1.92 z"
         id="path63" />
      <path
         inkscape:connector-curvature="0"
         style="clip-rule:evenodd;fill-rule:evenodd"
         d="m 436.17,25.92 c 0.174,1.106 -1.16,2.288 -1.92,2.88 -2.742,2.134 -5.735,2.311 -11.521,2.399 -0.043,-1.793 -0.538,-1.368 0,-2.88 3.973,1.013 5.248,0.596 8.16,0.48 2.01,-0.713 2.13,-3.31 5.28,-2.879 z"
         id="path65" />
      <path
         inkscape:connector-curvature="0"
         style="clip-rule:evenodd;fill-rule:evenodd"
         d="m 364.17,27.36 c 2.189,-1.53 4.04,1.385 5.76,1.92 -1.71,2.153 -4.67,-0.504 -5.76,-1.92 z"
         id="path67" />
      <path
         inkscape:connector-curvature="0"
         style="clip-rule:evenodd;fill-rule:evenodd"
         d="m 403.53,32.64 c 2.797,-1.419 1.491,2.389 3.841,2.88 -0.119,0.604 -0.955,0.484 -0.961,0 -0.467,0.013 -0.372,0.588 -0.479,0.96 -0.442,0.003 -2.82,-1.724 -2.88,-1.92 -0.09,-0.319 2.83,-1.841 0.48,-1.92 z"
         id="path69" />
      <path
         inkscape:connector-curvature="0"
         style="clip-rule:evenodd;fill-rule:evenodd"
         d="m 450.09,0.96 c 0.013,-0.467 0.587,-0.373 0.96,-0.48 -1.533,3.107 -4.186,5.094 -4.32,9.6 4.147,-4.5 7.513,-9.133 15.84,-10.08 -6.287,2.833 -11.654,6.586 -14.88,12.48 2.409,4.431 -0.865,8.63 -3.359,11.04 3.872,6.848 10.562,10.877 20.159,12 -3.889,2.345 -9.094,-0.438 -12.479,-2.4 -3.539,-2.051 -7.536,-4.409 -8.16,-9.12 -4.832,2.772 2.725,7.142 3.84,10.08 -3.272,0.228 -4.809,-5.427 -7.2,-7.68 -1.471,1.94 0.839,3.419 0.96,5.28 -0.101,1.844 -2.981,-0.936 -2.399,-2.88 -1.833,1.047 -3.879,1.881 -5.28,3.359 3.529,2.736 12.529,2.367 18.72,3.841 0.081,1.04 -1.702,0.217 -2.399,0.479 1.096,0.664 2.542,0.979 3.84,1.44 -0.247,1.673 -3.136,0.703 -4.8,0.96 -0.534,2.931 -3.374,0.707 -5.28,2.399 -0.655,-2.544 -4.721,-1.679 -5.76,-3.84 -5.906,-1.062 -9.988,-0.697 -15.36,0.48 3.804,4.601 11.562,3.062 17.76,3.359 -0.887,1.774 -2.572,-0.233 -3.359,1.44 1.822,0.095 3.312,1.366 4.8,1.92 0.987,0.367 2.828,-0.805 2.4,0.96 -1.214,0.862 -3.813,-0.096 -5.28,-0.48 -1.041,-0.08 -0.218,1.703 -0.48,2.4 -2.812,-0.913 -5.537,-0.059 -8.64,-0.96 -3.092,-0.898 -5.058,-3.191 -10.08,-3.36 -4.057,-0.136 -7.96,1.067 -12.96,0.48 -0.72,-1.041 -2.402,-1.118 -2.4,-2.88 -12.923,-1.215 -32.2,-2.658 -44.64,-1.44 -6.836,0.67 -11.615,3.087 -13.92,9.12 -1.373,0.035 -2.88,-0.464 -5.76,0 -0.442,-2.042 3.168,-0.031 2.88,-1.92 -1.034,-0.969 -5.004,1.271 -4.8,-1.92 1.183,-0.063 2.312,-0.073 2.88,0.479 0.419,-2.78 3.729,-2.671 4.319,-5.279 -3.295,-1.345 -7.234,-2.046 -9.119,-4.801 -5.557,2.125 -8.292,7.069 -11.521,11.521 -2.907,0.173 -9.476,2.037 -9.6,-1.92 1.77,-0.045 3.073,1.966 4.8,0.479 -0.707,-1.853 -3.916,-1.203 -3.36,-4.319 1.386,-1.393 1.135,1.301 2.4,1.439 1.802,-1.799 4.69,-1.356 6.72,-1.92 0.979,-0.673 -0.472,-1.653 0.48,-2.88 4.29,-2.109 5.262,-7.538 7.68,-11.52 2.338,1.021 4.506,2.214 5.76,4.319 1.389,-1.246 1.8,-4.68 1.44,-6.24 1.53,-2.79 3.327,-5.313 4.8,-8.16 -4.264,-0.484 -6.826,1.406 -11.521,0 -5.175,-1.55 -6.786,-6.322 -11.039,-7.2 -6.464,-1.334 -16.834,0.958 -20.641,2.4 -12.441,4.713 -13.338,19.327 -27.359,22.08 -1.174,0.23 -2.742,0.366 -4.32,0.48 -12.35,0.895 -20.551,-3.745 -29.28,-8.64 -1.055,-0.592 -2.379,-0.815 -3.36,-1.44 -7.279,-4.634 -21.226,-5.199 -31.2,-1.44 -5.031,1.896 -9.541,5.006 -13.44,8.16 -1.625,1.314 -2.736,3.013 -4.32,4.32 -8.254,6.814 -22.321,9.253 -37.92,7.2 -19.082,-2.512 -29.391,-11.097 -46.56,-20.16 l -2.4,0 c -3.138,-3.103 -8.705,-3.776 -12,-6.72 l -2.88,0 c -16.505,-7.097 -50.88,-15.09 -70.08,-4.8 -4.831,2.589 -7.948,5.163 -11.04,9.12 -3.217,4.116 -6.148,10.366 -4.32,17.76 -5.816,-4.798 1.155,-18.167 3.84,-21.601 1.824,-2.333 5.118,-4.319 8.64,-6.24 13.977,-7.624 36.311,-7.432 55.2,-3.84 8.708,1.656 15.373,5.702 23.04,8.64 3.89,1.491 7.458,2.467 11.04,4.32 6.537,3.381 13.315,6.71 20.16,10.56 3.163,1.778 6.471,4.29 9.6,5.279 4.457,1.41 9.376,1.87 14.4,3.36 1.231,0.365 1.85,1.292 2.88,1.44 1.226,0.176 2.43,-0.462 3.84,-0.48 5.215,-0.069 10.031,1.413 14.88,0.48 2.776,-0.534 6.209,-1.945 8.64,-2.88 5.895,-2.268 10.019,-7.137 14.88,-10.08 1.305,0.438 -1.279,0.892 -0.48,2.399 2.682,-0.452 2.109,-2.71 1.92,-3.84 10.024,-5.655 18.844,-12.378 34.08,-10.56 5.064,0.604 13.3,3.363 16.8,5.76 2.217,1.517 5.138,4.92 8.641,6.24 1.712,0.645 3.683,0.837 5.76,0.96 0.187,1.413 2.262,0.938 2.88,1.92 7.545,0.825 15.359,-1.363 19.2,-6.24 1.646,-2.092 2.871,-6.022 4.8,-8.16 4.605,-5.105 10.568,-7.439 19.2,-9.6 5.354,-1.34 12.576,-3.11 18.72,-2.88 6.101,0.229 7.656,3.298 12.48,5.76 2.031,1.037 3.646,1.531 6.72,1.44 1.146,-0.034 1.065,-0.672 2.399,-0.96 2.942,-0.634 7.174,0.585 9.12,-2.4 4.746,-0.836 9.687,-2.452 12.48,-3.84 1.31,-0.35 0.966,0.954 1.92,0.96 1.978,-1.171 5.391,-2.32 7.2,-0.96 0.562,-0.078 0.404,-0.875 0.479,-1.44 8.422,1.357 23.069,1.694 28.8,9.6 1.975,-1.226 1.565,-4.835 3.841,-5.76 2.052,0.028 3.516,0.645 5.279,0.96 1.792,-1.088 1.683,-4.077 3.841,-4.8 6.081,0.319 8.964,3.836 10.56,8.64 2.655,1.567 9.021,1.775 12,1.44 1.073,-3.247 1.331,-7.309 3.36,-9.6 0.452,2.7 -1.911,6.723 -1.44,11.04 1.958,-0.236 0.657,-2.392 0.96,-3.36 0.83,-2.627 3.72,-6.312 5.28,-7.672 z m -31.2,0.96 c -0.392,0.767 -1.82,2.929 -0.48,3.84 0.72,-0.722 0.859,-2.021 1.921,-2.4 0.907,0.213 2.893,-0.653 2.399,0.96 -1.697,-0.258 -2.473,0.407 -2.88,1.44 2.582,0.683 0.123,1.124 0,2.88 1.658,0.801 2.9,0.952 2.88,2.4 1.805,-0.682 3.956,0.055 5.76,-1.44 -2.27,-3.366 -4.08,-9.088 -9.6,-7.68 z m -73.92,11.52 c 1.422,0.335 2.276,-3.25 2.4,0 1.669,-0.034 3.656,-1.191 1.92,-1.92 2.501,-0.859 6.298,-0.421 7.68,-2.4 -4.62,2.706 -11.52,-2.166 -12,4.32 z m 0,-2.4 c -1.917,0.032 -5.264,-0.608 -8.64,-0.48 -2.204,-3.236 -6.257,-4.624 -9.12,-7.2 -9.907,-1.245 -19.64,2.588 -25.92,4.32 -8.018,2.21 -16.654,9.056 -16.32,16.8 1.362,-0.398 1.302,-2.218 2.88,-2.4 -1.495,-1.066 2.079,-1.083 0.96,-3.36 2.866,-0.435 2.922,-5.353 5.76,-4.32 -0.108,-3.736 2.792,-1.658 3.84,-3.84 -0.025,0.826 0.37,1.23 0.961,1.44 -0.197,-1.157 0.876,-1.043 0.479,-2.4 1.127,1.169 1.074,-0.536 1.92,-0.96 2.067,0.494 3.866,-0.714 6.24,-1.92 -0.021,0.661 0.226,1.054 0.479,1.44 2.08,0.028 3.966,-3.169 5.28,-0.96 0.066,-0.894 0.315,-1.604 0.96,-1.92 0.233,0.567 0.512,1.088 0.96,1.44 0.706,-1.811 1.583,-1.281 2.88,-0.48 0.95,-2.158 2.913,0.26 4.801,-0.96 0.15,0.649 0.683,0.917 0.479,1.92 1.541,0.42 0.995,-1.245 1.92,-1.44 0.418,1.396 0.719,0.54 1.92,0.48 0.263,0.697 -0.561,2.48 0.48,2.4 0.196,-0.604 0.619,-0.981 1.439,-0.96 l 0,2.4 c 1.686,0.085 1.579,-1.622 2.88,-1.92 -1.274,2.476 2.257,2.788 2.881,4.8 0.196,-0.603 0.618,-0.981 1.439,-0.96 -0.151,0.649 -0.684,0.917 -0.479,1.92 1.542,0.422 0.657,-1.582 1.92,-1.44 1.164,0.956 -0.811,2.05 0.96,2.4 0.828,-0.291 -0.037,-2.277 0.96,-2.4 0.989,0.13 0.114,2.125 1.439,1.92 -0.134,-1.094 0.116,-1.804 0.96,-1.92 0.109,0.851 -0.483,2.404 0.96,1.92 0.69,-0.916 1.12,-2.084 1.44,-3.36 z M 362.25,9.6 c 0.155,-0.553 2.094,-1.653 2.399,-0.48 -4.328,2.7 -13.963,0.878 -16.319,6.72 1.519,-0.104 3.804,-1.923 5.279,-0.48 -0.701,1.059 -3.802,-0.282 -3.84,1.44 1.291,-0.331 0.928,0.993 1.44,1.44 -2.502,0.399 -4.554,-0.304 -5.28,0.96 1.767,0.85 4.9,-1.716 6.72,0.48 -3.877,0.677 -6.902,0.408 -8.16,3.36 -0.387,0.909 1.035,2.229 -0.479,2.88 2.174,1.128 0.642,3.221 0.96,5.76 -0.916,0.204 -0.868,1.371 -2.4,0.96 -0.29,1.149 -0.689,2.189 -0.479,3.84 0.944,0.655 2.741,0.458 3.84,0.96 0.098,-2.114 1.821,-5.11 2.4,-8.16 -1.952,-0.126 0.353,-2.162 -1.44,-2.88 0.333,-0.376 2.678,-1.068 2.88,0 -1.087,1.068 0.508,1.728 0.48,2.88 -0.017,0.668 -0.842,0.573 -0.96,0.96 -0.164,0.533 0.23,1.987 0,2.88 -0.682,2.629 -1.059,0.739 0.479,2.4 -0.053,0.907 -1.587,0.333 -1.439,1.44 1.892,-0.133 1.468,2.052 3.359,1.92 3.421,-2.979 7.529,-5.271 9.12,-10.08 -1.094,0.134 -1.805,-0.116 -1.92,-0.96 1.017,-1.749 0.635,-2.214 0,-4.32 1.952,-2.852 0.865,-0.935 3.36,0 -1.864,0.597 0.312,2.451 -1.44,3.36 1.868,0.503 2.09,2.061 0.96,3.359 2.245,-0.125 0.67,0.57 1.44,1.92 -1.46,-0.019 -3.159,-0.279 -2.88,1.44 1.512,0.044 3.62,-1.783 4.8,-0.48 -1.022,0.898 -3.057,0.783 -3.84,1.92 1.824,0.896 5.547,-0.107 7.199,0.961 -1.396,0.523 -3.391,0.449 -4.319,1.439 2.8,0.08 4.602,-0.838 7.68,-0.479 0.421,-1.541 -1.245,-0.996 -1.44,-1.921 10.137,1.413 22.062,4.404 31.681,3.36 -1.115,-0.325 -1.285,-1.595 -2.4,-1.92 -3.454,2.604 -8.167,-2.455 -11.52,-1.44 0.571,-2.011 -2.023,-0.856 -2.4,-1.92 0.958,-0.482 0.758,-2.122 2.4,-1.92 0.103,1.396 3.114,1.148 1.92,2.4 3.605,-1.531 4.055,3.398 8.64,2.4 -0.177,-1.762 -3.032,-3.344 -1.92,-4.801 3.111,0.838 1.846,3.204 4.8,3.84 -1.043,1.395 2.012,1.897 1.92,3.841 1.406,0.245 2.706,-1.524 2.4,0.96 2.052,1.213 2.446,-1.199 3.36,-0.48 -0.069,0.567 -0.855,1.088 0,1.44 0.715,-0.565 1.354,-1.205 1.92,-1.92 -1.806,3.491 6.47,3.556 3.84,1.92 1.616,-0.305 4.458,0.618 5.28,-0.48 -1.878,-2.346 -6.38,-0.981 -8.16,-2.399 0.026,-1.573 1.364,-1.835 0.96,-3.841 -3.638,0.929 -4.598,-3.71 -7.2,-5.279 l 3.36,0 c 0.028,2.632 1.957,0.381 1.92,2.88 1.809,-0.369 2.294,0.585 3.84,0.479 1.323,-3.421 -1.207,-5.374 -2.4,-7.68 -2.034,-0.365 -5.685,0.885 -6.24,-0.96 l 5.28,0 c -0.834,-2.144 -3.249,-1.044 -4.8,-0.48 -0.188,-0.685 -0.576,-0.81 0,-1.44 -5.987,1.286 -6.624,0.202 -9.12,-3.84 1.045,-1.043 2.832,-3.44 0.48,-3.84 2.107,-0.452 3.348,-1.772 5.279,-2.4 -2.293,0.298 -6.979,-1.375 -6.72,-3.36 2.006,-0.382 3.039,2.689 4.8,0.96 -2.323,-2.477 -6.521,-3.08 -9.12,-5.28 0.623,2.434 1.841,2.201 0,3.84 2.233,0.006 3.577,0.903 3.841,2.88 -3.173,-0.508 -4.347,-3.014 -6.721,-4.32 1.213,-1.095 -2.29,-1.53 0,-2.88 -0.994,0.286 -3.153,-0.593 -3.359,0.48 0.491,0.976 3.368,2.035 2.399,2.88 -2.854,-0.345 -4.719,-1.681 -7.2,-2.4 -1.605,1.004 1.852,1.804 0.48,2.4 -3.522,-0.427 -2.515,-2.534 -5.28,-3.36 -1.597,0.164 -1.701,1.818 -2.88,2.4 -1.979,0.1 -4.211,-0.051 -4.32,1.92 0.995,0.286 3.153,-0.593 3.36,0.48 -0.697,0.742 -2.457,0.422 -3.84,0.48 0.646,-2.074 -2.137,-0.685 -2.88,-2.4 1.81,-0.431 4.065,-0.415 5.76,-0.96 0.085,-2.827 -3.888,-1.972 -5.28,-0.48 0.565,0.075 1.363,-0.083 1.44,0.48 -1.94,0.869 -6.28,3.261 -5.76,4.321 z M 45.45,4.32 c -1.459,0.301 -4.135,-0.614 -4.8,0.48 1.459,-0.301 4.135,0.615 4.8,-0.48 z M 417.93,9.6 c 3.626,1.623 0.692,8.851 1.44,10.08 -1.809,0.208 -2.187,-1.014 -2.881,-1.92 1.945,-1.504 -0.969,-2.93 -1.92,-4.32 -1.123,0.892 -1.055,2.974 -1.439,3.36 -0.703,-0.417 -1.521,-0.718 -1.44,-1.92 0.69,-0.75 1.21,-1.67 2.4,-1.92 0.092,-2.012 -2.356,-1.484 -1.92,-3.84 3.343,-0.99 3.396,4.727 6.239,5.76 0.377,-4.271 -3.452,-8.347 -8.159,-9.12 -2.093,3.456 -2.097,7.577 -0.48,11.52 1.093,1.787 4.689,1.071 4.32,4.32 3.954,-0.411 6.028,-0.265 9.12,-1.92 -3.718,1.699 -0.931,7.013 -2.4,11.04 -2.158,-2.312 -2.007,-5.598 -1.439,-8.64 -2.112,-0.174 -5.331,1.045 -3.841,2.88 1.852,0.613 1.206,8.063 0,12 2.275,1.34 4.423,1.697 5.761,-0.96 -1.799,-0.122 -3.087,-0.754 -3.841,-1.921 0.085,-1.515 0.338,-2.862 1.921,-2.88 0.913,1.599 0.682,1.561 0.96,3.36 7.534,-1.266 14.196,-3.402 18.239,-8.16 -0.289,-2.689 0.254,-4.546 0.96,-6.24 -2.38,-1.002 -2.526,-2.395 -1.439,-4.8 -0.918,-0.224 -2.066,1.48 -1.92,-0.48 2.723,0.714 6.427,-1.781 8.64,0.96 -2.426,0.506 -2.746,-1.094 -4.8,-0.96 0.396,1.357 -0.677,1.244 -0.48,2.4 1.833,2.098 5.261,1.507 6.721,-0.48 0.011,-1.13 -0.827,-1.413 -0.48,-2.88 -4.892,-2.661 -11.409,-1.371 -16.8,-2.88 -1.5,1.22 -3.4,2.04 -5.28,2.88 0.107,0.908 -0.541,1.059 -0.479,1.92 0.043,0.757 1.224,0.376 0.96,1.44 -2.105,0.249 -1.577,0.15 -3.36,0.48 0.48,-3.84 -0.53,-8.736 -2.88,-8.159 z m -16.32,10.08 c 1.625,2.106 2.785,1.019 4.32,0.48 -2.585,0.908 2.344,-1.449 1.92,-1.44 -0.697,-0.263 -2.48,0.561 -2.4,-0.48 1.508,0.237 1.269,-1.655 2.4,-0.48 -0.778,-2.422 -2.539,-3.861 -6.24,-3.36 -0.922,2.05 -0.604,2.356 -1.439,4.32 2.593,0.497 3.116,-3.582 5.279,-1.92 -2.1,0.141 -2.98,1.5 -3.84,2.88 z M 226.89,16.8 c -0.878,-2.652 -5.279,-0.489 -5.76,-0.48 -0.895,0.017 -2.668,-2.399 -2.88,0 4.774,0.51 11.095,2.021 14.88,1.92 -1.051,-1.578 -3.179,0.418 -2.88,-1.92 -1.66,-0.385 -1.84,0.715 -3.36,0.48 z m -15.36,1.92 c 2.747,-0.851 2.825,-1.39 6.24,-1.44 0.29,-2.039 -7.12,-1.652 -6.24,1.44 z m -3.36,1.44 c 0.2,-1.081 2.632,0.072 2.4,-1.44 -0.56,-2.21 -4.15,0.097 -2.4,1.44 z m 32.16,0.96 c 0.359,-1.64 -1.95,-0.61 -1.44,-2.4 -1.156,-0.197 -1.043,0.876 -2.4,0.48 0.145,-0.78 -0.647,-1.295 -0.96,-0.48 1.36,1.046 2.31,2.492 4.8,2.4 z m -36.96,0.48 c 1.53,-0.23 2.926,-0.594 3.36,-1.92 -1.49,1.345 -3.1,-0.29 -3.36,1.92 z m 42.72,3.36 c 0.122,-3.002 -2.643,-3.118 -4.32,-4.32 -0.21,3.089 2.77,2.997 4.32,4.32 z m -45.6,-1.44 c 0.195,-0.925 1.861,-0.379 1.44,-1.92 -1.48,-0.627 -2.72,1.362 -1.44,1.92 z m 75.84,6.72 c 1.968,-0.309 2.531,-1.274 3.359,-1.439 1.398,-0.28 0.232,0.075 1.44,-0.96 0.939,-0.806 1.212,-0.199 2.399,-0.48 l 0,-1.92 c -2.89,1.101 -5.72,2.278 -7.2,4.799 z m -26.88,-3.36 c 3.266,0.74 6.732,3.82 10.08,2.88 -3.23,-0.608 -7.52,-4.734 -10.08,-2.88 z m 84,3.36 c 1.532,0.285 1.485,-0.9 2.4,0 0.47,-1.933 -2.87,-1.933 -2.4,0 z m -60.96,0.96 2.4,0 c -0.021,-0.66 0.227,-1.054 0.48,-1.439 -0.8,0.639 -3.05,-0.176 -2.88,1.439 z m 64.32,0.96 c -0.979,-0.141 -0.941,-1.299 -1.92,-1.439 -0.703,1.057 -1.459,2.062 -1.44,3.84 1.912,-0.169 3.116,-1.044 4.801,-1.44 0.187,0.686 0.575,0.81 0,1.44 1.776,0.336 1.197,-1.683 1.92,-2.4 -1.343,-0.125 -2.708,-2.695 -3.84,-1.439 0.56,0.078 0.52,0.757 0.48,1.438 z m -149.76,2.4 c 0.486,-1.594 2.656,-1.504 2.4,-3.84 -1.76,0.021 -3.3,2.75 -2.4,3.84 z M 183.69,36 c 1.157,0.196 1.043,-0.877 2.4,-0.48 -0.082,-0.718 0.171,-1.771 -0.48,-1.92 -0.35,1.086 -1.83,1.051 -1.92,2.4 z m -2.88,1.92 c 0.435,-0.846 1.767,-0.794 1.92,-1.92 -1.64,-0.637 -3.35,1.069 -1.92,1.92 z m 262.56,-0.48 c -0.876,-0.13 -2.691,-1.728 -3.36,-0.479 1.28,-0.271 2.45,1.973 3.36,0.479 z m -266.4,1.44 c 1.255,0.135 2.064,-0.176 1.92,-1.44 -1.25,-0.135 -2.06,0.176 -1.92,1.44 z m -3.84,0.96 c 0.92,0.862 2.955,0.135 2.88,-1.44 -1.46,-0.024 -2.44,0.436 -2.88,1.44 z m 258.24,4.8 c -3.753,-0.781 -6.446,-5.902 -10.561,-3.36 4.85,-0.518 7.09,4.103 10.56,3.36 z m -86.88,-0.48 c 1.307,-0.773 2.832,-1.328 2.881,-3.359 -1.45,0.332 -3.22,2.826 -2.88,3.359 z m -23.04,0.96 c 1.795,0.034 2.749,-0.771 3.36,-1.92 -1.39,0.368 -2.76,0.759 -3.36,1.92 z"
         id="path71" />
      <path
         inkscape:connector-curvature="0"
         style="clip-rule:evenodd;fill-rule:evenodd"
         d="m 367.53,19.2 c -0.571,-1.108 -3.252,1.225 -1.92,-1.44 -2.983,-0.012 -0.204,3.091 -2.88,2.88 0.403,-0.557 0.633,-1.287 0.48,-2.4 0.914,-0.206 1.205,-1.034 2.399,-0.96 -0.407,-1.408 -1.208,0.625 -2.399,0 1.216,-1.382 0.496,-0.833 0,-2.4 1.572,-0.027 1.835,-1.365 3.84,-0.96 -0.316,0.645 -1.026,0.894 -1.92,0.96 0.193,0.926 2.198,0.042 1.439,1.92 2.917,-0.655 1.332,1.896 3.84,2.4 0.201,1.64 -0.145,2.735 -1.92,2.4 0.737,-2.256 -1.759,-0.946 -2.399,-0.48 -1.05,-0.325 0.91,-1.595 1.44,-1.92 z"
         id="path73" />
    </g>
  </g>
</svg>
