<?xml version="1.0" encoding="UTF-8" standalone="no"?>
<!-- Created with Inkscape (http://www.inkscape.org/) -->

<svg
   xmlns:dc="http://purl.org/dc/elements/1.1/"
   xmlns:cc="http://creativecommons.org/ns#"
   xmlns:rdf="http://www.w3.org/1999/02/22-rdf-syntax-ns#"
   xmlns:svg="http://www.w3.org/2000/svg"
   xmlns="http://www.w3.org/2000/svg"
   xmlns:sodipodi="http://sodipodi.sourceforge.net/DTD/sodipodi-0.dtd"
   xmlns:inkscape="http://www.inkscape.org/namespaces/inkscape"
   width="62mm"
   height="88mm"
   viewBox="0 0 219.68504 311.81102"
   id="svg2"
   version="1.1"
   inkscape:version="0.91 r13725"
   sodipodi:docname="o_crowbar.svg">
  <defs
     id="defs4">
    <inkscape:perspective
       sodipodi:type="inkscape:persp3d"
       inkscape:vp_x="0 : 155.90551 : 1"
       inkscape:vp_y="0 : 1000 : 0"
       inkscape:vp_z="219.68504 : 155.90551 : 1"
       inkscape:persp3d-origin="109.84252 : 103.93701 : 1"
       id="perspective6315" />
    <clipPath
       clipPathUnits="userSpaceOnUse"
       id="clipPath8648">
      <path
         style="fill:#ff0000;fill-opacity:1;fill-rule:evenodd;stroke:none;stroke-width:1px;stroke-linecap:butt;stroke-linejoin:miter;stroke-opacity:1"
         d="m 48.7971,144.54832 -4.54568,-1.2627 -4.04062,0.50508 -4.79822,3.40927 -5.93465,4.29314 -2.0203,2.90419 0.12627,2.65165 2.65165,2.14658 -1.01015,1.76776 -3.283,1.26269 -3.40926,8.08123 6.31345,9.34391 10.35406,-0.75762 46.21448,3.91434 25.50635,-7.19733 9.47018,-5.05077 0.12627,-10.10152 -2.65165,-1.13642 0.88389,-15.15229 10.35406,-6.9448 3.28299,-3.91434 6.566,-7.82868 0.50507,-4.54569 -4.54568,-1.89404 -2.14658,1.01016 -4.16688,1.13642 -5.93464,-2.90419 -2.77792,-1.76777 -5.80838,2.39911 -2.90419,3.03046 -3.40926,4.9245 -7.07107,0.3788 -8.96511,5.80838 -2.90418,2.14657 -3.66181,0.12627 -5.55584,-0.3788 -17.29886,2.65165 z"
         id="path8650"
         inkscape:connector-curvature="0" />
    </clipPath>
    <mask
       maskUnits="userSpaceOnUse"
       id="mask8666">
      <rect
         rx="1.7260212"
         ry="2.8714814"
         y="98.924339"
         x="22.885082"
         height="109.83415"
         width="100.10923"
         id="rect8668"
         style="opacity:1;fill:#ffffff;fill-opacity:1;stroke:none;stroke-width:2.01114893;stroke-linecap:round;stroke-linejoin:bevel;stroke-miterlimit:4;stroke-dasharray:none;stroke-dashoffset:0;stroke-opacity:1" />
    </mask>
    <clipPath
       clipPathUnits="userSpaceOnUse"
       id="clipPath9647">
      <path
         style="fill:#ff0000;fill-opacity:1;fill-rule:evenodd;stroke:none;stroke-width:1px;stroke-linecap:butt;stroke-linejoin:miter;stroke-opacity:1"
         d="m 24.29467,289.85466 12.14286,-9.28572 41.42857,-15.71428 40,-5 20,5 2.85715,7.14285 9.28571,6.42858 10,1.42857 -3.57143,13.57143 -15.71428,10 -27.85715,5.71428 -74.28571,1.42857 z"
         id="path9649"
         inkscape:connector-curvature="0" />
    </clipPath>
  </defs>
  <sodipodi:namedview
     id="base"
     pagecolor="#ffffff"
     bordercolor="#666666"
     borderopacity="1.0"
     inkscape:pageopacity="0.0"
     inkscape:pageshadow="2"
     inkscape:zoom="1.4"
     inkscape:cx="268.51758"
     inkscape:cy="151.41445"
     inkscape:document-units="px"
     inkscape:current-layer="layer1"
     showgrid="false"
     inkscape:window-width="1920"
     inkscape:window-height="1026"
     inkscape:window-x="-2"
     inkscape:window-y="31"
     inkscape:window-maximized="1" />
  <metadata
     id="metadata7">
    <rdf:RDF>
      <cc:Work
         rdf:about="">
        <dc:format>image/svg+xml</dc:format>
        <dc:type
           rdf:resource="http://purl.org/dc/dcmitype/StillImage" />
        <dc:title></dc:title>
      </cc:Work>
    </rdf:RDF>
  </metadata>
  <g
     inkscape:label="Layer 1"
     inkscape:groupmode="layer"
     id="layer1"
     transform="translate(0,-740.55118)">
    <text
       xml:space="preserve"
       style="font-style:normal;font-weight:normal;font-size:22.05662727px;line-height:125%;font-family:Sans;letter-spacing:0px;word-spacing:0px;fill:#000000;fill-opacity:1;stroke:none;stroke-width:1px;stroke-linecap:butt;stroke-linejoin:miter;stroke-opacity:1"
       x="148.71159"
       y="766.04486"
       id="text6305"
       sodipodi:linespacing="125%"><tspan
         sodipodi:role="line"
         id="tspan6307"
         x="148.71159"
         y="766.04486"
         style="font-style:normal;font-variant:normal;font-weight:normal;font-stretch:normal;font-size:15px;font-family:'Ubuntu Condensed';-inkscape-font-specification:'Ubuntu Condensed, '">A C1 C2 D T</tspan></text>
    <text
       xml:space="preserve"
       style="font-style:normal;font-weight:normal;font-size:24.13778114px;line-height:100.99999905%;font-family:Sans;letter-spacing:0px;word-spacing:0px;fill:#000000;fill-opacity:1;stroke:none;stroke-width:1px;stroke-linecap:butt;stroke-linejoin:miter;stroke-opacity:1"
       x="85.79705"
       y="992.16602"
       id="text6309"
       sodipodi:linespacing="101%"><tspan
         sodipodi:role="line"
         x="85.79705"
         y="992.16602"
         style="font-style:normal;font-variant:normal;font-weight:500;font-stretch:normal;font-size:22.5px;line-height:100.99999905%;font-family:Essays1743;-inkscape-font-specification:'Essays1743 Medium'"
         id="tspan6308">Discarded</tspan><tspan
         sodipodi:role="line"
         x="85.79705"
         y="1014.891"
         style="font-style:normal;font-variant:normal;font-weight:500;font-stretch:normal;font-size:22.5px;line-height:100.99999905%;font-family:Essays1743;-inkscape-font-specification:'Essays1743 Medium'"
         id="tspan6312">old crowbar</tspan></text>
    <text
       xml:space="preserve"
       style="font-style:normal;font-weight:normal;font-size:19.57834816px;line-height:125%;font-family:Sans;letter-spacing:0px;word-spacing:0px;fill:#000000;fill-opacity:1;stroke:none;stroke-width:1px;stroke-linecap:butt;stroke-linejoin:miter;stroke-opacity:1"
       x="14.324148"
       y="763.8302"
       id="text6317"
       sodipodi:linespacing="125%"><tspan
         sodipodi:role="line"
         id="tspan6319"
         x="14.324148"
         y="763.8302"
         style="font-style:normal;font-variant:normal;font-weight:500;font-stretch:normal;font-family:Orbitron;-inkscape-font-specification:'Orbitron Medium'">O</tspan></text>
    <g
       id="g4127"
       transform="matrix(0.20714698,-0.34984981,0.34984981,0.20714698,-354.2367,826.06322)">
      <g
         id="g4108">
        <path
           id="path3874"
           sodipodi:nodetypes="sssccssszs"
           style="color:#000000;text-indent:0;text-transform:none;block-progression:tb;fill:#000000"
           inkscape:connector-curvature="0"
           d="m 43.58,1056.2 687.86,0 c 46.072,0 33.371,23.998 11.414,41.97 -17.761,14.538 -23.404,23.841 -30.539,45.623 l 15.915,-12.592 c 13.601,-14.311 65.408,-40.933 52.903,-71.501 -9.4073,-22.996 -26.903,-25.501 -49.693,-25.501 l -687.86,0 c -17.996,1.8429 -53.143,5.0531 -53.143,11 0,5.9469 35.147,9.1571 53.143,11 z" />
        <g
           id="g4093">
          <path
             id="path4042"
             d="m 48.571,1039.5 690,0"
             style="fill:none;stroke:#999999;stroke-width:3;stroke-linecap:round"
             inkscape:connector-curvature="0" />
          <path
             id="path4046"
             d="m 51.719,1038.3 c -2.5746,-0.077 -6.0562,-0.1863 -9.5625,0.25 l -44.578,5.547 44.766,-3.5782 c 6.8106,-0.5444 13.469,0 13.469,0 0.5236,0.049 1.0447,-0.3827 1.0938,-0.9063 0.04909,-0.5235 -0.38265,-1.0446 -0.90625,-1.0937 0,0 -1.7066,-0.1414 -4.2812,-0.2188 z"
             sodipodi:nodetypes="cscscscc"
             style="color:#000000;text-indent:0;text-transform:none;block-progression:tb;fill:#999999"
             inkscape:connector-curvature="0" />
        </g>
      </g>
      <path
         id="path4044"
         d="m 765.28,1074.6 c -3.3254,11.044 -11.23,18.762 -18.188,24.75 -4.3559,4.6582 -23.406,19.778 -20.793,24.416 -0.35227,-3.5198 15.67,-17.337 22.105,-22.885 7.86,-6.8053 14.738,-12.378 17.312,-23.335 0.16315,-0.6201 0.20081,-3.0075 -0.4375,-2.9464 z"
         sodipodi:nodetypes="cccccc"
         style="color:#000000;text-indent:0;text-transform:none;block-progression:tb;fill:#999999"
         inkscape:connector-curvature="0" />
    </g>
  </g>
</svg>
