<?xml version="1.0" encoding="UTF-8" standalone="no"?>
<!-- Created with Inkscape (http://www.inkscape.org/) -->

<svg
   xmlns:dc="http://purl.org/dc/elements/1.1/"
   xmlns:cc="http://creativecommons.org/ns#"
   xmlns:rdf="http://www.w3.org/1999/02/22-rdf-syntax-ns#"
   xmlns:svg="http://www.w3.org/2000/svg"
   xmlns="http://www.w3.org/2000/svg"
   xmlns:sodipodi="http://sodipodi.sourceforge.net/DTD/sodipodi-0.dtd"
   xmlns:inkscape="http://www.inkscape.org/namespaces/inkscape"
   width="62mm"
   height="88mm"
   viewBox="0 0 219.68504 311.81102"
   id="svg2"
   version="1.1"
   inkscape:version="0.91 r13725"
   sodipodi:docname="o_exotic.svg">
  <defs
     id="defs4">
    <inkscape:perspective
       sodipodi:type="inkscape:persp3d"
       inkscape:vp_x="0 : 155.90551 : 1"
       inkscape:vp_y="0 : 1000 : 0"
       inkscape:vp_z="219.68504 : 155.90551 : 1"
       inkscape:persp3d-origin="109.84252 : 103.93701 : 1"
       id="perspective6315" />
    <clipPath
       clipPathUnits="userSpaceOnUse"
       id="clipPath8648">
      <path
         style="fill:#ff0000;fill-opacity:1;fill-rule:evenodd;stroke:none;stroke-width:1px;stroke-linecap:butt;stroke-linejoin:miter;stroke-opacity:1"
         d="m 48.7971,144.54832 -4.54568,-1.2627 -4.04062,0.50508 -4.79822,3.40927 -5.93465,4.29314 -2.0203,2.90419 0.12627,2.65165 2.65165,2.14658 -1.01015,1.76776 -3.283,1.26269 -3.40926,8.08123 6.31345,9.34391 10.35406,-0.75762 46.21448,3.91434 25.50635,-7.19733 9.47018,-5.05077 0.12627,-10.10152 -2.65165,-1.13642 0.88389,-15.15229 10.35406,-6.9448 3.28299,-3.91434 6.566,-7.82868 0.50507,-4.54569 -4.54568,-1.89404 -2.14658,1.01016 -4.16688,1.13642 -5.93464,-2.90419 -2.77792,-1.76777 -5.80838,2.39911 -2.90419,3.03046 -3.40926,4.9245 -7.07107,0.3788 -8.96511,5.80838 -2.90418,2.14657 -3.66181,0.12627 -5.55584,-0.3788 -17.29886,2.65165 z"
         id="path8650"
         inkscape:connector-curvature="0" />
    </clipPath>
    <mask
       maskUnits="userSpaceOnUse"
       id="mask8666">
      <rect
         rx="1.7260212"
         ry="2.8714814"
         y="98.924339"
         x="22.885082"
         height="109.83415"
         width="100.10923"
         id="rect8668"
         style="opacity:1;fill:#ffffff;fill-opacity:1;stroke:none;stroke-width:2.01114893;stroke-linecap:round;stroke-linejoin:bevel;stroke-miterlimit:4;stroke-dasharray:none;stroke-dashoffset:0;stroke-opacity:1" />
    </mask>
    <clipPath
       clipPathUnits="userSpaceOnUse"
       id="clipPath9647">
      <path
         style="fill:#ff0000;fill-opacity:1;fill-rule:evenodd;stroke:none;stroke-width:1px;stroke-linecap:butt;stroke-linejoin:miter;stroke-opacity:1"
         d="m 24.29467,289.85466 12.14286,-9.28572 41.42857,-15.71428 40,-5 20,5 2.85715,7.14285 9.28571,6.42858 10,1.42857 -3.57143,13.57143 -15.71428,10 -27.85715,5.71428 -74.28571,1.42857 z"
         id="path9649"
         inkscape:connector-curvature="0" />
    </clipPath>
  </defs>
  <sodipodi:namedview
     id="base"
     pagecolor="#ffffff"
     bordercolor="#666666"
     borderopacity="1.0"
     inkscape:pageopacity="0.0"
     inkscape:pageshadow="2"
     inkscape:zoom="1.4"
     inkscape:cx="213.51758"
     inkscape:cy="151.41445"
     inkscape:document-units="px"
     inkscape:current-layer="layer1"
     showgrid="false"
     inkscape:window-width="1920"
     inkscape:window-height="1026"
     inkscape:window-x="-2"
     inkscape:window-y="31"
     inkscape:window-maximized="1" />
  <metadata
     id="metadata7">
    <rdf:RDF>
      <cc:Work
         rdf:about="">
        <dc:format>image/svg+xml</dc:format>
        <dc:type
           rdf:resource="http://purl.org/dc/dcmitype/StillImage" />
        <dc:title></dc:title>
      </cc:Work>
    </rdf:RDF>
  </metadata>
  <g
     inkscape:label="Layer 1"
     inkscape:groupmode="layer"
     id="layer1"
     transform="translate(0,-740.55118)">
    <text
       xml:space="preserve"
       style="font-style:normal;font-weight:normal;font-size:22.05662727px;line-height:125%;font-family:Sans;letter-spacing:0px;word-spacing:0px;fill:#000000;fill-opacity:1;stroke:none;stroke-width:1px;stroke-linecap:butt;stroke-linejoin:miter;stroke-opacity:1"
       x="148.71159"
       y="766.04486"
       id="text6305"
       sodipodi:linespacing="125%"><tspan
         sodipodi:role="line"
         id="tspan6307"
         x="148.71159"
         y="766.04486"
         style="font-style:normal;font-variant:normal;font-weight:normal;font-stretch:normal;font-size:15px;font-family:'Ubuntu Condensed';-inkscape-font-specification:'Ubuntu Condensed, '">A C1 C2 D T</tspan></text>
    <text
       xml:space="preserve"
       style="font-style:normal;font-weight:normal;font-size:24.13778114px;line-height:125%;font-family:Sans;letter-spacing:0px;word-spacing:0px;fill:#000000;fill-opacity:1;stroke:none;stroke-width:1px;stroke-linecap:butt;stroke-linejoin:miter;stroke-opacity:1"
       x="43.082771"
       y="1030.0232"
       id="text6309"
       sodipodi:linespacing="125%"><tspan
         sodipodi:role="line"
         id="tspan6311"
         x="43.082771"
         y="1030.0232"
         style="font-style:normal;font-variant:normal;font-weight:500;font-stretch:normal;font-size:22.5px;font-family:Essays1743;-inkscape-font-specification:'Essays1743 Medium'">Exotic Thing</tspan></text>
    <text
       xml:space="preserve"
       style="font-style:normal;font-weight:normal;font-size:19.57834816px;line-height:125%;font-family:Sans;letter-spacing:0px;word-spacing:0px;fill:#000000;fill-opacity:1;stroke:none;stroke-width:1px;stroke-linecap:butt;stroke-linejoin:miter;stroke-opacity:1"
       x="14.324148"
       y="763.8302"
       id="text6317"
       sodipodi:linespacing="125%"><tspan
         sodipodi:role="line"
         id="tspan6319"
         x="14.324148"
         y="763.8302"
         style="font-style:normal;font-variant:normal;font-weight:500;font-stretch:normal;font-family:Orbitron;-inkscape-font-specification:'Orbitron Medium'">O</tspan></text>
    <g
       style="overflow:visible"
       id="g10606"
       transform="matrix(0.6566284,0,0,0.6566284,-74.73891,765.41238)">
      <g
         id="g10430"
         style="clip-rule:evenodd;fill-rule:evenodd">
        <path
           id="path10432"
           d="m 281.22,25.082 c 9.788,-11.443 30.08,-16.937 51,-14 -10.337,2.663 -26.879,-0.878 -32,7 -3.528,-1.933 -4.472,0.469 -8,1 -0.466,1.912 3.082,4.304 -1,4 0.52,-6.196 -5.7,1.361 -10,2 z"
           inkscape:connector-curvature="0" />
        <path
           id="path10434"
           d="m 278.22,27.082 c 2.298,2.364 -3.597,5.021 -6,6 1.27,-2.73 4.02,-3.987 6,-6 z"
           inkscape:connector-curvature="0" />
        <path
           id="path10436"
           d="m 270.22,36.082 c 1.086,0.247 0.679,1.988 2,2 -2.62,1.38 -3.442,4.558 -7,5 -0.33,-4.33 5.54,-2.462 5,-7 z"
           inkscape:connector-curvature="0" />
        <path
           id="path10438"
           d="m 263.22,44.082 c 4.276,0.162 -0.5,2.973 -1,5 -1.192,4.831 0.104,13.96 -4,16 0.85,-7.815 2.09,-15.245 5,-21 z"
           inkscape:connector-curvature="0" />
        <path
           id="path10440"
           d="m 319.22,48.082 c -1.431,4.349 -6.187,0.277 -8,-1 1.42,-4.332 5.5,0.416 8,1 z"
           inkscape:connector-curvature="0" />
        <path
           id="path10442"
           d="m 323.22,56.082 c -1.834,1.926 -3.386,-0.853 -5,-2 -2.555,0.112 -1.984,3.349 -2,6 -3.336,1.685 -3.414,-0.635 -7,-1 0.204,-3.129 -0.675,-7.341 1,-9 4.85,3.532 10.93,-0.314 13,6 z m -13,0 5,0 c 0.144,-3.144 -2.564,-3.436 -5,-4 l 0,4 z"
           inkscape:connector-curvature="0" />
        <path
           id="path10444"
           d="m 330.22,55.082 c 1.008,3.008 -2.228,1.772 -4,2 0.24,-1.759 1.72,-2.279 4,-2 z"
           inkscape:connector-curvature="0" />
        <path
           id="path10446"
           d="m 314.22,85.082 c 0.184,0.851 -0.39,0.943 -1,1 l -2,0 c 0.086,-1.419 0.165,-2.832 -1,-3 1.71,-3.517 2.02,2.509 4,2 z"
           inkscape:connector-curvature="0" />
        <path
           id="path10448"
           d="m 359.22,93.082 c -3.49,-3.723 2.73,-5.074 0,0 z"
           inkscape:connector-curvature="0" />
        <path
           id="path10450"
           d="m 348.22,99.082 c 2.078,0.56 2.119,1.56 1,3 l -2,0 c -0.28,-1.61 0.95,-1.72 1,-2.998 z"
           inkscape:connector-curvature="0" />
        <path
           id="path10452"
           d="m 320.22,100.08 3,0 0,3 -4,0 c 0.53,-0.8 1.04,-1.62 1,-3 z"
           inkscape:connector-curvature="0" />
        <path
           id="path10454"
           d="m 324.22,109.08 c 1.336,0.997 1.964,2.703 4,3 0.169,2.169 -3.547,0.453 -5,1 0.78,-0.89 1.08,-2.26 1,-4 z"
           inkscape:connector-curvature="0" />
        <path
           id="path10456"
           d="m 319.22,113.08 c -0.66,4.59 -6.05,-0.8 0,0 z"
           inkscape:connector-curvature="0" />
        <path
           id="path10458"
           d="m 319.22,114.08 c 0.81,0.19 0.997,1.003 2,1 -0.19,0.81 -1.003,0.997 -1,2 -0.81,-0.19 -0.997,-1.003 -2,-1 0.19,-0.81 1,-1 1,-2 z"
           inkscape:connector-curvature="0" />
        <path
           id="path10460"
           d="m 263.22,130.08 c 1.161,0.839 2.681,1.319 5,1 0.18,1.63 -6.54,2.02 -5,-1 z"
           inkscape:connector-curvature="0" />
        <path
           id="path10462"
           d="m 346.22,133.08 c 1.23,0.437 2.054,1.279 2,3 -3.47,0.87 -3.43,-1.54 -2,-3 z"
           inkscape:connector-curvature="0" />
        <path
           id="path10464"
           d="m 351.22,154.08 c -2.36,3.22 -4.04,-3.52 0,0 z"
           inkscape:connector-curvature="0" />
        <path
           id="path10466"
           d="m 366.22,170.08 c -2.19,3.06 -6.4,-1.15 0,0 z"
           inkscape:connector-curvature="0" />
        <path
           id="path10468"
           d="m 370.22,179.08 c -3.51,-0.789 -1.155,-3.497 0,-5 2.93,0.85 -0.6,3.22 0,5 z"
           inkscape:connector-curvature="0" />
        <path
           id="path10470"
           d="m 253.22,212.08 c 0.147,-0.273 2.151,-1.849 3,-1 0.69,0.69 -3.94,2.76 -3,1 z"
           inkscape:connector-curvature="0" />
        <path
           id="path10472"
           d="m 336.22,220.08 c -2.19,3.06 -6.4,-1.15 0,0 z"
           inkscape:connector-curvature="0" />
        <path
           id="path10474"
           d="m 277.22,222.08 c 2.09,-0.424 2.648,0.686 4,1 -0.161,1.172 -1.823,0.844 -3,1 l 0,5 c -1.162,-0.163 -1.779,0.221 -2,1 -3.06,-2.17 0.31,-6.28 1,-8 z"
           inkscape:connector-curvature="0" />
        <path
           id="path10476"
           d="m 285.22,225.08 c 1.889,0.111 0.694,3.306 3,3 -1.453,2.964 -3.9,-1.317 -7,0 -1.6,-3.93 4.32,-0.35 4,-3 z"
           inkscape:connector-curvature="0" />
        <path
           id="path10478"
           d="m 317.22,232.08 c 3.06,2.2 -1.15,6.41 0,0 z"
           inkscape:connector-curvature="0" />
        <path
           id="path10480"
           d="m 374.22,256.08 c -1.453,2.964 -3.9,-1.317 -7,0 -2.47,-1.97 5.9,-0.76 7,0 z"
           inkscape:connector-curvature="0" />
        <path
           id="path10482"
           d="m 278.22,262.08 c 3.008,-1.008 1.772,2.228 2,4 -1.76,-0.24 -2.28,-1.72 -2,-4 z"
           inkscape:connector-curvature="0" />
        <path
           id="path10484"
           d="m 302.22,264.08 c 3.03,-3.7 3.37,3.04 0,0 z"
           inkscape:connector-curvature="0" />
        <path
           id="path10486"
           d="m 258.22,297.08 2,0 0,2 -2,0 0,-2 z"
           inkscape:connector-curvature="0" />
        <path
           id="path10488"
           d="m 292.22,339.08 c -2.99,-7.16 1.12,-11.48 0,0 z"
           inkscape:connector-curvature="0" />
        <path
           id="path10490"
           d="m 209.22,335.08 c -2.19,3.06 -6.4,-1.15 0,0 z"
           inkscape:connector-curvature="0" />
        <path
           id="path10492"
           d="m 164.22,0.082 c -5.89,-0.35 5.45,0.569 0,0 z"
           inkscape:connector-curvature="0" />
        <path
           id="path10494"
           d="m 278.22,35.082 c 4.403,-0.457 2.372,-5.843 10,-7 -0.733,-0.934 -1.818,-1.515 -3,-2 7.862,1.406 9.3,-6.363 18,-4 -0.649,-1.017 -2.299,-1.034 -2,-3 3.977,-0.872 5.023,-0.872 9,0 0.448,-0.605 -1.818,-1.235 -2,-1 4.531,-5.872 21.5,0.647 31,-3 0.367,1.701 -0.78,1.887 -2,2 10.482,4.851 21.671,8.996 28,18 0.969,6.698 5.547,9.786 6,17 1.379,-8.326 -2.015,-14.553 -9,-21 2.899,-3.818 -2.396,-3.076 -5,-5 -0.287,-0.212 1.473,-1.571 1,-2 -1.676,-1.522 -5.188,-1.719 -7,-3 -0.569,-0.403 -0.374,-2.54 -1,-3 -4.225,-3.103 -10.331,-2.666 -15,-5 20.438,-2.388 44.945,25.01 39,48 -3.816,-2.518 -6.079,-6.587 -10,-9 -2.967,0.366 -4.934,1.733 -6,4 0.253,3.414 2.528,4.805 2,9 1.834,-3.166 1.552,-8.449 7,-8 1.073,2.593 2.43,4.904 2,9 5.581,-5.427 8.013,2.916 12,5 0.227,-4.894 -2.358,-6.975 -5,-9 12.764,1.743 5.004,21.655 1,31 1.223,1.444 3.816,1.517 5,3 -1.615,8.241 -1.857,11.685 -6,17 1.369,2.631 4.21,3.79 5,7 -0.376,12.452 -15.878,14.146 -23,7 -0.154,2.487 1.571,3.096 2,5 -6.838,26.565 14.62,31.525 21,48 -0.83,2.503 -2.739,3.927 -3,7 -3.512,1.86 -3.289,-0.76 -6,-2 5.596,7.759 10.566,17.964 8,31 -2.306,-2.404 -3.225,-1.525 -7,-1 1.891,2.526 3.506,-0.923 6,1 -1.885,5.831 0.599,4.297 -2,8 7.87,6.493 1.149,21.299 2,32 0.183,2.296 2.227,4.908 2,7 -0.75,6.922 -6.033,10.654 -8,15 1.395,1.606 4.936,1.064 6,3 0.454,6.121 -1.514,9.819 -5,12 7.424,3.773 5.735,18.673 -3,20 11.114,3.543 10.202,28.81 2,35 -15.794,3.935 -45.207,0.738 -67,2 -6.391,0.37 -11.599,1.673 -17,1 -2.461,-0.307 -4.725,-1.896 -7,-2 -15.28,-0.702 -32.521,6.775 -44,-3 -0.325,-5.659 4.745,-5.922 9,-7 -6.693,-3.928 -3.328,-23.723 4,-26 -1.395,-1.606 -4.936,-1.064 -6,-3 -0.707,-8.374 0.113,-15.221 7,-16 -2.204,-3.032 -4.339,-8.372 -2,-13 4.774,-1.559 10.196,-2.471 17,-2 -2.828,-3.505 -7.863,-4.804 -7,-12 -1.212,-0.306 -3.448,2.889 -1,3 -5.885,0.479 1.796,-4.301 2,-9 -6.028,-2.749 -10.909,-0.966 -18,-3 5.091,-4.868 17.062,0.257 21,-2 -2.695,-2.305 -9.645,-0.355 -14,-1 -9.102,-0.427 2.42,-1.521 6,-1 -0.529,-0.804 -1.043,-1.623 -1,-3 -2.45,0.883 -3.669,2.997 -8,2 0.711,-4.74 6.37,-3.597 4,-9 4.688,2.008 12.207,0.168 13,-2 2.883,2.118 3.094,6.906 6,9 8.619,-2.798 16.996,-2.427 27,-2 6.343,-2.582 -0.123,-14.76 9,-16 0.764,-4.359 -1.237,-9.263 0,-11 1.593,1.004 4.023,0.945 2,3 0.613,-1.386 3.85,-0.15 4,-2 -0.449,2.628 0.32,4.187 3,8 -0.89,-0.776 -2.258,-1.075 -4,-1 -0.229,6.404 3.713,-1.167 3,7 1.598,-4.46 2.059,-6.393 2,1 2.152,-0.849 3.537,-2.463 3,-6 2.834,6.233 7.729,-2.083 11,3 1.316,-2.351 4.512,-2.822 7,-4 -1.402,-2.037 -3.445,0.982 -6,-1 1.812,-0.854 2.758,-2.575 5,-3 -3.072,2.741 2.956,2.375 4,1 -2.474,-1.746 -2.013,-2.207 2,-2 -0.744,-2.255 -5.609,-0.391 -8,-1 2.58,-3.087 4.676,-6.657 10,-7 -7.022,-0.171 -27.331,-2.141 -33,5 -3.554,-1.295 -3.635,-2.26 -8,-1 -0.475,-3.12 1.247,-4.842 3,-3 -0.353,-3.981 1.247,-9.914 -2,-11 0.078,3.052 0.46,12.436 -4,14 0.649,1.017 2.299,1.034 2,3 -4.738,6.929 -9.62,13.713 -23,12 -5.388,-5.278 -12.632,-8.701 -17,-15 -3.525,4.243 4.643,5.319 6,8 0.802,5.135 -1.072,7.595 -2,11 -6.868,2.076 -9.695,3.586 -17,1 -3.333,5.334 -5.256,12.078 -12,14 4.107,4.893 13.159,4.841 22,5 -6.886,3.611 -20.938,1.384 -24,-5 11.281,-3.9 12.22,-12.583 10,-26 2.197,-1.136 3.322,-3.345 6,-4 -1.344,-6.323 -1.38,-13.953 -2,-21 -2.893,-1.441 -4.51,-4.157 -6,-7 1.257,-9.022 -0.954,-18.944 6,-25 l 0,-33 -7,0 c -0.889,-2.111 -3.045,-2.955 -3,-6 3.514,3.293 1.216,2.087 5,0 -4.246,3.574 7.625,1.541 5,1 1.233,0.254 1.109,2.499 2,3 1.003,0.564 0.681,-1.861 1,-2 -1.683,0.729 5.292,0.937 2,1 2.636,-0.051 1.292,0.628 3,1 0.401,-2.596 1.517,-0.021 3,-4 3.348,2.618 7.136,-1.008 9,-3 -0.932,-1.486 -7.202,-1.611 -1,-2 -3.225,-1.517 -7.482,-1.931 0,-2 -2.366,-2.3 -8.976,-0.358 -13,-1 -2.578,0.241 1.373,1.721 0,4 -2.343,-3.849 -3.199,-3.667 -9,-3 0.628,-3.705 0.695,-7.971 4,-9 -3.098,-1.902 -6.682,-3.318 -11,-4 -0.195,-4.515 -2.515,-2.235 -1,-7 3.779,0.903 4.75,-6.038 12,-3 -1.755,-4.107 -5.526,-2.324 -10,-2 2.054,-2.504 7.82,-2.399 11,-1 -0.163,1.163 0.221,1.779 1,2 -1.102,4.898 -3.888,8.112 -9,9 3.322,1.345 7.618,1.715 10,4 0.729,4.729 -1.426,6.574 -3,9 l 7,0 c -0.335,-3.332 -2.897,-4.436 -2,-9 1.893,-2.107 4.915,-3.085 8,-4 -2.927,-0.308 -6.962,-2.198 -8,-7 11.847,-16.568 33.123,8.853 11,15 1.666,1.987 -0.091,1.271 0,4 1.425,2.241 5.425,1.908 7,4 1.194,9.194 -4.454,11.546 -12,12 1.382,10.284 0.982,22.351 1,34 5.448,4.096 12.967,13.181 6,21 1.79,5.876 6.897,8.436 10,13 5.76,-10.907 7.272,-26.061 22,-28 -1.331,-3.003 -3.919,-4.748 -9,-4 -0.823,-2.101 -4.116,-3.899 -2,-6 -1.223,-1.777 -5.796,-0.204 -4,-5 -5.438,1.517 -14.655,6.668 -20,2 0.259,-9.856 10.029,-11.804 16,-16 8.237,-5.79 10.795,-14.123 18,-21 -5.029,-4.458 -5.168,-12.714 -6,-19 -0.42,-2.246 -5.306,-0.027 -6,-2 0.448,-13.552 4.34,-23.66 15,-27 -0.711,-10.711 7.144,-12.857 13,-17 -1.683,3.942 -1.683,3.058 0,7 -4.689,-6.344 -12.062,2.485 -12,10 3.301,4.534 11.753,6.391 17,6 1.952,-0.426 -1.636,-2.857 3,-2 -2.741,-3.328 -1.269,0.453 1,-2 0.095,-0.103 -1.728,-2.418 -1,-3 0.13,-0.104 1.844,1.368 2,1 1.245,-2.928 -1.27,-5.617 1,-11 -2.461,-3.54 -8.564,-3.435 -10,-8 6.044,0.378 6.246,-5.087 8,-9 3.016,4.061 -3.881,6.752 -4,11 5.058,1.462 3.78,-6.72 8,-3 -0.529,-0.804 -1.043,-1.624 -1,-3 2.09,0.423 2.648,-0.686 4,-1 3.21,-0.877 2.073,2.593 4,3 4.17,-0.029 4.501,-3.892 3,-7 2.359,0.764 6.911,1.971 9,0 0.127,-1.793 -1.224,-2.109 -1,-4 -4.379,-0.379 -5.142,2.858 -9,3 1.864,-2.802 5.478,-3.856 9,-5 1.354,2.312 4.021,3.313 3,8 -1.313,1.02 -3.687,0.98 -5,2 0.309,2.358 3.473,1.86 3,5 -1.879,3.121 -5.213,4.788 -9,6 -1.888,-2.113 -4.534,-3.466 -7,-5 -1.763,0.903 -3.097,2.237 -4,4 4.394,6.146 0.809,17.794 -3,22 1.716,4.237 7.71,-0.59 13,1 1.89,2.444 3.82,4.846 5,8 14.813,-5.405 19.99,-26.393 14,-44 2.85,-1.817 3.705,-5.628 9,-5 -6.881,-22.363 -31.128,-30.605 -53,-20 -10.837,5.254 -20.381,15.229 -17,30 1.207,5.273 6.416,15.202 -6,16 l 0,6 c -5.379,-0.712 -5.874,3.459 -7,7 -6.571,2.073 -6.656,-3.087 -13,-2 -0.838,-2.162 -2.589,-3.411 -2,-7 -5.707,4.429 -13.103,-5.717 -9,-14 2.705,1.962 -0.61,9.943 2,12 1.666,-3.447 1.854,-2.773 4,0 0.891,-0.443 1.788,-0.878 2,-2 -0.529,-1.54 -1.043,-0.063 -1,1 -2.169,0.168 -0.453,-3.547 -1,-5 1.313,0.354 1.573,1.76 3,2 0.044,-1.71 -0.743,-2.59 -2,-3 0.443,-1.454 0.878,0.102 2,0 3.176,-0.485 -6.361,-4.335 0,-5 -1.572,-0.761 -1.494,-3.172 -4,-3 0.927,-2.74 2.421,-4.913 5,-6 -0.56,-2.259 -1.56,1.213 -3,-1 2.931,-1.28 3.479,-4.848 2,-6 0.257,-2.34 4.394,-0.576 5,0 -4.245,-2.005 2.155,-4.648 -2,-5 4.5,-4.456 9.35,-5.367 8,-9.998 z m -30,312 c 1.991,-0.331 3.247,-1.844 6,-5 -4.905,-0.732 -9.329,-1.553 -14,0 0.043,1.377 -0.471,2.195 -1,3 2.95,3.12 7.09,2.32 9,2 z m 23,-44 c 0.39,-1.086 1.2,-2.401 0,-1 -1.122,-0.211 -1.557,-1.109 -2,-2 3.216,-0.451 5.158,-2.175 6,-5 -8.653,0.606 -23.032,-2.677 -28,3 -0.496,5.163 1.362,7.972 4,10 0.869,-1.464 1.497,-3.17 4,-3 -2.17,0.891 0.122,5.704 1,3 -1.564,0.109 5.091,0.612 4,-3 0.598,1.088 5.032,5.522 3,3 -0.055,-1.278 -1.282,-1.385 -1,-3 1.427,0.239 1.687,1.646 3,2 0.956,-1.862 -2.995,-3.342 0,-4 -0.753,2.535 3.82,4.69 4,3 -1.464,-0.869 -3.17,-1.497 -3,-4 1.985,-0.509 2.288,5.518 4,2 -3.58,-1.66 -1.26,-3.98 1,-1 z m 8,-19 c -5.103,-5.344 -17.982,-3.704 -23,-2 0.628,-0.213 2.091,0.377 2,1 -3.781,1.447 -1.919,-2.748 -5,-2 -3.873,2.523 -2.803,6.879 0,9 -2.024,-1.532 2.505,-1.04 3,0 0.156,-1.177 -0.172,-2.839 1,-3 0.485,1.182 1.066,2.267 2,3 0.547,-1.453 -1.169,-5.169 1,-5 7.56,-2.36 15.51,1.97 19,-1 z m -3,5 c 3.156,-0.489 3.531,1.802 7,1 -0.008,-2.992 -1.798,-4.202 -4,-5 -0.47,4.2 -0.78,0.71 -3,4 z m -13,-38 c -3.611,0.069 -8.009,0.312 -4,-2 -2.071,0.595 -6.569,-1.236 -7,1 2.38,0.74 11.52,3.86 11,1 z m 39,-35 c -3.938,2.729 -8.747,4.586 -10,10 5.28,-0.74 10.31,-6.99 10,-10 z m -8,12 c 2.555,-0.111 3.5,-1.833 5,-3 -2.33,0.34 -4.31,1.03 -5,3 z m -43,10 c -2.717,-1.261 -1.912,-5.318 0,-7 0.317,3.683 7.514,0.486 9,3 -2.51,0.823 -8.61,-1.944 -8,2 2.17,-1.83 8.188,0.188 10,-2 -3.125,0.306 2.542,-2.889 -1,-3 -0.239,1.75 -3.718,-1.5 -5,-2 3.727,-0.061 6.325,1.009 9,2 -2.481,-4.79 -13.821,-4.613 -18,-2 -0.05,5.4 -1.99,12.39 4,9 z m -4,-55 c 0.261,-1.406 2.193,-1.14 3,-2 -0.595,-2.071 1.236,-6.569 -1,-7 -1.26,2.22 -5.99,7.7 -2,9 z m 68,-45 c -4.631,-3.035 -9.478,-5.855 -15,-8 -4.41,2.812 -4.604,8.262 -7,12 -6.625,10.335 -21.572,10.573 -26,23 6.944,0.725 8.596,-2.113 13,-1 1.736,-5.554 3.738,-7.954 8,-9 -0.003,1.003 0.81,1.19 1,2 -1.729,2.271 -2.413,5.587 -2,10 8.612,-1.44 16.32,1.641 13,9 3.004,3.104 7.607,4.963 12,2 -6.162,-0.442 1.414,-3.62 -3,-5 3.656,0.695 7.838,-4.481 8,-7 1.257,0.22 2.044,1.558 2,-1 -4.408,-1.352 -8.596,2.661 -10,1 0.613,-1.386 3.85,-0.15 4,-2 -4.835,0.502 -5.697,-2.97 -7,-6 6.506,-1.494 6.982,-9.018 15,-9 -3.125,0.306 2.542,-2.889 -1,-3 -2.815,2.104 -5.136,0.646 -1,3 l -4,0 c -0.348,-6.652 -2.93,-11.07 -7,-14 2.9,-0.17 4.81,5.77 7,3 z m -2,19 c 0.776,0.224 1.973,0.027 2,1 -3.1,-0.1 -5.547,0.453 -7,2 2.812,1.521 3.93,4.737 9,4 -0.792,-3.458 1.111,-4.222 2,-6 -2.27,-1.32 -3.87,-4.58 -6,-1 z m 17,-22 c -2.717,-0.447 -4.684,-0.952 -6,0 1.122,0.212 1.557,1.109 2,2 -4.759,-1.73 -2.422,-0.29 -4,2 -2.716,0.716 0.716,-4.716 -2,-4 -2.492,6.725 5.758,3.506 2,12 3.378,-2.288 4.79,-6.543 10,-7 7.216,2.165 7.799,15.722 1,19 3.271,-5.403 2.156,-6.154 3,-12 -2.358,-0.309 -1.86,-3.473 -5,-3 -2.464,0.869 -4.336,2.33 -4,6 1.502,1.497 4.211,1.789 5,4 0.049,3.049 -0.908,5.092 -3,6 0.716,-2.716 -4.716,0.716 -4,-2 1.696,-3.535 -0.007,-3.517 0,-8 -2.833,0.167 -4.167,1.833 -7,2 l 0,5 c 2.279,1.373 3.759,-2.578 4,0 -1.464,0.869 -3.17,1.497 -3,4 0.055,1.278 1.282,1.385 1,3 15.941,0.084 13.364,-2.929 21,-10 -3.049,-1.417 0.894,-3.121 1,-5 0.019,-0.321 -2.376,0.128 -2,-1 0.182,-0.545 2.358,0.255 2,-1 -0.066,-0.233 -1.738,-0.336 -2,-1 -0.292,-0.739 -1.133,-6.643 0,-5 -1.152,-1.671 -4.466,-2.912 -7,-5 -2.666,0.717 -7.723,4.211 -9,3 2.26,-1.07 4.4,-2.27 6,-4 z m -14,-3 c -1.666,1.987 0.091,1.271 0,4 l 3,0 c 0.18,-2.5 -2.24,-2.43 -3,-4 z m -1,10 c 5.124,-0.275 1.619,4.275 5,4 3.73,-2.95 -2.85,-7.14 -5,-4 z m 29,-81.998 c -4.386,-1.136 -3.284,0.005 -7,1 0.61,6.098 7.18,5.565 7,-1 z m 6,-31 c 10.308,4.026 14.849,13.818 19,24 -4.525,-21.069 -15.303,-30.148 -40,-34 -0.156,1.177 0.172,2.838 -1,3 -0.091,-1.576 -2.551,-0.783 -2,-3 -6.444,1.27 -7.845,3.324 -15,5 -0.306,-2.306 2.889,-1.111 3,-3 l -4,0 c 0.1,5.273 -0.453,3.409 -2,1 -0.171,1.496 0.357,3.69 -1,4 -0.156,-1.177 0.172,-2.838 -1,-3 -0.958,3.37 2.674,7.22 4,5 -1.864,-3.483 5.758,-0.712 5,-4 2.356,3.214 0.897,0.42 3,0 0.762,-0.152 1.539,1.235 2,1 0.786,-0.401 -0.316,-1.74 1,-2 8.16,-1.611 20.066,2.535 28,2 -0.22,1.891 1.13,2.206 1,4 z m -47,-5 c 3.17,4.766 -3.563,1.376 -4,5 1.613,0.168 5.154,3.356 6,1 -3.724,-1.386 2.943,-0.15 2,-2 -3.16,0.493 -0.37,-4.962 -4,-4 z m -7,11 c -0.042,-0.434 1.785,-7.215 0,-9 -0.817,-0.817 -0.948,7.154 -1,8 -0.23,3.821 -0.88,-0.285 1,1 z m -2,-2 c 0.132,-1.314 0.151,-7.235 -1,-4 -0.13,1.314 -0.15,7.235 1,4 z m -2,0 c 0.272,-1.361 -0.619,-3.904 -1,-2 -0.27,1.361 0.62,3.904 1,2 z m 8,0 c -1.966,0.299 -1.983,-1.35 -3,-2 -0.88,2.06 2.6,4.491 3,2 z m -10,3 c -0.228,-1.772 1.008,-5.008 -2,-4 0.14,1.862 0.66,3.342 2,4 z m -8,2 c 2.144,0.049 6.877,-2.329 4,-4 -0.9,1.762 -3.68,1.652 -4,4 z m 7,1 c 2.529,1.053 4.433,-3.373 2,-4 1.24,3.236 -3.23,0.764 -2,4 z m -1,0 c -1.949,-0.473 -5.114,2.691 -3,3 0.11,-1.889 3.31,-0.694 3,-3 z m -10,6 c 5.74,0.713 14.818,-0.479 13,-4 -1.58,4.09 -11.42,-0.09 -13,4 z m 12,1 2,0 0,-2 -2,0 0,2 z m -11,4 c 1.453,0.547 5.169,-1.168 5,1 l -4,0 c 1.301,2.483 -2.934,4.15 0,5 -0.513,-5.179 6.268,-3.066 8,-6 -0.776,-0.224 -1.973,-0.027 -2,-1 1.177,-0.157 2.839,0.172 3,-1 -3.74,-0.357 -11.32,0.615 -10,2 z m 9,-4 c -4.331,0.335 -10.475,-1.142 -12,2 3.89,-0.15 12.56,-0.727 12,-2 z m -9,5 c -6.82,-1.132 -3.55,5.112 0,0 z m 5,3 c 2.169,0.723 6.364,-1.022 2,-1 -2.037,-0.854 -6.213,0.871 -3,2 0.06,-0.61 0.15,-1.184 1,-1 z m 9,4 c -3.146,0.479 -3.909,-1.424 -6,-2 0.04,3.827 3.86,3.173 6,2 z m -21,1 c -1.78,0.553 -4.153,0.514 -5,2 3.36,0.64 3.205,4.795 3,9 4.43,1.08 2.172,-7.534 6,-4 -0.56,-4.422 -2.913,-4.073 -5,-5 -0.306,-2.306 2.889,-1.111 3,-3 -1.147,-0.309 -6.604,-1.958 -4,0 0.78,0.224 1.98,0.028 2,1 z m 14,9 c -0.61,-0.057 -1.184,-0.149 -1,-1 4.841,-0.633 -1.478,-0.38 0,-3 1.615,-2.865 1.289,1.528 0,-2 -0.199,-0.545 0.865,-4.023 0,-5 -1.496,0.17 -3.69,-0.357 -4,1 2.18,2.487 0.642,8.691 3,11 0.24,-1.875 1.65,0.567 2,-1 z m -5,1 c -3.382,-5.388 0.665,-6.573 -2,-10 -0.981,3.066 -2.668,-1.149 -4,-1 2.924,2.765 0.572,16.064 5,14 -1.122,-0.211 -1.557,-1.11 -2,-2 1.721,-0.395 2.563,1.484 3,0 -2.33,-0.558 -2.33,-3.009 0,-1 z m 12,-9 c -1.453,0.547 -5.169,-1.168 -5,1 1.46,-0.547 5.17,1.168 5,-1 z m -5,8 c 0.075,1.742 -0.224,3.11 -1,4 3.74,-0.646 5.171,-4.688 8,-1 -3.5,-3.749 0.935,-4.943 -1,-8 -3.57,2.33 -0.18,5.674 -6,5 z m 73,23 c 0.745,-3.078 -2.745,-1.922 -2,-5 2.306,-0.306 1.111,2.889 3,3 -0.409,-2.409 1.826,-2.174 1,-5 -2.441,2.949 -3.108,0.357 -2,-2 1.427,0.239 1.687,1.646 3,2 -0.022,-2.356 1.723,-2.944 1,-6 -1.177,-0.157 -2.839,0.172 -3,-1 1.742,-0.075 3.11,0.223 4,1 0.265,-4.14 -3.88,-1.33 -4,-3 0.016,-1.651 2.773,-0.56 3,-2 -4.989,2.895 -1.811,-7.395 -4,-4 -0.386,17.95 -11.755,33.321 -25,32 4.939,0.553 -1.04,0.514 -1,2 5.342,11.07 22.906,-1.101 20,-6 1.003,-0.003 1.19,0.81 2,1 0.043,-1.376 -0.471,-2.196 -1,-3 1.278,0.055 1.385,1.282 3,1 -0.15,-2.481 0.52,-4.148 2,-4.998 z m -77,-11 c -0.475,-3.12 1.247,-4.842 3,-3 0.305,-2.638 -2.088,-2.579 -4,-3 -1.37,1.283 -1.74,5.98 1,6 z m 93,-4 c 0.016,-1.651 2.773,-0.56 3,-2 -2.04,-0.854 -6.21,0.871 -3,2 z m -103,1 c 4.454,1.449 0.401,5.46 4,7 -0.299,-1.966 1.351,-1.983 2,-3 -3.041,-1.001 -1.276,-1.648 0,-3 -1.96,-0.842 -5,-4.967 -6,-1 z m -3,7 c -0.977,-3.764 -2.116,-7.296 2,-4 l 0,-4 -5,0 c 1.47,2.2 -0.12,7.453 3,8 z m 96,8 c -0.299,-1.966 1.351,-1.983 2,-3 -0.65,-1.321 -0.386,-4.31 2,-5 0.88,-3.213 -3.296,-1.371 -3,-4 1.177,-0.157 2.839,0.172 3,-1 -0.776,-0.224 -1.973,-0.027 -2,-1 2.052,1.146 4.767,-1.57 2,-2 -0.41,1.705 -1.289,-0.21 -3,0 1.02,6.646 -7.31,13.174 -1,16 z m -3,9.998 c 7.398,1.169 9.809,-8.179 9,-14 0.933,0.611 3.688,2.327 3,-1 -0.426,-1.952 -2.857,1.635 -2,-3 1.891,-0.224 2.206,1.127 4,1 1.555,-3.555 -3.396,-0.604 -3,-3 0.52,-2.48 2.438,-3.562 4,-5 l -4,0 c -1.99,10.009 -6.54,17.455 -11,25 z m -27,-6.998 c -3.626,-1.825 -9.74,-3.183 -13,0 -8.761,-3.239 -15.692,-8.308 -25,-11 -5.836,4.923 -11.895,14.648 -9,25 15.608,0.059 20.051,11.282 33,14 -0.056,3.913 3.301,7.97 6,6 -2.727,2.711 2.586,2.489 2,6 13.91,-0.512 16.835,14.32 12,22 2.948,2.385 6.288,4.379 7,9 9.523,3.622 18.316,20.049 27,15 -2.402,-2.524 -0.21,-2.987 -1,-8 -4.269,0.209 -5.166,-2.239 -7,-2 l 0,-2 c 1.182,0.145 2.267,1.78 3,0 -2.771,-0.772 -6.7,-0.998 -3,-3 -3.402,-1.308 -6.979,2.228 -8,0 3.711,-1.851 -6.506,-5.373 -1,-11 -0.779,-0.221 -1.163,-0.838 -1,-2 -2.503,-0.17 -3.131,1.536 -4,3 1.721,0.395 2.563,-1.484 3,0 -0.485,1.182 -1.066,2.267 -2,3 -1.716,-1.617 -2.484,-4.183 -2,-8 -3.221,-0.966 -7.774,-8.35 -3,-11 0.276,1.753 -2.815,4.989 0,6 0.485,-1.78 1.066,0.434 2,1 -0.117,-1.023 4.313,-2.023 1,-3 -0.363,1.035 -0.926,-1.285 -3,-1 1.329,-1.004 3.721,-0.945 4,-3 -6.281,2.269 1.464,-2.347 0,-4 2.762,-0.428 0.938,3.729 3,4 0.371,-4.705 -2.531,-6.136 -5,-8 3.533,-0.111 -0.104,-1.833 3,-3 -5.782,-7.727 -12.121,-14.281 -17,-18 0.776,-0.224 1.973,-0.027 2,-1 -3.877,-4.468 -12.991,-8.993 -14,-13 4.914,4.311 4.436,-2.224 11,2 -0.285,-4.048 -7.896,-0.77 -8,-5 1.73,0.369 6.18,3.025 7,1.002 z m 15,53.998 c 1.461,0.872 3.872,0.794 3,4 7.19,0.08 -1.64,-9.78 -3,-4 z m 11,-49 c -1.122,-0.211 -1.557,-1.11 -2,-2 1.427,-0.39 1.687,-1.2 3,0 -2.52,-4.31 1.886,-1.239 2,-5 l -4,0 c -3.319,8.348 -8.588,14.746 -19,16 0.188,2.812 1.739,4.261 5,4 1.896,-4.105 8.159,-3.84 10,-8 0.395,1.72 -1.484,2.563 0,3 2.73,-4.3 0.562,-3.763 4,-6 -1.22,-0.113 -2.367,-0.299 -2,-2 1.72,-0.392 2.57,1.49 3,0 z m 12,-1.998 c 2.279,0.279 3.759,-0.241 4,-2 -1.77,0.228 -5.01,-1.008 -4,2 z m -9,6.998 c -6.684,-1.495 -8.028,10.5 -17,10 -0.319,3.319 2.222,3.778 3,6 0.113,-1.22 0.299,-2.367 2,-2 -1.454,-4.52 1.302,-1.938 5,-4 0.403,-4.319 2.047,-1.792 2,-5 1.182,0.145 2.267,1.78 3,0 -1.122,-0.211 -1.557,-1.11 -2,-2 7.92,2.27 -2.41,-1.55 4,-3 z m 4,8 c -1.715,-6.048 5.75,-2.917 5,-8 -4.78,-4.58 -8.67,6.74 -5,8 z m 6,9 c 0.224,-0.776 0.027,-1.973 1,-2 -0.003,0.556 0.81,1.135 1,0 -1.576,-0.091 -0.783,-2.551 -3,-2 0.17,1.5 -0.36,3.69 1,4 z m -1,-6 c -0.982,-1.352 -2.668,-1.998 -4,-3 0.043,1.377 -0.471,2.196 -1,3 3.719,-1.053 1.961,3.372 4,4 -0.22,-1.89 1.13,-2.2 1,-4 z m -4,10 0,-6 c -3.738,-0.676 -6.065,-6.695 -11,-3 1.566,4.625 3.277,3.589 5,7 -0.468,-3.135 2.515,-2.819 4,-4 0.11,2.56 0.57,4.77 2,6 z m -58,-5 c -3.522,0.14 -7.136,-4.798 -9,-3 2.98,0.4 5.94,6 9,3 z m -13,3 c -0.069,0.012 0.062,0.93 0,1 -4.75,5.43 4.8,-1.85 0,-1 z m 4,5 c 4.508,-1.907 7.524,6.201 11,2 -3.073,0.148 -4.497,-3.519 -7,-1 0.224,-1.891 -1.127,-2.206 -1,-4 l -3,0 0,3 z m -1,-5 c -0.292,0.613 -2.487,3.85 0,4 -0.95,-1.86 3,-3.34 0,-4 z m 15,6 c -0.222,-2.512 -5.142,-5.436 -6,-4 2.1,1.23 3.9,2.77 6,4 z m 5,2 c -1.329,0.146 -3.721,-3.363 -4,-1 1.33,-0.15 3.02,4.07 4,1 z m -55,6 c -0.534,-1.44 3.896,-2.44 1,-3 0.12,1.02 -4.31,2.02 -1,3 z m -11,36 c 5.886,-0.045 1.793,-6.938 2,-12 0.342,-8.368 3.28,-18.892 -2,-21 -0.56,11.91 0.95,23.61 0,33 z m -6,-18 c 0.259,7.465 -2.115,15.814 2,18 -0.024,-4.955 0.031,-11.113 0,-17 -0.028,-5.325 1.691,-12.463 -2,-15 -2.7,3.5 -0.18,8.75 0,14 z m 76,13 c 0.17,-2.503 -1.536,-3.131 -3,-4 0.42,1.91 0.36,4.31 3,4 z m 13,2 c 1.869,0.798 3.662,1.671 6,2 -0.869,-3.869 2.442,-3.558 3,-6 -3.769,0.769 -4.78,-1.22 -8,-1 0.83,2.83 -1.41,2.59 -1,5 z m -49,2 c 2.672,-0.661 6.248,-0.419 8,-2 -2.963,-0.704 -4.354,-2.979 -9,-2 -0.07,1.74 0.23,3.11 1,4 z m 30,5 c 1.334,1.427 5.666,1.427 7,0 0.024,-3.69 -0.447,-6.886 -4,-7 -0.83,2.5 -2.74,3.93 -3,7 z m -65,-1 c 0.161,-0.696 -0.35,-5.819 -1,-3 -0.88,3.81 0.54,5.01 1,3 z m 78,11 c -0.959,4.959 3.001,4.999 6,6 1.759,-1.574 1.311,-5.355 3,-7 4.076,1.105 1.156,6.224 0,8 4.93,-3.225 9.415,-1.124 8,7 4.142,0.142 1.041,-6.959 2,-10 -2.279,-1.373 -3.759,2.578 -4,0 4.295,-2.783 5.933,-2.444 10,-5 -1.453,-0.547 -5.168,1.169 -5,-1 3.236,-0.431 8.649,1.315 9,-2 -6.354,1.97 -3.746,-2.806 -2,-2 -5.801,-2.676 -8.32,1.317 -11,-5 3.817,-2.086 7.494,1.633 9,-2 -1.89,-0.443 -6.026,1.36 -5,-2 -3.045,-0.044 -3.889,2.111 -6,3 -0.877,3.21 2.594,2.073 3,4 -3.206,-0.872 -3.128,1.539 -4,3 2.409,0.409 2.174,-1.826 5,-1 -3.745,3.729 4.655,0.42 5,3 -3.052,0.008 -12.865,2.809 -8,-1 -3.458,-0.792 -4.222,1.111 -6,2 -2.768,-2.469 -10.362,-2.349 -7,-8 -4.151,1.021 -5.817,5.059 -3,8 -1.289,6.004 -13.854,7.082 -16,1 -3.398,3.087 5.109,6.368 1,10 -3.517,-3.15 -4.354,-8.979 -6,-14 l -4,0 c 0.437,4.591 5.765,9.532 5,12 -4.91,-5.317 -4.165,-13.322 -12,-14 -7.009,-0.606 -14.167,7.463 -14,14 7.508,-3.488 17.412,0.251 22,-3 l 0,4 c 6.831,3.612 16.433,0.425 24,-1 -3.606,-1.086 0.445,-7.854 2,-10 1.069,4.442 0.518,1.812 3,4 2.396,0.396 -0.555,-4.555 3,-3 1.003,4.67 -1.744,5.59 -6,5 1.12,-1.44 1.08,-2.44 -1,-3 z m -53,20 c 3.953,-0.17 -0.32,1.536 2,3 -5.279,1.833 -14.318,-4.344 -13,-9 -2.456,-0.558 -3.983,-1.035 -6,-4 3.664,-0.623 0.492,-2.221 1,-6 5.056,-0.118 2.035,-1.827 1,-2 -0.172,-1.354 5.788,-1.296 2,-3 -0.012,1.009 -1.753,1.258 -2,0 6.277,-1.871 -2.553,-1.632 2,-4 -4.176,-1.824 -5.382,-6.618 -10,-8 l 0,5 c 2.545,0.122 3.878,1.455 4,4 -3.697,4.534 -0.938,15.387 1,15 -3.415,1.918 -1.505,9.162 -2,14 1.991,1.009 4.271,1.729 5,4 -0.613,-0.292 -3.85,-2.487 -4,0 1.966,-0.299 1.983,1.351 3,2 0.239,-1.543 3.718,-4.793 5,-2 -3.019,-1.542 -2.631,5.175 -1,5 -0.428,-1.611 3.729,-3.355 4,-1 -3.921,-0.921 -0.726,5.274 -3,6 3.179,1.816 5.269,6.637 10,4 -1.059,2.536 2.105,5.7 3,3 -0.779,-0.221 -1.162,-0.837 -1,-2 5.455,-0.43 7.684,-0.988 8,2 4.894,-2.379 0.538,-0.84 -1,-4 1.862,-0.138 3.342,-0.658 4,-2 -3.35,-1.65 -7.044,-2.956 -8,-7 0.013,-1.987 2.729,-1.271 2,-4 -1.834,-1.166 -3.386,-2.614 -5,-4 1.966,0.299 1.983,-1.351 3,-2 5.152,-0.751 6.396,0.534 10,-1 0.299,-1.966 -1.351,-1.983 -2,-3 2.611,-0.829 5.486,3.024 7,0 -0.61,-0.057 -1.184,-0.149 -1,-1 -0.057,-0.61 -0.149,-1.184 -1,-1 -5.42,1.6 -13.02,2.84 -17,3 z m 19,7 c -5.149,1.728 -15.444,1.795 -13,8 5.938,-3.729 14.869,-4.465 16,-13 -4.21,-0.96 1.62,4.92 -3,5 z m 45,-40 c -3.336,1.066 -3.414,-0.317 -7,1 0.075,1.742 -0.224,3.11 -1,4 2.162,0.838 3.411,2.589 7,2 -0.83,-4.97 -2.48,-3.96 1,-7 z m 10,3 c 0.003,-0.556 -0.81,-1.135 -1,0 2.01,3.73 13.41,-1.29 1,0 z m -98,3 c -1.321,-0.012 -0.914,-1.753 -2,-2 -1.14,2.05 1.57,4.77 2,2 z m 2,7 c 0.224,-0.776 0.027,-1.973 1,-2 -0.138,-1.862 -0.658,-3.342 -2,-4 2.58,3.32 -3.23,4.34 1,6 z m 70,-2 c -0.547,-3.453 -3.448,-4.552 -8,-4 -1.151,1.182 -1.132,3.535 -1,6 3.499,-1.404 6.401,2.805 8,0 -1.737,-0.357 -7.613,-1.593 -5,-3 0.13,2.21 4.24,0.43 6,1 z m -83,6 c -0.28,-3.613 4.38,-2.287 6,-4 -1.701,-3.729 0.591,-1.583 1,-5 -4.92,-0.22 -10.17,4.46 -7,9 z m 109,1 c 3.891,-0.776 8.187,-1.146 10,-4 -2.5,-1.26 -9.54,0.04 -10,4 z m -102,2 0,-4 c -4.667,-0.001 -8.121,1.212 -8,6 4.099,0.039 5.869,-1.536 6,-3 0.22,0.78 0.84,1.16 2,1 z m 103,1 c 4.563,0.563 6.228,-1.772 11,-1 -0.43,-5.89 -9.38,-1.13 -11,1 z m -96,0 c -1.321,-0.012 -0.914,-1.753 -2,-2 0.05,12.84 0.31,10.02 2,2 z m 43,10 c 1.984,-1.594 4.327,-12.214 -1,-12 0.71,5.08 -3.47,9.08 1,12 z m -19,-6 c 5.235,-2.499 14.145,-1.791 17,-4 -5.16,-0.79 -17.2,-3.49 -17,4 z m 64,2 c 1.743,-1.728 1.107,-6.183 -1,-7 0.6,2.07 -1.23,6.57 1,7 z m -94,-3 2,0 0,-2 -2,0 0,2 z m 54,6 c 0.605,-2.2 2.513,-7.452 -1,-8 0.61,2.39 -1.25,7.26 1,8 z m 13,-7 c -3.481,0.482 -10.266,-0.348 -10,4 3.267,1.233 13.371,0.729 16,-2 0.111,1.51 0.301,1.99 2,2 4.431,0.025 16.542,-0.08 16,-4 -4.09,-1.48 -15.7,-1.15 -24,0 z m 36,2 c 4.023,-1.704 9.182,3.908 10,-1 -2.18,-2.44 -8.2,-0.25 -10,1 z m 14,0 c 8.17,-1.6 -2.33,-3.53 0,0 z m -124,1 c 1.496,-0.171 3.69,0.357 4,-1 -1.33,-1.3 -3.72,-1.32 -4,1 z m 7,4 c 1.721,0.054 2.563,-0.77 3,-2 -1.72,-0.05 -2.56,0.77 -3,2 z m 3,-5 c -2.06,-0.877 -4.49,2.594 -2,3 0.09,-1.57 2.55,-0.78 2,-3 z m 27,5 c 2.052,1.775 6.327,-1.136 10,-2 1.791,-0.422 6.511,1.637 6,-2 -4.62,-1.93 -14.22,-0.24 -16,4 z m 71,1 c 2.785,1.602 2.766,-4.318 1,-4 0.23,1.89 -1.12,2.21 -1,4 z m -43,2 c -0.102,-1.122 1.453,-1.557 0,-2 -0.111,1.889 -3.306,0.694 -3,3 9.582,4.508 20.893,-0.531 30,1 -3.25,1.019 -8.086,1.625 -13,2 -4.454,0.34 -11.072,-1.914 -13,2 2.124,5.12 7.306,0.115 11,0 2.696,-0.084 4.933,2.124 8,1 1.321,-0.012 0.914,-1.753 2,-2 -0.205,2.626 12.774,2.473 12,-2 -0.904,-3.633 -5.645,2.084 -6,-1 1.36,-2.973 7.059,-1.608 8,-5 -11.38,-2.02 -29.42,0.52 -36,3 z m -55,18 c -0.7,-3.078 -0.7,-1.922 0,-5 -4.22,-0.78 -3.41,5.36 0,5 z m 0,-6 c -3.04,-2.996 1.393,-4.39 0,-11 -5.386,2.28 -2.801,-1.352 -5,-4 -2.555,2.348 -0.912,12.988 0,18 1.755,8.369 -0.155,-7.375 2,-8 0.575,1.758 -1.209,5.875 1,6 0.22,-0.78 0.84,-1.16 2,-1 z m 0,-12 c -1.77,-4.66 -4.69,0.94 0,0 z m 101,1 c 5.783,0.783 8.549,-1.451 14,-1 -1.9,-4.45 -11.85,-0.85 -14,1 z m -9,6 c -0.577,-2.672 2.958,-6.248 0,-8 -1.05,1.04 -2.06,7.14 0,8 z m 5,2 c -0.959,-3.042 2.142,-10.142 -2,-10 0.77,1.98 -3.45,9.84 2,10 z m 20,-8 c 1.862,-0.138 3.342,-0.658 4,-2 -1.77,0.23 -5.01,-1.01 -4,2 z m 1,4 c 3.341,-2.944 2.183,-4.103 -2,-2 1.32,0.01 0.92,1.76 2,2 z m -64,4 c -0.016,-2.651 0.555,-5.889 -2,-6 0.02,2.65 -0.55,5.89 2,6 z m 61,-2 c 0.805,-8.307 -11.43,-1.168 -14,-4 0.49,5.52 10.6,1.41 14,4 z m -87,-1 c 4.054,1.674 12.204,-0.186 16,-2 -5.09,0.91 -14.06,-2.06 -16,2 z m -25,12 c -0.551,-3.159 1.55,-14.158 -2,-11 1.95,3.1 -1.39,8.47 2,11 z m 113,-7 c 0.305,-2.638 -2.088,-2.579 -4,-3 -0.3,2.64 1.39,3.28 4,3 z m -4,1 c -2.571,-1.467 -8.867,-4.415 -12,-2 3.45,0.25 10.85,5.98 12,2 z m 9,-3 c -6.4,-1.15 -2.19,3.06 0,0 z m -39,4 0,3 3,0 c 0.043,-1.377 -0.471,-2.196 -1,-3 1.177,-0.156 2.839,0.172 3,-1 -2.32,-0.32 -3.84,0.16 -5,1 z m 24,2 c -5.352,1.171 -8.91,6.633 -14,8 -0.139,6.671 4.47,11.38 7,18 l 13,0 c 1.891,-3.775 6.873,-4.461 9,-8 0.476,-4.428 -1.376,-4.973 0,-8 -3.854,-1.613 -2.66,-7.52 -8,-11 -1.51,3.68 -4.29,0.41 -7,1 z m -20,7 c -6.4,-1.15 -2.19,3.06 0,0 z m -41,12 c 2.917,-0.251 3.45,1.883 5,3 0.224,-0.776 0.027,-1.973 1,-2 -0.027,6 1.377,-1.35 3,3 1.157,-2.509 3.984,-3.349 4,-7 -5.761,0.761 -6.993,-3.007 -11,-4 -1.32,1.68 -2.65,3.35 -2,7 z m 14,-1 c -1.598,6.402 -2.247,13.753 -4,20 3.936,1.603 0.348,-4.318 3,-4 0.011,1.467 -0.378,8.183 1,5 0.171,-1.496 -0.357,-3.69 1,-4 0.011,1.467 -0.378,8.183 1,5 -0.1,-5.273 0.453,-3.409 2,-1 0.156,-1.177 -0.172,-2.839 1,-3 0.156,1.177 -0.172,2.839 1,3 0.211,-1.209 1.109,-0.615 2,0 0.187,-11.85 1.939,-17.9 8,-25 -5.158,-1.616 -11.97,-1.253 -15,2 0.77,3.19 1.48,4.9 -1,2 z m -57,-3 c -2.071,0.595 -6.569,-1.236 -7,1 2.07,-0.59 6.57,1.24 7,-1 z m 89,7 c -1.886,-1.555 1.435,-3.896 -1,-6 -5.154,1.179 -10.326,2.34 -16,3 l 0,4 c 4.672,-0.351 5.896,-1.872 8,1 0.134,-4.556 4.056,0.894 5,-1 -0.779,-0.221 -1.163,-0.837 -1,-2 1.33,-0.23 7.2,2.11 5,1 z m -45,6 c 0.994,0.573 5.343,-0.636 7,2 1.129,-1.204 2.854,-1.812 2,-5 -5.062,0.728 -5.922,-2.744 -10,-3 -0.292,0.613 -2.487,3.85 0,4 2.45,-3.08 -1.8,2.17 1,2 z m 49,-1 c 0.132,-1.314 0.151,-7.235 -1,-4 0.812,2.269 -1.867,6.693 0,4 l 1,0 z m -89,-3 c -1.453,0.547 -5.169,-1.169 -5,1 1.46,-0.54 5.17,1.17 5,-1 z m 83,5 c -0.779,-0.221 -1.162,-0.838 -1,-2 1.427,0.239 1.687,1.646 3,2 -1.592,-5.316 -19.27,-4.178 -19,2 6.554,3.032 2.637,-1.295 9,1 0.111,-3.534 1.833,0.104 3,-3 -0.306,1.212 2.889,3.448 3,1 -1.086,-0.239 -2.401,-1.646 -1,-2 1.44,-0.53 2.44,3.9 3,1 z m -55,0 c 4.021,2.698 6.992,2.012 15,5 -9.599,-9.758 -43.886,-9.192 -43,7 1.004,-1.329 0.945,-3.721 3,-4 -0.376,2.595 -2.379,12.21 -1,12 0.138,-1.862 0.658,-3.342 2,-4 -0.167,2.833 -1.833,4.167 -2,7 6.509,3.832 17.259,8.73 26,7 -8.282,0.521 -20.369,-6.942 -10,-13 -0.521,1.574 -3.851,5.355 -1,7 0.926,-5.563 1.824,-0.887 3,1 1.727,-0.606 -0.077,-4.743 2,-5 2.042,2.375 -2.072,4.655 2,5 -0.344,-2.741 -1.939,-8.16 -3,-8 -0.325,0.049 0.309,4.619 -2,3 1.133,-2.867 2.756,-5.244 5,-7 -1.146,2.052 1.57,4.767 2,2 -0.908,-0.274 -3.358,-3.726 -1,-4 3.583,4.174 0.835,-1.731 5,-2 -4.085,4.756 6.433,11.058 1,14 -1.035,-1.378 -3.965,-5.929 -5,-4 0.928,0.878 1.478,4.717 2,6 1.704,-3.788 1.646,2.172 3,2 1.703,-4.029 2.335,1.969 5,-2 -0.292,0.613 -2.487,3.85 0,4 0.111,-3.693 1.833,-2.894 3,-1 2.734,-2.468 2.383,-2.646 8,-5 -2.638,0.305 -2.579,-2.088 -3,-4 2.322,0.411 4.226,6.351 7,3 -2.25,-1.896 -2.668,-4.29 -5,-8 3.12,0.918 4.685,8.598 8,6 -7.871,-8.495 -12.609,-15.899 -30,-16 -0.239,-1.427 -1.646,-1.687 -2,-3 3.16,2.67 3.48,0.72 6,-1 z m 23,13 c -1.329,0.146 -3.721,-3.363 -4,-1 1.33,-0.15 3.02,4.07 4,1 z m -49,-12 c -8.704,1.493 8.779,1.153 1,-2 -0.22,0.78 -0.02,1.98 -1,2 z m 111,6 c 0.416,0.795 -0.071,10.911 2,8 2.606,-19.976 -28.594,-17.338 -36,-8 -5.3,-0.631 -13.164,6.74 -15,10 -4.358,0.309 -5.712,3.621 -8,6 0.333,2.896 2.524,3.845 4,6 3.168,4.627 3.796,10.6 8,14 0.491,-3.225 -4.667,-5.909 -2,-8 0.111,2.555 1.833,3.5 3,5 0.598,-1.78 -2.931,-4.153 0,-5 1.335,2.85 4.274,-0.229 6,4 0.553,-1.78 0.514,-4.153 2,-5 0.485,1.78 1.066,-0.434 2,-1 4.329,-0.291 9.175,4.107 12,2 -0.556,0.003 -1.135,-0.81 0,-1 0.012,1.009 1.753,1.258 2,0 -1.613,-2.924 -5.154,1.595 -6,-1 1.78,-0.553 4.152,-0.514 5,-2 -4.55,0.55 -5.455,-2.545 -6,-6 0.845,-2.089 5.155,-5.814 6,-2 -2.844,0.49 -3.537,3.13 -4,6 1.869,0.798 3.662,1.671 6,2 1.555,-3.555 -3.396,-0.604 -3,-3 2.826,-0.826 2.591,1.409 5,1 4.289,-3.951 6.526,-10.999 9,-14 -1.182,-0.485 -2.268,-1.066 -3,-2 1.966,0.299 1.983,-1.351 3,-2 -0.482,4.521 7.973,5.31 5,9 -1.927,-0.406 -0.79,-3.877 -4,-3 -0.75,3.417 4.062,1.271 3,5 -5.152,-2.854 -0.577,-1.156 -1,1 -0.494,2.518 -6.018,4.393 -3,3 4.458,-1.209 6.099,-5.234 8,-9 -2.375,-0.625 -4.655,-1.345 -5,-4 1.479,0.521 2.521,1.479 4,2 0.821,-3.821 -4.821,-1.179 -4,-5 1.496,-0.02 4.09,3.715 5,1 -3.528,-1.009 -1.831,-1.729 -3,-4 -1.758,-0.575 -5.875,1.209 -6,-1 2.37,-2.08 5.78,0.87 9,1 z m -13,19 c 5.81,1.06 0.42,-4.33 0,0 z m 3,-3 c 0.145,-1.182 1.78,-2.268 0,-3 -0.14,1.18 -1.78,2.27 0,3 z m -103,-9 c 0.017,0.523 -0.391,-2.59 -1,0 -1.36,5.78 1.12,3.6 1,0 z m 27,2 2,0 0,-2 -2,0 0,2 z m 29,2 c 0.61,0.057 1.184,0.149 1,1 -1.721,0.395 -2.563,-1.484 -3,0 1.321,0.012 0.914,1.753 2,2 1.65,-0.77 2.8,-6.01 0,-3 z m 4,-2 c -1.427,-0.239 -1.687,-1.646 -3,-2 -0.88,2.06 2.6,4.49 3,2 z m 1,24 c -1.311,-0.016 -1.274,-2.773 0,-3 0.224,0.776 0.027,1.973 1,2 -2.283,-6.717 -4.348,-13.652 -12,-15 -2.096,3.594 -10.608,6.028 -8,11 3.961,-0.018 3.049,7.454 8,10 0.224,-0.776 0.027,-1.973 1,-2 1.136,0.959 3.345,5.861 4,4 -2.4,-5.482 -6.6,-3.043 -9,-8 3.866,-2.26 3.944,1.856 7,3 1.32,-2.503 -3.953,-3.131 -1,-4 2.57,0.097 1.43,3.903 4,4 0.713,-2.494 -4.401,-4.109 -1,-6 2.438,5.957 2.222,4.662 3,0 -0.04,1.83 2.11,6.4 3,4 z m 36,-10 c 2.48,0.147 4.853,0.187 5,-2 -1.99,-2.08 -4.27,-0.03 -5,2 z m -60,3 c 2.917,1.47 2.917,-4.47 0,-3 l 0,3 z m 56,0 c 2.483,0.15 4.15,-0.517 5,-2 -2.48,-0.15 -4.15,0.52 -5,2 z m 21,0 c -2.555,1.078 -3.5,-4.305 -5,-1 1.5,-0.02 4.09,3.72 5,1 z m -8,0 c 7.54,5.4 5.46,-0.07 0,0 z m -24,3 c -0.294,-2.333 -2.706,-2.333 -3,0 3.55,1.85 6.73,-1.6 3,0 z m -76,3 c 0.311,-0.029 6.154,-2.223 4,-4 -1.03,2.84 -6.87,0.16 -4,4 z m 100,-3 c 5.62,4.16 2.86,-1.66 0,0 z m -105,3 c 2.182,0.182 3.182,-0.818 3,-3 -2.69,-0.69 -1.93,2.07 -3,3 z m 0,-3 c -2.182,-0.182 -3.182,0.818 -3,3 2.18,0.18 3.18,-0.82 3,-3 z m 39,1 c -7.584,2.372 -12.058,5.388 -16,8 -0.43,0.284 -3.745,2.461 -5,3 0.095,-0.041 -0.061,-2.004 0,-2 -5.557,-0.355 -8.404,5.274 -12,11 -6.411,1.092 -14.02,5.749 -11,13 8.632,-0.585 6.204,-6.44 10,-11 0.168,1.165 1.581,1.086 3,1 0.876,3.541 0.124,2.459 1,6 -2.566,2.434 -6.563,3.437 -9,6 2.409,-0.409 2.174,1.826 5,1 0.384,-2.847 5.334,-5.478 7,-12 l 0,9 c -3.913,-0.64 -7.565,5.255 -4,6 0.616,-2.225 1.983,-2.655 4,-2 1.896,-4.541 0.637,-7.229 2,-11 -0.15,4.192 0.517,2.408 2,1 -0.319,1.226 0.161,6.177 1,3 0.171,-1.496 -0.357,-3.69 1,-4 2.391,8.31 -7.127,9.193 -5,14 4.113,-3.788 6.161,-6.332 6,-13 5.603,-2.397 10.443,-5.557 14,-10 -2.555,2.559 1.654,6.282 0,4 3.444,-3.791 -1.546,-6.155 3,-6 -1.257,-0.41 -2.044,-1.29 -2,-3 2.092,-1.776 3.759,0.786 5,-1 -0.572,-0.905 -4.124,-3.681 -2,-4 1.762,0.905 1.652,3.682 4,4 2.84,-4.63 1.23,-7.79 -2,-11 z m 25,10 c 0.049,-3.049 -0.908,-5.092 -3,-6 0.51,2.49 -0.03,6.04 3,6 z m 28,-5 c 7.146,-2.119 10.778,4.519 16,1 -2.91,-1.7 -15.59,-3.36 -16,-1 z m -80,1 0,2 c 0.057,0.61 0.149,1.184 1,1 0.869,-2.908 1.497,-1.125 4,-1 -0.35,-3.93 -2.99,0.28 -5,-2 z m 85,2 c -4.383,-1.388 6.383,-0.612 2,-2 -11.247,-1.741 -4.762,5.144 -14,4 0.463,4.242 7.43,6.058 4,11 2.333,-0.334 4.309,-1.025 5,-3 -3.403,-0.264 -2.829,-4.504 -5,-6 2.038,-1.479 7.003,-1.95 3,-4 2.48,-1.3 4.86,2.23 5,0 z m -13,1 c -0.776,-0.224 -1.973,-0.027 -2,-1 0.61,-0.057 1.184,-0.149 1,-1 -1.834,0.261 -7.036,2.17 -5,3 1.62,-2.92 5.16,1.6 6,-1 z m 27,3 c -0.646,4.687 -2.468,8.199 -6,10 2.409,0.409 2.174,-1.826 5,-1 0.622,-4.828 3.66,-9.263 0,-13 -6.849,-0.21 -5.647,2.128 -12,3 5.191,0.142 3.819,6.848 8,8 0.029,-1.761 1.863,-3.967 1,-6 0.396,1.94 -4.555,1.461 -3,-1 4.35,1.55 5.54,-4.43 7,0 z m -54,-2 0,2 c 0.057,0.61 0.149,1.184 1,1 -0.509,-1.985 5.518,-2.288 2,-4 -0.56,2.08 -1.56,2.12 -3,1 z m -2,2 c -2.483,1.301 -4.15,-2.934 -5,0 0.61,0.58 4.74,2.34 5,0 z m 19,0 c -0.003,0.016 0.978,-0.038 1,0 3.2,5.33 -0.44,-3.34 -1,0 z m -32,5 c 0.74,-2.217 -3.686,-4.12 -4,-2 1.07,4.05 1.87,1.31 4,2 z m 36,4 c 0.066,-5.888 3.056,2.912 4,-1 -1.023,-0.977 -2.023,-1.977 -3,-3 1.467,-0.01 8.184,0.378 5,-1 -4.206,1.206 -4.385,-1.615 -7,-2 -1.36,1.35 -1.9,6.98 1,7 z m -43,2 c 2.933,-0.067 3.714,-2.286 5,-4 -1.377,0.043 -2.196,-0.471 -3,-1 -0.043,1.377 0.471,2.195 1,3 -1.57,0.1 -3.47,-0.13 -3,2 z m 37,-1 c -0.075,-1.742 0.224,-3.11 1,-4 l -3,0 c 0.14,1.86 0.66,3.34 2,4 z m 29,-1 c -1.576,-0.09 -0.783,-2.551 -3,-2 -0.88,2.06 3.3,3.79 3,2 z m 1,-2 c -1.05,5.81 4.34,0.42 0,0 z m -40,1 c 1.33,4.96 4.72,1.56 0,0 z m -67,4 c -3.484,0.94 -7.402,0.596 -10,4 -2.244,2.941 -4.07,18.286 0,16 -1.885,-2.276 -1.643,-10.933 1,-12 0.598,1.78 -2.931,4.153 0,5 0.494,-4.777 3.147,2.77 4,4 0.212,-1.122 1.109,-1.557 2,-2 -1.03,-4 -0.5,-12.48 3,-15 z m -1,23 c -1.959,-0.754 -1.491,-7.396 1,-7 0.392,3.049 -2.629,5.092 1,6 0.156,-1.177 -0.172,-2.839 1,-3 0.171,1.496 -0.357,3.69 1,4 -0.729,-1.635 1.987,-4.35 2,-2 -1.007,2.658 -1.044,5.092 1,7 0.119,-2.881 -0.546,-6.546 1,-8 -3.4,-1.6 -5.343,-4.657 -10,-5 -2.09,1.54 -0.24,10.99 2,8 z m -5,-4 c -0.279,2.279 0.241,3.759 2,4 0.28,-2.28 -0.24,-3.76 -2,-4 z m 44,-15 c 2.213,-1.44 -1.259,-2.44 1,-3 0.61,-0.057 1.184,-0.149 1,-1 -3.946,1.028 -4.602,4.707 -7,0 l 0,3 c 2.41,-0.41 2.18,1.83 5,1 z m -7,-1 c 1.179,3.831 2.982,4.429 -2,3 -0.688,2.688 2.067,1.933 3,3 0.319,-2.348 3.095,-2.238 4,-4 -1.31,-1.02 -3.68,-0.98 -5,-2 z m 15,1 c 1.862,0.956 3.342,-2.995 4,0 -5.507,0.725 -11.627,5.389 -11,9 -5.473,0.86 -6.734,5.932 -11,8 -0.888,3.649 1.767,5.326 0,7 3.056,0.723 3.645,-1.022 6,-1 0.224,0.776 0.027,1.973 1,2 -0.986,-4.245 -1.396,-11.501 4,-14 0.111,0.795 3.306,3.031 3,1 -1.257,-0.41 -2.044,-1.29 -2,-3 4.02,1.354 2.646,0.311 2,-3 4.515,-2.782 5.798,3.33 8,-1 -2.688,0.688 -1.933,-2.067 -3,-3 1.884,2.856 4.26,-4.968 7,-1 -2.536,-1.059 -5.7,2.105 -3,3 1.108,-2.521 8.682,-2.479 4,-5 3.438,0.438 5.604,-0.396 8,-1 5.396,-0.841 -3.005,-1.31 -5,-1 -0.613,0.292 -3.85,2.487 -4,0 0.556,0.003 1.135,-0.811 0,-1 -1.74,2.26 -7.34,0.66 -8,4 z m -10,15 c 9.57,3.6 2.22,-4 0,0 z m 14,-4 c 15.482,-15.734 53.817,-13.929 63,2 -0.003,-0.555 0.81,-1.135 1,0 4.232,0.154 0.018,-1.571 -1,-2 -1.131,-3.14 0.287,-2.642 -1,-5 -17.146,-14.439 -67.261,-9.947 -69,13 -0.233,3.083 -0.418,9.342 4,10 -0.08,-7.05 6.17,-13.99 3,-18 z m 61,-12 c -6.4,-1.15 -2.19,3.06 0,0 z m -33,5 c -1.321,-0.012 -0.914,-1.753 -2,-2 -0.016,1.651 -2.773,0.56 -3,2 1.987,1.666 1.271,-0.091 4,0 0,0.56 0.81,1.14 1,0 z m 1,2 c 2.93,-0.07 5.638,-0.362 5,-4 l -3,0 c 0.73,2.73 -1.98,2.02 -2,4 z m 6,1 c 4.076,0.743 3.443,-3.224 8,-2 -0.225,1.891 1.127,2.206 1,4 2.555,-0.445 4.598,-1.402 6,-3 -2.803,-4.607 -8.34,-1.604 -12,-4 0.48,3.14 -2.69,2.64 -3,5 z m -15,-1 c -0.61,-0.057 -1.184,-0.149 -1,-1 1.177,-0.156 2.839,0.172 3,-1 -1.502,-1.595 -4.211,0.028 -5,2 1.72,-0.39 2.57,1.49 3,0 z m -45,6 c 1.455,-2.212 0.674,-6.66 3,-8 -3.32,0.16 -6.25,7.43 -3,8 z m 74,-1 c 1.182,1.151 3.535,1.132 6,1 -0.011,-3.656 -1.976,-5.357 -4,-7 0.79,3.46 -1.11,4.22 -2,6 z m -38,-2 c 2.615,0.282 4.302,-0.365 4,-3 -1.91,0.42 -4.3,0.36 -4,3 z m 6,1 c -3.414,0.253 -4.805,2.528 -9,2 0.611,-0.933 2.327,-3.688 -1,-3 -2.727,2.711 2.587,2.489 2,6 -4.318,2.349 -5.347,7.986 -5,15 2.141,-0.271 10.668,0.774 8,-1 -2.615,0.282 -4.302,-0.365 -4,-3 1.485,-0.029 4.468,4.093 4,0 -0.271,-2.062 -4.428,-0.238 -4,-3 0.606,0.576 4.743,2.341 5,0 -1.721,0.054 -2.563,-0.77 -3,-2 5.105,1.306 3.198,0.812 1,-2 1.352,0.314 1.91,1.424 4,1 2.655,-2.576 -0.137,-4.807 3,-6 -1.602,2.785 4.318,2.766 4,1 -0.933,-1.067 -3.688,-0.312 -3,-3 3.763,2.079 13.208,-4.487 21,1 -1.401,-0.075 -3.824,0.224 -2,1 2.409,0.409 2.174,-1.826 5,-1 1.448,2.885 2.732,5.935 5,8 1.02,-1.313 0.98,-3.687 2,-5 -3.816,0.02 -1.868,-3.413 -4,-5 -7.217,-5.373 -22.418,-1.905 -29,-3 0.556,0.003 1.135,-0.811 0,-1 -0.39,1.43 -1.2,1.69 0,3 z m 38,4 c 5.057,-0.737 -3.566,3.287 1,5 0.279,-2.055 2.671,-1.996 4,-3 -0.116,-2.551 -0.188,-5.146 -3,-5 -0.24,1.43 -1.64,1.69 -2,3 z m -50,3 c -4.683,-0.122 1.088,-1.455 0,-4 -2.638,-0.305 -2.579,2.088 -3,4 1.18,0.15 2.27,1.78 3,0 z m 22,2 c 3.232,1.626 5.232,-0.568 6,-4 -4.24,-0.91 -5.03,1.64 -6,4 z m -5,-2 0,3 2,0 c 1.85,-0.15 0.613,-3.386 2,-4 -1.89,-0.22 -2.2,1.13 -4,1 z m 11,3 c 1.377,-0.043 2.196,0.471 3,1 0.429,-1.904 2.154,-2.513 2,-5 -3.75,-0.75 -4.87,1.13 -5,4 z m -75,5 c -0.577,-2.672 2.958,-6.248 0,-8 -0.22,1.88 -2.58,6.63 0,8 z m 17,0 c 3.427,1.015 2.382,-7.512 1,-8 -1.14,3.71 -0.1,5.8 -1,8 z m 89,-5 c -0.776,0.224 -1.973,0.027 -2,1 1.496,-0.171 3.69,0.357 4,-1 -1.556,-0.261 -0.693,-2.193 0,-3 -1.496,0.171 -3.69,-0.357 -4,1 1.12,0.21 1.56,1.11 2,2 z m -119,0 c -2.506,1.323 -2.428,-4.656 -4,-1 1.33,-0.15 3.02,4.07 4,1 z m 17,6 c -0.823,-2.51 1.944,-8.61 -2,-8 0.66,2.67 0.42,6.25 2,8 z m 6,-7 c -0.079,1.978 -3.027,7.646 1,9 0.409,-2.409 -1.826,-2.174 -1,-5 2.348,-1.458 2.238,-2.488 4,0 -1.15,-2.933 4.797,-3.714 2,-5 -1.4,2.48 -3.44,1.77 -6,1 z m 70,3 c 3.131,0.464 4.464,-0.869 4,-4 l -3,0 c 0.23,1.89 -1.12,2.21 -1,4 z m -73,4 c 0.011,-2.656 -0.378,-5.711 1,-7 l -3,0 c -0.16,3.16 -0.03,6.04 2,7 z m 34,-2 c 1.742,-0.075 3.11,0.224 4,1 -0.509,-2.491 0.033,-6.033 -3,-6 0.32,2.32 -0.16,3.84 -1,5 z m -13,-2 3,0 c 0.129,-1.796 -0.993,-2.34 -3,-2 l 0,2 z m 56,1 c 1.278,0.055 1.385,1.282 3,1 0.054,-1.72 -0.77,-2.563 -2,-3 0,1 -0.81,1.19 -1,2 z m 23,-1 c -6.4,-1.15 -2.19,3.06 0,0 z m -36,4 c 1.871,-0.054 2.117,0.77 1,2 3.439,0.383 6.233,-5.022 9,-2 -3.36,-0.027 -5.29,1.377 -7,3 3.541,1.129 5.691,-4.203 8,-1 -2.483,-0.15 -4.15,0.517 -5,2 3.049,0.049 5.092,-0.908 6,-3 -1.406,-0.261 -1.14,-2.193 -2,-3 -7.91,0.44 -5.17,1.16 -10,2 z m 15,1 c 1.826,0.045 6.399,-2.111 4,-3 -0.27,2.06 -4.43,0.24 -4,3 z m 14,-2 c -1.278,-0.055 -1.385,-1.282 -3,-1 -1.55,2.46 3.4,2.94 3,1 z m 2,1 c 1.772,-0.228 5.008,1.008 4,-2 l -4,0 0,2 z m -12,2 c 1.182,-0.485 2.267,-1.066 3,-2 -1.34,-0.15 -5.51,1.57 -3,2 z m 15,-1 c -1.453,0.547 -5.169,-1.169 -5,1 1.46,-0.54 5.17,1.17 5,-1 z m -118,6 c 2.839,0.427 7.781,-2.113 5,-4 0.28,2.735 -5.976,-1.774 -3,1 3.09,1.01 -2.87,0.95 -2,3 z m 36,0 c 4.876,-0.124 10.731,0.731 13,-2 -5.07,-0.07 -10.24,-0.24 -13,2 z m -20,-235 c -0.012,-1.321 -1.753,-0.914 -2,-2 4.574,-2.066 1.122,-6.52 4,-9 -6.049,-1.48 -10.186,-6.386 -15,1 1.772,0.895 1.274,4.059 5,3 0.08,-3.726 1.499,-3.228 -1,-5 8.593,-1.404 3.435,10.401 3,11 -1.784,-1.718 -8.055,0.562 -7,5 1.824,1.84 5.605,0.53 7,-1 -0.776,-0.224 -1.973,-0.027 -2,-1 2.19,-1.81 9.84,-1.78 8,-2 z m -24,-7 c 2.06,0.877 4.49,-2.593 2,-3 -0.24,1.43 -1.64,1.69 -2,3 z m 14,16 c 0.272,-1.361 -0.619,-3.903 -1,-2 -0.27,1.36 0.62,3.9 1,2 z"
           inkscape:connector-curvature="0" />
        <path
           id="path10496"
           d="m 324.22,44.082 c -2.878,3.873 -2.564,-7.211 -1,-8 4.838,-0.838 7.072,0.928 10,2 0.723,3.056 -1.022,3.644 -1,6 2.638,0.304 2.579,-2.088 3,-4 3.656,0.011 5.357,1.976 7,4 -1.991,5.009 -5.959,8.041 -11,10 -0.044,-2.558 0.743,-1.219 2,-1 -0.167,-2.833 -1.833,-4.167 -2,-7 -4.67,-1.003 -5.59,1.744 -5,6 -0.973,-0.027 -0.776,-1.224 -1,-2 0.169,-2.168 -3.547,-0.453 -5,-1 0.442,-3.775 -1.972,-4.695 -3,-7 -0.807,0.86 -2.739,0.594 -3,2 -2.068,-0.558 1.349,-3.869 4,-3 0.889,2.111 3.045,2.956 3,6 4.188,0.854 5.443,-1.224 7,-3 -2.693,-3.314 -2.009,-4.827 2,-6 -3.73,-4.312 -10.31,2.265 -6,6 z m 13,4 c -0.261,-2.928 2.261,-3.072 2,-6 -4.68,-1.747 -5.36,5.606 -2,6 z"
           inkscape:connector-curvature="0" />
        <path
           id="path10498"
           d="m 316.22,84.082 c -0.437,-1.484 -1.279,0.395 -3,0 l 0,-3 c 3.704,0.516 2.516,1.704 2,-2 3.144,1.354 3.436,0.311 4,-3 -0.973,0.027 -0.776,1.224 -1,2 -3.067,-1.423 3.734,-6.503 -1,-7 1.5,-3.305 2.445,2.078 5,1 -0.516,6.151 -2.207,11.126 -7,13 -0.18,-0.851 0.39,-0.943 1,-1 z"
           inkscape:connector-curvature="0" />
        <path
           id="path10500"
           d="m 295.22,101.08 c -0.605,-0.345 -1.263,0.6 -1,1 -2.68,-4.072 4.98,2.8 1,-1 z"
           inkscape:connector-curvature="0" />
        <path
           id="path10502"
           d="m 238.22,102.08 c 1.031,2.521 -3.689,4.156 -4,7 -0.873,8.004 8.313,9.393 11,16 -0.567,4.1 -4.843,4.491 -6,8 -1.688,-1.431 2.118,-5.824 4,-7 -5.35,-6.57 -17.53,-16.25 -5,-24 z"
           inkscape:connector-curvature="0" />
        <path
           id="path10504"
           d="m 312.22,103.08 c 2.512,-0.483 -2.411,4.584 1,5 -0.294,2.084 -2.706,-1.484 -3,2 -0.044,1.711 0.743,2.59 2,3 -0.235,-2.65 4.099,-2.236 2,2 -4.649,-0.017 -4.883,-4.45 -7,-7 0.7,-2.63 4.56,-2.11 5,-5 z"
           inkscape:connector-curvature="0" />
        <path
           id="path10506"
           d="m 316.22,103.08 c 1.172,0.162 0.844,1.823 1,3 -0.891,-0.615 -1.788,-1.208 -2,0 -2.89,-0.56 1.54,-1.56 1,-3 z"
           inkscape:connector-curvature="0" />
        <path
           id="path10508"
           d="m 323.22,106.08 c -0.314,2.352 -4.74,0.593 -4,4 -3.235,1.235 -0.765,-3.236 -4,-2 0.247,-1.258 1.988,-1.009 2,0 3.15,0.48 2.27,-3.07 6,-2 z"
           inkscape:connector-curvature="0" />
        <path
           id="path10510"
           d="m 306.22,141.08 c 0.838,2.162 2.589,3.411 2,7 -0.973,0.027 -0.776,1.224 -1,2 -6.581,1.248 -8.632,-2.034 -12,-4 -0.099,0.49 0.78,8.51 4,9 -1.5,3.305 -2.445,-2.078 -5,-1 2.247,1.753 3.625,4.375 6,6 -2.581,1.207 -5.581,-5.723 -9,-7 0.15,-2.487 3.387,-0.292 4,0 -9.383,-11.731 12.238,-19.506 17,-9 0.409,2.409 -1.826,2.174 -1,5 -1.49,-3.64 0.43,-6.99 -5,-8 z m -1,1 c -2.656,0.011 -5.711,-0.378 -7,1 0.738,3.929 4.569,4.764 9,5 0.48,-3.14 -1.42,-3.91 -2,-6 z"
           inkscape:connector-curvature="0" />
        <path
           id="path10512"
           d="m 363.22,247.08 c 0.013,-1.987 2.729,-1.271 2,-4 0.306,-2.306 -2.889,-1.111 -3,-3 -1.766,-0.318 -1.785,5.603 1,4 -1.58,4.833 -5.373,-2.142 -5,2 -3.368,-2.299 -4.071,-7.262 -7,-10 3.027,-6.973 9.501,-10.499 20,-10 0.551,4.938 5.104,8.393 3,13 0.354,1.401 1.761,0.086 2,-1 -0.04,3.32 -6.26,9.05 -13,9 z m -5,-9 c 3.891,0.24 13.292,-1.27 10,3 1.758,-0.575 5.875,1.209 6,-1 -1.762,-2.488 -1.652,-1.458 -4,0 0.529,-8.788 -6.111,-0.324 -8,-5 -0.261,-3.261 1.188,-4.812 4,-5 0.96,1.687 3.142,2.947 5,1 0.877,-3.21 -2.594,-2.073 -3,-4 -3.94,3.06 -10.99,3.01 -10,11 z m 14,4 c -2.32,-0.538 -6.894,1.617 -4,3 0.27,-2.06 4.43,-0.24 4,-3 z m -10,-13 c 1.445,-2.645 -4.567,2.113 -7,2 0.15,4.24 4.49,-2.19 7,-2 z"
           inkscape:connector-curvature="0" />
        <path
           id="path10514"
           d="m 268.22,273.08 c 1.342,-0.658 1.862,-2.138 2,-4 3.038,1.232 -1.084,3.438 0,6 1.342,-0.658 1.862,-2.138 2,-4 2.169,-0.169 0.453,3.547 1,5 2.784,0.45 -0.784,-5.451 2,-5 1.261,-2.823 -1.013,5.298 1,7 -3.509,-0.824 -5.655,-3.012 -9,-4 -0.723,-3.056 1.022,-3.645 1,-6 2.93,0.85 -0.6,3.22 0,5 z"
           inkscape:connector-curvature="0" />
        <path
           id="path10516"
           d="m 352.22,255.08 c 2.497,0.691 -1.855,2.667 -1,5 -3.02,-1.22 0.71,-3.81 1,-5 z"
           inkscape:connector-curvature="0" />
        <path
           id="path10518"
           d="m 298.22,261.08 c -2.513,-1.874 1.663,-0.109 3,0 1.219,8.742 2.431,11.599 -2,1 0.19,-0.85 -0.39,-0.94 -1,-1 z"
           inkscape:connector-curvature="0" />
        <path
           id="path10520"
           d="m 299.22,272.08 c -2.26,1.215 -4.621,-6.012 -5,-10 3.02,1.99 1.99,8.02 5,10 z"
           inkscape:connector-curvature="0" />
        <path
           id="path10522"
           d="m 297.22,262.08 c 1.625,2.375 1.942,6.058 3,9 -2.01,-1.99 -3.42,-4.58 -3,-9 z"
           inkscape:connector-curvature="0" />
        <path
           id="path10524"
           d="m 340.22,263.08 c -1.429,0.223 0.929,4.977 0,8 -2.887,-5.608 -4.928,-2.911 -3,-9 4.522,0.478 11.787,-1.787 11,4 -2.111,-0.889 -2.955,-3.045 -6,-3 -0.589,1.726 0.951,3.598 1,8 -2.83,-0.83 -1.19,-6.14 -3,-8 z"
           inkscape:connector-curvature="0" />
        <path
           id="path10526"
           d="m 332.22,269.08 c 1.824,0.776 -0.599,1.075 -2,1 0.027,0.973 1.224,0.776 2,1 0.318,1.766 -5.602,1.785 -4,-1 1.8,0.13 2.11,-1.22 4,-1 z"
           inkscape:connector-curvature="0" />
        <path
           id="path10528"
           d="m 328.22,273.08 c -3.92,4.71 -8.7,0.36 0,0 z"
           inkscape:connector-curvature="0" />
        <path
           id="path10530"
           d="m 358.22,275.08 c -1.37,-3.21 3.28,7.66 0,0 z"
           inkscape:connector-curvature="0" />
        <path
           id="path10532"
           d="m 305.22,295.08 c 1.484,0.437 -0.395,1.279 0,3 -1.973,-0.789 -3.595,-3.497 -2,-5 1.172,0.161 0.844,1.823 1,3 0.85,0.19 0.95,-0.39 1,-1 z"
           inkscape:connector-curvature="0" />
        <path
           id="path10534"
           d="m 255.22,300.08 c -1.484,0.437 0.395,1.28 0,3 -2.685,-1.614 -1.486,-3.166 0,-5 1.23,0.437 2.054,1.279 2,3 -1.16,0.16 -1.78,-0.22 -2,-1 z"
           inkscape:connector-curvature="0" />
        <path
           id="path10536"
           d="m 234.22,313.08 c 0.312,8.153 4.321,21.466 1,28 -5.242,10.313 -28.109,9.439 -40,5 -0.448,-10.626 -3.293,-20.981 0,-29 5.16,-12.57 29.56,-11.76 39,-4 z m -1,13 c -4.155,-1.989 1.236,-6.813 -3,-9 l 2,0 c -0.96,-3.04 -4.017,-3.983 -5,-7 -29.564,-6.917 -33.54,9.163 -32,33 5.088,3.794 15.512,2.599 20,4 0.224,-0.775 0.027,-1.973 1,-2 10.713,3.983 16.907,-11.637 16,-18 4.393,3.073 1.022,-5.479 2,-2 -0.05,0.61 -0.15,1.19 -1,1 z m -3,18 c 0.294,-2.039 2.706,-1.961 3,-4 -1.71,0.07 -5.45,3.06 -3,4 z"
           inkscape:connector-curvature="0" />
        <path
           id="path10538"
           d="m 281.22,309.08 c -0.022,-0.038 -1.003,0.016 -1,0 0.56,-3.34 4.2,5.33 1,0 z"
           inkscape:connector-curvature="0" />
        <path
           id="path10540"
           d="m 179.22,309.08 c 1.581,3.87 1.579,11.343 -1,14 l -6,0 c -0.72,-3.12 -3.87,-16.99 7,-14 z m -4,11 c -1.759,-0.554 2.039,-3.866 2,-6 -3.428,0.178 0.087,-3.378 -4,-4 -1.74,2.55 -0.9,12.52 2,10 z m 2,0 c 2.318,0.871 2.298,-5.088 1,-2 0.08,1.41 -2.9,1.14 -1,2 z"
           inkscape:connector-curvature="0" />
        <path
           id="path10542"
           d="m 192.22,310.08 c -0.606,11.242 0.661,27.537 -3,40 -2.601,-1.816 -3.017,0.433 -6,-1 -3.198,-3.469 -1.655,-11.679 -2,-18 -1.274,-2.48 -1.595,4.311 -5,3 -4.397,-0.371 -5.47,-5.607 -4,-9 3.673,-0.658 6.854,-1.837 9,1 -1.07,-9.76 0.27,-21.23 11,-16 z m -9,1 c 0.028,4.521 -0.036,12.352 0,19 0.032,5.966 -2.544,16.927 4,14 -0.187,-16.07 1.82,-25.051 1,-34 -2.32,-0.32 -3.84,0.16 -5,1 z m -7,21 c 0.63,-1.935 2.161,-5.995 -3,-6 0.02,2.98 -0.09,6.1 3,6 z"
           inkscape:connector-curvature="0" />
        <path
           id="path10544"
           d="m 199.22,340.08 c 2.305,-4.509 -1.198,-9.644 -1,-14 0.042,-0.919 1.956,-2.578 2,-3 0.076,-0.742 -1.507,-1.671 -1,-3 0.065,-0.173 1.649,1.351 2,1 0.97,-0.97 -1.103,-3.824 2,-5 0.321,-0.122 4.948,-0.878 4,-1 0.52,0.066 2.195,1.971 2,2 1.261,-0.191 0.306,-1.744 1,-2 1.968,-0.725 8.202,1.7 11,2 1.395,0.149 2.748,0.291 2,0 15.31,5.96 -3.13,38.5 -24,23 z m 24,-6 c -0.609,0.573 4.069,0.031 3,-3 -0.012,-1.322 -1.753,-0.914 -2,-2 4.608,-1.096 -1.359,-3.43 1,-7 -8.03,-8.129 -26.699,-2.71 -24,12 3.552,3.782 6.852,7.815 15,7 0.25,-4.46 3.6,-1.15 5,-3 -0.779,-0.221 -1.162,-0.838 -1,-2 3.77,2.03 1.74,-0.81 3,-2 z"
           inkscape:connector-curvature="0" />
        <path
           id="path10546"
           d="m 217.22,323.08 c 2.018,5.27 -1.881,7.068 -1,14 -3.012,-0.655 -4.139,-3.195 -7,-4 4.15,-1.88 3.88,-4.68 8,-10 z"
           inkscape:connector-curvature="0" />
        <path
           id="path10548"
           d="m 323.22,333.08 c 1.135,0.189 0.556,1.003 0,1 -0.184,0.851 0.39,0.943 1,1 -1.26,3.08 -3,-1.11 -1,-2 z"
           inkscape:connector-curvature="0" />
        <path
           id="path10550"
           d="m 206.22,329.08 c -1.45,-0.61 0.1,-1.21 0,0 z"
           inkscape:connector-curvature="0" />
        <path
           id="path10552"
           d="m 309.22,92.082 c -2.488,2.646 -5.643,0.167 -5,7 -1.162,-0.163 -1.779,0.221 -2,1 -2.236,-0.431 -0.405,-4.928 -1,-7 3.63,-1.533 5.45,-2.249 8,-0.998 z"
           inkscape:connector-curvature="0" />
        <path
           id="path10554"
           d="m 180.22,337.08 c 0.193,4.86 0.227,9.56 -2,12 -5.2,2.697 -9.614,-0.896 -8,-8 2.155,-3.666 -0.374,5.593 2,5 6.468,-0.195 3.504,-8.905 -2,-8 0.34,-3.26 8.21,-2.29 10,-1 z"
           inkscape:connector-curvature="0" />
      </g>
      <path
         id="path10598"
         d="m 355.3,390.12 c -6.61,1.74 8.1,-2.55 0,0 z"
         inkscape:connector-curvature="0"
         style="clip-rule:evenodd;fill-rule:evenodd" />
    </g>
  </g>
</svg>
