<?xml version="1.0" encoding="UTF-8" standalone="no"?>
<!-- Created with Inkscape (http://www.inkscape.org/) -->

<svg
   xmlns:dc="http://purl.org/dc/elements/1.1/"
   xmlns:cc="http://creativecommons.org/ns#"
   xmlns:rdf="http://www.w3.org/1999/02/22-rdf-syntax-ns#"
   xmlns:svg="http://www.w3.org/2000/svg"
   xmlns="http://www.w3.org/2000/svg"
   xmlns:sodipodi="http://sodipodi.sourceforge.net/DTD/sodipodi-0.dtd"
   xmlns:inkscape="http://www.inkscape.org/namespaces/inkscape"
   width="62mm"
   height="88mm"
   viewBox="0 0 219.68504 311.81102"
   id="svg2"
   version="1.1"
   inkscape:version="0.91 r13725">
  <defs
     id="defs4">
    <inkscape:perspective
       sodipodi:type="inkscape:persp3d"
       inkscape:vp_x="0 : 155.90551 : 1"
       inkscape:vp_y="0 : 1000 : 0"
       inkscape:vp_z="219.68504 : 155.90551 : 1"
       inkscape:persp3d-origin="109.84252 : 103.93701 : 1"
       id="perspective6315" />
    <clipPath
       clipPathUnits="userSpaceOnUse"
       id="clipPath8648">
      <path
         style="fill:#ff0000;fill-opacity:1;fill-rule:evenodd;stroke:none;stroke-width:1px;stroke-linecap:butt;stroke-linejoin:miter;stroke-opacity:1"
         d="m 48.7971,144.54832 -4.54568,-1.2627 -4.04062,0.50508 -4.79822,3.40927 -5.93465,4.29314 -2.0203,2.90419 0.12627,2.65165 2.65165,2.14658 -1.01015,1.76776 -3.283,1.26269 -3.40926,8.08123 6.31345,9.34391 10.35406,-0.75762 46.21448,3.91434 25.50635,-7.19733 9.47018,-5.05077 0.12627,-10.10152 -2.65165,-1.13642 0.88389,-15.15229 10.35406,-6.9448 3.28299,-3.91434 6.566,-7.82868 0.50507,-4.54569 -4.54568,-1.89404 -2.14658,1.01016 -4.16688,1.13642 -5.93464,-2.90419 -2.77792,-1.76777 -5.80838,2.39911 -2.90419,3.03046 -3.40926,4.9245 -7.07107,0.3788 -8.96511,5.80838 -2.90418,2.14657 -3.66181,0.12627 -5.55584,-0.3788 -17.29886,2.65165 z"
         id="path8650"
         inkscape:connector-curvature="0" />
    </clipPath>
    <mask
       maskUnits="userSpaceOnUse"
       id="mask8666">
      <rect
         rx="1.7260212"
         ry="2.8714814"
         y="98.924339"
         x="22.885082"
         height="109.83415"
         width="100.10923"
         id="rect8668"
         style="opacity:1;fill:#ffffff;fill-opacity:1;stroke:none;stroke-width:2.01114893;stroke-linecap:round;stroke-linejoin:bevel;stroke-miterlimit:4;stroke-dasharray:none;stroke-dashoffset:0;stroke-opacity:1" />
    </mask>
    <clipPath
       clipPathUnits="userSpaceOnUse"
       id="clipPath9647">
      <path
         style="fill:#ff0000;fill-opacity:1;fill-rule:evenodd;stroke:none;stroke-width:1px;stroke-linecap:butt;stroke-linejoin:miter;stroke-opacity:1"
         d="m 24.29467,289.85466 12.14286,-9.28572 41.42857,-15.71428 40,-5 20,5 2.85715,7.14285 9.28571,6.42858 10,1.42857 -3.57143,13.57143 -15.71428,10 -27.85715,5.71428 -74.28571,1.42857 z"
         id="path9649"
         inkscape:connector-curvature="0" />
    </clipPath>
  </defs>
  <sodipodi:namedview
     id="base"
     pagecolor="#ffffff"
     bordercolor="#666666"
     borderopacity="1.0"
     inkscape:pageopacity="0.0"
     inkscape:pageshadow="2"
     inkscape:zoom="1.4"
     inkscape:cx="378.16044"
     inkscape:cy="158.20016"
     inkscape:document-units="px"
     inkscape:current-layer="layer1"
     showgrid="false"
     inkscape:window-width="1920"
     inkscape:window-height="1026"
     inkscape:window-x="-2"
     inkscape:window-y="31"
     inkscape:window-maximized="1" />
  <metadata
     id="metadata7">
    <rdf:RDF>
      <cc:Work
         rdf:about="">
        <dc:format>image/svg+xml</dc:format>
        <dc:type
           rdf:resource="http://purl.org/dc/dcmitype/StillImage" />
        <dc:title></dc:title>
      </cc:Work>
    </rdf:RDF>
  </metadata>
  <g
     inkscape:label="Layer 1"
     inkscape:groupmode="layer"
     id="layer1"
     transform="translate(0,-740.55118)">
    <text
       xml:space="preserve"
       style="font-style:normal;font-weight:normal;font-size:22.05662727px;line-height:125%;font-family:Sans;letter-spacing:0px;word-spacing:0px;fill:#000000;fill-opacity:1;stroke:none;stroke-width:1px;stroke-linecap:butt;stroke-linejoin:miter;stroke-opacity:1"
       x="148.71159"
       y="766.04486"
       id="text6305"
       sodipodi:linespacing="125%"><tspan
         sodipodi:role="line"
         id="tspan6307"
         x="148.71159"
         y="766.04486"
         style="font-style:normal;font-variant:normal;font-weight:normal;font-stretch:normal;font-size:15px;font-family:'Ubuntu Condensed';-inkscape-font-specification:'Ubuntu Condensed, '">A C1 C2 D T</tspan></text>
    <text
       xml:space="preserve"
       style="font-style:normal;font-weight:normal;font-size:24.13778114px;line-height:125%;font-family:Sans;letter-spacing:0px;word-spacing:0px;fill:#000000;fill-opacity:1;stroke:none;stroke-width:1px;stroke-linecap:butt;stroke-linejoin:miter;stroke-opacity:1"
       x="47.082771"
       y="1030.0232"
       id="text6309"
       sodipodi:linespacing="125%"><tspan
         sodipodi:role="line"
         id="tspan6311"
         x="47.082771"
         y="1030.0232"
         style="font-style:normal;font-variant:normal;font-weight:500;font-stretch:normal;font-size:22.5px;font-family:Essays1743;-inkscape-font-specification:'Essays1743 Medium'">Bloody Knife</tspan></text>
    <text
       xml:space="preserve"
       style="font-style:normal;font-weight:normal;font-size:19.57834816px;line-height:125%;font-family:Sans;letter-spacing:0px;word-spacing:0px;fill:#000000;fill-opacity:1;stroke:none;stroke-width:1px;stroke-linecap:butt;stroke-linejoin:miter;stroke-opacity:1"
       x="14.324148"
       y="763.8302"
       id="text6317"
       sodipodi:linespacing="125%"><tspan
         sodipodi:role="line"
         id="tspan6319"
         x="14.324148"
         y="763.8302"
         style="font-style:normal;font-variant:normal;font-weight:500;font-stretch:normal;font-family:Orbitron;-inkscape-font-specification:'Orbitron Medium'">O</tspan></text>
    <path
       id="path6557"
       sodipodi:nodetypes="cssscccsscscssccsssscccscssssssssssscssssssscsssssccsssccssscsccssssssssssssssscsssssssscssscssssssssscscsscsssscssssssscsscscssssscssssssssssssscssssssccscsssscssssscscsscsssscsssssscssscsssssccsssscssccccssccscccccsscsssssscssscsccsssssssssssscssscscscssscssscccsscccsscsccscsccssccsssssccssscsscccsccssscssccscccsssssccsssccssssscscssssssssssssscssccscscscssssccsscsssssssssssscsccssccsscccsssssssccscccssssssssssssscsssccsssscssscccccsscccccsccscccscsccc"
       style="fill:#ff0000"
       inkscape:connector-curvature="0"
       d="m 177.99181,775.93974 c -1.0748,0.33901 -2.64777,1.20807 -3.49567,1.93135 -1.39112,1.18671 -1.36685,1.29118 0.24853,1.0709 3.23956,-0.44177 7.17751,-2.38734 6.14047,-3.03348 -0.51653,-0.32182 -1.81847,-0.30784 -2.8932,0.0311 z m 0.14285,17.14718 c -0.26459,0.42467 -3.14429,1.89841 -6.39927,3.27543 -5.70637,2.41322 -8.33411,4.70273 -7.44856,6.48964 0.44968,0.90799 5.71304,-1.38753 6.66577,-2.90722 0.57614,-0.91927 1.32082,-1.40521 12.93886,-8.44783 3.98751,-2.41718 6.67799,-4.55156 6.83903,-5.42565 0.18941,-1.02846 -1.50649,-0.34154 -5.92474,2.40165 -3.40465,2.11335 -6.40668,4.18985 -6.67131,4.61459 z m 7.80464,12.09405 c -3.16437,0.23537 -6.23603,0.79252 -6.82587,1.23837 -3.9803,3.00836 -0.64947,3.6722 7.49527,1.49423 3.97343,-1.06259 11.25774,-2.98339 16.1874,-4.26852 4.92962,-1.28518 9.23897,-2.77936 9.57606,-3.3204 0.3371,-0.54108 -4.17782,0.23393 -10.03329,1.72212 -5.85542,1.48848 -13.23499,2.89875 -16.39957,3.13417 z m 20.88267,6.89506 c -1.09758,0.19784 -2.35657,0.93909 -2.79774,1.64718 -0.5379,0.86336 -1.32384,0.97253 -2.38597,0.33145 -1.52199,-0.91845 -1.55672,-0.88508 -0.89015,0.85649 0.67027,1.75121 0.55392,1.88252 -3.43937,3.88031 -2.27321,1.13738 -5.74688,3.02386 -7.71931,4.19251 -1.97243,1.16852 -5.02144,2.53794 -6.77586,3.04344 -3.32044,0.95636 -6.02869,2.76624 -9.18067,6.13505 -1.01979,1.09 -2.25563,1.98037 -2.74632,1.97861 -1.0593,-0.004 -13.45221,7.71793 -14.12833,8.80311 -0.62022,0.99547 -8.84122,4.84098 -14.29351,6.68617 -2.39295,0.80975 -4.68954,2.01597 -5.10367,2.68065 -1.1545,1.85301 -3.23203,1.98854 -5.81496,0.37927 -1.31354,-0.81838 -2.34538,-1.05404 -2.3472,-0.53629 -0.001,0.50834 0.58228,1.0374 1.29815,1.17562 0.71578,0.13823 1.55573,1.14221 1.86653,2.23105 0.51524,1.80517 0.36211,2.10435 -1.73733,3.39395 -1.26629,0.77793 -2.59337,1.23306 -2.94904,1.01146 -0.35571,-0.2216 -1.02294,0.20101 -1.48284,0.93914 -1.01356,1.62679 -6.75358,3.61584 -8.06931,2.79609 -0.5196,-0.32376 -2.39926,-0.62377 -4.17704,-0.66677 -1.77767,-0.0429 -4.21381,-0.54561 -5.41343,-1.11702 -3.18545,-1.51727 -5.20387,-1.62821 -6.01894,-0.33077 -0.84501,1.34532 -5.04789,1.39947 -11.7712,0.15235 -2.65548,-0.49268 -6.506366,-1.03954 -8.557291,-1.2152 -2.051047,-0.17569 -5.498308,-0.89713 -7.660449,-1.60309 -3.742668,-1.22216 -11.374628,-1.4325 -14.238548,-0.39241 -0.734752,0.26675 -2.711066,-0.16593 -4.391925,-0.96172 -2.91129,-1.37835 -3.014896,-1.56263 -2.188366,-3.89171 0.477168,-1.34468 1.66159,-3.25822 2.632238,-4.25243 1.328798,-1.36111 1.552531,-2.08789 0.906002,-2.94328 -1.059828,-1.40228 -4.854935,-0.82477 -5.931129,0.90257 -0.43389,0.69641 -2.007428,1.93696 -3.496652,2.75664 -1.48929,0.81982 -3.727811,2.66604 -4.974462,4.10269 l -2.266516,2.61206 3.021793,1.36346 c 4.105999,1.85262 3.166184,2.91222 -2.453506,2.76647 -6.035419,-0.15653 -19.288172,-2.0468 -20.753852,-2.95998 -1.410711,-0.87894 -4.193627,-0.10685 -3.640457,1.00975 0.214911,0.43301 4.95584,1.42758 10.536103,2.21001 12.324771,1.72801 14.698195,2.31013 14.6937,3.60388 -0.0033,0.91693 -6.559079,2.41602 -7.735171,1.76907 -0.844723,-0.46481 -1.935978,1.73916 -1.114522,2.25096 0.401921,0.25042 3.118039,-0.0862 6.035738,-0.74782 8.815783,-1.99958 14.399931,-1.38063 11.527837,1.27773 -1.22057,1.12962 -1.203679,1.20323 0.12702,0.55425 0.843983,-0.4116 2.859727,-0.53259 4.479441,-0.26885 1.619699,0.26374 3.562477,-0.0473 4.317288,-0.69121 1.533315,-1.30804 2.931834,-0.79097 3.408206,1.26008 0.477889,2.05759 -1.001237,3.84878 -3.464726,4.19548 -1.213722,0.17092 -3.911004,1.21051 -5.993934,2.31017 -2.082953,1.09967 -4.05888,2.04802 -4.391022,2.10775 -1.314561,0.2355 -7.653396,2.88992 -7.918786,3.31587 -0.688926,1.10578 1.695718,0.57135 7.873311,-1.76462 3.655349,-1.38213 7.591953,-2.73263 8.747483,-3.00098 2.786146,-0.64712 6.351579,0.52047 6.345867,2.07809 -0.0072,2.11327 4.851289,1.34906 7.575297,-1.19117 1.340395,-1.25015 2.438259,-2.58936 2.439676,-2.97611 0.0014,-0.38667 1.276864,-1.1545 2.834371,-1.70625 2.052357,-0.7271 3.137845,-0.64449 3.943643,0.30006 1.093592,1.28195 1.046226,1.3636 -2.88901,4.97936 -2.200443,2.02179 -4.857116,4.17076 -5.903623,4.77534 -1.733687,1.00181 -1.746671,1.07872 -0.145368,0.86519 0.966724,-0.12897 1.937844,-0.5236 2.158108,-0.87712 0.624154,-1.00179 8.845617,-3.04583 9.816881,-2.44069 0.627711,0.3911 -0.124056,1.2951 -2.718571,3.26959 -1.972349,1.50089 -3.525056,2.99128 -3.450724,3.31224 0.07461,0.32076 1.018414,-0.1258 2.097569,-0.99251 1.079141,-0.86663 2.916012,-2.07114 4.081891,-2.67674 1.165737,-0.60581 3.921017,-2.04312 6.122437,-3.19444 2.20146,-1.15134 4.3979,-1.85321 4.88121,-1.56008 0.54992,0.3341 1.50885,-0.47833 2.56429,-2.17235 0.9681,-1.55385 2.36182,-2.79796 3.2738,-2.92244 1.3083,-0.17839 1.45432,-10e-4 0.82933,1.00105 -0.60166,0.96566 -0.45136,1.17569 0.72632,1.01508 1.96998,-0.26862 1.61621,1.51346 -0.64868,3.26797 -1.79673,1.39177 -1.93735,3.76052 -0.2844,4.79038 0.75721,0.47178 -0.10541,2.34988 -4.06462,8.84945 -2.76418,4.53775 -5.36997,9.34367 -5.79082,10.67999 -0.42069,1.33616 1.9439,-2.17359 5.25486,-7.79961 3.31087,-5.62576 6.68959,-10.87534 7.50809,-11.66529 1.46041,-1.4096 1.48137,-1.37959 1.11714,1.59847 l -0.37117,3.03507 1.87622,-2.46355 c 2.05561,-2.69905 2.18234,-2.71776 3.45299,-0.50986 0.58253,1.01222 1.15933,1.3716 1.7398,1.08397 0.47781,-0.23619 0.37875,-0.73531 -0.21949,-1.10803 -1.42257,-0.88631 -0.75826,-1.84086 3.71097,-5.33233 4.4069,-3.44276 7.15358,-4.36582 9.19791,-3.09212 1.83789,1.14508 2.33316,5.92665 1.10713,10.69099 -0.69912,2.71696 -0.64133,3.10946 0.26181,1.77962 0.63728,-0.93837 1.5138,-2.95079 1.94772,-4.47195 0.83854,-2.93947 5.0611,-8.5907 5.9876,-8.01345 0.30347,0.18903 0.35298,0.9828 0.11003,1.76373 -0.42074,1.35237 -0.40167,1.36424 0.40005,0.24925 0.98119,-1.36457 1.82814,-1.0353 2.27391,0.88401 0.24545,1.05703 0.52203,1.02728 1.24646,-0.1349 2.39281,-3.84054 4.45286,0.67291 2.83495,6.21072 -0.5725,1.95946 -1.30029,3.62292 -1.61738,3.69661 -0.3171,0.0736 -0.39633,1.05691 -0.17605,2.18507 0.22025,1.12808 -0.40236,4.22695 -1.38382,6.88653 -0.98137,2.6594 -1.55189,4.78125 -1.26803,4.71546 0.284,-0.0661 2.16606,-4.53781 4.18229,-9.9373 l 3.6659,-9.81744 3.63709,-2.48704 c 2.00034,-1.36778 3.9398,-2.5163 4.30976,-2.55199 2.33788,-0.22644 7.06076,-3.72006 8.79746,-6.50757 1.08672,-1.7442 2.38087,-3.37193 2.87597,-3.61732 1.78958,-0.88667 3.57183,1.23377 3.35137,3.98726 -0.25585,3.19361 -0.0904,3.50034 0.98407,1.82387 0.42704,-0.66624 0.39277,-3.29326 -0.0762,-5.83764 -0.46882,-2.54447 -0.65262,-5.05627 -0.40832,-5.58198 1.45317,-3.12711 2.52676,-5.14155 4.83059,-9.06403 2.42735,-4.13276 2.79444,-4.43184 6.23512,-5.08106 3.30607,-0.62394 3.58266,-0.83255 2.88872,-2.17911 -0.42202,-0.81898 -0.27649,-2.277 0.32355,-3.24006 0.60002,-0.96308 1.27254,-1.38454 1.49445,-0.93663 0.63692,1.28562 4.98435,-0.26854 7.05188,-2.52115 2.51846,-2.74365 4.27172,-7.44235 3.51719,-9.42602 -0.56779,-1.49294 -0.52268,-1.55598 0.62294,-0.87075 0.67929,0.40616 1.42449,0.43446 1.65609,0.0627 0.23157,-0.37176 -0.16253,-0.78865 -0.87585,-0.92638 -1.76898,-0.34166 -0.89608,-1.48889 2.39676,-3.15007 1.51345,-0.76412 2.75345,-1.74535 2.75505,-2.18158 10e-4,-0.43622 0.66795,-0.37874 1.48082,0.12767 0.81285,0.50644 1.47952,0.48594 1.48143,-0.0457 0.001,-0.53158 0.28583,-0.79058 0.63103,-0.57552 0.34513,0.215 0.73137,2.08511 0.8583,4.15573 0.2665,4.34766 0.83618,4.19071 0.88411,-0.24355 0.0321,-2.96917 0.0729,-3.03297 2.87621,-4.49446 6.06657,-3.1628 4.21041,-12.05195 -2.27269,-10.88306 z m -10.05189,0.85221 c -0.80751,0.013 -1.15414,0.21991 -0.77036,0.45903 0.38378,0.23909 1.35848,0.42377 2.16593,0.41046 0.80747,-0.013 1.15414,-0.21992 0.77033,-0.45902 -0.38379,-0.23912 -1.35842,-0.4239 -2.1659,-0.41044 z m -47.70805,-27.06022 c -2.85241,1.03116 -4.69827,2.15896 -4.1113,2.51204 0.30441,0.18286 1.94503,-0.32039 3.64602,-1.11872 3.18782,-1.49607 3.52262,-2.49862 0.46524,-1.39331 z m -51.27317,-26.2926 c 0.55034,1.682 1.41425,3.79361 1.91955,4.69241 0.91121,1.62035 0.91566,1.61412 0.51569,-0.72898 -0.34908,-2.04523 -2.14909,-5.94533 -3.11766,-6.75526 -0.17513,-0.14654 0.13186,1.10987 0.68223,2.79189 z m 54.23412,48.47957 c -1.80048,0.87614 -5.48589,2.82265 -8.18958,4.32551 -7.27337,4.04305 -16.13581,7.75846 -22.13787,9.28045 -6.03116,1.52956 -19.14708,2.90944 -19.89507,2.09311 -0.27303,-0.29798 -1.23025,-0.11943 -2.1273,0.39689 -0.89709,0.5162 -1.80873,0.57992 -2.02597,0.1414 -0.2176,-0.43827 -1.10075,-0.11596 -1.96332,0.71659 -1.16086,1.12054 -1.83001,1.20694 -2.5758,0.33273 -0.55418,-0.64959 -1.38438,-0.99437 -1.84498,-0.76613 -0.50987,0.2526 -1.50691,-0.32666 -2.54903,-1.48116 -0.9414,-1.04282 -1.82714,-1.78055 -1.96842,-1.63935 -1.07356,1.07317 -2.372545,3.54827 -2.376044,4.52723 -0.0029,0.65287 -0.313363,1.33995 -0.690505,1.52703 -1.209587,0.59934 1.988279,2.35646 3.605119,1.98091 0.857,-0.19902 1.67932,-0.55637 1.82741,-0.79411 0.36195,-0.58093 6.06367,-1.50339 6.77825,-1.09646 0.73003,0.41529 2.98776,0.11003 6.89709,-0.93287 1.7171,-0.45803 5.58873,-0.94431 8.60402,-1.08057 5.99547,-0.27072 10.34778,-1.26837 17.30348,-3.96594 l 4.54306,-1.76194 0.2997,2.7302 c 0.33404,3.04331 0.8633,2.65578 1.7512,-1.28214 0.53948,-2.39298 1.30926,-3.05357 8.32304,-7.14298 4.2506,-2.47824 8.61963,-4.88565 9.70901,-5.34957 1.9828,-0.8444 2.95484,-1.74258 2.31633,-2.14039 -0.18709,-0.11654 -1.81327,0.50488 -3.61374,1.38098 z m 9.65827,14.85165 c -1.81188,0.99355 -3.12442,2.14934 -2.91665,2.56833 0.34086,0.68885 7.83993,-2.997 8.60892,-4.23124 0.63127,-1.01323 -2.45738,-0.11104 -5.69188,1.66273 z M 111.2351,789.21175 c 0.9322,2.43193 2.07695,3.12554 1.79935,1.09041 -0.11914,-0.87334 -0.73384,-1.89635 -1.36606,-2.2733 -0.96585,-0.57569 -1.03502,-0.38669 -0.43336,1.18302 z m 5.20187,8.9437 c -2.17294,0.97715 -4.22018,1.42025 -4.5493,0.98481 -1.4579,-1.92895 -8.03909,2.3014 -8.71833,5.60429 -0.50434,2.45136 0.83638,3.28496 3.94765,2.45444 3.50859,-0.93658 6.36134,-3.28525 6.49735,-5.34915 0.0862,-1.30782 0.99304,-2.05266 3.97992,-3.26893 2.12762,-0.86632 3.62656,-1.71619 3.33107,-1.88859 -0.29561,-0.17222 -2.3152,0.48598 -4.4882,1.46303 l 9e-5,-1.2e-4 z m 11.03981,38.63678 c 0.18874,0.81271 0.48802,1.0564 0.7605,0.61914 0.2471,-0.39659 0.3704,-1.0608 0.2738,-1.47609 -0.0964,-0.41527 -0.43873,-0.69382 -0.7605,-0.61913 -0.32183,0.0748 -0.44507,0.73899 -0.27382,1.47611 z m -7.91861,-5.66192 c -0.11104,0.17847 0.29109,1.10692 0.89384,2.06341 1.05249,1.66993 1.06909,1.6624 0.41766,-0.19002 -0.71306,-2.02766 -0.97887,-2.40732 -1.31154,-1.87333 z M 74.911191,816.78802 c -1.082509,0.81818 -0.821486,2.99657 0.454481,3.79152 0.982455,0.61211 2.461582,-0.38519 2.800103,-1.88791 0.322748,-1.43171 -2.045922,-2.8171 -3.254627,-1.90358 z M 61.516393,810.0963 c -0.0014,0.50354 0.408646,0.917 0.912156,0.91879 0.50354,10e-4 0.916958,-0.40863 0.918779,-0.91216 0.0014,-0.50349 -0.408632,-0.91697 -0.912128,-0.91878 -0.503539,-0.001 -0.916986,0.40864 -0.918807,0.91215 z m 60.166327,37.83089 c -0.45887,0.73651 0.68751,1.88027 1.48731,1.48397 0.48427,-0.23949 0.39068,-0.74105 -0.20771,-1.11389 -0.59833,-0.37278 -1.17415,-0.53931 -1.27961,-0.37002 z m -5.82525,-3.08788 c -0.23911,0.3838 -0.30348,0.77962 -0.14286,0.87964 0.16057,0.10006 0.62994,0.62919 1.0432,1.176 0.44783,0.59249 1.02242,0.55914 1.42223,-0.0826 0.36896,-0.59221 0.0951,-1.43539 -0.60844,-1.87374 -0.70359,-0.43839 -1.47493,-0.48311 -1.71406,-0.0993 z m -13.92769,-0.68613 c -0.41542,0.93991 -0.2842,2.0024 0.29146,2.36107 0.5757,0.35868 1.58723,0.009 2.24786,-0.77896 0.92449,-1.10143 0.85732,-1.64534 -0.29148,-2.36109 -1.14881,-0.71574 -1.66662,-0.5363 -2.24784,0.77898 z m 9.50104,8.17987 c 0.25064,1.07928 2.25487,0.83281 2.25889,-0.27781 0.003,-0.66013 -0.39547,-0.89121 -1.20877,-0.70235 -0.66681,0.15486 -1.13947,0.59566 -1.05012,0.98013 z M 84.315868,836.38434 c -0.372789,0.59834 -0.243442,1.08931 0.288682,1.09137 0.53157,10e-4 1.15057,-0.29197 1.37556,-0.65319 0.22495,-0.36115 0.095,-0.85228 -0.2887,-1.09139 -0.38378,-0.23909 -1.002797,0.0548 -1.375542,0.65321 z m -19.138095,-6.59622 c -0.224949,0.36114 0.06188,0.95006 0.637557,1.30878 1.079039,0.67229 1.899253,0.0403 1.603066,-1.23511 -0.210157,-0.90484 -1.692508,-0.95348 -2.240681,-0.0736 z m 102.047857,66.59504 c -0.82816,1.89977 -0.19335,2.96337 1.76083,2.95011 1.89826,-0.013 2.1958,-2.58859 0.42634,-3.69104 -1.10791,-0.69027 -1.6422,-0.50923 -2.18717,0.74093 z M 97.90719,854.99643 c -1.02543,1.64581 0.22632,3.74838 1.98791,3.33921 1.76164,-0.40914 1.95854,-2.84813 0.31272,-3.87355 -0.95956,-0.59786 -1.70275,-0.42531 -2.30063,0.53434 z M 63.604144,832.86734 c -0.641591,0.2662 -1.731373,1.40495 -2.421719,2.53049 -0.988215,1.61076 -0.930099,2.39582 0.271925,3.68758 0.839892,0.90261 1.952389,1.63061 2.472209,1.61779 1.531669,-0.0377 4.517047,-3.69671 4.184439,-5.1286 -0.400319,-1.72362 -3.046437,-3.31299 -4.506854,-2.7071 z m 24.950036,16.51351 c -1.36749,1.10132 -1.38912,2.76705 -0.0467,3.60339 1.31201,0.81742 3.47842,-0.29662 3.48397,-1.79125 0.004,-1.30195 -2.45813,-2.60021 -3.43708,-1.81185 z m -6.083982,-0.69955 c -0.105404,0.16925 0.0014,0.69741 0.237398,1.17373 0.235547,0.47653 0.636314,0.53341 0.889486,0.12709 0.253215,-0.40642 0.146437,-0.93461 -0.237369,-1.17373 -0.383792,-0.2391 -0.784096,-0.29622 -0.889515,-0.12709 z m -12.326392,-5.82535 c -2.484397,0.18466 -2.939572,2.66759 -0.740228,4.03789 1.943309,1.21077 4.071024,0.013 3.779175,-2.12725 -0.247388,-1.81411 -0.679805,-2.08599 -3.039106,-1.91069 l -1.4e-5,5e-5 z m -12.587067,-1.50743 c -0.426306,0.21147 -0.418315,0.8565 0.0181,1.43387 0.481957,0.63767 1.04422,0.64718 1.431874,0.025 0.703187,-1.12863 -0.22726,-2.06469 -1.45,-1.45884 z m -12.774025,-1.68869 c -1.355918,0.21678 -2.707165,0.7823 -3.002792,1.25679 -0.29562,0.47449 -1.017358,0.75835 -1.603859,0.63075 -0.586603,-0.12695 -0.981597,0.19484 -0.878033,0.71647 0.103539,0.52163 0.622992,0.73741 1.154263,0.47951 0.530963,-0.25851 1.631844,-0.21341 2.445725,0.0989 0.813875,0.31231 2.218721,0.15634 3.121866,-0.34649 0.903185,-0.50277 2.042704,-0.94285 2.532296,-0.97783 1.295805,-0.0925 1.101521,-2.24344 -0.203045,-2.24816 -0.605606,-0.003 -2.210493,0.17339 -3.566428,0.39011 z m 88.716726,55.09908 c -0.12406,0.6954 0.1443,0.63309 0.68423,-0.15895 0.48859,-0.71667 0.58046,-1.23156 0.20419,-1.14416 -0.37636,0.0873 -0.77612,0.67379 -0.88839,1.30311 z m -5.63072,-0.78382 c -0.23911,0.38379 -0.10222,0.90501 0.30425,1.15823 0.40644,0.25323 0.74051,0.0254 0.74244,-0.50615 0.001,-0.53156 -0.13505,-1.05275 -0.30423,-1.1582 -0.16921,-0.10555 -0.50338,0.12232 -0.74251,0.50601 z m -20.43415,-2.05762 c -0.7211,0.16747 -1.02135,0.64551 -0.85496,1.3613 0.3889,1.67443 4.93784,2.75655 6.1394,1.46046 0.89306,-0.96339 0.6744,-1.25633 -1.56754,-2.09964 -1.433,-0.53906 -3.1055,-0.86394 -3.71671,-0.72205 l -1.9e-4,-1.2e-4 z m -5.00008,0.90268 c -1.58307,2.54086 -1.2211,2.63854 1.14294,0.30854 0.98301,-0.96892 1.36696,-1.81217 0.94482,-2.07518 -0.39108,-0.24365 -1.3306,0.55129 -2.08778,1.76669 z m 19.82793,11.7078 c -0.23911,0.38378 -0.18594,0.9981 0.11812,1.36516 0.30411,0.36704 0.87895,0.14401 1.27746,-0.49568 0.39854,-0.63966 0.34539,-1.25398 -0.11813,-1.36515 -0.46337,-0.11177 -1.03836,0.11176 -1.27753,0.49557 z m -8.77579,3.49263 c -0.64381,1.66543 2.03852,4.21121 2.92975,2.78069 0.83158,-1.33473 0.50917,-2.33323 -1.07126,-3.31793 -0.89057,-0.55485 -1.50503,-0.37728 -1.85849,0.53724 z M 24.845019,852.55114 c -0.358657,0.57569 -0.33813,1.24235 0.04565,1.48147 0.383799,0.23911 0.991255,-0.0363 1.349923,-0.61199 0.358678,-0.57568 0.33814,-1.24234 -0.04565,-1.48146 -0.383786,-0.23911 -0.991256,0.0363 -1.349923,0.61198 z m 109.064631,73.70651 c -0.10541,0.16924 0.001,0.69743 0.2374,1.17374 0.23554,0.47653 0.63631,0.5334 0.8895,0.12695 0.25323,-0.40642 0.14643,-0.93455 -0.23739,-1.1737 -0.38379,-0.2391 -0.78405,-0.29635 -0.8895,-0.12709 z M 12.274508,850.9584 c -0.590074,0.94709 0.25353,2.3365 1.149162,1.89272 0.837337,-0.41518 0.749992,-1.62095 -0.158589,-2.18704 -0.319847,-0.1992 -0.765585,-0.0668 -0.99059,0.29434 z m 55.242468,43.54681 c -0.256353,0.4451 0.650787,0.0385 2.016007,-0.90371 1.365264,-0.94203 2.692068,-2.07692 2.948508,-2.52199 0.256353,-0.4451 -0.650787,-0.0385 -2.016022,0.90371 -1.365221,0.94208 -2.692024,2.07697 -2.948464,2.52202 z M 3.967538,848.74603 c -0.239116,0.38378 0.03628,0.99126 0.611989,1.34992 0.575678,0.35867 1.242357,0.33811 1.481469,-0.0457 0.239117,-0.38377 -0.03629,-0.99126 -0.611988,-1.34989 -0.575674,-0.35868 -1.242365,-0.3381 -1.48147,0.0457 z m 6.91721,7.94219 c -0.489077,0.40549 -0.232782,1.06576 0.619872,1.59702 0.857115,0.53402 1.734429,0.4552 2.137712,-0.1921 0.799037,-1.28249 -1.495332,-2.45139 -2.757584,-1.40492 z m 105.050172,68.10102 c -0.95915,1.53945 0.7326,3.6577 2.57867,3.22882 1.90353,-0.44212 1.9017,-3.01647 -0.003,-3.85817 -1.12045,-0.49518 -2.01085,-0.27768 -2.57591,0.62926 z m -11.56528,-8.64536 c -0.2391,0.38378 0.0363,0.99126 0.61198,1.34989 0.5757,0.35868 1.24237,0.33811 1.48147,-0.0457 0.23912,-0.38378 -0.0363,-0.99125 -0.61198,-1.34993 -0.57569,-0.35865 -1.24232,-0.3381 -1.48142,0.0457 z m -15.39637,-7.41307 c -0.10526,0.60037 0.29769,0.30653 0.89542,-0.65295 0.59778,-0.95944 0.68397,-1.45066 0.19141,-1.09152 -0.49248,0.35915 -0.98159,1.14414 -1.08689,1.74447 z M 5.065898,855.09264 c -0.574148,0.47595 -0.395297,0.93645 0.49623,1.27789 0.766635,0.29366 1.79782,0.19892 2.291507,-0.21032 0.574124,-0.47598 0.395255,-0.93645 -0.496382,-1.27786 -0.766639,-0.2935 -1.797791,-0.19892 -2.291457,0.21033 z m 108.056842,70.3222 c -0.22493,0.36113 -0.21595,1.04634 0.02,1.52264 0.23553,0.47653 0.73411,0.37647 1.1069,-0.22187 0.37279,-0.59834 0.36381,-1.28351 -0.0199,-1.52263 -0.3838,-0.23912 -0.8819,-0.13924 -1.10691,0.22186 z m 4.4364,7.26105 c 0.25066,1.07928 2.25491,0.83282 2.25893,-0.27781 0.003,-0.66013 -0.39548,-0.89124 -1.20879,-0.70236 -0.66681,0.15486 -1.13946,0.59565 -1.05011,0.98014 z m -1.56906,9.1258 c -0.35541,0.57044 -0.001,1.57767 0.78496,2.23831 1.39221,1.16853 2.88069,0.23259 2.46647,-1.55087 -0.30646,-1.31944 -2.56069,-1.79609 -3.25141,-0.68744 z M 65.762425,913.49353 c -0.521959,0.25876 -0.763622,1.2694 -0.536664,2.24624 0.332088,1.42978 0.720131,1.73407 1.990575,1.56078 0.867971,-0.11842 1.68538,-0.77036 1.816405,-1.44892 0.280904,-1.45483 -1.907958,-3.03315 -3.270417,-2.35816 z m -7.950423,-0.26217 c -1.157565,0.009 -1.357828,0.29549 -1.169205,1.67838 0.261328,1.91614 0.584244,2.19661 2.513474,2.18314 1.157599,-0.009 1.357825,-0.29548 1.169202,-1.67837 -0.261301,-1.91614 -0.584209,-2.19657 -2.513471,-2.18315 z m -19.761558,-7.84394 c -0.6252,0.47251 -0.682666,0.82554 -0.134842,0.8275 0.525475,10e-4 1.139505,-0.29202 1.364498,-0.65323 0.62537,-1.00374 -0.01258,-1.09418 -1.229656,-0.17427 z m 89.974986,59.87007 c -2.1728,0.72215 -2.30233,2.93679 -0.24665,4.21755 1.38529,0.86308 1.98522,0.74923 2.78078,-0.52768 1.67055,-2.68125 0.32506,-4.64014 -2.53404,-3.6899 z M 12.218785,916.60793 c -6.009991,3.06665 -8.471574,4.65071 -7.838114,5.0454 0.20489,0.12767 1.349066,-0.35811 2.542887,-1.07955 1.193713,-0.72128 4.322671,-2.47706 6.953038,-3.90153 6.650414,-3.60145 5.372182,-3.65095 -1.657916,-0.0643 z M 58.3582,955.78438 c -0.239111,0.38378 -0.185945,0.99813 0.118113,1.36517 0.304112,0.36703 0.878967,0.144 1.277454,-0.49569 0.398522,-0.63966 0.345385,-1.25393 -0.118113,-1.36515 -0.463343,-0.11177 -1.038357,0.11191 -1.277454,0.49567 z m 26.65196,19.46881 c -2.17112,0.72163 -1.808076,2.30625 0.91741,4.00435 2.62738,1.63696 2.83672,1.56095 3.01162,-1.09331 0.14025,-2.12809 -1.84994,-3.60195 -3.929,-2.911 z" />
    <path
       style="fill:#ffffff;fill-rule:evenodd;stroke:none;stroke-width:1px;stroke-linecap:butt;stroke-linejoin:miter;stroke-opacity:1;fill-opacity:1"
       d="M 21.428571,930.21936 39.285714,913.79079 51.428571,904.50507 75.714286,901.64793 90,895.93364 l 5,-14.28571 10,-9.28572 17.14286,-7.85714 6.42857,-2.85714 0.71428,-7.14286 -6.42857,-8.57143 -3.57143,-1.42857 L 80,860.93364 39.285714,883.0765 l -20.714285,12.85714 -6.428572,7.14286 -0.714286,10 0,8.57143 z"
       id="path19724"
       inkscape:connector-curvature="0" />
    <g
       transform="matrix(0.61001869,0,0,0.61001869,-148.92593,483.12104)"
       id="layer1-3">
      <path
         d="m 282.89,736.01 c -0.75,-0.1 -1.76,-0.08 -2.25,0.04 -4.45,1.1 -11.46,-5.17 -14.94,-13.36 -2.26,-5.31 -3.4,-17.04 -2.58,-26.54 0.66,-7.7 1.12,-8.57 8.63,-16.31 1.35,-1.4 2.96,-3.25 3.56,-4.12 0.61,-0.87 1.37,-1.72 1.69,-1.87 0.32,-0.16 1.46,-1.21 2.54,-2.34 1.08,-1.13 3.88,-3.12 6.24,-4.42 2.35,-1.31 5.38,-3.13 6.74,-4.04 1.35,-0.92 4.41,-2.69 6.79,-3.92 2.38,-1.23 4.51,-2.49 4.73,-2.78 0.22,-0.3 2.42,-1.46 4.89,-2.58 4.17,-1.89 6.5,-3.11 11.6,-6.05 1.09,-0.63 3.53,-1.97 5.43,-2.97 4.4,-2.31 5.44,-2.91 10.15,-5.82 4.09,-2.53 10.76,-6.38 15.05,-8.69 1.42,-0.77 3.96,-2.25 5.65,-3.29 2.81,-1.75 10.41,-5.4 24.27,-11.65 2.92,-1.32 8.75,-3.99 12.96,-5.94 22.4,-10.37 31.09,-14.09 41.56,-17.81 4.93,-1.75 5.65,-1.84 8.47,-1 3.28,0.98 4.56,0.68 8.74,-2.03 1.46,-0.95 4.15,-2.68 5.98,-3.85 1.83,-1.16 8.95,-4.55 15.81,-7.53 6.86,-2.97 17.27,-7.53 23.14,-10.13 13.14,-5.83 18.82,-8.17 25.15,-10.34 2.69,-0.93 6.44,-2.55 8.32,-3.6 2.3,-1.28 4.51,-2.04 6.75,-2.32 1.83,-0.23 5.23,-0.74 7.57,-1.14 4.08,-0.7 20.04,0.14 23.06,1.22 1.74,0.62 3.6,0.89 8.53,1.22 4.35,0.3 5.14,1.33 3.38,4.43 -1.04,1.84 -1.99,2.45 -8.21,5.24 -4.52,2.03 -8.49,4.27 -11.14,6.28 -2.26,1.72 -6.23,4.15 -8.83,5.42 -2.6,1.26 -5.13,2.77 -5.62,3.36 -0.49,0.59 -1.37,1.2 -1.97,1.35 -1.43,0.36 -7.83,3.82 -14.44,7.81 -2.93,1.77 -8.34,4.59 -12.02,6.25 -3.67,1.67 -6.88,3.31 -7.12,3.63 -0.24,0.33 -3.84,2.42 -8.01,4.65 -7.4,3.94 -10.94,5.91 -14.37,7.98 -0.92,0.56 -4.41,2.42 -7.75,4.13 -9.42,4.83 -19.14,11.36 -18.66,12.54 0.08,0.19 -0.47,1.97 -1.22,3.95 -1.28,3.36 -1.49,3.59 -3.26,3.52 -1.03,-0.04 -2.46,-0.45 -3.16,-0.9 -2.3,-1.48 -8.41,-1.32 -14.71,0.38 -10.88,2.95 -18.87,6.77 -26.91,12.87 -1.61,1.22 -3.21,2.42 -3.56,2.66 -0.34,0.24 -1.49,2.04 -2.57,3.99 -1.07,1.95 -2.19,3.97 -2.5,4.49 -0.3,0.51 -1,1.9 -1.54,3.08 -1.46,3.18 -4.12,6.75 -7.75,10.4 -1.77,1.78 -3.52,3.67 -3.89,4.18 -0.88,1.25 -0.97,1.34 -6.08,5.61 -4.15,3.48 -4.92,3.88 -12.65,6.71 -5.14,1.87 -9.51,3.09 -11.63,3.25 -1.87,0.14 -5.9,0.66 -8.97,1.15 -3.07,0.5 -8.1,1.31 -11.19,1.81 -5.92,0.95 -14.53,3.97 -20.78,7.28 -6.26,3.31 -13.34,9.63 -19.99,17.82 -0.38,0.48 -1.26,1.41 -1.95,2.07 -1.49,1.44 -2.71,3.16 -3.54,4.98 -0.89,1.98 -7.18,9.19 -8.47,9.72 -0.61,0.25 -1.26,0.81 -1.45,1.25 -0.21,0.49 -0.85,0.73 -1.7,0.62 z m 1.11,-9 c 2.26,-3.54 8.09,-10.8 10.67,-13.29 1.37,-1.33 2.69,-2.74 2.92,-3.12 0.4,-0.67 2.12,-1.98 12,-9.15 2.99,-2.18 7.74,-4.8 13.7,-7.55 8.63,-3.99 9.34,-4.23 13.27,-4.32 2.29,-0.05 5.89,-0.67 8,-1.38 2.12,-0.7 4.21,-1.22 4.66,-1.14 1.05,0.17 8.13,-0.91 11.8,-1.82 1.57,-0.38 6.09,-2.03 10.04,-3.66 l 7.18,-2.96 5.47,-6.31 c 9.99,-11.52 14.43,-17.08 15.62,-19.55 0.4,-0.83 1.13,-1.68 1.63,-1.88 0.5,-0.21 2.68,-2.84 4.84,-5.85 2.16,-3.01 4.27,-5.48 4.68,-5.5 0.42,-0.01 1.14,-0.48 1.61,-1.03 1.67,-1.94 3.33,-2.77 16.24,-8.02 8.36,-3.4 13.9,-5.36 15.46,-5.47 1.81,-0.13 2.56,-0.43 2.97,-1.18 0.32,-0.61 0.71,-0.82 0.98,-0.52 0.75,0.84 3.41,-2.36 3.51,-4.21 0.13,-2.63 -1.87,-15.51 -2.75,-17.66 -2.04,-4.99 -6.13,-8.72 -8.51,-7.75 -0.64,0.26 -0.6,0.56 0.18,1.2 0.57,0.48 1.69,2.3 2.5,4.06 0.8,1.75 1.92,3.53 2.48,3.94 1.16,0.86 2.09,7.08 1.87,12.47 -0.15,3.66 -2.21,6.41 -4.31,5.75 -0.86,-0.28 -1.16,-0.12 -1.3,0.68 -0.13,0.83 -0.52,0.85 -1.88,0.1 -1.58,-0.88 -2.1,-0.78 -6.91,1.32 -6.13,2.68 -14.8,8.17 -18.54,11.76 -3.71,3.56 -4.85,3.92 -5.7,1.81 -0.52,-1.26 -0.36,-2.06 0.64,-3.14 0.73,-0.79 1.71,-1.89 2.18,-2.43 0.46,-0.54 3.73,-2.94 7.26,-5.34 3.53,-2.4 7.02,-4.79 7.77,-5.32 0.74,-0.53 2.76,-1.62 4.47,-2.42 2.88,-1.35 3.25,-1.77 4.78,-5.55 0.91,-2.25 1.67,-4.57 1.69,-5.15 0.02,-0.59 0.12,-1.57 0.21,-2.19 0.36,-2.39 -0.23,-9.34 -0.94,-11.07 -0.14,-0.34 -25.63,10.51 -32.17,13.7 -2.41,1.17 -10.52,4.81 -18.03,8.09 -13.15,5.74 -20.53,9.35 -31.48,15.38 -2.83,1.56 -5.92,3.25 -6.87,3.76 -0.95,0.5 -3.62,2.06 -5.93,3.45 -2.32,1.39 -5.23,3.11 -6.49,3.81 -1.25,0.69 -3.39,2 -4.75,2.9 -1.37,0.9 -4.44,2.62 -6.83,3.83 -2.4,1.2 -5.24,2.71 -6.33,3.34 -1.09,0.63 -3.95,2.11 -6.35,3.29 -4.98,2.44 -8.79,4.71 -14.54,8.64 -2.21,1.51 -4.32,2.7 -4.69,2.64 -0.37,-0.07 -1.4,0.63 -2.28,1.55 -0.88,0.92 -2.79,2.52 -4.26,3.56 -1.46,1.05 -3.53,2.87 -4.6,4.05 -1.06,1.18 -2.47,2.37 -3.13,2.64 -1.41,0.57 -8.59,8.54 -9.69,10.76 -1.05,2.11 -1.09,5.18 -0.08,5.61 0.44,0.18 1.54,1.73 2.45,3.45 0.91,1.71 2.84,4.44 4.29,6.06 2.75,3.07 4.18,3.33 4.79,0.86 0.29,-1.17 0.56,-1.31 2.18,-1.14 1.99,0.2 2.04,0.17 7.08,-4.41 2.14,-1.95 4.42,-3.43 6.36,-4.13 5.65,-2.04 12.35,-3.94 15.02,-4.27 1.47,-0.18 3.09,-0.44 3.61,-0.59 2.1,-0.58 4.08,-0.43 4.12,0.32 0.05,0.86 -2.12,1.85 -5.74,2.62 -4.26,0.9 -10.69,3.73 -14.69,6.48 -6.59,4.51 -8.86,7.29 -11.48,13.97 -1.39,3.57 -3.06,6.63 -4.1,7.51 -0.96,0.82 -1.65,1.74 -1.52,2.04 0.42,1.03 -0.87,1.01 -3.4,-0.05 -3.06,-1.28 -4.35,-3.28 -7.23,-11.21 -1.19,-3.25 -2.31,-5.72 -2.48,-5.48 -0.18,0.25 -0.15,2.64 0.07,5.32 0.34,4.08 0.77,5.58 2.64,9.19 2.26,4.38 6.56,8.9 8.33,8.79 2.09,-0.14 4.57,-1.65 5.76,-3.49 z m 73.22,-43.37 c -0.72,0.12 -2.32,0.17 -3.55,0.13 -1.23,-0.05 -2.49,0.01 -2.79,0.13 -0.3,0.12 -1.43,-0.32 -2.52,-0.98 -2.39,-1.45 -2.12,-2.71 0.69,-3.24 1.89,-0.36 3.22,-1.01 15.1,-7.34 5.58,-2.98 9.54,-5.7 11.18,-7.68 0.51,-0.61 2.01,-1.95 3.33,-2.97 2.2,-1.69 9.93,-9.46 12.99,-13.05 0.69,-0.81 1.69,-1.65 2.23,-1.87 0.54,-0.22 2.03,-1.61 3.32,-3.1 2.71,-3.12 3.44,-3.56 3.95,-2.33 0.29,0.72 -3.93,6.17 -5.18,6.68 -1.18,0.48 -15.33,18.66 -15.92,20.45 -0.09,0.26 -0.77,1.1 -1.51,1.87 -0.75,0.77 -1.2,1.76 -1.02,2.21 0.18,0.45 -0.08,0.98 -0.57,1.18 -0.49,0.2 -0.99,0.14 -1.11,-0.14 -0.24,-0.6 -2.1,0.65 -6.01,4.06 -2.65,2.32 -9.17,5.41 -12.61,5.99 z m -77.82,12.82 c -3.43,-0.2 -4.15,-0.46 -4.26,-1.58 -0.08,-0.74 -0.26,-2.08 -0.4,-2.98 -0.54,-3.3 0.22,-4.99 2.71,-6 2.08,-0.85 2.39,-0.8 2.94,0.54 0.39,0.97 0.27,1.64 -0.33,1.89 -0.58,0.23 -0.7,0.76 -0.32,1.35 1.02,1.55 2.36,0.44 2.1,-1.73 -0.33,-2.68 0.6,-5.81 1.68,-5.63 0.47,0.08 1.63,0.92 2.58,1.87 3.03,3.05 3.19,8.05 0.33,10.58 -2.16,1.91 -2.35,1.95 -7.03,1.69 z m 70.84,-42.98 c -4.36,-0.45 -8.04,-5.7 -6.45,-9.19 0.59,-1.29 1.17,-1.77 1.96,-1.64 0.91,0.16 1.07,0.46 0.86,1.71 -0.46,2.68 0.55,4 2.98,3.89 1.23,-0.05 2.47,-0.29 2.76,-0.53 0.45,-0.39 1.67,-1.25 2.41,-1.71 0.13,-0.09 -0.96,-0.64 -2.43,-1.24 -3.04,-1.24 -3.41,-1.78 -2.86,-4.2 0.31,-1.33 0.69,-1.68 1.72,-1.58 0.72,0.08 1.42,-0.1 1.54,-0.4 0.45,-1.07 5.21,1.4 5.88,3.05 1.04,2.56 0.73,5.8 -0.81,8.32 -1.66,2.73 -4.11,3.87 -7.56,3.52 z m 73.78,-41.5 c -3.69,-1.73 -4.69,-3.31 -3.85,-6.08 l 0.56,-1.86 2.21,0.83 c 1.21,0.45 2.7,1.33 3.3,1.95 1.18,1.2 2.77,0.96 3.01,-0.46 0.08,-0.48 -0.37,-2.01 -1,-3.4 -0.63,-1.39 -0.99,-2.73 -0.81,-2.99 0.19,-0.25 1.79,0.01 3.57,0.59 l 3.22,1.04 -0.42,4.11 c -0.44,4.28 -1.41,5.76 -4.61,7.07 -1.41,0.57 -2.66,0.38 -5.18,-0.8 z M 267.44,701 c -0.1,-0.25 -0.45,-0.35 -0.78,-0.21 -0.33,0.13 -0.35,0.85 -0.04,1.59 0.45,1.09 0.6,1.12 0.78,0.21 0.11,-0.63 0.13,-1.34 0.04,-1.59 z M 473.1,613.73 c 2.32,-1.38 5.66,-3.22 7.42,-4.09 1.75,-0.88 5.24,-2.74 7.75,-4.15 2.5,-1.4 5.84,-3.25 7.41,-4.11 1.57,-0.86 4.01,-2.2 5.42,-2.98 1.42,-0.79 3.61,-1.97 4.88,-2.63 1.27,-0.65 4.74,-2.55 7.72,-4.2 2.98,-1.66 6.99,-3.78 8.92,-4.72 3.27,-1.6 6.97,-3.66 16.51,-9.22 2.18,-1.26 4.86,-2.8 5.96,-3.4 1.1,-0.61 4.3,-2.39 7.13,-3.95 5.62,-3.11 10.6,-6.23 13.92,-8.72 l 2.14,-1.61 -3.14,0.84 c -1.95,0.52 -5.92,2.5 -10.46,5.21 -4.03,2.41 -8.38,4.86 -9.67,5.46 -2.11,0.97 -11.41,5.73 -13.6,6.96 -4.72,2.63 -7.98,4.33 -12.69,6.6 -3.05,1.47 -6.46,3.15 -7.56,3.74 -1.11,0.58 -6.26,3.01 -11.44,5.39 -5.18,2.37 -10.47,4.84 -11.75,5.49 -1.27,0.64 -4.81,2.38 -7.86,3.87 -6.93,3.39 -11.53,6.25 -13.22,8.25 -0.72,0.85 -1.87,1.78 -2.56,2.06 -1.61,0.66 -2.65,3.5 -1.68,4.54 0.82,0.87 2.14,0.28 10.45,-4.63 z m -5.63,-6.08 c 2.35,-1.85 6.29,-4.11 10.77,-6.16 3.89,-1.79 7.69,-3.65 8.45,-4.14 0.77,-0.48 5.51,-2.75 10.54,-5.02 5.03,-2.28 10.06,-4.61 11.17,-5.18 1.12,-0.57 3.72,-1.91 5.78,-2.98 2.06,-1.07 6.78,-3.38 10.48,-5.12 3.7,-1.74 7.9,-3.94 9.35,-4.87 1.44,-0.93 5.2,-2.93 8.35,-4.44 3.15,-1.5 6.46,-3.39 7.36,-4.19 1.25,-1.13 1.9,-1.38 2.81,-1.09 0.73,0.22 1.23,0.09 1.31,-0.35 0.12,-0.75 6.75,-4.43 12.11,-6.73 1.7,-0.72 3.19,-1.58 3.32,-1.9 0.52,-1.22 -16.14,-3.31 -19.95,-2.51 -0.86,0.18 -1.91,0.27 -2.34,0.2 -0.43,-0.07 -2.65,0.47 -4.93,1.21 -2.29,0.74 -4.52,1.23 -4.96,1.09 -1,-0.32 -7.43,1.91 -8.08,2.8 -0.25,0.35 -1.16,0.77 -2.02,0.93 -4.93,0.93 -11.81,3.61 -34.92,13.62 -19.91,8.62 -31.07,14.11 -34.29,16.89 -1.24,1.08 -3.44,2.44 -4.88,3.02 -1.44,0.59 -2.56,1.21 -2.49,1.39 0.07,0.17 1.36,1.01 2.86,1.85 5.11,2.88 7.14,5.63 8.65,11.67 0.46,1.84 1.06,3.24 1.34,3.13 0.28,-0.12 2.17,-1.52 4.21,-3.12 z"
         id="path2400"
         inkscape:connector-curvature="0" />
    </g>
  </g>
</svg>
