<?xml version="1.0" encoding="UTF-8" standalone="no"?>
<!-- Created with Inkscape (http://www.inkscape.org/) -->

<svg
   xmlns:dc="http://purl.org/dc/elements/1.1/"
   xmlns:cc="http://creativecommons.org/ns#"
   xmlns:rdf="http://www.w3.org/1999/02/22-rdf-syntax-ns#"
   xmlns:svg="http://www.w3.org/2000/svg"
   xmlns="http://www.w3.org/2000/svg"
   xmlns:sodipodi="http://sodipodi.sourceforge.net/DTD/sodipodi-0.dtd"
   xmlns:inkscape="http://www.inkscape.org/namespaces/inkscape"
   width="62mm"
   height="88mm"
   viewBox="0 0 219.68504 311.81102"
   id="svg2"
   version="1.1"
   inkscape:version="0.91 r13725"
   sodipodi:docname="o_toys.svg">
  <defs
     id="defs4">
    <inkscape:perspective
       sodipodi:type="inkscape:persp3d"
       inkscape:vp_x="0 : 155.90551 : 1"
       inkscape:vp_y="0 : 1000 : 0"
       inkscape:vp_z="219.68504 : 155.90551 : 1"
       inkscape:persp3d-origin="109.84252 : 103.93701 : 1"
       id="perspective6315" />
    <clipPath
       clipPathUnits="userSpaceOnUse"
       id="clipPath8648">
      <path
         style="fill:#ff0000;fill-opacity:1;fill-rule:evenodd;stroke:none;stroke-width:1px;stroke-linecap:butt;stroke-linejoin:miter;stroke-opacity:1"
         d="m 48.7971,144.54832 -4.54568,-1.2627 -4.04062,0.50508 -4.79822,3.40927 -5.93465,4.29314 -2.0203,2.90419 0.12627,2.65165 2.65165,2.14658 -1.01015,1.76776 -3.283,1.26269 -3.40926,8.08123 6.31345,9.34391 10.35406,-0.75762 46.21448,3.91434 25.50635,-7.19733 9.47018,-5.05077 0.12627,-10.10152 -2.65165,-1.13642 0.88389,-15.15229 10.35406,-6.9448 3.28299,-3.91434 6.566,-7.82868 0.50507,-4.54569 -4.54568,-1.89404 -2.14658,1.01016 -4.16688,1.13642 -5.93464,-2.90419 -2.77792,-1.76777 -5.80838,2.39911 -2.90419,3.03046 -3.40926,4.9245 -7.07107,0.3788 -8.96511,5.80838 -2.90418,2.14657 -3.66181,0.12627 -5.55584,-0.3788 -17.29886,2.65165 z"
         id="path8650"
         inkscape:connector-curvature="0" />
    </clipPath>
    <mask
       maskUnits="userSpaceOnUse"
       id="mask8666">
      <rect
         rx="1.7260212"
         ry="2.8714814"
         y="98.924339"
         x="22.885082"
         height="109.83415"
         width="100.10923"
         id="rect8668"
         style="opacity:1;fill:#ffffff;fill-opacity:1;stroke:none;stroke-width:2.01114893;stroke-linecap:round;stroke-linejoin:bevel;stroke-miterlimit:4;stroke-dasharray:none;stroke-dashoffset:0;stroke-opacity:1" />
    </mask>
    <clipPath
       clipPathUnits="userSpaceOnUse"
       id="clipPath9647">
      <path
         style="fill:#ff0000;fill-opacity:1;fill-rule:evenodd;stroke:none;stroke-width:1px;stroke-linecap:butt;stroke-linejoin:miter;stroke-opacity:1"
         d="m 24.29467,289.85466 12.14286,-9.28572 41.42857,-15.71428 40,-5 20,5 2.85715,7.14285 9.28571,6.42858 10,1.42857 -3.57143,13.57143 -15.71428,10 -27.85715,5.71428 -74.28571,1.42857 z"
         id="path9649"
         inkscape:connector-curvature="0" />
    </clipPath>
  </defs>
  <sodipodi:namedview
     id="base"
     pagecolor="#ffffff"
     bordercolor="#666666"
     borderopacity="1.0"
     inkscape:pageopacity="0.0"
     inkscape:pageshadow="2"
     inkscape:zoom="1.4"
     inkscape:cx="268.51758"
     inkscape:cy="151.41445"
     inkscape:document-units="px"
     inkscape:current-layer="layer1"
     showgrid="false"
     inkscape:window-width="1920"
     inkscape:window-height="1026"
     inkscape:window-x="-2"
     inkscape:window-y="31"
     inkscape:window-maximized="1" />
  <metadata
     id="metadata7">
    <rdf:RDF>
      <cc:Work
         rdf:about="">
        <dc:format>image/svg+xml</dc:format>
        <dc:type
           rdf:resource="http://purl.org/dc/dcmitype/StillImage" />
        <dc:title></dc:title>
      </cc:Work>
    </rdf:RDF>
  </metadata>
  <g
     inkscape:label="Layer 1"
     inkscape:groupmode="layer"
     id="layer1"
     transform="translate(0,-740.55118)">
    <text
       xml:space="preserve"
       style="font-style:normal;font-weight:normal;font-size:22.05662727px;line-height:125%;font-family:Sans;letter-spacing:0px;word-spacing:0px;fill:#000000;fill-opacity:1;stroke:none;stroke-width:1px;stroke-linecap:butt;stroke-linejoin:miter;stroke-opacity:1"
       x="148.71159"
       y="766.04486"
       id="text6305"
       sodipodi:linespacing="125%"><tspan
         sodipodi:role="line"
         id="tspan6307"
         x="148.71159"
         y="766.04486"
         style="font-style:normal;font-variant:normal;font-weight:normal;font-stretch:normal;font-size:15px;font-family:'Ubuntu Condensed';-inkscape-font-specification:'Ubuntu Condensed, '">A C1 C2 D T</tspan></text>
    <text
       xml:space="preserve"
       style="font-style:normal;font-weight:normal;font-size:24.13778114px;line-height:125%;font-family:Sans;letter-spacing:0px;word-spacing:0px;fill:#000000;fill-opacity:1;stroke:none;stroke-width:1px;stroke-linecap:butt;stroke-linejoin:miter;stroke-opacity:1"
       x="42.225628"
       y="1026.4518"
       id="text6309"
       sodipodi:linespacing="125%"><tspan
         sodipodi:role="line"
         id="tspan6311"
         x="42.225628"
         y="1026.4518"
         style="font-style:normal;font-variant:normal;font-weight:500;font-stretch:normal;font-size:22.5px;font-family:Essays1743;-inkscape-font-specification:'Essays1743 Medium'">Damaged Toys</tspan></text>
    <text
       xml:space="preserve"
       style="font-style:normal;font-weight:normal;font-size:19.57834816px;line-height:125%;font-family:Sans;letter-spacing:0px;word-spacing:0px;fill:#000000;fill-opacity:1;stroke:none;stroke-width:1px;stroke-linecap:butt;stroke-linejoin:miter;stroke-opacity:1"
       x="14.324148"
       y="763.8302"
       id="text6317"
       sodipodi:linespacing="125%"><tspan
         sodipodi:role="line"
         id="tspan6319"
         x="14.324148"
         y="763.8302"
         style="font-style:normal;font-variant:normal;font-weight:500;font-stretch:normal;font-family:Orbitron;-inkscape-font-specification:'Orbitron Medium'">O</tspan></text>
    <g
       transform="matrix(-0.40588072,2.5114622,-2.5114622,-0.40588072,271.55644,694.76277)"
       style="clip-rule:evenodd;fill-rule:evenodd"
       id="g3">
      <path
         inkscape:connector-curvature="0"
         d="m 99.84,9.84 c 0.295,0.105 0.492,0.307 0.479,0.72 -0.388,0.067 -0.413,-0.227 -0.72,-0.24 0.046,-0.195 0.24,-0.239 0.24,-0.48 z"
         id="path7" />
      <path
         inkscape:connector-curvature="0"
         d="m 100.56,11.04 c 0.356,0.283 1.072,0.208 0.96,0.96 -0.56,-0.083 -1.12,-0.155 -0.96,-0.96 z"
         id="path11" />
      <path
         inkscape:connector-curvature="0"
         d="m 102.96,15.6 c -1.599,-0.082 -1.166,-2.195 -1.921,-3.12 1.39,-0.199 1.57,1.955 1.92,3.12 z"
         id="path13" />
      <path
         inkscape:connector-curvature="0"
         d="m 72,15.84 c 0.997,0.173 1.331,2.01 0.479,2.64 -0.716,-0.004 -0.816,-0.624 -1.44,-0.72 -0.003,-0.965 0.377,-1.544 0.961,-1.92 z"
         id="path17" />
      <path
         inkscape:connector-curvature="0"
         d="m 103.44,17.28 c -0.558,0.58 -0.643,-0.375 -1.2,-0.48 0.09,-0.801 1.28,-0.269 1.2,0.48 z"
         id="path19" />
      <path
         inkscape:connector-curvature="0"
         d="m 91.68,18 c 0.214,0.106 0.429,0.211 0.479,0.48 -0.716,1.844 -1.961,3.159 -3.12,4.56 -1.097,-0.103 -1.1,-1.3 -1.68,-1.92 1.008,-1.473 3.446,-1.515 4.321,-3.12 z"
         id="path21" />
      <path
         inkscape:connector-curvature="0"
         d="m 102.48,18 c 0.931,-0.068 1.733,0.787 1.2,1.44 -0.56,-0.316 -1.18,-0.576 -1.2,-1.44 z"
         id="path23" />
      <path
         inkscape:connector-curvature="0"
         d="m 103.2,19.92 c 0.781,0.023 1.359,0.97 0.96,1.44 -0.65,-0.147 -0.94,-0.659 -0.96,-1.44 z"
         id="path25" />
      <path
         inkscape:connector-curvature="0"
         d="m 103.68,23.76 c 0.8,0.063 1.558,0.962 0.96,1.68 -0.52,-0.347 -1.37,-1.154 -0.96,-1.68 z"
         id="path29" />
      <path
         inkscape:connector-curvature="0"
         d="m 75.6,24.48 c 0.945,-0.146 1.062,0.537 1.2,1.2 -0.663,-0.137 -1.345,-0.254 -1.2,-1.2 z"
         id="path33" />
      <path
         inkscape:connector-curvature="0"
         d="m 79.44,25.92 c 0.121,1.111 0.215,1.36 0.72,2.4 -2.558,2.907 -4.26,-3.56 -0.72,-2.4 z"
         id="path35" />
      <path
         inkscape:connector-curvature="0"
         d="m 85.2,25.68 c 0.194,0.045 0.239,0.241 0.48,0.24 -0.046,0.194 -0.241,0.239 -0.24,0.48 -0.194,-0.045 -0.239,-0.241 -0.479,-0.24 0.044,-0.194 0.24,-0.239 0.239,-0.48 z"
         id="path37" />
      <path
         inkscape:connector-curvature="0"
         d="m 103.44,25.68 c 0.854,-0.055 1.255,0.345 1.2,1.2 -0.69,-0.106 -1.09,-0.506 -1.2,-1.2 z"
         id="path39" />
      <path
         inkscape:connector-curvature="0"
         d="m 84.48,25.92 c 0.011,0.731 -0.507,0.933 -0.72,1.44 -0.459,-0.244 -0.163,-1.744 0.72,-1.44 z"
         id="path41" />
      <path
         inkscape:connector-curvature="0"
         d="m 104.4,28.56 c -0.809,-0.151 -1.104,-0.815 -1.2,-1.68 1.28,-0.182 1.48,0.976 1.2,1.68 z"
         id="path47" />
      <path
         inkscape:connector-curvature="0"
         d="m 89.76,27.6 c 0.774,0.636 -0.204,1.54 -0.48,1.92 -0.724,-0.586 0.255,-1.49 0.48,-1.92 z"
         id="path51" />
      <path
         inkscape:connector-curvature="0"
         d="m 103.2,28.8 0.721,0 c 0.261,1.126 -0.14,3.493 -1.2,4.08 -0.88,-1.69 1.13,-2.481 0.48,-4.08 z"
         id="path55" />
      <path
         inkscape:connector-curvature="0"
         d="m 85.68,30.72 c -0.136,0.584 -0.206,1.234 -0.96,1.2 -0.062,-0.782 0.285,-1.155 0.96,-1.2 z"
         id="path57" />
      <path
         inkscape:connector-curvature="0"
         d="m 81.12,33.36 c 0.068,0.628 -0.087,1.033 -0.72,0.96 -0.067,-0.628 0.088,-1.032 0.72,-0.96 z"
         id="path59" />
      <path
         inkscape:connector-curvature="0"
         d="m 102.96,34.08 c -0.49,0.482 -0.471,-0.106 -0.96,-0.24 0.04,-0.696 1.14,-0.578 0.96,0.24 z"
         id="path61" />
      <path
         inkscape:connector-curvature="0"
         d="m 102,34.56 c 0.387,-0.068 0.413,0.227 0.72,0.24 -0.083,0.558 -0.155,1.125 -0.96,0.96 -0.08,-0.556 0.04,-0.922 0.24,-1.2 z"
         id="path63" />
      <path
         inkscape:connector-curvature="0"
         d="m 90.72,35.76 c 0.787,-0.038 1.151,0.98 0.72,1.44 -0.787,0.038 -1.151,-0.98 -0.72,-1.44 z"
         id="path65" />
      <path
         inkscape:connector-curvature="0"
         d="m 87.84,36 c 0.627,-0.068 1.032,0.088 0.96,0.72 -0.628,0.068 -1.032,-0.088 -0.96,-0.72 z"
         id="path67" />
      <path
         inkscape:connector-curvature="0"
         d="m 92.16,36 c 1.302,0.129 0.928,1.506 0.721,2.16 -0.193,-0.127 -0.39,-0.25 -0.721,-0.24 0.237,-0.94 -0.531,-1.394 0,-1.92 z"
         id="path69" />
      <path
         inkscape:connector-curvature="0"
         d="m 95.04,36.96 c 0.101,0.82 -0.072,1.368 -0.96,1.2 -0.063,-0.783 0.285,-1.155 0.96,-1.2 z"
         id="path71" />
      <path
         inkscape:connector-curvature="0"
         d="m 92.16,38.88 c -0.782,0.062 -1.154,-0.285 -1.199,-0.96 0.499,-0.472 1.204,0.206 1.199,0.96 z"
         id="path73" />
      <path
         inkscape:connector-curvature="0"
         d="m 92.64,38.88 c 0.632,-0.072 0.787,0.333 0.72,0.96 -0.647,-0.016 -1.153,-0.548 -0.72,-0.96 z"
         id="path75" />
      <path
         inkscape:connector-curvature="0"
         d="m 91.68,40.08 c -0.489,0.482 -0.471,-0.106 -0.96,-0.24 0.043,-0.696 1.141,-0.578 0.96,0.24 z"
         id="path77" />
      <path
         inkscape:connector-curvature="0"
         d="m 96.24,39.84 c 1.353,0.088 1.913,-0.031 2.641,0.96 0.553,-0.247 0.773,-0.826 1.68,-0.72 -0.382,2.784 -3.344,2.352 -5.04,0.96 -0.113,-0.753 0.646,-0.634 0.72,-1.2 z"
         id="path79" />
      <path
         inkscape:connector-curvature="0"
         d="m 74.88,41.04 c 0.501,-0.102 0.635,0.165 0.96,0.24 -0.044,0.696 -1.14,0.578 -0.96,-0.24 z"
         id="path81" />
      <path
         inkscape:connector-curvature="0"
         d="m 76.8,42 c -0.887,-0.728 0.729,-0.809 0,0 z"
         id="path83" />
      <path
         inkscape:connector-curvature="0"
         d="m 91.68,42.24 0.72,0 c 0.357,1.717 -1.683,1.108 -0.72,0 z"
         id="path85" />
      <path
         inkscape:connector-curvature="0"
         d="m 94.32,45.6 c -0.062,0.737 -0.521,1.079 -0.72,1.68 -0.755,0.115 -0.938,-0.342 -1.44,-0.48 0.056,-1.782 1.453,-1.752 2.16,-1.2 z"
         id="path87" />
      <path
         inkscape:connector-curvature="0"
         d="m 92.88,48 c -0.284,0.356 -0.208,1.072 -0.96,0.96 -0.65,-0.564 0.396,-1.61 0.96,-0.96 z"
         id="path89" />
      <path
         inkscape:connector-curvature="0"
         d="m 81.6,50.16 c 0.502,-0.102 0.636,0.165 0.96,0.24 -0.043,0.696 -1.141,0.579 -0.96,-0.24 z"
         id="path95" />
      <path
         inkscape:connector-curvature="0"
         d="m 91.92,50.64 c -0.587,0.854 -0.523,2.357 -1.92,2.4 0.443,-0.997 0.574,-2.306 1.92,-2.4 z"
         id="path97" />
      <path
         inkscape:connector-curvature="0"
         d="m 89.52,54.48 c 0.952,0.24 -0.038,0.968 -0.24,1.439 -0.86,-0.509 -0.076,-0.893 0.24,-1.439 z"
         id="path101" />
      <path
         inkscape:connector-curvature="0"
         d="m 90.96,54.48 c 0.189,0.829 -0.268,1.013 -0.48,1.439 -0.859,-0.146 -0.319,-1.534 0.48,-1.439 z"
         id="path103" />
      <path
         inkscape:connector-curvature="0"
         d="m 91.92,55.68 c 0.047,0.688 0.029,1.311 -0.721,1.2 -0.496,-0.494 0.002,-1.217 0.721,-1.2 z"
         id="path105" />
      <path
         inkscape:connector-curvature="0"
         d="m 89.28,60.48 c 0.59,-1.011 0.86,-2.34 1.681,-3.12 0.204,-0.394 0.711,2.585 -0.48,2.399 0.429,0.405 0.671,1.079 0,1.44 -0.755,0.114 -0.635,-0.645 -1.201,-0.719 z"
         id="path107" />
      <path
         inkscape:connector-curvature="0"
         d="m 84,66 c 0.71,0.169 1.138,0.622 1.199,1.44 -0.502,0.522 -0.685,-0.12 -1.439,0 C 83.728,66.849 83.723,66.283 84,66 Z"
         id="path117" />
      <path
         inkscape:connector-curvature="0"
         d="m 86.64,68.64 c -0.656,0.469 -1.023,0.469 -1.68,0 -0.057,-1.681 1.738,-1.681 1.68,0 z"
         id="path119" />
      <path
         inkscape:connector-curvature="0"
         d="m 106.8,78 c -0.068,-0.388 0.227,-0.413 0.239,-0.72 0.195,0.045 0.239,0.24 0.48,0.239 l 0,0.48 C 107.279,78 107.039,78 106.799,78 Z"
         id="path121" />
      <path
         inkscape:connector-curvature="0"
         d="m 107.76,78.479 c -0.22,0.421 -0.446,0.834 -1.2,0.721 -0.173,-0.49 -0.753,-0.95 -0.24,-1.44 0.37,0.347 0.94,0.505 1.44,0.719 z"
         id="path123" />
      <path
         inkscape:connector-curvature="0"
         d="m 78.24,80.88 c 0.09,-0.901 0.75,-2.135 1.44,-1.68 -0.025,1.015 -0.646,1.434 -1.44,1.68 z"
         id="path125" />
      <path
         inkscape:connector-curvature="0"
         d="m 102.72,81.6 c -0.287,0.839 -0.822,0.671 -1.44,0.24 0.085,-0.315 0.423,-0.377 0.48,-0.72 0.48,0.003 0.3,0.654 0.96,0.48 z"
         id="path127" />
      <path
         d="m 98.4,48.48 c 0.301,-0.916 -0.212,-1.156 0.24,-1.92 -1.51,0.228 -0.568,2.428 -0.72,2.88 -0.828,0.067 -1.74,-1.533 -3.12,-0.48 -0.17,0.89 0.41,1.03 0.239,1.92 0.79,-0.09 0.484,-1.276 1.44,-1.2 0.435,0.205 0.662,0.618 1.2,0.72 0.174,0.734 -0.414,0.706 -0.24,1.44 0.587,-0.213 0.26,-1.34 1.2,-1.2 0.035,-0.738 -0.845,-1.08 -0.24,-1.68 1.064,-0.024 1.298,0.783 1.44,1.68 -0.446,0.194 -0.97,0.31 -1.2,0.72 1.164,0.255 1.104,1.77 0.479,2.64 0.934,1.07 2.599,2.679 2.4,4.08 1.588,1.532 2.478,3.763 3.84,5.52 l 0,1.2 c 1.114,0.886 1.506,2.494 2.4,3.601 -0.862,1.854 1.25,2.496 2.16,3.84 0.49,0.725 0.694,2.102 1.199,3.12 1.049,2.113 2.184,3.045 1.92,5.76 -2.544,2.216 -5.1,7.046 -9.119,8.16 -2.309,0.64 -4.148,-0.662 -5.28,-2.16 -0.748,-3.369 0.626,-5.233 1.68,-6.96 0.091,-2.091 0.196,-4.196 -1.68,-4.32 -0.102,-0.501 0.164,-0.636 0.24,-0.96 -0.83,0.19 -1.014,-0.267 -1.44,-0.479 -0.102,-0.502 0.164,-0.636 0.24,-0.96 -2.825,-1.153 -5.114,-3.376 -8.641,-3.12 -0.664,0.985 -2.047,2.09 -1.68,3.359 -0.599,-0.25 -0.458,0.687 -0.479,0.721 -0.908,1.425 -2.257,2.606 -3.601,3.6 -0.372,2.348 -2.195,3.244 -3.12,5.04 l -0.72,0 c -0.148,0.992 -0.799,1.782 -1.439,2.4 -1.472,1.418 -4.828,4.266 -7.2,2.64 -1.343,-0.92 -1.22,-1.23 -2.16,-2.88 -0.372,-0.652 -1.026,-1.222 -1.44,-1.92 -2.998466,-4.608031 -4.70166,-12.868466 1.2,-12.24 0.331,2.068 2.288,2.513 3.12,4.08 2.778,-1.062 1.236,-6.443 3.12,-8.4 -0.187,-0.213 -0.258,-0.542 -0.24,-0.96 1.381,-0.859 1.744,-2.736 2.88,-3.84 0.566,-1.896 -0.871,-2.986 -1.2,-4.32 -0.116,-0.475 0.483,-0.576 0.48,-0.72 -0.006,-0.33 -0.646,-0.327 -0.72,-0.72 -0.157,-0.842 0.826,-0.595 0,-1.44 -0.089,-0.408 0.187,-0.452 0.479,-0.479 -0.799,-0.943 -0.766,-2.004 -0.72,-3.12 -0.780902,-10.469818 -1.29263,-8.317745 -0.72,-13.677 0.783,-0.497 0.653,-1.906 1.92,-1.92 -0.889,-1.226 -3.277,0.97 -3.84,-0.96 1.723,0.11 5.151,-0.438 4.319,-3.36 0.647,-0.147 1.973,0.835 2.4,1.68 0.657,-0.383 0.269,-1.812 0.72,-2.4 0.547,-0.067 0.902,0.058 0.96,0.48 0.4,-0.32 0.373,-1.067 0.72,-1.44 0.701,0.752 0.698,3.075 -0.72,3.36 -0.037,-0.597 0.377,-0.743 0.48,-1.2 -1.387,-0.106 -0.957,1.603 -1.681,2.16 -0.916,0.116 -1.531,-0.068 -1.92,-0.48 -0.553,-0.073 -0.267,0.693 -0.72,0.72 0.918,0.75 3.792,0.683 5.04,1.2 0.285,-1.004 -0.365,-1.075 -1.2,-0.96 0.226,-0.974 1.115,-1.285 1.44,-2.16 0.715,0.501 -0.319,1.262 0,2.16 0.772,-0.427 2.492,0.093 2.64,-0.96 -0.065,-0.841 -1.062,0.434 -0.96,-0.24 0.217,-0.663 0.915,-0.845 1.68,-0.96 -0.295,-0.938 0.41,-1.805 -0.72,-2.16 -0.037,-0.597 0.377,-0.743 0.48,-1.2 0.963,0.218 1.164,0.168 1.68,-0.48 -0.175,-0.254 -0.723,-0.027 -1.2,-0.48 0.106,-0.613 0.337,-1.104 0.72,-1.44 -1.21,0.207 -0.611,-2.636 -1.68,-2.16 0.028,-0.691 -0.131,-1.571 0.24,-1.92 0.85,0.081 0.59,0.661 1.439,0.24 -0.209,1.303 0.953,1.5 0.24,2.64 0.692,0.348 0.494,1.585 1.44,1.68 0.263,0.612 -0.82,1.235 0.239,1.2 -0.81,2.07 -1.6,4.16 -3.359,5.28 0.734,0.174 0.706,-0.414 1.439,-0.24 0.225,0.478 0.781,1.143 0.24,1.68 -0.489,0.482 -0.471,-0.106 -0.96,-0.24 -0.512,0.368 -0.693,1.066 -0.96,1.68 -1.678,0.025 -2.499,-0.591 -3.36,0.96 -0.489,-0.071 -0.47,-0.649 -0.96,-0.72 -0.188,1.092 -0.898,1.662 -1.439,2.4 -0.783,0.063 -0.509,-0.931 -1.2,-0.96 0.08,0.8 0.695,1.064 0.48,2.16 -0.953,1.103 -0.378,3.096 -1.44,3.6 0.236,0.95 0.332,1.743 -0.24,2.4 0.838,2.123 -0.134,4.464 -0.72,6.48 0.813,0.437 -0.051,1.195 0,1.44 0.097,0.464 1.269,0.675 0.479,1.44 0.521,0.343 1.354,1.166 0.721,1.92 0.859,0.823 1.676,2.959 1.439,4.08 0.659,0.703 1.108,0.526 1.92,0.72 0.198,0.678 -0.338,0.622 -0.239,1.2 0.484,0.204 1.84,-0.016 1.199,1.199 0.326,0.041 1.084,-0.294 1.681,0.48 -0.164,2.029 -1.246,2.688 -2.88,2.16 0.129,-1.121 -0.531,-2.354 -1.44,-1.681 -0.42,0.443 0.063,2.485 1.44,1.681 0.011,0.73 -0.507,0.933 -0.721,1.439 -1.136,-0.939 -1.726,0.171 -2.64,0.721 -0.676,-0.704 0.378,-1.032 0.72,-1.44 -0.334,-0.386 -1.185,-0.256 -1.439,-0.72 -0.425,-0.925 1.566,-1.381 0.239,-1.681 0.143,-0.897 0.84,-1.24 1.2,-1.92 -1.105,0.68 -2.548,2.381 -2.88,4.32 -0.11,0.645 0.383,1.444 0.24,2.16 -0.298,1.496 -2.092,2.557 -1.2,4.56 0.55,0.251 0.667,0.934 1.2,1.2 -0.22,0.806 -0.446,0.119 -1.2,0.24 -3.854,4.479 -5.479,-5.871 -9.6,-2.4 -0.562,3.68 2.383,7.142 3.6,9.601 0.825,-0.365 -0.262,-1.847 -0.72,-2.641 -0.909,-1.574 -2.229,-3.096 -2.4,-5.76 0.722,-0.534 0.838,-0.283 1.92,-0.24 2.002,3.118 3.486,6.754 5.28,10.08 -0.154,0.727 -0.375,1.386 -1.2,1.44 0.067,0.493 0.642,0.479 0.96,0.72 0.463,-0.098 0.189,-0.931 0.96,-0.72 -0.614,-0.603 -0.14,-0.804 -0.479,-1.681 0.578,0.099 0.521,-0.438 1.2,-0.239 -0.703,-0.258 -1.323,-0.598 -1.2,-1.681 0.689,0.05 1.219,-0.061 1.439,-0.479 0.499,0.363 1.076,1.444 1.92,0.72 -0.157,-0.719 -0.513,0.229 -0.96,0 0.168,-1.578 1.724,-1.105 2.881,-0.72 -0.272,1.328 -1.174,2.026 -2.16,2.64 -0.804,-0.217 -0.21,-0.536 0,-0.96 -0.703,-0.216 -0.737,-0.216 -1.44,0 0.532,0.348 0.635,1.126 0.72,1.92 2.525,-0.915 3.282,-3.598 4.561,-5.76 0.771,-0.147 0.329,0.864 0.96,0.24 0.029,-1.077 1.096,-2.799 2.64,-3.12 -0.1,-0.82 0.072,-1.367 0.96,-1.2 -0.117,-0.757 0.433,-0.848 0.24,-1.68 1.784,-0.535 1.797,-2.843 3.12,-3.84 -0.183,-0.994 -0.583,-0.28 -1.2,-0.721 -0.037,-0.597 0.377,-0.742 0.48,-1.199 1.439,0.604 1.939,0.51 3.12,0.72 0.493,-0.066 0.226,-0.895 0.72,-0.96 0.083,-0.971 -2.036,-1.449 -0.72,-2.16 -1.219,-0.636 -1.269,-3.509 -0.48,-4.8 1.309,0.413 1.029,2.506 0.48,3.359 0.425,0.295 0.972,0.468 1.199,0.96 -0.058,0.423 -0.413,0.548 -0.96,0.48 0.764,0.597 1.637,1.084 2.4,1.68 0.088,0.408 -0.188,0.453 -0.48,0.48 0.5,0.448 1.241,0.283 0.721,1.2 l 1.199,0 c 0.502,1.578 2.163,1.997 4.08,2.159 1.016,1.785 2.318,3.282 3.36,5.04 0.444,-0.036 0.147,-0.812 0.48,-0.96 0.691,0.257 0.795,0.729 0.479,1.44 0.534,0.104 1.302,0.552 1.44,-0.24 1.103,0.317 2.052,1.865 1.68,2.88 -0.279,-0.039 -0.427,0.054 -0.48,0.24 -0.495,-0.145 -0.908,-0.371 -0.72,-1.2 -0.747,0.693 -1.448,1.433 -1.92,2.4 -1.345,-0.037 -0.245,-1.179 -0.24,-1.92 -1.217,0.862 -1.033,3.126 -2.16,4.08 -0.159,1.439 0.218,2.342 0.24,3.6 0.133,0.166 0.928,0.367 1.44,0 0.778,0.808 2.337,0.308 2.64,-0.72 0.214,0.106 0.43,0.211 0.48,0.479 2.412,-1.508 3.565,-4.273 6,-5.76 -0.516,-1.947 0.274,-4.73 -1.92,-5.76 -0.031,-0.431 0.293,-0.506 0.239,-0.96 -0.553,-0.58 -2.379,-0.735 -1.199,-1.681 l -1.2,0 c 0.311,-1.27 -0.566,-1.354 -1.2,-1.68 0.343,-1.914 -1.275,-2.974 -0.96,-4.08 -0.511,-0.48 -1.618,-1.267 -0.96,-2.16 -2.142,-2.979 -3.896,-6.343 -5.521,-9.84 -0.494,0.065 -0.057,1.063 -0.72,0.96 -0.845,-0.635 -2.122,-1.044 -2.88,0 -0.422,-0.058 -0.547,-0.413 -0.48,-0.96 -0.555,0.325 -0.795,0.965 -1.92,0.721 0.205,-1.58 -0.456,-0.81 -1.199,-1.44 0.108,-1.412 0.744,-2.296 1.68,-2.88 -0.34,1.109 0.651,1.371 -0.24,2.4 0.885,-0.315 1.179,-2.231 2.16,-1.68 -0.128,-0.912 -1.168,-0.912 -1.68,-1.44 0.095,-0.785 0.208,-1.551 0.96,-1.68 0.45,0.458 -0.143,0.434 0,1.2 0.423,-0.217 0.396,-0.883 0.96,-0.96 -0.976,-0.266 -0.818,-1.792 -0.24,-2.4 0.783,0.248 0.509,0.608 1.2,0 -1.11,-0.423 -0.015,-1.572 -1.681,-1.44 -0.102,-0.502 0.165,-0.636 0.24,-0.96 -0.456,-0.36 -0.653,0.847 -1.68,0.24 -0.209,-1.457 0.595,-3.633 2.16,-4.08 0.256,-0.896 -0.597,-0.684 -0.48,-1.44 0.427,-0.213 0.61,-0.67 1.44,-0.48 0.64,1.003 -0.219,2.252 -0.96,2.64 0.499,2.838 4.588,2.438 6.239,0.72 0.974,-3.313 3.381,-6.315 3.36,-9.84 0.193,-0.127 0.39,-0.25 0.72,-0.24 0.154,-0.886 -0.748,-1.653 0.48,-1.68 -0.152,-1.836 -0.324,-4.827 -0.24,-6 -0.59,-0.69 -2.076,-0.483 -1.92,-1.92 0.76,-0.04 0.802,0.638 1.68,0.48 0.424,-0.573 -0.699,-1.467 0,-2.4 -0.176,-0.224 -0.436,-0.364 -0.72,-0.48 -0.076,-2.069 0.102,-6.255 -1.92,-7.68 0.145,-2.145 -1.534,-2.466 -2.64,-3.36 -1.003,0.485 -1.804,0.625 -2.641,1.68 0.605,0.355 0.779,1.141 1.92,0.96 1.232,0.825 1.162,1.862 1.44,4.56 0.261,2.531 2.009,5.013 -0.24,5.52 -0.519,-3.242 -0.403,-7.116 -2.16,-9.12 -0.898,3.62 1.334,6.185 1.681,9.36 -0.355,0.278 -0.605,0.278 -0.96,0 -0.824,0.616 -0.435,2.446 -1.681,2.64 0.078,1.618 -0.117,4.126 -1.92,4.56 -0.628,2.252 -2.349,3.412 -2.16,6.48 -1.033,0.313 -0.943,-0.496 -1.199,-0.96 -0.503,1.277 -3.585,1.577 -2.881,-0.24 -1.101,0.221 -1.253,-0.507 -1.199,-1.44 3.736,-0.263 3.613,-4.386 4.56,-7.44 -0.931,-0.877 -2.764,1.045 -3.84,0.48 -0.058,-0.807 0.892,-1.24 1.44,-0.72 -0.077,-0.557 0.038,-0.921 0.239,-1.2 1.2,0.08 0.927,-1.313 1.92,-1.44 -0.015,-1.295 0.799,-1.761 1.2,-2.64 0.283,-1.347 -0.516,-1.935 -0.24,-3.36 -0.393,-0.966 -1.475,-1.245 -1.439,-2.64 1.046,-0.007 1.314,0.765 2.16,0.96 1.167,2.813 0.892,5.658 -0.48,8.16 0.738,1.588 1.09,3.38 0,4.8 0.067,0.493 0.642,0.479 0.96,0.72 2.442,-1.592 0.708,-6.099 3.12,-7.44 -0.226,-2.337 -0.234,-4.817 -0.72,-7.44 -0.357,-1.931 -1.217,-4.271 0,-5.28 0.636,-0.527 2.727,-1.209 3.12,-1.2 3.024,0.067 3.249,4.135 5.279,5.04 -0.071,2.82 0.896,4.167 0.48,6.96 0.026,0.454 0.793,0.167 0.72,0.72 0.117,0.757 -0.433,0.847 -0.24,1.68 0.921,3.328 1.502,10.431 -0.239,14.4 -0.354,0.806 -1.345,1.454 -1.681,2.4 -0.288,0.814 -0.013,1.776 -0.479,2.4 -1.444,1.928 -2.209,3.121 -4.561,3.84 -0.382,2.187 1.125,2.247 0.24,4.56 -0.476,0.001 -0.304,-0.651 -0.959,-0.476 z m 6.96,-14.16 c 0.02,-0.422 -1.166,1.196 -0.479,1.44 -0.06,-0.702 0.54,-0.738 0.48,-1.44 z m -7.68,11.76 c 0.003,-0.477 0.654,-0.305 0.479,-0.96 -0.606,-0.253 -1.063,0.809 -0.479,0.96 z M 78.24,36.96 c -1.473,0.284 -0.602,1.156 0,0 z M 75.6,38.4 C 74.877,37.446 75.397975,39.813559 75.397975,39.813559 75.709975,39.085559 74.826,42.265 75.602,42 c 0.779,0.021 0.169,1.431 1.2,1.2 0.866,-1.113 0.257,-2.158 -0.721,-2.64 0.151,-0.818 0.442,-2.746 0.24,-3.12 -0.242,0.319 -0.228,0.893 -0.721,0.96 z m 2.4,2.64 c -0.041,-0.359 0.085,-0.886 -0.24,-0.96 -0.311,0.319 -0.316,0.893 0.24,0.96 z m -2.881,7.92 c 1.024644,-0.647699 0,0 0.241,0.72 -0.271,-1.019 1.459,-2.231 0.48,-2.4 -0.334321,1.12717 -1.013369,0.452747 -0.721,1.68 z m 21.121,4.56 c 0.167,-0.669 -1.193,-1.016 -1.439,-0.48 0.527,0.649 0.796,0.066 1.439,0.48 z m -18.48,12 c 0.33,-0.01 0.526,0.113 0.72,0.24 -0.054,-0.453 0.271,-0.529 0.24,-0.96 l -0.72,0 c 0.01,0.33 -0.113,0.527 -0.24,0.72 z M 70.8,84.24 c -0.323,-2.891 -2.527,-5.943 -3.84,-8.641 -0.308,-0.013 -0.333,-0.308 -0.721,-0.239 0.587,3.894 2.747,6.214 4.561,8.88 z m 33.6,-6 c -0.378,-0.022 -0.188,-0.612 -0.72,-0.48 -0.21,0.494 0.62,1.078 0.72,0.48 z m -34.32,6.48 c 0.043,-0.545 -0.811,-1.398 -0.96,-0.96 0.422,0.218 0.396,0.884 0.96,0.96 z"
         id="path135"
         inkscape:connector-curvature="0"
         sodipodi:nodetypes="ccccccccccccccccccccsccccccccccccccccccccccccccccccccccccccccccccccccccccccccccccccccccccccccccccccccccccccccccccccccccccccccccccccccccccccccccccccccccccccccccccccccccccccccccccccccccccccccccccccccccccccccccccccccccccccccccccccccccccccccccccccccccccccccccccccccccccccccccccccccccccccccccccc" />
      <path
         inkscape:connector-curvature="0"
         d="m 83.04,11.76 0,0.96 c 0.217,0.65 0.537,-0.549 0.961,-0.48 2.231,1.182 4.344,1.943 7.439,0.96 0.006,0.565 -0.413,0.707 -0.24,1.44 -0.501,0.102 -0.635,-0.165 -0.96,-0.24 -0.122,0.915 -0.889,1.08 -1.439,1.68 -0.781,0.851 -0.912,2.865 -2.4,2.88 -0.621,-1.955 0.938,-3.745 -0.479,-5.04 -1.101,0.412 -1.096,-0.547 -2.16,0.24 0.03,-0.431 -0.294,-0.506 -0.24,-0.96 -0.679,0.525 -1.972,0.735 -2.4,-0.24 -0.261,0.06 -0.162,0.477 -0.479,0.48 -2.509,-0.592 -3.778,1.926 -6.24,2.16 -0.498,0.062 -0.065,1.054 -0.479,1.2 -0.619,-0.262 -1.154,-0.606 -1.44,-1.2 1.724,-2.271 5.684,-4.613 9.12,-3.6 0.846,-0.08 0.586,-0.66 1.436,-0.24 z"
         id="path137" />
      <path
         inkscape:connector-curvature="0"
         d="m 69.36,32.88 c -0.204,-2.044 0.626,-3.054 1.2,-4.32 -2.21,-3.015 -1.515,-7.012 0,-10.32 0.499,0.141 0.775,0.504 1.2,0.72 -0.813,0.504 -0.28,2.959 -1.681,2.16 0.067,0.493 0.642,0.479 0.96,0.72 -0.472,1.246 -0.423,1.737 -0.96,2.64 0.929,-0.103 0.854,-0.263 1.44,0.24 0.228,-0.93 -0.936,-0.989 -0.24,-1.68 1.003,-0.123 0.659,1.102 1.2,1.44 0.757,-0.618 -0.599,-1.145 -0.24,-2.16 1.011,0.2 0.981,-1.406 2.16,-1.68 0.879,2.521 -0.007,4.088 1.92,5.76 -0.786,0.78 0.08,1.006 -0.24,1.68 -1.143,-0.165 -1.33,-1.062 -0.96,-2.16 -0.672,0.128 -1.247,0.353 -1.92,0.48 -1.039,1.84 -2.359,3.4 -2.64,6 0.918,-0.442 2.011,-0.709 3.12,-0.96 0.788,1.085 -0.585,1.716 -0.48,2.88 -1.719,0.855 -2.861,-0.771 -3.839,-1.44 z m 4.32,-9.12 c 0.033,0.447 0.158,0.802 0.479,0.96 -0.312,-0.596 0.704,-0.996 0,-1.2 -0.052,0.187 -0.2,0.279 -0.479,0.24 z"
         id="path139" />
      <path
         inkscape:connector-curvature="0"
         d="m 82.8,27.36 c -0.897,-0.107 -1.241,-0.036 -1.92,-0.72 0.526,-0.895 1.691,-0.124 2.159,-0.96 1.062,0.349 0.061,1.276 -0.239,1.68 z"
         id="path141" />
      <path
         inkscape:connector-curvature="0"
         d="m 84.24,29.04 c -0.096,1.421 0.192,0.595 0.96,0.48 -0.292,0.988 -0.544,2.016 -1.439,2.4 -0.022,-0.906 0.642,-1.355 -0.48,-0.96 0.081,-0.878 0.024,-1.895 0.959,-1.92 z"
         id="path143" />
    </g>
  </g>
</svg>
